# vtk DataFile Version 3.0
MOHID bathymetry 2D geometry
ASCII
DATASET POLYDATA
POINTS 17 double
0 0 0
8 0 0
9.5 2 0
8.1999999999999993 5.5 0
4 6.5 0
0.20000000000000001 4 0
3.3999999999999999 2.2000000000000002 0
4.7999999999999998 2 0
5.5 3.1000000000000001 0
4.2000000000000002 3.7999999999999998 0
0 0 -99
2 1 7.5
4 1.5 11
6 2.5 14.5
7.5 4 9
4 5.5 3.5
1 3 -1
VERTICES 7 14
1 10
1 11
1 12
1 13
1 14
1 15
1 16
LINES 2 14
7 0 1 2 3 4 5 0
5 6 7 8 9 6
POINT_DATA 17
SCALARS depth double 1
LOOKUP_TABLE default
-999
-999
-999
-999
-999
-999
-999
-999
-999
-999
-99
7.5
11
14.5
9
3.5
-1
