<?xml version="1.0" encoding="UTF-8" standalone="no"?>
<!DOCTYPE svg PUBLIC "-//W3C//DTD SVG 1.1//EN"
 "http://www.w3.org/Graphics/SVG/1.1/DTD/svg11.dtd">
<!-- Generated by graphviz version 2.43.0 (0)
 -->
<!-- Title: ID Pages: 1 -->
<svg width="238pt" height="84pt"
 viewBox="0.00 0.00 238.00 84.00" xmlns="http://www.w3.org/2000/svg" xmlns:xlink="http://www.w3.org/1999/xlink">
<g id="graph0" class="graph" transform="scale(1 1) rotate(0) translate(4 80)">
<title>ID</title>
<!-- Node1 -->
<g id="node1" class="node">
<title>Node1</title>
<g id="a_node1"><a xlink:title="Base class to provide unique identification for derived classes.">
<polygon fill="#bfbfbf" stroke="black" points="109,-56.5 109,-75.5 138,-75.5 138,-56.5 109,-56.5"/>
<text text-anchor="middle" x="123.5" y="-63.5" font-family="Helvetica,sans-Serif" font-size="10.00">ID</text>
</a>
</g>
</g>
<!-- Node2 -->
<g id="node2" class="node">
<title>Node2</title>
<g id="a_node2"><a xlink:href="classGeometricDataHolder.html" target="_top" xlink:title="Stores multiple variables of different types using a map where each variable is identified by a strin...">
<polygon fill="none" stroke="black" points="0,-0.5 0,-19.5 123,-19.5 123,-0.5 0,-0.5"/>
<text text-anchor="middle" x="61.5" y="-7.5" font-family="Helvetica,sans-Serif" font-size="10.00">GeometricDataHolder</text>
</a>
</g>
</g>
<!-- Node1&#45;&gt;Node2 -->
<g id="edge1" class="edge">
<title>Node1&#45;&gt;Node2</title>
<path fill="none" stroke="midnightblue" d="M105.75,-49.54C94.69,-39.91 80.87,-27.87 71.64,-19.83"/>
<polygon fill="midnightblue" stroke="midnightblue" points="103.7,-52.4 113.54,-56.32 108.3,-47.12 103.7,-52.4"/>
</g>
<!-- Node3 -->
<g id="node3" class="node">
<title>Node3</title>
<g id="a_node3"><a xlink:href="classVMMException.html" target="_top" xlink:title="Exception class for handling errors in VoronoiMeshMaker.">
<polygon fill="none" stroke="black" points="141,-0.5 141,-19.5 230,-19.5 230,-0.5 141,-0.5"/>
<text text-anchor="middle" x="185.5" y="-7.5" font-family="Helvetica,sans-Serif" font-size="10.00">VMMException</text>
</a>
</g>
</g>
<!-- Node1&#45;&gt;Node3 -->
<g id="edge2" class="edge">
<title>Node1&#45;&gt;Node3</title>
<path fill="none" stroke="midnightblue" d="M141.25,-49.54C152.31,-39.91 166.13,-27.87 175.36,-19.83"/>
<polygon fill="midnightblue" stroke="midnightblue" points="138.7,-47.12 133.46,-56.32 143.3,-52.4 138.7,-47.12"/>
</g>
</g>
</svg>
