<?xml version="1.0" encoding="UTF-8" standalone="no"?>
<!DOCTYPE svg PUBLIC "-//W3C//DTD SVG 1.1//EN"
 "http://www.w3.org/Graphics/SVG/1.1/DTD/svg11.dtd">
<!-- Generated by graphviz version 2.43.0 (0)
 -->
<!-- Title: src/VoronoiMeshMaker/Shape/Shape2D/CommaSeparatedValues.cpp Pages: 1 -->
<svg width="1359pt" height="530pt"
 viewBox="0.00 0.00 1358.78 530.00" xmlns="http://www.w3.org/2000/svg" xmlns:xlink="http://www.w3.org/1999/xlink">
<g id="graph0" class="graph" transform="scale(1 1) rotate(0) translate(4 526)">
<title>src/VoronoiMeshMaker/Shape/Shape2D/CommaSeparatedValues.cpp</title>
<!-- Node1 -->
<g id="node1" class="node">
<title>Node1</title>
<g id="a_node1"><a xlink:title=" ">
<polygon fill="#bfbfbf" stroke="black" points="786.28,-480.5 786.28,-521.5 973.28,-521.5 973.28,-480.5 786.28,-480.5"/>
<text text-anchor="start" x="794.28" y="-509.5" font-family="Helvetica,sans-Serif" font-size="10.00">src/VoronoiMeshMaker</text>
<text text-anchor="start" x="794.28" y="-498.5" font-family="Helvetica,sans-Serif" font-size="10.00">/Shape/Shape2D/CommaSeparated</text>
<text text-anchor="middle" x="879.78" y="-487.5" font-family="Helvetica,sans-Serif" font-size="10.00">Values.cpp</text>
</a>
</g>
</g>
<!-- Node2 -->
<g id="node2" class="node">
<title>Node2</title>
<g id="a_node2"><a xlink:title=" ">
<polygon fill="none" stroke="#bfbfbf" points="732.78,-352 732.78,-371 800.78,-371 800.78,-352 732.78,-352"/>
<text text-anchor="middle" x="766.78" y="-359" font-family="Helvetica,sans-Serif" font-size="10.00">filesystem</text>
</a>
</g>
</g>
<!-- Node1&#45;&gt;Node2 -->
<g id="edge1" class="edge">
<title>Node1&#45;&gt;Node2</title>
<path fill="none" stroke="midnightblue" d="M864.68,-480.44C850.87,-462.67 829.76,-435.83 810.78,-413 801.23,-401.52 790.19,-388.85 781.56,-379.08"/>
<polygon fill="midnightblue" stroke="midnightblue" points="783.95,-376.49 774.69,-371.33 778.71,-381.14 783.95,-376.49"/>
</g>
<!-- Node3 -->
<g id="node3" class="node">
<title>Node3</title>
<g id="a_node3"><a xlink:title=" ">
<polygon fill="none" stroke="#bfbfbf" points="1016.28,-419 1016.28,-438 1071.28,-438 1071.28,-419 1016.28,-419"/>
<text text-anchor="middle" x="1043.78" y="-426" font-family="Helvetica,sans-Serif" font-size="10.00">fstream</text>
</a>
</g>
</g>
<!-- Node1&#45;&gt;Node3 -->
<g id="edge2" class="edge">
<title>Node1&#45;&gt;Node3</title>
<path fill="none" stroke="midnightblue" d="M925.46,-480.36C953.91,-468.13 989.66,-452.76 1014.38,-442.14"/>
<polygon fill="midnightblue" stroke="midnightblue" points="1015.8,-445.34 1023.6,-438.17 1013.03,-438.91 1015.8,-445.34"/>
</g>
<!-- Node4 -->
<g id="node4" class="node">
<title>Node4</title>
<g id="a_node4"><a xlink:title=" ">
<polygon fill="none" stroke="#bfbfbf" points="1089.78,-419 1089.78,-438 1145.78,-438 1145.78,-419 1089.78,-419"/>
<text text-anchor="middle" x="1117.78" y="-426" font-family="Helvetica,sans-Serif" font-size="10.00">sstream</text>
</a>
</g>
</g>
<!-- Node1&#45;&gt;Node4 -->
<g id="edge3" class="edge">
<title>Node1&#45;&gt;Node4</title>
<path fill="none" stroke="midnightblue" d="M957.17,-480.41C994.75,-470.4 1040.41,-457.49 1080.78,-444 1083.04,-443.24 1085.37,-442.43 1087.7,-441.58"/>
<polygon fill="midnightblue" stroke="midnightblue" points="1089.05,-444.81 1097.17,-438 1086.58,-438.26 1089.05,-444.81"/>
</g>
<!-- Node5 -->
<g id="node5" class="node">
<title>Node5</title>
<g id="a_node5"><a xlink:href="CommaSeparatedValues_8h.html" target="_top" xlink:title=" ">
<polygon fill="none" stroke="black" points="447.78,-413.5 447.78,-443.5 643.78,-443.5 643.78,-413.5 447.78,-413.5"/>
<text text-anchor="start" x="455.78" y="-431.5" font-family="Helvetica,sans-Serif" font-size="10.00">VoronoiMeshMaker/Shape</text>
<text text-anchor="middle" x="545.78" y="-420.5" font-family="Helvetica,sans-Serif" font-size="10.00">/Shape2D/CommaSeparatedValues.h</text>
</a>
</g>
</g>
<!-- Node1&#45;&gt;Node5 -->
<g id="edge4" class="edge">
<title>Node1&#45;&gt;Node5</title>
<path fill="none" stroke="midnightblue" d="M787.18,-480.46C735.26,-469.49 671.27,-455.99 622.22,-445.63"/>
<polygon fill="midnightblue" stroke="midnightblue" points="622.81,-442.18 612.3,-443.54 621.36,-449.03 622.81,-442.18"/>
</g>
<!-- Node22 -->
<g id="node22" class="node">
<title>Node22</title>
<g id="a_node22"><a xlink:href="MakerException_8h.html" target="_top" xlink:title=" ">
<polygon fill="none" stroke="black" points="861.28,-413.5 861.28,-443.5 998.28,-443.5 998.28,-413.5 861.28,-413.5"/>
<text text-anchor="start" x="869.28" y="-431.5" font-family="Helvetica,sans-Serif" font-size="10.00">VoronoiMeshMaker/Error</text>
<text text-anchor="middle" x="929.78" y="-420.5" font-family="Helvetica,sans-Serif" font-size="10.00">/MakerException.h</text>
</a>
</g>
</g>
<!-- Node1&#45;&gt;Node22 -->
<g id="edge23" class="edge">
<title>Node1&#45;&gt;Node22</title>
<path fill="none" stroke="midnightblue" d="M893.7,-480.36C899.92,-471.59 907.29,-461.21 913.74,-452.12"/>
<polygon fill="midnightblue" stroke="midnightblue" points="916.64,-454.07 919.57,-443.89 910.93,-450.02 916.64,-454.07"/>
</g>
<!-- Node31 -->
<g id="node31" class="node">
<title>Node31</title>
<g id="a_node31"><a xlink:href="misc_8h.html" target="_top" xlink:title="Provides general&#45;purpose utility functions for the VoronoiMeshMaker library.">
<polygon fill="none" stroke="black" points="665.78,-413.5 665.78,-443.5 801.78,-443.5 801.78,-413.5 665.78,-413.5"/>
<text text-anchor="start" x="673.78" y="-431.5" font-family="Helvetica,sans-Serif" font-size="10.00">VoronoiMeshMaker/Misc</text>
<text text-anchor="middle" x="733.78" y="-420.5" font-family="Helvetica,sans-Serif" font-size="10.00">/misc.h</text>
</a>
</g>
</g>
<!-- Node1&#45;&gt;Node31 -->
<g id="edge34" class="edge">
<title>Node1&#45;&gt;Node31</title>
<path fill="none" stroke="midnightblue" d="M839.11,-480.36C818.18,-470.26 792.81,-458.01 772.22,-448.06"/>
<polygon fill="midnightblue" stroke="midnightblue" points="773.65,-444.87 763.12,-443.67 770.61,-451.17 773.65,-444.87"/>
</g>
<!-- Node6 -->
<g id="node6" class="node">
<title>Node6</title>
<g id="a_node6"><a xlink:href="Shape2D_8h.html" target="_top" xlink:title="Defines the Shape2D class, which represents 2D geometric shapes.">
<polygon fill="none" stroke="black" points="466.28,-346.5 466.28,-376.5 609.28,-376.5 609.28,-346.5 466.28,-346.5"/>
<text text-anchor="start" x="474.28" y="-364.5" font-family="Helvetica,sans-Serif" font-size="10.00">VoronoiMeshMaker/Shape</text>
<text text-anchor="middle" x="537.78" y="-353.5" font-family="Helvetica,sans-Serif" font-size="10.00">/Shape2D/Shape2D.h</text>
</a>
</g>
</g>
<!-- Node5&#45;&gt;Node6 -->
<g id="edge5" class="edge">
<title>Node5&#45;&gt;Node6</title>
<path fill="none" stroke="midnightblue" d="M544.04,-413.4C543.08,-405.56 541.85,-395.6 540.74,-386.57"/>
<polygon fill="midnightblue" stroke="midnightblue" points="544.21,-386.07 539.51,-376.58 537.26,-386.93 544.21,-386.07"/>
</g>
<!-- Node7 -->
<g id="node7" class="node">
<title>Node7</title>
<g id="a_node7"><a xlink:href="Shape_8h.html" target="_top" xlink:title="Defines the Shape class, which serves as the abstract base class for all shapes. This class provides ...">
<polygon fill="none" stroke="black" points="67.28,-279.5 67.28,-309.5 210.28,-309.5 210.28,-279.5 67.28,-279.5"/>
<text text-anchor="start" x="75.28" y="-297.5" font-family="Helvetica,sans-Serif" font-size="10.00">VoronoiMeshMaker/Shape</text>
<text text-anchor="middle" x="138.78" y="-286.5" font-family="Helvetica,sans-Serif" font-size="10.00">/Shape.h</text>
</a>
</g>
</g>
<!-- Node6&#45;&gt;Node7 -->
<g id="edge6" class="edge">
<title>Node6&#45;&gt;Node7</title>
<path fill="none" stroke="midnightblue" d="M465.98,-348.8C396.88,-337.55 292.5,-320.54 220.3,-308.78"/>
<polygon fill="midnightblue" stroke="midnightblue" points="220.76,-305.31 210.33,-307.16 219.64,-312.22 220.76,-305.31"/>
</g>
<!-- Node8 -->
<g id="node8" class="node">
<title>Node8</title>
<g id="a_node8"><a xlink:title=" ">
<polygon fill="none" stroke="#bfbfbf" points="50.78,-218 50.78,-237 110.78,-237 110.78,-218 50.78,-218"/>
<text text-anchor="middle" x="80.78" y="-225" font-family="Helvetica,sans-Serif" font-size="10.00">iostream</text>
</a>
</g>
</g>
<!-- Node7&#45;&gt;Node8 -->
<g id="edge7" class="edge">
<title>Node7&#45;&gt;Node8</title>
<path fill="none" stroke="midnightblue" d="M126.19,-279.4C117.15,-269.26 104.93,-255.57 95.44,-244.94"/>
<polygon fill="midnightblue" stroke="midnightblue" points="97.8,-242.33 88.54,-237.19 92.58,-246.99 97.8,-242.33"/>
</g>
<!-- Node9 -->
<g id="node9" class="node">
<title>Node9</title>
<g id="a_node9"><a xlink:title=" ">
<polygon fill="none" stroke="#bfbfbf" points="421.78,-11.5 421.78,-30.5 479.78,-30.5 479.78,-11.5 421.78,-11.5"/>
<text text-anchor="middle" x="450.78" y="-18.5" font-family="Helvetica,sans-Serif" font-size="10.00">memory</text>
</a>
</g>
</g>
<!-- Node7&#45;&gt;Node9 -->
<g id="edge8" class="edge">
<title>Node7&#45;&gt;Node9</title>
<path fill="none" stroke="midnightblue" d="M97.52,-279.3C78.58,-271.1 57.01,-259.16 41.78,-243 10.53,-209.85 -15.75,-181.29 11.78,-145 60.86,-80.27 313.48,-40.26 411.68,-26.95"/>
<polygon fill="midnightblue" stroke="midnightblue" points="412.33,-30.39 421.78,-25.6 411.4,-23.46 412.33,-30.39"/>
</g>
<!-- Node10 -->
<g id="node10" class="node">
<title>Node10</title>
<g id="a_node10"><a xlink:title=" ">
<polygon fill="none" stroke="#bfbfbf" points="20.78,-151 20.78,-170 178.78,-170 178.78,-151 20.78,-151"/>
<text text-anchor="middle" x="99.78" y="-158" font-family="Helvetica,sans-Serif" font-size="10.00">VoronoiMeshMaker/Misc/ID.h</text>
</a>
</g>
</g>
<!-- Node7&#45;&gt;Node10 -->
<g id="edge9" class="edge">
<title>Node7&#45;&gt;Node10</title>
<path fill="none" stroke="midnightblue" d="M136.17,-279.49C132.97,-263.12 127.06,-235.3 119.78,-212 116.35,-201.03 111.65,-189.05 107.67,-179.52"/>
<polygon fill="midnightblue" stroke="midnightblue" points="110.87,-178.12 103.72,-170.3 104.44,-180.87 110.87,-178.12"/>
</g>
<!-- Node11 -->
<g id="node11" class="node">
<title>Node11</title>
<g id="a_node11"><a xlink:href="GeometricDataHolder_8h.html" target="_top" xlink:title="Defines the GeometricDataHolder class and the DataTraits for handling multiple data types....">
<polygon fill="none" stroke="black" points="196.78,-212.5 196.78,-242.5 366.78,-242.5 366.78,-212.5 196.78,-212.5"/>
<text text-anchor="start" x="204.78" y="-230.5" font-family="Helvetica,sans-Serif" font-size="10.00">VoronoiMeshMaker/Parameters</text>
<text text-anchor="middle" x="281.78" y="-219.5" font-family="Helvetica,sans-Serif" font-size="10.00">/GeometricDataHolder.h</text>
</a>
</g>
</g>
<!-- Node7&#45;&gt;Node11 -->
<g id="edge10" class="edge">
<title>Node7&#45;&gt;Node11</title>
<path fill="none" stroke="midnightblue" d="M169.81,-279.4C190.79,-269.86 218.72,-257.16 241.43,-246.84"/>
<polygon fill="midnightblue" stroke="midnightblue" points="243.15,-249.9 250.81,-242.58 240.26,-243.53 243.15,-249.9"/>
</g>
<!-- Node11&#45;&gt;Node10 -->
<g id="edge12" class="edge">
<title>Node11&#45;&gt;Node10</title>
<path fill="none" stroke="midnightblue" d="M242.29,-212.4C209.65,-200.74 163.82,-184.37 133.03,-173.38"/>
<polygon fill="midnightblue" stroke="midnightblue" points="134.19,-170.07 123.6,-170.01 131.84,-176.67 134.19,-170.07"/>
</g>
<!-- Node12 -->
<g id="node12" class="node">
<title>Node12</title>
<g id="a_node12"><a xlink:title=" ">
<polygon fill="none" stroke="#bfbfbf" points="385.28,-151 385.28,-170 450.28,-170 450.28,-151 385.28,-151"/>
<text text-anchor="middle" x="417.78" y="-158" font-family="Helvetica,sans-Serif" font-size="10.00">execution</text>
</a>
</g>
</g>
<!-- Node11&#45;&gt;Node12 -->
<g id="edge11" class="edge">
<title>Node11&#45;&gt;Node12</title>
<path fill="none" stroke="midnightblue" d="M311.29,-212.4C334.94,-201.09 367.85,-185.36 390.81,-174.39"/>
<polygon fill="midnightblue" stroke="midnightblue" points="392.46,-177.48 399.98,-170.01 389.45,-171.16 392.46,-177.48"/>
</g>
<!-- Node13 -->
<g id="node13" class="node">
<title>Node13</title>
<g id="a_node13"><a xlink:href="GeometricDataTraits_8h.html" target="_top" xlink:title="Defines the GeometricDataTraits structure used for type identification and operations on various data...">
<polygon fill="none" stroke="black" points="468.78,-145.5 468.78,-175.5 638.78,-175.5 638.78,-145.5 468.78,-145.5"/>
<text text-anchor="start" x="476.78" y="-163.5" font-family="Helvetica,sans-Serif" font-size="10.00">VoronoiMeshMaker/Parameters</text>
<text text-anchor="middle" x="553.78" y="-152.5" font-family="Helvetica,sans-Serif" font-size="10.00">/GeometricDataTraits.h</text>
</a>
</g>
</g>
<!-- Node11&#45;&gt;Node13 -->
<g id="edge13" class="edge">
<title>Node11&#45;&gt;Node13</title>
<path fill="none" stroke="midnightblue" d="M340.46,-212.48C382.86,-202.34 440.26,-188.63 484.85,-177.97"/>
<polygon fill="midnightblue" stroke="midnightblue" points="485.82,-181.34 494.73,-175.61 484.19,-174.53 485.82,-181.34"/>
</g>
<!-- Node21 -->
<g id="node21" class="node">
<title>Node21</title>
<g id="a_node21"><a xlink:href="GeometricDataHolder_8tpp.html" target="_top" xlink:title=" ">
<polygon fill="none" stroke="black" points="196.78,-145.5 196.78,-175.5 366.78,-175.5 366.78,-145.5 196.78,-145.5"/>
<text text-anchor="start" x="204.78" y="-163.5" font-family="Helvetica,sans-Serif" font-size="10.00">VoronoiMeshMaker/Parameters</text>
<text text-anchor="middle" x="281.78" y="-152.5" font-family="Helvetica,sans-Serif" font-size="10.00">/GeometricDataHolder.tpp</text>
</a>
</g>
</g>
<!-- Node11&#45;&gt;Node21 -->
<g id="edge22" class="edge">
<title>Node11&#45;&gt;Node21</title>
<path fill="none" stroke="midnightblue" d="M281.78,-212.4C281.78,-204.64 281.78,-194.81 281.78,-185.86"/>
<polygon fill="midnightblue" stroke="midnightblue" points="285.28,-185.58 281.78,-175.58 278.28,-185.58 285.28,-185.58"/>
</g>
<!-- Node14 -->
<g id="node14" class="node">
<title>Node14</title>
<g id="a_node14"><a xlink:href="type_8h.html" target="_top" xlink:title="Defines common geometric and numeric types used in the VoronoiMeshMaker library.">
<polygon fill="none" stroke="black" points="694.78,-78.5 694.78,-108.5 830.78,-108.5 830.78,-78.5 694.78,-78.5"/>
<text text-anchor="start" x="702.78" y="-96.5" font-family="Helvetica,sans-Serif" font-size="10.00">VoronoiMeshMaker/Misc</text>
<text text-anchor="middle" x="762.78" y="-85.5" font-family="Helvetica,sans-Serif" font-size="10.00">/type.h</text>
</a>
</g>
</g>
<!-- Node13&#45;&gt;Node14 -->
<g id="edge14" class="edge">
<title>Node13&#45;&gt;Node14</title>
<path fill="none" stroke="midnightblue" d="M598.87,-145.48C630.76,-135.56 673.71,-122.2 707.64,-111.65"/>
<polygon fill="midnightblue" stroke="midnightblue" points="708.9,-114.92 717.41,-108.61 706.82,-108.24 708.9,-114.92"/>
</g>
<!-- Node14&#45;&gt;Node9 -->
<g id="edge16" class="edge">
<title>Node14&#45;&gt;Node9</title>
<path fill="none" stroke="midnightblue" d="M694.53,-80.18C614.98,-65.78 493.68,-43.7 488.78,-42 483.71,-40.25 478.49,-37.9 473.61,-35.43"/>
<polygon fill="midnightblue" stroke="midnightblue" points="475.22,-32.32 464.75,-30.66 471.9,-38.48 475.22,-32.32"/>
</g>
<!-- Node15 -->
<g id="node15" class="node">
<title>Node15</title>
<g id="a_node15"><a xlink:title=" ">
<polygon fill="none" stroke="#bfbfbf" points="1126.78,-11.5 1126.78,-30.5 1158.78,-30.5 1158.78,-11.5 1126.78,-11.5"/>
<text text-anchor="middle" x="1142.78" y="-18.5" font-family="Helvetica,sans-Serif" font-size="10.00">list</text>
</a>
</g>
</g>
<!-- Node14&#45;&gt;Node15 -->
<g id="edge15" class="edge">
<title>Node14&#45;&gt;Node15</title>
<path fill="none" stroke="midnightblue" d="M831.13,-87.09C919.4,-79.37 1067.64,-63.68 1117.78,-42 1120.74,-40.72 1123.65,-38.99 1126.37,-37.08"/>
<polygon fill="midnightblue" stroke="midnightblue" points="1128.7,-39.7 1134.29,-30.7 1124.31,-34.25 1128.7,-39.7"/>
</g>
<!-- Node16 -->
<g id="node16" class="node">
<title>Node16</title>
<g id="a_node16"><a xlink:title=" ">
<polygon fill="none" stroke="#bfbfbf" points="498.28,-11.5 498.28,-30.5 545.28,-30.5 545.28,-11.5 498.28,-11.5"/>
<text text-anchor="middle" x="521.78" y="-18.5" font-family="Helvetica,sans-Serif" font-size="10.00">vector</text>
</a>
</g>
</g>
<!-- Node14&#45;&gt;Node16 -->
<g id="edge17" class="edge">
<title>Node14&#45;&gt;Node16</title>
<path fill="none" stroke="midnightblue" d="M694.61,-78.5C643.79,-67.6 578.99,-52.59 553.78,-42 549.88,-40.36 545.91,-38.28 542.16,-36.08"/>
<polygon fill="midnightblue" stroke="midnightblue" points="543.76,-32.95 533.44,-30.56 540.01,-38.86 543.76,-32.95"/>
</g>
<!-- Node17 -->
<g id="node17" class="node">
<title>Node17</title>
<g id="a_node17"><a xlink:title=" ">
<polygon fill="none" stroke="#bfbfbf" points="563.28,-0.5 563.28,-41.5 692.28,-41.5 692.28,-0.5 563.28,-0.5"/>
<text text-anchor="start" x="571.28" y="-29.5" font-family="Helvetica,sans-Serif" font-size="10.00">CGAL/Exact_predicates</text>
<text text-anchor="start" x="571.28" y="-18.5" font-family="Helvetica,sans-Serif" font-size="10.00">_inexact_constructions</text>
<text text-anchor="middle" x="627.78" y="-7.5" font-family="Helvetica,sans-Serif" font-size="10.00">_kernel.h</text>
</a>
</g>
</g>
<!-- Node14&#45;&gt;Node17 -->
<g id="edge18" class="edge">
<title>Node14&#45;&gt;Node17</title>
<path fill="none" stroke="midnightblue" d="M735.78,-78.4C718.15,-69.2 694.68,-56.94 674.11,-46.2"/>
<polygon fill="midnightblue" stroke="midnightblue" points="675.69,-43.07 665.21,-41.55 672.45,-49.28 675.69,-43.07"/>
</g>
<!-- Node18 -->
<g id="node18" class="node">
<title>Node18</title>
<g id="a_node18"><a xlink:title=" ">
<polygon fill="none" stroke="#bfbfbf" points="710.28,-11.5 710.28,-30.5 815.28,-30.5 815.28,-11.5 710.28,-11.5"/>
<text text-anchor="middle" x="762.78" y="-18.5" font-family="Helvetica,sans-Serif" font-size="10.00">CGAL/Polygon_2.h</text>
</a>
</g>
</g>
<!-- Node14&#45;&gt;Node18 -->
<g id="edge19" class="edge">
<title>Node14&#45;&gt;Node18</title>
<path fill="none" stroke="midnightblue" d="M762.78,-78.23C762.78,-67.5 762.78,-52.69 762.78,-40.96"/>
<polygon fill="midnightblue" stroke="midnightblue" points="766.28,-40.89 762.78,-30.89 759.28,-40.89 766.28,-40.89"/>
</g>
<!-- Node19 -->
<g id="node19" class="node">
<title>Node19</title>
<g id="a_node19"><a xlink:title=" ">
<polygon fill="none" stroke="#bfbfbf" points="833.28,-11.5 833.28,-30.5 954.28,-30.5 954.28,-11.5 833.28,-11.5"/>
<text text-anchor="middle" x="893.78" y="-18.5" font-family="Helvetica,sans-Serif" font-size="10.00">CGAL/Polyhedron_3.h</text>
</a>
</g>
</g>
<!-- Node14&#45;&gt;Node19 -->
<g id="edge20" class="edge">
<title>Node14&#45;&gt;Node19</title>
<path fill="none" stroke="midnightblue" d="M788.97,-78.4C812.23,-65.89 845.98,-47.72 868.85,-35.42"/>
<polygon fill="midnightblue" stroke="midnightblue" points="870.77,-38.35 877.92,-30.53 867.46,-32.19 870.77,-38.35"/>
</g>
<!-- Node20 -->
<g id="node20" class="node">
<title>Node20</title>
<g id="a_node20"><a xlink:href="namespace_8h.html" target="_top" xlink:title=" ">
<polygon fill="none" stroke="black" points="972.78,-6 972.78,-36 1108.78,-36 1108.78,-6 972.78,-6"/>
<text text-anchor="start" x="980.78" y="-24" font-family="Helvetica,sans-Serif" font-size="10.00">VoronoiMeshMaker/Misc</text>
<text text-anchor="middle" x="1040.78" y="-13" font-family="Helvetica,sans-Serif" font-size="10.00">/namespace.h</text>
</a>
</g>
</g>
<!-- Node14&#45;&gt;Node20 -->
<g id="edge21" class="edge">
<title>Node14&#45;&gt;Node20</title>
<path fill="none" stroke="midnightblue" d="M819.12,-78.47C859.43,-68.4 914.97,-54.47 963.78,-42 968.11,-40.89 972.58,-39.75 977.08,-38.59"/>
<polygon fill="midnightblue" stroke="midnightblue" points="978.13,-41.93 986.94,-36.04 976.38,-35.15 978.13,-41.93"/>
</g>
<!-- Node23 -->
<g id="node23" class="node">
<title>Node23</title>
<g id="a_node23"><a xlink:title=" ">
<polygon fill="none" stroke="#bfbfbf" points="818.78,-352 818.78,-371 862.78,-371 862.78,-352 818.78,-352"/>
<text text-anchor="middle" x="840.78" y="-359" font-family="Helvetica,sans-Serif" font-size="10.00">string</text>
</a>
</g>
</g>
<!-- Node22&#45;&gt;Node23 -->
<g id="edge24" class="edge">
<title>Node22&#45;&gt;Node23</title>
<path fill="none" stroke="midnightblue" d="M910.47,-413.4C895.82,-402.7 875.74,-388.03 860.9,-377.19"/>
<polygon fill="midnightblue" stroke="midnightblue" points="862.57,-374.08 852.43,-371.01 858.44,-379.73 862.57,-374.08"/>
</g>
<!-- Node24 -->
<g id="node24" class="node">
<title>Node24</title>
<g id="a_node24"><a xlink:title=" ">
<polygon fill="none" stroke="#bfbfbf" points="1056.28,-352 1056.28,-371 1121.28,-371 1121.28,-352 1056.28,-352"/>
<text text-anchor="middle" x="1088.78" y="-359" font-family="Helvetica,sans-Serif" font-size="10.00">exception</text>
</a>
</g>
</g>
<!-- Node22&#45;&gt;Node24 -->
<g id="edge25" class="edge">
<title>Node22&#45;&gt;Node24</title>
<path fill="none" stroke="midnightblue" d="M964.28,-413.4C992.42,-401.89 1031.79,-385.8 1058.67,-374.81"/>
<polygon fill="midnightblue" stroke="midnightblue" points="1060.04,-378.03 1067.97,-371.01 1057.39,-371.55 1060.04,-378.03"/>
</g>
<!-- Node25 -->
<g id="node25" class="node">
<title>Node25</title>
<g id="a_node25"><a xlink:title=" ">
<polygon fill="none" stroke="#bfbfbf" points="1139.28,-352 1139.28,-371 1196.28,-371 1196.28,-352 1139.28,-352"/>
<text text-anchor="middle" x="1167.78" y="-359" font-family="Helvetica,sans-Serif" font-size="10.00">ostream</text>
</a>
</g>
</g>
<!-- Node22&#45;&gt;Node25 -->
<g id="edge26" class="edge">
<title>Node22&#45;&gt;Node25</title>
<path fill="none" stroke="midnightblue" d="M994.64,-413.42C1034.31,-404.26 1085.89,-391.37 1130.78,-377 1133.05,-376.27 1135.38,-375.48 1137.72,-374.64"/>
<polygon fill="midnightblue" stroke="midnightblue" points="1139.06,-377.88 1147.2,-371.1 1136.61,-371.32 1139.06,-377.88"/>
</g>
<!-- Node26 -->
<g id="node26" class="node">
<title>Node26</title>
<g id="a_node26"><a xlink:href="id_8h.html" target="_top" xlink:title=" ">
<polygon fill="none" stroke="black" points="881.28,-352 881.28,-371 1038.28,-371 1038.28,-352 881.28,-352"/>
<text text-anchor="middle" x="959.78" y="-359" font-family="Helvetica,sans-Serif" font-size="10.00">VoronoiMeshMaker/Misc/id.h</text>
</a>
</g>
</g>
<!-- Node22&#45;&gt;Node26 -->
<g id="edge27" class="edge">
<title>Node22&#45;&gt;Node26</title>
<path fill="none" stroke="midnightblue" d="M936.29,-413.4C940.73,-403.76 946.66,-390.91 951.45,-380.54"/>
<polygon fill="midnightblue" stroke="midnightblue" points="954.75,-381.74 955.76,-371.19 948.4,-378.81 954.75,-381.74"/>
</g>
<!-- Node29 -->
<g id="node29" class="node">
<title>Node29</title>
<g id="a_node29"><a xlink:href="sourceinfo_8h.html" target="_top" xlink:title="Provides information about the source of an error or event in a function.">
<polygon fill="none" stroke="black" points="1214.78,-346.5 1214.78,-376.5 1350.78,-376.5 1350.78,-346.5 1214.78,-346.5"/>
<text text-anchor="start" x="1222.78" y="-364.5" font-family="Helvetica,sans-Serif" font-size="10.00">VoronoiMeshMaker/Misc</text>
<text text-anchor="middle" x="1282.78" y="-353.5" font-family="Helvetica,sans-Serif" font-size="10.00">/sourceinfo.h</text>
</a>
</g>
</g>
<!-- Node22&#45;&gt;Node29 -->
<g id="edge31" class="edge">
<title>Node22&#45;&gt;Node29</title>
<path fill="none" stroke="midnightblue" d="M998.68,-414.68C1001.75,-414.11 1004.8,-413.55 1007.78,-413 1092.65,-397.4 1116.19,-393.54 1204.81,-377.17"/>
<polygon fill="midnightblue" stroke="midnightblue" points="1205.56,-380.59 1214.76,-375.33 1204.29,-373.71 1205.56,-380.59"/>
</g>
<!-- Node27 -->
<g id="node27" class="node">
<title>Node27</title>
<g id="a_node27"><a xlink:title=" ">
<polygon fill="none" stroke="#bfbfbf" points="1023.28,-285 1023.28,-304 1096.28,-304 1096.28,-285 1023.28,-285"/>
<text text-anchor="middle" x="1059.78" y="-292" font-family="Helvetica,sans-Serif" font-size="10.00">string_view</text>
</a>
</g>
</g>
<!-- Node26&#45;&gt;Node27 -->
<g id="edge28" class="edge">
<title>Node26&#45;&gt;Node27</title>
<path fill="none" stroke="midnightblue" d="M973.26,-351.73C989.83,-340.96 1018.16,-322.55 1037.87,-309.74"/>
<polygon fill="midnightblue" stroke="midnightblue" points="1040.03,-312.51 1046.5,-304.13 1036.21,-306.64 1040.03,-312.51"/>
</g>
<!-- Node28 -->
<g id="node28" class="node">
<title>Node28</title>
<g id="a_node28"><a xlink:href="configure_8h.html" target="_top" xlink:title="Defines common constants used across the VoronoiMeshMaker library.">
<polygon fill="none" stroke="black" points="694.78,-279.5 694.78,-309.5 830.78,-309.5 830.78,-279.5 694.78,-279.5"/>
<text text-anchor="start" x="702.78" y="-297.5" font-family="Helvetica,sans-Serif" font-size="10.00">VoronoiMeshMaker/Misc</text>
<text text-anchor="middle" x="762.78" y="-286.5" font-family="Helvetica,sans-Serif" font-size="10.00">/configure.h</text>
</a>
</g>
</g>
<!-- Node26&#45;&gt;Node28 -->
<g id="edge29" class="edge">
<title>Node26&#45;&gt;Node28</title>
<path fill="none" stroke="midnightblue" d="M933.62,-351.87C903.54,-341.95 853.42,-325.41 815.22,-312.81"/>
<polygon fill="midnightblue" stroke="midnightblue" points="815.89,-309.34 805.29,-309.53 813.69,-315.99 815.89,-309.34"/>
</g>
<!-- Node28&#45;&gt;Node14 -->
<g id="edge30" class="edge">
<title>Node28&#45;&gt;Node14</title>
<path fill="none" stroke="midnightblue" d="M762.78,-279.19C762.78,-245.48 762.78,-160.8 762.78,-118.84"/>
<polygon fill="midnightblue" stroke="midnightblue" points="766.28,-118.68 762.78,-108.68 759.28,-118.68 766.28,-118.68"/>
</g>
<!-- Node29&#45;&gt;Node27 -->
<g id="edge32" class="edge">
<title>Node29&#45;&gt;Node27</title>
<path fill="none" stroke="midnightblue" d="M1234.66,-346.48C1194,-334.62 1136.48,-317.86 1098.67,-306.84"/>
<polygon fill="midnightblue" stroke="midnightblue" points="1099.62,-303.47 1089.04,-304.03 1097.66,-310.19 1099.62,-303.47"/>
</g>
<!-- Node30 -->
<g id="node30" class="node">
<title>Node30</title>
<g id="a_node30"><a xlink:title=" ">
<polygon fill="none" stroke="#bfbfbf" points="1214.78,-279.5 1214.78,-309.5 1350.78,-309.5 1350.78,-279.5 1214.78,-279.5"/>
<text text-anchor="start" x="1222.78" y="-297.5" font-family="Helvetica,sans-Serif" font-size="10.00">VoronoiMeshMaker/Misc</text>
<text text-anchor="middle" x="1282.78" y="-286.5" font-family="Helvetica,sans-Serif" font-size="10.00">/Misc.h</text>
</a>
</g>
</g>
<!-- Node29&#45;&gt;Node30 -->
<g id="edge33" class="edge">
<title>Node29&#45;&gt;Node30</title>
<path fill="none" stroke="midnightblue" d="M1282.78,-346.4C1282.78,-338.64 1282.78,-328.81 1282.78,-319.86"/>
<polygon fill="midnightblue" stroke="midnightblue" points="1286.28,-319.58 1282.78,-309.58 1279.28,-319.58 1286.28,-319.58"/>
</g>
<!-- Node31&#45;&gt;Node2 -->
<g id="edge35" class="edge">
<title>Node31&#45;&gt;Node2</title>
<path fill="none" stroke="midnightblue" d="M740.94,-413.4C745.88,-403.66 752.49,-390.65 757.78,-380.21"/>
<polygon fill="midnightblue" stroke="midnightblue" points="760.96,-381.7 762.36,-371.19 754.72,-378.53 760.96,-381.7"/>
</g>
<!-- Node31&#45;&gt;Node9 -->
<g id="edge36" class="edge">
<title>Node31&#45;&gt;Node9</title>
<path fill="none" stroke="midnightblue" d="M720.86,-413.27C701.39,-390.29 666.78,-342.79 666.78,-295.5 666.78,-295.5 666.78,-295.5 666.78,-159.5 666.78,-148.21 530.63,-68.18 474.52,-35.67"/>
<polygon fill="midnightblue" stroke="midnightblue" points="476.03,-32.51 465.62,-30.53 472.53,-38.57 476.03,-32.51"/>
</g>
<!-- Node31&#45;&gt;Node28 -->
<g id="edge37" class="edge">
<title>Node31&#45;&gt;Node28</title>
<path fill="none" stroke="midnightblue" d="M728.3,-413.26C722.77,-396.68 716.04,-368.67 723.78,-346 727.32,-335.62 733.95,-325.72 740.76,-317.47"/>
<polygon fill="midnightblue" stroke="midnightblue" points="743.52,-319.64 747.51,-309.83 738.27,-315 743.52,-319.64"/>
</g>
</g>
</svg>
