<?xml version="1.0" encoding="UTF-8" standalone="no"?>
<!DOCTYPE svg PUBLIC "-//W3C//DTD SVG 1.1//EN"
 "http://www.w3.org/Graphics/SVG/1.1/DTD/svg11.dtd">
<!-- Generated by graphviz version 2.43.0 (0)
 -->
<!-- Title: include/VoronoiMeshMaker/Misc/configure.h Pages: 1 -->
<svg width="1047pt" height="251pt"
 viewBox="0.00 0.00 1046.50 251.00" xmlns="http://www.w3.org/2000/svg" xmlns:xlink="http://www.w3.org/1999/xlink">
<g id="graph0" class="graph" transform="scale(1 1) rotate(0) translate(4 247)">
<title>include/VoronoiMeshMaker/Misc/configure.h</title>
<!-- Node1 -->
<g id="node1" class="node">
<title>Node1</title>
<g id="a_node1"><a xlink:title="Defines common constants used across the VoronoiMeshMaker library.">
<polygon fill="#bfbfbf" stroke="black" points="647.5,-212.5 647.5,-242.5 796.5,-242.5 796.5,-212.5 647.5,-212.5"/>
<text text-anchor="start" x="655.5" y="-230.5" font-family="Helvetica,sans-Serif" font-size="10.00">include/VoronoiMeshMaker</text>
<text text-anchor="middle" x="722" y="-219.5" font-family="Helvetica,sans-Serif" font-size="10.00">/Misc/configure.h</text>
</a>
</g>
</g>
<!-- Node2 -->
<g id="node2" class="node">
<title>Node2</title>
<g id="a_node2"><a xlink:href="id_8h.html" target="_top" xlink:title=" ">
<polygon fill="none" stroke="black" points="564.5,-145.5 564.5,-175.5 713.5,-175.5 713.5,-145.5 564.5,-145.5"/>
<text text-anchor="start" x="572.5" y="-163.5" font-family="Helvetica,sans-Serif" font-size="10.00">include/VoronoiMeshMaker</text>
<text text-anchor="middle" x="639" y="-152.5" font-family="Helvetica,sans-Serif" font-size="10.00">/Misc/id.h</text>
</a>
</g>
</g>
<!-- Node1&#45;&gt;Node2 -->
<g id="edge1" class="edge">
<title>Node1&#45;&gt;Node2</title>
<path fill="none" stroke="midnightblue" d="M696.04,-206.17C683.35,-196.23 668.39,-184.51 656.97,-175.58"/>
<polygon fill="midnightblue" stroke="midnightblue" points="693.96,-208.99 703.99,-212.4 698.28,-203.47 693.96,-208.99"/>
</g>
<!-- Node10 -->
<g id="node10" class="node">
<title>Node10</title>
<g id="a_node10"><a xlink:href="misc_8h.html" target="_top" xlink:title="Provides general&#45;purpose utility functions for the VoronoiMeshMaker library.">
<polygon fill="none" stroke="black" points="754.5,-145.5 754.5,-175.5 903.5,-175.5 903.5,-145.5 754.5,-145.5"/>
<text text-anchor="start" x="762.5" y="-163.5" font-family="Helvetica,sans-Serif" font-size="10.00">include/VoronoiMeshMaker</text>
<text text-anchor="middle" x="829" y="-152.5" font-family="Helvetica,sans-Serif" font-size="10.00">/Misc/misc.h</text>
</a>
</g>
</g>
<!-- Node1&#45;&gt;Node10 -->
<g id="edge9" class="edge">
<title>Node1&#45;&gt;Node10</title>
<path fill="none" stroke="midnightblue" d="M754.08,-207.02C770.73,-196.9 790.69,-184.77 805.83,-175.58"/>
<polygon fill="midnightblue" stroke="midnightblue" points="751.95,-204.21 745.22,-212.4 755.58,-210.2 751.95,-204.21"/>
</g>
<!-- Node3 -->
<g id="node3" class="node">
<title>Node3</title>
<g id="a_node3"><a xlink:href="MakerException_8h.html" target="_top" xlink:title=" ">
<polygon fill="none" stroke="black" points="517.5,-78.5 517.5,-108.5 666.5,-108.5 666.5,-78.5 517.5,-78.5"/>
<text text-anchor="start" x="525.5" y="-96.5" font-family="Helvetica,sans-Serif" font-size="10.00">include/VoronoiMeshMaker</text>
<text text-anchor="middle" x="592" y="-85.5" font-family="Helvetica,sans-Serif" font-size="10.00">/Error/MakerException.h</text>
</a>
</g>
</g>
<!-- Node2&#45;&gt;Node3 -->
<g id="edge2" class="edge">
<title>Node2&#45;&gt;Node3</title>
<path fill="none" stroke="midnightblue" d="M622.84,-137.16C615.99,-127.68 608.21,-116.92 602.18,-108.58"/>
<polygon fill="midnightblue" stroke="midnightblue" points="620.11,-139.34 628.8,-145.4 625.78,-135.24 620.11,-139.34"/>
</g>
<!-- Node4 -->
<g id="node4" class="node">
<title>Node4</title>
<g id="a_node4"><a xlink:href="MakerException_8cpp.html" target="_top" xlink:title=" ">
<polygon fill="none" stroke="black" points="0,-6 0,-36 144,-36 144,-6 0,-6"/>
<text text-anchor="start" x="8" y="-24" font-family="Helvetica,sans-Serif" font-size="10.00">src/VoronoiMeshMaker</text>
<text text-anchor="middle" x="72" y="-13" font-family="Helvetica,sans-Serif" font-size="10.00">/Error/MakerException.cpp</text>
</a>
</g>
</g>
<!-- Node3&#45;&gt;Node4 -->
<g id="edge3" class="edge">
<title>Node3&#45;&gt;Node4</title>
<path fill="none" stroke="midnightblue" d="M507.38,-85.99C418.63,-78.41 275.32,-64.04 153,-42 143.88,-40.36 134.25,-38.28 124.95,-36.1"/>
<polygon fill="midnightblue" stroke="midnightblue" points="507.14,-89.48 517.4,-86.84 507.73,-82.51 507.14,-89.48"/>
</g>
<!-- Node5 -->
<g id="node5" class="node">
<title>Node5</title>
<g id="a_node5"><a xlink:href="CommaSeparatedValues_8cpp.html" target="_top" xlink:title=" ">
<polygon fill="none" stroke="black" points="851.5,-0.5 851.5,-41.5 1038.5,-41.5 1038.5,-0.5 851.5,-0.5"/>
<text text-anchor="start" x="859.5" y="-29.5" font-family="Helvetica,sans-Serif" font-size="10.00">src/VoronoiMeshMaker</text>
<text text-anchor="start" x="859.5" y="-18.5" font-family="Helvetica,sans-Serif" font-size="10.00">/Shape/Shape2D/CommaSeparated</text>
<text text-anchor="middle" x="945" y="-7.5" font-family="Helvetica,sans-Serif" font-size="10.00">Values.cpp</text>
</a>
</g>
</g>
<!-- Node3&#45;&gt;Node5 -->
<g id="edge4" class="edge">
<title>Node3&#45;&gt;Node5</title>
<path fill="none" stroke="midnightblue" d="M672.23,-76.48C725.43,-65.85 795.45,-51.87 851.22,-40.73"/>
<polygon fill="midnightblue" stroke="midnightblue" points="671.28,-73.1 662.16,-78.49 672.66,-79.96 671.28,-73.1"/>
</g>
<!-- Node6 -->
<g id="node6" class="node">
<title>Node6</title>
<g id="a_node6"><a xlink:href="Ellipse_8cpp.html" target="_top" xlink:title=" ">
<polygon fill="none" stroke="black" points="162,-6 162,-36 314,-36 314,-6 162,-6"/>
<text text-anchor="start" x="170" y="-24" font-family="Helvetica,sans-Serif" font-size="10.00">src/VoronoiMeshMaker</text>
<text text-anchor="middle" x="238" y="-13" font-family="Helvetica,sans-Serif" font-size="10.00">/Shape/Shape2D/Ellipse.cpp</text>
</a>
</g>
</g>
<!-- Node3&#45;&gt;Node6 -->
<g id="edge5" class="edge">
<title>Node3&#45;&gt;Node6</title>
<path fill="none" stroke="midnightblue" d="M507.27,-77.61C454.21,-68.04 384.47,-55 323,-42 314.25,-40.15 305.02,-38.09 295.99,-36.02"/>
<polygon fill="midnightblue" stroke="midnightblue" points="506.85,-81.09 517.32,-79.42 508.09,-74.21 506.85,-81.09"/>
</g>
<!-- Node7 -->
<g id="node7" class="node">
<title>Node7</title>
<g id="a_node7"><a xlink:href="Polygon_8cpp.html" target="_top" xlink:title=" ">
<polygon fill="none" stroke="black" points="332,-6 332,-36 490,-36 490,-6 332,-6"/>
<text text-anchor="start" x="340" y="-24" font-family="Helvetica,sans-Serif" font-size="10.00">src/VoronoiMeshMaker</text>
<text text-anchor="middle" x="411" y="-13" font-family="Helvetica,sans-Serif" font-size="10.00">/Shape/Shape2D/Polygon.cpp</text>
</a>
</g>
</g>
<!-- Node3&#45;&gt;Node7 -->
<g id="edge6" class="edge">
<title>Node3&#45;&gt;Node7</title>
<path fill="none" stroke="midnightblue" d="M546.18,-74.65C515.47,-62.69 475.6,-47.16 447.13,-36.07"/>
<polygon fill="midnightblue" stroke="midnightblue" points="545.22,-78.03 555.81,-78.4 547.76,-71.51 545.22,-78.03"/>
</g>
<!-- Node8 -->
<g id="node8" class="node">
<title>Node8</title>
<g id="a_node8"><a xlink:href="Rectangle_8cpp.html" target="_top" xlink:title=" ">
<polygon fill="none" stroke="black" points="508,-6 508,-36 676,-36 676,-6 508,-6"/>
<text text-anchor="start" x="516" y="-24" font-family="Helvetica,sans-Serif" font-size="10.00">src/VoronoiMeshMaker</text>
<text text-anchor="middle" x="592" y="-13" font-family="Helvetica,sans-Serif" font-size="10.00">/Shape/Shape2D/Rectangle.cpp</text>
</a>
</g>
</g>
<!-- Node3&#45;&gt;Node8 -->
<g id="edge7" class="edge">
<title>Node3&#45;&gt;Node8</title>
<path fill="none" stroke="midnightblue" d="M592,-68.23C592,-57.57 592,-45.41 592,-36.25"/>
<polygon fill="midnightblue" stroke="midnightblue" points="588.5,-68.23 592,-78.23 595.5,-68.23 588.5,-68.23"/>
</g>
<!-- Node9 -->
<g id="node9" class="node">
<title>Node9</title>
<g id="a_node9"><a xlink:href="Star_8cpp.html" target="_top" xlink:title=" ">
<polygon fill="none" stroke="black" points="694.5,-6 694.5,-36 833.5,-36 833.5,-6 694.5,-6"/>
<text text-anchor="start" x="702.5" y="-24" font-family="Helvetica,sans-Serif" font-size="10.00">src/VoronoiMeshMaker</text>
<text text-anchor="middle" x="764" y="-13" font-family="Helvetica,sans-Serif" font-size="10.00">/Shape/Shape2D/Star.cpp</text>
</a>
</g>
</g>
<!-- Node3&#45;&gt;Node9 -->
<g id="edge8" class="edge">
<title>Node3&#45;&gt;Node9</title>
<path fill="none" stroke="midnightblue" d="M635.92,-74.5C665.05,-62.56 702.73,-47.11 729.67,-36.07"/>
<polygon fill="midnightblue" stroke="midnightblue" points="634.32,-71.37 626.39,-78.4 636.97,-77.85 634.32,-71.37"/>
</g>
<!-- Node10&#45;&gt;Node5 -->
<g id="edge11" class="edge">
<title>Node10&#45;&gt;Node5</title>
<path fill="none" stroke="midnightblue" d="M864.57,-140.06C877.51,-131.74 891.52,-121.13 902,-109 919.4,-88.85 931.7,-60.43 938.57,-41.63"/>
<polygon fill="midnightblue" stroke="midnightblue" points="862.51,-137.22 855.83,-145.45 866.18,-143.18 862.51,-137.22"/>
</g>
<!-- Node11 -->
<g id="node11" class="node">
<title>Node11</title>
<g id="a_node11"><a xlink:href="misc_8cpp.html" target="_top" xlink:title=" ">
<polygon fill="none" stroke="black" points="765,-78.5 765,-108.5 893,-108.5 893,-78.5 765,-78.5"/>
<text text-anchor="start" x="773" y="-96.5" font-family="Helvetica,sans-Serif" font-size="10.00">src/VoronoiMeshMaker</text>
<text text-anchor="middle" x="829" y="-85.5" font-family="Helvetica,sans-Serif" font-size="10.00">/Misc/misc.cpp</text>
</a>
</g>
</g>
<!-- Node10&#45;&gt;Node11 -->
<g id="edge10" class="edge">
<title>Node10&#45;&gt;Node11</title>
<path fill="none" stroke="midnightblue" d="M829,-135.11C829,-126.15 829,-116.32 829,-108.58"/>
<polygon fill="midnightblue" stroke="midnightblue" points="825.5,-135.4 829,-145.4 832.5,-135.4 825.5,-135.4"/>
</g>
</g>
</svg>
