<?xml version="1.0" encoding="UTF-8" standalone="no"?>
<!DOCTYPE svg PUBLIC "-//W3C//DTD SVG 1.1//EN"
 "http://www.w3.org/Graphics/SVG/1.1/DTD/svg11.dtd">
<!-- Generated by graphviz version 2.43.0 (0)
 -->
<!-- Title: src/VoronoiMeshMaker/DataExporter/DataExporter.cpp Pages: 1 -->
<svg width="1260pt" height="519pt"
 viewBox="0.00 0.00 1259.50 519.00" xmlns="http://www.w3.org/2000/svg" xmlns:xlink="http://www.w3.org/1999/xlink">
<g id="graph0" class="graph" transform="scale(1 1) rotate(0) translate(4 515)">
<title>src/VoronoiMeshMaker/DataExporter/DataExporter.cpp</title>
<!-- Node1 -->
<g id="node1" class="node">
<title>Node1</title>
<g id="a_node1"><a xlink:title="Implements the DataExporter class, handling the export of geometric data.">
<polygon fill="#bfbfbf" stroke="black" points="845.5,-480.5 845.5,-510.5 1017.5,-510.5 1017.5,-480.5 845.5,-480.5"/>
<text text-anchor="start" x="853.5" y="-498.5" font-family="Helvetica,sans-Serif" font-size="10.00">src/VoronoiMeshMaker</text>
<text text-anchor="middle" x="931.5" y="-487.5" font-family="Helvetica,sans-Serif" font-size="10.00">/DataExporter/DataExporter.cpp</text>
</a>
</g>
</g>
<!-- Node2 -->
<g id="node2" class="node">
<title>Node2</title>
<g id="a_node2"><a xlink:href="DataExporter_8h.html" target="_top" xlink:title="Defines the DataExporter class responsible for exporting geometric data in various formats.">
<polygon fill="none" stroke="black" points="842.5,-413.5 842.5,-443.5 1020.5,-443.5 1020.5,-413.5 842.5,-413.5"/>
<text text-anchor="start" x="850.5" y="-431.5" font-family="Helvetica,sans-Serif" font-size="10.00">VoronoiMeshMaker/DataExporter</text>
<text text-anchor="middle" x="931.5" y="-420.5" font-family="Helvetica,sans-Serif" font-size="10.00">/DataExporter.h</text>
</a>
</g>
</g>
<!-- Node1&#45;&gt;Node2 -->
<g id="edge1" class="edge">
<title>Node1&#45;&gt;Node2</title>
<path fill="none" stroke="midnightblue" d="M931.5,-480.4C931.5,-472.64 931.5,-462.81 931.5,-453.86"/>
<polygon fill="midnightblue" stroke="midnightblue" points="935,-453.58 931.5,-443.58 928,-453.58 935,-453.58"/>
</g>
<!-- Node3 -->
<g id="node3" class="node">
<title>Node3</title>
<g id="a_node3"><a xlink:title=" ">
<polygon fill="none" stroke="#bfbfbf" points="932.5,-11.5 932.5,-30.5 990.5,-30.5 990.5,-11.5 932.5,-11.5"/>
<text text-anchor="middle" x="961.5" y="-18.5" font-family="Helvetica,sans-Serif" font-size="10.00">memory</text>
</a>
</g>
</g>
<!-- Node2&#45;&gt;Node3 -->
<g id="edge2" class="edge">
<title>Node2&#45;&gt;Node3</title>
<path fill="none" stroke="midnightblue" d="M1020.68,-415.4C1060.52,-407.8 1107.23,-395.75 1146.5,-377 1199.81,-351.55 1251.5,-354.57 1251.5,-295.5 1251.5,-295.5 1251.5,-295.5 1251.5,-159.5 1251.5,-49.78 1079.93,-27.5 1000.72,-23.06"/>
<polygon fill="midnightblue" stroke="midnightblue" points="1000.79,-19.56 990.63,-22.56 1000.45,-26.55 1000.79,-19.56"/>
</g>
<!-- Node4 -->
<g id="node4" class="node">
<title>Node4</title>
<g id="a_node4"><a xlink:title=" ">
<polygon fill="none" stroke="#bfbfbf" points="558.5,-151 558.5,-170 602.5,-170 602.5,-151 558.5,-151"/>
<text text-anchor="middle" x="580.5" y="-158" font-family="Helvetica,sans-Serif" font-size="10.00">string</text>
</a>
</g>
</g>
<!-- Node2&#45;&gt;Node4 -->
<g id="edge3" class="edge">
<title>Node2&#45;&gt;Node4</title>
<path fill="none" stroke="midnightblue" d="M842.19,-415.15C732.44,-397.88 556.11,-362.61 518.5,-310 487.61,-266.79 536.8,-205.85 564.16,-177.36"/>
<polygon fill="midnightblue" stroke="midnightblue" points="566.67,-179.79 571.21,-170.22 561.69,-174.87 566.67,-179.79"/>
</g>
<!-- Node5 -->
<g id="node5" class="node">
<title>Node5</title>
<g id="a_node5"><a xlink:title=" ">
<polygon fill="none" stroke="#bfbfbf" points="920,-285 920,-304 985,-304 985,-285 920,-285"/>
<text text-anchor="middle" x="952.5" y="-292" font-family="Helvetica,sans-Serif" font-size="10.00">stdexcept</text>
</a>
</g>
</g>
<!-- Node2&#45;&gt;Node5 -->
<g id="edge4" class="edge">
<title>Node2&#45;&gt;Node5</title>
<path fill="none" stroke="midnightblue" d="M933.75,-413.37C937.56,-389.4 945.3,-340.75 949.55,-314.06"/>
<polygon fill="midnightblue" stroke="midnightblue" points="953.02,-314.52 951.13,-304.1 946.1,-313.42 953.02,-314.52"/>
</g>
<!-- Node6 -->
<g id="node6" class="node">
<title>Node6</title>
<g id="a_node6"><a xlink:href="ExportStrategyFactory_8h.html" target="_top" xlink:title="Factory class for creating export strategies based on the specified format.">
<polygon fill="none" stroke="black" points="723.5,-346.5 723.5,-376.5 901.5,-376.5 901.5,-346.5 723.5,-346.5"/>
<text text-anchor="start" x="731.5" y="-364.5" font-family="Helvetica,sans-Serif" font-size="10.00">VoronoiMeshMaker/DataExporter</text>
<text text-anchor="middle" x="812.5" y="-353.5" font-family="Helvetica,sans-Serif" font-size="10.00">/ExportStrategyFactory.h</text>
</a>
</g>
</g>
<!-- Node2&#45;&gt;Node6 -->
<g id="edge5" class="edge">
<title>Node2&#45;&gt;Node6</title>
<path fill="none" stroke="midnightblue" d="M905.68,-413.4C888.53,-404.03 865.8,-391.62 847.09,-381.39"/>
<polygon fill="midnightblue" stroke="midnightblue" points="848.72,-378.3 838.27,-376.58 845.37,-384.44 848.72,-378.3"/>
</g>
<!-- Node11 -->
<g id="node11" class="node">
<title>Node11</title>
<g id="a_node11"><a xlink:href="ExportTraits_8h.html" target="_top" xlink:title="Defines traits for exporting different types of geometric data.">
<polygon fill="none" stroke="black" points="959.5,-346.5 959.5,-376.5 1137.5,-376.5 1137.5,-346.5 959.5,-346.5"/>
<text text-anchor="start" x="967.5" y="-364.5" font-family="Helvetica,sans-Serif" font-size="10.00">VoronoiMeshMaker/DataExporter</text>
<text text-anchor="middle" x="1048.5" y="-353.5" font-family="Helvetica,sans-Serif" font-size="10.00">/ExportTraits.h</text>
</a>
</g>
</g>
<!-- Node2&#45;&gt;Node11 -->
<g id="edge14" class="edge">
<title>Node2&#45;&gt;Node11</title>
<path fill="none" stroke="midnightblue" d="M956.89,-413.4C973.68,-404.07 995.89,-391.73 1014.24,-381.53"/>
<polygon fill="midnightblue" stroke="midnightblue" points="1016.12,-384.49 1023.16,-376.58 1012.72,-378.37 1016.12,-384.49"/>
</g>
<!-- Node6&#45;&gt;Node3 -->
<g id="edge6" class="edge">
<title>Node6&#45;&gt;Node3</title>
<path fill="none" stroke="midnightblue" d="M723.49,-355.87C648.01,-350.07 547.52,-337.35 518.5,-310 491.44,-284.49 499.5,-265.69 499.5,-228.5 499.5,-228.5 499.5,-228.5 499.5,-159.5 499.5,-71.64 810.32,-35.4 922.07,-25.22"/>
<polygon fill="midnightblue" stroke="midnightblue" points="922.6,-28.68 932.25,-24.31 921.98,-21.71 922.6,-28.68"/>
</g>
<!-- Node6&#45;&gt;Node5 -->
<g id="edge7" class="edge">
<title>Node6&#45;&gt;Node5</title>
<path fill="none" stroke="midnightblue" d="M842.88,-346.4C867.33,-335.04 901.41,-319.22 925.05,-308.24"/>
<polygon fill="midnightblue" stroke="midnightblue" points="926.58,-311.39 934.18,-304.01 923.63,-305.04 926.58,-311.39"/>
</g>
<!-- Node7 -->
<g id="node7" class="node">
<title>Node7</title>
<g id="a_node7"><a xlink:href="VTKExportStrategy_8h.html" target="_top" xlink:title="Defines the VTK export strategy for geometric data.">
<polygon fill="none" stroke="black" points="527.5,-279.5 527.5,-309.5 705.5,-309.5 705.5,-279.5 527.5,-279.5"/>
<text text-anchor="start" x="535.5" y="-297.5" font-family="Helvetica,sans-Serif" font-size="10.00">VoronoiMeshMaker/DataExporter</text>
<text text-anchor="middle" x="616.5" y="-286.5" font-family="Helvetica,sans-Serif" font-size="10.00">/VTKExportStrategy.h</text>
</a>
</g>
</g>
<!-- Node6&#45;&gt;Node7 -->
<g id="edge8" class="edge">
<title>Node6&#45;&gt;Node7</title>
<path fill="none" stroke="midnightblue" d="M769.97,-346.4C740.18,-336.52 700.18,-323.25 668.49,-312.74"/>
<polygon fill="midnightblue" stroke="midnightblue" points="669.54,-309.4 658.95,-309.58 667.34,-316.05 669.54,-309.4"/>
</g>
<!-- Node10 -->
<g id="node10" class="node">
<title>Node10</title>
<g id="a_node10"><a xlink:href="HDF5ExportStrategy_8h.html" target="_top" xlink:title="Defines the HDF5 export strategy for geometric data.">
<polygon fill="none" stroke="black" points="723.5,-279.5 723.5,-309.5 901.5,-309.5 901.5,-279.5 723.5,-279.5"/>
<text text-anchor="start" x="731.5" y="-297.5" font-family="Helvetica,sans-Serif" font-size="10.00">VoronoiMeshMaker/DataExporter</text>
<text text-anchor="middle" x="812.5" y="-286.5" font-family="Helvetica,sans-Serif" font-size="10.00">/HDF5ExportStrategy.h</text>
</a>
</g>
</g>
<!-- Node6&#45;&gt;Node10 -->
<g id="edge12" class="edge">
<title>Node6&#45;&gt;Node10</title>
<path fill="none" stroke="midnightblue" d="M812.5,-346.4C812.5,-338.64 812.5,-328.81 812.5,-319.86"/>
<polygon fill="midnightblue" stroke="midnightblue" points="816,-319.58 812.5,-309.58 809,-319.58 816,-319.58"/>
</g>
<!-- Node8 -->
<g id="node8" class="node">
<title>Node8</title>
<g id="a_node8"><a xlink:href="ExportStrategy_8h.html" target="_top" xlink:title="Defines the interface for exporting geometric data in various formats.">
<polygon fill="none" stroke="black" points="641.5,-212.5 641.5,-242.5 819.5,-242.5 819.5,-212.5 641.5,-212.5"/>
<text text-anchor="start" x="649.5" y="-230.5" font-family="Helvetica,sans-Serif" font-size="10.00">VoronoiMeshMaker/DataExporter</text>
<text text-anchor="middle" x="730.5" y="-219.5" font-family="Helvetica,sans-Serif" font-size="10.00">/ExportStrategy.h</text>
</a>
</g>
</g>
<!-- Node7&#45;&gt;Node8 -->
<g id="edge9" class="edge">
<title>Node7&#45;&gt;Node8</title>
<path fill="none" stroke="midnightblue" d="M641.24,-279.4C657.52,-270.11 679.04,-257.84 696.87,-247.67"/>
<polygon fill="midnightblue" stroke="midnightblue" points="698.86,-250.57 705.81,-242.58 695.39,-244.49 698.86,-250.57"/>
</g>
<!-- Node8&#45;&gt;Node4 -->
<g id="edge10" class="edge">
<title>Node8&#45;&gt;Node4</title>
<path fill="none" stroke="midnightblue" d="M697.95,-212.4C671.63,-200.99 634.91,-185.08 609.57,-174.1"/>
<polygon fill="midnightblue" stroke="midnightblue" points="610.7,-170.77 600.13,-170.01 607.92,-177.19 610.7,-170.77"/>
</g>
<!-- Node9 -->
<g id="node9" class="node">
<title>Node9</title>
<g id="a_node9"><a xlink:title=" ">
<polygon fill="none" stroke="#bfbfbf" points="651.5,-151 651.5,-170 809.5,-170 809.5,-151 651.5,-151"/>
<text text-anchor="middle" x="730.5" y="-158" font-family="Helvetica,sans-Serif" font-size="10.00">VoronoiMeshMaker/Misc/ID.h</text>
</a>
</g>
</g>
<!-- Node8&#45;&gt;Node9 -->
<g id="edge11" class="edge">
<title>Node8&#45;&gt;Node9</title>
<path fill="none" stroke="midnightblue" d="M730.5,-212.4C730.5,-203.06 730.5,-190.71 730.5,-180.52"/>
<polygon fill="midnightblue" stroke="midnightblue" points="734,-180.19 730.5,-170.19 727,-180.19 734,-180.19"/>
</g>
<!-- Node10&#45;&gt;Node8 -->
<g id="edge13" class="edge">
<title>Node10&#45;&gt;Node8</title>
<path fill="none" stroke="midnightblue" d="M794.71,-279.4C783.42,-270.45 768.65,-258.74 756.11,-248.8"/>
<polygon fill="midnightblue" stroke="midnightblue" points="758.27,-246.05 748.26,-242.58 753.92,-251.53 758.27,-246.05"/>
</g>
<!-- Node11&#45;&gt;Node5 -->
<g id="edge16" class="edge">
<title>Node11&#45;&gt;Node5</title>
<path fill="none" stroke="midnightblue" d="M1027.67,-346.4C1011.72,-335.6 989.8,-320.76 973.75,-309.89"/>
<polygon fill="midnightblue" stroke="midnightblue" points="975.31,-306.72 965.06,-304.01 971.38,-312.51 975.31,-306.72"/>
</g>
<!-- Node11&#45;&gt;Node8 -->
<g id="edge33" class="edge">
<title>Node11&#45;&gt;Node8</title>
<path fill="none" stroke="midnightblue" d="M1043.26,-346.45C1035.57,-327.87 1019.37,-295.55 994.5,-279 967.68,-261.14 892.96,-247.86 829.83,-239.4"/>
<polygon fill="midnightblue" stroke="midnightblue" points="830.17,-235.92 819.8,-238.09 829.26,-242.86 830.17,-235.92"/>
</g>
<!-- Node12 -->
<g id="node12" class="node">
<title>Node12</title>
<g id="a_node12"><a xlink:title=" ">
<polygon fill="none" stroke="#bfbfbf" points="899.5,-218 899.5,-237 959.5,-237 959.5,-218 899.5,-218"/>
<text text-anchor="middle" x="929.5" y="-225" font-family="Helvetica,sans-Serif" font-size="10.00">iostream</text>
</a>
</g>
</g>
<!-- Node11&#45;&gt;Node12 -->
<g id="edge15" class="edge">
<title>Node11&#45;&gt;Node12</title>
<path fill="none" stroke="midnightblue" d="M1048.26,-346.28C1047.27,-328.68 1043.18,-298.64 1027.5,-279 1018.4,-267.59 985.36,-251.85 960.13,-240.99"/>
<polygon fill="midnightblue" stroke="midnightblue" points="961.49,-237.77 950.91,-237.09 958.76,-244.21 961.49,-237.77"/>
</g>
<!-- Node13 -->
<g id="node13" class="node">
<title>Node13</title>
<g id="a_node13"><a xlink:href="Shape_8h.html" target="_top" xlink:title="Defines the Shape class, which serves as the abstract base class for all shapes. This class provides ...">
<polygon fill="none" stroke="black" points="1080,-279.5 1080,-309.5 1223,-309.5 1223,-279.5 1080,-279.5"/>
<text text-anchor="start" x="1088" y="-297.5" font-family="Helvetica,sans-Serif" font-size="10.00">VoronoiMeshMaker/Shape</text>
<text text-anchor="middle" x="1151.5" y="-286.5" font-family="Helvetica,sans-Serif" font-size="10.00">/Shape.h</text>
</a>
</g>
</g>
<!-- Node11&#45;&gt;Node13 -->
<g id="edge17" class="edge">
<title>Node11&#45;&gt;Node13</title>
<path fill="none" stroke="midnightblue" d="M1070.85,-346.4C1085.43,-337.2 1104.65,-325.07 1120.67,-314.95"/>
<polygon fill="midnightblue" stroke="midnightblue" points="1122.61,-317.87 1129.19,-309.58 1118.87,-311.95 1122.61,-317.87"/>
</g>
<!-- Node13&#45;&gt;Node3 -->
<g id="edge19" class="edge">
<title>Node13&#45;&gt;Node3</title>
<path fill="none" stroke="midnightblue" d="M1168.3,-279.47C1177.98,-270.24 1189.25,-257.26 1194.5,-243 1209.54,-202.13 1216.99,-182.3 1194.5,-145 1152.23,-74.89 1055.19,-42.7 1000.62,-29.67"/>
<polygon fill="midnightblue" stroke="midnightblue" points="1001.15,-26.2 990.62,-27.38 999.59,-33.02 1001.15,-26.2"/>
</g>
<!-- Node13&#45;&gt;Node9 -->
<g id="edge20" class="edge">
<title>Node13&#45;&gt;Node9</title>
<path fill="none" stroke="midnightblue" d="M1096.89,-279.41C1068.87,-270.98 1034.77,-258.8 1006.5,-243 987.47,-232.37 988.16,-221.42 968.5,-212 952.23,-204.21 851.66,-184.32 786.57,-171.96"/>
<polygon fill="midnightblue" stroke="midnightblue" points="786.92,-168.46 776.44,-170.04 785.62,-175.34 786.92,-168.46"/>
</g>
<!-- Node13&#45;&gt;Node12 -->
<g id="edge18" class="edge">
<title>Node13&#45;&gt;Node12</title>
<path fill="none" stroke="midnightblue" d="M1099.92,-279.48C1064.3,-269.65 1015.88,-255.99 973.5,-243 970.59,-242.11 967.59,-241.17 964.57,-240.2"/>
<polygon fill="midnightblue" stroke="midnightblue" points="965.63,-236.87 955.04,-237.12 963.47,-243.53 965.63,-236.87"/>
</g>
<!-- Node14 -->
<g id="node14" class="node">
<title>Node14</title>
<g id="a_node14"><a xlink:href="GeometricDataHolder_8h.html" target="_top" xlink:title="Defines the GeometricDataHolder class and the DataTraits for handling multiple data types....">
<polygon fill="none" stroke="black" points="1015.5,-212.5 1015.5,-242.5 1185.5,-242.5 1185.5,-212.5 1015.5,-212.5"/>
<text text-anchor="start" x="1023.5" y="-230.5" font-family="Helvetica,sans-Serif" font-size="10.00">VoronoiMeshMaker/Parameters</text>
<text text-anchor="middle" x="1100.5" y="-219.5" font-family="Helvetica,sans-Serif" font-size="10.00">/GeometricDataHolder.h</text>
</a>
</g>
</g>
<!-- Node13&#45;&gt;Node14 -->
<g id="edge21" class="edge">
<title>Node13&#45;&gt;Node14</title>
<path fill="none" stroke="midnightblue" d="M1140.43,-279.4C1133.82,-270.96 1125.27,-260.07 1117.78,-250.52"/>
<polygon fill="midnightblue" stroke="midnightblue" points="1120.47,-248.28 1111.54,-242.58 1114.96,-252.6 1120.47,-248.28"/>
</g>
<!-- Node14&#45;&gt;Node9 -->
<g id="edge22" class="edge">
<title>Node14&#45;&gt;Node9</title>
<path fill="none" stroke="midnightblue" d="M1020.67,-212.48C951.04,-200.24 851.65,-182.78 789.13,-171.8"/>
<polygon fill="midnightblue" stroke="midnightblue" points="789.5,-168.31 779.05,-170.03 788.29,-175.21 789.5,-168.31"/>
</g>
<!-- Node15 -->
<g id="node15" class="node">
<title>Node15</title>
<g id="a_node15"><a xlink:href="GeometricDataTraits_8h.html" target="_top" xlink:title="Defines the GeometricDataTraits structure used for type identification and operations on various data...">
<polygon fill="none" stroke="black" points="1015.5,-145.5 1015.5,-175.5 1185.5,-175.5 1185.5,-145.5 1015.5,-145.5"/>
<text text-anchor="start" x="1023.5" y="-163.5" font-family="Helvetica,sans-Serif" font-size="10.00">VoronoiMeshMaker/Parameters</text>
<text text-anchor="middle" x="1100.5" y="-152.5" font-family="Helvetica,sans-Serif" font-size="10.00">/GeometricDataTraits.h</text>
</a>
</g>
</g>
<!-- Node14&#45;&gt;Node15 -->
<g id="edge23" class="edge">
<title>Node14&#45;&gt;Node15</title>
<path fill="none" stroke="midnightblue" d="M1100.5,-212.4C1100.5,-204.64 1100.5,-194.81 1100.5,-185.86"/>
<polygon fill="midnightblue" stroke="midnightblue" points="1104,-185.58 1100.5,-175.58 1097,-185.58 1104,-185.58"/>
</g>
<!-- Node23 -->
<g id="node23" class="node">
<title>Node23</title>
<g id="a_node23"><a xlink:href="GeometricDataHolder_8tpp.html" target="_top" xlink:title=" ">
<polygon fill="none" stroke="black" points="827.5,-145.5 827.5,-175.5 997.5,-175.5 997.5,-145.5 827.5,-145.5"/>
<text text-anchor="start" x="835.5" y="-163.5" font-family="Helvetica,sans-Serif" font-size="10.00">VoronoiMeshMaker/Parameters</text>
<text text-anchor="middle" x="912.5" y="-152.5" font-family="Helvetica,sans-Serif" font-size="10.00">/GeometricDataHolder.tpp</text>
</a>
</g>
</g>
<!-- Node14&#45;&gt;Node23 -->
<g id="edge32" class="edge">
<title>Node14&#45;&gt;Node23</title>
<path fill="none" stroke="midnightblue" d="M1059.71,-212.4C1031.25,-202.56 993.1,-189.37 962.77,-178.88"/>
<polygon fill="midnightblue" stroke="midnightblue" points="963.81,-175.54 953.21,-175.58 961.52,-182.15 963.81,-175.54"/>
</g>
<!-- Node16 -->
<g id="node16" class="node">
<title>Node16</title>
<g id="a_node16"><a xlink:href="type_8h.html" target="_top" xlink:title="Defines common geometric and numeric types used in the VoronoiMeshMaker library.">
<polygon fill="none" stroke="black" points="335.5,-78.5 335.5,-108.5 471.5,-108.5 471.5,-78.5 335.5,-78.5"/>
<text text-anchor="start" x="343.5" y="-96.5" font-family="Helvetica,sans-Serif" font-size="10.00">VoronoiMeshMaker/Misc</text>
<text text-anchor="middle" x="403.5" y="-85.5" font-family="Helvetica,sans-Serif" font-size="10.00">/type.h</text>
</a>
</g>
</g>
<!-- Node15&#45;&gt;Node16 -->
<g id="edge24" class="edge">
<title>Node15&#45;&gt;Node16</title>
<path fill="none" stroke="midnightblue" d="M1015.48,-146.11C1012.45,-145.72 1009.45,-145.35 1006.5,-145 818.91,-122.7 597.33,-106.81 482.07,-99.33"/>
<polygon fill="midnightblue" stroke="midnightblue" points="482.14,-95.83 471.93,-98.68 481.68,-102.81 482.14,-95.83"/>
</g>
<!-- Node16&#45;&gt;Node3 -->
<g id="edge25" class="edge">
<title>Node16&#45;&gt;Node3</title>
<path fill="none" stroke="midnightblue" d="M471.91,-80.1C476.5,-79.36 481.07,-78.65 485.5,-78 647.01,-54.24 840.53,-34.01 922.14,-25.85"/>
<polygon fill="midnightblue" stroke="midnightblue" points="922.84,-29.3 932.45,-24.83 922.15,-22.33 922.84,-29.3"/>
</g>
<!-- Node17 -->
<g id="node17" class="node">
<title>Node17</title>
<g id="a_node17"><a xlink:title=" ">
<polygon fill="none" stroke="#bfbfbf" points="563.5,-11.5 563.5,-30.5 595.5,-30.5 595.5,-11.5 563.5,-11.5"/>
<text text-anchor="middle" x="579.5" y="-18.5" font-family="Helvetica,sans-Serif" font-size="10.00">list</text>
</a>
</g>
</g>
<!-- Node16&#45;&gt;Node17 -->
<g id="edge26" class="edge">
<title>Node16&#45;&gt;Node17</title>
<path fill="none" stroke="midnightblue" d="M461.04,-78.42C490.08,-70.05 525.25,-57.93 554.5,-42 557.15,-40.55 559.81,-38.82 562.34,-36.99"/>
<polygon fill="midnightblue" stroke="midnightblue" points="564.68,-39.6 570.33,-30.64 560.32,-34.12 564.68,-39.6"/>
</g>
<!-- Node18 -->
<g id="node18" class="node">
<title>Node18</title>
<g id="a_node18"><a xlink:title=" ">
<polygon fill="none" stroke="#bfbfbf" points="614,-11.5 614,-30.5 661,-30.5 661,-11.5 614,-11.5"/>
<text text-anchor="middle" x="637.5" y="-18.5" font-family="Helvetica,sans-Serif" font-size="10.00">vector</text>
</a>
</g>
</g>
<!-- Node16&#45;&gt;Node18 -->
<g id="edge27" class="edge">
<title>Node16&#45;&gt;Node18</title>
<path fill="none" stroke="midnightblue" d="M471.66,-80.65C511.36,-72.47 561.83,-59.81 604.5,-42 608.6,-40.29 612.8,-38.12 616.76,-35.84"/>
<polygon fill="midnightblue" stroke="midnightblue" points="618.74,-38.73 625.43,-30.51 615.08,-32.77 618.74,-38.73"/>
</g>
<!-- Node19 -->
<g id="node19" class="node">
<title>Node19</title>
<g id="a_node19"><a xlink:title=" ">
<polygon fill="none" stroke="#bfbfbf" points="0,-0.5 0,-41.5 129,-41.5 129,-0.5 0,-0.5"/>
<text text-anchor="start" x="8" y="-29.5" font-family="Helvetica,sans-Serif" font-size="10.00">CGAL/Exact_predicates</text>
<text text-anchor="start" x="8" y="-18.5" font-family="Helvetica,sans-Serif" font-size="10.00">_inexact_constructions</text>
<text text-anchor="middle" x="64.5" y="-7.5" font-family="Helvetica,sans-Serif" font-size="10.00">_kernel.h</text>
</a>
</g>
</g>
<!-- Node16&#45;&gt;Node19 -->
<g id="edge28" class="edge">
<title>Node16&#45;&gt;Node19</title>
<path fill="none" stroke="midnightblue" d="M335.4,-81.12C283.9,-72.15 211.24,-58.75 139.43,-42.37"/>
<polygon fill="midnightblue" stroke="midnightblue" points="139.84,-38.88 129.31,-40.04 138.27,-45.7 139.84,-38.88"/>
</g>
<!-- Node20 -->
<g id="node20" class="node">
<title>Node20</title>
<g id="a_node20"><a xlink:title=" ">
<polygon fill="none" stroke="#bfbfbf" points="147,-11.5 147,-30.5 252,-30.5 252,-11.5 147,-11.5"/>
<text text-anchor="middle" x="199.5" y="-18.5" font-family="Helvetica,sans-Serif" font-size="10.00">CGAL/Polygon_2.h</text>
</a>
</g>
</g>
<!-- Node16&#45;&gt;Node20 -->
<g id="edge29" class="edge">
<title>Node16&#45;&gt;Node20</title>
<path fill="none" stroke="midnightblue" d="M362.71,-78.4C324.87,-65.33 269.2,-46.09 233.65,-33.8"/>
<polygon fill="midnightblue" stroke="midnightblue" points="234.79,-30.49 224.19,-30.53 232.5,-37.11 234.79,-30.49"/>
</g>
<!-- Node21 -->
<g id="node21" class="node">
<title>Node21</title>
<g id="a_node21"><a xlink:title=" ">
<polygon fill="none" stroke="#bfbfbf" points="270,-11.5 270,-30.5 391,-30.5 391,-11.5 270,-11.5"/>
<text text-anchor="middle" x="330.5" y="-18.5" font-family="Helvetica,sans-Serif" font-size="10.00">CGAL/Polyhedron_3.h</text>
</a>
</g>
</g>
<!-- Node16&#45;&gt;Node21 -->
<g id="edge30" class="edge">
<title>Node16&#45;&gt;Node21</title>
<path fill="none" stroke="midnightblue" d="M388.73,-78.23C376.7,-66.62 359.72,-50.22 347.2,-38.12"/>
<polygon fill="midnightblue" stroke="midnightblue" points="349.33,-35.32 339.71,-30.89 344.47,-40.36 349.33,-35.32"/>
</g>
<!-- Node22 -->
<g id="node22" class="node">
<title>Node22</title>
<g id="a_node22"><a xlink:href="namespace_8h.html" target="_top" xlink:title=" ">
<polygon fill="none" stroke="black" points="409.5,-6 409.5,-36 545.5,-36 545.5,-6 409.5,-6"/>
<text text-anchor="start" x="417.5" y="-24" font-family="Helvetica,sans-Serif" font-size="10.00">VoronoiMeshMaker/Misc</text>
<text text-anchor="middle" x="477.5" y="-13" font-family="Helvetica,sans-Serif" font-size="10.00">/namespace.h</text>
</a>
</g>
</g>
<!-- Node16&#45;&gt;Node22 -->
<g id="edge31" class="edge">
<title>Node16&#45;&gt;Node22</title>
<path fill="none" stroke="midnightblue" d="M418.48,-78.23C429.01,-68.2 443.28,-54.6 455.16,-43.29"/>
<polygon fill="midnightblue" stroke="midnightblue" points="457.72,-45.68 462.55,-36.25 452.89,-40.61 457.72,-45.68"/>
</g>
</g>
</svg>
