<?xml version="1.0" encoding="UTF-8" standalone="no"?>
<!DOCTYPE svg PUBLIC "-//W3C//DTD SVG 1.1//EN"
 "http://www.w3.org/Graphics/SVG/1.1/DTD/svg11.dtd">
<!-- Generated by graphviz version 2.43.0 (0)
 -->
<!-- Title: include/VoronoiMeshMaker/Exporter Pages: 1 -->
<svg width="186pt" height="239pt"
 viewBox="0.00 0.00 186.00 239.00" xmlns="http://www.w3.org/2000/svg" xmlns:xlink="http://www.w3.org/1999/xlink">
<g id="graph0" class="graph" transform="scale(1 1) rotate(0) translate(4 235)">
<title>include/VoronoiMeshMaker/Exporter</title>
<g id="clust1" class="cluster">
<title>clusterdir_526250a22093f67c99f77a4619959fe1</title>
<g id="a_clust1"><a xlink:href="dir_526250a22093f67c99f77a4619959fe1.html" target="_top" xlink:title="VoronoiMeshMaker">
<polygon fill="#ddddee" stroke="black" points="8,-8 8,-223 170,-223 170,-8 8,-8"/>
<text text-anchor="middle" x="89" y="-211" font-family="Helvetica,sans-Serif" font-size="10.00">VoronoiMeshMaker</text>
</a>
</g>
</g>
<!-- dir_4be1abb3845715502694da242b97f2db -->
<g id="node1" class="node">
<title>dir_4be1abb3845715502694da242b97f2db</title>
<g id="a_node1"><a xlink:href="dir_4be1abb3845715502694da242b97f2db.html" target="_top" xlink:title="Voronoi">
<polygon fill="none" stroke="red" points="70,-124 16,-124 16,-88 70,-88 70,-124"/>
<text text-anchor="middle" x="43" y="-103.5" font-family="Helvetica,sans-Serif" font-size="10.00">Voronoi</text>
</a>
</g>
</g>
<!-- dir_76374d326cecb782421178f43b89279d -->
<g id="node2" class="node">
<title>dir_76374d326cecb782421178f43b89279d</title>
<g id="a_node2"><a xlink:href="dir_76374d326cecb782421178f43b89279d.html" target="_top" xlink:title="Misc">
<polygon fill="none" stroke="black" points="116,-52 62,-52 62,-16 116,-16 116,-52"/>
<text text-anchor="middle" x="89" y="-31.5" font-family="Helvetica,sans-Serif" font-size="10.00">Misc</text>
</a>
</g>
</g>
<!-- dir_4be1abb3845715502694da242b97f2db&#45;&gt;dir_76374d326cecb782421178f43b89279d -->
<g id="edge5" class="edge">
<title>dir_4be1abb3845715502694da242b97f2db&#45;&gt;dir_76374d326cecb782421178f43b89279d</title>
<path fill="none" stroke="black" d="M54.37,-87.7C59.72,-79.56 66.2,-69.69 72.11,-60.7"/>
<polygon fill="black" stroke="black" points="75.19,-62.38 77.76,-52.1 69.34,-58.54 75.19,-62.38"/>
<g id="a_edge5&#45;headlabel"><a xlink:href="dir_000012_000004.html" target="_top" xlink:title="2">
<text text-anchor="middle" x="75.59" y="-64.45" font-family="Helvetica,sans-Serif" font-size="10.00">2</text>
</a>
</g>
</g>
<!-- dir_a1343f8cc582df3ded07dc5cb31752d6 -->
<g id="node3" class="node">
<title>dir_a1343f8cc582df3ded07dc5cb31752d6</title>
<g id="a_node3"><a xlink:href="dir_a1343f8cc582df3ded07dc5cb31752d6.html" target="_top" xlink:title="Nodes">
<polygon fill="none" stroke="red" points="162,-124 108,-124 108,-88 162,-88 162,-124"/>
<text text-anchor="middle" x="135" y="-103.5" font-family="Helvetica,sans-Serif" font-size="10.00">Nodes</text>
</a>
</g>
</g>
<!-- dir_a1343f8cc582df3ded07dc5cb31752d6&#45;&gt;dir_76374d326cecb782421178f43b89279d -->
<g id="edge4" class="edge">
<title>dir_a1343f8cc582df3ded07dc5cb31752d6&#45;&gt;dir_76374d326cecb782421178f43b89279d</title>
<path fill="none" stroke="black" d="M123.63,-87.7C118.28,-79.56 111.8,-69.69 105.89,-60.7"/>
<polygon fill="black" stroke="black" points="108.66,-58.54 100.24,-52.1 102.81,-62.38 108.66,-58.54"/>
<g id="a_edge4&#45;headlabel"><a xlink:href="dir_000005_000004.html" target="_top" xlink:title="4">
<text text-anchor="middle" x="113" y="-57.48" font-family="Helvetica,sans-Serif" font-size="10.00">4</text>
</a>
</g>
</g>
<!-- dir_e982a46383a30968e7c73eb6c0c677b9 -->
<g id="node4" class="node">
<title>dir_e982a46383a30968e7c73eb6c0c677b9</title>
<g id="a_node4"><a xlink:href="dir_e982a46383a30968e7c73eb6c0c677b9.html" target="_top" xlink:title="Exporter">
<polygon fill="#eeeeff" stroke="black" points="118,-196 60,-196 60,-160 118,-160 118,-196"/>
<text text-anchor="middle" x="89" y="-175.5" font-family="Helvetica,sans-Serif" font-size="10.00">Exporter</text>
</a>
</g>
</g>
<!-- dir_e982a46383a30968e7c73eb6c0c677b9&#45;&gt;dir_4be1abb3845715502694da242b97f2db -->
<g id="edge1" class="edge">
<title>dir_e982a46383a30968e7c73eb6c0c677b9&#45;&gt;dir_4be1abb3845715502694da242b97f2db</title>
<path fill="none" stroke="black" d="M77.63,-159.7C72.28,-151.56 65.8,-141.69 59.89,-132.7"/>
<polygon fill="black" stroke="black" points="62.66,-130.54 54.24,-124.1 56.81,-134.38 62.66,-130.54"/>
<g id="a_edge1&#45;headlabel"><a xlink:href="dir_000003_000012.html" target="_top" xlink:title="2">
<text text-anchor="middle" x="67" y="-129.48" font-family="Helvetica,sans-Serif" font-size="10.00">2</text>
</a>
</g>
</g>
<!-- dir_e982a46383a30968e7c73eb6c0c677b9&#45;&gt;dir_76374d326cecb782421178f43b89279d -->
<g id="edge2" class="edge">
<title>dir_e982a46383a30968e7c73eb6c0c677b9&#45;&gt;dir_76374d326cecb782421178f43b89279d</title>
<path fill="none" stroke="black" d="M89,-159.87C89,-135.67 89,-91.21 89,-62.39"/>
<polygon fill="black" stroke="black" points="92.5,-62.19 89,-52.19 85.5,-62.19 92.5,-62.19"/>
<g id="a_edge2&#45;headlabel"><a xlink:href="dir_000003_000004.html" target="_top" xlink:title="1">
<text text-anchor="middle" x="95.34" y="-63.28" font-family="Helvetica,sans-Serif" font-size="10.00">1</text>
</a>
</g>
</g>
<!-- dir_e982a46383a30968e7c73eb6c0c677b9&#45;&gt;dir_a1343f8cc582df3ded07dc5cb31752d6 -->
<g id="edge3" class="edge">
<title>dir_e982a46383a30968e7c73eb6c0c677b9&#45;&gt;dir_a1343f8cc582df3ded07dc5cb31752d6</title>
<path fill="none" stroke="black" d="M100.37,-159.7C105.72,-151.56 112.2,-141.69 118.11,-132.7"/>
<polygon fill="black" stroke="black" points="121.19,-134.38 123.76,-124.1 115.34,-130.54 121.19,-134.38"/>
<g id="a_edge3&#45;headlabel"><a xlink:href="dir_000003_000005.html" target="_top" xlink:title="2">
<text text-anchor="middle" x="121.59" y="-136.45" font-family="Helvetica,sans-Serif" font-size="10.00">2</text>
</a>
</g>
</g>
</g>
</svg>
