<?xml version="1.0" encoding="UTF-8" standalone="no"?>
<!DOCTYPE svg PUBLIC "-//W3C//DTD SVG 1.1//EN"
 "http://www.w3.org/Graphics/SVG/1.1/DTD/svg11.dtd">
<!-- Generated by graphviz version 2.43.0 (0)
 -->
<!-- Title: include/VoronoiMeshMaker Pages: 1 -->
<svg width="366pt" height="255pt"
 viewBox="0.00 0.00 366.00 255.00" xmlns="http://www.w3.org/2000/svg" xmlns:xlink="http://www.w3.org/1999/xlink">
<g id="graph0" class="graph" transform="scale(1 1) rotate(0) translate(4 251)">
<title>include/VoronoiMeshMaker</title>
<g id="clust1" class="cluster">
<title>clusterdir_d44c64559bbebec7f509842c48db8b23</title>
<g id="a_clust1"><a xlink:href="dir_d44c64559bbebec7f509842c48db8b23.html" target="_top" xlink:title="include">
<polygon fill="#ddddee" stroke="black" points="8,-8 8,-239 350,-239 350,-8 8,-8"/>
<text text-anchor="middle" x="179" y="-227" font-family="Helvetica,sans-Serif" font-size="10.00">include</text>
</a>
</g>
</g>
<g id="clust2" class="cluster">
<title>clusterdir_526250a22093f67c99f77a4619959fe1</title>
<g id="a_clust2"><a xlink:href="dir_526250a22093f67c99f77a4619959fe1.html" target="_top">
<polygon fill="#eeeeff" stroke="black" points="16,-16 16,-212 342,-212 342,-16 16,-16"/>
</a>
</g>
</g>
<!-- dir_526250a22093f67c99f77a4619959fe1 -->
<g id="node1" class="node">
<title>dir_526250a22093f67c99f77a4619959fe1</title>
<text text-anchor="middle" x="272" y="-183.5" font-family="Helvetica,sans-Serif" font-size="10.00">VoronoiMeshMaker</text>
</g>
<!-- dir_86ae38f54b8ba5f51461eef23c18dce5 -->
<g id="node2" class="node">
<title>dir_86ae38f54b8ba5f51461eef23c18dce5</title>
<g id="a_node2"><a xlink:href="dir_86ae38f54b8ba5f51461eef23c18dce5.html" target="_top" xlink:title="Error">
<polygon fill="white" stroke="black" points="334,-132 280,-132 280,-96 334,-96 334,-132"/>
<text text-anchor="middle" x="307" y="-111.5" font-family="Helvetica,sans-Serif" font-size="10.00">Error</text>
</a>
</g>
</g>
<!-- dir_76374d326cecb782421178f43b89279d -->
<g id="node4" class="node">
<title>dir_76374d326cecb782421178f43b89279d</title>
<g id="a_node4"><a xlink:href="dir_76374d326cecb782421178f43b89279d.html" target="_top" xlink:title="Misc">
<polygon fill="white" stroke="black" points="190,-60 136,-60 136,-24 190,-24 190,-60"/>
<text text-anchor="middle" x="163" y="-39.5" font-family="Helvetica,sans-Serif" font-size="10.00">Misc</text>
</a>
</g>
</g>
<!-- dir_86ae38f54b8ba5f51461eef23c18dce5&#45;&gt;dir_76374d326cecb782421178f43b89279d -->
<g id="edge5" class="edge">
<title>dir_86ae38f54b8ba5f51461eef23c18dce5&#45;&gt;dir_76374d326cecb782421178f43b89279d</title>
<path fill="none" stroke="black" d="M279.91,-99.83C257.23,-88.81 224.64,-72.97 199.63,-60.81"/>
<polygon fill="black" stroke="black" points="200.98,-57.57 190.45,-56.35 197.92,-63.87 200.98,-57.57"/>
<g id="a_edge5&#45;headlabel"><a xlink:href="dir_000002_000004.html" target="_top" xlink:title="2">
<text text-anchor="middle" x="205.45" y="-54.09" font-family="Helvetica,sans-Serif" font-size="10.00">2</text>
</a>
</g>
</g>
<!-- dir_e982a46383a30968e7c73eb6c0c677b9 -->
<g id="node3" class="node">
<title>dir_e982a46383a30968e7c73eb6c0c677b9</title>
<g id="a_node3"><a xlink:href="dir_e982a46383a30968e7c73eb6c0c677b9.html" target="_top" xlink:title="Exporter">
<polygon fill="white" stroke="black" points="192,-204 134,-204 134,-168 192,-168 192,-204"/>
<text text-anchor="middle" x="163" y="-183.5" font-family="Helvetica,sans-Serif" font-size="10.00">Exporter</text>
</a>
</g>
</g>
<!-- dir_e982a46383a30968e7c73eb6c0c677b9&#45;&gt;dir_76374d326cecb782421178f43b89279d -->
<g id="edge3" class="edge">
<title>dir_e982a46383a30968e7c73eb6c0c677b9&#45;&gt;dir_76374d326cecb782421178f43b89279d</title>
<path fill="none" stroke="black" d="M147.39,-167.77C139.63,-158.03 131.05,-145.18 127,-132 122.3,-116.71 122.3,-111.29 127,-96 130.01,-86.22 135.51,-76.62 141.32,-68.33"/>
<polygon fill="black" stroke="black" points="144.19,-70.33 147.39,-60.23 138.59,-66.13 144.19,-70.33"/>
<g id="a_edge3&#45;headlabel"><a xlink:href="dir_000003_000004.html" target="_top" xlink:title="1">
<text text-anchor="middle" x="144.31" y="-72.41" font-family="Helvetica,sans-Serif" font-size="10.00">1</text>
</a>
</g>
</g>
<!-- dir_a1343f8cc582df3ded07dc5cb31752d6 -->
<g id="node5" class="node">
<title>dir_a1343f8cc582df3ded07dc5cb31752d6</title>
<g id="a_node5"><a xlink:href="dir_a1343f8cc582df3ded07dc5cb31752d6.html" target="_top" xlink:title="Nodes">
<polygon fill="white" stroke="red" points="190,-132 136,-132 136,-96 190,-96 190,-132"/>
<text text-anchor="middle" x="163" y="-111.5" font-family="Helvetica,sans-Serif" font-size="10.00">Nodes</text>
</a>
</g>
</g>
<!-- dir_e982a46383a30968e7c73eb6c0c677b9&#45;&gt;dir_a1343f8cc582df3ded07dc5cb31752d6 -->
<g id="edge4" class="edge">
<title>dir_e982a46383a30968e7c73eb6c0c677b9&#45;&gt;dir_a1343f8cc582df3ded07dc5cb31752d6</title>
<path fill="none" stroke="black" d="M163,-167.7C163,-159.98 163,-150.71 163,-142.11"/>
<polygon fill="black" stroke="black" points="166.5,-142.1 163,-132.1 159.5,-142.1 166.5,-142.1"/>
<g id="a_edge4&#45;headlabel"><a xlink:href="dir_000003_000005.html" target="_top" xlink:title="2">
<text text-anchor="middle" x="169.34" y="-143.2" font-family="Helvetica,sans-Serif" font-size="10.00">2</text>
</a>
</g>
</g>
<!-- dir_4be1abb3845715502694da242b97f2db -->
<g id="node8" class="node">
<title>dir_4be1abb3845715502694da242b97f2db</title>
<g id="a_node8"><a xlink:href="dir_4be1abb3845715502694da242b97f2db.html" target="_top" xlink:title="Voronoi">
<polygon fill="white" stroke="red" points="262,-132 208,-132 208,-96 262,-96 262,-132"/>
<text text-anchor="middle" x="235" y="-111.5" font-family="Helvetica,sans-Serif" font-size="10.00">Voronoi</text>
</a>
</g>
</g>
<!-- dir_e982a46383a30968e7c73eb6c0c677b9&#45;&gt;dir_4be1abb3845715502694da242b97f2db -->
<g id="edge2" class="edge">
<title>dir_e982a46383a30968e7c73eb6c0c677b9&#45;&gt;dir_4be1abb3845715502694da242b97f2db</title>
<path fill="none" stroke="black" d="M180.8,-167.7C189.6,-159.14 200.38,-148.66 210,-139.3"/>
<polygon fill="black" stroke="black" points="212.68,-141.58 217.41,-132.1 207.8,-136.57 212.68,-141.58"/>
<g id="a_edge2&#45;headlabel"><a xlink:href="dir_000003_000012.html" target="_top" xlink:title="2">
<text text-anchor="middle" x="212.08" y="-143.63" font-family="Helvetica,sans-Serif" font-size="10.00">2</text>
</a>
</g>
</g>
<!-- dir_a1343f8cc582df3ded07dc5cb31752d6&#45;&gt;dir_76374d326cecb782421178f43b89279d -->
<g id="edge6" class="edge">
<title>dir_a1343f8cc582df3ded07dc5cb31752d6&#45;&gt;dir_76374d326cecb782421178f43b89279d</title>
<path fill="none" stroke="black" d="M163,-95.7C163,-87.98 163,-78.71 163,-70.11"/>
<polygon fill="black" stroke="black" points="166.5,-70.1 163,-60.1 159.5,-70.1 166.5,-70.1"/>
<g id="a_edge6&#45;headlabel"><a xlink:href="dir_000005_000004.html" target="_top" xlink:title="4">
<text text-anchor="middle" x="169.34" y="-71.2" font-family="Helvetica,sans-Serif" font-size="10.00">4</text>
</a>
</g>
</g>
<!-- dir_39406c9b1377dba74eb35adf166e43bc -->
<g id="node6" class="node">
<title>dir_39406c9b1377dba74eb35adf166e43bc</title>
<g id="a_node6"><a xlink:href="dir_39406c9b1377dba74eb35adf166e43bc.html" target="_top" xlink:title="Parameters">
<polygon fill="white" stroke="black" points="97.5,-132 24.5,-132 24.5,-96 97.5,-96 97.5,-132"/>
<text text-anchor="middle" x="61" y="-111.5" font-family="Helvetica,sans-Serif" font-size="10.00">Parameters</text>
</a>
</g>
</g>
<!-- dir_39406c9b1377dba74eb35adf166e43bc&#45;&gt;dir_76374d326cecb782421178f43b89279d -->
<g id="edge7" class="edge">
<title>dir_39406c9b1377dba74eb35adf166e43bc&#45;&gt;dir_76374d326cecb782421178f43b89279d</title>
<path fill="none" stroke="black" d="M85.95,-95.88C99.04,-86.89 115.26,-75.76 129.44,-66.03"/>
<polygon fill="black" stroke="black" points="131.69,-68.73 137.95,-60.19 127.73,-62.96 131.69,-68.73"/>
<g id="a_edge7&#45;headlabel"><a xlink:href="dir_000008_000004.html" target="_top" xlink:title="1">
<text text-anchor="middle" x="130.33" y="-70.61" font-family="Helvetica,sans-Serif" font-size="10.00">1</text>
</a>
</g>
</g>
<!-- dir_ba79d34ef70f4b82a10cc41d3707f362 -->
<g id="node7" class="node">
<title>dir_ba79d34ef70f4b82a10cc41d3707f362</title>
<g id="a_node7"><a xlink:href="dir_ba79d34ef70f4b82a10cc41d3707f362.html" target="_top" xlink:title="Shape">
<polygon fill="white" stroke="red" points="88,-204 34,-204 34,-168 88,-168 88,-204"/>
<text text-anchor="middle" x="61" y="-183.5" font-family="Helvetica,sans-Serif" font-size="10.00">Shape</text>
</a>
</g>
</g>
<!-- dir_ba79d34ef70f4b82a10cc41d3707f362&#45;&gt;dir_39406c9b1377dba74eb35adf166e43bc -->
<g id="edge1" class="edge">
<title>dir_ba79d34ef70f4b82a10cc41d3707f362&#45;&gt;dir_39406c9b1377dba74eb35adf166e43bc</title>
<path fill="none" stroke="black" d="M61,-167.7C61,-159.98 61,-150.71 61,-142.11"/>
<polygon fill="black" stroke="black" points="64.5,-142.1 61,-132.1 57.5,-142.1 64.5,-142.1"/>
<g id="a_edge1&#45;headlabel"><a xlink:href="dir_000009_000008.html" target="_top" xlink:title="2">
<text text-anchor="middle" x="67.34" y="-143.2" font-family="Helvetica,sans-Serif" font-size="10.00">2</text>
</a>
</g>
</g>
<!-- dir_4be1abb3845715502694da242b97f2db&#45;&gt;dir_76374d326cecb782421178f43b89279d -->
<g id="edge8" class="edge">
<title>dir_4be1abb3845715502694da242b97f2db&#45;&gt;dir_76374d326cecb782421178f43b89279d</title>
<path fill="none" stroke="black" d="M217.2,-95.7C208.4,-87.14 197.62,-76.66 188,-67.3"/>
<polygon fill="black" stroke="black" points="190.2,-64.57 180.59,-60.1 185.32,-69.58 190.2,-64.57"/>
<g id="a_edge8&#45;headlabel"><a xlink:href="dir_000012_000004.html" target="_top" xlink:title="2">
<text text-anchor="middle" x="194.76" y="-62.54" font-family="Helvetica,sans-Serif" font-size="10.00">2</text>
</a>
</g>
</g>
</g>
</svg>
