<?xml version="1.0" encoding="UTF-8" standalone="no"?>
<!DOCTYPE svg PUBLIC "-//W3C//DTD SVG 1.1//EN"
 "http://www.w3.org/Graphics/SVG/1.1/DTD/svg11.dtd">
<!-- Generated by graphviz version 2.43.0 (0)
 -->
<!-- Title: src/VoronoiMeshMaker/Voronoi Pages: 1 -->
<svg width="282pt" height="159pt"
 viewBox="0.00 0.00 282.00 159.00" xmlns="http://www.w3.org/2000/svg" xmlns:xlink="http://www.w3.org/1999/xlink">
<g id="graph0" class="graph" transform="scale(1 1) rotate(0) translate(4 155)">
<title>src/VoronoiMeshMaker/Voronoi</title>
<g id="clust1" class="cluster">
<title>clusterdir_a6e3c51932979899eef3b54640c3c0e4</title>
<g id="a_clust1"><a xlink:href="dir_a6e3c51932979899eef3b54640c3c0e4.html" target="_top" xlink:title="VoronoiMeshMaker">
<polygon fill="#ddddee" stroke="black" points="8,-56 8,-143 266,-143 266,-56 8,-56"/>
<text text-anchor="middle" x="137" y="-131" font-family="Helvetica,sans-Serif" font-size="10.00">VoronoiMeshMaker</text>
</a>
</g>
</g>
<g id="clust2" class="cluster">
<title>clusterdir_27b2837e0f0f8422299d94eeaecaad55</title>
<g id="a_clust2"><a xlink:href="dir_27b2837e0f0f8422299d94eeaecaad55.html" target="_top">
<polygon fill="#eeeeff" stroke="black" points="16,-64 16,-116 258,-116 258,-64 16,-64"/>
</a>
</g>
</g>
<!-- dir_27b2837e0f0f8422299d94eeaecaad55 -->
<g id="node1" class="node">
<title>dir_27b2837e0f0f8422299d94eeaecaad55</title>
<text text-anchor="middle" x="223" y="-87.5" font-family="Helvetica,sans-Serif" font-size="10.00">Voronoi</text>
</g>
<!-- dir_d44c64559bbebec7f509842c48db8b23 -->
<g id="node4" class="node">
<title>dir_d44c64559bbebec7f509842c48db8b23</title>
<g id="a_node4"><a xlink:href="dir_d44c64559bbebec7f509842c48db8b23.html" target="_top" xlink:title="include">
<polygon fill="none" stroke="red" points="171,-36 117,-36 117,0 171,0 171,-36"/>
<text text-anchor="middle" x="144" y="-15.5" font-family="Helvetica,sans-Serif" font-size="10.00">include</text>
</a>
</g>
</g>
<!-- dir_27b2837e0f0f8422299d94eeaecaad55&#45;&gt;dir_d44c64559bbebec7f509842c48db8b23 -->
<g id="edge3" class="edge">
<title>dir_27b2837e0f0f8422299d94eeaecaad55&#45;&gt;dir_d44c64559bbebec7f509842c48db8b23</title>
<path fill="none" stroke="black" d="M204.42,-71.76C198.85,-66.65 192.71,-61.07 187,-56 182.17,-51.71 176.99,-47.19 171.95,-42.83"/>
<polygon fill="black" stroke="black" points="174.1,-40.06 164.24,-36.19 169.53,-45.37 174.1,-40.06"/>
<g id="a_edge3&#45;headlabel"><a xlink:href="dir_000025_000000.html" target="_top" xlink:title="3">
<text text-anchor="middle" x="178.68" y="-37.76" font-family="Helvetica,sans-Serif" font-size="10.00">3</text>
</a>
</g>
</g>
<!-- dir_cade38b846102c4818a37b96364d0bcb -->
<g id="node2" class="node">
<title>dir_cade38b846102c4818a37b96364d0bcb</title>
<g id="a_node2"><a xlink:href="dir_cade38b846102c4818a37b96364d0bcb.html" target="_top" xlink:title="Voronoi2D">
<polygon fill="white" stroke="black" points="178,-108 110,-108 110,-72 178,-72 178,-108"/>
<text text-anchor="middle" x="144" y="-87.5" font-family="Helvetica,sans-Serif" font-size="10.00">Voronoi2D</text>
</a>
</g>
</g>
<!-- dir_cade38b846102c4818a37b96364d0bcb&#45;&gt;dir_d44c64559bbebec7f509842c48db8b23 -->
<g id="edge1" class="edge">
<title>dir_cade38b846102c4818a37b96364d0bcb&#45;&gt;dir_d44c64559bbebec7f509842c48db8b23</title>
<path fill="none" stroke="black" d="M144,-71.7C144,-63.98 144,-54.71 144,-46.11"/>
<polygon fill="black" stroke="black" points="147.5,-46.1 144,-36.1 140.5,-46.1 147.5,-46.1"/>
<g id="a_edge1&#45;headlabel"><a xlink:href="dir_000026_000000.html" target="_top" xlink:title="1">
<text text-anchor="middle" x="150.34" y="-47.2" font-family="Helvetica,sans-Serif" font-size="10.00">1</text>
</a>
</g>
</g>
<!-- dir_603f94bc7d80c85be62e96cabf622088 -->
<g id="node3" class="node">
<title>dir_603f94bc7d80c85be62e96cabf622088</title>
<g id="a_node3"><a xlink:href="dir_603f94bc7d80c85be62e96cabf622088.html" target="_top" xlink:title="Voronoi3D">
<polygon fill="white" stroke="black" points="92,-108 24,-108 24,-72 92,-72 92,-108"/>
<text text-anchor="middle" x="58" y="-87.5" font-family="Helvetica,sans-Serif" font-size="10.00">Voronoi3D</text>
</a>
</g>
</g>
<!-- dir_603f94bc7d80c85be62e96cabf622088&#45;&gt;dir_d44c64559bbebec7f509842c48db8b23 -->
<g id="edge2" class="edge">
<title>dir_603f94bc7d80c85be62e96cabf622088&#45;&gt;dir_d44c64559bbebec7f509842c48db8b23</title>
<path fill="none" stroke="black" d="M79.26,-71.7C90.09,-62.88 103.42,-52.03 115.16,-42.47"/>
<polygon fill="black" stroke="black" points="117.44,-45.13 122.99,-36.1 113.02,-39.7 117.44,-45.13"/>
<g id="a_edge2&#45;headlabel"><a xlink:href="dir_000027_000000.html" target="_top" xlink:title="1">
<text text-anchor="middle" x="116.44" y="-47.1" font-family="Helvetica,sans-Serif" font-size="10.00">1</text>
</a>
</g>
</g>
</g>
</svg>
