<?xml version="1.0" encoding="UTF-8" standalone="no"?>
<!DOCTYPE svg PUBLIC "-//W3C//DTD SVG 1.1//EN"
 "http://www.w3.org/Graphics/SVG/1.1/DTD/svg11.dtd">
<!-- Generated by graphviz version 2.43.0 (0)
 -->
<!-- Title: src/VoronoiMeshMaker Pages: 1 -->
<svg width="602pt" height="159pt"
 viewBox="0.00 0.00 602.00 159.00" xmlns="http://www.w3.org/2000/svg" xmlns:xlink="http://www.w3.org/1999/xlink">
<g id="graph0" class="graph" transform="scale(1 1) rotate(0) translate(4 155)">
<title>src/VoronoiMeshMaker</title>
<g id="clust1" class="cluster">
<title>clusterdir_68267d1309a1af8e8297ef4c3efbcdba</title>
<g id="a_clust1"><a xlink:href="dir_68267d1309a1af8e8297ef4c3efbcdba.html" target="_top" xlink:title="src">
<polygon fill="#ddddee" stroke="black" points="8,-56 8,-143 586,-143 586,-56 8,-56"/>
<text text-anchor="middle" x="297" y="-131" font-family="Helvetica,sans-Serif" font-size="10.00">src</text>
</a>
</g>
</g>
<g id="clust2" class="cluster">
<title>clusterdir_a6e3c51932979899eef3b54640c3c0e4</title>
<g id="a_clust2"><a xlink:href="dir_a6e3c51932979899eef3b54640c3c0e4.html" target="_top">
<polygon fill="#eeeeff" stroke="black" points="16,-64 16,-116 578,-116 578,-64 16,-64"/>
</a>
</g>
</g>
<!-- dir_a6e3c51932979899eef3b54640c3c0e4 -->
<g id="node1" class="node">
<title>dir_a6e3c51932979899eef3b54640c3c0e4</title>
<text text-anchor="middle" x="515" y="-87.5" font-family="Helvetica,sans-Serif" font-size="10.00">VoronoiMeshMaker</text>
</g>
<!-- dir_64a70d5fc450160d62e087713d230825 -->
<g id="node2" class="node">
<title>dir_64a70d5fc450160d62e087713d230825</title>
<g id="a_node2"><a xlink:href="dir_64a70d5fc450160d62e087713d230825.html" target="_top" xlink:title="Error">
<polygon fill="white" stroke="black" points="442,-108 388,-108 388,-72 442,-72 442,-108"/>
<text text-anchor="middle" x="415" y="-87.5" font-family="Helvetica,sans-Serif" font-size="10.00">Error</text>
</a>
</g>
</g>
<!-- dir_d44c64559bbebec7f509842c48db8b23 -->
<g id="node8" class="node">
<title>dir_d44c64559bbebec7f509842c48db8b23</title>
<g id="a_node8"><a xlink:href="dir_d44c64559bbebec7f509842c48db8b23.html" target="_top" xlink:title="include">
<polygon fill="none" stroke="red" points="222,-36 168,-36 168,0 222,0 222,-36"/>
<text text-anchor="middle" x="195" y="-15.5" font-family="Helvetica,sans-Serif" font-size="10.00">include</text>
</a>
</g>
</g>
<!-- dir_64a70d5fc450160d62e087713d230825&#45;&gt;dir_d44c64559bbebec7f509842c48db8b23 -->
<g id="edge4" class="edge">
<title>dir_64a70d5fc450160d62e087713d230825&#45;&gt;dir_d44c64559bbebec7f509842c48db8b23</title>
<path fill="none" stroke="black" d="M399.96,-71.8C393.99,-65.95 386.71,-59.92 379,-56 332,-32.12 270.92,-23.64 232.32,-20.64"/>
<polygon fill="black" stroke="black" points="232.28,-17.13 222.06,-19.93 231.8,-24.11 232.28,-17.13"/>
<g id="a_edge4&#45;headlabel"><a xlink:href="dir_000017_000000.html" target="_top" xlink:title="1">
<text text-anchor="middle" x="236.06" y="-12.05" font-family="Helvetica,sans-Serif" font-size="10.00">1</text>
</a>
</g>
</g>
<!-- dir_1dec45c0bee5b9f673a57b878da20d2a -->
<g id="node3" class="node">
<title>dir_1dec45c0bee5b9f673a57b878da20d2a</title>
<g id="a_node3"><a xlink:href="dir_1dec45c0bee5b9f673a57b878da20d2a.html" target="_top" xlink:title="Exporter">
<polygon fill="white" stroke="black" points="370,-108 312,-108 312,-72 370,-72 370,-108"/>
<text text-anchor="middle" x="341" y="-87.5" font-family="Helvetica,sans-Serif" font-size="10.00">Exporter</text>
</a>
</g>
</g>
<!-- dir_5fc71d98cd4a3b41b18b800a49fb59b3 -->
<g id="node4" class="node">
<title>dir_5fc71d98cd4a3b41b18b800a49fb59b3</title>
<g id="a_node4"><a xlink:href="dir_5fc71d98cd4a3b41b18b800a49fb59b3.html" target="_top" xlink:title="Misc">
<polygon fill="white" stroke="black" points="294,-108 240,-108 240,-72 294,-72 294,-108"/>
<text text-anchor="middle" x="267" y="-87.5" font-family="Helvetica,sans-Serif" font-size="10.00">Misc</text>
</a>
</g>
</g>
<!-- dir_5fc71d98cd4a3b41b18b800a49fb59b3&#45;&gt;dir_d44c64559bbebec7f509842c48db8b23 -->
<g id="edge3" class="edge">
<title>dir_5fc71d98cd4a3b41b18b800a49fb59b3&#45;&gt;dir_d44c64559bbebec7f509842c48db8b23</title>
<path fill="none" stroke="black" d="M249.2,-71.7C240.4,-63.14 229.62,-52.66 220,-43.3"/>
<polygon fill="black" stroke="black" points="222.2,-40.57 212.59,-36.1 217.32,-45.58 222.2,-40.57"/>
<g id="a_edge3&#45;headlabel"><a xlink:href="dir_000019_000000.html" target="_top" xlink:title="1">
<text text-anchor="middle" x="226.76" y="-38.54" font-family="Helvetica,sans-Serif" font-size="10.00">1</text>
</a>
</g>
</g>
<!-- dir_03470445753f68d2d6b5291291f9a987 -->
<g id="node5" class="node">
<title>dir_03470445753f68d2d6b5291291f9a987</title>
<g id="a_node5"><a xlink:href="dir_03470445753f68d2d6b5291291f9a987.html" target="_top" xlink:title="Nodes">
<polygon fill="white" stroke="red" points="222,-108 168,-108 168,-72 222,-72 222,-108"/>
<text text-anchor="middle" x="195" y="-87.5" font-family="Helvetica,sans-Serif" font-size="10.00">Nodes</text>
</a>
</g>
</g>
<!-- dir_03470445753f68d2d6b5291291f9a987&#45;&gt;dir_d44c64559bbebec7f509842c48db8b23 -->
<g id="edge2" class="edge">
<title>dir_03470445753f68d2d6b5291291f9a987&#45;&gt;dir_d44c64559bbebec7f509842c48db8b23</title>
<path fill="none" stroke="black" d="M195,-71.7C195,-63.98 195,-54.71 195,-46.11"/>
<polygon fill="black" stroke="black" points="198.5,-46.1 195,-36.1 191.5,-46.1 198.5,-46.1"/>
<g id="a_edge2&#45;headlabel"><a xlink:href="dir_000020_000000.html" target="_top" xlink:title="3">
<text text-anchor="middle" x="201.34" y="-47.2" font-family="Helvetica,sans-Serif" font-size="10.00">3</text>
</a>
</g>
</g>
<!-- dir_07a313ddd558a354eb1699af86106592 -->
<g id="node6" class="node">
<title>dir_07a313ddd558a354eb1699af86106592</title>
<g id="a_node6"><a xlink:href="dir_07a313ddd558a354eb1699af86106592.html" target="_top" xlink:title="Shape">
<polygon fill="white" stroke="red" points="150,-108 96,-108 96,-72 150,-72 150,-108"/>
<text text-anchor="middle" x="123" y="-87.5" font-family="Helvetica,sans-Serif" font-size="10.00">Shape</text>
</a>
</g>
</g>
<!-- dir_07a313ddd558a354eb1699af86106592&#45;&gt;dir_d44c64559bbebec7f509842c48db8b23 -->
<g id="edge1" class="edge">
<title>dir_07a313ddd558a354eb1699af86106592&#45;&gt;dir_d44c64559bbebec7f509842c48db8b23</title>
<path fill="none" stroke="black" d="M140.8,-71.7C149.6,-63.14 160.38,-52.66 170,-43.3"/>
<polygon fill="black" stroke="black" points="172.68,-45.58 177.41,-36.1 167.8,-40.57 172.68,-45.58"/>
<g id="a_edge1&#45;headlabel"><a xlink:href="dir_000023_000000.html" target="_top" xlink:title="17">
<text text-anchor="middle" x="172.08" y="-47.63" font-family="Helvetica,sans-Serif" font-size="10.00">17</text>
</a>
</g>
</g>
<!-- dir_27b2837e0f0f8422299d94eeaecaad55 -->
<g id="node7" class="node">
<title>dir_27b2837e0f0f8422299d94eeaecaad55</title>
<g id="a_node7"><a xlink:href="dir_27b2837e0f0f8422299d94eeaecaad55.html" target="_top" xlink:title="Voronoi">
<polygon fill="white" stroke="red" points="78,-108 24,-108 24,-72 78,-72 78,-108"/>
<text text-anchor="middle" x="51" y="-87.5" font-family="Helvetica,sans-Serif" font-size="10.00">Voronoi</text>
</a>
</g>
</g>
<!-- dir_27b2837e0f0f8422299d94eeaecaad55&#45;&gt;dir_d44c64559bbebec7f509842c48db8b23 -->
<g id="edge5" class="edge">
<title>dir_27b2837e0f0f8422299d94eeaecaad55&#45;&gt;dir_d44c64559bbebec7f509842c48db8b23</title>
<path fill="none" stroke="black" d="M66.69,-72C72.62,-66.31 79.71,-60.33 87,-56 109.07,-42.89 136.44,-33.58 158.11,-27.57"/>
<polygon fill="black" stroke="black" points="159.16,-30.92 167.93,-24.97 157.37,-24.15 159.16,-30.92"/>
<g id="a_edge5&#45;headlabel"><a xlink:href="dir_000025_000000.html" target="_top" xlink:title="3">
<text text-anchor="middle" x="156.42" y="-32.08" font-family="Helvetica,sans-Serif" font-size="10.00">3</text>
</a>
</g>
</g>
</g>
</svg>
