<?xml version="1.0" encoding="UTF-8" standalone="no"?>
<!DOCTYPE svg PUBLIC "-//W3C//DTD SVG 1.1//EN"
 "http://www.w3.org/Graphics/SVG/1.1/DTD/svg11.dtd">
<!-- Generated by graphviz version 2.43.0 (0)
 -->
<!-- Title: include/VoronoiMeshMaker/DataExporter Pages: 1 -->
<svg width="166pt" height="167pt"
 viewBox="0.00 0.00 166.00 167.00" xmlns="http://www.w3.org/2000/svg" xmlns:xlink="http://www.w3.org/1999/xlink">
<g id="graph0" class="graph" transform="scale(1 1) rotate(0) translate(4 163)">
<title>include/VoronoiMeshMaker/DataExporter</title>
<g id="clust1" class="cluster">
<title>clusterdir_526250a22093f67c99f77a4619959fe1</title>
<g id="a_clust1"><a xlink:href="dir_526250a22093f67c99f77a4619959fe1.html" target="_top" xlink:title="VoronoiMeshMaker">
<polygon fill="#ddddee" stroke="black" points="8,-8 8,-151 150,-151 150,-8 8,-8"/>
<text text-anchor="middle" x="79" y="-139" font-family="Helvetica,sans-Serif" font-size="10.00">VoronoiMeshMaker</text>
</a>
</g>
</g>
<!-- dir_76374d326cecb782421178f43b89279d -->
<g id="node1" class="node">
<title>dir_76374d326cecb782421178f43b89279d</title>
<g id="a_node1"><a xlink:href="dir_76374d326cecb782421178f43b89279d.html" target="_top" xlink:title="Misc">
<polygon fill="none" stroke="black" points="70,-52 16,-52 16,-16 70,-16 70,-52"/>
<text text-anchor="middle" x="43" y="-31.5" font-family="Helvetica,sans-Serif" font-size="10.00">Misc</text>
</a>
</g>
</g>
<!-- dir_ba79d34ef70f4b82a10cc41d3707f362 -->
<g id="node2" class="node">
<title>dir_ba79d34ef70f4b82a10cc41d3707f362</title>
<g id="a_node2"><a xlink:href="dir_ba79d34ef70f4b82a10cc41d3707f362.html" target="_top" xlink:title="Shape">
<polygon fill="none" stroke="red" points="142,-52 88,-52 88,-16 142,-16 142,-52"/>
<text text-anchor="middle" x="115" y="-31.5" font-family="Helvetica,sans-Serif" font-size="10.00">Shape</text>
</a>
</g>
</g>
<!-- dir_9b368dee94be5cd2fd9b096e3dbeba61 -->
<g id="node3" class="node">
<title>dir_9b368dee94be5cd2fd9b096e3dbeba61</title>
<g id="a_node3"><a xlink:href="dir_9b368dee94be5cd2fd9b096e3dbeba61.html" target="_top" xlink:title="DataExporter">
<polygon fill="#eeeeff" stroke="black" points="119.5,-124 38.5,-124 38.5,-88 119.5,-88 119.5,-124"/>
<text text-anchor="middle" x="79" y="-103.5" font-family="Helvetica,sans-Serif" font-size="10.00">DataExporter</text>
</a>
</g>
</g>
<!-- dir_9b368dee94be5cd2fd9b096e3dbeba61&#45;&gt;dir_76374d326cecb782421178f43b89279d -->
<g id="edge1" class="edge">
<title>dir_9b368dee94be5cd2fd9b096e3dbeba61&#45;&gt;dir_76374d326cecb782421178f43b89279d</title>
<path fill="none" stroke="black" d="M70.1,-87.7C66,-79.73 61.05,-70.1 56.51,-61.26"/>
<polygon fill="black" stroke="black" points="59.48,-59.4 51.8,-52.1 53.26,-62.6 59.48,-59.4"/>
<g id="a_edge1&#45;headlabel"><a xlink:href="dir_000002_000004.html" target="_top" xlink:title="1">
<text text-anchor="middle" x="63.65" y="-58.79" font-family="Helvetica,sans-Serif" font-size="10.00">1</text>
</a>
</g>
</g>
<!-- dir_9b368dee94be5cd2fd9b096e3dbeba61&#45;&gt;dir_ba79d34ef70f4b82a10cc41d3707f362 -->
<g id="edge2" class="edge">
<title>dir_9b368dee94be5cd2fd9b096e3dbeba61&#45;&gt;dir_ba79d34ef70f4b82a10cc41d3707f362</title>
<path fill="none" stroke="black" d="M87.9,-87.7C92,-79.73 96.95,-70.1 101.49,-61.26"/>
<polygon fill="black" stroke="black" points="104.74,-62.6 106.2,-52.1 98.52,-59.4 104.74,-62.6"/>
<g id="a_edge2&#45;headlabel"><a xlink:href="dir_000002_000006.html" target="_top" xlink:title="4">
<text text-anchor="middle" x="105.62" y="-64.59" font-family="Helvetica,sans-Serif" font-size="10.00">4</text>
</a>
</g>
</g>
</g>
</svg>
