<?xml version="1.0" encoding="UTF-8" standalone="no"?>
<!DOCTYPE svg PUBLIC "-//W3C//DTD SVG 1.1//EN"
 "http://www.w3.org/Graphics/SVG/1.1/DTD/svg11.dtd">
<!-- Generated by graphviz version 2.43.0 (0)
 -->
<!-- Title: src/VoronoiMeshMaker/Nodes Pages: 1 -->
<svg width="269pt" height="159pt"
 viewBox="0.00 0.00 269.00 159.00" xmlns="http://www.w3.org/2000/svg" xmlns:xlink="http://www.w3.org/1999/xlink">
<g id="graph0" class="graph" transform="scale(1 1) rotate(0) translate(4 155)">
<title>src/VoronoiMeshMaker/Nodes</title>
<g id="clust1" class="cluster">
<title>clusterdir_a6e3c51932979899eef3b54640c3c0e4</title>
<g id="a_clust1"><a xlink:href="dir_a6e3c51932979899eef3b54640c3c0e4.html" target="_top" xlink:title="VoronoiMeshMaker">
<polygon fill="#ddddee" stroke="black" points="8,-56 8,-143 253,-143 253,-56 8,-56"/>
<text text-anchor="middle" x="130.5" y="-131" font-family="Helvetica,sans-Serif" font-size="10.00">VoronoiMeshMaker</text>
</a>
</g>
</g>
<g id="clust2" class="cluster">
<title>clusterdir_03470445753f68d2d6b5291291f9a987</title>
<g id="a_clust2"><a xlink:href="dir_03470445753f68d2d6b5291291f9a987.html" target="_top">
<polygon fill="#eeeeff" stroke="black" points="16,-64 16,-116 245,-116 245,-64 16,-64"/>
</a>
</g>
</g>
<!-- dir_03470445753f68d2d6b5291291f9a987 -->
<g id="node1" class="node">
<title>dir_03470445753f68d2d6b5291291f9a987</title>
<text text-anchor="middle" x="210" y="-87.5" font-family="Helvetica,sans-Serif" font-size="10.00">Nodes</text>
</g>
<!-- dir_d44c64559bbebec7f509842c48db8b23 -->
<g id="node4" class="node">
<title>dir_d44c64559bbebec7f509842c48db8b23</title>
<g id="a_node4"><a xlink:href="dir_d44c64559bbebec7f509842c48db8b23.html" target="_top" xlink:title="include">
<polygon fill="none" stroke="red" points="161,-36 107,-36 107,0 161,0 161,-36"/>
<text text-anchor="middle" x="134" y="-15.5" font-family="Helvetica,sans-Serif" font-size="10.00">include</text>
</a>
</g>
</g>
<!-- dir_03470445753f68d2d6b5291291f9a987&#45;&gt;dir_d44c64559bbebec7f509842c48db8b23 -->
<g id="edge2" class="edge">
<title>dir_03470445753f68d2d6b5291291f9a987&#45;&gt;dir_d44c64559bbebec7f509842c48db8b23</title>
<path fill="none" stroke="black" d="M191.21,-71.7C181.83,-63.05 170.32,-52.45 160.09,-43.03"/>
<polygon fill="black" stroke="black" points="162.3,-40.3 152.57,-36.1 157.55,-45.45 162.3,-40.3"/>
<g id="a_edge2&#45;headlabel"><a xlink:href="dir_000020_000000.html" target="_top" xlink:title="3">
<text text-anchor="middle" x="166.86" y="-38.15" font-family="Helvetica,sans-Serif" font-size="10.00">3</text>
</a>
</g>
</g>
<!-- dir_340f23cc3089d901733193bb44ffe963 -->
<g id="node2" class="node">
<title>dir_340f23cc3089d901733193bb44ffe963</title>
<g id="a_node2"><a xlink:href="dir_340f23cc3089d901733193bb44ffe963.html" target="_top" xlink:title="Nodes2D">
<polygon fill="white" stroke="black" points="164.5,-108 103.5,-108 103.5,-72 164.5,-72 164.5,-108"/>
<text text-anchor="middle" x="134" y="-87.5" font-family="Helvetica,sans-Serif" font-size="10.00">Nodes2D</text>
</a>
</g>
</g>
<!-- dir_340f23cc3089d901733193bb44ffe963&#45;&gt;dir_d44c64559bbebec7f509842c48db8b23 -->
<g id="edge3" class="edge">
<title>dir_340f23cc3089d901733193bb44ffe963&#45;&gt;dir_d44c64559bbebec7f509842c48db8b23</title>
<path fill="none" stroke="black" d="M134,-71.7C134,-63.98 134,-54.71 134,-46.11"/>
<polygon fill="black" stroke="black" points="137.5,-46.1 134,-36.1 130.5,-46.1 137.5,-46.1"/>
<g id="a_edge3&#45;headlabel"><a xlink:href="dir_000021_000000.html" target="_top" xlink:title="1">
<text text-anchor="middle" x="140.34" y="-47.2" font-family="Helvetica,sans-Serif" font-size="10.00">1</text>
</a>
</g>
</g>
<!-- dir_4f7a3fbb5fb05cc8ebd80f5a0ce7d3dc -->
<g id="node3" class="node">
<title>dir_4f7a3fbb5fb05cc8ebd80f5a0ce7d3dc</title>
<g id="a_node3"><a xlink:href="dir_4f7a3fbb5fb05cc8ebd80f5a0ce7d3dc.html" target="_top" xlink:title="Nodes3D">
<polygon fill="white" stroke="black" points="85.5,-108 24.5,-108 24.5,-72 85.5,-72 85.5,-108"/>
<text text-anchor="middle" x="55" y="-87.5" font-family="Helvetica,sans-Serif" font-size="10.00">Nodes3D</text>
</a>
</g>
</g>
<!-- dir_4f7a3fbb5fb05cc8ebd80f5a0ce7d3dc&#45;&gt;dir_d44c64559bbebec7f509842c48db8b23 -->
<g id="edge1" class="edge">
<title>dir_4f7a3fbb5fb05cc8ebd80f5a0ce7d3dc&#45;&gt;dir_d44c64559bbebec7f509842c48db8b23</title>
<path fill="none" stroke="black" d="M74.53,-71.7C84.38,-62.97 96.49,-52.24 107.2,-42.75"/>
<polygon fill="black" stroke="black" points="109.53,-45.36 114.7,-36.1 104.89,-40.12 109.53,-45.36"/>
<g id="a_edge1&#45;headlabel"><a xlink:href="dir_000022_000000.html" target="_top" xlink:title="1">
<text text-anchor="middle" x="108.73" y="-47.36" font-family="Helvetica,sans-Serif" font-size="10.00">1</text>
</a>
</g>
</g>
</g>
</svg>
