<?xml version="1.0" encoding="UTF-8" standalone="no"?>
<!DOCTYPE svg PUBLIC "-//W3C//DTD SVG 1.1//EN"
 "http://www.w3.org/Graphics/SVG/1.1/DTD/svg11.dtd">
<!-- Generated by graphviz version 2.43.0 (0)
 -->
<!-- Title: src/VoronoiMeshMaker/Shape/Shape2D/Ellipse.cpp Pages: 1 -->
<svg width="1269pt" height="519pt"
 viewBox="0.00 0.00 1269.00 519.00" xmlns="http://www.w3.org/2000/svg" xmlns:xlink="http://www.w3.org/1999/xlink">
<g id="graph0" class="graph" transform="scale(1 1) rotate(0) translate(4 515)">
<title>src/VoronoiMeshMaker/Shape/Shape2D/Ellipse.cpp</title>
<!-- Node1 -->
<g id="node1" class="node">
<title>Node1</title>
<g id="a_node1"><a xlink:title=" ">
<polygon fill="#bfbfbf" stroke="black" points="339,-480.5 339,-510.5 491,-510.5 491,-480.5 339,-480.5"/>
<text text-anchor="start" x="347" y="-498.5" font-family="Helvetica,sans-Serif" font-size="10.00">src/VoronoiMeshMaker</text>
<text text-anchor="middle" x="415" y="-487.5" font-family="Helvetica,sans-Serif" font-size="10.00">/Shape/Shape2D/Ellipse.cpp</text>
</a>
</g>
</g>
<!-- Node2 -->
<g id="node2" class="node">
<title>Node2</title>
<g id="a_node2"><a xlink:title=" ">
<polygon fill="none" stroke="#bfbfbf" points="0,-218 0,-237 60,-237 60,-218 0,-218"/>
<text text-anchor="middle" x="30" y="-225" font-family="Helvetica,sans-Serif" font-size="10.00">iostream</text>
</a>
</g>
</g>
<!-- Node1&#45;&gt;Node2 -->
<g id="edge1" class="edge">
<title>Node1&#45;&gt;Node2</title>
<path fill="none" stroke="midnightblue" d="M338.94,-489.23C295.2,-483.28 240.81,-470.66 199,-444 118.07,-392.39 59.68,-288.15 38.61,-246.39"/>
<polygon fill="midnightblue" stroke="midnightblue" points="41.63,-244.61 34.07,-237.19 35.36,-247.71 41.63,-244.61"/>
</g>
<!-- Node3 -->
<g id="node3" class="node">
<title>Node3</title>
<g id="a_node3"><a xlink:title=" ">
<polygon fill="none" stroke="#bfbfbf" points="668.5,-151 668.5,-170 733.5,-170 733.5,-151 668.5,-151"/>
<text text-anchor="middle" x="701" y="-158" font-family="Helvetica,sans-Serif" font-size="10.00">execution</text>
</a>
</g>
</g>
<!-- Node1&#45;&gt;Node3 -->
<g id="edge2" class="edge">
<title>Node1&#45;&gt;Node3</title>
<path fill="none" stroke="midnightblue" d="M491.27,-491.18C575.99,-482.93 701,-455.06 701,-362.5 701,-362.5 701,-362.5 701,-293.5 701,-253.16 701,-205.88 701,-180.28"/>
<polygon fill="midnightblue" stroke="midnightblue" points="704.5,-180.15 701,-170.15 697.5,-180.15 704.5,-180.15"/>
</g>
<!-- Node4 -->
<g id="node4" class="node">
<title>Node4</title>
<g id="a_node4"><a xlink:href="Ellipse_8h.html" target="_top" xlink:title=" ">
<polygon fill="none" stroke="black" points="208.5,-413.5 208.5,-443.5 351.5,-443.5 351.5,-413.5 208.5,-413.5"/>
<text text-anchor="start" x="216.5" y="-431.5" font-family="Helvetica,sans-Serif" font-size="10.00">VoronoiMeshMaker/Shape</text>
<text text-anchor="middle" x="280" y="-420.5" font-family="Helvetica,sans-Serif" font-size="10.00">/Shape2D/Ellipse.h</text>
</a>
</g>
</g>
<!-- Node1&#45;&gt;Node4 -->
<g id="edge3" class="edge">
<title>Node1&#45;&gt;Node4</title>
<path fill="none" stroke="midnightblue" d="M385.71,-480.4C365.98,-470.9 339.77,-458.28 318.38,-447.98"/>
<polygon fill="midnightblue" stroke="midnightblue" points="319.76,-444.76 309.24,-443.58 316.73,-451.07 319.76,-444.76"/>
</g>
<!-- Node19 -->
<g id="node19" class="node">
<title>Node19</title>
<g id="a_node19"><a xlink:href="MakerException_8h.html" target="_top" xlink:title=" ">
<polygon fill="none" stroke="black" points="819.5,-413.5 819.5,-443.5 956.5,-443.5 956.5,-413.5 819.5,-413.5"/>
<text text-anchor="start" x="827.5" y="-431.5" font-family="Helvetica,sans-Serif" font-size="10.00">VoronoiMeshMaker/Error</text>
<text text-anchor="middle" x="888" y="-420.5" font-family="Helvetica,sans-Serif" font-size="10.00">/MakerException.h</text>
</a>
</g>
</g>
<!-- Node1&#45;&gt;Node19 -->
<g id="edge22" class="edge">
<title>Node1&#45;&gt;Node19</title>
<path fill="none" stroke="midnightblue" d="M491.26,-484.02C578.57,-472.02 720.88,-452.47 809.23,-440.32"/>
<polygon fill="midnightblue" stroke="midnightblue" points="809.77,-443.78 819.2,-438.96 808.81,-436.85 809.77,-443.78"/>
</g>
<!-- Node28 -->
<g id="node28" class="node">
<title>Node28</title>
<g id="a_node28"><a xlink:href="ShapeFactory_8h.html" target="_top" xlink:title=" ">
<polygon fill="none" stroke="black" points="343.5,-346.5 343.5,-376.5 486.5,-376.5 486.5,-346.5 343.5,-346.5"/>
<text text-anchor="start" x="351.5" y="-364.5" font-family="Helvetica,sans-Serif" font-size="10.00">VoronoiMeshMaker/Shape</text>
<text text-anchor="middle" x="415" y="-353.5" font-family="Helvetica,sans-Serif" font-size="10.00">/ShapeFactory.h</text>
</a>
</g>
</g>
<!-- Node1&#45;&gt;Node28 -->
<g id="edge33" class="edge">
<title>Node1&#45;&gt;Node28</title>
<path fill="none" stroke="midnightblue" d="M415,-480.37C415,-458.04 415,-414.31 415,-386.85"/>
<polygon fill="midnightblue" stroke="midnightblue" points="418.5,-386.52 415,-376.52 411.5,-386.52 418.5,-386.52"/>
</g>
<!-- Node5 -->
<g id="node5" class="node">
<title>Node5</title>
<g id="a_node5"><a xlink:href="Shape2D_8h.html" target="_top" xlink:title="Defines the Shape2D class, which represents 2D geometric shapes.">
<polygon fill="none" stroke="black" points="173.5,-346.5 173.5,-376.5 316.5,-376.5 316.5,-346.5 173.5,-346.5"/>
<text text-anchor="start" x="181.5" y="-364.5" font-family="Helvetica,sans-Serif" font-size="10.00">VoronoiMeshMaker/Shape</text>
<text text-anchor="middle" x="245" y="-353.5" font-family="Helvetica,sans-Serif" font-size="10.00">/Shape2D/Shape2D.h</text>
</a>
</g>
</g>
<!-- Node4&#45;&gt;Node5 -->
<g id="edge4" class="edge">
<title>Node4&#45;&gt;Node5</title>
<path fill="none" stroke="midnightblue" d="M272.41,-413.4C268,-405.22 262.35,-394.73 257.33,-385.39"/>
<polygon fill="midnightblue" stroke="midnightblue" points="260.4,-383.72 252.58,-376.58 254.24,-387.04 260.4,-383.72"/>
</g>
<!-- Node6 -->
<g id="node6" class="node">
<title>Node6</title>
<g id="a_node6"><a xlink:href="Shape_8h.html" target="_top" xlink:title="Defines the Shape class, which serves as the abstract base class for all shapes. This class provides ...">
<polygon fill="none" stroke="black" points="123.5,-279.5 123.5,-309.5 266.5,-309.5 266.5,-279.5 123.5,-279.5"/>
<text text-anchor="start" x="131.5" y="-297.5" font-family="Helvetica,sans-Serif" font-size="10.00">VoronoiMeshMaker/Shape</text>
<text text-anchor="middle" x="195" y="-286.5" font-family="Helvetica,sans-Serif" font-size="10.00">/Shape.h</text>
</a>
</g>
</g>
<!-- Node5&#45;&gt;Node6 -->
<g id="edge5" class="edge">
<title>Node5&#45;&gt;Node6</title>
<path fill="none" stroke="midnightblue" d="M234.15,-346.4C227.66,-337.96 219.28,-327.07 211.94,-317.52"/>
<polygon fill="midnightblue" stroke="midnightblue" points="214.7,-315.37 205.83,-309.58 209.15,-319.64 214.7,-315.37"/>
</g>
<!-- Node6&#45;&gt;Node2 -->
<g id="edge6" class="edge">
<title>Node6&#45;&gt;Node2</title>
<path fill="none" stroke="midnightblue" d="M159.2,-279.4C129.99,-267.89 89.14,-251.8 61.24,-240.81"/>
<polygon fill="midnightblue" stroke="midnightblue" points="62.18,-237.42 51.59,-237.01 59.62,-243.93 62.18,-237.42"/>
</g>
<!-- Node7 -->
<g id="node7" class="node">
<title>Node7</title>
<g id="a_node7"><a xlink:title=" ">
<polygon fill="none" stroke="#bfbfbf" points="523,-11.5 523,-30.5 581,-30.5 581,-11.5 523,-11.5"/>
<text text-anchor="middle" x="552" y="-18.5" font-family="Helvetica,sans-Serif" font-size="10.00">memory</text>
</a>
</g>
</g>
<!-- Node6&#45;&gt;Node7 -->
<g id="edge7" class="edge">
<title>Node6&#45;&gt;Node7</title>
<path fill="none" stroke="midnightblue" d="M175.27,-279.31C139.78,-252.06 71.97,-191.02 107,-145 156.88,-79.46 413.46,-39.88 512.72,-26.82"/>
<polygon fill="midnightblue" stroke="midnightblue" points="513.46,-30.25 522.93,-25.5 512.56,-23.31 513.46,-30.25"/>
</g>
<!-- Node8 -->
<g id="node8" class="node">
<title>Node8</title>
<g id="a_node8"><a xlink:title=" ">
<polygon fill="none" stroke="#bfbfbf" points="116,-151 116,-170 274,-170 274,-151 116,-151"/>
<text text-anchor="middle" x="195" y="-158" font-family="Helvetica,sans-Serif" font-size="10.00">VoronoiMeshMaker/Misc/ID.h</text>
</a>
</g>
</g>
<!-- Node6&#45;&gt;Node8 -->
<g id="edge8" class="edge">
<title>Node6&#45;&gt;Node8</title>
<path fill="none" stroke="midnightblue" d="M195,-279.37C195,-255.5 195,-207.18 195,-180.41"/>
<polygon fill="midnightblue" stroke="midnightblue" points="198.5,-180.1 195,-170.1 191.5,-180.1 198.5,-180.1"/>
</g>
<!-- Node9 -->
<g id="node9" class="node">
<title>Node9</title>
<g id="a_node9"><a xlink:href="GeometricDataHolder_8h.html" target="_top" xlink:title="Defines the GeometricDataHolder class and the DataTraits for handling multiple data types....">
<polygon fill="none" stroke="black" points="362,-212.5 362,-242.5 532,-242.5 532,-212.5 362,-212.5"/>
<text text-anchor="start" x="370" y="-230.5" font-family="Helvetica,sans-Serif" font-size="10.00">VoronoiMeshMaker/Parameters</text>
<text text-anchor="middle" x="447" y="-219.5" font-family="Helvetica,sans-Serif" font-size="10.00">/GeometricDataHolder.h</text>
</a>
</g>
</g>
<!-- Node6&#45;&gt;Node9 -->
<g id="edge9" class="edge">
<title>Node6&#45;&gt;Node9</title>
<path fill="none" stroke="midnightblue" d="M249.37,-279.48C288.4,-269.41 341.16,-255.8 382.35,-245.17"/>
<polygon fill="midnightblue" stroke="midnightblue" points="383.48,-248.5 392.29,-242.61 381.74,-241.72 383.48,-248.5"/>
</g>
<!-- Node9&#45;&gt;Node3 -->
<g id="edge10" class="edge">
<title>Node9&#45;&gt;Node3</title>
<path fill="none" stroke="midnightblue" d="M513.33,-212.46C555.35,-203.14 610.68,-190.06 659,-176 661.94,-175.14 664.98,-174.2 668.02,-173.23"/>
<polygon fill="midnightblue" stroke="midnightblue" points="669.2,-176.52 677.58,-170.04 666.99,-169.88 669.2,-176.52"/>
</g>
<!-- Node9&#45;&gt;Node8 -->
<g id="edge11" class="edge">
<title>Node9&#45;&gt;Node8</title>
<path fill="none" stroke="midnightblue" d="M392.63,-212.48C346.28,-200.52 280.57,-183.57 237.87,-172.56"/>
<polygon fill="midnightblue" stroke="midnightblue" points="238.62,-169.14 228.06,-170.03 236.87,-175.92 238.62,-169.14"/>
</g>
<!-- Node10 -->
<g id="node10" class="node">
<title>Node10</title>
<g id="a_node10"><a xlink:href="GeometricDataTraits_8h.html" target="_top" xlink:title="Defines the GeometricDataTraits structure used for type identification and operations on various data...">
<polygon fill="none" stroke="black" points="480,-145.5 480,-175.5 650,-175.5 650,-145.5 480,-145.5"/>
<text text-anchor="start" x="488" y="-163.5" font-family="Helvetica,sans-Serif" font-size="10.00">VoronoiMeshMaker/Parameters</text>
<text text-anchor="middle" x="565" y="-152.5" font-family="Helvetica,sans-Serif" font-size="10.00">/GeometricDataTraits.h</text>
</a>
</g>
</g>
<!-- Node9&#45;&gt;Node10 -->
<g id="edge12" class="edge">
<title>Node9&#45;&gt;Node10</title>
<path fill="none" stroke="midnightblue" d="M472.6,-212.4C489.54,-203.07 511.94,-190.73 530.45,-180.53"/>
<polygon fill="midnightblue" stroke="midnightblue" points="532.38,-183.47 539.45,-175.58 529,-177.34 532.38,-183.47"/>
</g>
<!-- Node18 -->
<g id="node18" class="node">
<title>Node18</title>
<g id="a_node18"><a xlink:href="GeometricDataHolder_8tpp.html" target="_top" xlink:title=" ">
<polygon fill="none" stroke="black" points="292,-145.5 292,-175.5 462,-175.5 462,-145.5 292,-145.5"/>
<text text-anchor="start" x="300" y="-163.5" font-family="Helvetica,sans-Serif" font-size="10.00">VoronoiMeshMaker/Parameters</text>
<text text-anchor="middle" x="377" y="-152.5" font-family="Helvetica,sans-Serif" font-size="10.00">/GeometricDataHolder.tpp</text>
</a>
</g>
</g>
<!-- Node9&#45;&gt;Node18 -->
<g id="edge21" class="edge">
<title>Node9&#45;&gt;Node18</title>
<path fill="none" stroke="midnightblue" d="M431.81,-212.4C422.45,-203.71 410.28,-192.4 399.79,-182.66"/>
<polygon fill="midnightblue" stroke="midnightblue" points="401.87,-179.82 392.16,-175.58 397.11,-184.95 401.87,-179.82"/>
</g>
<!-- Node11 -->
<g id="node11" class="node">
<title>Node11</title>
<g id="a_node11"><a xlink:href="type_8h.html" target="_top" xlink:title="Defines common geometric and numeric types used in the VoronoiMeshMaker library.">
<polygon fill="none" stroke="black" points="796,-78.5 796,-108.5 932,-108.5 932,-78.5 796,-78.5"/>
<text text-anchor="start" x="804" y="-96.5" font-family="Helvetica,sans-Serif" font-size="10.00">VoronoiMeshMaker/Misc</text>
<text text-anchor="middle" x="864" y="-85.5" font-family="Helvetica,sans-Serif" font-size="10.00">/type.h</text>
</a>
</g>
</g>
<!-- Node10&#45;&gt;Node11 -->
<g id="edge13" class="edge">
<title>Node10&#45;&gt;Node11</title>
<path fill="none" stroke="midnightblue" d="M629.51,-145.48C676.49,-135.26 740.23,-121.41 789.4,-110.72"/>
<polygon fill="midnightblue" stroke="midnightblue" points="790.32,-114.1 799.35,-108.55 788.83,-107.26 790.32,-114.1"/>
</g>
<!-- Node11&#45;&gt;Node7 -->
<g id="edge15" class="edge">
<title>Node11&#45;&gt;Node7</title>
<path fill="none" stroke="midnightblue" d="M795.86,-80.96C721.41,-68.18 610.13,-48.52 591,-42 585.82,-40.24 580.47,-37.88 575.46,-35.42"/>
<polygon fill="midnightblue" stroke="midnightblue" points="576.85,-32.19 566.37,-30.65 573.6,-38.39 576.85,-32.19"/>
</g>
<!-- Node12 -->
<g id="node12" class="node">
<title>Node12</title>
<g id="a_node12"><a xlink:title=" ">
<polygon fill="none" stroke="#bfbfbf" points="1228,-11.5 1228,-30.5 1260,-30.5 1260,-11.5 1228,-11.5"/>
<text text-anchor="middle" x="1244" y="-18.5" font-family="Helvetica,sans-Serif" font-size="10.00">list</text>
</a>
</g>
</g>
<!-- Node11&#45;&gt;Node12 -->
<g id="edge14" class="edge">
<title>Node11&#45;&gt;Node12</title>
<path fill="none" stroke="midnightblue" d="M932.36,-87.09C1020.62,-79.37 1168.86,-63.68 1219,-42 1221.97,-40.72 1224.87,-38.99 1227.6,-37.08"/>
<polygon fill="midnightblue" stroke="midnightblue" points="1229.92,-39.7 1235.51,-30.7 1225.53,-34.25 1229.92,-39.7"/>
</g>
<!-- Node13 -->
<g id="node13" class="node">
<title>Node13</title>
<g id="a_node13"><a xlink:title=" ">
<polygon fill="none" stroke="#bfbfbf" points="599.5,-11.5 599.5,-30.5 646.5,-30.5 646.5,-11.5 599.5,-11.5"/>
<text text-anchor="middle" x="623" y="-18.5" font-family="Helvetica,sans-Serif" font-size="10.00">vector</text>
</a>
</g>
</g>
<!-- Node11&#45;&gt;Node13 -->
<g id="edge16" class="edge">
<title>Node11&#45;&gt;Node13</title>
<path fill="none" stroke="midnightblue" d="M795.84,-81.42C754.41,-73.36 701,-60.58 656,-42 651.89,-40.3 647.69,-38.14 643.73,-35.87"/>
<polygon fill="midnightblue" stroke="midnightblue" points="645.41,-32.8 635.06,-30.54 641.75,-38.76 645.41,-32.8"/>
</g>
<!-- Node14 -->
<g id="node14" class="node">
<title>Node14</title>
<g id="a_node14"><a xlink:title=" ">
<polygon fill="none" stroke="#bfbfbf" points="664.5,-0.5 664.5,-41.5 793.5,-41.5 793.5,-0.5 664.5,-0.5"/>
<text text-anchor="start" x="672.5" y="-29.5" font-family="Helvetica,sans-Serif" font-size="10.00">CGAL/Exact_predicates</text>
<text text-anchor="start" x="672.5" y="-18.5" font-family="Helvetica,sans-Serif" font-size="10.00">_inexact_constructions</text>
<text text-anchor="middle" x="729" y="-7.5" font-family="Helvetica,sans-Serif" font-size="10.00">_kernel.h</text>
</a>
</g>
</g>
<!-- Node11&#45;&gt;Node14 -->
<g id="edge17" class="edge">
<title>Node11&#45;&gt;Node14</title>
<path fill="none" stroke="midnightblue" d="M837.01,-78.4C819.38,-69.2 795.9,-56.94 775.34,-46.2"/>
<polygon fill="midnightblue" stroke="midnightblue" points="776.91,-43.07 766.43,-41.55 773.67,-49.28 776.91,-43.07"/>
</g>
<!-- Node15 -->
<g id="node15" class="node">
<title>Node15</title>
<g id="a_node15"><a xlink:title=" ">
<polygon fill="none" stroke="#bfbfbf" points="811.5,-11.5 811.5,-30.5 916.5,-30.5 916.5,-11.5 811.5,-11.5"/>
<text text-anchor="middle" x="864" y="-18.5" font-family="Helvetica,sans-Serif" font-size="10.00">CGAL/Polygon_2.h</text>
</a>
</g>
</g>
<!-- Node11&#45;&gt;Node15 -->
<g id="edge18" class="edge">
<title>Node11&#45;&gt;Node15</title>
<path fill="none" stroke="midnightblue" d="M864,-78.23C864,-67.5 864,-52.69 864,-40.96"/>
<polygon fill="midnightblue" stroke="midnightblue" points="867.5,-40.89 864,-30.89 860.5,-40.89 867.5,-40.89"/>
</g>
<!-- Node16 -->
<g id="node16" class="node">
<title>Node16</title>
<g id="a_node16"><a xlink:title=" ">
<polygon fill="none" stroke="#bfbfbf" points="934.5,-11.5 934.5,-30.5 1055.5,-30.5 1055.5,-11.5 934.5,-11.5"/>
<text text-anchor="middle" x="995" y="-18.5" font-family="Helvetica,sans-Serif" font-size="10.00">CGAL/Polyhedron_3.h</text>
</a>
</g>
</g>
<!-- Node11&#45;&gt;Node16 -->
<g id="edge19" class="edge">
<title>Node11&#45;&gt;Node16</title>
<path fill="none" stroke="midnightblue" d="M890.19,-78.4C913.45,-65.89 947.2,-47.72 970.07,-35.42"/>
<polygon fill="midnightblue" stroke="midnightblue" points="972,-38.35 979.14,-30.53 968.68,-32.19 972,-38.35"/>
</g>
<!-- Node17 -->
<g id="node17" class="node">
<title>Node17</title>
<g id="a_node17"><a xlink:href="namespace_8h.html" target="_top" xlink:title=" ">
<polygon fill="none" stroke="black" points="1074,-6 1074,-36 1210,-36 1210,-6 1074,-6"/>
<text text-anchor="start" x="1082" y="-24" font-family="Helvetica,sans-Serif" font-size="10.00">VoronoiMeshMaker/Misc</text>
<text text-anchor="middle" x="1142" y="-13" font-family="Helvetica,sans-Serif" font-size="10.00">/namespace.h</text>
</a>
</g>
</g>
<!-- Node11&#45;&gt;Node17 -->
<g id="edge20" class="edge">
<title>Node11&#45;&gt;Node17</title>
<path fill="none" stroke="midnightblue" d="M920.35,-78.47C960.66,-68.4 1016.2,-54.47 1065,-42 1069.33,-40.89 1073.8,-39.75 1078.3,-38.59"/>
<polygon fill="midnightblue" stroke="midnightblue" points="1079.36,-41.93 1088.16,-36.04 1077.61,-35.15 1079.36,-41.93"/>
</g>
<!-- Node20 -->
<g id="node20" class="node">
<title>Node20</title>
<g id="a_node20"><a xlink:title=" ">
<polygon fill="none" stroke="#bfbfbf" points="729,-352 729,-371 773,-371 773,-352 729,-352"/>
<text text-anchor="middle" x="751" y="-359" font-family="Helvetica,sans-Serif" font-size="10.00">string</text>
</a>
</g>
</g>
<!-- Node19&#45;&gt;Node20 -->
<g id="edge23" class="edge">
<title>Node19&#45;&gt;Node20</title>
<path fill="none" stroke="midnightblue" d="M858.27,-413.4C834.45,-402.09 801.29,-386.36 778.17,-375.39"/>
<polygon fill="midnightblue" stroke="midnightblue" points="779.47,-372.13 768.93,-371.01 776.46,-378.46 779.47,-372.13"/>
</g>
<!-- Node21 -->
<g id="node21" class="node">
<title>Node21</title>
<g id="a_node21"><a xlink:title=" ">
<polygon fill="none" stroke="#bfbfbf" points="791.5,-352 791.5,-371 856.5,-371 856.5,-352 791.5,-352"/>
<text text-anchor="middle" x="824" y="-359" font-family="Helvetica,sans-Serif" font-size="10.00">exception</text>
</a>
</g>
</g>
<!-- Node19&#45;&gt;Node21 -->
<g id="edge24" class="edge">
<title>Node19&#45;&gt;Node21</title>
<path fill="none" stroke="midnightblue" d="M874.11,-413.4C864.04,-403.16 850.38,-389.3 839.87,-378.62"/>
<polygon fill="midnightblue" stroke="midnightblue" points="842.07,-375.86 832.56,-371.19 837.08,-380.78 842.07,-375.86"/>
</g>
<!-- Node22 -->
<g id="node22" class="node">
<title>Node22</title>
<g id="a_node22"><a xlink:title=" ">
<polygon fill="none" stroke="#bfbfbf" points="1049.5,-352 1049.5,-371 1106.5,-371 1106.5,-352 1049.5,-352"/>
<text text-anchor="middle" x="1078" y="-359" font-family="Helvetica,sans-Serif" font-size="10.00">ostream</text>
</a>
</g>
</g>
<!-- Node19&#45;&gt;Node22 -->
<g id="edge25" class="edge">
<title>Node19&#45;&gt;Node22</title>
<path fill="none" stroke="midnightblue" d="M932.74,-413.44C963.37,-403.65 1004.82,-390.05 1041,-377 1042.9,-376.32 1044.85,-375.6 1046.81,-374.86"/>
<polygon fill="midnightblue" stroke="midnightblue" points="1048.47,-377.98 1056.55,-371.13 1045.96,-371.44 1048.47,-377.98"/>
</g>
<!-- Node23 -->
<g id="node23" class="node">
<title>Node23</title>
<g id="a_node23"><a xlink:href="id_8h.html" target="_top" xlink:title=" ">
<polygon fill="none" stroke="black" points="874.5,-352 874.5,-371 1031.5,-371 1031.5,-352 874.5,-352"/>
<text text-anchor="middle" x="953" y="-359" font-family="Helvetica,sans-Serif" font-size="10.00">VoronoiMeshMaker/Misc/id.h</text>
</a>
</g>
</g>
<!-- Node19&#45;&gt;Node23 -->
<g id="edge26" class="edge">
<title>Node19&#45;&gt;Node23</title>
<path fill="none" stroke="midnightblue" d="M902.1,-413.4C912.44,-403.06 926.48,-389.02 937.19,-378.31"/>
<polygon fill="midnightblue" stroke="midnightblue" points="939.71,-380.74 944.31,-371.19 934.76,-375.79 939.71,-380.74"/>
</g>
<!-- Node26 -->
<g id="node26" class="node">
<title>Node26</title>
<g id="a_node26"><a xlink:href="sourceinfo_8h.html" target="_top" xlink:title="Provides information about the source of an error or event in a function.">
<polygon fill="none" stroke="black" points="1125,-346.5 1125,-376.5 1261,-376.5 1261,-346.5 1125,-346.5"/>
<text text-anchor="start" x="1133" y="-364.5" font-family="Helvetica,sans-Serif" font-size="10.00">VoronoiMeshMaker/Misc</text>
<text text-anchor="middle" x="1193" y="-353.5" font-family="Helvetica,sans-Serif" font-size="10.00">/sourceinfo.h</text>
</a>
</g>
</g>
<!-- Node19&#45;&gt;Node26 -->
<g id="edge30" class="edge">
<title>Node19&#45;&gt;Node26</title>
<path fill="none" stroke="midnightblue" d="M953.8,-413.48C1001.83,-403.24 1067.02,-389.35 1117.22,-378.65"/>
<polygon fill="midnightblue" stroke="midnightblue" points="1118,-382.06 1127.05,-376.55 1116.54,-375.22 1118,-382.06"/>
</g>
<!-- Node24 -->
<g id="node24" class="node">
<title>Node24</title>
<g id="a_node24"><a xlink:title=" ">
<polygon fill="none" stroke="#bfbfbf" points="1007.5,-285 1007.5,-304 1080.5,-304 1080.5,-285 1007.5,-285"/>
<text text-anchor="middle" x="1044" y="-292" font-family="Helvetica,sans-Serif" font-size="10.00">string_view</text>
</a>
</g>
</g>
<!-- Node23&#45;&gt;Node24 -->
<g id="edge27" class="edge">
<title>Node23&#45;&gt;Node24</title>
<path fill="none" stroke="midnightblue" d="M965.27,-351.73C980.15,-341.11 1005.43,-323.05 1023.33,-310.26"/>
<polygon fill="midnightblue" stroke="midnightblue" points="1025.82,-312.79 1031.92,-304.13 1021.75,-307.09 1025.82,-312.79"/>
</g>
<!-- Node25 -->
<g id="node25" class="node">
<title>Node25</title>
<g id="a_node25"><a xlink:href="configure_8h.html" target="_top" xlink:title="Defines common constants used across the VoronoiMeshMaker library.">
<polygon fill="none" stroke="black" points="814,-212.5 814,-242.5 950,-242.5 950,-212.5 814,-212.5"/>
<text text-anchor="start" x="822" y="-230.5" font-family="Helvetica,sans-Serif" font-size="10.00">VoronoiMeshMaker/Misc</text>
<text text-anchor="middle" x="882" y="-219.5" font-family="Helvetica,sans-Serif" font-size="10.00">/configure.h</text>
</a>
</g>
</g>
<!-- Node23&#45;&gt;Node25 -->
<g id="edge28" class="edge">
<title>Node23&#45;&gt;Node25</title>
<path fill="none" stroke="midnightblue" d="M948.34,-351.84C937.54,-331.76 910.49,-281.47 894.46,-251.67"/>
<polygon fill="midnightblue" stroke="midnightblue" points="897.5,-249.93 889.68,-242.78 891.34,-253.25 897.5,-249.93"/>
</g>
<!-- Node25&#45;&gt;Node11 -->
<g id="edge29" class="edge">
<title>Node25&#45;&gt;Node11</title>
<path fill="none" stroke="midnightblue" d="M880.07,-212.37C877.02,-189.94 871.01,-145.92 867.27,-118.49"/>
<polygon fill="midnightblue" stroke="midnightblue" points="870.73,-117.96 865.91,-108.52 863.8,-118.91 870.73,-117.96"/>
</g>
<!-- Node26&#45;&gt;Node24 -->
<g id="edge31" class="edge">
<title>Node26&#45;&gt;Node24</title>
<path fill="none" stroke="midnightblue" d="M1160.67,-346.4C1134.53,-334.99 1098.05,-319.08 1072.88,-308.1"/>
<polygon fill="midnightblue" stroke="midnightblue" points="1074.07,-304.8 1063.5,-304.01 1071.27,-311.21 1074.07,-304.8"/>
</g>
<!-- Node27 -->
<g id="node27" class="node">
<title>Node27</title>
<g id="a_node27"><a xlink:title=" ">
<polygon fill="none" stroke="#bfbfbf" points="1125,-279.5 1125,-309.5 1261,-309.5 1261,-279.5 1125,-279.5"/>
<text text-anchor="start" x="1133" y="-297.5" font-family="Helvetica,sans-Serif" font-size="10.00">VoronoiMeshMaker/Misc</text>
<text text-anchor="middle" x="1193" y="-286.5" font-family="Helvetica,sans-Serif" font-size="10.00">/Misc.h</text>
</a>
</g>
</g>
<!-- Node26&#45;&gt;Node27 -->
<g id="edge32" class="edge">
<title>Node26&#45;&gt;Node27</title>
<path fill="none" stroke="midnightblue" d="M1193,-346.4C1193,-338.64 1193,-328.81 1193,-319.86"/>
<polygon fill="midnightblue" stroke="midnightblue" points="1196.5,-319.58 1193,-309.58 1189.5,-319.58 1196.5,-319.58"/>
</g>
<!-- Node28&#45;&gt;Node6 -->
<g id="edge38" class="edge">
<title>Node28&#45;&gt;Node6</title>
<path fill="none" stroke="midnightblue" d="M367.53,-346.48C333.82,-336.51 288.37,-323.09 252.58,-312.51"/>
<polygon fill="midnightblue" stroke="midnightblue" points="253.34,-309.09 242.76,-309.61 251.36,-315.8 253.34,-309.09"/>
</g>
<!-- Node28&#45;&gt;Node7 -->
<g id="edge36" class="edge">
<title>Node28&#45;&gt;Node7</title>
<path fill="none" stroke="midnightblue" d="M476.01,-346.49C554.17,-324.87 686.3,-275.1 743,-176 749.84,-164.04 749.6,-157.1 743,-145 733.66,-127.88 624.78,-63.81 575.71,-35.55"/>
<polygon fill="midnightblue" stroke="midnightblue" points="577.43,-32.5 567.01,-30.55 573.94,-38.56 577.43,-32.5"/>
</g>
<!-- Node28&#45;&gt;Node9 -->
<g id="edge39" class="edge">
<title>Node28&#45;&gt;Node9</title>
<path fill="none" stroke="midnightblue" d="M455.49,-346.5C472.06,-338.54 489.53,-326.74 499,-310 505.78,-298.01 504.37,-291.69 499,-279 494.15,-267.52 485.27,-257.37 476.21,-249.24"/>
<polygon fill="midnightblue" stroke="midnightblue" points="478.21,-246.35 468.3,-242.62 473.72,-251.72 478.21,-246.35"/>
</g>
<!-- Node29 -->
<g id="node29" class="node">
<title>Node29</title>
<g id="a_node29"><a xlink:title=" ">
<polygon fill="none" stroke="#bfbfbf" points="285,-285 285,-304 323,-304 323,-285 285,-285"/>
<text text-anchor="middle" x="304" y="-292" font-family="Helvetica,sans-Serif" font-size="10.00">map</text>
</a>
</g>
</g>
<!-- Node28&#45;&gt;Node29 -->
<g id="edge34" class="edge">
<title>Node28&#45;&gt;Node29</title>
<path fill="none" stroke="midnightblue" d="M390.91,-346.4C372.04,-335.34 345.94,-320.06 327.28,-309.13"/>
<polygon fill="midnightblue" stroke="midnightblue" points="328.93,-306.04 318.53,-304.01 325.39,-312.08 328.93,-306.04"/>
</g>
<!-- Node30 -->
<g id="node30" class="node">
<title>Node30</title>
<g id="a_node30"><a xlink:title=" ">
<polygon fill="none" stroke="#bfbfbf" points="341.5,-285 341.5,-304 406.5,-304 406.5,-285 341.5,-285"/>
<text text-anchor="middle" x="374" y="-292" font-family="Helvetica,sans-Serif" font-size="10.00">functional</text>
</a>
</g>
</g>
<!-- Node28&#45;&gt;Node30 -->
<g id="edge35" class="edge">
<title>Node28&#45;&gt;Node30</title>
<path fill="none" stroke="midnightblue" d="M406.1,-346.4C399.9,-336.56 391.58,-323.38 384.97,-312.89"/>
<polygon fill="midnightblue" stroke="midnightblue" points="387.78,-310.79 379.48,-304.19 381.86,-314.52 387.78,-310.79"/>
</g>
<!-- Node31 -->
<g id="node31" class="node">
<title>Node31</title>
<g id="a_node31"><a xlink:title=" ">
<polygon fill="none" stroke="#bfbfbf" points="424.5,-285 424.5,-304 489.5,-304 489.5,-285 424.5,-285"/>
<text text-anchor="middle" x="457" y="-292" font-family="Helvetica,sans-Serif" font-size="10.00">stdexcept</text>
</a>
</g>
</g>
<!-- Node28&#45;&gt;Node31 -->
<g id="edge37" class="edge">
<title>Node28&#45;&gt;Node31</title>
<path fill="none" stroke="midnightblue" d="M424.11,-346.4C430.47,-336.56 438.99,-323.38 445.76,-312.89"/>
<polygon fill="midnightblue" stroke="midnightblue" points="448.89,-314.49 451.38,-304.19 443.02,-310.69 448.89,-314.49"/>
</g>
</g>
</svg>
