<?xml version="1.0" encoding="UTF-8" standalone="no"?>
<!DOCTYPE svg PUBLIC "-//W3C//DTD SVG 1.1//EN"
 "http://www.w3.org/Graphics/SVG/1.1/DTD/svg11.dtd">
<!-- Generated by graphviz version 2.43.0 (0)
 -->
<!-- Title: src/VoronoiMeshMaker/DataExporter/ExportStrategy.cpp Pages: 1 -->
<svg width="930pt" height="519pt"
 viewBox="0.00 0.00 929.50 519.00" xmlns="http://www.w3.org/2000/svg" xmlns:xlink="http://www.w3.org/1999/xlink">
<g id="graph0" class="graph" transform="scale(1 1) rotate(0) translate(4 515)">
<title>src/VoronoiMeshMaker/DataExporter/ExportStrategy.cpp</title>
<!-- Node1 -->
<g id="node1" class="node">
<title>Node1</title>
<g id="a_node1"><a xlink:title="Implementation of the abstract ExportStrategy class.">
<polygon fill="#bfbfbf" stroke="black" points="0,-480.5 0,-510.5 179,-510.5 179,-480.5 0,-480.5"/>
<text text-anchor="start" x="8" y="-498.5" font-family="Helvetica,sans-Serif" font-size="10.00">src/VoronoiMeshMaker</text>
<text text-anchor="middle" x="89.5" y="-487.5" font-family="Helvetica,sans-Serif" font-size="10.00">/DataExporter/ExportStrategy.cpp</text>
</a>
</g>
</g>
<!-- Node2 -->
<g id="node2" class="node">
<title>Node2</title>
<g id="a_node2"><a xlink:title=" ">
<polygon fill="none" stroke="#bfbfbf" points="7.5,-218 7.5,-237 67.5,-237 67.5,-218 7.5,-218"/>
<text text-anchor="middle" x="37.5" y="-225" font-family="Helvetica,sans-Serif" font-size="10.00">iostream</text>
</a>
</g>
</g>
<!-- Node1&#45;&gt;Node2 -->
<g id="edge1" class="edge">
<title>Node1&#45;&gt;Node2</title>
<path fill="none" stroke="midnightblue" d="M73.32,-480.31C63.94,-471.02 52.94,-458.03 47.5,-444 20.98,-375.65 29.17,-285.83 34.49,-247.33"/>
<polygon fill="midnightblue" stroke="midnightblue" points="38.01,-247.52 36.01,-237.12 31.08,-246.49 38.01,-247.52"/>
</g>
<!-- Node3 -->
<g id="node3" class="node">
<title>Node3</title>
<g id="a_node3"><a xlink:title=" ">
<polygon fill="none" stroke="#bfbfbf" points="57,-419 57,-438 122,-438 122,-419 57,-419"/>
<text text-anchor="middle" x="89.5" y="-426" font-family="Helvetica,sans-Serif" font-size="10.00">stdexcept</text>
</a>
</g>
</g>
<!-- Node1&#45;&gt;Node3 -->
<g id="edge2" class="edge">
<title>Node1&#45;&gt;Node3</title>
<path fill="none" stroke="midnightblue" d="M89.5,-480.4C89.5,-471.06 89.5,-458.71 89.5,-448.52"/>
<polygon fill="midnightblue" stroke="midnightblue" points="93,-448.19 89.5,-438.19 86,-448.19 93,-448.19"/>
</g>
<!-- Node4 -->
<g id="node4" class="node">
<title>Node4</title>
<g id="a_node4"><a xlink:href="ExportStrategy_8h.html" target="_top" xlink:title="Defines the abstract base class for export strategies.">
<polygon fill="none" stroke="black" points="140.5,-413.5 140.5,-443.5 318.5,-443.5 318.5,-413.5 140.5,-413.5"/>
<text text-anchor="start" x="148.5" y="-431.5" font-family="Helvetica,sans-Serif" font-size="10.00">VoronoiMeshMaker/DataExporter</text>
<text text-anchor="middle" x="229.5" y="-420.5" font-family="Helvetica,sans-Serif" font-size="10.00">/ExportStrategy.h</text>
</a>
</g>
</g>
<!-- Node1&#45;&gt;Node4 -->
<g id="edge3" class="edge">
<title>Node1&#45;&gt;Node4</title>
<path fill="none" stroke="midnightblue" d="M119.88,-480.4C140.43,-470.86 167.76,-458.16 190,-447.84"/>
<polygon fill="midnightblue" stroke="midnightblue" points="191.59,-450.96 199.18,-443.58 188.64,-444.61 191.59,-450.96"/>
</g>
<!-- Node5 -->
<g id="node5" class="node">
<title>Node5</title>
<g id="a_node5"><a xlink:title=" ">
<polygon fill="none" stroke="#bfbfbf" points="95.5,-352 95.5,-371 139.5,-371 139.5,-352 95.5,-352"/>
<text text-anchor="middle" x="117.5" y="-359" font-family="Helvetica,sans-Serif" font-size="10.00">string</text>
</a>
</g>
</g>
<!-- Node4&#45;&gt;Node5 -->
<g id="edge4" class="edge">
<title>Node4&#45;&gt;Node5</title>
<path fill="none" stroke="midnightblue" d="M205.2,-413.4C186.15,-402.34 159.82,-387.06 140.99,-376.13"/>
<polygon fill="midnightblue" stroke="midnightblue" points="142.56,-373 132.16,-371.01 139.05,-379.05 142.56,-373"/>
</g>
<!-- Node6 -->
<g id="node6" class="node">
<title>Node6</title>
<g id="a_node6"><a xlink:href="Shape2D_8h.html" target="_top" xlink:title="Defines the Shape2D class, which represents 2D geometric shapes.">
<polygon fill="none" stroke="black" points="158,-346.5 158,-376.5 301,-376.5 301,-346.5 158,-346.5"/>
<text text-anchor="start" x="166" y="-364.5" font-family="Helvetica,sans-Serif" font-size="10.00">VoronoiMeshMaker/Shape</text>
<text text-anchor="middle" x="229.5" y="-353.5" font-family="Helvetica,sans-Serif" font-size="10.00">/Shape2D/Shape2D.h</text>
</a>
</g>
</g>
<!-- Node4&#45;&gt;Node6 -->
<g id="edge5" class="edge">
<title>Node4&#45;&gt;Node6</title>
<path fill="none" stroke="midnightblue" d="M229.5,-413.4C229.5,-405.64 229.5,-395.81 229.5,-386.86"/>
<polygon fill="midnightblue" stroke="midnightblue" points="233,-386.58 229.5,-376.58 226,-386.58 233,-386.58"/>
</g>
<!-- Node7 -->
<g id="node7" class="node">
<title>Node7</title>
<g id="a_node7"><a xlink:href="Shape_8h.html" target="_top" xlink:title="Defines the Shape class, which serves as the abstract base class for all shapes. This class provides ...">
<polygon fill="none" stroke="black" points="140,-279.5 140,-309.5 283,-309.5 283,-279.5 140,-279.5"/>
<text text-anchor="start" x="148" y="-297.5" font-family="Helvetica,sans-Serif" font-size="10.00">VoronoiMeshMaker/Shape</text>
<text text-anchor="middle" x="211.5" y="-286.5" font-family="Helvetica,sans-Serif" font-size="10.00">/Shape.h</text>
</a>
</g>
</g>
<!-- Node6&#45;&gt;Node7 -->
<g id="edge6" class="edge">
<title>Node6&#45;&gt;Node7</title>
<path fill="none" stroke="midnightblue" d="M225.59,-346.4C223.4,-338.47 220.6,-328.38 218.08,-319.27"/>
<polygon fill="midnightblue" stroke="midnightblue" points="221.44,-318.28 215.4,-309.58 214.69,-320.15 221.44,-318.28"/>
</g>
<!-- Node7&#45;&gt;Node2 -->
<g id="edge7" class="edge">
<title>Node7&#45;&gt;Node2</title>
<path fill="none" stroke="midnightblue" d="M173.74,-279.4C142.67,-267.79 99.11,-251.51 69.67,-240.52"/>
<polygon fill="midnightblue" stroke="midnightblue" points="70.87,-237.23 60.27,-237.01 68.42,-243.79 70.87,-237.23"/>
</g>
<!-- Node8 -->
<g id="node8" class="node">
<title>Node8</title>
<g id="a_node8"><a xlink:title=" ">
<polygon fill="none" stroke="#bfbfbf" points="148.5,-11.5 148.5,-30.5 206.5,-30.5 206.5,-11.5 148.5,-11.5"/>
<text text-anchor="middle" x="177.5" y="-18.5" font-family="Helvetica,sans-Serif" font-size="10.00">memory</text>
</a>
</g>
</g>
<!-- Node7&#45;&gt;Node8 -->
<g id="edge8" class="edge">
<title>Node7&#45;&gt;Node8</title>
<path fill="none" stroke="midnightblue" d="M195.96,-279.41C174.78,-259.04 137.83,-219.04 123.5,-176 106.78,-125.79 143.21,-66.87 164.13,-38.67"/>
<polygon fill="midnightblue" stroke="midnightblue" points="166.97,-40.71 170.29,-30.65 161.42,-36.45 166.97,-40.71"/>
</g>
<!-- Node9 -->
<g id="node9" class="node">
<title>Node9</title>
<g id="a_node9"><a xlink:title=" ">
<polygon fill="none" stroke="#bfbfbf" points="132.5,-151 132.5,-170 290.5,-170 290.5,-151 132.5,-151"/>
<text text-anchor="middle" x="211.5" y="-158" font-family="Helvetica,sans-Serif" font-size="10.00">VoronoiMeshMaker/Misc/ID.h</text>
</a>
</g>
</g>
<!-- Node7&#45;&gt;Node9 -->
<g id="edge9" class="edge">
<title>Node7&#45;&gt;Node9</title>
<path fill="none" stroke="midnightblue" d="M211.5,-279.37C211.5,-255.5 211.5,-207.18 211.5,-180.41"/>
<polygon fill="midnightblue" stroke="midnightblue" points="215,-180.1 211.5,-170.1 208,-180.1 215,-180.1"/>
</g>
<!-- Node10 -->
<g id="node10" class="node">
<title>Node10</title>
<g id="a_node10"><a xlink:href="GeometricDataHolder_8h.html" target="_top" xlink:title="Defines the GeometricDataHolder class and the DataTraits for handling multiple data types....">
<polygon fill="none" stroke="black" points="256.5,-212.5 256.5,-242.5 426.5,-242.5 426.5,-212.5 256.5,-212.5"/>
<text text-anchor="start" x="264.5" y="-230.5" font-family="Helvetica,sans-Serif" font-size="10.00">VoronoiMeshMaker/Parameters</text>
<text text-anchor="middle" x="341.5" y="-219.5" font-family="Helvetica,sans-Serif" font-size="10.00">/GeometricDataHolder.h</text>
</a>
</g>
</g>
<!-- Node7&#45;&gt;Node10 -->
<g id="edge10" class="edge">
<title>Node7&#45;&gt;Node10</title>
<path fill="none" stroke="midnightblue" d="M239.71,-279.4C258.62,-269.94 283.72,-257.39 304.27,-247.12"/>
<polygon fill="midnightblue" stroke="midnightblue" points="305.97,-250.18 313.35,-242.58 302.84,-243.92 305.97,-250.18"/>
</g>
<!-- Node10&#45;&gt;Node9 -->
<g id="edge12" class="edge">
<title>Node10&#45;&gt;Node9</title>
<path fill="none" stroke="midnightblue" d="M313.29,-212.4C290.78,-201.14 259.5,-185.5 237.58,-174.54"/>
<polygon fill="midnightblue" stroke="midnightblue" points="239.02,-171.35 228.51,-170.01 235.89,-177.61 239.02,-171.35"/>
</g>
<!-- Node11 -->
<g id="node11" class="node">
<title>Node11</title>
<g id="a_node11"><a xlink:title=" ">
<polygon fill="none" stroke="#bfbfbf" points="309,-151 309,-170 374,-170 374,-151 309,-151"/>
<text text-anchor="middle" x="341.5" y="-158" font-family="Helvetica,sans-Serif" font-size="10.00">execution</text>
</a>
</g>
</g>
<!-- Node10&#45;&gt;Node11 -->
<g id="edge11" class="edge">
<title>Node10&#45;&gt;Node11</title>
<path fill="none" stroke="midnightblue" d="M341.5,-212.4C341.5,-203.06 341.5,-190.71 341.5,-180.52"/>
<polygon fill="midnightblue" stroke="midnightblue" points="345,-180.19 341.5,-170.19 338,-180.19 345,-180.19"/>
</g>
<!-- Node12 -->
<g id="node12" class="node">
<title>Node12</title>
<g id="a_node12"><a xlink:href="GeometricDataTraits_8h.html" target="_top" xlink:title="Defines the GeometricDataTraits structure used for type identification and operations on various data...">
<polygon fill="none" stroke="black" points="392.5,-145.5 392.5,-175.5 562.5,-175.5 562.5,-145.5 392.5,-145.5"/>
<text text-anchor="start" x="400.5" y="-163.5" font-family="Helvetica,sans-Serif" font-size="10.00">VoronoiMeshMaker/Parameters</text>
<text text-anchor="middle" x="477.5" y="-152.5" font-family="Helvetica,sans-Serif" font-size="10.00">/GeometricDataTraits.h</text>
</a>
</g>
</g>
<!-- Node10&#45;&gt;Node12 -->
<g id="edge13" class="edge">
<title>Node10&#45;&gt;Node12</title>
<path fill="none" stroke="midnightblue" d="M371.01,-212.4C390.88,-202.9 417.29,-190.28 438.84,-179.98"/>
<polygon fill="midnightblue" stroke="midnightblue" points="440.53,-183.05 448.05,-175.58 437.52,-176.73 440.53,-183.05"/>
</g>
<!-- Node20 -->
<g id="node20" class="node">
<title>Node20</title>
<g id="a_node20"><a xlink:href="GeometricDataHolder_8tpp.html" target="_top" xlink:title=" ">
<polygon fill="none" stroke="black" points="580.5,-145.5 580.5,-175.5 750.5,-175.5 750.5,-145.5 580.5,-145.5"/>
<text text-anchor="start" x="588.5" y="-163.5" font-family="Helvetica,sans-Serif" font-size="10.00">VoronoiMeshMaker/Parameters</text>
<text text-anchor="middle" x="665.5" y="-152.5" font-family="Helvetica,sans-Serif" font-size="10.00">/GeometricDataHolder.tpp</text>
</a>
</g>
</g>
<!-- Node10&#45;&gt;Node20 -->
<g id="edge22" class="edge">
<title>Node10&#45;&gt;Node20</title>
<path fill="none" stroke="midnightblue" d="M411.4,-212.48C462.52,-202.22 531.96,-188.29 585.33,-177.58"/>
<polygon fill="midnightblue" stroke="midnightblue" points="586.33,-180.95 595.44,-175.55 584.95,-174.09 586.33,-180.95"/>
</g>
<!-- Node13 -->
<g id="node13" class="node">
<title>Node13</title>
<g id="a_node13"><a xlink:href="type_8h.html" target="_top" xlink:title="Defines common geometric and numeric types used in the VoronoiMeshMaker library.">
<polygon fill="none" stroke="black" points="390.5,-78.5 390.5,-108.5 526.5,-108.5 526.5,-78.5 390.5,-78.5"/>
<text text-anchor="start" x="398.5" y="-96.5" font-family="Helvetica,sans-Serif" font-size="10.00">VoronoiMeshMaker/Misc</text>
<text text-anchor="middle" x="458.5" y="-85.5" font-family="Helvetica,sans-Serif" font-size="10.00">/type.h</text>
</a>
</g>
</g>
<!-- Node12&#45;&gt;Node13 -->
<g id="edge14" class="edge">
<title>Node12&#45;&gt;Node13</title>
<path fill="none" stroke="midnightblue" d="M473.38,-145.4C471.06,-137.47 468.11,-127.38 465.45,-118.27"/>
<polygon fill="midnightblue" stroke="midnightblue" points="468.78,-117.19 462.61,-108.58 462.06,-119.16 468.78,-117.19"/>
</g>
<!-- Node13&#45;&gt;Node8 -->
<g id="edge16" class="edge">
<title>Node13&#45;&gt;Node8</title>
<path fill="none" stroke="midnightblue" d="M399.07,-78.41C357.64,-68.49 301.12,-54.76 251.5,-42 240.15,-39.08 227.86,-35.81 216.61,-32.76"/>
<polygon fill="midnightblue" stroke="midnightblue" points="217.2,-29.3 206.63,-30.05 215.36,-36.05 217.2,-29.3"/>
</g>
<!-- Node14 -->
<g id="node14" class="node">
<title>Node14</title>
<g id="a_node14"><a xlink:title=" ">
<polygon fill="none" stroke="#bfbfbf" points="260.5,-11.5 260.5,-30.5 292.5,-30.5 292.5,-11.5 260.5,-11.5"/>
<text text-anchor="middle" x="276.5" y="-18.5" font-family="Helvetica,sans-Serif" font-size="10.00">list</text>
</a>
</g>
</g>
<!-- Node13&#45;&gt;Node14 -->
<g id="edge15" class="edge">
<title>Node13&#45;&gt;Node14</title>
<path fill="none" stroke="midnightblue" d="M399.17,-78.46C369.2,-70.1 332.86,-57.97 302.5,-42 299.67,-40.51 296.83,-38.71 294.12,-36.81"/>
<polygon fill="midnightblue" stroke="midnightblue" points="296.14,-33.95 286.08,-30.64 291.88,-39.51 296.14,-33.95"/>
</g>
<!-- Node15 -->
<g id="node15" class="node">
<title>Node15</title>
<g id="a_node15"><a xlink:title=" ">
<polygon fill="none" stroke="#bfbfbf" points="311,-11.5 311,-30.5 358,-30.5 358,-11.5 311,-11.5"/>
<text text-anchor="middle" x="334.5" y="-18.5" font-family="Helvetica,sans-Serif" font-size="10.00">vector</text>
</a>
</g>
</g>
<!-- Node13&#45;&gt;Node15 -->
<g id="edge17" class="edge">
<title>Node13&#45;&gt;Node15</title>
<path fill="none" stroke="midnightblue" d="M432.46,-78.4C414.18,-68.41 389.22,-54.6 367.5,-42 364.18,-40.07 360.68,-38 357.27,-35.95"/>
<polygon fill="midnightblue" stroke="midnightblue" points="358.93,-32.87 348.56,-30.68 355.3,-38.86 358.93,-32.87"/>
</g>
<!-- Node16 -->
<g id="node16" class="node">
<title>Node16</title>
<g id="a_node16"><a xlink:title=" ">
<polygon fill="none" stroke="#bfbfbf" points="376,-0.5 376,-41.5 505,-41.5 505,-0.5 376,-0.5"/>
<text text-anchor="start" x="384" y="-29.5" font-family="Helvetica,sans-Serif" font-size="10.00">CGAL/Exact_predicates</text>
<text text-anchor="start" x="384" y="-18.5" font-family="Helvetica,sans-Serif" font-size="10.00">_inexact_constructions</text>
<text text-anchor="middle" x="440.5" y="-7.5" font-family="Helvetica,sans-Serif" font-size="10.00">_kernel.h</text>
</a>
</g>
</g>
<!-- Node13&#45;&gt;Node16 -->
<g id="edge18" class="edge">
<title>Node13&#45;&gt;Node16</title>
<path fill="none" stroke="midnightblue" d="M454.86,-78.23C452.88,-70.49 450.36,-60.63 447.99,-51.33"/>
<polygon fill="midnightblue" stroke="midnightblue" points="451.37,-50.41 445.5,-41.59 444.58,-52.14 451.37,-50.41"/>
</g>
<!-- Node17 -->
<g id="node17" class="node">
<title>Node17</title>
<g id="a_node17"><a xlink:title=" ">
<polygon fill="none" stroke="#bfbfbf" points="523,-11.5 523,-30.5 628,-30.5 628,-11.5 523,-11.5"/>
<text text-anchor="middle" x="575.5" y="-18.5" font-family="Helvetica,sans-Serif" font-size="10.00">CGAL/Polygon_2.h</text>
</a>
</g>
</g>
<!-- Node13&#45;&gt;Node17 -->
<g id="edge19" class="edge">
<title>Node13&#45;&gt;Node17</title>
<path fill="none" stroke="midnightblue" d="M481.9,-78.4C502.48,-66 532.27,-48.05 552.69,-35.75"/>
<polygon fill="midnightblue" stroke="midnightblue" points="554.58,-38.69 561.34,-30.53 550.97,-32.7 554.58,-38.69"/>
</g>
<!-- Node18 -->
<g id="node18" class="node">
<title>Node18</title>
<g id="a_node18"><a xlink:title=" ">
<polygon fill="none" stroke="#bfbfbf" points="646,-11.5 646,-30.5 767,-30.5 767,-11.5 646,-11.5"/>
<text text-anchor="middle" x="706.5" y="-18.5" font-family="Helvetica,sans-Serif" font-size="10.00">CGAL/Polyhedron_3.h</text>
</a>
</g>
</g>
<!-- Node13&#45;&gt;Node18 -->
<g id="edge20" class="edge">
<title>Node13&#45;&gt;Node18</title>
<path fill="none" stroke="midnightblue" d="M508.68,-78.45C544.58,-68.37 594.04,-54.43 637.5,-42 647.2,-39.23 657.66,-36.21 667.43,-33.38"/>
<polygon fill="midnightblue" stroke="midnightblue" points="668.68,-36.66 677.3,-30.51 666.72,-29.94 668.68,-36.66"/>
</g>
<!-- Node19 -->
<g id="node19" class="node">
<title>Node19</title>
<g id="a_node19"><a xlink:href="namespace_8h.html" target="_top" xlink:title=" ">
<polygon fill="none" stroke="black" points="785.5,-6 785.5,-36 921.5,-36 921.5,-6 785.5,-6"/>
<text text-anchor="start" x="793.5" y="-24" font-family="Helvetica,sans-Serif" font-size="10.00">VoronoiMeshMaker/Misc</text>
<text text-anchor="middle" x="853.5" y="-13" font-family="Helvetica,sans-Serif" font-size="10.00">/namespace.h</text>
</a>
</g>
</g>
<!-- Node13&#45;&gt;Node19 -->
<g id="edge21" class="edge">
<title>Node13&#45;&gt;Node19</title>
<path fill="none" stroke="midnightblue" d="M526.77,-83.6C591.41,-74.72 691,-59.85 776.5,-42 781.74,-40.91 787.16,-39.69 792.58,-38.4"/>
<polygon fill="midnightblue" stroke="midnightblue" points="793.41,-41.8 802.3,-36.03 791.76,-35 793.41,-41.8"/>
</g>
</g>
</svg>
