<?xml version="1.0" encoding="UTF-8" standalone="no"?>
<!DOCTYPE svg PUBLIC "-//W3C//DTD SVG 1.1//EN"
 "http://www.w3.org/Graphics/SVG/1.1/DTD/svg11.dtd">
<!-- Generated by graphviz version 2.43.0 (0)
 -->
<!-- Title: include/VoronoiMeshMaker/DataExporter/ExportTraits.h Pages: 1 -->
<svg width="773pt" height="385pt"
 viewBox="0.00 0.00 773.00 385.00" xmlns="http://www.w3.org/2000/svg" xmlns:xlink="http://www.w3.org/1999/xlink">
<g id="graph0" class="graph" transform="scale(1 1) rotate(0) translate(4 381)">
<title>include/VoronoiMeshMaker/DataExporter/ExportTraits.h</title>
<!-- Node1 -->
<g id="node1" class="node">
<title>Node1</title>
<g id="a_node1"><a xlink:title="Defines traits for exporting different types of geometric data.">
<polygon fill="#bfbfbf" stroke="black" points="299.5,-346.5 299.5,-376.5 454.5,-376.5 454.5,-346.5 299.5,-346.5"/>
<text text-anchor="start" x="307.5" y="-364.5" font-family="Helvetica,sans-Serif" font-size="10.00">include/VoronoiMeshMaker</text>
<text text-anchor="middle" x="377" y="-353.5" font-family="Helvetica,sans-Serif" font-size="10.00">/DataExporter/ExportTraits.h</text>
</a>
</g>
</g>
<!-- Node2 -->
<g id="node2" class="node">
<title>Node2</title>
<g id="a_node2"><a xlink:title=" ">
<polygon fill="none" stroke="#bfbfbf" points="0,-218 0,-237 60,-237 60,-218 0,-218"/>
<text text-anchor="middle" x="30" y="-225" font-family="Helvetica,sans-Serif" font-size="10.00">iostream</text>
</a>
</g>
</g>
<!-- Node1&#45;&gt;Node2 -->
<g id="edge1" class="edge">
<title>Node1&#45;&gt;Node2</title>
<path fill="none" stroke="midnightblue" d="M322.37,-346.41C288.71,-337.2 244.89,-324.27 207,-310 151.96,-289.28 90.05,-259.12 55.98,-241.89"/>
<polygon fill="midnightblue" stroke="midnightblue" points="57.24,-238.6 46.74,-237.19 54.07,-244.84 57.24,-238.6"/>
</g>
<!-- Node3 -->
<g id="node3" class="node">
<title>Node3</title>
<g id="a_node3"><a xlink:title=" ">
<polygon fill="none" stroke="#bfbfbf" points="574.5,-285 574.5,-304 639.5,-304 639.5,-285 574.5,-285"/>
<text text-anchor="middle" x="607" y="-292" font-family="Helvetica,sans-Serif" font-size="10.00">stdexcept</text>
</a>
</g>
</g>
<!-- Node1&#45;&gt;Node3 -->
<g id="edge2" class="edge">
<title>Node1&#45;&gt;Node3</title>
<path fill="none" stroke="midnightblue" d="M433.23,-346.49C470.74,-336.88 521.06,-323.47 565,-310 567.77,-309.15 570.62,-308.24 573.48,-307.31"/>
<polygon fill="midnightblue" stroke="midnightblue" points="574.74,-310.57 583.11,-304.07 572.51,-303.94 574.74,-310.57"/>
</g>
<!-- Node4 -->
<g id="node4" class="node">
<title>Node4</title>
<g id="a_node4"><a xlink:href="Shape_8h.html" target="_top" xlink:title="Defines the Shape class, which serves as the abstract base class for all shapes. This class provides ...">
<polygon fill="none" stroke="black" points="216.5,-279.5 216.5,-309.5 359.5,-309.5 359.5,-279.5 216.5,-279.5"/>
<text text-anchor="start" x="224.5" y="-297.5" font-family="Helvetica,sans-Serif" font-size="10.00">VoronoiMeshMaker/Shape</text>
<text text-anchor="middle" x="288" y="-286.5" font-family="Helvetica,sans-Serif" font-size="10.00">/Shape.h</text>
</a>
</g>
</g>
<!-- Node1&#45;&gt;Node4 -->
<g id="edge3" class="edge">
<title>Node1&#45;&gt;Node4</title>
<path fill="none" stroke="midnightblue" d="M357.69,-346.4C345.33,-337.37 329.1,-325.51 315.41,-315.52"/>
<polygon fill="midnightblue" stroke="midnightblue" points="317.41,-312.65 307.27,-309.58 313.29,-318.3 317.41,-312.65"/>
</g>
<!-- Node17 -->
<g id="node17" class="node">
<title>Node17</title>
<g id="a_node17"><a xlink:href="ExportStrategy_8h.html" target="_top" xlink:title="Defines the interface for exporting geometric data in various formats.">
<polygon fill="none" stroke="black" points="378,-279.5 378,-309.5 556,-309.5 556,-279.5 378,-279.5"/>
<text text-anchor="start" x="386" y="-297.5" font-family="Helvetica,sans-Serif" font-size="10.00">VoronoiMeshMaker/DataExporter</text>
<text text-anchor="middle" x="467" y="-286.5" font-family="Helvetica,sans-Serif" font-size="10.00">/ExportStrategy.h</text>
</a>
</g>
</g>
<!-- Node1&#45;&gt;Node17 -->
<g id="edge19" class="edge">
<title>Node1&#45;&gt;Node17</title>
<path fill="none" stroke="midnightblue" d="M396.53,-346.4C409.03,-337.37 425.44,-325.51 439.28,-315.52"/>
<polygon fill="midnightblue" stroke="midnightblue" points="441.45,-318.27 447.51,-309.58 437.35,-312.59 441.45,-318.27"/>
</g>
<!-- Node4&#45;&gt;Node2 -->
<g id="edge4" class="edge">
<title>Node4&#45;&gt;Node2</title>
<path fill="none" stroke="midnightblue" d="M222.06,-279.49C179.56,-270.08 123.23,-256.89 74,-243 70.83,-242.1 67.54,-241.12 64.26,-240.11"/>
<polygon fill="midnightblue" stroke="midnightblue" points="65.14,-236.72 54.55,-237.01 63.01,-243.38 65.14,-236.72"/>
</g>
<!-- Node5 -->
<g id="node5" class="node">
<title>Node5</title>
<g id="a_node5"><a xlink:title=" ">
<polygon fill="none" stroke="#bfbfbf" points="28,-11.5 28,-30.5 86,-30.5 86,-11.5 28,-11.5"/>
<text text-anchor="middle" x="57" y="-18.5" font-family="Helvetica,sans-Serif" font-size="10.00">memory</text>
</a>
</g>
</g>
<!-- Node4&#45;&gt;Node5 -->
<g id="edge5" class="edge">
<title>Node4&#45;&gt;Node5</title>
<path fill="none" stroke="midnightblue" d="M251.74,-279.38C210.54,-261.5 144.22,-226.76 107,-176 76.05,-133.79 63.67,-71.51 59.22,-40.68"/>
<polygon fill="midnightblue" stroke="midnightblue" points="62.66,-39.98 57.88,-30.52 55.72,-40.89 62.66,-39.98"/>
</g>
<!-- Node6 -->
<g id="node6" class="node">
<title>Node6</title>
<g id="a_node6"><a xlink:title=" ">
<polygon fill="none" stroke="#bfbfbf" points="492,-151 492,-170 650,-170 650,-151 492,-151"/>
<text text-anchor="middle" x="571" y="-158" font-family="Helvetica,sans-Serif" font-size="10.00">VoronoiMeshMaker/Misc/ID.h</text>
</a>
</g>
</g>
<!-- Node4&#45;&gt;Node6 -->
<g id="edge6" class="edge">
<title>Node4&#45;&gt;Node6</title>
<path fill="none" stroke="midnightblue" d="M318.02,-279.5C373.19,-253.76 489.95,-199.3 543.33,-174.41"/>
<polygon fill="midnightblue" stroke="midnightblue" points="544.94,-177.52 552.53,-170.12 541.98,-171.17 544.94,-177.52"/>
</g>
<!-- Node7 -->
<g id="node7" class="node">
<title>Node7</title>
<g id="a_node7"><a xlink:href="GeometricDataHolder_8h.html" target="_top" xlink:title="Defines the GeometricDataHolder class and the DataTraits for handling multiple data types....">
<polygon fill="none" stroke="black" points="210,-212.5 210,-242.5 380,-242.5 380,-212.5 210,-212.5"/>
<text text-anchor="start" x="218" y="-230.5" font-family="Helvetica,sans-Serif" font-size="10.00">VoronoiMeshMaker/Parameters</text>
<text text-anchor="middle" x="295" y="-219.5" font-family="Helvetica,sans-Serif" font-size="10.00">/GeometricDataHolder.h</text>
</a>
</g>
</g>
<!-- Node4&#45;&gt;Node7 -->
<g id="edge7" class="edge">
<title>Node4&#45;&gt;Node7</title>
<path fill="none" stroke="midnightblue" d="M289.52,-279.4C290.36,-271.56 291.44,-261.6 292.41,-252.57"/>
<polygon fill="midnightblue" stroke="midnightblue" points="295.89,-252.89 293.48,-242.58 288.93,-252.14 295.89,-252.89"/>
</g>
<!-- Node7&#45;&gt;Node6 -->
<g id="edge8" class="edge">
<title>Node7&#45;&gt;Node6</title>
<path fill="none" stroke="midnightblue" d="M354.55,-212.48C405.63,-200.45 478.19,-183.36 524.93,-172.35"/>
<polygon fill="midnightblue" stroke="midnightblue" points="525.85,-175.73 534.79,-170.03 524.25,-168.91 525.85,-175.73"/>
</g>
<!-- Node8 -->
<g id="node8" class="node">
<title>Node8</title>
<g id="a_node8"><a xlink:href="GeometricDataTraits_8h.html" target="_top" xlink:title="Defines the GeometricDataTraits structure used for type identification and operations on various data...">
<polygon fill="none" stroke="black" points="116,-145.5 116,-175.5 286,-175.5 286,-145.5 116,-145.5"/>
<text text-anchor="start" x="124" y="-163.5" font-family="Helvetica,sans-Serif" font-size="10.00">VoronoiMeshMaker/Parameters</text>
<text text-anchor="middle" x="201" y="-152.5" font-family="Helvetica,sans-Serif" font-size="10.00">/GeometricDataTraits.h</text>
</a>
</g>
</g>
<!-- Node7&#45;&gt;Node8 -->
<g id="edge9" class="edge">
<title>Node7&#45;&gt;Node8</title>
<path fill="none" stroke="midnightblue" d="M274.6,-212.4C261.55,-203.37 244.4,-191.51 229.95,-181.52"/>
<polygon fill="midnightblue" stroke="midnightblue" points="231.57,-178.39 221.36,-175.58 227.59,-184.14 231.57,-178.39"/>
</g>
<!-- Node16 -->
<g id="node16" class="node">
<title>Node16</title>
<g id="a_node16"><a xlink:href="GeometricDataHolder_8tpp.html" target="_top" xlink:title=" ">
<polygon fill="none" stroke="black" points="304,-145.5 304,-175.5 474,-175.5 474,-145.5 304,-145.5"/>
<text text-anchor="start" x="312" y="-163.5" font-family="Helvetica,sans-Serif" font-size="10.00">VoronoiMeshMaker/Parameters</text>
<text text-anchor="middle" x="389" y="-152.5" font-family="Helvetica,sans-Serif" font-size="10.00">/GeometricDataHolder.tpp</text>
</a>
</g>
</g>
<!-- Node7&#45;&gt;Node16 -->
<g id="edge18" class="edge">
<title>Node7&#45;&gt;Node16</title>
<path fill="none" stroke="midnightblue" d="M315.4,-212.4C328.45,-203.37 345.6,-191.51 360.05,-181.52"/>
<polygon fill="midnightblue" stroke="midnightblue" points="362.41,-184.14 368.64,-175.58 358.43,-178.39 362.41,-184.14"/>
</g>
<!-- Node9 -->
<g id="node9" class="node">
<title>Node9</title>
<g id="a_node9"><a xlink:href="type_8h.html" target="_top" xlink:title="Defines common geometric and numeric types used in the VoronoiMeshMaker library.">
<polygon fill="none" stroke="black" points="163,-78.5 163,-108.5 299,-108.5 299,-78.5 163,-78.5"/>
<text text-anchor="start" x="171" y="-96.5" font-family="Helvetica,sans-Serif" font-size="10.00">VoronoiMeshMaker/Misc</text>
<text text-anchor="middle" x="231" y="-85.5" font-family="Helvetica,sans-Serif" font-size="10.00">/type.h</text>
</a>
</g>
</g>
<!-- Node8&#45;&gt;Node9 -->
<g id="edge10" class="edge">
<title>Node8&#45;&gt;Node9</title>
<path fill="none" stroke="midnightblue" d="M207.51,-145.4C211.24,-137.3 216.03,-126.94 220.3,-117.69"/>
<polygon fill="midnightblue" stroke="midnightblue" points="223.49,-119.12 224.5,-108.58 217.13,-116.19 223.49,-119.12"/>
</g>
<!-- Node9&#45;&gt;Node5 -->
<g id="edge11" class="edge">
<title>Node9&#45;&gt;Node5</title>
<path fill="none" stroke="midnightblue" d="M188.77,-78.4C161.63,-68.95 125.82,-55.76 95,-42 90.47,-39.98 85.73,-37.66 81.2,-35.33"/>
<polygon fill="midnightblue" stroke="midnightblue" points="82.78,-32.21 72.31,-30.63 79.51,-38.4 82.78,-32.21"/>
</g>
<!-- Node10 -->
<g id="node10" class="node">
<title>Node10</title>
<g id="a_node10"><a xlink:title=" ">
<polygon fill="none" stroke="#bfbfbf" points="104,-11.5 104,-30.5 136,-30.5 136,-11.5 104,-11.5"/>
<text text-anchor="middle" x="120" y="-18.5" font-family="Helvetica,sans-Serif" font-size="10.00">list</text>
</a>
</g>
</g>
<!-- Node9&#45;&gt;Node10 -->
<g id="edge12" class="edge">
<title>Node9&#45;&gt;Node10</title>
<path fill="none" stroke="midnightblue" d="M204.81,-78.42C187.46,-68.77 164.4,-55.35 145,-42 142.76,-40.46 140.46,-38.77 138.2,-37.05"/>
<polygon fill="midnightblue" stroke="midnightblue" points="139.97,-33.99 129.96,-30.51 135.62,-39.47 139.97,-33.99"/>
</g>
<!-- Node11 -->
<g id="node11" class="node">
<title>Node11</title>
<g id="a_node11"><a xlink:title=" ">
<polygon fill="none" stroke="#bfbfbf" points="154.5,-11.5 154.5,-30.5 201.5,-30.5 201.5,-11.5 154.5,-11.5"/>
<text text-anchor="middle" x="178" y="-18.5" font-family="Helvetica,sans-Serif" font-size="10.00">vector</text>
</a>
</g>
</g>
<!-- Node9&#45;&gt;Node11 -->
<g id="edge13" class="edge">
<title>Node9&#45;&gt;Node11</title>
<path fill="none" stroke="midnightblue" d="M220.27,-78.23C211.79,-66.95 199.91,-51.15 190.91,-39.17"/>
<polygon fill="midnightblue" stroke="midnightblue" points="193.49,-36.78 184.69,-30.89 187.9,-40.99 193.49,-36.78"/>
</g>
<!-- Node12 -->
<g id="node12" class="node">
<title>Node12</title>
<g id="a_node12"><a xlink:title=" ">
<polygon fill="none" stroke="#bfbfbf" points="219.5,-0.5 219.5,-41.5 348.5,-41.5 348.5,-0.5 219.5,-0.5"/>
<text text-anchor="start" x="227.5" y="-29.5" font-family="Helvetica,sans-Serif" font-size="10.00">CGAL/Exact_predicates</text>
<text text-anchor="start" x="227.5" y="-18.5" font-family="Helvetica,sans-Serif" font-size="10.00">_inexact_constructions</text>
<text text-anchor="middle" x="284" y="-7.5" font-family="Helvetica,sans-Serif" font-size="10.00">_kernel.h</text>
</a>
</g>
</g>
<!-- Node9&#45;&gt;Node12 -->
<g id="edge14" class="edge">
<title>Node9&#45;&gt;Node12</title>
<path fill="none" stroke="midnightblue" d="M241.73,-78.23C247.85,-70.08 255.75,-59.57 263.06,-49.85"/>
<polygon fill="midnightblue" stroke="midnightblue" points="266.06,-51.68 269.27,-41.59 260.47,-47.48 266.06,-51.68"/>
</g>
<!-- Node13 -->
<g id="node13" class="node">
<title>Node13</title>
<g id="a_node13"><a xlink:title=" ">
<polygon fill="none" stroke="#bfbfbf" points="366.5,-11.5 366.5,-30.5 471.5,-30.5 471.5,-11.5 366.5,-11.5"/>
<text text-anchor="middle" x="419" y="-18.5" font-family="Helvetica,sans-Serif" font-size="10.00">CGAL/Polygon_2.h</text>
</a>
</g>
</g>
<!-- Node9&#45;&gt;Node13 -->
<g id="edge15" class="edge">
<title>Node9&#45;&gt;Node13</title>
<path fill="none" stroke="midnightblue" d="M268.59,-78.4C303.16,-65.44 353.89,-46.42 386.68,-34.12"/>
<polygon fill="midnightblue" stroke="midnightblue" points="388.11,-37.32 396.24,-30.53 385.65,-30.77 388.11,-37.32"/>
</g>
<!-- Node14 -->
<g id="node14" class="node">
<title>Node14</title>
<g id="a_node14"><a xlink:title=" ">
<polygon fill="none" stroke="#bfbfbf" points="489.5,-11.5 489.5,-30.5 610.5,-30.5 610.5,-11.5 489.5,-11.5"/>
<text text-anchor="middle" x="550" y="-18.5" font-family="Helvetica,sans-Serif" font-size="10.00">CGAL/Polyhedron_3.h</text>
</a>
</g>
</g>
<!-- Node9&#45;&gt;Node14 -->
<g id="edge16" class="edge">
<title>Node9&#45;&gt;Node14</title>
<path fill="none" stroke="midnightblue" d="M299.25,-80.29C349.7,-70.89 419.94,-56.99 481,-42 491.36,-39.46 502.49,-36.38 512.73,-33.41"/>
<polygon fill="midnightblue" stroke="midnightblue" points="514,-36.69 522.61,-30.51 512.03,-29.97 514,-36.69"/>
</g>
<!-- Node15 -->
<g id="node15" class="node">
<title>Node15</title>
<g id="a_node15"><a xlink:href="namespace_8h.html" target="_top" xlink:title=" ">
<polygon fill="none" stroke="black" points="629,-6 629,-36 765,-36 765,-6 629,-6"/>
<text text-anchor="start" x="637" y="-24" font-family="Helvetica,sans-Serif" font-size="10.00">VoronoiMeshMaker/Misc</text>
<text text-anchor="middle" x="697" y="-13" font-family="Helvetica,sans-Serif" font-size="10.00">/namespace.h</text>
</a>
</g>
</g>
<!-- Node9&#45;&gt;Node15 -->
<g id="edge17" class="edge">
<title>Node9&#45;&gt;Node15</title>
<path fill="none" stroke="midnightblue" d="M299.23,-86.25C377.22,-78.51 508.52,-63.63 620,-42 625.42,-40.95 631.03,-39.74 636.64,-38.44"/>
<polygon fill="midnightblue" stroke="midnightblue" points="637.77,-41.77 646.67,-36.03 636.13,-34.96 637.77,-41.77"/>
</g>
<!-- Node17&#45;&gt;Node6 -->
<g id="edge21" class="edge">
<title>Node17&#45;&gt;Node6</title>
<path fill="none" stroke="midnightblue" d="M467.03,-279.45C467.74,-262.02 471.24,-232.16 486,-212 498.58,-194.82 518.92,-182.43 536.55,-174.23"/>
<polygon fill="midnightblue" stroke="midnightblue" points="538.24,-177.31 546,-170.1 535.43,-170.9 538.24,-177.31"/>
</g>
<!-- Node18 -->
<g id="node18" class="node">
<title>Node18</title>
<g id="a_node18"><a xlink:title=" ">
<polygon fill="none" stroke="#bfbfbf" points="495,-218 495,-237 539,-237 539,-218 495,-218"/>
<text text-anchor="middle" x="517" y="-225" font-family="Helvetica,sans-Serif" font-size="10.00">string</text>
</a>
</g>
</g>
<!-- Node17&#45;&gt;Node18 -->
<g id="edge20" class="edge">
<title>Node17&#45;&gt;Node18</title>
<path fill="none" stroke="midnightblue" d="M477.85,-279.4C485.57,-269.36 495.97,-255.84 504.11,-245.25"/>
<polygon fill="midnightblue" stroke="midnightblue" points="506.99,-247.25 510.31,-237.19 501.44,-242.99 506.99,-247.25"/>
</g>
</g>
</svg>
