<?xml version="1.0" encoding="UTF-8" standalone="no"?>
<!DOCTYPE svg PUBLIC "-//W3C//DTD SVG 1.1//EN"
 "http://www.w3.org/Graphics/SVG/1.1/DTD/svg11.dtd">
<!-- Generated by graphviz version 2.43.0 (0)
 -->
<!-- Title: include/VoronoiMeshMaker/DataExporter/ExportStrategyFactory.h Pages: 1 -->
<svg width="542pt" height="229pt"
 viewBox="0.00 0.00 542.00 229.00" xmlns="http://www.w3.org/2000/svg" xmlns:xlink="http://www.w3.org/1999/xlink">
<g id="graph0" class="graph" transform="scale(1 1) rotate(0) translate(4 225)">
<title>include/VoronoiMeshMaker/DataExporter/ExportStrategyFactory.h</title>
<!-- Node1 -->
<g id="node1" class="node">
<title>Node1</title>
<g id="a_node1"><a xlink:title="Factory class for creating export strategies based on the specified format.">
<polygon fill="#bfbfbf" stroke="black" points="77.5,-190.5 77.5,-220.5 280.5,-220.5 280.5,-190.5 77.5,-190.5"/>
<text text-anchor="start" x="85.5" y="-208.5" font-family="Helvetica,sans-Serif" font-size="10.00">include/VoronoiMeshMaker</text>
<text text-anchor="middle" x="179" y="-197.5" font-family="Helvetica,sans-Serif" font-size="10.00">/DataExporter/ExportStrategyFactory.h</text>
</a>
</g>
</g>
<!-- Node2 -->
<g id="node2" class="node">
<title>Node2</title>
<g id="a_node2"><a xlink:title=" ">
<polygon fill="none" stroke="#bfbfbf" points="0,-129 0,-148 58,-148 58,-129 0,-129"/>
<text text-anchor="middle" x="29" y="-136" font-family="Helvetica,sans-Serif" font-size="10.00">memory</text>
</a>
</g>
</g>
<!-- Node1&#45;&gt;Node2 -->
<g id="edge1" class="edge">
<title>Node1&#45;&gt;Node2</title>
<path fill="none" stroke="midnightblue" d="M146.45,-190.4C120.13,-178.99 83.41,-163.08 58.07,-152.1"/>
<polygon fill="midnightblue" stroke="midnightblue" points="59.2,-148.77 48.63,-148.01 56.42,-155.19 59.2,-148.77"/>
</g>
<!-- Node3 -->
<g id="node3" class="node">
<title>Node3</title>
<g id="a_node3"><a xlink:title=" ">
<polygon fill="none" stroke="#bfbfbf" points="76.5,-129 76.5,-148 141.5,-148 141.5,-129 76.5,-129"/>
<text text-anchor="middle" x="109" y="-136" font-family="Helvetica,sans-Serif" font-size="10.00">stdexcept</text>
</a>
</g>
</g>
<!-- Node1&#45;&gt;Node3 -->
<g id="edge2" class="edge">
<title>Node1&#45;&gt;Node3</title>
<path fill="none" stroke="midnightblue" d="M163.81,-190.4C152.68,-180.06 137.56,-166.02 126.03,-155.31"/>
<polygon fill="midnightblue" stroke="midnightblue" points="128.07,-152.43 118.36,-148.19 123.31,-157.56 128.07,-152.43"/>
</g>
<!-- Node4 -->
<g id="node4" class="node">
<title>Node4</title>
<g id="a_node4"><a xlink:href="VTKExportStrategy_8h.html" target="_top" xlink:title="Defines the VTK export strategy for geometric data.">
<polygon fill="none" stroke="black" points="160,-123.5 160,-153.5 338,-153.5 338,-123.5 160,-123.5"/>
<text text-anchor="start" x="168" y="-141.5" font-family="Helvetica,sans-Serif" font-size="10.00">VoronoiMeshMaker/DataExporter</text>
<text text-anchor="middle" x="249" y="-130.5" font-family="Helvetica,sans-Serif" font-size="10.00">/VTKExportStrategy.h</text>
</a>
</g>
</g>
<!-- Node1&#45;&gt;Node4 -->
<g id="edge3" class="edge">
<title>Node1&#45;&gt;Node4</title>
<path fill="none" stroke="midnightblue" d="M194.19,-190.4C203.55,-181.71 215.72,-170.4 226.21,-160.66"/>
<polygon fill="midnightblue" stroke="midnightblue" points="228.89,-162.95 233.84,-153.58 224.13,-157.82 228.89,-162.95"/>
</g>
<!-- Node8 -->
<g id="node8" class="node">
<title>Node8</title>
<g id="a_node8"><a xlink:href="HDF5ExportStrategy_8h.html" target="_top" xlink:title="Defines the HDF5 export strategy for geometric data.">
<polygon fill="none" stroke="black" points="356,-123.5 356,-153.5 534,-153.5 534,-123.5 356,-123.5"/>
<text text-anchor="start" x="364" y="-141.5" font-family="Helvetica,sans-Serif" font-size="10.00">VoronoiMeshMaker/DataExporter</text>
<text text-anchor="middle" x="445" y="-130.5" font-family="Helvetica,sans-Serif" font-size="10.00">/HDF5ExportStrategy.h</text>
</a>
</g>
</g>
<!-- Node1&#45;&gt;Node8 -->
<g id="edge7" class="edge">
<title>Node1&#45;&gt;Node8</title>
<path fill="none" stroke="midnightblue" d="M236.39,-190.48C277.76,-180.37 333.76,-166.68 377.31,-156.04"/>
<polygon fill="midnightblue" stroke="midnightblue" points="378.37,-159.38 387.25,-153.61 376.71,-152.58 378.37,-159.38"/>
</g>
<!-- Node5 -->
<g id="node5" class="node">
<title>Node5</title>
<g id="a_node5"><a xlink:href="ExportStrategy_8h.html" target="_top" xlink:title="Defines the interface for exporting geometric data in various formats.">
<polygon fill="none" stroke="black" points="258,-56.5 258,-86.5 436,-86.5 436,-56.5 258,-56.5"/>
<text text-anchor="start" x="266" y="-74.5" font-family="Helvetica,sans-Serif" font-size="10.00">VoronoiMeshMaker/DataExporter</text>
<text text-anchor="middle" x="347" y="-63.5" font-family="Helvetica,sans-Serif" font-size="10.00">/ExportStrategy.h</text>
</a>
</g>
</g>
<!-- Node4&#45;&gt;Node5 -->
<g id="edge4" class="edge">
<title>Node4&#45;&gt;Node5</title>
<path fill="none" stroke="midnightblue" d="M270.26,-123.4C284.01,-114.28 302.09,-102.29 317.24,-92.24"/>
<polygon fill="midnightblue" stroke="midnightblue" points="319.38,-95.02 325.78,-86.58 315.51,-89.19 319.38,-95.02"/>
</g>
<!-- Node6 -->
<g id="node6" class="node">
<title>Node6</title>
<g id="a_node6"><a xlink:title=" ">
<polygon fill="none" stroke="#bfbfbf" points="266,-0.5 266,-19.5 310,-19.5 310,-0.5 266,-0.5"/>
<text text-anchor="middle" x="288" y="-7.5" font-family="Helvetica,sans-Serif" font-size="10.00">string</text>
</a>
</g>
</g>
<!-- Node5&#45;&gt;Node6 -->
<g id="edge5" class="edge">
<title>Node5&#45;&gt;Node6</title>
<path fill="none" stroke="midnightblue" d="M333.02,-56.4C324.27,-47.58 312.97,-36.18 303.88,-27.02"/>
<polygon fill="midnightblue" stroke="midnightblue" points="306.11,-24.29 296.59,-19.66 301.14,-29.22 306.11,-24.29"/>
</g>
<!-- Node7 -->
<g id="node7" class="node">
<title>Node7</title>
<g id="a_node7"><a xlink:title=" ">
<polygon fill="none" stroke="#bfbfbf" points="328,-0.5 328,-19.5 486,-19.5 486,-0.5 328,-0.5"/>
<text text-anchor="middle" x="407" y="-7.5" font-family="Helvetica,sans-Serif" font-size="10.00">VoronoiMeshMaker/Misc/ID.h</text>
</a>
</g>
</g>
<!-- Node5&#45;&gt;Node7 -->
<g id="edge6" class="edge">
<title>Node5&#45;&gt;Node7</title>
<path fill="none" stroke="midnightblue" d="M361.22,-56.4C370.21,-47.49 381.84,-35.95 391.13,-26.74"/>
<polygon fill="midnightblue" stroke="midnightblue" points="393.63,-29.18 398.27,-19.66 388.7,-24.21 393.63,-29.18"/>
</g>
<!-- Node8&#45;&gt;Node5 -->
<g id="edge8" class="edge">
<title>Node8&#45;&gt;Node5</title>
<path fill="none" stroke="midnightblue" d="M423.74,-123.4C409.99,-114.28 391.91,-102.29 376.76,-92.24"/>
<polygon fill="midnightblue" stroke="midnightblue" points="378.49,-89.19 368.22,-86.58 374.62,-95.02 378.49,-89.19"/>
</g>
</g>
</svg>
