<?xml version="1.0" encoding="UTF-8" standalone="no"?>
<!DOCTYPE svg PUBLIC "-//W3C//DTD SVG 1.1//EN"
 "http://www.w3.org/Graphics/SVG/1.1/DTD/svg11.dtd">
<!-- Generated by graphviz version 2.43.0 (0)
 -->
<!-- Title: include/VoronoiMeshMaker/DataExporter/ExportStrategy.h Pages: 1 -->
<svg width="874pt" height="173pt"
 viewBox="0.00 0.00 873.50 173.00" xmlns="http://www.w3.org/2000/svg" xmlns:xlink="http://www.w3.org/1999/xlink">
<g id="graph0" class="graph" transform="scale(1 1) rotate(0) translate(4 169)">
<title>include/VoronoiMeshMaker/DataExporter/ExportStrategy.h</title>
<!-- Node1 -->
<g id="node1" class="node">
<title>Node1</title>
<g id="a_node1"><a xlink:title="Defines the abstract base class for export strategies.">
<polygon fill="#bfbfbf" stroke="black" points="431.5,-134.5 431.5,-164.5 598.5,-164.5 598.5,-134.5 431.5,-134.5"/>
<text text-anchor="start" x="439.5" y="-152.5" font-family="Helvetica,sans-Serif" font-size="10.00">include/VoronoiMeshMaker</text>
<text text-anchor="middle" x="515" y="-141.5" font-family="Helvetica,sans-Serif" font-size="10.00">/DataExporter/ExportStrategy.h</text>
</a>
</g>
</g>
<!-- Node2 -->
<g id="node2" class="node">
<title>Node2</title>
<g id="a_node2"><a xlink:href="HDF5ExportStrategy_8h.html" target="_top" xlink:title="Defines the HDF5 export strategy for exporting geometric data.">
<polygon fill="none" stroke="black" points="78,-67.5 78,-97.5 272,-97.5 272,-67.5 78,-67.5"/>
<text text-anchor="start" x="86" y="-85.5" font-family="Helvetica,sans-Serif" font-size="10.00">include/VoronoiMeshMaker</text>
<text text-anchor="middle" x="175" y="-74.5" font-family="Helvetica,sans-Serif" font-size="10.00">/DataExporter/HDF5ExportStrategy.h</text>
</a>
</g>
</g>
<!-- Node1&#45;&gt;Node2 -->
<g id="edge1" class="edge">
<title>Node1&#45;&gt;Node2</title>
<path fill="none" stroke="midnightblue" d="M431.74,-132.58C375.68,-121.86 302.42,-107.86 248.52,-97.55"/>
<polygon fill="midnightblue" stroke="midnightblue" points="431.16,-136.04 441.64,-134.48 432.48,-129.16 431.16,-136.04"/>
</g>
<!-- Node4 -->
<g id="node4" class="node">
<title>Node4</title>
<g id="a_node4"><a xlink:href="VoronoiDataExporter_8h.html" target="_top" xlink:title="Defines the VoronoiDataExporter class for exporting data in different formats.">
<polygon fill="none" stroke="black" points="224,-0.5 224,-30.5 422,-30.5 422,-0.5 224,-0.5"/>
<text text-anchor="start" x="232" y="-18.5" font-family="Helvetica,sans-Serif" font-size="10.00">include/VoronoiMeshMaker</text>
<text text-anchor="middle" x="323" y="-7.5" font-family="Helvetica,sans-Serif" font-size="10.00">/DataExporter/VoronoiDataExporter.h</text>
</a>
</g>
</g>
<!-- Node1&#45;&gt;Node4 -->
<g id="edge3" class="edge">
<title>Node1&#45;&gt;Node4</title>
<path fill="none" stroke="midnightblue" d="M471.45,-130.18C452.8,-121.52 431.16,-110.37 413,-98 383.21,-77.71 353.06,-48.16 336.32,-30.78"/>
<polygon fill="midnightblue" stroke="midnightblue" points="470.07,-133.4 480.63,-134.35 472.97,-127.02 470.07,-133.4"/>
</g>
<!-- Node5 -->
<g id="node5" class="node">
<title>Node5</title>
<g id="a_node5"><a xlink:href="VTKExportStrategy_8h.html" target="_top" xlink:title="Defines the VTKExportStrategy class for exporting Shape2D to VTK format.">
<polygon fill="none" stroke="black" points="421.5,-67.5 421.5,-97.5 608.5,-97.5 608.5,-67.5 421.5,-67.5"/>
<text text-anchor="start" x="429.5" y="-85.5" font-family="Helvetica,sans-Serif" font-size="10.00">include/VoronoiMeshMaker</text>
<text text-anchor="middle" x="515" y="-74.5" font-family="Helvetica,sans-Serif" font-size="10.00">/DataExporter/VTKExportStrategy.h</text>
</a>
</g>
</g>
<!-- Node1&#45;&gt;Node5 -->
<g id="edge4" class="edge">
<title>Node1&#45;&gt;Node5</title>
<path fill="none" stroke="midnightblue" d="M515,-124.11C515,-115.15 515,-105.32 515,-97.58"/>
<polygon fill="midnightblue" stroke="midnightblue" points="511.5,-124.4 515,-134.4 518.5,-124.4 511.5,-124.4"/>
</g>
<!-- Node6 -->
<g id="node6" class="node">
<title>Node6</title>
<g id="a_node6"><a xlink:href="VoronoiDataExporter_8cpp.html" target="_top" xlink:title=" ">
<polygon fill="none" stroke="black" points="656.5,-0.5 656.5,-30.5 865.5,-30.5 865.5,-0.5 656.5,-0.5"/>
<text text-anchor="start" x="664.5" y="-18.5" font-family="Helvetica,sans-Serif" font-size="10.00">src/VoronoiMeshMaker</text>
<text text-anchor="middle" x="761" y="-7.5" font-family="Helvetica,sans-Serif" font-size="10.00">/DataExporter/VoronoiDataExporter.cpp</text>
</a>
</g>
</g>
<!-- Node1&#45;&gt;Node6 -->
<g id="edge9" class="edge">
<title>Node1&#45;&gt;Node6</title>
<path fill="none" stroke="midnightblue" d="M556.89,-130.22C575.76,-121.36 598.02,-110.05 617,-98 635.69,-86.13 637.24,-78.76 656,-67 678.62,-52.82 705.83,-39.83 726.88,-30.58"/>
<polygon fill="midnightblue" stroke="midnightblue" points="555.26,-127.11 547.65,-134.48 558.19,-133.47 555.26,-127.11"/>
</g>
<!-- Node8 -->
<g id="node8" class="node">
<title>Node8</title>
<g id="a_node8"><a xlink:href="ExportStrategy_8cpp.html" target="_top" xlink:title="Implementation of the abstract ExportStrategy class.">
<polygon fill="none" stroke="black" points="664.5,-67.5 664.5,-97.5 843.5,-97.5 843.5,-67.5 664.5,-67.5"/>
<text text-anchor="start" x="672.5" y="-85.5" font-family="Helvetica,sans-Serif" font-size="10.00">src/VoronoiMeshMaker</text>
<text text-anchor="middle" x="754" y="-74.5" font-family="Helvetica,sans-Serif" font-size="10.00">/DataExporter/ExportStrategy.cpp</text>
</a>
</g>
</g>
<!-- Node1&#45;&gt;Node8 -->
<g id="edge8" class="edge">
<title>Node1&#45;&gt;Node8</title>
<path fill="none" stroke="midnightblue" d="M576.22,-131.85C615.19,-121.25 665.1,-107.68 702.12,-97.61"/>
<polygon fill="midnightblue" stroke="midnightblue" points="575.3,-128.47 566.57,-134.48 577.13,-135.23 575.3,-128.47"/>
</g>
<!-- Node3 -->
<g id="node3" class="node">
<title>Node3</title>
<g id="a_node3"><a xlink:href="HDF5ExportStrategy_8cpp.html" target="_top" xlink:title="Implements the HDF5 export strategy for Shape2D data.">
<polygon fill="none" stroke="black" points="0,-0.5 0,-30.5 206,-30.5 206,-0.5 0,-0.5"/>
<text text-anchor="start" x="8" y="-18.5" font-family="Helvetica,sans-Serif" font-size="10.00">src/VoronoiMeshMaker</text>
<text text-anchor="middle" x="103" y="-7.5" font-family="Helvetica,sans-Serif" font-size="10.00">/DataExporter/HDF5ExportStrategy.cpp</text>
</a>
</g>
</g>
<!-- Node2&#45;&gt;Node3 -->
<g id="edge2" class="edge">
<title>Node2&#45;&gt;Node3</title>
<path fill="none" stroke="midnightblue" d="M151.85,-60.6C140.98,-50.78 128.3,-39.34 118.59,-30.58"/>
<polygon fill="midnightblue" stroke="midnightblue" points="149.61,-63.29 159.38,-67.4 154.3,-58.1 149.61,-63.29"/>
</g>
<!-- Node5&#45;&gt;Node4 -->
<g id="edge5" class="edge">
<title>Node5&#45;&gt;Node4</title>
<path fill="none" stroke="midnightblue" d="M463.58,-64.09C432.58,-53.6 393.62,-40.41 364.58,-30.58"/>
<polygon fill="midnightblue" stroke="midnightblue" points="462.74,-67.5 473.34,-67.4 464.99,-60.87 462.74,-67.5"/>
</g>
<!-- Node5&#45;&gt;Node6 -->
<g id="edge6" class="edge">
<title>Node5&#45;&gt;Node6</title>
<path fill="none" stroke="midnightblue" d="M577.76,-64.92C617.9,-54.31 669.42,-40.7 707.6,-30.61"/>
<polygon fill="midnightblue" stroke="midnightblue" points="576.85,-61.54 568.08,-67.48 578.64,-68.31 576.85,-61.54"/>
</g>
<!-- Node7 -->
<g id="node7" class="node">
<title>Node7</title>
<g id="a_node7"><a xlink:href="VTKExportStrategy_8cpp.html" target="_top" xlink:title="Implements the export strategy for exporting Shape2D to VTK format.">
<polygon fill="none" stroke="black" points="440,-0.5 440,-30.5 638,-30.5 638,-0.5 440,-0.5"/>
<text text-anchor="start" x="448" y="-18.5" font-family="Helvetica,sans-Serif" font-size="10.00">src/VoronoiMeshMaker</text>
<text text-anchor="middle" x="539" y="-7.5" font-family="Helvetica,sans-Serif" font-size="10.00">/DataExporter/VTKExportStrategy.cpp</text>
</a>
</g>
</g>
<!-- Node5&#45;&gt;Node7 -->
<g id="edge7" class="edge">
<title>Node5&#45;&gt;Node7</title>
<path fill="none" stroke="midnightblue" d="M523.68,-57.99C527.07,-48.8 530.85,-38.58 533.8,-30.58"/>
<polygon fill="midnightblue" stroke="midnightblue" points="520.39,-56.8 520.21,-67.4 526.95,-59.23 520.39,-56.8"/>
</g>
</g>
</svg>
