<?xml version="1.0" encoding="UTF-8" standalone="no"?>
<!DOCTYPE svg PUBLIC "-//W3C//DTD SVG 1.1//EN"
 "http://www.w3.org/Graphics/SVG/1.1/DTD/svg11.dtd">
<!-- Generated by graphviz version 2.43.0 (0)
 -->
<!-- Title: include/VoronoiMeshMaker/Exporter/Exporter.h Pages: 1 -->
<svg width="1653pt" height="385pt"
 viewBox="0.00 0.00 1653.00 385.00" xmlns="http://www.w3.org/2000/svg" xmlns:xlink="http://www.w3.org/1999/xlink">
<g id="graph0" class="graph" transform="scale(1 1) rotate(0) translate(4 381)">
<title>include/VoronoiMeshMaker/Exporter/Exporter.h</title>
<!-- Node1 -->
<g id="node1" class="node">
<title>Node1</title>
<g id="a_node1"><a xlink:title="Declares the template class Exporter for data exporting.">
<polygon fill="#bfbfbf" stroke="black" points="681.5,-346.5 681.5,-376.5 830.5,-376.5 830.5,-346.5 681.5,-346.5"/>
<text text-anchor="start" x="689.5" y="-364.5" font-family="Helvetica,sans-Serif" font-size="10.00">include/VoronoiMeshMaker</text>
<text text-anchor="middle" x="756" y="-353.5" font-family="Helvetica,sans-Serif" font-size="10.00">/Exporter/Exporter.h</text>
</a>
</g>
</g>
<!-- Node2 -->
<g id="node2" class="node">
<title>Node2</title>
<g id="a_node2"><a xlink:title=" ">
<polygon fill="none" stroke="#bfbfbf" points="631,-285 631,-304 675,-304 675,-285 631,-285"/>
<text text-anchor="middle" x="653" y="-292" font-family="Helvetica,sans-Serif" font-size="10.00">string</text>
</a>
</g>
</g>
<!-- Node1&#45;&gt;Node2 -->
<g id="edge1" class="edge">
<title>Node1&#45;&gt;Node2</title>
<path fill="none" stroke="midnightblue" d="M733.65,-346.4C716.38,-335.5 692.58,-320.48 675.32,-309.58"/>
<polygon fill="midnightblue" stroke="midnightblue" points="676.81,-306.38 666.48,-304.01 673.07,-312.3 676.81,-306.38"/>
</g>
<!-- Node3 -->
<g id="node3" class="node">
<title>Node3</title>
<g id="a_node3"><a xlink:href="namespace_8h.html" target="_top" xlink:title=" ">
<polygon fill="none" stroke="black" points="1323,-6 1323,-36 1459,-36 1459,-6 1323,-6"/>
<text text-anchor="start" x="1331" y="-24" font-family="Helvetica,sans-Serif" font-size="10.00">VoronoiMeshMaker/Misc</text>
<text text-anchor="middle" x="1391" y="-13" font-family="Helvetica,sans-Serif" font-size="10.00">/namespace.h</text>
</a>
</g>
</g>
<!-- Node1&#45;&gt;Node3 -->
<g id="edge2" class="edge">
<title>Node1&#45;&gt;Node3</title>
<path fill="none" stroke="midnightblue" d="M830.65,-357.24C1044.64,-346.89 1645,-310.56 1645,-228.5 1645,-228.5 1645,-228.5 1645,-159.5 1645,-78.4 1543.61,-44.89 1468.95,-31.21"/>
<polygon fill="midnightblue" stroke="midnightblue" points="1469.52,-27.76 1459.07,-29.49 1468.32,-34.65 1469.52,-27.76"/>
</g>
<!-- Node4 -->
<g id="node4" class="node">
<title>Node4</title>
<g id="a_node4"><a xlink:title=" ">
<polygon fill="none" stroke="#bfbfbf" points="0,-212.5 0,-242.5 136,-242.5 136,-212.5 0,-212.5"/>
<text text-anchor="start" x="8" y="-230.5" font-family="Helvetica,sans-Serif" font-size="10.00">VoronoiMeshMaker/Misc</text>
<text text-anchor="middle" x="68" y="-219.5" font-family="Helvetica,sans-Serif" font-size="10.00">/ExportOptions.h</text>
</a>
</g>
</g>
<!-- Node1&#45;&gt;Node4 -->
<g id="edge3" class="edge">
<title>Node1&#45;&gt;Node4</title>
<path fill="none" stroke="midnightblue" d="M748.23,-346.22C736.93,-327.06 713.99,-293.74 684,-279 579.01,-227.38 279.81,-256.56 146.45,-242.96"/>
<polygon fill="midnightblue" stroke="midnightblue" points="146.7,-239.47 136.37,-241.81 145.9,-246.43 146.7,-239.47"/>
</g>
<!-- Node5 -->
<g id="node5" class="node">
<title>Node5</title>
<g id="a_node5"><a xlink:href="ExporterTraits_8h.html" target="_top" xlink:title="Declares the ExporterTraits struct for data exporting.">
<polygon fill="none" stroke="black" points="731.5,-279.5 731.5,-309.5 886.5,-309.5 886.5,-279.5 731.5,-279.5"/>
<text text-anchor="start" x="739.5" y="-297.5" font-family="Helvetica,sans-Serif" font-size="10.00">VoronoiMeshMaker/Exporter</text>
<text text-anchor="middle" x="809" y="-286.5" font-family="Helvetica,sans-Serif" font-size="10.00">/ExporterTraits.h</text>
</a>
</g>
</g>
<!-- Node1&#45;&gt;Node5 -->
<g id="edge4" class="edge">
<title>Node1&#45;&gt;Node5</title>
<path fill="none" stroke="midnightblue" d="M767.5,-346.4C774.38,-337.96 783.26,-327.07 791.04,-317.52"/>
<polygon fill="midnightblue" stroke="midnightblue" points="793.92,-319.54 797.52,-309.58 788.49,-315.11 793.92,-319.54"/>
</g>
<!-- Node5&#45;&gt;Node4 -->
<g id="edge29" class="edge">
<title>Node5&#45;&gt;Node4</title>
<path fill="none" stroke="midnightblue" d="M731.27,-280.73C726.45,-280.1 721.66,-279.51 717,-279 467.14,-251.51 399.53,-274.02 146.6,-243.09"/>
<polygon fill="midnightblue" stroke="midnightblue" points="146.72,-239.58 136.36,-241.83 145.86,-246.53 146.72,-239.58"/>
</g>
<!-- Node6 -->
<g id="node6" class="node">
<title>Node6</title>
<g id="a_node6"><a xlink:title=" ">
<polygon fill="none" stroke="#bfbfbf" points="1481,-212.5 1481,-242.5 1617,-242.5 1617,-212.5 1481,-212.5"/>
<text text-anchor="start" x="1489" y="-230.5" font-family="Helvetica,sans-Serif" font-size="10.00">VoronoiMeshMaker/Misc</text>
<text text-anchor="middle" x="1549" y="-219.5" font-family="Helvetica,sans-Serif" font-size="10.00">/namespace_config.h</text>
</a>
</g>
</g>
<!-- Node5&#45;&gt;Node6 -->
<g id="edge5" class="edge">
<title>Node5&#45;&gt;Node6</title>
<path fill="none" stroke="midnightblue" d="M886.61,-290.36C1008.82,-284.81 1253.72,-271.2 1470.65,-243.09"/>
<polygon fill="midnightblue" stroke="midnightblue" points="1471.17,-246.55 1480.63,-241.78 1470.26,-239.61 1471.17,-246.55"/>
</g>
<!-- Node7 -->
<g id="node7" class="node">
<title>Node7</title>
<g id="a_node7"><a xlink:title=" ">
<polygon fill="none" stroke="#bfbfbf" points="154.5,-212.5 154.5,-242.5 297.5,-242.5 297.5,-212.5 154.5,-212.5"/>
<text text-anchor="start" x="162.5" y="-230.5" font-family="Helvetica,sans-Serif" font-size="10.00">VoronoiMeshMaker/Shape</text>
<text text-anchor="middle" x="226" y="-219.5" font-family="Helvetica,sans-Serif" font-size="10.00">/Shape2D.h</text>
</a>
</g>
</g>
<!-- Node5&#45;&gt;Node7 -->
<g id="edge6" class="edge">
<title>Node5&#45;&gt;Node7</title>
<path fill="none" stroke="midnightblue" d="M731.25,-280.86C726.43,-280.2 721.65,-279.57 717,-279 538.72,-257.15 490.07,-266.78 308.12,-243.07"/>
<polygon fill="midnightblue" stroke="midnightblue" points="308.31,-239.56 297.94,-241.72 307.39,-246.5 308.31,-239.56"/>
</g>
<!-- Node8 -->
<g id="node8" class="node">
<title>Node8</title>
<g id="a_node8"><a xlink:title=" ">
<polygon fill="none" stroke="#bfbfbf" points="315.5,-212.5 315.5,-242.5 458.5,-242.5 458.5,-212.5 315.5,-212.5"/>
<text text-anchor="start" x="323.5" y="-230.5" font-family="Helvetica,sans-Serif" font-size="10.00">VoronoiMeshMaker/Shape</text>
<text text-anchor="middle" x="387" y="-219.5" font-family="Helvetica,sans-Serif" font-size="10.00">/Shape3D.h</text>
</a>
</g>
</g>
<!-- Node5&#45;&gt;Node8 -->
<g id="edge7" class="edge">
<title>Node5&#45;&gt;Node8</title>
<path fill="none" stroke="midnightblue" d="M731.21,-281.17C726.4,-280.43 721.64,-279.7 717,-279 609.57,-262.77 580.04,-260.95 468.5,-243.05"/>
<polygon fill="midnightblue" stroke="midnightblue" points="468.96,-239.58 458.53,-241.44 467.85,-246.49 468.96,-239.58"/>
</g>
<!-- Node9 -->
<g id="node9" class="node">
<title>Node9</title>
<g id="a_node9"><a xlink:href="Nodes2D_8h.html" target="_top" xlink:title="Declares the Nodes2D class for representing 2D nodes.">
<polygon fill="none" stroke="black" points="1319,-212.5 1319,-242.5 1463,-242.5 1463,-212.5 1319,-212.5"/>
<text text-anchor="start" x="1327" y="-230.5" font-family="Helvetica,sans-Serif" font-size="10.00">VoronoiMeshMaker/Nodes</text>
<text text-anchor="middle" x="1391" y="-219.5" font-family="Helvetica,sans-Serif" font-size="10.00">/Nodes2D/Nodes2D.h</text>
</a>
</g>
</g>
<!-- Node5&#45;&gt;Node9 -->
<g id="edge8" class="edge">
<title>Node5&#45;&gt;Node9</title>
<path fill="none" stroke="midnightblue" d="M886.89,-287.51C983.48,-279.67 1153.37,-264.5 1308.43,-243.16"/>
<polygon fill="midnightblue" stroke="midnightblue" points="1309.2,-246.58 1318.62,-241.74 1308.23,-239.65 1309.2,-246.58"/>
</g>
<!-- Node18 -->
<g id="node18" class="node">
<title>Node18</title>
<g id="a_node18"><a xlink:href="Nodes3D_8h.html" target="_top" xlink:title="Declares the Nodes3D class for representing 3D nodes.">
<polygon fill="none" stroke="black" points="1157,-212.5 1157,-242.5 1301,-242.5 1301,-212.5 1157,-212.5"/>
<text text-anchor="start" x="1165" y="-230.5" font-family="Helvetica,sans-Serif" font-size="10.00">VoronoiMeshMaker/Nodes</text>
<text text-anchor="middle" x="1229" y="-219.5" font-family="Helvetica,sans-Serif" font-size="10.00">/Nodes3D/Nodes3D.h</text>
</a>
</g>
</g>
<!-- Node5&#45;&gt;Node18 -->
<g id="edge21" class="edge">
<title>Node5&#45;&gt;Node18</title>
<path fill="none" stroke="midnightblue" d="M886.52,-282.61C952.94,-273.13 1051.44,-258.71 1146.52,-243.22"/>
<polygon fill="midnightblue" stroke="midnightblue" points="1147.29,-246.64 1156.59,-241.57 1146.16,-239.73 1147.29,-246.64"/>
</g>
<!-- Node19 -->
<g id="node19" class="node">
<title>Node19</title>
<g id="a_node19"><a xlink:href="Voronoi2D_8h.html" target="_top" xlink:title="Declares the Voronoi2D class for representing 2D Voronoi diagrams.">
<polygon fill="none" stroke="black" points="818.5,-212.5 818.5,-242.5 969.5,-242.5 969.5,-212.5 818.5,-212.5"/>
<text text-anchor="start" x="826.5" y="-230.5" font-family="Helvetica,sans-Serif" font-size="10.00">VoronoiMeshMaker/Voronoi</text>
<text text-anchor="middle" x="894" y="-219.5" font-family="Helvetica,sans-Serif" font-size="10.00">/Voronoi2D/Voronoi2D.h</text>
</a>
</g>
</g>
<!-- Node5&#45;&gt;Node19 -->
<g id="edge23" class="edge">
<title>Node5&#45;&gt;Node19</title>
<path fill="none" stroke="midnightblue" d="M827.44,-279.4C839.14,-270.45 854.46,-258.74 867.45,-248.8"/>
<polygon fill="midnightblue" stroke="midnightblue" points="869.77,-251.43 875.59,-242.58 865.52,-245.87 869.77,-251.43"/>
</g>
<!-- Node21 -->
<g id="node21" class="node">
<title>Node21</title>
<g id="a_node21"><a xlink:href="Voronoi3D_8h.html" target="_top" xlink:title="Declares the Voronoi3D class for representing 3D Voronoi diagrams.">
<polygon fill="none" stroke="black" points="987.5,-212.5 987.5,-242.5 1138.5,-242.5 1138.5,-212.5 987.5,-212.5"/>
<text text-anchor="start" x="995.5" y="-230.5" font-family="Helvetica,sans-Serif" font-size="10.00">VoronoiMeshMaker/Voronoi</text>
<text text-anchor="middle" x="1063" y="-219.5" font-family="Helvetica,sans-Serif" font-size="10.00">/Voronoi3D/Voronoi3D.h</text>
</a>
</g>
</g>
<!-- Node5&#45;&gt;Node21 -->
<g id="edge27" class="edge">
<title>Node5&#45;&gt;Node21</title>
<path fill="none" stroke="midnightblue" d="M863.8,-279.48C903.23,-269.39 956.55,-255.74 998.1,-245.11"/>
<polygon fill="midnightblue" stroke="midnightblue" points="999.04,-248.48 1007.86,-242.61 997.3,-241.7 999.04,-248.48"/>
</g>
<!-- Node22 -->
<g id="node22" class="node">
<title>Node22</title>
<g id="a_node22"><a xlink:title=" ">
<polygon fill="none" stroke="#bfbfbf" points="476.5,-212.5 476.5,-242.5 629.5,-242.5 629.5,-212.5 476.5,-212.5"/>
<text text-anchor="start" x="484.5" y="-230.5" font-family="Helvetica,sans-Serif" font-size="10.00">VoronoiMeshMaker/Formats</text>
<text text-anchor="middle" x="553" y="-219.5" font-family="Helvetica,sans-Serif" font-size="10.00">/VTKFormat.h</text>
</a>
</g>
</g>
<!-- Node5&#45;&gt;Node22 -->
<g id="edge30" class="edge">
<title>Node5&#45;&gt;Node22</title>
<path fill="none" stroke="midnightblue" d="M753.77,-279.48C714.03,-269.39 660.29,-255.74 618.41,-245.11"/>
<polygon fill="midnightblue" stroke="midnightblue" points="619.13,-241.68 608.58,-242.61 617.41,-248.46 619.13,-241.68"/>
</g>
<!-- Node23 -->
<g id="node23" class="node">
<title>Node23</title>
<g id="a_node23"><a xlink:title=" ">
<polygon fill="none" stroke="#bfbfbf" points="647.5,-212.5 647.5,-242.5 800.5,-242.5 800.5,-212.5 647.5,-212.5"/>
<text text-anchor="start" x="655.5" y="-230.5" font-family="Helvetica,sans-Serif" font-size="10.00">VoronoiMeshMaker/Formats</text>
<text text-anchor="middle" x="724" y="-219.5" font-family="Helvetica,sans-Serif" font-size="10.00">/HDF5Format.h</text>
</a>
</g>
</g>
<!-- Node5&#45;&gt;Node23 -->
<g id="edge31" class="edge">
<title>Node5&#45;&gt;Node23</title>
<path fill="none" stroke="midnightblue" d="M790.56,-279.4C778.86,-270.45 763.54,-258.74 750.55,-248.8"/>
<polygon fill="midnightblue" stroke="midnightblue" points="752.48,-245.87 742.41,-242.58 748.23,-251.43 752.48,-245.87"/>
</g>
<!-- Node9&#45;&gt;Node3 -->
<g id="edge19" class="edge">
<title>Node9&#45;&gt;Node3</title>
<path fill="none" stroke="midnightblue" d="M1391,-212.44C1391,-178.08 1391,-89.46 1391,-46.32"/>
<polygon fill="midnightblue" stroke="midnightblue" points="1394.5,-46.15 1391,-36.15 1387.5,-46.15 1394.5,-46.15"/>
</g>
<!-- Node10 -->
<g id="node10" class="node">
<title>Node10</title>
<g id="a_node10"><a xlink:href="Nodes_8h.html" target="_top" xlink:title="Declares the Nodes base class for representing collections of nodes.">
<polygon fill="none" stroke="black" points="1169,-145.5 1169,-175.5 1313,-175.5 1313,-145.5 1169,-145.5"/>
<text text-anchor="start" x="1177" y="-163.5" font-family="Helvetica,sans-Serif" font-size="10.00">VoronoiMeshMaker/Nodes</text>
<text text-anchor="middle" x="1241" y="-152.5" font-family="Helvetica,sans-Serif" font-size="10.00">/Nodes.h</text>
</a>
</g>
</g>
<!-- Node9&#45;&gt;Node10 -->
<g id="edge9" class="edge">
<title>Node9&#45;&gt;Node10</title>
<path fill="none" stroke="midnightblue" d="M1358.45,-212.4C1336.24,-202.77 1306.62,-189.94 1282.69,-179.56"/>
<polygon fill="midnightblue" stroke="midnightblue" points="1284.05,-176.34 1273.48,-175.58 1281.27,-182.76 1284.05,-176.34"/>
</g>
<!-- Node11 -->
<g id="node11" class="node">
<title>Node11</title>
<g id="a_node11"><a xlink:href="type_8h.html" target="_top" xlink:title="Defines common geometric and numeric types used in the VoronoiMeshMaker library.">
<polygon fill="none" stroke="black" points="1003,-78.5 1003,-108.5 1139,-108.5 1139,-78.5 1003,-78.5"/>
<text text-anchor="start" x="1011" y="-96.5" font-family="Helvetica,sans-Serif" font-size="10.00">VoronoiMeshMaker/Misc</text>
<text text-anchor="middle" x="1071" y="-85.5" font-family="Helvetica,sans-Serif" font-size="10.00">/type.h</text>
</a>
</g>
</g>
<!-- Node9&#45;&gt;Node11 -->
<g id="edge20" class="edge">
<title>Node9&#45;&gt;Node11</title>
<path fill="none" stroke="midnightblue" d="M1383.23,-212.46C1372.17,-193.89 1350.1,-161.59 1322,-145 1269.61,-114.06 1201.49,-101.77 1149.44,-97.03"/>
<polygon fill="midnightblue" stroke="midnightblue" points="1149.51,-93.53 1139.25,-96.18 1148.92,-100.5 1149.51,-93.53"/>
</g>
<!-- Node10&#45;&gt;Node3 -->
<g id="edge10" class="edge">
<title>Node10&#45;&gt;Node3</title>
<path fill="none" stroke="midnightblue" d="M1256.49,-145.3C1282.87,-121.12 1336.69,-71.79 1367.65,-43.4"/>
<polygon fill="midnightblue" stroke="midnightblue" points="1370.37,-45.66 1375.37,-36.33 1365.64,-40.5 1370.37,-45.66"/>
</g>
<!-- Node10&#45;&gt;Node11 -->
<g id="edge11" class="edge">
<title>Node10&#45;&gt;Node11</title>
<path fill="none" stroke="midnightblue" d="M1204.11,-145.4C1178.61,-135.64 1144.48,-122.59 1117.17,-112.15"/>
<polygon fill="midnightblue" stroke="midnightblue" points="1118.41,-108.88 1107.82,-108.58 1115.91,-115.42 1118.41,-108.88"/>
</g>
<!-- Node11&#45;&gt;Node3 -->
<g id="edge18" class="edge">
<title>Node11&#45;&gt;Node3</title>
<path fill="none" stroke="midnightblue" d="M1139.02,-79.3C1187.85,-69.59 1255.15,-55.75 1314,-42 1318.71,-40.9 1323.58,-39.73 1328.46,-38.52"/>
<polygon fill="midnightblue" stroke="midnightblue" points="1329.63,-41.83 1338.48,-36.01 1327.93,-35.04 1329.63,-41.83"/>
</g>
<!-- Node12 -->
<g id="node12" class="node">
<title>Node12</title>
<g id="a_node12"><a xlink:title=" ">
<polygon fill="none" stroke="#bfbfbf" points="1273,-11.5 1273,-30.5 1305,-30.5 1305,-11.5 1273,-11.5"/>
<text text-anchor="middle" x="1289" y="-18.5" font-family="Helvetica,sans-Serif" font-size="10.00">list</text>
</a>
</g>
</g>
<!-- Node11&#45;&gt;Node12 -->
<g id="edge12" class="edge">
<title>Node11&#45;&gt;Node12</title>
<path fill="none" stroke="midnightblue" d="M1139.14,-81.9C1177.26,-74.22 1224.85,-61.66 1264,-42 1266.7,-40.64 1269.38,-38.96 1271.93,-37.15"/>
<polygon fill="midnightblue" stroke="midnightblue" points="1274.27,-39.77 1279.92,-30.81 1269.91,-34.29 1274.27,-39.77"/>
</g>
<!-- Node13 -->
<g id="node13" class="node">
<title>Node13</title>
<g id="a_node13"><a xlink:title=" ">
<polygon fill="none" stroke="#bfbfbf" points="722,-11.5 722,-30.5 780,-30.5 780,-11.5 722,-11.5"/>
<text text-anchor="middle" x="751" y="-18.5" font-family="Helvetica,sans-Serif" font-size="10.00">memory</text>
</a>
</g>
</g>
<!-- Node11&#45;&gt;Node13 -->
<g id="edge13" class="edge">
<title>Node11&#45;&gt;Node13</title>
<path fill="none" stroke="midnightblue" d="M1002.88,-85.97C945.09,-79.09 860.55,-65.84 790,-42 784.82,-40.25 779.47,-37.9 774.46,-35.44"/>
<polygon fill="midnightblue" stroke="midnightblue" points="775.85,-32.21 765.36,-30.66 772.59,-38.41 775.85,-32.21"/>
</g>
<!-- Node14 -->
<g id="node14" class="node">
<title>Node14</title>
<g id="a_node14"><a xlink:title=" ">
<polygon fill="none" stroke="#bfbfbf" points="798.5,-11.5 798.5,-30.5 845.5,-30.5 845.5,-11.5 798.5,-11.5"/>
<text text-anchor="middle" x="822" y="-18.5" font-family="Helvetica,sans-Serif" font-size="10.00">vector</text>
</a>
</g>
</g>
<!-- Node11&#45;&gt;Node14 -->
<g id="edge14" class="edge">
<title>Node11&#45;&gt;Node14</title>
<path fill="none" stroke="midnightblue" d="M1002.66,-82.21C959.3,-74.32 902.61,-61.42 855,-42 850.88,-40.32 846.68,-38.17 842.72,-35.9"/>
<polygon fill="midnightblue" stroke="midnightblue" points="844.4,-32.83 834.05,-30.57 840.73,-38.79 844.4,-32.83"/>
</g>
<!-- Node15 -->
<g id="node15" class="node">
<title>Node15</title>
<g id="a_node15"><a xlink:title=" ">
<polygon fill="none" stroke="#bfbfbf" points="863.5,-0.5 863.5,-41.5 992.5,-41.5 992.5,-0.5 863.5,-0.5"/>
<text text-anchor="start" x="871.5" y="-29.5" font-family="Helvetica,sans-Serif" font-size="10.00">CGAL/Exact_predicates</text>
<text text-anchor="start" x="871.5" y="-18.5" font-family="Helvetica,sans-Serif" font-size="10.00">_inexact_constructions</text>
<text text-anchor="middle" x="928" y="-7.5" font-family="Helvetica,sans-Serif" font-size="10.00">_kernel.h</text>
</a>
</g>
</g>
<!-- Node11&#45;&gt;Node15 -->
<g id="edge15" class="edge">
<title>Node11&#45;&gt;Node15</title>
<path fill="none" stroke="midnightblue" d="M1042.41,-78.4C1023.65,-69.16 998.64,-56.83 976.79,-46.05"/>
<polygon fill="midnightblue" stroke="midnightblue" points="978.16,-42.83 967.65,-41.55 975.07,-49.11 978.16,-42.83"/>
</g>
<!-- Node16 -->
<g id="node16" class="node">
<title>Node16</title>
<g id="a_node16"><a xlink:title=" ">
<polygon fill="none" stroke="#bfbfbf" points="1010.5,-11.5 1010.5,-30.5 1115.5,-30.5 1115.5,-11.5 1010.5,-11.5"/>
<text text-anchor="middle" x="1063" y="-18.5" font-family="Helvetica,sans-Serif" font-size="10.00">CGAL/Polygon_2.h</text>
</a>
</g>
</g>
<!-- Node11&#45;&gt;Node16 -->
<g id="edge16" class="edge">
<title>Node11&#45;&gt;Node16</title>
<path fill="none" stroke="midnightblue" d="M1069.38,-78.23C1068.16,-67.5 1066.48,-52.69 1065.15,-40.96"/>
<polygon fill="midnightblue" stroke="midnightblue" points="1068.61,-40.43 1064.01,-30.89 1061.66,-41.22 1068.61,-40.43"/>
</g>
<!-- Node17 -->
<g id="node17" class="node">
<title>Node17</title>
<g id="a_node17"><a xlink:title=" ">
<polygon fill="none" stroke="#bfbfbf" points="1133.5,-11.5 1133.5,-30.5 1254.5,-30.5 1254.5,-11.5 1133.5,-11.5"/>
<text text-anchor="middle" x="1194" y="-18.5" font-family="Helvetica,sans-Serif" font-size="10.00">CGAL/Polyhedron_3.h</text>
</a>
</g>
</g>
<!-- Node11&#45;&gt;Node17 -->
<g id="edge17" class="edge">
<title>Node11&#45;&gt;Node17</title>
<path fill="none" stroke="midnightblue" d="M1095.6,-78.4C1117.34,-65.94 1148.84,-47.88 1170.31,-35.58"/>
<polygon fill="midnightblue" stroke="midnightblue" points="1172.18,-38.54 1179.11,-30.53 1168.7,-32.47 1172.18,-38.54"/>
</g>
<!-- Node18&#45;&gt;Node10 -->
<g id="edge22" class="edge">
<title>Node18&#45;&gt;Node10</title>
<path fill="none" stroke="midnightblue" d="M1231.6,-212.4C1233.05,-204.56 1234.89,-194.6 1236.56,-185.57"/>
<polygon fill="midnightblue" stroke="midnightblue" points="1240.03,-186.05 1238.4,-175.58 1233.14,-184.77 1240.03,-186.05"/>
</g>
<!-- Node19&#45;&gt;Node11 -->
<g id="edge26" class="edge">
<title>Node19&#45;&gt;Node11</title>
<path fill="none" stroke="midnightblue" d="M906.57,-212.35C922.36,-195.1 950.82,-165.69 979,-145 995.36,-132.99 1014.9,-121.87 1031.75,-113.14"/>
<polygon fill="midnightblue" stroke="midnightblue" points="1033.47,-116.2 1040.8,-108.55 1030.3,-109.96 1033.47,-116.2"/>
</g>
<!-- Node20 -->
<g id="node20" class="node">
<title>Node20</title>
<g id="a_node20"><a xlink:href="Voronoi_8h.html" target="_top" xlink:title="Declares the Voronoi base class for representing Voronoi diagrams.">
<polygon fill="none" stroke="black" points="987.5,-145.5 987.5,-175.5 1138.5,-175.5 1138.5,-145.5 987.5,-145.5"/>
<text text-anchor="start" x="995.5" y="-163.5" font-family="Helvetica,sans-Serif" font-size="10.00">VoronoiMeshMaker/Voronoi</text>
<text text-anchor="middle" x="1063" y="-152.5" font-family="Helvetica,sans-Serif" font-size="10.00">/Voronoi.h</text>
</a>
</g>
</g>
<!-- Node19&#45;&gt;Node20 -->
<g id="edge24" class="edge">
<title>Node19&#45;&gt;Node20</title>
<path fill="none" stroke="midnightblue" d="M930.67,-212.4C955.92,-202.69 989.66,-189.71 1016.75,-179.29"/>
<polygon fill="midnightblue" stroke="midnightblue" points="1018.32,-182.43 1026.4,-175.58 1015.81,-175.9 1018.32,-182.43"/>
</g>
<!-- Node20&#45;&gt;Node3 -->
<g id="edge25" class="edge">
<title>Node20&#45;&gt;Node3</title>
<path fill="none" stroke="midnightblue" d="M1096.56,-145.43C1156.47,-120.31 1281.75,-67.8 1347.92,-40.06"/>
<polygon fill="midnightblue" stroke="midnightblue" points="1349.37,-43.25 1357.24,-36.15 1346.67,-36.79 1349.37,-43.25"/>
</g>
<!-- Node21&#45;&gt;Node20 -->
<g id="edge28" class="edge">
<title>Node21&#45;&gt;Node20</title>
<path fill="none" stroke="midnightblue" d="M1063,-212.4C1063,-204.64 1063,-194.81 1063,-185.86"/>
<polygon fill="midnightblue" stroke="midnightblue" points="1066.5,-185.58 1063,-175.58 1059.5,-185.58 1066.5,-185.58"/>
</g>
</g>
</svg>
