<?xml version="1.0" encoding="UTF-8" standalone="no"?>
<!DOCTYPE svg PUBLIC "-//W3C//DTD SVG 1.1//EN"
 "http://www.w3.org/Graphics/SVG/1.1/DTD/svg11.dtd">
<!-- Generated by graphviz version 2.43.0 (0)
 -->
<!-- Title: include/VoronoiMeshMaker/DataExporter/ExportTraits.h Pages: 1 -->
<svg width="359pt" height="173pt"
 viewBox="0.00 0.00 359.00 173.00" xmlns="http://www.w3.org/2000/svg" xmlns:xlink="http://www.w3.org/1999/xlink">
<g id="graph0" class="graph" transform="scale(1 1) rotate(0) translate(4 169)">
<title>include/VoronoiMeshMaker/DataExporter/ExportTraits.h</title>
<!-- Node1 -->
<g id="node1" class="node">
<title>Node1</title>
<g id="a_node1"><a xlink:title="Defines traits for exporting different types of geometric data.">
<polygon fill="#bfbfbf" stroke="black" points="99.5,-134.5 99.5,-164.5 254.5,-164.5 254.5,-134.5 99.5,-134.5"/>
<text text-anchor="start" x="107.5" y="-152.5" font-family="Helvetica,sans-Serif" font-size="10.00">include/VoronoiMeshMaker</text>
<text text-anchor="middle" x="177" y="-141.5" font-family="Helvetica,sans-Serif" font-size="10.00">/DataExporter/ExportTraits.h</text>
</a>
</g>
</g>
<!-- Node2 -->
<g id="node2" class="node">
<title>Node2</title>
<g id="a_node2"><a xlink:href="DataExporter_8h.html" target="_top" xlink:title="Defines the DataExporter class responsible for exporting geometric data in various formats.">
<polygon fill="none" stroke="black" points="5.5,-67.5 5.5,-97.5 166.5,-97.5 166.5,-67.5 5.5,-67.5"/>
<text text-anchor="start" x="13.5" y="-85.5" font-family="Helvetica,sans-Serif" font-size="10.00">include/VoronoiMeshMaker</text>
<text text-anchor="middle" x="86" y="-74.5" font-family="Helvetica,sans-Serif" font-size="10.00">/DataExporter/DataExporter.h</text>
</a>
</g>
</g>
<!-- Node1&#45;&gt;Node2 -->
<g id="edge1" class="edge">
<title>Node1&#45;&gt;Node2</title>
<path fill="none" stroke="midnightblue" d="M148.93,-128.45C134.93,-118.45 118.34,-106.6 105.71,-97.58"/>
<polygon fill="midnightblue" stroke="midnightblue" points="147.08,-131.43 157.25,-134.4 151.15,-125.74 147.08,-131.43"/>
</g>
<!-- Node4 -->
<g id="node4" class="node">
<title>Node4</title>
<g id="a_node4"><a xlink:href="ExportTraits_8cpp.html" target="_top" xlink:title="Implements the specialized export behavior for different geometric data types.">
<polygon fill="none" stroke="black" points="185,-67.5 185,-97.5 351,-97.5 351,-67.5 185,-67.5"/>
<text text-anchor="start" x="193" y="-85.5" font-family="Helvetica,sans-Serif" font-size="10.00">src/VoronoiMeshMaker</text>
<text text-anchor="middle" x="268" y="-74.5" font-family="Helvetica,sans-Serif" font-size="10.00">/DataExporter/ExportTraits.cpp</text>
</a>
</g>
</g>
<!-- Node1&#45;&gt;Node4 -->
<g id="edge3" class="edge">
<title>Node1&#45;&gt;Node4</title>
<path fill="none" stroke="midnightblue" d="M205.07,-128.45C219.07,-118.45 235.66,-106.6 248.29,-97.58"/>
<polygon fill="midnightblue" stroke="midnightblue" points="202.85,-125.74 196.75,-134.4 206.92,-131.43 202.85,-125.74"/>
</g>
<!-- Node3 -->
<g id="node3" class="node">
<title>Node3</title>
<g id="a_node3"><a xlink:href="DataExporter_8cpp.html" target="_top" xlink:title="Implements the DataExporter class, handling the export of geometric data.">
<polygon fill="none" stroke="black" points="0,-0.5 0,-30.5 172,-30.5 172,-0.5 0,-0.5"/>
<text text-anchor="start" x="8" y="-18.5" font-family="Helvetica,sans-Serif" font-size="10.00">src/VoronoiMeshMaker</text>
<text text-anchor="middle" x="86" y="-7.5" font-family="Helvetica,sans-Serif" font-size="10.00">/DataExporter/DataExporter.cpp</text>
</a>
</g>
</g>
<!-- Node2&#45;&gt;Node3 -->
<g id="edge2" class="edge">
<title>Node2&#45;&gt;Node3</title>
<path fill="none" stroke="midnightblue" d="M86,-57.11C86,-48.15 86,-38.32 86,-30.58"/>
<polygon fill="midnightblue" stroke="midnightblue" points="82.5,-57.4 86,-67.4 89.5,-57.4 82.5,-57.4"/>
</g>
</g>
</svg>
