<?xml version="1.0" encoding="UTF-8" standalone="no"?>
<!DOCTYPE svg PUBLIC "-//W3C//DTD SVG 1.1//EN"
 "http://www.w3.org/Graphics/SVG/1.1/DTD/svg11.dtd">
<!-- Generated by graphviz version 2.43.0 (0)
 -->
<!-- Title: src/VoronoiMeshMaker/DataExporter/ExportStrategyFactory.cpp Pages: 1 -->
<svg width="542pt" height="307pt"
 viewBox="0.00 0.00 541.50 307.00" xmlns="http://www.w3.org/2000/svg" xmlns:xlink="http://www.w3.org/1999/xlink">
<g id="graph0" class="graph" transform="scale(1 1) rotate(0) translate(4 303)">
<title>src/VoronoiMeshMaker/DataExporter/ExportStrategyFactory.cpp</title>
<!-- Node1 -->
<g id="node1" class="node">
<title>Node1</title>
<g id="a_node1"><a xlink:title="Implements the factory class for creating export strategies.">
<polygon fill="#bfbfbf" stroke="black" points="127.5,-257.5 127.5,-298.5 287.5,-298.5 287.5,-257.5 127.5,-257.5"/>
<text text-anchor="start" x="135.5" y="-286.5" font-family="Helvetica,sans-Serif" font-size="10.00">src/VoronoiMeshMaker</text>
<text text-anchor="start" x="135.5" y="-275.5" font-family="Helvetica,sans-Serif" font-size="10.00">/DataExporter/ExportStrategy</text>
<text text-anchor="middle" x="207.5" y="-264.5" font-family="Helvetica,sans-Serif" font-size="10.00">Factory.cpp</text>
</a>
</g>
</g>
<!-- Node2 -->
<g id="node2" class="node">
<title>Node2</title>
<g id="a_node2"><a xlink:href="ExportStrategyFactory_8h.html" target="_top" xlink:title="Factory class for creating export strategies based on the specified format.">
<polygon fill="none" stroke="black" points="60.5,-190.5 60.5,-220.5 238.5,-220.5 238.5,-190.5 60.5,-190.5"/>
<text text-anchor="start" x="68.5" y="-208.5" font-family="Helvetica,sans-Serif" font-size="10.00">VoronoiMeshMaker/DataExporter</text>
<text text-anchor="middle" x="149.5" y="-197.5" font-family="Helvetica,sans-Serif" font-size="10.00">/ExportStrategyFactory.h</text>
</a>
</g>
</g>
<!-- Node1&#45;&gt;Node2 -->
<g id="edge1" class="edge">
<title>Node1&#45;&gt;Node2</title>
<path fill="none" stroke="midnightblue" d="M191.34,-257.36C184.06,-248.5 175.41,-238 167.88,-228.84"/>
<polygon fill="midnightblue" stroke="midnightblue" points="170.4,-226.39 161.34,-220.89 164.99,-230.84 170.4,-226.39"/>
</g>
<!-- Node4 -->
<g id="node4" class="node">
<title>Node4</title>
<g id="a_node4"><a xlink:title=" ">
<polygon fill="none" stroke="#bfbfbf" points="0,-129 0,-148 65,-148 65,-129 0,-129"/>
<text text-anchor="middle" x="32.5" y="-136" font-family="Helvetica,sans-Serif" font-size="10.00">stdexcept</text>
</a>
</g>
</g>
<!-- Node1&#45;&gt;Node4 -->
<g id="edge12" class="edge">
<title>Node1&#45;&gt;Node4</title>
<path fill="none" stroke="midnightblue" d="M127.25,-264.38C99.75,-256.26 71.02,-242.92 51.5,-221 36.21,-203.83 32.56,-176.74 32.01,-158.56"/>
<polygon fill="midnightblue" stroke="midnightblue" points="35.51,-158.32 31.99,-148.33 28.51,-158.33 35.51,-158.32"/>
</g>
<!-- Node5 -->
<g id="node5" class="node">
<title>Node5</title>
<g id="a_node5"><a xlink:href="VTKExportStrategy_8h.html" target="_top" xlink:title="Defines the VTK export strategy for geometric data.">
<polygon fill="none" stroke="black" points="159.5,-123.5 159.5,-153.5 337.5,-153.5 337.5,-123.5 159.5,-123.5"/>
<text text-anchor="start" x="167.5" y="-141.5" font-family="Helvetica,sans-Serif" font-size="10.00">VoronoiMeshMaker/DataExporter</text>
<text text-anchor="middle" x="248.5" y="-130.5" font-family="Helvetica,sans-Serif" font-size="10.00">/VTKExportStrategy.h</text>
</a>
</g>
</g>
<!-- Node1&#45;&gt;Node5 -->
<g id="edge10" class="edge">
<title>Node1&#45;&gt;Node5</title>
<path fill="none" stroke="midnightblue" d="M226.02,-257.41C234.27,-247.34 243.12,-234.4 247.5,-221 253.57,-202.47 253.39,-180.27 251.94,-163.72"/>
<polygon fill="midnightblue" stroke="midnightblue" points="255.41,-163.32 250.85,-153.76 248.45,-164.08 255.41,-163.32"/>
</g>
<!-- Node9 -->
<g id="node9" class="node">
<title>Node9</title>
<g id="a_node9"><a xlink:href="HDF5ExportStrategy_8h.html" target="_top" xlink:title="Defines the HDF5 export strategy for geometric data.">
<polygon fill="none" stroke="black" points="355.5,-123.5 355.5,-153.5 533.5,-153.5 533.5,-123.5 355.5,-123.5"/>
<text text-anchor="start" x="363.5" y="-141.5" font-family="Helvetica,sans-Serif" font-size="10.00">VoronoiMeshMaker/DataExporter</text>
<text text-anchor="middle" x="444.5" y="-130.5" font-family="Helvetica,sans-Serif" font-size="10.00">/HDF5ExportStrategy.h</text>
</a>
</g>
</g>
<!-- Node1&#45;&gt;Node9 -->
<g id="edge11" class="edge">
<title>Node1&#45;&gt;Node9</title>
<path fill="none" stroke="midnightblue" d="M241.2,-257.45C286.52,-231.16 366.57,-184.71 411.51,-158.64"/>
<polygon fill="midnightblue" stroke="midnightblue" points="413.38,-161.6 420.28,-153.55 409.87,-155.54 413.38,-161.6"/>
</g>
<!-- Node3 -->
<g id="node3" class="node">
<title>Node3</title>
<g id="a_node3"><a xlink:title=" ">
<polygon fill="none" stroke="#bfbfbf" points="83.5,-129 83.5,-148 141.5,-148 141.5,-129 83.5,-129"/>
<text text-anchor="middle" x="112.5" y="-136" font-family="Helvetica,sans-Serif" font-size="10.00">memory</text>
</a>
</g>
</g>
<!-- Node2&#45;&gt;Node3 -->
<g id="edge2" class="edge">
<title>Node2&#45;&gt;Node3</title>
<path fill="none" stroke="midnightblue" d="M141.47,-190.4C135.87,-180.56 128.37,-167.38 122.4,-156.89"/>
<polygon fill="midnightblue" stroke="midnightblue" points="125.44,-155.15 117.45,-148.19 119.35,-158.62 125.44,-155.15"/>
</g>
<!-- Node2&#45;&gt;Node4 -->
<g id="edge3" class="edge">
<title>Node2&#45;&gt;Node4</title>
<path fill="none" stroke="midnightblue" d="M124.11,-190.4C104.13,-179.29 76.46,-163.92 56.77,-152.98"/>
<polygon fill="midnightblue" stroke="midnightblue" points="58.25,-149.8 47.81,-148.01 54.85,-155.92 58.25,-149.8"/>
</g>
<!-- Node2&#45;&gt;Node5 -->
<g id="edge4" class="edge">
<title>Node2&#45;&gt;Node5</title>
<path fill="none" stroke="midnightblue" d="M170.98,-190.4C184.86,-181.28 203.13,-169.29 218.44,-159.24"/>
<polygon fill="midnightblue" stroke="midnightblue" points="220.62,-161.99 227.06,-153.58 216.78,-156.14 220.62,-161.99"/>
</g>
<!-- Node2&#45;&gt;Node9 -->
<g id="edge8" class="edge">
<title>Node2&#45;&gt;Node9</title>
<path fill="none" stroke="midnightblue" d="M213.15,-190.48C259.5,-180.26 322.39,-166.41 370.9,-155.72"/>
<polygon fill="midnightblue" stroke="midnightblue" points="371.7,-159.12 380.71,-153.55 370.19,-152.29 371.7,-159.12"/>
</g>
<!-- Node6 -->
<g id="node6" class="node">
<title>Node6</title>
<g id="a_node6"><a xlink:href="ExportStrategy_8h.html" target="_top" xlink:title="Defines the interface for exporting geometric data in various formats.">
<polygon fill="none" stroke="black" points="257.5,-56.5 257.5,-86.5 435.5,-86.5 435.5,-56.5 257.5,-56.5"/>
<text text-anchor="start" x="265.5" y="-74.5" font-family="Helvetica,sans-Serif" font-size="10.00">VoronoiMeshMaker/DataExporter</text>
<text text-anchor="middle" x="346.5" y="-63.5" font-family="Helvetica,sans-Serif" font-size="10.00">/ExportStrategy.h</text>
</a>
</g>
</g>
<!-- Node5&#45;&gt;Node6 -->
<g id="edge5" class="edge">
<title>Node5&#45;&gt;Node6</title>
<path fill="none" stroke="midnightblue" d="M269.76,-123.4C283.51,-114.28 301.59,-102.29 316.74,-92.24"/>
<polygon fill="midnightblue" stroke="midnightblue" points="318.88,-95.02 325.28,-86.58 315.01,-89.19 318.88,-95.02"/>
</g>
<!-- Node7 -->
<g id="node7" class="node">
<title>Node7</title>
<g id="a_node7"><a xlink:title=" ">
<polygon fill="none" stroke="#bfbfbf" points="265.5,-0.5 265.5,-19.5 309.5,-19.5 309.5,-0.5 265.5,-0.5"/>
<text text-anchor="middle" x="287.5" y="-7.5" font-family="Helvetica,sans-Serif" font-size="10.00">string</text>
</a>
</g>
</g>
<!-- Node6&#45;&gt;Node7 -->
<g id="edge6" class="edge">
<title>Node6&#45;&gt;Node7</title>
<path fill="none" stroke="midnightblue" d="M332.52,-56.4C323.77,-47.58 312.47,-36.18 303.38,-27.02"/>
<polygon fill="midnightblue" stroke="midnightblue" points="305.61,-24.29 296.09,-19.66 300.64,-29.22 305.61,-24.29"/>
</g>
<!-- Node8 -->
<g id="node8" class="node">
<title>Node8</title>
<g id="a_node8"><a xlink:title=" ">
<polygon fill="none" stroke="#bfbfbf" points="327.5,-0.5 327.5,-19.5 485.5,-19.5 485.5,-0.5 327.5,-0.5"/>
<text text-anchor="middle" x="406.5" y="-7.5" font-family="Helvetica,sans-Serif" font-size="10.00">VoronoiMeshMaker/Misc/ID.h</text>
</a>
</g>
</g>
<!-- Node6&#45;&gt;Node8 -->
<g id="edge7" class="edge">
<title>Node6&#45;&gt;Node8</title>
<path fill="none" stroke="midnightblue" d="M360.72,-56.4C369.71,-47.49 381.34,-35.95 390.63,-26.74"/>
<polygon fill="midnightblue" stroke="midnightblue" points="393.13,-29.18 397.77,-19.66 388.2,-24.21 393.13,-29.18"/>
</g>
<!-- Node9&#45;&gt;Node6 -->
<g id="edge9" class="edge">
<title>Node9&#45;&gt;Node6</title>
<path fill="none" stroke="midnightblue" d="M423.24,-123.4C409.49,-114.28 391.41,-102.29 376.26,-92.24"/>
<polygon fill="midnightblue" stroke="midnightblue" points="377.99,-89.19 367.72,-86.58 374.12,-95.02 377.99,-89.19"/>
</g>
</g>
</svg>
