<?xml version="1.0" encoding="UTF-8" standalone="no"?>
<!DOCTYPE svg PUBLIC "-//W3C//DTD SVG 1.1//EN"
 "http://www.w3.org/Graphics/SVG/1.1/DTD/svg11.dtd">
<!-- Generated by graphviz version 2.43.0 (0)
 -->
<!-- Title: include/VoronoiMeshMaker/Exporter/ExporterTraits.h Pages: 1 -->
<svg width="1627pt" height="318pt"
 viewBox="0.00 0.00 1626.50 318.00" xmlns="http://www.w3.org/2000/svg" xmlns:xlink="http://www.w3.org/1999/xlink">
<g id="graph0" class="graph" transform="scale(1 1) rotate(0) translate(4 314)">
<title>include/VoronoiMeshMaker/Exporter/ExporterTraits.h</title>
<!-- Node1 -->
<g id="node1" class="node">
<title>Node1</title>
<g id="a_node1"><a xlink:title="Declares the ExporterTraits struct for data exporting.">
<polygon fill="#bfbfbf" stroke="black" points="719.5,-279.5 719.5,-309.5 868.5,-309.5 868.5,-279.5 719.5,-279.5"/>
<text text-anchor="start" x="727.5" y="-297.5" font-family="Helvetica,sans-Serif" font-size="10.00">include/VoronoiMeshMaker</text>
<text text-anchor="middle" x="794" y="-286.5" font-family="Helvetica,sans-Serif" font-size="10.00">/Exporter/ExporterTraits.h</text>
</a>
</g>
</g>
<!-- Node2 -->
<g id="node2" class="node">
<title>Node2</title>
<g id="a_node2"><a xlink:title=" ">
<polygon fill="none" stroke="#bfbfbf" points="0,-212.5 0,-242.5 136,-242.5 136,-212.5 0,-212.5"/>
<text text-anchor="start" x="8" y="-230.5" font-family="Helvetica,sans-Serif" font-size="10.00">VoronoiMeshMaker/Misc</text>
<text text-anchor="middle" x="68" y="-219.5" font-family="Helvetica,sans-Serif" font-size="10.00">/namespace_config.h</text>
</a>
</g>
</g>
<!-- Node1&#45;&gt;Node2 -->
<g id="edge1" class="edge">
<title>Node1&#45;&gt;Node2</title>
<path fill="none" stroke="midnightblue" d="M719.26,-290.32C600.12,-284.68 359.64,-270.9 146.5,-243.11"/>
<polygon fill="midnightblue" stroke="midnightblue" points="146.74,-239.61 136.37,-241.77 145.83,-246.55 146.74,-239.61"/>
</g>
<!-- Node3 -->
<g id="node3" class="node">
<title>Node3</title>
<g id="a_node3"><a xlink:title=" ">
<polygon fill="none" stroke="#bfbfbf" points="154.5,-212.5 154.5,-242.5 297.5,-242.5 297.5,-212.5 154.5,-212.5"/>
<text text-anchor="start" x="162.5" y="-230.5" font-family="Helvetica,sans-Serif" font-size="10.00">VoronoiMeshMaker/Shape</text>
<text text-anchor="middle" x="226" y="-219.5" font-family="Helvetica,sans-Serif" font-size="10.00">/Shape2D.h</text>
</a>
</g>
</g>
<!-- Node1&#45;&gt;Node3 -->
<g id="edge2" class="edge">
<title>Node1&#45;&gt;Node3</title>
<path fill="none" stroke="midnightblue" d="M719.38,-287.56C625.52,-279.68 459.22,-264.41 307.86,-243.21"/>
<polygon fill="midnightblue" stroke="midnightblue" points="308.31,-239.74 297.92,-241.8 307.33,-246.67 308.31,-239.74"/>
</g>
<!-- Node4 -->
<g id="node4" class="node">
<title>Node4</title>
<g id="a_node4"><a xlink:title=" ">
<polygon fill="none" stroke="#bfbfbf" points="315.5,-212.5 315.5,-242.5 458.5,-242.5 458.5,-212.5 315.5,-212.5"/>
<text text-anchor="start" x="323.5" y="-230.5" font-family="Helvetica,sans-Serif" font-size="10.00">VoronoiMeshMaker/Shape</text>
<text text-anchor="middle" x="387" y="-219.5" font-family="Helvetica,sans-Serif" font-size="10.00">/Shape3D.h</text>
</a>
</g>
</g>
<!-- Node1&#45;&gt;Node4 -->
<g id="edge3" class="edge">
<title>Node1&#45;&gt;Node4</title>
<path fill="none" stroke="midnightblue" d="M719.47,-282.46C655.67,-272.9 561.08,-258.44 468.63,-243.08"/>
<polygon fill="midnightblue" stroke="midnightblue" points="468.98,-239.59 458.54,-241.4 467.83,-246.5 468.98,-239.59"/>
</g>
<!-- Node5 -->
<g id="node5" class="node">
<title>Node5</title>
<g id="a_node5"><a xlink:href="Nodes2D_8h.html" target="_top" xlink:title="Declares the Nodes2D class for representing 2D nodes.">
<polygon fill="none" stroke="black" points="477,-212.5 477,-242.5 621,-242.5 621,-212.5 477,-212.5"/>
<text text-anchor="start" x="485" y="-230.5" font-family="Helvetica,sans-Serif" font-size="10.00">VoronoiMeshMaker/Nodes</text>
<text text-anchor="middle" x="549" y="-219.5" font-family="Helvetica,sans-Serif" font-size="10.00">/Nodes2D/Nodes2D.h</text>
</a>
</g>
</g>
<!-- Node1&#45;&gt;Node5 -->
<g id="edge4" class="edge">
<title>Node1&#45;&gt;Node5</title>
<path fill="none" stroke="midnightblue" d="M741.14,-279.48C703.27,-269.43 652.11,-255.86 612.1,-245.24"/>
<polygon fill="midnightblue" stroke="midnightblue" points="612.75,-241.79 602.19,-242.61 610.96,-248.56 612.75,-241.79"/>
</g>
<!-- Node15 -->
<g id="node15" class="node">
<title>Node15</title>
<g id="a_node15"><a xlink:href="Nodes3D_8h.html" target="_top" xlink:title="Declares the Nodes3D class for representing 3D nodes.">
<polygon fill="none" stroke="black" points="639,-212.5 639,-242.5 783,-242.5 783,-212.5 639,-212.5"/>
<text text-anchor="start" x="647" y="-230.5" font-family="Helvetica,sans-Serif" font-size="10.00">VoronoiMeshMaker/Nodes</text>
<text text-anchor="middle" x="711" y="-219.5" font-family="Helvetica,sans-Serif" font-size="10.00">/Nodes3D/Nodes3D.h</text>
</a>
</g>
</g>
<!-- Node1&#45;&gt;Node15 -->
<g id="edge17" class="edge">
<title>Node1&#45;&gt;Node15</title>
<path fill="none" stroke="midnightblue" d="M775.99,-279.4C764.57,-270.45 749.61,-258.74 736.92,-248.8"/>
<polygon fill="midnightblue" stroke="midnightblue" points="739.01,-245.99 728.97,-242.58 734.69,-251.5 739.01,-245.99"/>
</g>
<!-- Node16 -->
<g id="node16" class="node">
<title>Node16</title>
<g id="a_node16"><a xlink:href="Voronoi2D_8h.html" target="_top" xlink:title="Declares the Voronoi2D class for representing 2D Voronoi diagrams.">
<polygon fill="none" stroke="black" points="801.5,-212.5 801.5,-242.5 952.5,-242.5 952.5,-212.5 801.5,-212.5"/>
<text text-anchor="start" x="809.5" y="-230.5" font-family="Helvetica,sans-Serif" font-size="10.00">VoronoiMeshMaker/Voronoi</text>
<text text-anchor="middle" x="877" y="-219.5" font-family="Helvetica,sans-Serif" font-size="10.00">/Voronoi2D/Voronoi2D.h</text>
</a>
</g>
</g>
<!-- Node1&#45;&gt;Node16 -->
<g id="edge19" class="edge">
<title>Node1&#45;&gt;Node16</title>
<path fill="none" stroke="midnightblue" d="M812.01,-279.4C823.43,-270.45 838.39,-258.74 851.08,-248.8"/>
<polygon fill="midnightblue" stroke="midnightblue" points="853.31,-251.5 859.03,-242.58 848.99,-245.99 853.31,-251.5"/>
</g>
<!-- Node18 -->
<g id="node18" class="node">
<title>Node18</title>
<g id="a_node18"><a xlink:href="Voronoi3D_8h.html" target="_top" xlink:title="Declares the Voronoi3D class for representing 3D Voronoi diagrams.">
<polygon fill="none" stroke="black" points="970.5,-212.5 970.5,-242.5 1121.5,-242.5 1121.5,-212.5 970.5,-212.5"/>
<text text-anchor="start" x="978.5" y="-230.5" font-family="Helvetica,sans-Serif" font-size="10.00">VoronoiMeshMaker/Voronoi</text>
<text text-anchor="middle" x="1046" y="-219.5" font-family="Helvetica,sans-Serif" font-size="10.00">/Voronoi3D/Voronoi3D.h</text>
</a>
</g>
</g>
<!-- Node1&#45;&gt;Node18 -->
<g id="edge23" class="edge">
<title>Node1&#45;&gt;Node18</title>
<path fill="none" stroke="midnightblue" d="M848.37,-279.48C887.4,-269.41 940.16,-255.8 981.35,-245.17"/>
<polygon fill="midnightblue" stroke="midnightblue" points="982.48,-248.5 991.29,-242.61 980.74,-241.72 982.48,-248.5"/>
</g>
<!-- Node19 -->
<g id="node19" class="node">
<title>Node19</title>
<g id="a_node19"><a xlink:title=" ">
<polygon fill="none" stroke="#bfbfbf" points="1140,-212.5 1140,-242.5 1276,-242.5 1276,-212.5 1140,-212.5"/>
<text text-anchor="start" x="1148" y="-230.5" font-family="Helvetica,sans-Serif" font-size="10.00">VoronoiMeshMaker/Misc</text>
<text text-anchor="middle" x="1208" y="-219.5" font-family="Helvetica,sans-Serif" font-size="10.00">/ExportOptions.h</text>
</a>
</g>
</g>
<!-- Node1&#45;&gt;Node19 -->
<g id="edge25" class="edge">
<title>Node1&#45;&gt;Node19</title>
<path fill="none" stroke="midnightblue" d="M868.75,-283.12C934.79,-273.75 1033.96,-259.24 1129.47,-243.23"/>
<polygon fill="midnightblue" stroke="midnightblue" points="1130.31,-246.63 1139.59,-241.52 1129.15,-239.73 1130.31,-246.63"/>
</g>
<!-- Node20 -->
<g id="node20" class="node">
<title>Node20</title>
<g id="a_node20"><a xlink:title=" ">
<polygon fill="none" stroke="#bfbfbf" points="1294.5,-212.5 1294.5,-242.5 1447.5,-242.5 1447.5,-212.5 1294.5,-212.5"/>
<text text-anchor="start" x="1302.5" y="-230.5" font-family="Helvetica,sans-Serif" font-size="10.00">VoronoiMeshMaker/Formats</text>
<text text-anchor="middle" x="1371" y="-219.5" font-family="Helvetica,sans-Serif" font-size="10.00">/VTKFormat.h</text>
</a>
</g>
</g>
<!-- Node1&#45;&gt;Node20 -->
<g id="edge26" class="edge">
<title>Node1&#45;&gt;Node20</title>
<path fill="none" stroke="midnightblue" d="M868.63,-287.33C962.94,-279.2 1130.49,-263.63 1284.05,-243.07"/>
<polygon fill="midnightblue" stroke="midnightblue" points="1284.7,-246.52 1294.14,-241.71 1283.77,-239.58 1284.7,-246.52"/>
</g>
<!-- Node21 -->
<g id="node21" class="node">
<title>Node21</title>
<g id="a_node21"><a xlink:title=" ">
<polygon fill="none" stroke="#bfbfbf" points="1465.5,-212.5 1465.5,-242.5 1618.5,-242.5 1618.5,-212.5 1465.5,-212.5"/>
<text text-anchor="start" x="1473.5" y="-230.5" font-family="Helvetica,sans-Serif" font-size="10.00">VoronoiMeshMaker/Formats</text>
<text text-anchor="middle" x="1542" y="-219.5" font-family="Helvetica,sans-Serif" font-size="10.00">/HDF5Format.h</text>
</a>
</g>
</g>
<!-- Node1&#45;&gt;Node21 -->
<g id="edge27" class="edge">
<title>Node1&#45;&gt;Node21</title>
<path fill="none" stroke="midnightblue" d="M868.8,-290.07C989.96,-284.02 1236.85,-269.61 1455.09,-243.17"/>
<polygon fill="midnightblue" stroke="midnightblue" points="1455.63,-246.63 1465.14,-241.94 1454.79,-239.68 1455.63,-246.63"/>
</g>
<!-- Node6 -->
<g id="node6" class="node">
<title>Node6</title>
<g id="a_node6"><a xlink:href="Nodes_8h.html" target="_top" xlink:title="Declares the Nodes base class for representing collections of nodes.">
<polygon fill="none" stroke="black" points="639,-145.5 639,-175.5 783,-175.5 783,-145.5 639,-145.5"/>
<text text-anchor="start" x="647" y="-163.5" font-family="Helvetica,sans-Serif" font-size="10.00">VoronoiMeshMaker/Nodes</text>
<text text-anchor="middle" x="711" y="-152.5" font-family="Helvetica,sans-Serif" font-size="10.00">/Nodes.h</text>
</a>
</g>
</g>
<!-- Node5&#45;&gt;Node6 -->
<g id="edge5" class="edge">
<title>Node5&#45;&gt;Node6</title>
<path fill="none" stroke="midnightblue" d="M584.15,-212.4C608.25,-202.73 640.41,-189.82 666.32,-179.43"/>
<polygon fill="midnightblue" stroke="midnightblue" points="667.94,-182.55 675.92,-175.58 665.33,-176.05 667.94,-182.55"/>
</g>
<!-- Node7 -->
<g id="node7" class="node">
<title>Node7</title>
<g id="a_node7"><a xlink:href="namespace_8h.html" target="_top" xlink:title=" ">
<polygon fill="none" stroke="black" points="682,-6 682,-36 818,-36 818,-6 682,-6"/>
<text text-anchor="start" x="690" y="-24" font-family="Helvetica,sans-Serif" font-size="10.00">VoronoiMeshMaker/Misc</text>
<text text-anchor="middle" x="750" y="-13" font-family="Helvetica,sans-Serif" font-size="10.00">/namespace.h</text>
</a>
</g>
</g>
<!-- Node5&#45;&gt;Node7 -->
<g id="edge15" class="edge">
<title>Node5&#45;&gt;Node7</title>
<path fill="none" stroke="midnightblue" d="M562.82,-212.44C597.38,-177.27 687.79,-85.3 728.99,-43.37"/>
<polygon fill="midnightblue" stroke="midnightblue" points="731.57,-45.74 736.09,-36.15 726.58,-40.83 731.57,-45.74"/>
</g>
<!-- Node8 -->
<g id="node8" class="node">
<title>Node8</title>
<g id="a_node8"><a xlink:href="type_8h.html" target="_top" xlink:title="Defines common geometric and numeric types used in the VoronoiMeshMaker library.">
<polygon fill="none" stroke="black" points="447,-78.5 447,-108.5 583,-108.5 583,-78.5 447,-78.5"/>
<text text-anchor="start" x="455" y="-96.5" font-family="Helvetica,sans-Serif" font-size="10.00">VoronoiMeshMaker/Misc</text>
<text text-anchor="middle" x="515" y="-85.5" font-family="Helvetica,sans-Serif" font-size="10.00">/type.h</text>
</a>
</g>
</g>
<!-- Node5&#45;&gt;Node8 -->
<g id="edge16" class="edge">
<title>Node5&#45;&gt;Node8</title>
<path fill="none" stroke="midnightblue" d="M545.36,-212.37C539.58,-189.94 528.25,-145.92 521.18,-118.49"/>
<polygon fill="midnightblue" stroke="midnightblue" points="524.5,-117.34 518.61,-108.52 517.72,-119.08 524.5,-117.34"/>
</g>
<!-- Node6&#45;&gt;Node7 -->
<g id="edge6" class="edge">
<title>Node6&#45;&gt;Node7</title>
<path fill="none" stroke="midnightblue" d="M715.03,-145.3C721.68,-121.84 735.05,-74.7 743.19,-45.99"/>
<polygon fill="midnightblue" stroke="midnightblue" points="746.58,-46.9 745.94,-36.33 739.84,-44.99 746.58,-46.9"/>
</g>
<!-- Node6&#45;&gt;Node8 -->
<g id="edge7" class="edge">
<title>Node6&#45;&gt;Node8</title>
<path fill="none" stroke="midnightblue" d="M668.47,-145.4C638.68,-135.52 598.68,-122.25 566.99,-111.74"/>
<polygon fill="midnightblue" stroke="midnightblue" points="568.04,-108.4 557.45,-108.58 565.84,-115.05 568.04,-108.4"/>
</g>
<!-- Node8&#45;&gt;Node7 -->
<g id="edge14" class="edge">
<title>Node8&#45;&gt;Node7</title>
<path fill="none" stroke="midnightblue" d="M561.71,-78.49C599.55,-67.14 653,-51.1 693.3,-39.01"/>
<polygon fill="midnightblue" stroke="midnightblue" points="694.4,-42.33 702.98,-36.11 692.39,-35.63 694.4,-42.33"/>
</g>
<!-- Node9 -->
<g id="node9" class="node">
<title>Node9</title>
<g id="a_node9"><a xlink:title=" ">
<polygon fill="none" stroke="#bfbfbf" points="556,-11.5 556,-30.5 588,-30.5 588,-11.5 556,-11.5"/>
<text text-anchor="middle" x="572" y="-18.5" font-family="Helvetica,sans-Serif" font-size="10.00">list</text>
</a>
</g>
</g>
<!-- Node8&#45;&gt;Node9 -->
<g id="edge8" class="edge">
<title>Node8&#45;&gt;Node9</title>
<path fill="none" stroke="midnightblue" d="M526.53,-78.23C535.75,-66.84 548.68,-50.84 558.4,-38.82"/>
<polygon fill="midnightblue" stroke="midnightblue" points="561.24,-40.87 564.81,-30.89 555.8,-36.47 561.24,-40.87"/>
</g>
<!-- Node10 -->
<g id="node10" class="node">
<title>Node10</title>
<g id="a_node10"><a xlink:title=" ">
<polygon fill="none" stroke="#bfbfbf" points="606,-11.5 606,-30.5 664,-30.5 664,-11.5 606,-11.5"/>
<text text-anchor="middle" x="635" y="-18.5" font-family="Helvetica,sans-Serif" font-size="10.00">memory</text>
</a>
</g>
</g>
<!-- Node8&#45;&gt;Node10 -->
<g id="edge9" class="edge">
<title>Node8&#45;&gt;Node10</title>
<path fill="none" stroke="midnightblue" d="M539,-78.4C560.11,-66 590.67,-48.05 611.6,-35.75"/>
<polygon fill="midnightblue" stroke="midnightblue" points="613.63,-38.62 620.47,-30.53 610.08,-32.58 613.63,-38.62"/>
</g>
<!-- Node11 -->
<g id="node11" class="node">
<title>Node11</title>
<g id="a_node11"><a xlink:title=" ">
<polygon fill="none" stroke="#bfbfbf" points="81.5,-11.5 81.5,-30.5 128.5,-30.5 128.5,-11.5 81.5,-11.5"/>
<text text-anchor="middle" x="105" y="-18.5" font-family="Helvetica,sans-Serif" font-size="10.00">vector</text>
</a>
</g>
</g>
<!-- Node8&#45;&gt;Node11 -->
<g id="edge10" class="edge">
<title>Node8&#45;&gt;Node11</title>
<path fill="none" stroke="midnightblue" d="M446.73,-92C369.42,-89.48 240.71,-79.35 137,-42 132.84,-40.5 128.65,-38.4 124.73,-36.12"/>
<polygon fill="midnightblue" stroke="midnightblue" points="126.54,-33.13 116.24,-30.68 122.77,-39.02 126.54,-33.13"/>
</g>
<!-- Node12 -->
<g id="node12" class="node">
<title>Node12</title>
<g id="a_node12"><a xlink:title=" ">
<polygon fill="none" stroke="#bfbfbf" points="146.5,-0.5 146.5,-41.5 275.5,-41.5 275.5,-0.5 146.5,-0.5"/>
<text text-anchor="start" x="154.5" y="-29.5" font-family="Helvetica,sans-Serif" font-size="10.00">CGAL/Exact_predicates</text>
<text text-anchor="start" x="154.5" y="-18.5" font-family="Helvetica,sans-Serif" font-size="10.00">_inexact_constructions</text>
<text text-anchor="middle" x="211" y="-7.5" font-family="Helvetica,sans-Serif" font-size="10.00">_kernel.h</text>
</a>
</g>
</g>
<!-- Node8&#45;&gt;Node12 -->
<g id="edge11" class="edge">
<title>Node8&#45;&gt;Node12</title>
<path fill="none" stroke="midnightblue" d="M446.81,-78.57C403.13,-69.42 345.03,-56.83 285.74,-42.38"/>
<polygon fill="midnightblue" stroke="midnightblue" points="286.38,-38.93 275.83,-39.95 284.71,-45.73 286.38,-38.93"/>
</g>
<!-- Node13 -->
<g id="node13" class="node">
<title>Node13</title>
<g id="a_node13"><a xlink:title=" ">
<polygon fill="none" stroke="#bfbfbf" points="293.5,-11.5 293.5,-30.5 398.5,-30.5 398.5,-11.5 293.5,-11.5"/>
<text text-anchor="middle" x="346" y="-18.5" font-family="Helvetica,sans-Serif" font-size="10.00">CGAL/Polygon_2.h</text>
</a>
</g>
</g>
<!-- Node8&#45;&gt;Node13 -->
<g id="edge12" class="edge">
<title>Node8&#45;&gt;Node13</title>
<path fill="none" stroke="midnightblue" d="M481.21,-78.4C450.4,-65.55 405.32,-46.74 375.82,-34.44"/>
<polygon fill="midnightblue" stroke="midnightblue" points="377.03,-31.15 366.46,-30.53 374.34,-37.61 377.03,-31.15"/>
</g>
<!-- Node14 -->
<g id="node14" class="node">
<title>Node14</title>
<g id="a_node14"><a xlink:title=" ">
<polygon fill="none" stroke="#bfbfbf" points="416.5,-11.5 416.5,-30.5 537.5,-30.5 537.5,-11.5 416.5,-11.5"/>
<text text-anchor="middle" x="477" y="-18.5" font-family="Helvetica,sans-Serif" font-size="10.00">CGAL/Polyhedron_3.h</text>
</a>
</g>
</g>
<!-- Node8&#45;&gt;Node14 -->
<g id="edge13" class="edge">
<title>Node8&#45;&gt;Node14</title>
<path fill="none" stroke="midnightblue" d="M507.31,-78.23C501.35,-67.17 493.04,-51.77 486.64,-39.88"/>
<polygon fill="midnightblue" stroke="midnightblue" points="489.62,-38.04 481.79,-30.89 483.46,-41.36 489.62,-38.04"/>
</g>
<!-- Node15&#45;&gt;Node6 -->
<g id="edge18" class="edge">
<title>Node15&#45;&gt;Node6</title>
<path fill="none" stroke="midnightblue" d="M711,-212.4C711,-204.64 711,-194.81 711,-185.86"/>
<polygon fill="midnightblue" stroke="midnightblue" points="714.5,-185.58 711,-175.58 707.5,-185.58 714.5,-185.58"/>
</g>
<!-- Node16&#45;&gt;Node8 -->
<g id="edge22" class="edge">
<title>Node16&#45;&gt;Node8</title>
<path fill="none" stroke="midnightblue" d="M864.27,-212.47C844.94,-191.5 808.66,-153.51 792,-145 729.89,-113.27 650.97,-101.22 593.26,-96.77"/>
<polygon fill="midnightblue" stroke="midnightblue" points="593.33,-93.27 583.11,-96.05 592.84,-100.25 593.33,-93.27"/>
</g>
<!-- Node17 -->
<g id="node17" class="node">
<title>Node17</title>
<g id="a_node17"><a xlink:href="Voronoi_8h.html" target="_top" xlink:title="Declares the Voronoi base class for representing Voronoi diagrams.">
<polygon fill="none" stroke="black" points="839.5,-145.5 839.5,-175.5 990.5,-175.5 990.5,-145.5 839.5,-145.5"/>
<text text-anchor="start" x="847.5" y="-163.5" font-family="Helvetica,sans-Serif" font-size="10.00">VoronoiMeshMaker/Voronoi</text>
<text text-anchor="middle" x="915" y="-152.5" font-family="Helvetica,sans-Serif" font-size="10.00">/Voronoi.h</text>
</a>
</g>
</g>
<!-- Node16&#45;&gt;Node17 -->
<g id="edge20" class="edge">
<title>Node16&#45;&gt;Node17</title>
<path fill="none" stroke="midnightblue" d="M885.25,-212.4C890.03,-204.22 896.16,-193.73 901.62,-184.39"/>
<polygon fill="midnightblue" stroke="midnightblue" points="904.75,-185.98 906.77,-175.58 898.7,-182.44 904.75,-185.98"/>
</g>
<!-- Node17&#45;&gt;Node7 -->
<g id="edge21" class="edge">
<title>Node17&#45;&gt;Node7</title>
<path fill="none" stroke="midnightblue" d="M897.96,-145.3C868.82,-121.01 809.24,-71.37 775.25,-43.04"/>
<polygon fill="midnightblue" stroke="midnightblue" points="777.11,-40.04 767.19,-36.33 772.63,-45.42 777.11,-40.04"/>
</g>
<!-- Node18&#45;&gt;Node17 -->
<g id="edge24" class="edge">
<title>Node18&#45;&gt;Node17</title>
<path fill="none" stroke="midnightblue" d="M1017.57,-212.4C998.52,-202.94 973.22,-190.39 952.52,-180.12"/>
<polygon fill="midnightblue" stroke="midnightblue" points="953.88,-176.89 943.37,-175.58 950.77,-183.16 953.88,-176.89"/>
</g>
</g>
</svg>
