<?xml version="1.0" encoding="UTF-8" standalone="no"?>
<!DOCTYPE svg PUBLIC "-//W3C//DTD SVG 1.1//EN"
 "http://www.w3.org/Graphics/SVG/1.1/DTD/svg11.dtd">
<!-- Generated by graphviz version 2.43.0 (0)
 -->
<!-- Title: include/VoronoiMeshMaker/DataExporter/ExportStrategyFactory.h Pages: 1 -->
<svg width="353pt" height="184pt"
 viewBox="0.00 0.00 353.00 184.00" xmlns="http://www.w3.org/2000/svg" xmlns:xlink="http://www.w3.org/1999/xlink">
<g id="graph0" class="graph" transform="scale(1 1) rotate(0) translate(4 180)">
<title>include/VoronoiMeshMaker/DataExporter/ExportStrategyFactory.h</title>
<!-- Node1 -->
<g id="node1" class="node">
<title>Node1</title>
<g id="a_node1"><a xlink:title="Factory class for creating export strategies based on the specified format.">
<polygon fill="#bfbfbf" stroke="black" points="73.5,-145.5 73.5,-175.5 276.5,-175.5 276.5,-145.5 73.5,-145.5"/>
<text text-anchor="start" x="81.5" y="-163.5" font-family="Helvetica,sans-Serif" font-size="10.00">include/VoronoiMeshMaker</text>
<text text-anchor="middle" x="175" y="-152.5" font-family="Helvetica,sans-Serif" font-size="10.00">/DataExporter/ExportStrategyFactory.h</text>
</a>
</g>
</g>
<!-- Node2 -->
<g id="node2" class="node">
<title>Node2</title>
<g id="a_node2"><a xlink:href="DataExporter_8h.html" target="_top" xlink:title="Defines the DataExporter class responsible for exporting geometric data in various formats.">
<polygon fill="none" stroke="black" points="5.5,-73 5.5,-103 166.5,-103 166.5,-73 5.5,-73"/>
<text text-anchor="start" x="13.5" y="-91" font-family="Helvetica,sans-Serif" font-size="10.00">include/VoronoiMeshMaker</text>
<text text-anchor="middle" x="86" y="-80" font-family="Helvetica,sans-Serif" font-size="10.00">/DataExporter/DataExporter.h</text>
</a>
</g>
</g>
<!-- Node1&#45;&gt;Node2 -->
<g id="edge1" class="edge">
<title>Node1&#45;&gt;Node2</title>
<path fill="none" stroke="midnightblue" d="M148.85,-138.79C134.31,-127.27 116.59,-113.23 103.68,-103"/>
<polygon fill="midnightblue" stroke="midnightblue" points="146.98,-141.77 156.99,-145.23 151.32,-136.28 146.98,-141.77"/>
</g>
<!-- Node4 -->
<g id="node4" class="node">
<title>Node4</title>
<g id="a_node4"><a xlink:href="ExportStrategyFactory_8cpp.html" target="_top" xlink:title="Implements the factory class for creating export strategies.">
<polygon fill="none" stroke="black" points="185,-67.5 185,-108.5 345,-108.5 345,-67.5 185,-67.5"/>
<text text-anchor="start" x="193" y="-96.5" font-family="Helvetica,sans-Serif" font-size="10.00">src/VoronoiMeshMaker</text>
<text text-anchor="start" x="193" y="-85.5" font-family="Helvetica,sans-Serif" font-size="10.00">/DataExporter/ExportStrategy</text>
<text text-anchor="middle" x="265" y="-74.5" font-family="Helvetica,sans-Serif" font-size="10.00">Factory.cpp</text>
</a>
</g>
</g>
<!-- Node1&#45;&gt;Node4 -->
<g id="edge3" class="edge">
<title>Node1&#45;&gt;Node4</title>
<path fill="none" stroke="midnightblue" d="M201.26,-138.93C213.47,-129.36 227.94,-118.03 239.99,-108.59"/>
<polygon fill="midnightblue" stroke="midnightblue" points="198.93,-136.31 193.21,-145.23 203.24,-141.82 198.93,-136.31"/>
</g>
<!-- Node3 -->
<g id="node3" class="node">
<title>Node3</title>
<g id="a_node3"><a xlink:href="DataExporter_8cpp.html" target="_top" xlink:title="Implements the DataExporter class, handling the export of geometric data.">
<polygon fill="none" stroke="black" points="0,-0.5 0,-30.5 172,-30.5 172,-0.5 0,-0.5"/>
<text text-anchor="start" x="8" y="-18.5" font-family="Helvetica,sans-Serif" font-size="10.00">src/VoronoiMeshMaker</text>
<text text-anchor="middle" x="86" y="-7.5" font-family="Helvetica,sans-Serif" font-size="10.00">/DataExporter/DataExporter.cpp</text>
</a>
</g>
</g>
<!-- Node2&#45;&gt;Node3 -->
<g id="edge2" class="edge">
<title>Node2&#45;&gt;Node3</title>
<path fill="none" stroke="midnightblue" d="M86,-62.73C86,-52.07 86,-39.91 86,-30.75"/>
<polygon fill="midnightblue" stroke="midnightblue" points="82.5,-62.73 86,-72.73 89.5,-62.73 82.5,-62.73"/>
</g>
</g>
</svg>
