<?xml version="1.0" encoding="UTF-8" standalone="no"?>
<!DOCTYPE svg PUBLIC "-//W3C//DTD SVG 1.1//EN"
 "http://www.w3.org/Graphics/SVG/1.1/DTD/svg11.dtd">
<!-- Generated by graphviz version 2.43.0 (0)
 -->
<!-- Title: src/VoronoiMeshMaker/DataExporter/ExportTraits.cpp Pages: 1 -->
<svg width="773pt" height="452pt"
 viewBox="0.00 0.00 773.00 452.00" xmlns="http://www.w3.org/2000/svg" xmlns:xlink="http://www.w3.org/1999/xlink">
<g id="graph0" class="graph" transform="scale(1 1) rotate(0) translate(4 448)">
<title>src/VoronoiMeshMaker/DataExporter/ExportTraits.cpp</title>
<!-- Node1 -->
<g id="node1" class="node">
<title>Node1</title>
<g id="a_node1"><a xlink:title="Implements the specialized export behavior for different geometric data types.">
<polygon fill="#bfbfbf" stroke="black" points="139,-413.5 139,-443.5 305,-443.5 305,-413.5 139,-413.5"/>
<text text-anchor="start" x="147" y="-431.5" font-family="Helvetica,sans-Serif" font-size="10.00">src/VoronoiMeshMaker</text>
<text text-anchor="middle" x="222" y="-420.5" font-family="Helvetica,sans-Serif" font-size="10.00">/DataExporter/ExportTraits.cpp</text>
</a>
</g>
</g>
<!-- Node2 -->
<g id="node2" class="node">
<title>Node2</title>
<g id="a_node2"><a xlink:title=" ">
<polygon fill="none" stroke="#bfbfbf" points="0,-218 0,-237 60,-237 60,-218 0,-218"/>
<text text-anchor="middle" x="30" y="-225" font-family="Helvetica,sans-Serif" font-size="10.00">iostream</text>
</a>
</g>
</g>
<!-- Node1&#45;&gt;Node2 -->
<g id="edge1" class="edge">
<title>Node1&#45;&gt;Node2</title>
<path fill="none" stroke="midnightblue" d="M188.26,-413.35C168.62,-404.34 143.89,-391.63 124,-377 90.33,-352.23 80,-345.54 58,-310 45.72,-290.17 38.02,-264.28 33.87,-247.06"/>
<polygon fill="midnightblue" stroke="midnightblue" points="37.25,-246.13 31.64,-237.14 30.42,-247.66 37.25,-246.13"/>
</g>
<!-- Node3 -->
<g id="node3" class="node">
<title>Node3</title>
<g id="a_node3"><a xlink:title=" ">
<polygon fill="none" stroke="#bfbfbf" points="458.5,-285 458.5,-304 523.5,-304 523.5,-285 458.5,-285"/>
<text text-anchor="middle" x="491" y="-292" font-family="Helvetica,sans-Serif" font-size="10.00">stdexcept</text>
</a>
</g>
</g>
<!-- Node1&#45;&gt;Node3 -->
<g id="edge2" class="edge">
<title>Node1&#45;&gt;Node3</title>
<path fill="none" stroke="midnightblue" d="M250.53,-413.5C302.87,-387.82 413.5,-333.53 464.38,-308.56"/>
<polygon fill="midnightblue" stroke="midnightblue" points="466,-311.66 473.44,-304.12 462.92,-305.38 466,-311.66"/>
</g>
<!-- Node4 -->
<g id="node4" class="node">
<title>Node4</title>
<g id="a_node4"><a xlink:href="ExportTraits_8h.html" target="_top" xlink:title="Defines traits for exporting different types of geometric data.">
<polygon fill="none" stroke="black" points="133,-346.5 133,-376.5 311,-376.5 311,-346.5 133,-346.5"/>
<text text-anchor="start" x="141" y="-364.5" font-family="Helvetica,sans-Serif" font-size="10.00">VoronoiMeshMaker/DataExporter</text>
<text text-anchor="middle" x="222" y="-353.5" font-family="Helvetica,sans-Serif" font-size="10.00">/ExportTraits.h</text>
</a>
</g>
</g>
<!-- Node1&#45;&gt;Node4 -->
<g id="edge3" class="edge">
<title>Node1&#45;&gt;Node4</title>
<path fill="none" stroke="midnightblue" d="M222,-413.4C222,-405.64 222,-395.81 222,-386.86"/>
<polygon fill="midnightblue" stroke="midnightblue" points="225.5,-386.58 222,-376.58 218.5,-386.58 225.5,-386.58"/>
</g>
<!-- Node4&#45;&gt;Node2 -->
<g id="edge4" class="edge">
<title>Node4&#45;&gt;Node2</title>
<path fill="none" stroke="midnightblue" d="M165.59,-346.4C141.06,-338.42 112.96,-326.63 91,-310 68.17,-292.72 49.81,-264.67 39.4,-246.4"/>
<polygon fill="midnightblue" stroke="midnightblue" points="42.34,-244.48 34.46,-237.39 36.2,-247.84 42.34,-244.48"/>
</g>
<!-- Node4&#45;&gt;Node3 -->
<g id="edge5" class="edge">
<title>Node4&#45;&gt;Node3</title>
<path fill="none" stroke="midnightblue" d="M294.85,-346.49C339.64,-337.33 398.01,-324.42 449,-310 451.95,-309.17 454.99,-308.24 458.03,-307.28"/>
<polygon fill="midnightblue" stroke="midnightblue" points="459.21,-310.57 467.6,-304.1 457.01,-303.93 459.21,-310.57"/>
</g>
<!-- Node5 -->
<g id="node5" class="node">
<title>Node5</title>
<g id="a_node5"><a xlink:href="Shape_8h.html" target="_top" xlink:title="Defines the Shape class, which serves as the abstract base class for all shapes. This class provides ...">
<polygon fill="none" stroke="black" points="100.5,-279.5 100.5,-309.5 243.5,-309.5 243.5,-279.5 100.5,-279.5"/>
<text text-anchor="start" x="108.5" y="-297.5" font-family="Helvetica,sans-Serif" font-size="10.00">VoronoiMeshMaker/Shape</text>
<text text-anchor="middle" x="172" y="-286.5" font-family="Helvetica,sans-Serif" font-size="10.00">/Shape.h</text>
</a>
</g>
</g>
<!-- Node4&#45;&gt;Node5 -->
<g id="edge6" class="edge">
<title>Node4&#45;&gt;Node5</title>
<path fill="none" stroke="midnightblue" d="M211.15,-346.4C204.66,-337.96 196.28,-327.07 188.94,-317.52"/>
<polygon fill="midnightblue" stroke="midnightblue" points="191.7,-315.37 182.83,-309.58 186.15,-319.64 191.7,-315.37"/>
</g>
<!-- Node18 -->
<g id="node18" class="node">
<title>Node18</title>
<g id="a_node18"><a xlink:href="ExportStrategy_8h.html" target="_top" xlink:title="Defines the interface for exporting geometric data in various formats.">
<polygon fill="none" stroke="black" points="262,-279.5 262,-309.5 440,-309.5 440,-279.5 262,-279.5"/>
<text text-anchor="start" x="270" y="-297.5" font-family="Helvetica,sans-Serif" font-size="10.00">VoronoiMeshMaker/DataExporter</text>
<text text-anchor="middle" x="351" y="-286.5" font-family="Helvetica,sans-Serif" font-size="10.00">/ExportStrategy.h</text>
</a>
</g>
</g>
<!-- Node4&#45;&gt;Node18 -->
<g id="edge22" class="edge">
<title>Node4&#45;&gt;Node18</title>
<path fill="none" stroke="midnightblue" d="M249.99,-346.4C268.75,-336.94 293.67,-324.39 314.05,-314.12"/>
<polygon fill="midnightblue" stroke="midnightblue" points="315.71,-317.2 323.06,-309.58 312.56,-310.95 315.71,-317.2"/>
</g>
<!-- Node5&#45;&gt;Node2 -->
<g id="edge7" class="edge">
<title>Node5&#45;&gt;Node2</title>
<path fill="none" stroke="midnightblue" d="M141.19,-279.4C116.38,-268.04 81.82,-252.22 57.84,-241.24"/>
<polygon fill="midnightblue" stroke="midnightblue" points="59.13,-237.99 48.58,-237.01 56.22,-244.35 59.13,-237.99"/>
</g>
<!-- Node6 -->
<g id="node6" class="node">
<title>Node6</title>
<g id="a_node6"><a xlink:title=" ">
<polygon fill="none" stroke="#bfbfbf" points="28,-11.5 28,-30.5 86,-30.5 86,-11.5 28,-11.5"/>
<text text-anchor="middle" x="57" y="-18.5" font-family="Helvetica,sans-Serif" font-size="10.00">memory</text>
</a>
</g>
</g>
<!-- Node5&#45;&gt;Node6 -->
<g id="edge8" class="edge">
<title>Node5&#45;&gt;Node6</title>
<path fill="none" stroke="midnightblue" d="M146.21,-279.41C132.56,-270.66 116.66,-258.19 107,-243 65.22,-177.3 58.16,-81.08 57.1,-40.81"/>
<polygon fill="midnightblue" stroke="midnightblue" points="60.6,-40.75 56.94,-30.81 53.6,-40.86 60.6,-40.75"/>
</g>
<!-- Node7 -->
<g id="node7" class="node">
<title>Node7</title>
<g id="a_node7"><a xlink:title=" ">
<polygon fill="none" stroke="#bfbfbf" points="492,-151 492,-170 650,-170 650,-151 492,-151"/>
<text text-anchor="middle" x="571" y="-158" font-family="Helvetica,sans-Serif" font-size="10.00">VoronoiMeshMaker/Misc/ID.h</text>
</a>
</g>
</g>
<!-- Node5&#45;&gt;Node7 -->
<g id="edge9" class="edge">
<title>Node5&#45;&gt;Node7</title>
<path fill="none" stroke="midnightblue" d="M209.36,-279.46C234,-269.89 266.8,-256.54 295,-243 320.65,-230.69 324.43,-222.17 351,-212 380.89,-200.56 462.19,-183.16 517.14,-172.06"/>
<polygon fill="midnightblue" stroke="midnightblue" points="517.96,-175.47 527.07,-170.07 516.58,-168.61 517.96,-175.47"/>
</g>
<!-- Node8 -->
<g id="node8" class="node">
<title>Node8</title>
<g id="a_node8"><a xlink:href="GeometricDataHolder_8h.html" target="_top" xlink:title="Defines the GeometricDataHolder class and the DataTraits for handling multiple data types....">
<polygon fill="none" stroke="black" points="116,-212.5 116,-242.5 286,-242.5 286,-212.5 116,-212.5"/>
<text text-anchor="start" x="124" y="-230.5" font-family="Helvetica,sans-Serif" font-size="10.00">VoronoiMeshMaker/Parameters</text>
<text text-anchor="middle" x="201" y="-219.5" font-family="Helvetica,sans-Serif" font-size="10.00">/GeometricDataHolder.h</text>
</a>
</g>
</g>
<!-- Node5&#45;&gt;Node8 -->
<g id="edge10" class="edge">
<title>Node5&#45;&gt;Node8</title>
<path fill="none" stroke="midnightblue" d="M178.29,-279.4C181.86,-271.39 186.43,-261.16 190.53,-251.98"/>
<polygon fill="midnightblue" stroke="midnightblue" points="193.84,-253.13 194.72,-242.58 187.45,-250.28 193.84,-253.13"/>
</g>
<!-- Node8&#45;&gt;Node7 -->
<g id="edge11" class="edge">
<title>Node8&#45;&gt;Node7</title>
<path fill="none" stroke="midnightblue" d="M280.83,-212.48C350.46,-200.24 449.85,-182.78 512.37,-171.8"/>
<polygon fill="midnightblue" stroke="midnightblue" points="513.21,-175.21 522.45,-170.03 512,-168.31 513.21,-175.21"/>
</g>
<!-- Node9 -->
<g id="node9" class="node">
<title>Node9</title>
<g id="a_node9"><a xlink:href="GeometricDataTraits_8h.html" target="_top" xlink:title="Defines the GeometricDataTraits structure used for type identification and operations on various data...">
<polygon fill="none" stroke="black" points="116,-145.5 116,-175.5 286,-175.5 286,-145.5 116,-145.5"/>
<text text-anchor="start" x="124" y="-163.5" font-family="Helvetica,sans-Serif" font-size="10.00">VoronoiMeshMaker/Parameters</text>
<text text-anchor="middle" x="201" y="-152.5" font-family="Helvetica,sans-Serif" font-size="10.00">/GeometricDataTraits.h</text>
</a>
</g>
</g>
<!-- Node8&#45;&gt;Node9 -->
<g id="edge12" class="edge">
<title>Node8&#45;&gt;Node9</title>
<path fill="none" stroke="midnightblue" d="M201,-212.4C201,-204.64 201,-194.81 201,-185.86"/>
<polygon fill="midnightblue" stroke="midnightblue" points="204.5,-185.58 201,-175.58 197.5,-185.58 204.5,-185.58"/>
</g>
<!-- Node17 -->
<g id="node17" class="node">
<title>Node17</title>
<g id="a_node17"><a xlink:href="GeometricDataHolder_8tpp.html" target="_top" xlink:title=" ">
<polygon fill="none" stroke="black" points="304,-145.5 304,-175.5 474,-175.5 474,-145.5 304,-145.5"/>
<text text-anchor="start" x="312" y="-163.5" font-family="Helvetica,sans-Serif" font-size="10.00">VoronoiMeshMaker/Parameters</text>
<text text-anchor="middle" x="389" y="-152.5" font-family="Helvetica,sans-Serif" font-size="10.00">/GeometricDataHolder.tpp</text>
</a>
</g>
</g>
<!-- Node8&#45;&gt;Node17 -->
<g id="edge21" class="edge">
<title>Node8&#45;&gt;Node17</title>
<path fill="none" stroke="midnightblue" d="M241.79,-212.4C270.25,-202.56 308.4,-189.37 338.73,-178.88"/>
<polygon fill="midnightblue" stroke="midnightblue" points="339.98,-182.15 348.29,-175.58 337.69,-175.54 339.98,-182.15"/>
</g>
<!-- Node10 -->
<g id="node10" class="node">
<title>Node10</title>
<g id="a_node10"><a xlink:href="type_8h.html" target="_top" xlink:title="Defines common geometric and numeric types used in the VoronoiMeshMaker library.">
<polygon fill="none" stroke="black" points="163,-78.5 163,-108.5 299,-108.5 299,-78.5 163,-78.5"/>
<text text-anchor="start" x="171" y="-96.5" font-family="Helvetica,sans-Serif" font-size="10.00">VoronoiMeshMaker/Misc</text>
<text text-anchor="middle" x="231" y="-85.5" font-family="Helvetica,sans-Serif" font-size="10.00">/type.h</text>
</a>
</g>
</g>
<!-- Node9&#45;&gt;Node10 -->
<g id="edge13" class="edge">
<title>Node9&#45;&gt;Node10</title>
<path fill="none" stroke="midnightblue" d="M207.51,-145.4C211.24,-137.3 216.03,-126.94 220.3,-117.69"/>
<polygon fill="midnightblue" stroke="midnightblue" points="223.49,-119.12 224.5,-108.58 217.13,-116.19 223.49,-119.12"/>
</g>
<!-- Node10&#45;&gt;Node6 -->
<g id="edge14" class="edge">
<title>Node10&#45;&gt;Node6</title>
<path fill="none" stroke="midnightblue" d="M188.77,-78.4C161.63,-68.95 125.82,-55.76 95,-42 90.47,-39.98 85.73,-37.66 81.2,-35.33"/>
<polygon fill="midnightblue" stroke="midnightblue" points="82.78,-32.21 72.31,-30.63 79.51,-38.4 82.78,-32.21"/>
</g>
<!-- Node11 -->
<g id="node11" class="node">
<title>Node11</title>
<g id="a_node11"><a xlink:title=" ">
<polygon fill="none" stroke="#bfbfbf" points="104,-11.5 104,-30.5 136,-30.5 136,-11.5 104,-11.5"/>
<text text-anchor="middle" x="120" y="-18.5" font-family="Helvetica,sans-Serif" font-size="10.00">list</text>
</a>
</g>
</g>
<!-- Node10&#45;&gt;Node11 -->
<g id="edge15" class="edge">
<title>Node10&#45;&gt;Node11</title>
<path fill="none" stroke="midnightblue" d="M204.81,-78.42C187.46,-68.77 164.4,-55.35 145,-42 142.76,-40.46 140.46,-38.77 138.2,-37.05"/>
<polygon fill="midnightblue" stroke="midnightblue" points="139.97,-33.99 129.96,-30.51 135.62,-39.47 139.97,-33.99"/>
</g>
<!-- Node12 -->
<g id="node12" class="node">
<title>Node12</title>
<g id="a_node12"><a xlink:title=" ">
<polygon fill="none" stroke="#bfbfbf" points="154.5,-11.5 154.5,-30.5 201.5,-30.5 201.5,-11.5 154.5,-11.5"/>
<text text-anchor="middle" x="178" y="-18.5" font-family="Helvetica,sans-Serif" font-size="10.00">vector</text>
</a>
</g>
</g>
<!-- Node10&#45;&gt;Node12 -->
<g id="edge16" class="edge">
<title>Node10&#45;&gt;Node12</title>
<path fill="none" stroke="midnightblue" d="M220.27,-78.23C211.79,-66.95 199.91,-51.15 190.91,-39.17"/>
<polygon fill="midnightblue" stroke="midnightblue" points="193.49,-36.78 184.69,-30.89 187.9,-40.99 193.49,-36.78"/>
</g>
<!-- Node13 -->
<g id="node13" class="node">
<title>Node13</title>
<g id="a_node13"><a xlink:title=" ">
<polygon fill="none" stroke="#bfbfbf" points="219.5,-0.5 219.5,-41.5 348.5,-41.5 348.5,-0.5 219.5,-0.5"/>
<text text-anchor="start" x="227.5" y="-29.5" font-family="Helvetica,sans-Serif" font-size="10.00">CGAL/Exact_predicates</text>
<text text-anchor="start" x="227.5" y="-18.5" font-family="Helvetica,sans-Serif" font-size="10.00">_inexact_constructions</text>
<text text-anchor="middle" x="284" y="-7.5" font-family="Helvetica,sans-Serif" font-size="10.00">_kernel.h</text>
</a>
</g>
</g>
<!-- Node10&#45;&gt;Node13 -->
<g id="edge17" class="edge">
<title>Node10&#45;&gt;Node13</title>
<path fill="none" stroke="midnightblue" d="M241.73,-78.23C247.85,-70.08 255.75,-59.57 263.06,-49.85"/>
<polygon fill="midnightblue" stroke="midnightblue" points="266.06,-51.68 269.27,-41.59 260.47,-47.48 266.06,-51.68"/>
</g>
<!-- Node14 -->
<g id="node14" class="node">
<title>Node14</title>
<g id="a_node14"><a xlink:title=" ">
<polygon fill="none" stroke="#bfbfbf" points="366.5,-11.5 366.5,-30.5 471.5,-30.5 471.5,-11.5 366.5,-11.5"/>
<text text-anchor="middle" x="419" y="-18.5" font-family="Helvetica,sans-Serif" font-size="10.00">CGAL/Polygon_2.h</text>
</a>
</g>
</g>
<!-- Node10&#45;&gt;Node14 -->
<g id="edge18" class="edge">
<title>Node10&#45;&gt;Node14</title>
<path fill="none" stroke="midnightblue" d="M268.59,-78.4C303.16,-65.44 353.89,-46.42 386.68,-34.12"/>
<polygon fill="midnightblue" stroke="midnightblue" points="388.11,-37.32 396.24,-30.53 385.65,-30.77 388.11,-37.32"/>
</g>
<!-- Node15 -->
<g id="node15" class="node">
<title>Node15</title>
<g id="a_node15"><a xlink:title=" ">
<polygon fill="none" stroke="#bfbfbf" points="489.5,-11.5 489.5,-30.5 610.5,-30.5 610.5,-11.5 489.5,-11.5"/>
<text text-anchor="middle" x="550" y="-18.5" font-family="Helvetica,sans-Serif" font-size="10.00">CGAL/Polyhedron_3.h</text>
</a>
</g>
</g>
<!-- Node10&#45;&gt;Node15 -->
<g id="edge19" class="edge">
<title>Node10&#45;&gt;Node15</title>
<path fill="none" stroke="midnightblue" d="M299.25,-80.29C349.7,-70.89 419.94,-56.99 481,-42 491.36,-39.46 502.49,-36.38 512.73,-33.41"/>
<polygon fill="midnightblue" stroke="midnightblue" points="514,-36.69 522.61,-30.51 512.03,-29.97 514,-36.69"/>
</g>
<!-- Node16 -->
<g id="node16" class="node">
<title>Node16</title>
<g id="a_node16"><a xlink:href="namespace_8h.html" target="_top" xlink:title=" ">
<polygon fill="none" stroke="black" points="629,-6 629,-36 765,-36 765,-6 629,-6"/>
<text text-anchor="start" x="637" y="-24" font-family="Helvetica,sans-Serif" font-size="10.00">VoronoiMeshMaker/Misc</text>
<text text-anchor="middle" x="697" y="-13" font-family="Helvetica,sans-Serif" font-size="10.00">/namespace.h</text>
</a>
</g>
</g>
<!-- Node10&#45;&gt;Node16 -->
<g id="edge20" class="edge">
<title>Node10&#45;&gt;Node16</title>
<path fill="none" stroke="midnightblue" d="M299.23,-86.25C377.22,-78.51 508.52,-63.63 620,-42 625.42,-40.95 631.03,-39.74 636.64,-38.44"/>
<polygon fill="midnightblue" stroke="midnightblue" points="637.77,-41.77 646.67,-36.03 636.13,-34.96 637.77,-41.77"/>
</g>
<!-- Node18&#45;&gt;Node7 -->
<g id="edge24" class="edge">
<title>Node18&#45;&gt;Node7</title>
<path fill="none" stroke="midnightblue" d="M350.34,-279.31C350.32,-261.17 353.13,-229.99 371,-212 381.42,-201.51 461.7,-183.52 517.32,-172.09"/>
<polygon fill="midnightblue" stroke="midnightblue" points="518.3,-175.46 527.39,-170.03 516.9,-168.6 518.3,-175.46"/>
</g>
<!-- Node19 -->
<g id="node19" class="node">
<title>Node19</title>
<g id="a_node19"><a xlink:title=" ">
<polygon fill="none" stroke="#bfbfbf" points="380,-218 380,-237 424,-237 424,-218 380,-218"/>
<text text-anchor="middle" x="402" y="-225" font-family="Helvetica,sans-Serif" font-size="10.00">string</text>
</a>
</g>
</g>
<!-- Node18&#45;&gt;Node19 -->
<g id="edge23" class="edge">
<title>Node18&#45;&gt;Node19</title>
<path fill="none" stroke="midnightblue" d="M362.07,-279.4C369.94,-269.36 380.55,-255.84 388.85,-245.25"/>
<polygon fill="midnightblue" stroke="midnightblue" points="391.76,-247.22 395.18,-237.19 386.25,-242.9 391.76,-247.22"/>
</g>
</g>
</svg>
