<?xml version="1.0" encoding="UTF-8" standalone="no"?>
<!DOCTYPE svg PUBLIC "-//W3C//DTD SVG 1.1//EN"
 "http://www.w3.org/Graphics/SVG/1.1/DTD/svg11.dtd">
<!-- Generated by graphviz version 2.43.0 (0)
 -->
<!-- Title: include/VoronoiMeshMaker/Parameters/GeometricDataHolder.tpp Pages: 1 -->
<svg width="1261pt" height="385pt"
 viewBox="0.00 0.00 1261.00 385.00" xmlns="http://www.w3.org/2000/svg" xmlns:xlink="http://www.w3.org/1999/xlink">
<g id="graph0" class="graph" transform="scale(1 1) rotate(0) translate(4 381)">
<title>include/VoronoiMeshMaker/Parameters/GeometricDataHolder.tpp</title>
<!-- Node1 -->
<g id="node1" class="node">
<title>Node1</title>
<g id="a_node1"><a xlink:title=" ">
<polygon fill="#bfbfbf" stroke="black" points="23.5,-346.5 23.5,-376.5 227.5,-376.5 227.5,-346.5 23.5,-346.5"/>
<text text-anchor="start" x="31.5" y="-364.5" font-family="Helvetica,sans-Serif" font-size="10.00">include/VoronoiMeshMaker</text>
<text text-anchor="middle" x="125.5" y="-353.5" font-family="Helvetica,sans-Serif" font-size="10.00">/Parameters/GeometricDataHolder.tpp</text>
</a>
</g>
</g>
<!-- Node2 -->
<g id="node2" class="node">
<title>Node2</title>
<g id="a_node2"><a xlink:href="GeometricDataHolder_8h.html" target="_top" xlink:title="Defines the GeometricDataHolder class and the DataTraits for handling multiple data types....">
<polygon fill="none" stroke="black" points="28.5,-279.5 28.5,-309.5 222.5,-309.5 222.5,-279.5 28.5,-279.5"/>
<text text-anchor="start" x="36.5" y="-297.5" font-family="Helvetica,sans-Serif" font-size="10.00">include/VoronoiMeshMaker</text>
<text text-anchor="middle" x="125.5" y="-286.5" font-family="Helvetica,sans-Serif" font-size="10.00">/Parameters/GeometricDataHolder.h</text>
</a>
</g>
</g>
<!-- Node1&#45;&gt;Node2 -->
<g id="edge1" class="edge">
<title>Node1&#45;&gt;Node2</title>
<path fill="none" stroke="midnightblue" d="M125.5,-336.11C125.5,-327.15 125.5,-317.32 125.5,-309.58"/>
<polygon fill="midnightblue" stroke="midnightblue" points="122,-336.4 125.5,-346.4 129,-336.4 122,-336.4"/>
</g>
<!-- Node3 -->
<g id="node3" class="node">
<title>Node3</title>
<g id="a_node3"><a xlink:href="Shape_8h.html" target="_top" xlink:title="Defines the Shape class, which serves as the abstract base class for all shapes. This class provides ...">
<polygon fill="none" stroke="black" points="143,-212.5 143,-242.5 292,-242.5 292,-212.5 143,-212.5"/>
<text text-anchor="start" x="151" y="-230.5" font-family="Helvetica,sans-Serif" font-size="10.00">include/VoronoiMeshMaker</text>
<text text-anchor="middle" x="217.5" y="-219.5" font-family="Helvetica,sans-Serif" font-size="10.00">/Shape/Shape.h</text>
</a>
</g>
</g>
<!-- Node2&#45;&gt;Node3 -->
<g id="edge2" class="edge">
<title>Node2&#45;&gt;Node3</title>
<path fill="none" stroke="midnightblue" d="M153.88,-273.45C168.03,-263.45 184.81,-251.6 197.58,-242.58"/>
<polygon fill="midnightblue" stroke="midnightblue" points="151.61,-270.77 145.46,-279.4 155.65,-276.48 151.61,-270.77"/>
</g>
<!-- Node16 -->
<g id="node16" class="node">
<title>Node16</title>
<g id="a_node16"><a xlink:href="ShapeFactory_8h.html" target="_top" xlink:title=" ">
<polygon fill="none" stroke="black" points="0,-78.5 0,-108.5 149,-108.5 149,-78.5 0,-78.5"/>
<text text-anchor="start" x="8" y="-96.5" font-family="Helvetica,sans-Serif" font-size="10.00">include/VoronoiMeshMaker</text>
<text text-anchor="middle" x="74.5" y="-85.5" font-family="Helvetica,sans-Serif" font-size="10.00">/Shape/ShapeFactory.h</text>
</a>
</g>
</g>
<!-- Node2&#45;&gt;Node16 -->
<g id="edge21" class="edge">
<title>Node2&#45;&gt;Node16</title>
<path fill="none" stroke="midnightblue" d="M118.71,-269.58C112.04,-245.88 101.72,-208.53 93.5,-176 87.56,-152.48 81.28,-124.96 77.64,-108.67"/>
<polygon fill="midnightblue" stroke="midnightblue" points="115.41,-270.76 121.49,-279.44 122.14,-268.86 115.41,-270.76"/>
</g>
<!-- Node4 -->
<g id="node4" class="node">
<title>Node4</title>
<g id="a_node4"><a xlink:href="Shape2D_8h.html" target="_top" xlink:title="Defines the Shape2D class, which represents 2D geometric shapes.">
<polygon fill="none" stroke="black" points="513.5,-145.5 513.5,-175.5 665.5,-175.5 665.5,-145.5 513.5,-145.5"/>
<text text-anchor="start" x="521.5" y="-163.5" font-family="Helvetica,sans-Serif" font-size="10.00">include/VoronoiMeshMaker</text>
<text text-anchor="middle" x="589.5" y="-152.5" font-family="Helvetica,sans-Serif" font-size="10.00">/Shape/Shape2D/Shape2D.h</text>
</a>
</g>
</g>
<!-- Node3&#45;&gt;Node4 -->
<g id="edge3" class="edge">
<title>Node3&#45;&gt;Node4</title>
<path fill="none" stroke="midnightblue" d="M302.32,-211.68C365.79,-200.59 451.87,-185.55 513.19,-174.83"/>
<polygon fill="midnightblue" stroke="midnightblue" points="301.58,-208.26 292.33,-213.42 302.79,-215.15 301.58,-208.26"/>
</g>
<!-- Node3&#45;&gt;Node16 -->
<g id="edge15" class="edge">
<title>Node3&#45;&gt;Node16</title>
<path fill="none" stroke="midnightblue" d="M233.42,-203.5C243.39,-186 252.15,-162.1 239.5,-145 228.19,-129.71 187.49,-117.16 149.35,-108.4"/>
<polygon fill="midnightblue" stroke="midnightblue" points="230.16,-202.13 227.89,-212.48 236.12,-205.8 230.16,-202.13"/>
</g>
<!-- Node18 -->
<g id="node18" class="node">
<title>Node18</title>
<g id="a_node18"><a xlink:href="Shape_8cpp.html" target="_top" xlink:title=" ">
<polygon fill="none" stroke="black" points="102.5,-145.5 102.5,-175.5 230.5,-175.5 230.5,-145.5 102.5,-145.5"/>
<text text-anchor="start" x="110.5" y="-163.5" font-family="Helvetica,sans-Serif" font-size="10.00">src/VoronoiMeshMaker</text>
<text text-anchor="middle" x="166.5" y="-152.5" font-family="Helvetica,sans-Serif" font-size="10.00">/Shape/Shape.cpp</text>
</a>
</g>
</g>
<!-- Node3&#45;&gt;Node18 -->
<g id="edge20" class="edge">
<title>Node3&#45;&gt;Node18</title>
<path fill="none" stroke="midnightblue" d="M200.2,-204.45C192.71,-194.9 184.16,-184 177.54,-175.58"/>
<polygon fill="midnightblue" stroke="midnightblue" points="197.51,-206.69 206.43,-212.4 203.01,-202.37 197.51,-206.69"/>
</g>
<!-- Node5 -->
<g id="node5" class="node">
<title>Node5</title>
<g id="a_node5"><a xlink:href="CommaSeparatedValues_8h.html" target="_top" xlink:title=" ">
<polygon fill="none" stroke="black" points="1024,-78.5 1024,-108.5 1253,-108.5 1253,-78.5 1024,-78.5"/>
<text text-anchor="start" x="1032" y="-96.5" font-family="Helvetica,sans-Serif" font-size="10.00">include/VoronoiMeshMaker</text>
<text text-anchor="middle" x="1138.5" y="-85.5" font-family="Helvetica,sans-Serif" font-size="10.00">/Shape/Shape2D/CommaSeparatedValues.h</text>
</a>
</g>
</g>
<!-- Node4&#45;&gt;Node5 -->
<g id="edge4" class="edge">
<title>Node4&#45;&gt;Node5</title>
<path fill="none" stroke="midnightblue" d="M675.57,-149.31C769.39,-138.2 919.96,-120.37 1023.77,-108.08"/>
<polygon fill="midnightblue" stroke="midnightblue" points="675.07,-145.84 665.55,-150.5 675.89,-152.8 675.07,-145.84"/>
</g>
<!-- Node7 -->
<g id="node7" class="node">
<title>Node7</title>
<g id="a_node7"><a xlink:href="Ellipse_8h.html" target="_top" xlink:title=" ">
<polygon fill="none" stroke="black" points="515,-78.5 515,-108.5 664,-108.5 664,-78.5 515,-78.5"/>
<text text-anchor="start" x="523" y="-96.5" font-family="Helvetica,sans-Serif" font-size="10.00">include/VoronoiMeshMaker</text>
<text text-anchor="middle" x="589.5" y="-85.5" font-family="Helvetica,sans-Serif" font-size="10.00">/Shape/Shape2D/Ellipse.h</text>
</a>
</g>
</g>
<!-- Node4&#45;&gt;Node7 -->
<g id="edge6" class="edge">
<title>Node4&#45;&gt;Node7</title>
<path fill="none" stroke="midnightblue" d="M589.5,-135.11C589.5,-126.15 589.5,-116.32 589.5,-108.58"/>
<polygon fill="midnightblue" stroke="midnightblue" points="586,-135.4 589.5,-145.4 593,-135.4 586,-135.4"/>
</g>
<!-- Node9 -->
<g id="node9" class="node">
<title>Node9</title>
<g id="a_node9"><a xlink:href="Polygon_8h.html" target="_top" xlink:title=" ">
<polygon fill="none" stroke="black" points="857,-78.5 857,-108.5 1006,-108.5 1006,-78.5 857,-78.5"/>
<text text-anchor="start" x="865" y="-96.5" font-family="Helvetica,sans-Serif" font-size="10.00">include/VoronoiMeshMaker</text>
<text text-anchor="middle" x="931.5" y="-85.5" font-family="Helvetica,sans-Serif" font-size="10.00">/Shape/Shape2D/Polygon.h</text>
</a>
</g>
</g>
<!-- Node4&#45;&gt;Node9 -->
<g id="edge8" class="edge">
<title>Node4&#45;&gt;Node9</title>
<path fill="none" stroke="midnightblue" d="M673.25,-143.58C729.64,-132.86 803.33,-118.86 857.55,-108.55"/>
<polygon fill="midnightblue" stroke="midnightblue" points="672.46,-140.17 663.29,-145.48 673.77,-147.05 672.46,-140.17"/>
</g>
<!-- Node11 -->
<g id="node11" class="node">
<title>Node11</title>
<g id="a_node11"><a xlink:href="Rectangle_8h.html" target="_top" xlink:title=" ">
<polygon fill="none" stroke="black" points="682,-78.5 682,-108.5 839,-108.5 839,-78.5 682,-78.5"/>
<text text-anchor="start" x="690" y="-96.5" font-family="Helvetica,sans-Serif" font-size="10.00">include/VoronoiMeshMaker</text>
<text text-anchor="middle" x="760.5" y="-85.5" font-family="Helvetica,sans-Serif" font-size="10.00">/Shape/Shape2D/Rectangle.h</text>
</a>
</g>
</g>
<!-- Node4&#45;&gt;Node11 -->
<g id="edge10" class="edge">
<title>Node4&#45;&gt;Node11</title>
<path fill="none" stroke="midnightblue" d="M636.02,-141.82C663.5,-131.37 697.83,-118.32 723.47,-108.58"/>
<polygon fill="midnightblue" stroke="midnightblue" points="634.71,-138.57 626.6,-145.4 637.2,-145.11 634.71,-138.57"/>
</g>
<!-- Node13 -->
<g id="node13" class="node">
<title>Node13</title>
<g id="a_node13"><a xlink:href="Star_8h.html" target="_top" xlink:title=" ">
<polygon fill="none" stroke="black" points="167,-78.5 167,-108.5 316,-108.5 316,-78.5 167,-78.5"/>
<text text-anchor="start" x="175" y="-96.5" font-family="Helvetica,sans-Serif" font-size="10.00">include/VoronoiMeshMaker</text>
<text text-anchor="middle" x="241.5" y="-85.5" font-family="Helvetica,sans-Serif" font-size="10.00">/Shape/Shape2D/Star.h</text>
</a>
</g>
</g>
<!-- Node4&#45;&gt;Node13 -->
<g id="edge12" class="edge">
<title>Node4&#45;&gt;Node13</title>
<path fill="none" stroke="midnightblue" d="M504.24,-143.58C446.66,-132.82 371.37,-118.76 316.15,-108.44"/>
<polygon fill="midnightblue" stroke="midnightblue" points="503.94,-147.08 514.42,-145.48 505.23,-140.2 503.94,-147.08"/>
</g>
<!-- Node15 -->
<g id="node15" class="node">
<title>Node15</title>
<g id="a_node15"><a xlink:href="Shape2D_8cpp.html" target="_top" xlink:title=" ">
<polygon fill="none" stroke="black" points="334,-78.5 334,-108.5 497,-108.5 497,-78.5 334,-78.5"/>
<text text-anchor="start" x="342" y="-96.5" font-family="Helvetica,sans-Serif" font-size="10.00">src/VoronoiMeshMaker</text>
<text text-anchor="middle" x="415.5" y="-85.5" font-family="Helvetica,sans-Serif" font-size="10.00">/Shape/Shape2D/Shape2D.cpp</text>
</a>
</g>
</g>
<!-- Node4&#45;&gt;Node15 -->
<g id="edge14" class="edge">
<title>Node4&#45;&gt;Node15</title>
<path fill="none" stroke="midnightblue" d="M542.17,-141.82C514.2,-131.37 479.27,-118.32 453.18,-108.58"/>
<polygon fill="midnightblue" stroke="midnightblue" points="541.15,-145.18 551.74,-145.4 543.6,-138.62 541.15,-145.18"/>
</g>
<!-- Node6 -->
<g id="node6" class="node">
<title>Node6</title>
<g id="a_node6"><a xlink:href="CommaSeparatedValues_8cpp.html" target="_top" xlink:title=" ">
<polygon fill="none" stroke="black" points="1045,-0.5 1045,-41.5 1232,-41.5 1232,-0.5 1045,-0.5"/>
<text text-anchor="start" x="1053" y="-29.5" font-family="Helvetica,sans-Serif" font-size="10.00">src/VoronoiMeshMaker</text>
<text text-anchor="start" x="1053" y="-18.5" font-family="Helvetica,sans-Serif" font-size="10.00">/Shape/Shape2D/CommaSeparated</text>
<text text-anchor="middle" x="1138.5" y="-7.5" font-family="Helvetica,sans-Serif" font-size="10.00">Values.cpp</text>
</a>
</g>
</g>
<!-- Node5&#45;&gt;Node6 -->
<g id="edge5" class="edge">
<title>Node5&#45;&gt;Node6</title>
<path fill="none" stroke="midnightblue" d="M1138.5,-67.98C1138.5,-59.35 1138.5,-49.76 1138.5,-41.59"/>
<polygon fill="midnightblue" stroke="midnightblue" points="1135,-68.23 1138.5,-78.23 1142,-68.23 1135,-68.23"/>
</g>
<!-- Node8 -->
<g id="node8" class="node">
<title>Node8</title>
<g id="a_node8"><a xlink:href="Ellipse_8cpp.html" target="_top" xlink:title=" ">
<polygon fill="none" stroke="black" points="367.5,-6 367.5,-36 519.5,-36 519.5,-6 367.5,-6"/>
<text text-anchor="start" x="375.5" y="-24" font-family="Helvetica,sans-Serif" font-size="10.00">src/VoronoiMeshMaker</text>
<text text-anchor="middle" x="443.5" y="-13" font-family="Helvetica,sans-Serif" font-size="10.00">/Shape/Shape2D/Ellipse.cpp</text>
</a>
</g>
</g>
<!-- Node7&#45;&gt;Node8 -->
<g id="edge7" class="edge">
<title>Node7&#45;&gt;Node8</title>
<path fill="none" stroke="midnightblue" d="M551.25,-74.03C526.66,-62.16 495.21,-46.97 472.64,-36.07"/>
<polygon fill="midnightblue" stroke="midnightblue" points="549.78,-77.21 560.31,-78.4 552.82,-70.9 549.78,-77.21"/>
</g>
<!-- Node10 -->
<g id="node10" class="node">
<title>Node10</title>
<g id="a_node10"><a xlink:href="Polygon_8cpp.html" target="_top" xlink:title=" ">
<polygon fill="none" stroke="black" points="852.5,-6 852.5,-36 1010.5,-36 1010.5,-6 852.5,-6"/>
<text text-anchor="start" x="860.5" y="-24" font-family="Helvetica,sans-Serif" font-size="10.00">src/VoronoiMeshMaker</text>
<text text-anchor="middle" x="931.5" y="-13" font-family="Helvetica,sans-Serif" font-size="10.00">/Shape/Shape2D/Polygon.cpp</text>
</a>
</g>
</g>
<!-- Node9&#45;&gt;Node10 -->
<g id="edge9" class="edge">
<title>Node9&#45;&gt;Node10</title>
<path fill="none" stroke="midnightblue" d="M931.5,-68.23C931.5,-57.57 931.5,-45.41 931.5,-36.25"/>
<polygon fill="midnightblue" stroke="midnightblue" points="928,-68.23 931.5,-78.23 935,-68.23 928,-68.23"/>
</g>
<!-- Node12 -->
<g id="node12" class="node">
<title>Node12</title>
<g id="a_node12"><a xlink:href="Rectangle_8cpp.html" target="_top" xlink:title=" ">
<polygon fill="none" stroke="black" points="623.5,-6 623.5,-36 791.5,-36 791.5,-6 623.5,-6"/>
<text text-anchor="start" x="631.5" y="-24" font-family="Helvetica,sans-Serif" font-size="10.00">src/VoronoiMeshMaker</text>
<text text-anchor="middle" x="707.5" y="-13" font-family="Helvetica,sans-Serif" font-size="10.00">/Shape/Shape2D/Rectangle.cpp</text>
</a>
</g>
</g>
<!-- Node11&#45;&gt;Node12 -->
<g id="edge11" class="edge">
<title>Node11&#45;&gt;Node12</title>
<path fill="none" stroke="midnightblue" d="M743.74,-70.21C735.39,-59.1 725.53,-45.99 718.21,-36.25"/>
<polygon fill="midnightblue" stroke="midnightblue" points="740.97,-72.34 749.77,-78.23 746.56,-68.14 740.97,-72.34"/>
</g>
<!-- Node14 -->
<g id="node14" class="node">
<title>Node14</title>
<g id="a_node14"><a xlink:href="Star_8cpp.html" target="_top" xlink:title=" ">
<polygon fill="none" stroke="black" points="167,-6 167,-36 306,-36 306,-6 167,-6"/>
<text text-anchor="start" x="175" y="-24" font-family="Helvetica,sans-Serif" font-size="10.00">src/VoronoiMeshMaker</text>
<text text-anchor="middle" x="236.5" y="-13" font-family="Helvetica,sans-Serif" font-size="10.00">/Shape/Shape2D/Star.cpp</text>
</a>
</g>
</g>
<!-- Node13&#45;&gt;Node14 -->
<g id="edge13" class="edge">
<title>Node13&#45;&gt;Node14</title>
<path fill="none" stroke="midnightblue" d="M239.78,-68.23C239.02,-57.57 238.16,-45.41 237.51,-36.25"/>
<polygon fill="midnightblue" stroke="midnightblue" points="236.29,-68.51 240.49,-78.23 243.27,-68.01 236.29,-68.51"/>
</g>
<!-- Node16&#45;&gt;Node8 -->
<g id="edge16" class="edge">
<title>Node16&#45;&gt;Node8</title>
<path fill="none" stroke="midnightblue" d="M157.87,-76.57C221.66,-64.38 308.78,-47.74 369.98,-36.05"/>
<polygon fill="midnightblue" stroke="midnightblue" points="157.01,-73.17 147.84,-78.49 158.32,-80.05 157.01,-73.17"/>
</g>
<!-- Node16&#45;&gt;Node12 -->
<g id="edge17" class="edge">
<title>Node16&#45;&gt;Node12</title>
<path fill="none" stroke="midnightblue" d="M159.11,-77.99C323.93,-56.05 367.38,-58.84 528.5,-42 559.44,-38.77 593.38,-35.02 623.3,-31.66"/>
<polygon fill="midnightblue" stroke="midnightblue" points="158.56,-74.53 149.11,-79.33 159.49,-81.47 158.56,-74.53"/>
</g>
<!-- Node16&#45;&gt;Node14 -->
<g id="edge18" class="edge">
<title>Node16&#45;&gt;Node14</title>
<path fill="none" stroke="midnightblue" d="M116.22,-74.34C143.61,-62.42 178.9,-47.07 204.16,-36.07"/>
<polygon fill="midnightblue" stroke="midnightblue" points="114.67,-71.2 106.89,-78.4 117.46,-77.62 114.67,-71.2"/>
</g>
<!-- Node17 -->
<g id="node17" class="node">
<title>Node17</title>
<g id="a_node17"><a xlink:href="ShapeFactory_8cpp.html" target="_top" xlink:title="Implements the ShapeFactory methods for creating shape objects. This file contains the registration a...">
<polygon fill="none" stroke="black" points="6,-6 6,-36 143,-36 143,-6 6,-6"/>
<text text-anchor="start" x="14" y="-24" font-family="Helvetica,sans-Serif" font-size="10.00">src/VoronoiMeshMaker</text>
<text text-anchor="middle" x="74.5" y="-13" font-family="Helvetica,sans-Serif" font-size="10.00">/Shape/ShapeFactory.cpp</text>
</a>
</g>
</g>
<!-- Node16&#45;&gt;Node17 -->
<g id="edge19" class="edge">
<title>Node16&#45;&gt;Node17</title>
<path fill="none" stroke="midnightblue" d="M74.5,-68.23C74.5,-57.57 74.5,-45.41 74.5,-36.25"/>
<polygon fill="midnightblue" stroke="midnightblue" points="71,-68.23 74.5,-78.23 78,-68.23 71,-68.23"/>
</g>
</g>
</svg>
