<?xml version="1.0" encoding="UTF-8" standalone="no"?>
<!DOCTYPE svg PUBLIC "-//W3C//DTD SVG 1.1//EN"
 "http://www.w3.org/Graphics/SVG/1.1/DTD/svg11.dtd">
<!-- Generated by graphviz version 2.43.0 (0)
 -->
<!-- Title: include/VoronoiMeshMaker/Parameters/GeometricDataHolder.h Pages: 1 -->
<svg width="834pt" height="251pt"
 viewBox="0.00 0.00 833.50 251.00" xmlns="http://www.w3.org/2000/svg" xmlns:xlink="http://www.w3.org/1999/xlink">
<g id="graph0" class="graph" transform="scale(1 1) rotate(0) translate(4 247)">
<title>include/VoronoiMeshMaker/Parameters/GeometricDataHolder.h</title>
<!-- Node1 -->
<g id="node1" class="node">
<title>Node1</title>
<g id="a_node1"><a xlink:title="Defines the GeometricDataHolder class and the DataTraits for handling multiple data types....">
<polygon fill="#bfbfbf" stroke="black" points="156.5,-212.5 156.5,-242.5 350.5,-242.5 350.5,-212.5 156.5,-212.5"/>
<text text-anchor="start" x="164.5" y="-230.5" font-family="Helvetica,sans-Serif" font-size="10.00">include/VoronoiMeshMaker</text>
<text text-anchor="middle" x="253.5" y="-219.5" font-family="Helvetica,sans-Serif" font-size="10.00">/Parameters/GeometricDataHolder.h</text>
</a>
</g>
</g>
<!-- Node2 -->
<g id="node2" class="node">
<title>Node2</title>
<g id="a_node2"><a xlink:title=" ">
<polygon fill="none" stroke="#bfbfbf" points="0,-151 0,-170 65,-170 65,-151 0,-151"/>
<text text-anchor="middle" x="32.5" y="-158" font-family="Helvetica,sans-Serif" font-size="10.00">execution</text>
</a>
</g>
</g>
<!-- Node1&#45;&gt;Node2 -->
<g id="edge1" class="edge">
<title>Node1&#45;&gt;Node2</title>
<path fill="none" stroke="midnightblue" d="M200.79,-212.48C165.01,-202.76 116.71,-189.23 74.5,-176 71.74,-175.13 68.89,-174.21 66.03,-173.27"/>
<polygon fill="midnightblue" stroke="midnightblue" points="67,-169.9 56.41,-170.02 64.76,-176.53 67,-169.9"/>
</g>
<!-- Node3 -->
<g id="node3" class="node">
<title>Node3</title>
<g id="a_node3"><a xlink:title=" ">
<polygon fill="none" stroke="#bfbfbf" points="83.5,-151 83.5,-170 241.5,-170 241.5,-151 83.5,-151"/>
<text text-anchor="middle" x="162.5" y="-158" font-family="Helvetica,sans-Serif" font-size="10.00">VoronoiMeshMaker/Misc/ID.h</text>
</a>
</g>
</g>
<!-- Node1&#45;&gt;Node3 -->
<g id="edge2" class="edge">
<title>Node1&#45;&gt;Node3</title>
<path fill="none" stroke="midnightblue" d="M233.75,-212.4C218.64,-201.6 197.86,-186.76 182.64,-175.89"/>
<polygon fill="midnightblue" stroke="midnightblue" points="184.58,-172.97 174.41,-170.01 180.51,-178.67 184.58,-172.97"/>
</g>
<!-- Node4 -->
<g id="node4" class="node">
<title>Node4</title>
<g id="a_node4"><a xlink:href="GeometricDataTraits_8h.html" target="_top" xlink:title="Defines the GeometricDataTraits structure used for type identification and operations on various data...">
<polygon fill="none" stroke="black" points="259.5,-145.5 259.5,-175.5 429.5,-175.5 429.5,-145.5 259.5,-145.5"/>
<text text-anchor="start" x="267.5" y="-163.5" font-family="Helvetica,sans-Serif" font-size="10.00">VoronoiMeshMaker/Parameters</text>
<text text-anchor="middle" x="344.5" y="-152.5" font-family="Helvetica,sans-Serif" font-size="10.00">/GeometricDataTraits.h</text>
</a>
</g>
</g>
<!-- Node1&#45;&gt;Node4 -->
<g id="edge3" class="edge">
<title>Node1&#45;&gt;Node4</title>
<path fill="none" stroke="midnightblue" d="M273.25,-212.4C285.89,-203.37 302.48,-191.51 316.47,-181.52"/>
<polygon fill="midnightblue" stroke="midnightblue" points="318.69,-184.24 324.79,-175.58 314.62,-178.54 318.69,-184.24"/>
</g>
<!-- Node13 -->
<g id="node13" class="node">
<title>Node13</title>
<g id="a_node13"><a xlink:href="GeometricDataHolder_8tpp.html" target="_top" xlink:title=" ">
<polygon fill="none" stroke="black" points="447.5,-145.5 447.5,-175.5 617.5,-175.5 617.5,-145.5 447.5,-145.5"/>
<text text-anchor="start" x="455.5" y="-163.5" font-family="Helvetica,sans-Serif" font-size="10.00">VoronoiMeshMaker/Parameters</text>
<text text-anchor="middle" x="532.5" y="-152.5" font-family="Helvetica,sans-Serif" font-size="10.00">/GeometricDataHolder.tpp</text>
</a>
</g>
</g>
<!-- Node1&#45;&gt;Node13 -->
<g id="edge12" class="edge">
<title>Node1&#45;&gt;Node13</title>
<path fill="none" stroke="midnightblue" d="M313.7,-212.48C357.27,-202.32 416.31,-188.57 462.08,-177.91"/>
<polygon fill="midnightblue" stroke="midnightblue" points="462.99,-181.29 471.93,-175.61 461.4,-174.47 462.99,-181.29"/>
</g>
<!-- Node5 -->
<g id="node5" class="node">
<title>Node5</title>
<g id="a_node5"><a xlink:href="type_8h.html" target="_top" xlink:title="Defines common geometric and numeric types used in the VoronoiMeshMaker library.">
<polygon fill="none" stroke="black" points="276.5,-78.5 276.5,-108.5 412.5,-108.5 412.5,-78.5 276.5,-78.5"/>
<text text-anchor="start" x="284.5" y="-96.5" font-family="Helvetica,sans-Serif" font-size="10.00">VoronoiMeshMaker/Misc</text>
<text text-anchor="middle" x="344.5" y="-85.5" font-family="Helvetica,sans-Serif" font-size="10.00">/type.h</text>
</a>
</g>
</g>
<!-- Node4&#45;&gt;Node5 -->
<g id="edge4" class="edge">
<title>Node4&#45;&gt;Node5</title>
<path fill="none" stroke="midnightblue" d="M344.5,-145.4C344.5,-137.64 344.5,-127.81 344.5,-118.86"/>
<polygon fill="midnightblue" stroke="midnightblue" points="348,-118.58 344.5,-108.58 341,-118.58 348,-118.58"/>
</g>
<!-- Node6 -->
<g id="node6" class="node">
<title>Node6</title>
<g id="a_node6"><a xlink:title=" ">
<polygon fill="none" stroke="#bfbfbf" points="88.5,-11.5 88.5,-30.5 120.5,-30.5 120.5,-11.5 88.5,-11.5"/>
<text text-anchor="middle" x="104.5" y="-18.5" font-family="Helvetica,sans-Serif" font-size="10.00">list</text>
</a>
</g>
</g>
<!-- Node5&#45;&gt;Node6 -->
<g id="edge5" class="edge">
<title>Node5&#45;&gt;Node6</title>
<path fill="none" stroke="midnightblue" d="M276.03,-84.34C232.44,-77.26 175.7,-64.47 129.5,-42 126.78,-40.68 124.09,-39.02 121.54,-37.22"/>
<polygon fill="midnightblue" stroke="midnightblue" points="123.56,-34.35 113.55,-30.87 119.2,-39.83 123.56,-34.35"/>
</g>
<!-- Node7 -->
<g id="node7" class="node">
<title>Node7</title>
<g id="a_node7"><a xlink:title=" ">
<polygon fill="none" stroke="#bfbfbf" points="138.5,-11.5 138.5,-30.5 196.5,-30.5 196.5,-11.5 138.5,-11.5"/>
<text text-anchor="middle" x="167.5" y="-18.5" font-family="Helvetica,sans-Serif" font-size="10.00">memory</text>
</a>
</g>
</g>
<!-- Node5&#45;&gt;Node7 -->
<g id="edge6" class="edge">
<title>Node5&#45;&gt;Node7</title>
<path fill="none" stroke="midnightblue" d="M302,-78.46C274.43,-68.99 237.94,-55.75 206.5,-42 201.86,-39.97 197,-37.65 192.35,-35.32"/>
<polygon fill="midnightblue" stroke="midnightblue" points="193.72,-32.09 183.23,-30.62 190.52,-38.31 193.72,-32.09"/>
</g>
<!-- Node8 -->
<g id="node8" class="node">
<title>Node8</title>
<g id="a_node8"><a xlink:title=" ">
<polygon fill="none" stroke="#bfbfbf" points="215,-11.5 215,-30.5 262,-30.5 262,-11.5 215,-11.5"/>
<text text-anchor="middle" x="238.5" y="-18.5" font-family="Helvetica,sans-Serif" font-size="10.00">vector</text>
</a>
</g>
</g>
<!-- Node5&#45;&gt;Node8 -->
<g id="edge7" class="edge">
<title>Node5&#45;&gt;Node8</title>
<path fill="none" stroke="midnightblue" d="M323.3,-78.4C304.82,-66.11 278.15,-48.37 259.67,-36.08"/>
<polygon fill="midnightblue" stroke="midnightblue" points="261.6,-33.16 251.33,-30.53 257.72,-38.99 261.6,-33.16"/>
</g>
<!-- Node9 -->
<g id="node9" class="node">
<title>Node9</title>
<g id="a_node9"><a xlink:title=" ">
<polygon fill="none" stroke="#bfbfbf" points="280,-0.5 280,-41.5 409,-41.5 409,-0.5 280,-0.5"/>
<text text-anchor="start" x="288" y="-29.5" font-family="Helvetica,sans-Serif" font-size="10.00">CGAL/Exact_predicates</text>
<text text-anchor="start" x="288" y="-18.5" font-family="Helvetica,sans-Serif" font-size="10.00">_inexact_constructions</text>
<text text-anchor="middle" x="344.5" y="-7.5" font-family="Helvetica,sans-Serif" font-size="10.00">_kernel.h</text>
</a>
</g>
</g>
<!-- Node5&#45;&gt;Node9 -->
<g id="edge8" class="edge">
<title>Node5&#45;&gt;Node9</title>
<path fill="none" stroke="midnightblue" d="M344.5,-78.23C344.5,-70.57 344.5,-60.84 344.5,-51.63"/>
<polygon fill="midnightblue" stroke="midnightblue" points="348,-51.59 344.5,-41.59 341,-51.59 348,-51.59"/>
</g>
<!-- Node10 -->
<g id="node10" class="node">
<title>Node10</title>
<g id="a_node10"><a xlink:title=" ">
<polygon fill="none" stroke="#bfbfbf" points="427,-11.5 427,-30.5 532,-30.5 532,-11.5 427,-11.5"/>
<text text-anchor="middle" x="479.5" y="-18.5" font-family="Helvetica,sans-Serif" font-size="10.00">CGAL/Polygon_2.h</text>
</a>
</g>
</g>
<!-- Node5&#45;&gt;Node10 -->
<g id="edge9" class="edge">
<title>Node5&#45;&gt;Node10</title>
<path fill="none" stroke="midnightblue" d="M371.49,-78.4C395.57,-65.83 430.56,-47.56 454.13,-35.25"/>
<polygon fill="midnightblue" stroke="midnightblue" points="455.92,-38.27 463.16,-30.53 452.67,-32.06 455.92,-38.27"/>
</g>
<!-- Node11 -->
<g id="node11" class="node">
<title>Node11</title>
<g id="a_node11"><a xlink:title=" ">
<polygon fill="none" stroke="#bfbfbf" points="550,-11.5 550,-30.5 671,-30.5 671,-11.5 550,-11.5"/>
<text text-anchor="middle" x="610.5" y="-18.5" font-family="Helvetica,sans-Serif" font-size="10.00">CGAL/Polyhedron_3.h</text>
</a>
</g>
</g>
<!-- Node5&#45;&gt;Node11 -->
<g id="edge10" class="edge">
<title>Node5&#45;&gt;Node11</title>
<path fill="none" stroke="midnightblue" d="M401.09,-78.49C440.53,-68.6 494.33,-54.88 541.5,-42 551.43,-39.29 562.12,-36.25 572.06,-33.37"/>
<polygon fill="midnightblue" stroke="midnightblue" points="573.06,-36.73 581.68,-30.57 571.11,-30 573.06,-36.73"/>
</g>
<!-- Node12 -->
<g id="node12" class="node">
<title>Node12</title>
<g id="a_node12"><a xlink:href="namespace_8h.html" target="_top" xlink:title=" ">
<polygon fill="none" stroke="black" points="689.5,-6 689.5,-36 825.5,-36 825.5,-6 689.5,-6"/>
<text text-anchor="start" x="697.5" y="-24" font-family="Helvetica,sans-Serif" font-size="10.00">VoronoiMeshMaker/Misc</text>
<text text-anchor="middle" x="757.5" y="-13" font-family="Helvetica,sans-Serif" font-size="10.00">/namespace.h</text>
</a>
</g>
</g>
<!-- Node5&#45;&gt;Node12 -->
<g id="edge11" class="edge">
<title>Node5&#45;&gt;Node12</title>
<path fill="none" stroke="midnightblue" d="M412.76,-84.38C480.91,-75.76 588.46,-60.81 680.5,-42 685.74,-40.93 691.16,-39.72 696.59,-38.45"/>
<polygon fill="midnightblue" stroke="midnightblue" points="697.42,-41.85 706.32,-36.09 695.77,-35.04 697.42,-41.85"/>
</g>
</g>
</svg>
