<?xml version="1.0" encoding="UTF-8" standalone="no"?>
<!DOCTYPE svg PUBLIC "-//W3C//DTD SVG 1.1//EN"
 "http://www.w3.org/Graphics/SVG/1.1/DTD/svg11.dtd">
<!-- Generated by graphviz version 2.43.0 (0)
 -->
<!-- Title: include/VoronoiMeshMaker/DataExporter/HDF5ExportStrategy.h Pages: 1 -->
<svg width="949pt" height="519pt"
 viewBox="0.00 0.00 948.60 519.00" xmlns="http://www.w3.org/2000/svg" xmlns:xlink="http://www.w3.org/1999/xlink">
<g id="graph0" class="graph" transform="scale(1 1) rotate(0) translate(4 515)">
<title>include/VoronoiMeshMaker/DataExporter/HDF5ExportStrategy.h</title>
<!-- Node1 -->
<g id="node1" class="node">
<title>Node1</title>
<g id="a_node1"><a xlink:title="Defines the HDF5 export strategy for exporting geometric data.">
<polygon fill="#bfbfbf" stroke="black" points="5.6,-480.5 5.6,-510.5 199.6,-510.5 199.6,-480.5 5.6,-480.5"/>
<text text-anchor="start" x="13.6" y="-498.5" font-family="Helvetica,sans-Serif" font-size="10.00">include/VoronoiMeshMaker</text>
<text text-anchor="middle" x="102.6" y="-487.5" font-family="Helvetica,sans-Serif" font-size="10.00">/DataExporter/HDF5ExportStrategy.h</text>
</a>
</g>
</g>
<!-- Node2 -->
<g id="node2" class="node">
<title>Node2</title>
<g id="a_node2"><a xlink:title=" ">
<polygon fill="none" stroke="#bfbfbf" points="23.6,-352 23.6,-371 67.6,-371 67.6,-352 23.6,-352"/>
<text text-anchor="middle" x="45.6" y="-359" font-family="Helvetica,sans-Serif" font-size="10.00">string</text>
</a>
</g>
</g>
<!-- Node1&#45;&gt;Node2 -->
<g id="edge1" class="edge">
<title>Node1&#45;&gt;Node2</title>
<path fill="none" stroke="midnightblue" d="M51.46,-480.43C33.43,-472.74 15.06,-461.16 4.6,-444 -8.79,-422.03 11.32,-395.13 27.8,-378.4"/>
<polygon fill="midnightblue" stroke="midnightblue" points="30.65,-380.52 35.44,-371.07 25.81,-375.47 30.65,-380.52"/>
</g>
<!-- Node3 -->
<g id="node3" class="node">
<title>Node3</title>
<g id="a_node3"><a xlink:href="ExportStrategy_8h.html" target="_top" xlink:title="Defines the abstract base class for export strategies.">
<polygon fill="none" stroke="black" points="13.6,-413.5 13.6,-443.5 191.6,-443.5 191.6,-413.5 13.6,-413.5"/>
<text text-anchor="start" x="21.6" y="-431.5" font-family="Helvetica,sans-Serif" font-size="10.00">VoronoiMeshMaker/DataExporter</text>
<text text-anchor="middle" x="102.6" y="-420.5" font-family="Helvetica,sans-Serif" font-size="10.00">/ExportStrategy.h</text>
</a>
</g>
</g>
<!-- Node1&#45;&gt;Node3 -->
<g id="edge2" class="edge">
<title>Node1&#45;&gt;Node3</title>
<path fill="none" stroke="midnightblue" d="M102.6,-480.4C102.6,-472.64 102.6,-462.81 102.6,-453.86"/>
<polygon fill="midnightblue" stroke="midnightblue" points="106.1,-453.58 102.6,-443.58 99.1,-453.58 106.1,-453.58"/>
</g>
<!-- Node4 -->
<g id="node4" class="node">
<title>Node4</title>
<g id="a_node4"><a xlink:href="Shape2D_8h.html" target="_top" xlink:title="Defines the Shape2D class, which represents 2D geometric shapes.">
<polygon fill="none" stroke="black" points="88.1,-346.5 88.1,-376.5 231.1,-376.5 231.1,-346.5 88.1,-346.5"/>
<text text-anchor="start" x="96.1" y="-364.5" font-family="Helvetica,sans-Serif" font-size="10.00">VoronoiMeshMaker/Shape</text>
<text text-anchor="middle" x="159.6" y="-353.5" font-family="Helvetica,sans-Serif" font-size="10.00">/Shape2D/Shape2D.h</text>
</a>
</g>
</g>
<!-- Node1&#45;&gt;Node4 -->
<g id="edge22" class="edge">
<title>Node1&#45;&gt;Node4</title>
<path fill="none" stroke="midnightblue" d="M153.75,-480.43C171.77,-472.74 190.14,-461.16 200.6,-444 212.51,-424.48 197.94,-401.05 182.98,-384.34"/>
<polygon fill="midnightblue" stroke="midnightblue" points="185.15,-381.54 175.72,-376.72 180.08,-386.37 185.15,-381.54"/>
</g>
<!-- Node3&#45;&gt;Node2 -->
<g id="edge3" class="edge">
<title>Node3&#45;&gt;Node2</title>
<path fill="none" stroke="midnightblue" d="M90.23,-413.4C81.35,-403.26 69.34,-389.57 60.02,-378.94"/>
<polygon fill="midnightblue" stroke="midnightblue" points="62.45,-376.41 53.23,-371.19 57.19,-381.02 62.45,-376.41"/>
</g>
<!-- Node3&#45;&gt;Node4 -->
<g id="edge4" class="edge">
<title>Node3&#45;&gt;Node4</title>
<path fill="none" stroke="midnightblue" d="M114.97,-413.4C122.44,-404.88 132.11,-393.85 140.54,-384.23"/>
<polygon fill="midnightblue" stroke="midnightblue" points="143.3,-386.4 147.26,-376.58 138.03,-381.79 143.3,-386.4"/>
</g>
<!-- Node5 -->
<g id="node5" class="node">
<title>Node5</title>
<g id="a_node5"><a xlink:href="Shape_8h.html" target="_top" xlink:title="Defines the Shape class, which serves as the abstract base class for all shapes. This class provides ...">
<polygon fill="none" stroke="black" points="88.1,-279.5 88.1,-309.5 231.1,-309.5 231.1,-279.5 88.1,-279.5"/>
<text text-anchor="start" x="96.1" y="-297.5" font-family="Helvetica,sans-Serif" font-size="10.00">VoronoiMeshMaker/Shape</text>
<text text-anchor="middle" x="159.6" y="-286.5" font-family="Helvetica,sans-Serif" font-size="10.00">/Shape.h</text>
</a>
</g>
</g>
<!-- Node4&#45;&gt;Node5 -->
<g id="edge5" class="edge">
<title>Node4&#45;&gt;Node5</title>
<path fill="none" stroke="midnightblue" d="M159.6,-346.4C159.6,-338.64 159.6,-328.81 159.6,-319.86"/>
<polygon fill="midnightblue" stroke="midnightblue" points="163.1,-319.58 159.6,-309.58 156.1,-319.58 163.1,-319.58"/>
</g>
<!-- Node6 -->
<g id="node6" class="node">
<title>Node6</title>
<g id="a_node6"><a xlink:title=" ">
<polygon fill="none" stroke="#bfbfbf" points="35.6,-218 35.6,-237 95.6,-237 95.6,-218 35.6,-218"/>
<text text-anchor="middle" x="65.6" y="-225" font-family="Helvetica,sans-Serif" font-size="10.00">iostream</text>
</a>
</g>
</g>
<!-- Node5&#45;&gt;Node6 -->
<g id="edge6" class="edge">
<title>Node5&#45;&gt;Node6</title>
<path fill="none" stroke="midnightblue" d="M139.21,-279.4C123.59,-268.6 102.13,-253.76 86.41,-242.89"/>
<polygon fill="midnightblue" stroke="midnightblue" points="88.12,-239.82 77.9,-237.01 84.14,-245.57 88.12,-239.82"/>
</g>
<!-- Node7 -->
<g id="node7" class="node">
<title>Node7</title>
<g id="a_node7"><a xlink:title=" ">
<polygon fill="none" stroke="#bfbfbf" points="167.6,-11.5 167.6,-30.5 225.6,-30.5 225.6,-11.5 167.6,-11.5"/>
<text text-anchor="middle" x="196.6" y="-18.5" font-family="Helvetica,sans-Serif" font-size="10.00">memory</text>
</a>
</g>
</g>
<!-- Node5&#45;&gt;Node7 -->
<g id="edge7" class="edge">
<title>Node5&#45;&gt;Node7</title>
<path fill="none" stroke="midnightblue" d="M155.03,-279.44C147.05,-252.91 132.37,-193.76 142.6,-145 150.95,-105.24 172.94,-62.63 186.15,-39.46"/>
<polygon fill="midnightblue" stroke="midnightblue" points="189.34,-40.93 191.36,-30.53 183.29,-37.4 189.34,-40.93"/>
</g>
<!-- Node8 -->
<g id="node8" class="node">
<title>Node8</title>
<g id="a_node8"><a xlink:title=" ">
<polygon fill="none" stroke="#bfbfbf" points="151.6,-151 151.6,-170 309.6,-170 309.6,-151 151.6,-151"/>
<text text-anchor="middle" x="230.6" y="-158" font-family="Helvetica,sans-Serif" font-size="10.00">VoronoiMeshMaker/Misc/ID.h</text>
</a>
</g>
</g>
<!-- Node5&#45;&gt;Node8 -->
<g id="edge8" class="edge">
<title>Node5&#45;&gt;Node8</title>
<path fill="none" stroke="midnightblue" d="M167.2,-279.37C180.27,-255.08 206.97,-205.44 221.19,-179"/>
<polygon fill="midnightblue" stroke="midnightblue" points="224.32,-180.56 225.98,-170.1 218.16,-177.25 224.32,-180.56"/>
</g>
<!-- Node9 -->
<g id="node9" class="node">
<title>Node9</title>
<g id="a_node9"><a xlink:href="GeometricDataHolder_8h.html" target="_top" xlink:title="Defines the GeometricDataHolder class and the DataTraits for handling multiple data types....">
<polygon fill="none" stroke="black" points="275.6,-212.5 275.6,-242.5 445.6,-242.5 445.6,-212.5 275.6,-212.5"/>
<text text-anchor="start" x="283.6" y="-230.5" font-family="Helvetica,sans-Serif" font-size="10.00">VoronoiMeshMaker/Parameters</text>
<text text-anchor="middle" x="360.6" y="-219.5" font-family="Helvetica,sans-Serif" font-size="10.00">/GeometricDataHolder.h</text>
</a>
</g>
</g>
<!-- Node5&#45;&gt;Node9 -->
<g id="edge9" class="edge">
<title>Node5&#45;&gt;Node9</title>
<path fill="none" stroke="midnightblue" d="M203.22,-279.4C233.77,-269.52 274.78,-256.25 307.28,-245.74"/>
<polygon fill="midnightblue" stroke="midnightblue" points="308.64,-248.98 317.07,-242.58 306.48,-242.32 308.64,-248.98"/>
</g>
<!-- Node9&#45;&gt;Node8 -->
<g id="edge11" class="edge">
<title>Node9&#45;&gt;Node8</title>
<path fill="none" stroke="midnightblue" d="M332.39,-212.4C309.89,-201.14 278.6,-185.5 256.68,-174.54"/>
<polygon fill="midnightblue" stroke="midnightblue" points="258.13,-171.35 247.62,-170.01 255,-177.61 258.13,-171.35"/>
</g>
<!-- Node10 -->
<g id="node10" class="node">
<title>Node10</title>
<g id="a_node10"><a xlink:title=" ">
<polygon fill="none" stroke="#bfbfbf" points="328.1,-151 328.1,-170 393.1,-170 393.1,-151 328.1,-151"/>
<text text-anchor="middle" x="360.6" y="-158" font-family="Helvetica,sans-Serif" font-size="10.00">execution</text>
</a>
</g>
</g>
<!-- Node9&#45;&gt;Node10 -->
<g id="edge10" class="edge">
<title>Node9&#45;&gt;Node10</title>
<path fill="none" stroke="midnightblue" d="M360.6,-212.4C360.6,-203.06 360.6,-190.71 360.6,-180.52"/>
<polygon fill="midnightblue" stroke="midnightblue" points="364.1,-180.19 360.6,-170.19 357.1,-180.19 364.1,-180.19"/>
</g>
<!-- Node11 -->
<g id="node11" class="node">
<title>Node11</title>
<g id="a_node11"><a xlink:href="GeometricDataTraits_8h.html" target="_top" xlink:title="Defines the GeometricDataTraits structure used for type identification and operations on various data...">
<polygon fill="none" stroke="black" points="411.6,-145.5 411.6,-175.5 581.6,-175.5 581.6,-145.5 411.6,-145.5"/>
<text text-anchor="start" x="419.6" y="-163.5" font-family="Helvetica,sans-Serif" font-size="10.00">VoronoiMeshMaker/Parameters</text>
<text text-anchor="middle" x="496.6" y="-152.5" font-family="Helvetica,sans-Serif" font-size="10.00">/GeometricDataTraits.h</text>
</a>
</g>
</g>
<!-- Node9&#45;&gt;Node11 -->
<g id="edge12" class="edge">
<title>Node9&#45;&gt;Node11</title>
<path fill="none" stroke="midnightblue" d="M390.11,-212.4C409.98,-202.9 436.39,-190.28 457.94,-179.98"/>
<polygon fill="midnightblue" stroke="midnightblue" points="459.64,-183.05 467.15,-175.58 456.62,-176.73 459.64,-183.05"/>
</g>
<!-- Node19 -->
<g id="node19" class="node">
<title>Node19</title>
<g id="a_node19"><a xlink:href="GeometricDataHolder_8tpp.html" target="_top" xlink:title=" ">
<polygon fill="none" stroke="black" points="599.6,-145.5 599.6,-175.5 769.6,-175.5 769.6,-145.5 599.6,-145.5"/>
<text text-anchor="start" x="607.6" y="-163.5" font-family="Helvetica,sans-Serif" font-size="10.00">VoronoiMeshMaker/Parameters</text>
<text text-anchor="middle" x="684.6" y="-152.5" font-family="Helvetica,sans-Serif" font-size="10.00">/GeometricDataHolder.tpp</text>
</a>
</g>
</g>
<!-- Node9&#45;&gt;Node19 -->
<g id="edge21" class="edge">
<title>Node9&#45;&gt;Node19</title>
<path fill="none" stroke="midnightblue" d="M430.51,-212.48C481.63,-202.22 551.06,-188.29 604.43,-177.58"/>
<polygon fill="midnightblue" stroke="midnightblue" points="605.43,-180.95 614.54,-175.55 604.05,-174.09 605.43,-180.95"/>
</g>
<!-- Node12 -->
<g id="node12" class="node">
<title>Node12</title>
<g id="a_node12"><a xlink:href="type_8h.html" target="_top" xlink:title="Defines common geometric and numeric types used in the VoronoiMeshMaker library.">
<polygon fill="none" stroke="black" points="409.6,-78.5 409.6,-108.5 545.6,-108.5 545.6,-78.5 409.6,-78.5"/>
<text text-anchor="start" x="417.6" y="-96.5" font-family="Helvetica,sans-Serif" font-size="10.00">VoronoiMeshMaker/Misc</text>
<text text-anchor="middle" x="477.6" y="-85.5" font-family="Helvetica,sans-Serif" font-size="10.00">/type.h</text>
</a>
</g>
</g>
<!-- Node11&#45;&gt;Node12 -->
<g id="edge13" class="edge">
<title>Node11&#45;&gt;Node12</title>
<path fill="none" stroke="midnightblue" d="M492.48,-145.4C490.16,-137.47 487.21,-127.38 484.55,-118.27"/>
<polygon fill="midnightblue" stroke="midnightblue" points="487.88,-117.19 481.72,-108.58 481.16,-119.16 487.88,-117.19"/>
</g>
<!-- Node12&#45;&gt;Node7 -->
<g id="edge15" class="edge">
<title>Node12&#45;&gt;Node7</title>
<path fill="none" stroke="midnightblue" d="M418.17,-78.41C376.74,-68.49 320.22,-54.76 270.6,-42 259.25,-39.08 246.96,-35.81 235.71,-32.76"/>
<polygon fill="midnightblue" stroke="midnightblue" points="236.3,-29.3 225.73,-30.05 234.46,-36.05 236.3,-29.3"/>
</g>
<!-- Node13 -->
<g id="node13" class="node">
<title>Node13</title>
<g id="a_node13"><a xlink:title=" ">
<polygon fill="none" stroke="#bfbfbf" points="279.6,-11.5 279.6,-30.5 311.6,-30.5 311.6,-11.5 279.6,-11.5"/>
<text text-anchor="middle" x="295.6" y="-18.5" font-family="Helvetica,sans-Serif" font-size="10.00">list</text>
</a>
</g>
</g>
<!-- Node12&#45;&gt;Node13 -->
<g id="edge14" class="edge">
<title>Node12&#45;&gt;Node13</title>
<path fill="none" stroke="midnightblue" d="M418.27,-78.46C388.3,-70.1 351.96,-57.97 321.6,-42 318.77,-40.51 315.93,-38.71 313.22,-36.81"/>
<polygon fill="midnightblue" stroke="midnightblue" points="315.24,-33.95 305.18,-30.64 310.98,-39.51 315.24,-33.95"/>
</g>
<!-- Node14 -->
<g id="node14" class="node">
<title>Node14</title>
<g id="a_node14"><a xlink:title=" ">
<polygon fill="none" stroke="#bfbfbf" points="330.1,-11.5 330.1,-30.5 377.1,-30.5 377.1,-11.5 330.1,-11.5"/>
<text text-anchor="middle" x="353.6" y="-18.5" font-family="Helvetica,sans-Serif" font-size="10.00">vector</text>
</a>
</g>
</g>
<!-- Node12&#45;&gt;Node14 -->
<g id="edge16" class="edge">
<title>Node12&#45;&gt;Node14</title>
<path fill="none" stroke="midnightblue" d="M451.57,-78.4C433.29,-68.41 408.33,-54.6 386.6,-42 383.28,-40.07 379.79,-38 376.37,-35.95"/>
<polygon fill="midnightblue" stroke="midnightblue" points="378.03,-32.87 367.66,-30.68 374.41,-38.86 378.03,-32.87"/>
</g>
<!-- Node15 -->
<g id="node15" class="node">
<title>Node15</title>
<g id="a_node15"><a xlink:title=" ">
<polygon fill="none" stroke="#bfbfbf" points="395.1,-0.5 395.1,-41.5 524.1,-41.5 524.1,-0.5 395.1,-0.5"/>
<text text-anchor="start" x="403.1" y="-29.5" font-family="Helvetica,sans-Serif" font-size="10.00">CGAL/Exact_predicates</text>
<text text-anchor="start" x="403.1" y="-18.5" font-family="Helvetica,sans-Serif" font-size="10.00">_inexact_constructions</text>
<text text-anchor="middle" x="459.6" y="-7.5" font-family="Helvetica,sans-Serif" font-size="10.00">_kernel.h</text>
</a>
</g>
</g>
<!-- Node12&#45;&gt;Node15 -->
<g id="edge17" class="edge">
<title>Node12&#45;&gt;Node15</title>
<path fill="none" stroke="midnightblue" d="M473.96,-78.23C471.98,-70.49 469.46,-60.63 467.09,-51.33"/>
<polygon fill="midnightblue" stroke="midnightblue" points="470.47,-50.41 464.6,-41.59 463.69,-52.14 470.47,-50.41"/>
</g>
<!-- Node16 -->
<g id="node16" class="node">
<title>Node16</title>
<g id="a_node16"><a xlink:title=" ">
<polygon fill="none" stroke="#bfbfbf" points="542.1,-11.5 542.1,-30.5 647.1,-30.5 647.1,-11.5 542.1,-11.5"/>
<text text-anchor="middle" x="594.6" y="-18.5" font-family="Helvetica,sans-Serif" font-size="10.00">CGAL/Polygon_2.h</text>
</a>
</g>
</g>
<!-- Node12&#45;&gt;Node16 -->
<g id="edge18" class="edge">
<title>Node12&#45;&gt;Node16</title>
<path fill="none" stroke="midnightblue" d="M501,-78.4C521.59,-66 551.38,-48.05 571.79,-35.75"/>
<polygon fill="midnightblue" stroke="midnightblue" points="573.68,-38.69 580.44,-30.53 570.07,-32.7 573.68,-38.69"/>
</g>
<!-- Node17 -->
<g id="node17" class="node">
<title>Node17</title>
<g id="a_node17"><a xlink:title=" ">
<polygon fill="none" stroke="#bfbfbf" points="665.1,-11.5 665.1,-30.5 786.1,-30.5 786.1,-11.5 665.1,-11.5"/>
<text text-anchor="middle" x="725.6" y="-18.5" font-family="Helvetica,sans-Serif" font-size="10.00">CGAL/Polyhedron_3.h</text>
</a>
</g>
</g>
<!-- Node12&#45;&gt;Node17 -->
<g id="edge19" class="edge">
<title>Node12&#45;&gt;Node17</title>
<path fill="none" stroke="midnightblue" d="M527.78,-78.45C563.68,-68.37 613.14,-54.43 656.6,-42 666.3,-39.23 676.76,-36.21 686.53,-33.38"/>
<polygon fill="midnightblue" stroke="midnightblue" points="687.78,-36.66 696.41,-30.51 685.83,-29.94 687.78,-36.66"/>
</g>
<!-- Node18 -->
<g id="node18" class="node">
<title>Node18</title>
<g id="a_node18"><a xlink:href="namespace_8h.html" target="_top" xlink:title=" ">
<polygon fill="none" stroke="black" points="804.6,-6 804.6,-36 940.6,-36 940.6,-6 804.6,-6"/>
<text text-anchor="start" x="812.6" y="-24" font-family="Helvetica,sans-Serif" font-size="10.00">VoronoiMeshMaker/Misc</text>
<text text-anchor="middle" x="872.6" y="-13" font-family="Helvetica,sans-Serif" font-size="10.00">/namespace.h</text>
</a>
</g>
</g>
<!-- Node12&#45;&gt;Node18 -->
<g id="edge20" class="edge">
<title>Node12&#45;&gt;Node18</title>
<path fill="none" stroke="midnightblue" d="M545.88,-83.6C610.51,-74.72 710.1,-59.85 795.6,-42 800.84,-40.91 806.26,-39.69 811.68,-38.4"/>
<polygon fill="midnightblue" stroke="midnightblue" points="812.52,-41.8 821.41,-36.03 810.86,-35 812.52,-41.8"/>
</g>
</g>
</svg>
