<?xml version="1.0" encoding="UTF-8" standalone="no"?>
<!DOCTYPE svg PUBLIC "-//W3C//DTD SVG 1.1//EN"
 "http://www.w3.org/Graphics/SVG/1.1/DTD/svg11.dtd">
<!-- Generated by graphviz version 2.43.0 (0)
 -->
<!-- Title: src/VoronoiMeshMaker/DataExporter/HDF5ExportStrategy.cpp Pages: 1 -->
<svg width="928pt" height="586pt"
 viewBox="0.00 0.00 928.00 586.00" xmlns="http://www.w3.org/2000/svg" xmlns:xlink="http://www.w3.org/1999/xlink">
<g id="graph0" class="graph" transform="scale(1 1) rotate(0) translate(4 582)">
<title>src/VoronoiMeshMaker/DataExporter/HDF5ExportStrategy.cpp</title>
<!-- Node1 -->
<g id="node1" class="node">
<title>Node1</title>
<g id="a_node1"><a xlink:title="Implements the HDF5 export strategy for Shape2D data.">
<polygon fill="#bfbfbf" stroke="black" points="0,-547.5 0,-577.5 206,-577.5 206,-547.5 0,-547.5"/>
<text text-anchor="start" x="8" y="-565.5" font-family="Helvetica,sans-Serif" font-size="10.00">src/VoronoiMeshMaker</text>
<text text-anchor="middle" x="103" y="-554.5" font-family="Helvetica,sans-Serif" font-size="10.00">/DataExporter/HDF5ExportStrategy.cpp</text>
</a>
</g>
</g>
<!-- Node2 -->
<g id="node2" class="node">
<title>Node2</title>
<g id="a_node2"><a xlink:title=" ">
<polygon fill="none" stroke="#bfbfbf" points="15,-218 15,-237 75,-237 75,-218 15,-218"/>
<text text-anchor="middle" x="45" y="-225" font-family="Helvetica,sans-Serif" font-size="10.00">iostream</text>
</a>
</g>
</g>
<!-- Node1&#45;&gt;Node2 -->
<g id="edge1" class="edge">
<title>Node1&#45;&gt;Node2</title>
<path fill="none" stroke="midnightblue" d="M92.09,-547.36C75.29,-524.12 45,-475.81 45,-429.5 45,-429.5 45,-429.5 45,-360.5 45,-320.16 45,-272.88 45,-247.28"/>
<polygon fill="midnightblue" stroke="midnightblue" points="48.5,-247.15 45,-237.15 41.5,-247.15 48.5,-247.15"/>
</g>
<!-- Node3 -->
<g id="node3" class="node">
<title>Node3</title>
<g id="a_node3"><a xlink:href="HDF5ExportStrategy_8h.html" target="_top" xlink:title="Defines the HDF5 export strategy for exporting geometric data.">
<polygon fill="none" stroke="black" points="92,-480.5 92,-510.5 270,-510.5 270,-480.5 92,-480.5"/>
<text text-anchor="start" x="100" y="-498.5" font-family="Helvetica,sans-Serif" font-size="10.00">VoronoiMeshMaker/DataExporter</text>
<text text-anchor="middle" x="181" y="-487.5" font-family="Helvetica,sans-Serif" font-size="10.00">/HDF5ExportStrategy.h</text>
</a>
</g>
</g>
<!-- Node1&#45;&gt;Node3 -->
<g id="edge2" class="edge">
<title>Node1&#45;&gt;Node3</title>
<path fill="none" stroke="midnightblue" d="M119.92,-547.4C130.55,-538.54 144.45,-526.96 156.3,-517.09"/>
<polygon fill="midnightblue" stroke="midnightblue" points="158.67,-519.67 164.11,-510.58 154.19,-514.29 158.67,-519.67"/>
</g>
<!-- Node4 -->
<g id="node4" class="node">
<title>Node4</title>
<g id="a_node4"><a xlink:title=" ">
<polygon fill="none" stroke="#bfbfbf" points="74,-352 74,-371 118,-371 118,-352 74,-352"/>
<text text-anchor="middle" x="96" y="-359" font-family="Helvetica,sans-Serif" font-size="10.00">string</text>
</a>
</g>
</g>
<!-- Node3&#45;&gt;Node4 -->
<g id="edge3" class="edge">
<title>Node3&#45;&gt;Node4</title>
<path fill="none" stroke="midnightblue" d="M145.05,-480.47C129.09,-472.31 111.76,-460.36 102,-444 90.61,-424.91 90.92,-398.66 92.87,-381.16"/>
<polygon fill="midnightblue" stroke="midnightblue" points="96.36,-381.48 94.28,-371.09 89.42,-380.51 96.36,-381.48"/>
</g>
<!-- Node5 -->
<g id="node5" class="node">
<title>Node5</title>
<g id="a_node5"><a xlink:href="ExportStrategy_8h.html" target="_top" xlink:title="Defines the abstract base class for export strategies.">
<polygon fill="none" stroke="black" points="111,-413.5 111,-443.5 289,-443.5 289,-413.5 111,-413.5"/>
<text text-anchor="start" x="119" y="-431.5" font-family="Helvetica,sans-Serif" font-size="10.00">VoronoiMeshMaker/DataExporter</text>
<text text-anchor="middle" x="200" y="-420.5" font-family="Helvetica,sans-Serif" font-size="10.00">/ExportStrategy.h</text>
</a>
</g>
</g>
<!-- Node3&#45;&gt;Node5 -->
<g id="edge4" class="edge">
<title>Node3&#45;&gt;Node5</title>
<path fill="none" stroke="midnightblue" d="M185.12,-480.4C187.44,-472.47 190.39,-462.38 193.05,-453.27"/>
<polygon fill="midnightblue" stroke="midnightblue" points="196.44,-454.16 195.89,-443.58 189.72,-452.19 196.44,-454.16"/>
</g>
<!-- Node6 -->
<g id="node6" class="node">
<title>Node6</title>
<g id="a_node6"><a xlink:href="Shape2D_8h.html" target="_top" xlink:title="Defines the Shape2D class, which represents 2D geometric shapes.">
<polygon fill="none" stroke="black" points="137.5,-346.5 137.5,-376.5 280.5,-376.5 280.5,-346.5 137.5,-346.5"/>
<text text-anchor="start" x="145.5" y="-364.5" font-family="Helvetica,sans-Serif" font-size="10.00">VoronoiMeshMaker/Shape</text>
<text text-anchor="middle" x="209" y="-353.5" font-family="Helvetica,sans-Serif" font-size="10.00">/Shape2D/Shape2D.h</text>
</a>
</g>
</g>
<!-- Node3&#45;&gt;Node6 -->
<g id="edge24" class="edge">
<title>Node3&#45;&gt;Node6</title>
<path fill="none" stroke="midnightblue" d="M248.23,-480.42C267.56,-472.92 286.51,-461.47 298,-444 305.57,-432.49 304.93,-424.91 298,-413 289.93,-399.15 276.5,-388.79 262.48,-381.18"/>
<polygon fill="midnightblue" stroke="midnightblue" points="263.74,-377.9 253.23,-376.56 260.61,-384.16 263.74,-377.9"/>
</g>
<!-- Node5&#45;&gt;Node4 -->
<g id="edge5" class="edge">
<title>Node5&#45;&gt;Node4</title>
<path fill="none" stroke="midnightblue" d="M177.43,-413.4C159.99,-402.5 135.97,-387.48 118.53,-376.58"/>
<polygon fill="midnightblue" stroke="midnightblue" points="119.95,-373.34 109.61,-371.01 116.24,-379.28 119.95,-373.34"/>
</g>
<!-- Node5&#45;&gt;Node6 -->
<g id="edge6" class="edge">
<title>Node5&#45;&gt;Node6</title>
<path fill="none" stroke="midnightblue" d="M201.95,-413.4C203.04,-405.56 204.42,-395.6 205.67,-386.57"/>
<polygon fill="midnightblue" stroke="midnightblue" points="209.15,-386.96 207.05,-376.58 202.21,-386 209.15,-386.96"/>
</g>
<!-- Node7 -->
<g id="node7" class="node">
<title>Node7</title>
<g id="a_node7"><a xlink:href="Shape_8h.html" target="_top" xlink:title="Defines the Shape class, which serves as the abstract base class for all shapes. This class provides ...">
<polygon fill="none" stroke="black" points="137.5,-279.5 137.5,-309.5 280.5,-309.5 280.5,-279.5 137.5,-279.5"/>
<text text-anchor="start" x="145.5" y="-297.5" font-family="Helvetica,sans-Serif" font-size="10.00">VoronoiMeshMaker/Shape</text>
<text text-anchor="middle" x="209" y="-286.5" font-family="Helvetica,sans-Serif" font-size="10.00">/Shape.h</text>
</a>
</g>
</g>
<!-- Node6&#45;&gt;Node7 -->
<g id="edge7" class="edge">
<title>Node6&#45;&gt;Node7</title>
<path fill="none" stroke="midnightblue" d="M209,-346.4C209,-338.64 209,-328.81 209,-319.86"/>
<polygon fill="midnightblue" stroke="midnightblue" points="212.5,-319.58 209,-309.58 205.5,-319.58 212.5,-319.58"/>
</g>
<!-- Node7&#45;&gt;Node2 -->
<g id="edge8" class="edge">
<title>Node7&#45;&gt;Node2</title>
<path fill="none" stroke="midnightblue" d="M173.41,-279.4C144.38,-267.89 103.78,-251.8 76.05,-240.81"/>
<polygon fill="midnightblue" stroke="midnightblue" points="77.05,-237.44 66.46,-237.01 74.47,-243.95 77.05,-237.44"/>
</g>
<!-- Node8 -->
<g id="node8" class="node">
<title>Node8</title>
<g id="a_node8"><a xlink:title=" ">
<polygon fill="none" stroke="#bfbfbf" points="147,-11.5 147,-30.5 205,-30.5 205,-11.5 147,-11.5"/>
<text text-anchor="middle" x="176" y="-18.5" font-family="Helvetica,sans-Serif" font-size="10.00">memory</text>
</a>
</g>
</g>
<!-- Node7&#45;&gt;Node8 -->
<g id="edge9" class="edge">
<title>Node7&#45;&gt;Node8</title>
<path fill="none" stroke="midnightblue" d="M193.63,-279.37C172.69,-258.95 136.16,-218.91 122,-176 105.42,-125.74 141.78,-66.84 162.66,-38.66"/>
<polygon fill="midnightblue" stroke="midnightblue" points="165.5,-40.71 168.8,-30.64 159.94,-36.45 165.5,-40.71"/>
</g>
<!-- Node9 -->
<g id="node9" class="node">
<title>Node9</title>
<g id="a_node9"><a xlink:title=" ">
<polygon fill="none" stroke="#bfbfbf" points="131,-151 131,-170 289,-170 289,-151 131,-151"/>
<text text-anchor="middle" x="210" y="-158" font-family="Helvetica,sans-Serif" font-size="10.00">VoronoiMeshMaker/Misc/ID.h</text>
</a>
</g>
</g>
<!-- Node7&#45;&gt;Node9 -->
<g id="edge10" class="edge">
<title>Node7&#45;&gt;Node9</title>
<path fill="none" stroke="midnightblue" d="M209.11,-279.37C209.29,-255.5 209.65,-207.18 209.86,-180.41"/>
<polygon fill="midnightblue" stroke="midnightblue" points="213.36,-180.12 209.93,-170.1 206.36,-180.07 213.36,-180.12"/>
</g>
<!-- Node10 -->
<g id="node10" class="node">
<title>Node10</title>
<g id="a_node10"><a xlink:href="GeometricDataHolder_8h.html" target="_top" xlink:title="Defines the GeometricDataHolder class and the DataTraits for handling multiple data types....">
<polygon fill="none" stroke="black" points="255,-212.5 255,-242.5 425,-242.5 425,-212.5 255,-212.5"/>
<text text-anchor="start" x="263" y="-230.5" font-family="Helvetica,sans-Serif" font-size="10.00">VoronoiMeshMaker/Parameters</text>
<text text-anchor="middle" x="340" y="-219.5" font-family="Helvetica,sans-Serif" font-size="10.00">/GeometricDataHolder.h</text>
</a>
</g>
</g>
<!-- Node7&#45;&gt;Node10 -->
<g id="edge11" class="edge">
<title>Node7&#45;&gt;Node10</title>
<path fill="none" stroke="midnightblue" d="M237.43,-279.4C256.48,-269.94 281.78,-257.39 302.48,-247.12"/>
<polygon fill="midnightblue" stroke="midnightblue" points="304.23,-250.16 311.63,-242.58 301.12,-243.89 304.23,-250.16"/>
</g>
<!-- Node10&#45;&gt;Node9 -->
<g id="edge13" class="edge">
<title>Node10&#45;&gt;Node9</title>
<path fill="none" stroke="midnightblue" d="M311.79,-212.4C289.28,-201.14 258,-185.5 236.08,-174.54"/>
<polygon fill="midnightblue" stroke="midnightblue" points="237.52,-171.35 227.01,-170.01 234.39,-177.61 237.52,-171.35"/>
</g>
<!-- Node11 -->
<g id="node11" class="node">
<title>Node11</title>
<g id="a_node11"><a xlink:title=" ">
<polygon fill="none" stroke="#bfbfbf" points="307.5,-151 307.5,-170 372.5,-170 372.5,-151 307.5,-151"/>
<text text-anchor="middle" x="340" y="-158" font-family="Helvetica,sans-Serif" font-size="10.00">execution</text>
</a>
</g>
</g>
<!-- Node10&#45;&gt;Node11 -->
<g id="edge12" class="edge">
<title>Node10&#45;&gt;Node11</title>
<path fill="none" stroke="midnightblue" d="M340,-212.4C340,-203.06 340,-190.71 340,-180.52"/>
<polygon fill="midnightblue" stroke="midnightblue" points="343.5,-180.19 340,-170.19 336.5,-180.19 343.5,-180.19"/>
</g>
<!-- Node12 -->
<g id="node12" class="node">
<title>Node12</title>
<g id="a_node12"><a xlink:href="GeometricDataTraits_8h.html" target="_top" xlink:title="Defines the GeometricDataTraits structure used for type identification and operations on various data...">
<polygon fill="none" stroke="black" points="391,-145.5 391,-175.5 561,-175.5 561,-145.5 391,-145.5"/>
<text text-anchor="start" x="399" y="-163.5" font-family="Helvetica,sans-Serif" font-size="10.00">VoronoiMeshMaker/Parameters</text>
<text text-anchor="middle" x="476" y="-152.5" font-family="Helvetica,sans-Serif" font-size="10.00">/GeometricDataTraits.h</text>
</a>
</g>
</g>
<!-- Node10&#45;&gt;Node12 -->
<g id="edge14" class="edge">
<title>Node10&#45;&gt;Node12</title>
<path fill="none" stroke="midnightblue" d="M369.51,-212.4C389.38,-202.9 415.79,-190.28 437.34,-179.98"/>
<polygon fill="midnightblue" stroke="midnightblue" points="439.03,-183.05 446.55,-175.58 436.02,-176.73 439.03,-183.05"/>
</g>
<!-- Node20 -->
<g id="node20" class="node">
<title>Node20</title>
<g id="a_node20"><a xlink:href="GeometricDataHolder_8tpp.html" target="_top" xlink:title=" ">
<polygon fill="none" stroke="black" points="579,-145.5 579,-175.5 749,-175.5 749,-145.5 579,-145.5"/>
<text text-anchor="start" x="587" y="-163.5" font-family="Helvetica,sans-Serif" font-size="10.00">VoronoiMeshMaker/Parameters</text>
<text text-anchor="middle" x="664" y="-152.5" font-family="Helvetica,sans-Serif" font-size="10.00">/GeometricDataHolder.tpp</text>
</a>
</g>
</g>
<!-- Node10&#45;&gt;Node20 -->
<g id="edge23" class="edge">
<title>Node10&#45;&gt;Node20</title>
<path fill="none" stroke="midnightblue" d="M409.9,-212.48C461.02,-202.22 530.46,-188.29 583.83,-177.58"/>
<polygon fill="midnightblue" stroke="midnightblue" points="584.83,-180.95 593.94,-175.55 583.45,-174.09 584.83,-180.95"/>
</g>
<!-- Node13 -->
<g id="node13" class="node">
<title>Node13</title>
<g id="a_node13"><a xlink:href="type_8h.html" target="_top" xlink:title="Defines common geometric and numeric types used in the VoronoiMeshMaker library.">
<polygon fill="none" stroke="black" points="389,-78.5 389,-108.5 525,-108.5 525,-78.5 389,-78.5"/>
<text text-anchor="start" x="397" y="-96.5" font-family="Helvetica,sans-Serif" font-size="10.00">VoronoiMeshMaker/Misc</text>
<text text-anchor="middle" x="457" y="-85.5" font-family="Helvetica,sans-Serif" font-size="10.00">/type.h</text>
</a>
</g>
</g>
<!-- Node12&#45;&gt;Node13 -->
<g id="edge15" class="edge">
<title>Node12&#45;&gt;Node13</title>
<path fill="none" stroke="midnightblue" d="M471.88,-145.4C469.56,-137.47 466.61,-127.38 463.95,-118.27"/>
<polygon fill="midnightblue" stroke="midnightblue" points="467.28,-117.19 461.11,-108.58 460.56,-119.16 467.28,-117.19"/>
</g>
<!-- Node13&#45;&gt;Node8 -->
<g id="edge17" class="edge">
<title>Node13&#45;&gt;Node8</title>
<path fill="none" stroke="midnightblue" d="M397.57,-78.41C356.14,-68.49 299.62,-54.76 250,-42 238.65,-39.08 226.36,-35.81 215.11,-32.76"/>
<polygon fill="midnightblue" stroke="midnightblue" points="215.7,-29.3 205.13,-30.05 213.86,-36.05 215.7,-29.3"/>
</g>
<!-- Node14 -->
<g id="node14" class="node">
<title>Node14</title>
<g id="a_node14"><a xlink:title=" ">
<polygon fill="none" stroke="#bfbfbf" points="259,-11.5 259,-30.5 291,-30.5 291,-11.5 259,-11.5"/>
<text text-anchor="middle" x="275" y="-18.5" font-family="Helvetica,sans-Serif" font-size="10.00">list</text>
</a>
</g>
</g>
<!-- Node13&#45;&gt;Node14 -->
<g id="edge16" class="edge">
<title>Node13&#45;&gt;Node14</title>
<path fill="none" stroke="midnightblue" d="M397.67,-78.46C367.7,-70.1 331.36,-57.97 301,-42 298.17,-40.51 295.33,-38.71 292.62,-36.81"/>
<polygon fill="midnightblue" stroke="midnightblue" points="294.64,-33.95 284.58,-30.64 290.38,-39.51 294.64,-33.95"/>
</g>
<!-- Node15 -->
<g id="node15" class="node">
<title>Node15</title>
<g id="a_node15"><a xlink:title=" ">
<polygon fill="none" stroke="#bfbfbf" points="309.5,-11.5 309.5,-30.5 356.5,-30.5 356.5,-11.5 309.5,-11.5"/>
<text text-anchor="middle" x="333" y="-18.5" font-family="Helvetica,sans-Serif" font-size="10.00">vector</text>
</a>
</g>
</g>
<!-- Node13&#45;&gt;Node15 -->
<g id="edge18" class="edge">
<title>Node13&#45;&gt;Node15</title>
<path fill="none" stroke="midnightblue" d="M430.96,-78.4C412.68,-68.41 387.72,-54.6 366,-42 362.68,-40.07 359.18,-38 355.77,-35.95"/>
<polygon fill="midnightblue" stroke="midnightblue" points="357.43,-32.87 347.06,-30.68 353.8,-38.86 357.43,-32.87"/>
</g>
<!-- Node16 -->
<g id="node16" class="node">
<title>Node16</title>
<g id="a_node16"><a xlink:title=" ">
<polygon fill="none" stroke="#bfbfbf" points="374.5,-0.5 374.5,-41.5 503.5,-41.5 503.5,-0.5 374.5,-0.5"/>
<text text-anchor="start" x="382.5" y="-29.5" font-family="Helvetica,sans-Serif" font-size="10.00">CGAL/Exact_predicates</text>
<text text-anchor="start" x="382.5" y="-18.5" font-family="Helvetica,sans-Serif" font-size="10.00">_inexact_constructions</text>
<text text-anchor="middle" x="439" y="-7.5" font-family="Helvetica,sans-Serif" font-size="10.00">_kernel.h</text>
</a>
</g>
</g>
<!-- Node13&#45;&gt;Node16 -->
<g id="edge19" class="edge">
<title>Node13&#45;&gt;Node16</title>
<path fill="none" stroke="midnightblue" d="M453.36,-78.23C451.38,-70.49 448.86,-60.63 446.49,-51.33"/>
<polygon fill="midnightblue" stroke="midnightblue" points="449.87,-50.41 444,-41.59 443.08,-52.14 449.87,-50.41"/>
</g>
<!-- Node17 -->
<g id="node17" class="node">
<title>Node17</title>
<g id="a_node17"><a xlink:title=" ">
<polygon fill="none" stroke="#bfbfbf" points="521.5,-11.5 521.5,-30.5 626.5,-30.5 626.5,-11.5 521.5,-11.5"/>
<text text-anchor="middle" x="574" y="-18.5" font-family="Helvetica,sans-Serif" font-size="10.00">CGAL/Polygon_2.h</text>
</a>
</g>
</g>
<!-- Node13&#45;&gt;Node17 -->
<g id="edge20" class="edge">
<title>Node13&#45;&gt;Node17</title>
<path fill="none" stroke="midnightblue" d="M480.4,-78.4C500.98,-66 530.77,-48.05 551.19,-35.75"/>
<polygon fill="midnightblue" stroke="midnightblue" points="553.08,-38.69 559.84,-30.53 549.47,-32.7 553.08,-38.69"/>
</g>
<!-- Node18 -->
<g id="node18" class="node">
<title>Node18</title>
<g id="a_node18"><a xlink:title=" ">
<polygon fill="none" stroke="#bfbfbf" points="644.5,-11.5 644.5,-30.5 765.5,-30.5 765.5,-11.5 644.5,-11.5"/>
<text text-anchor="middle" x="705" y="-18.5" font-family="Helvetica,sans-Serif" font-size="10.00">CGAL/Polyhedron_3.h</text>
</a>
</g>
</g>
<!-- Node13&#45;&gt;Node18 -->
<g id="edge21" class="edge">
<title>Node13&#45;&gt;Node18</title>
<path fill="none" stroke="midnightblue" d="M507.18,-78.45C543.08,-68.37 592.54,-54.43 636,-42 645.7,-39.23 656.16,-36.21 665.93,-33.38"/>
<polygon fill="midnightblue" stroke="midnightblue" points="667.18,-36.66 675.8,-30.51 665.22,-29.94 667.18,-36.66"/>
</g>
<!-- Node19 -->
<g id="node19" class="node">
<title>Node19</title>
<g id="a_node19"><a xlink:href="namespace_8h.html" target="_top" xlink:title=" ">
<polygon fill="none" stroke="black" points="784,-6 784,-36 920,-36 920,-6 784,-6"/>
<text text-anchor="start" x="792" y="-24" font-family="Helvetica,sans-Serif" font-size="10.00">VoronoiMeshMaker/Misc</text>
<text text-anchor="middle" x="852" y="-13" font-family="Helvetica,sans-Serif" font-size="10.00">/namespace.h</text>
</a>
</g>
</g>
<!-- Node13&#45;&gt;Node19 -->
<g id="edge22" class="edge">
<title>Node13&#45;&gt;Node19</title>
<path fill="none" stroke="midnightblue" d="M525.27,-83.6C589.91,-74.72 689.5,-59.85 775,-42 780.24,-40.91 785.66,-39.69 791.08,-38.4"/>
<polygon fill="midnightblue" stroke="midnightblue" points="791.91,-41.8 800.8,-36.03 790.26,-35 791.91,-41.8"/>
</g>
</g>
</svg>
