<?xml version="1.0" encoding="UTF-8" standalone="no"?>
<!DOCTYPE svg PUBLIC "-//W3C//DTD SVG 1.1//EN"
 "http://www.w3.org/Graphics/SVG/1.1/DTD/svg11.dtd">
<!-- Generated by graphviz version 2.43.0 (0)
 -->
<!-- Title: Graphical Class Hierarchy Pages: 1 -->
<svg width="253pt" height="66pt"
 viewBox="0.00 0.00 253.00 66.00" xmlns="http://www.w3.org/2000/svg" xmlns:xlink="http://www.w3.org/1999/xlink">
<g id="graph0" class="graph" transform="scale(1 1) rotate(0) translate(4 62)">
<title>Graphical Class Hierarchy</title>
<!-- Node1 -->
<g id="node1" class="node">
<title>Node1</title>
<g id="a_node1"><a xlink:title=" ">
<polygon fill="none" stroke="#bfbfbf" points="0,-38.5 0,-57.5 86,-57.5 86,-38.5 0,-38.5"/>
<text text-anchor="middle" x="43" y="-45.5" font-family="Helvetica,sans-Serif" font-size="10.00">std::exception</text>
</a>
</g>
</g>
<!-- Node0 -->
<g id="node2" class="node">
<title>Node0</title>
<g id="a_node2"><a xlink:href="classVMMException.html" target="_top" xlink:title="Exception class for handling errors in VoronoiMeshMaker.">
<polygon fill="none" stroke="black" points="139,-38.5 139,-57.5 228,-57.5 228,-38.5 139,-38.5"/>
<text text-anchor="middle" x="183.5" y="-45.5" font-family="Helvetica,sans-Serif" font-size="10.00">VMMException</text>
</a>
</g>
</g>
<!-- Node1&#45;&gt;Node0 -->
<g id="edge1" class="edge">
<title>Node1&#45;&gt;Node0</title>
<path fill="none" stroke="midnightblue" d="M96.65,-48C110.47,-48 125.22,-48 138.54,-48"/>
<polygon fill="midnightblue" stroke="midnightblue" points="96.31,-44.5 86.31,-48 96.31,-51.5 96.31,-44.5"/>
</g>
<!-- Node21 -->
<g id="node3" class="node">
<title>Node21</title>
<g id="a_node3"><a xlink:href="classID.html" target="_top" xlink:title="Base class to provide unique identification for derived classes.">
<polygon fill="none" stroke="black" points="28.5,-0.5 28.5,-19.5 57.5,-19.5 57.5,-0.5 28.5,-0.5"/>
<text text-anchor="middle" x="43" y="-7.5" font-family="Helvetica,sans-Serif" font-size="10.00">ID</text>
</a>
</g>
</g>
<!-- Node21&#45;&gt;Node0 -->
<g id="edge3" class="edge">
<title>Node21&#45;&gt;Node0</title>
<path fill="none" stroke="midnightblue" d="M67.33,-16.4C89.31,-22.43 122.51,-31.54 147.63,-38.43"/>
<polygon fill="midnightblue" stroke="midnightblue" points="68.1,-12.98 57.53,-13.71 66.25,-19.73 68.1,-12.98"/>
</g>
<!-- Node22 -->
<g id="node4" class="node">
<title>Node22</title>
<g id="a_node4"><a xlink:href="classGeometricDataHolder.html" target="_top" xlink:title="Stores multiple variables of different types using a map where each variable is identified by a strin...">
<polygon fill="none" stroke="black" points="122,-0.5 122,-19.5 245,-19.5 245,-0.5 122,-0.5"/>
<text text-anchor="middle" x="183.5" y="-7.5" font-family="Helvetica,sans-Serif" font-size="10.00">GeometricDataHolder</text>
</a>
</g>
</g>
<!-- Node21&#45;&gt;Node22 -->
<g id="edge2" class="edge">
<title>Node21&#45;&gt;Node22</title>
<path fill="none" stroke="midnightblue" d="M67.88,-10C82.81,-10 102.78,-10 121.86,-10"/>
<polygon fill="midnightblue" stroke="midnightblue" points="67.53,-6.5 57.53,-10 67.53,-13.5 67.53,-6.5"/>
</g>
</g>
</svg>
