<?xml version="1.0" encoding="UTF-8" standalone="no"?>
<!DOCTYPE svg PUBLIC "-//W3C//DTD SVG 1.1//EN"
 "http://www.w3.org/Graphics/SVG/1.1/DTD/svg11.dtd">
<!-- Generated by graphviz version 2.43.0 (0)
 -->
<!-- Title: include/VoronoiMeshMaker/Error/MakerException.h Pages: 1 -->
<svg width="1048pt" height="117pt"
 viewBox="0.00 0.00 1047.50 117.00" xmlns="http://www.w3.org/2000/svg" xmlns:xlink="http://www.w3.org/1999/xlink">
<g id="graph0" class="graph" transform="scale(1 1) rotate(0) translate(4 113)">
<title>include/VoronoiMeshMaker/Error/MakerException.h</title>
<!-- Node1 -->
<g id="node1" class="node">
<title>Node1</title>
<g id="a_node1"><a xlink:title=" ">
<polygon fill="#bfbfbf" stroke="black" points="455.5,-78.5 455.5,-108.5 604.5,-108.5 604.5,-78.5 455.5,-78.5"/>
<text text-anchor="start" x="463.5" y="-96.5" font-family="Helvetica,sans-Serif" font-size="10.00">include/VoronoiMeshMaker</text>
<text text-anchor="middle" x="530" y="-85.5" font-family="Helvetica,sans-Serif" font-size="10.00">/Error/MakerException.h</text>
</a>
</g>
</g>
<!-- Node2 -->
<g id="node2" class="node">
<title>Node2</title>
<g id="a_node2"><a xlink:href="MakerException_8cpp.html" target="_top" xlink:title=" ">
<polygon fill="none" stroke="black" points="0,-6 0,-36 144,-36 144,-6 0,-6"/>
<text text-anchor="start" x="8" y="-24" font-family="Helvetica,sans-Serif" font-size="10.00">src/VoronoiMeshMaker</text>
<text text-anchor="middle" x="72" y="-13" font-family="Helvetica,sans-Serif" font-size="10.00">/Error/MakerException.cpp</text>
</a>
</g>
</g>
<!-- Node1&#45;&gt;Node2 -->
<g id="edge1" class="edge">
<title>Node1&#45;&gt;Node2</title>
<path fill="none" stroke="midnightblue" d="M445.13,-83.81C368.45,-75.32 252.65,-60.92 153,-42 144.03,-40.3 134.58,-38.22 125.41,-36.06"/>
<polygon fill="midnightblue" stroke="midnightblue" points="444.9,-87.3 455.22,-84.91 445.66,-80.34 444.9,-87.3"/>
</g>
<!-- Node3 -->
<g id="node3" class="node">
<title>Node3</title>
<g id="a_node3"><a xlink:href="CommaSeparatedValues_8cpp.html" target="_top" xlink:title=" ">
<polygon fill="none" stroke="black" points="162.5,-0.5 162.5,-41.5 349.5,-41.5 349.5,-0.5 162.5,-0.5"/>
<text text-anchor="start" x="170.5" y="-29.5" font-family="Helvetica,sans-Serif" font-size="10.00">src/VoronoiMeshMaker</text>
<text text-anchor="start" x="170.5" y="-18.5" font-family="Helvetica,sans-Serif" font-size="10.00">/Shape/Shape2D/CommaSeparated</text>
<text text-anchor="middle" x="256" y="-7.5" font-family="Helvetica,sans-Serif" font-size="10.00">Values.cpp</text>
</a>
</g>
</g>
<!-- Node1&#45;&gt;Node3 -->
<g id="edge2" class="edge">
<title>Node1&#45;&gt;Node3</title>
<path fill="none" stroke="midnightblue" d="M465.62,-75.94C425.59,-65.63 373.91,-52.34 331.88,-41.53"/>
<polygon fill="midnightblue" stroke="midnightblue" points="464.98,-79.38 475.54,-78.49 466.73,-72.61 464.98,-79.38"/>
</g>
<!-- Node4 -->
<g id="node4" class="node">
<title>Node4</title>
<g id="a_node4"><a xlink:href="Ellipse_8cpp.html" target="_top" xlink:title=" ">
<polygon fill="none" stroke="black" points="368,-6 368,-36 520,-36 520,-6 368,-6"/>
<text text-anchor="start" x="376" y="-24" font-family="Helvetica,sans-Serif" font-size="10.00">src/VoronoiMeshMaker</text>
<text text-anchor="middle" x="444" y="-13" font-family="Helvetica,sans-Serif" font-size="10.00">/Shape/Shape2D/Ellipse.cpp</text>
</a>
</g>
</g>
<!-- Node1&#45;&gt;Node4 -->
<g id="edge3" class="edge">
<title>Node1&#45;&gt;Node4</title>
<path fill="none" stroke="midnightblue" d="M504.73,-71.79C490.68,-60.27 473.56,-46.23 461.08,-36"/>
<polygon fill="midnightblue" stroke="midnightblue" points="502.64,-74.6 512.6,-78.23 507.08,-69.19 502.64,-74.6"/>
</g>
<!-- Node5 -->
<g id="node5" class="node">
<title>Node5</title>
<g id="a_node5"><a xlink:href="Polygon_8cpp.html" target="_top" xlink:title=" ">
<polygon fill="none" stroke="black" points="538,-6 538,-36 696,-36 696,-6 538,-6"/>
<text text-anchor="start" x="546" y="-24" font-family="Helvetica,sans-Serif" font-size="10.00">src/VoronoiMeshMaker</text>
<text text-anchor="middle" x="617" y="-13" font-family="Helvetica,sans-Serif" font-size="10.00">/Shape/Shape2D/Polygon.cpp</text>
</a>
</g>
</g>
<!-- Node1&#45;&gt;Node5 -->
<g id="edge4" class="edge">
<title>Node1&#45;&gt;Node5</title>
<path fill="none" stroke="midnightblue" d="M555.56,-71.79C569.78,-60.27 587.1,-46.23 599.72,-36"/>
<polygon fill="midnightblue" stroke="midnightblue" points="553.17,-69.22 547.61,-78.23 557.58,-74.66 553.17,-69.22"/>
</g>
<!-- Node6 -->
<g id="node6" class="node">
<title>Node6</title>
<g id="a_node6"><a xlink:href="Rectangle_8cpp.html" target="_top" xlink:title=" ">
<polygon fill="none" stroke="black" points="714,-6 714,-36 882,-36 882,-6 714,-6"/>
<text text-anchor="start" x="722" y="-24" font-family="Helvetica,sans-Serif" font-size="10.00">src/VoronoiMeshMaker</text>
<text text-anchor="middle" x="798" y="-13" font-family="Helvetica,sans-Serif" font-size="10.00">/Shape/Shape2D/Rectangle.cpp</text>
</a>
</g>
</g>
<!-- Node1&#45;&gt;Node6 -->
<g id="edge5" class="edge">
<title>Node1&#45;&gt;Node6</title>
<path fill="none" stroke="midnightblue" d="M593.13,-75.89C639.12,-63.79 700.76,-47.58 744.37,-36.11"/>
<polygon fill="midnightblue" stroke="midnightblue" points="592.05,-72.56 583.27,-78.49 593.83,-79.33 592.05,-72.56"/>
</g>
<!-- Node7 -->
<g id="node7" class="node">
<title>Node7</title>
<g id="a_node7"><a xlink:href="Star_8cpp.html" target="_top" xlink:title=" ">
<polygon fill="none" stroke="black" points="900.5,-6 900.5,-36 1039.5,-36 1039.5,-6 900.5,-6"/>
<text text-anchor="start" x="908.5" y="-24" font-family="Helvetica,sans-Serif" font-size="10.00">src/VoronoiMeshMaker</text>
<text text-anchor="middle" x="970" y="-13" font-family="Helvetica,sans-Serif" font-size="10.00">/Shape/Shape2D/Star.cpp</text>
</a>
</g>
</g>
<!-- Node1&#45;&gt;Node7 -->
<g id="edge6" class="edge">
<title>Node1&#45;&gt;Node7</title>
<path fill="none" stroke="midnightblue" d="M614.84,-83.28C688.27,-74.67 797.14,-60.39 891,-42 899.75,-40.29 908.97,-38.2 917.91,-36.04"/>
<polygon fill="midnightblue" stroke="midnightblue" points="614.25,-79.82 604.72,-84.46 615.06,-86.78 614.25,-79.82"/>
</g>
</g>
</svg>
