<?xml version="1.0" encoding="UTF-8" standalone="no"?>
<!DOCTYPE svg PUBLIC "-//W3C//DTD SVG 1.1//EN"
 "http://www.w3.org/Graphics/SVG/1.1/DTD/svg11.dtd">
<!-- Generated by graphviz version 2.43.0 (0)
 -->
<!-- Title: src/VoronoiMeshMaker/Error/MakerException.cpp Pages: 1 -->
<svg width="747pt" height="385pt"
 viewBox="0.00 0.00 747.00 385.00" xmlns="http://www.w3.org/2000/svg" xmlns:xlink="http://www.w3.org/1999/xlink">
<g id="graph0" class="graph" transform="scale(1 1) rotate(0) translate(4 381)">
<title>src/VoronoiMeshMaker/Error/MakerException.cpp</title>
<!-- Node1 -->
<g id="node1" class="node">
<title>Node1</title>
<g id="a_node1"><a xlink:title=" ">
<polygon fill="#bfbfbf" stroke="black" points="102,-346.5 102,-376.5 246,-376.5 246,-346.5 102,-346.5"/>
<text text-anchor="start" x="110" y="-364.5" font-family="Helvetica,sans-Serif" font-size="10.00">src/VoronoiMeshMaker</text>
<text text-anchor="middle" x="174" y="-353.5" font-family="Helvetica,sans-Serif" font-size="10.00">/Error/MakerException.cpp</text>
</a>
</g>
</g>
<!-- Node2 -->
<g id="node2" class="node">
<title>Node2</title>
<g id="a_node2"><a xlink:href="MakerException_8h.html" target="_top" xlink:title=" ">
<polygon fill="none" stroke="black" points="105.5,-279.5 105.5,-309.5 242.5,-309.5 242.5,-279.5 105.5,-279.5"/>
<text text-anchor="start" x="113.5" y="-297.5" font-family="Helvetica,sans-Serif" font-size="10.00">VoronoiMeshMaker/Error</text>
<text text-anchor="middle" x="174" y="-286.5" font-family="Helvetica,sans-Serif" font-size="10.00">/MakerException.h</text>
</a>
</g>
</g>
<!-- Node1&#45;&gt;Node2 -->
<g id="edge1" class="edge">
<title>Node1&#45;&gt;Node2</title>
<path fill="none" stroke="midnightblue" d="M174,-346.4C174,-338.64 174,-328.81 174,-319.86"/>
<polygon fill="midnightblue" stroke="midnightblue" points="177.5,-319.58 174,-309.58 170.5,-319.58 177.5,-319.58"/>
</g>
<!-- Node3 -->
<g id="node3" class="node">
<title>Node3</title>
<g id="a_node3"><a xlink:title=" ">
<polygon fill="none" stroke="#bfbfbf" points="0,-218 0,-237 44,-237 44,-218 0,-218"/>
<text text-anchor="middle" x="22" y="-225" font-family="Helvetica,sans-Serif" font-size="10.00">string</text>
</a>
</g>
</g>
<!-- Node2&#45;&gt;Node3 -->
<g id="edge2" class="edge">
<title>Node2&#45;&gt;Node3</title>
<path fill="none" stroke="midnightblue" d="M139.15,-279.41C114.88,-269.49 81.83,-255.75 53,-243 51.81,-242.47 50.59,-241.93 49.37,-241.38"/>
<polygon fill="midnightblue" stroke="midnightblue" points="50.52,-238.06 39.97,-237.06 47.6,-244.42 50.52,-238.06"/>
</g>
<!-- Node4 -->
<g id="node4" class="node">
<title>Node4</title>
<g id="a_node4"><a xlink:title=" ">
<polygon fill="none" stroke="#bfbfbf" points="62.5,-218 62.5,-237 127.5,-237 127.5,-218 62.5,-218"/>
<text text-anchor="middle" x="95" y="-225" font-family="Helvetica,sans-Serif" font-size="10.00">exception</text>
</a>
</g>
</g>
<!-- Node2&#45;&gt;Node4 -->
<g id="edge3" class="edge">
<title>Node2&#45;&gt;Node4</title>
<path fill="none" stroke="midnightblue" d="M156.86,-279.4C144.05,-268.86 126.57,-254.48 113.46,-243.69"/>
<polygon fill="midnightblue" stroke="midnightblue" points="115.51,-240.85 105.57,-237.19 111.07,-246.25 115.51,-240.85"/>
</g>
<!-- Node5 -->
<g id="node5" class="node">
<title>Node5</title>
<g id="a_node5"><a xlink:title=" ">
<polygon fill="none" stroke="#bfbfbf" points="145.5,-218 145.5,-237 202.5,-237 202.5,-218 145.5,-218"/>
<text text-anchor="middle" x="174" y="-225" font-family="Helvetica,sans-Serif" font-size="10.00">ostream</text>
</a>
</g>
</g>
<!-- Node2&#45;&gt;Node5 -->
<g id="edge4" class="edge">
<title>Node2&#45;&gt;Node5</title>
<path fill="none" stroke="midnightblue" d="M174,-279.4C174,-270.06 174,-257.71 174,-247.52"/>
<polygon fill="midnightblue" stroke="midnightblue" points="177.5,-247.19 174,-237.19 170.5,-247.19 177.5,-247.19"/>
</g>
<!-- Node6 -->
<g id="node6" class="node">
<title>Node6</title>
<g id="a_node6"><a xlink:href="id_8h.html" target="_top" xlink:title=" ">
<polygon fill="none" stroke="black" points="220.5,-218 220.5,-237 377.5,-237 377.5,-218 220.5,-218"/>
<text text-anchor="middle" x="299" y="-225" font-family="Helvetica,sans-Serif" font-size="10.00">VoronoiMeshMaker/Misc/id.h</text>
</a>
</g>
</g>
<!-- Node2&#45;&gt;Node6 -->
<g id="edge5" class="edge">
<title>Node2&#45;&gt;Node6</title>
<path fill="none" stroke="midnightblue" d="M201.12,-279.4C222.67,-268.19 252.57,-252.64 273.64,-241.69"/>
<polygon fill="midnightblue" stroke="midnightblue" points="275.38,-244.73 282.64,-237.01 272.15,-238.52 275.38,-244.73"/>
</g>
<!-- Node17 -->
<g id="node17" class="node">
<title>Node17</title>
<g id="a_node17"><a xlink:href="sourceinfo_8h.html" target="_top" xlink:title="Provides information about the source of an error or event in a function.">
<polygon fill="none" stroke="black" points="396,-212.5 396,-242.5 532,-242.5 532,-212.5 396,-212.5"/>
<text text-anchor="start" x="404" y="-230.5" font-family="Helvetica,sans-Serif" font-size="10.00">VoronoiMeshMaker/Misc</text>
<text text-anchor="middle" x="464" y="-219.5" font-family="Helvetica,sans-Serif" font-size="10.00">/sourceinfo.h</text>
</a>
</g>
</g>
<!-- Node2&#45;&gt;Node17 -->
<g id="edge16" class="edge">
<title>Node2&#45;&gt;Node17</title>
<path fill="none" stroke="midnightblue" d="M236.57,-279.48C281.96,-269.3 343.49,-255.51 391.11,-244.84"/>
<polygon fill="midnightblue" stroke="midnightblue" points="392.05,-248.21 401.04,-242.61 390.52,-241.38 392.05,-248.21"/>
</g>
<!-- Node7 -->
<g id="node7" class="node">
<title>Node7</title>
<g id="a_node7"><a xlink:title=" ">
<polygon fill="none" stroke="#bfbfbf" points="344.5,-151 344.5,-170 417.5,-170 417.5,-151 344.5,-151"/>
<text text-anchor="middle" x="381" y="-158" font-family="Helvetica,sans-Serif" font-size="10.00">string_view</text>
</a>
</g>
</g>
<!-- Node6&#45;&gt;Node7 -->
<g id="edge6" class="edge">
<title>Node6&#45;&gt;Node7</title>
<path fill="none" stroke="midnightblue" d="M310.06,-217.73C323.34,-207.21 345.83,-189.38 361.93,-176.62"/>
<polygon fill="midnightblue" stroke="midnightblue" points="364.45,-179.08 370.12,-170.13 360.11,-173.6 364.45,-179.08"/>
</g>
<!-- Node8 -->
<g id="node8" class="node">
<title>Node8</title>
<g id="a_node8"><a xlink:href="configure_8h.html" target="_top" xlink:title="Defines common constants used across the VoronoiMeshMaker library.">
<polygon fill="none" stroke="black" points="190,-145.5 190,-175.5 326,-175.5 326,-145.5 190,-145.5"/>
<text text-anchor="start" x="198" y="-163.5" font-family="Helvetica,sans-Serif" font-size="10.00">VoronoiMeshMaker/Misc</text>
<text text-anchor="middle" x="258" y="-152.5" font-family="Helvetica,sans-Serif" font-size="10.00">/configure.h</text>
</a>
</g>
</g>
<!-- Node6&#45;&gt;Node8 -->
<g id="edge7" class="edge">
<title>Node6&#45;&gt;Node8</title>
<path fill="none" stroke="midnightblue" d="M293.47,-217.73C288.09,-209.2 279.68,-195.87 272.4,-184.33"/>
<polygon fill="midnightblue" stroke="midnightblue" points="275.18,-182.18 266.89,-175.59 269.26,-185.91 275.18,-182.18"/>
</g>
<!-- Node9 -->
<g id="node9" class="node">
<title>Node9</title>
<g id="a_node9"><a xlink:href="type_8h.html" target="_top" xlink:title="Defines common geometric and numeric types used in the VoronoiMeshMaker library.">
<polygon fill="none" stroke="black" points="190,-78.5 190,-108.5 326,-108.5 326,-78.5 190,-78.5"/>
<text text-anchor="start" x="198" y="-96.5" font-family="Helvetica,sans-Serif" font-size="10.00">VoronoiMeshMaker/Misc</text>
<text text-anchor="middle" x="258" y="-85.5" font-family="Helvetica,sans-Serif" font-size="10.00">/type.h</text>
</a>
</g>
</g>
<!-- Node8&#45;&gt;Node9 -->
<g id="edge8" class="edge">
<title>Node8&#45;&gt;Node9</title>
<path fill="none" stroke="midnightblue" d="M258,-145.4C258,-137.64 258,-127.81 258,-118.86"/>
<polygon fill="midnightblue" stroke="midnightblue" points="261.5,-118.58 258,-108.58 254.5,-118.58 261.5,-118.58"/>
</g>
<!-- Node10 -->
<g id="node10" class="node">
<title>Node10</title>
<g id="a_node10"><a xlink:title=" ">
<polygon fill="none" stroke="#bfbfbf" points="2,-11.5 2,-30.5 34,-30.5 34,-11.5 2,-11.5"/>
<text text-anchor="middle" x="18" y="-18.5" font-family="Helvetica,sans-Serif" font-size="10.00">list</text>
</a>
</g>
</g>
<!-- Node9&#45;&gt;Node10 -->
<g id="edge9" class="edge">
<title>Node9&#45;&gt;Node10</title>
<path fill="none" stroke="midnightblue" d="M189.53,-84.34C145.94,-77.26 89.2,-64.47 43,-42 40.28,-40.68 37.59,-39.02 35.04,-37.22"/>
<polygon fill="midnightblue" stroke="midnightblue" points="37.06,-34.35 27.05,-30.87 32.7,-39.83 37.06,-34.35"/>
</g>
<!-- Node11 -->
<g id="node11" class="node">
<title>Node11</title>
<g id="a_node11"><a xlink:title=" ">
<polygon fill="none" stroke="#bfbfbf" points="52,-11.5 52,-30.5 110,-30.5 110,-11.5 52,-11.5"/>
<text text-anchor="middle" x="81" y="-18.5" font-family="Helvetica,sans-Serif" font-size="10.00">memory</text>
</a>
</g>
</g>
<!-- Node9&#45;&gt;Node11 -->
<g id="edge10" class="edge">
<title>Node9&#45;&gt;Node11</title>
<path fill="none" stroke="midnightblue" d="M214.51,-78.4C186.8,-69 150.35,-55.87 119,-42 114.47,-39.99 109.72,-37.68 105.19,-35.36"/>
<polygon fill="midnightblue" stroke="midnightblue" points="106.77,-32.24 96.3,-30.66 103.5,-38.42 106.77,-32.24"/>
</g>
<!-- Node12 -->
<g id="node12" class="node">
<title>Node12</title>
<g id="a_node12"><a xlink:title=" ">
<polygon fill="none" stroke="#bfbfbf" points="128.5,-11.5 128.5,-30.5 175.5,-30.5 175.5,-11.5 128.5,-11.5"/>
<text text-anchor="middle" x="152" y="-18.5" font-family="Helvetica,sans-Serif" font-size="10.00">vector</text>
</a>
</g>
</g>
<!-- Node9&#45;&gt;Node12 -->
<g id="edge11" class="edge">
<title>Node9&#45;&gt;Node12</title>
<path fill="none" stroke="midnightblue" d="M236.8,-78.4C218.32,-66.11 191.65,-48.37 173.17,-36.08"/>
<polygon fill="midnightblue" stroke="midnightblue" points="175.1,-33.16 164.83,-30.53 171.22,-38.99 175.1,-33.16"/>
</g>
<!-- Node13 -->
<g id="node13" class="node">
<title>Node13</title>
<g id="a_node13"><a xlink:title=" ">
<polygon fill="none" stroke="#bfbfbf" points="193.5,-0.5 193.5,-41.5 322.5,-41.5 322.5,-0.5 193.5,-0.5"/>
<text text-anchor="start" x="201.5" y="-29.5" font-family="Helvetica,sans-Serif" font-size="10.00">CGAL/Exact_predicates</text>
<text text-anchor="start" x="201.5" y="-18.5" font-family="Helvetica,sans-Serif" font-size="10.00">_inexact_constructions</text>
<text text-anchor="middle" x="258" y="-7.5" font-family="Helvetica,sans-Serif" font-size="10.00">_kernel.h</text>
</a>
</g>
</g>
<!-- Node9&#45;&gt;Node13 -->
<g id="edge12" class="edge">
<title>Node9&#45;&gt;Node13</title>
<path fill="none" stroke="midnightblue" d="M258,-78.23C258,-70.57 258,-60.84 258,-51.63"/>
<polygon fill="midnightblue" stroke="midnightblue" points="261.5,-51.59 258,-41.59 254.5,-51.59 261.5,-51.59"/>
</g>
<!-- Node14 -->
<g id="node14" class="node">
<title>Node14</title>
<g id="a_node14"><a xlink:title=" ">
<polygon fill="none" stroke="#bfbfbf" points="340.5,-11.5 340.5,-30.5 445.5,-30.5 445.5,-11.5 340.5,-11.5"/>
<text text-anchor="middle" x="393" y="-18.5" font-family="Helvetica,sans-Serif" font-size="10.00">CGAL/Polygon_2.h</text>
</a>
</g>
</g>
<!-- Node9&#45;&gt;Node14 -->
<g id="edge13" class="edge">
<title>Node9&#45;&gt;Node14</title>
<path fill="none" stroke="midnightblue" d="M284.99,-78.4C309.07,-65.83 344.06,-47.56 367.63,-35.25"/>
<polygon fill="midnightblue" stroke="midnightblue" points="369.42,-38.27 376.66,-30.53 366.17,-32.06 369.42,-38.27"/>
</g>
<!-- Node15 -->
<g id="node15" class="node">
<title>Node15</title>
<g id="a_node15"><a xlink:title=" ">
<polygon fill="none" stroke="#bfbfbf" points="463.5,-11.5 463.5,-30.5 584.5,-30.5 584.5,-11.5 463.5,-11.5"/>
<text text-anchor="middle" x="524" y="-18.5" font-family="Helvetica,sans-Serif" font-size="10.00">CGAL/Polyhedron_3.h</text>
</a>
</g>
</g>
<!-- Node9&#45;&gt;Node15 -->
<g id="edge14" class="edge">
<title>Node9&#45;&gt;Node15</title>
<path fill="none" stroke="midnightblue" d="M314.29,-78.41C353.52,-68.49 407.03,-54.76 454,-42 464.06,-39.27 474.91,-36.22 484.99,-33.34"/>
<polygon fill="midnightblue" stroke="midnightblue" points="486.11,-36.66 494.76,-30.54 484.18,-29.93 486.11,-36.66"/>
</g>
<!-- Node16 -->
<g id="node16" class="node">
<title>Node16</title>
<g id="a_node16"><a xlink:href="namespace_8h.html" target="_top" xlink:title=" ">
<polygon fill="none" stroke="black" points="603,-6 603,-36 739,-36 739,-6 603,-6"/>
<text text-anchor="start" x="611" y="-24" font-family="Helvetica,sans-Serif" font-size="10.00">VoronoiMeshMaker/Misc</text>
<text text-anchor="middle" x="671" y="-13" font-family="Helvetica,sans-Serif" font-size="10.00">/namespace.h</text>
</a>
</g>
</g>
<!-- Node9&#45;&gt;Node16 -->
<g id="edge15" class="edge">
<title>Node9&#45;&gt;Node16</title>
<path fill="none" stroke="midnightblue" d="M326.26,-84.38C394.41,-75.76 501.96,-60.81 594,-42 599.24,-40.93 604.66,-39.72 610.09,-38.45"/>
<polygon fill="midnightblue" stroke="midnightblue" points="610.92,-41.85 619.82,-36.09 609.27,-35.04 610.92,-41.85"/>
</g>
<!-- Node17&#45;&gt;Node7 -->
<g id="edge17" class="edge">
<title>Node17&#45;&gt;Node7</title>
<path fill="none" stroke="midnightblue" d="M445.99,-212.4C432.41,-201.76 413.82,-187.2 400,-176.38"/>
<polygon fill="midnightblue" stroke="midnightblue" points="402.13,-173.6 392.1,-170.19 397.82,-179.12 402.13,-173.6"/>
</g>
<!-- Node18 -->
<g id="node18" class="node">
<title>Node18</title>
<g id="a_node18"><a xlink:title=" ">
<polygon fill="none" stroke="#bfbfbf" points="436,-145.5 436,-175.5 572,-175.5 572,-145.5 436,-145.5"/>
<text text-anchor="start" x="444" y="-163.5" font-family="Helvetica,sans-Serif" font-size="10.00">VoronoiMeshMaker/Misc</text>
<text text-anchor="middle" x="504" y="-152.5" font-family="Helvetica,sans-Serif" font-size="10.00">/Misc.h</text>
</a>
</g>
</g>
<!-- Node17&#45;&gt;Node18 -->
<g id="edge18" class="edge">
<title>Node17&#45;&gt;Node18</title>
<path fill="none" stroke="midnightblue" d="M472.68,-212.4C477.76,-204.13 484.3,-193.51 490.09,-184.1"/>
<polygon fill="midnightblue" stroke="midnightblue" points="493.08,-185.93 495.34,-175.58 487.12,-182.26 493.08,-185.93"/>
</g>
</g>
</svg>
