<?xml version="1.0" encoding="UTF-8" standalone="no"?>
<!DOCTYPE svg PUBLIC "-//W3C//DTD SVG 1.1//EN"
 "http://www.w3.org/Graphics/SVG/1.1/DTD/svg11.dtd">
<!-- Generated by graphviz version 2.43.0 (0)
 -->
<!-- Title: include/VoronoiMeshMaker/Misc/misc.h Pages: 1 -->
<svg width="746pt" height="251pt"
 viewBox="0.00 0.00 746.00 251.00" xmlns="http://www.w3.org/2000/svg" xmlns:xlink="http://www.w3.org/1999/xlink">
<g id="graph0" class="graph" transform="scale(1 1) rotate(0) translate(4 247)">
<title>include/VoronoiMeshMaker/Misc/misc.h</title>
<!-- Node1 -->
<g id="node1" class="node">
<title>Node1</title>
<g id="a_node1"><a xlink:title="Provides general&#45;purpose utility functions for the VoronoiMeshMaker library.">
<polygon fill="#bfbfbf" stroke="black" points="21.5,-212.5 21.5,-242.5 170.5,-242.5 170.5,-212.5 21.5,-212.5"/>
<text text-anchor="start" x="29.5" y="-230.5" font-family="Helvetica,sans-Serif" font-size="10.00">include/VoronoiMeshMaker</text>
<text text-anchor="middle" x="96" y="-219.5" font-family="Helvetica,sans-Serif" font-size="10.00">/Misc/misc.h</text>
</a>
</g>
</g>
<!-- Node2 -->
<g id="node2" class="node">
<title>Node2</title>
<g id="a_node2"><a xlink:title=" ">
<polygon fill="none" stroke="#bfbfbf" points="0,-151 0,-170 68,-170 68,-151 0,-151"/>
<text text-anchor="middle" x="34" y="-158" font-family="Helvetica,sans-Serif" font-size="10.00">filesystem</text>
</a>
</g>
</g>
<!-- Node1&#45;&gt;Node2 -->
<g id="edge1" class="edge">
<title>Node1&#45;&gt;Node2</title>
<path fill="none" stroke="midnightblue" d="M82.55,-212.4C72.78,-202.16 59.56,-188.3 49.38,-177.62"/>
<polygon fill="midnightblue" stroke="midnightblue" points="51.73,-175.01 42.29,-170.19 46.66,-179.85 51.73,-175.01"/>
</g>
<!-- Node3 -->
<g id="node3" class="node">
<title>Node3</title>
<g id="a_node3"><a xlink:title=" ">
<polygon fill="none" stroke="#bfbfbf" points="1,-11.5 1,-30.5 59,-30.5 59,-11.5 1,-11.5"/>
<text text-anchor="middle" x="30" y="-18.5" font-family="Helvetica,sans-Serif" font-size="10.00">memory</text>
</a>
</g>
</g>
<!-- Node1&#45;&gt;Node3 -->
<g id="edge2" class="edge">
<title>Node1&#45;&gt;Node3</title>
<path fill="none" stroke="midnightblue" d="M93.28,-212.21C90.02,-195.81 84.1,-168.2 77,-145 65.34,-106.9 47.77,-63.66 37.74,-39.94"/>
<polygon fill="midnightblue" stroke="midnightblue" points="40.86,-38.33 33.71,-30.51 34.42,-41.08 40.86,-38.33"/>
</g>
<!-- Node4 -->
<g id="node4" class="node">
<title>Node4</title>
<g id="a_node4"><a xlink:href="configure_8h.html" target="_top" xlink:title="Defines common constants used across the VoronoiMeshMaker library.">
<polygon fill="none" stroke="black" points="130,-145.5 130,-175.5 266,-175.5 266,-145.5 130,-145.5"/>
<text text-anchor="start" x="138" y="-163.5" font-family="Helvetica,sans-Serif" font-size="10.00">VoronoiMeshMaker/Misc</text>
<text text-anchor="middle" x="198" y="-152.5" font-family="Helvetica,sans-Serif" font-size="10.00">/configure.h</text>
</a>
</g>
</g>
<!-- Node1&#45;&gt;Node4 -->
<g id="edge3" class="edge">
<title>Node1&#45;&gt;Node4</title>
<path fill="none" stroke="midnightblue" d="M118.13,-212.4C132.57,-203.2 151.6,-191.07 167.47,-180.95"/>
<polygon fill="midnightblue" stroke="midnightblue" points="169.36,-183.9 175.91,-175.58 165.6,-178 169.36,-183.9"/>
</g>
<!-- Node5 -->
<g id="node5" class="node">
<title>Node5</title>
<g id="a_node5"><a xlink:href="type_8h.html" target="_top" xlink:title="Defines common geometric and numeric types used in the VoronoiMeshMaker library.">
<polygon fill="none" stroke="black" points="136,-78.5 136,-108.5 272,-108.5 272,-78.5 136,-78.5"/>
<text text-anchor="start" x="144" y="-96.5" font-family="Helvetica,sans-Serif" font-size="10.00">VoronoiMeshMaker/Misc</text>
<text text-anchor="middle" x="204" y="-85.5" font-family="Helvetica,sans-Serif" font-size="10.00">/type.h</text>
</a>
</g>
</g>
<!-- Node4&#45;&gt;Node5 -->
<g id="edge4" class="edge">
<title>Node4&#45;&gt;Node5</title>
<path fill="none" stroke="midnightblue" d="M199.3,-145.4C200.03,-137.56 200.95,-127.6 201.78,-118.57"/>
<polygon fill="midnightblue" stroke="midnightblue" points="205.27,-118.86 202.7,-108.58 198.3,-118.21 205.27,-118.86"/>
</g>
<!-- Node5&#45;&gt;Node3 -->
<g id="edge6" class="edge">
<title>Node5&#45;&gt;Node3</title>
<path fill="none" stroke="midnightblue" d="M161.77,-78.4C134.63,-68.95 98.82,-55.76 68,-42 63.47,-39.98 58.73,-37.66 54.2,-35.33"/>
<polygon fill="midnightblue" stroke="midnightblue" points="55.78,-32.21 45.31,-30.63 52.51,-38.4 55.78,-32.21"/>
</g>
<!-- Node6 -->
<g id="node6" class="node">
<title>Node6</title>
<g id="a_node6"><a xlink:title=" ">
<polygon fill="none" stroke="#bfbfbf" points="77,-11.5 77,-30.5 109,-30.5 109,-11.5 77,-11.5"/>
<text text-anchor="middle" x="93" y="-18.5" font-family="Helvetica,sans-Serif" font-size="10.00">list</text>
</a>
</g>
</g>
<!-- Node5&#45;&gt;Node6 -->
<g id="edge5" class="edge">
<title>Node5&#45;&gt;Node6</title>
<path fill="none" stroke="midnightblue" d="M177.81,-78.42C160.46,-68.77 137.4,-55.35 118,-42 115.76,-40.46 113.46,-38.77 111.2,-37.05"/>
<polygon fill="midnightblue" stroke="midnightblue" points="112.97,-33.99 102.96,-30.51 108.62,-39.47 112.97,-33.99"/>
</g>
<!-- Node7 -->
<g id="node7" class="node">
<title>Node7</title>
<g id="a_node7"><a xlink:title=" ">
<polygon fill="none" stroke="#bfbfbf" points="127.5,-11.5 127.5,-30.5 174.5,-30.5 174.5,-11.5 127.5,-11.5"/>
<text text-anchor="middle" x="151" y="-18.5" font-family="Helvetica,sans-Serif" font-size="10.00">vector</text>
</a>
</g>
</g>
<!-- Node5&#45;&gt;Node7 -->
<g id="edge7" class="edge">
<title>Node5&#45;&gt;Node7</title>
<path fill="none" stroke="midnightblue" d="M193.27,-78.23C184.79,-66.95 172.91,-51.15 163.91,-39.17"/>
<polygon fill="midnightblue" stroke="midnightblue" points="166.49,-36.78 157.69,-30.89 160.9,-40.99 166.49,-36.78"/>
</g>
<!-- Node8 -->
<g id="node8" class="node">
<title>Node8</title>
<g id="a_node8"><a xlink:title=" ">
<polygon fill="none" stroke="#bfbfbf" points="192.5,-0.5 192.5,-41.5 321.5,-41.5 321.5,-0.5 192.5,-0.5"/>
<text text-anchor="start" x="200.5" y="-29.5" font-family="Helvetica,sans-Serif" font-size="10.00">CGAL/Exact_predicates</text>
<text text-anchor="start" x="200.5" y="-18.5" font-family="Helvetica,sans-Serif" font-size="10.00">_inexact_constructions</text>
<text text-anchor="middle" x="257" y="-7.5" font-family="Helvetica,sans-Serif" font-size="10.00">_kernel.h</text>
</a>
</g>
</g>
<!-- Node5&#45;&gt;Node8 -->
<g id="edge8" class="edge">
<title>Node5&#45;&gt;Node8</title>
<path fill="none" stroke="midnightblue" d="M214.73,-78.23C220.85,-70.08 228.75,-59.57 236.06,-49.85"/>
<polygon fill="midnightblue" stroke="midnightblue" points="239.06,-51.68 242.27,-41.59 233.47,-47.48 239.06,-51.68"/>
</g>
<!-- Node9 -->
<g id="node9" class="node">
<title>Node9</title>
<g id="a_node9"><a xlink:title=" ">
<polygon fill="none" stroke="#bfbfbf" points="339.5,-11.5 339.5,-30.5 444.5,-30.5 444.5,-11.5 339.5,-11.5"/>
<text text-anchor="middle" x="392" y="-18.5" font-family="Helvetica,sans-Serif" font-size="10.00">CGAL/Polygon_2.h</text>
</a>
</g>
</g>
<!-- Node5&#45;&gt;Node9 -->
<g id="edge9" class="edge">
<title>Node5&#45;&gt;Node9</title>
<path fill="none" stroke="midnightblue" d="M241.59,-78.4C276.16,-65.44 326.89,-46.42 359.68,-34.12"/>
<polygon fill="midnightblue" stroke="midnightblue" points="361.11,-37.32 369.24,-30.53 358.65,-30.77 361.11,-37.32"/>
</g>
<!-- Node10 -->
<g id="node10" class="node">
<title>Node10</title>
<g id="a_node10"><a xlink:title=" ">
<polygon fill="none" stroke="#bfbfbf" points="462.5,-11.5 462.5,-30.5 583.5,-30.5 583.5,-11.5 462.5,-11.5"/>
<text text-anchor="middle" x="523" y="-18.5" font-family="Helvetica,sans-Serif" font-size="10.00">CGAL/Polyhedron_3.h</text>
</a>
</g>
</g>
<!-- Node5&#45;&gt;Node10 -->
<g id="edge10" class="edge">
<title>Node5&#45;&gt;Node10</title>
<path fill="none" stroke="midnightblue" d="M272.25,-80.29C322.7,-70.89 392.94,-56.99 454,-42 464.36,-39.46 475.49,-36.38 485.73,-33.41"/>
<polygon fill="midnightblue" stroke="midnightblue" points="487,-36.69 495.61,-30.51 485.03,-29.97 487,-36.69"/>
</g>
<!-- Node11 -->
<g id="node11" class="node">
<title>Node11</title>
<g id="a_node11"><a xlink:href="namespace_8h.html" target="_top" xlink:title=" ">
<polygon fill="none" stroke="black" points="602,-6 602,-36 738,-36 738,-6 602,-6"/>
<text text-anchor="start" x="610" y="-24" font-family="Helvetica,sans-Serif" font-size="10.00">VoronoiMeshMaker/Misc</text>
<text text-anchor="middle" x="670" y="-13" font-family="Helvetica,sans-Serif" font-size="10.00">/namespace.h</text>
</a>
</g>
</g>
<!-- Node5&#45;&gt;Node11 -->
<g id="edge11" class="edge">
<title>Node5&#45;&gt;Node11</title>
<path fill="none" stroke="midnightblue" d="M272.23,-86.25C350.22,-78.51 481.52,-63.63 593,-42 598.42,-40.95 604.03,-39.74 609.64,-38.44"/>
<polygon fill="midnightblue" stroke="midnightblue" points="610.77,-41.77 619.67,-36.03 609.13,-34.96 610.77,-41.77"/>
</g>
</g>
</svg>
