<?xml version="1.0" encoding="UTF-8" standalone="no"?>
<!DOCTYPE svg PUBLIC "-//W3C//DTD SVG 1.1//EN"
 "http://www.w3.org/Graphics/SVG/1.1/DTD/svg11.dtd">
<!-- Generated by graphviz version 2.43.0 (0)
 -->
<!-- Title: include/VoronoiMeshMaker/Misc/namespace.h Pages: 1 -->
<svg width="1988pt" height="530pt"
 viewBox="0.00 0.00 1988.00 530.00" xmlns="http://www.w3.org/2000/svg" xmlns:xlink="http://www.w3.org/1999/xlink">
<g id="graph0" class="graph" transform="scale(1 1) rotate(0) translate(4 526)">
<title>include/VoronoiMeshMaker/Misc/namespace.h</title>
<!-- Node1 -->
<g id="node1" class="node">
<title>Node1</title>
<g id="a_node1"><a xlink:title=" ">
<polygon fill="#bfbfbf" stroke="black" points="1204.5,-491.5 1204.5,-521.5 1353.5,-521.5 1353.5,-491.5 1204.5,-491.5"/>
<text text-anchor="start" x="1212.5" y="-509.5" font-family="Helvetica,sans-Serif" font-size="10.00">include/VoronoiMeshMaker</text>
<text text-anchor="middle" x="1279" y="-498.5" font-family="Helvetica,sans-Serif" font-size="10.00">/Misc/namespace.h</text>
</a>
</g>
</g>
<!-- Node2 -->
<g id="node2" class="node">
<title>Node2</title>
<g id="a_node2"><a xlink:href="Exporter_8h.html" target="_top" xlink:title="Declares the template class Exporter for data exporting.">
<polygon fill="none" stroke="black" points="1510.5,-145.5 1510.5,-175.5 1659.5,-175.5 1659.5,-145.5 1510.5,-145.5"/>
<text text-anchor="start" x="1518.5" y="-163.5" font-family="Helvetica,sans-Serif" font-size="10.00">include/VoronoiMeshMaker</text>
<text text-anchor="middle" x="1585" y="-152.5" font-family="Helvetica,sans-Serif" font-size="10.00">/Exporter/Exporter.h</text>
</a>
</g>
</g>
<!-- Node1&#45;&gt;Node2 -->
<g id="edge1" class="edge">
<title>Node1&#45;&gt;Node2</title>
<path fill="none" stroke="midnightblue" d="M1363.6,-494.17C1431.9,-480.57 1525.48,-451.11 1581,-388 1633.74,-328.06 1639.25,-288.68 1617,-212 1613.12,-198.64 1604.54,-185.43 1597.24,-175.88"/>
<polygon fill="midnightblue" stroke="midnightblue" points="1362.88,-490.75 1353.71,-496.07 1364.19,-497.62 1362.88,-490.75"/>
</g>
<!-- Node3 -->
<g id="node3" class="node">
<title>Node3</title>
<g id="a_node3"><a xlink:href="type_8h.html" target="_top" xlink:title="Defines common geometric and numeric types used in the VoronoiMeshMaker library.">
<polygon fill="none" stroke="black" points="1057.5,-424.5 1057.5,-454.5 1206.5,-454.5 1206.5,-424.5 1057.5,-424.5"/>
<text text-anchor="start" x="1065.5" y="-442.5" font-family="Helvetica,sans-Serif" font-size="10.00">include/VoronoiMeshMaker</text>
<text text-anchor="middle" x="1132" y="-431.5" font-family="Helvetica,sans-Serif" font-size="10.00">/Misc/type.h</text>
</a>
</g>
</g>
<!-- Node1&#45;&gt;Node3 -->
<g id="edge2" class="edge">
<title>Node1&#45;&gt;Node3</title>
<path fill="none" stroke="midnightblue" d="M1237.77,-487.27C1214.36,-476.92 1185.49,-464.15 1163.83,-454.58"/>
<polygon fill="midnightblue" stroke="midnightblue" points="1236.54,-490.55 1247.1,-491.4 1239.37,-484.15 1236.54,-490.55"/>
</g>
<!-- Node15 -->
<g id="node15" class="node">
<title>Node15</title>
<g id="a_node15"><a xlink:href="Nodes_8h.html" target="_top" xlink:title="Declares the Nodes base class for representing collections of nodes.">
<polygon fill="none" stroke="black" points="785.5,-357.5 785.5,-387.5 934.5,-387.5 934.5,-357.5 785.5,-357.5"/>
<text text-anchor="start" x="793.5" y="-375.5" font-family="Helvetica,sans-Serif" font-size="10.00">include/VoronoiMeshMaker</text>
<text text-anchor="middle" x="860" y="-364.5" font-family="Helvetica,sans-Serif" font-size="10.00">/Nodes/Nodes.h</text>
</a>
</g>
</g>
<!-- Node1&#45;&gt;Node15 -->
<g id="edge50" class="edge">
<title>Node1&#45;&gt;Node15</title>
<path fill="none" stroke="midnightblue" d="M1194.58,-491.12C1150.38,-482.57 1095.67,-470.38 1048,-455 989.26,-436.05 923.79,-405.35 887.69,-387.53"/>
<polygon fill="midnightblue" stroke="midnightblue" points="1193.95,-494.56 1204.43,-493 1195.26,-487.69 1193.95,-494.56"/>
</g>
<!-- Node16 -->
<g id="node16" class="node">
<title>Node16</title>
<g id="a_node16"><a xlink:href="Nodes2D_8h.html" target="_top" xlink:title="Declares the Nodes2D class for representing 2D nodes.">
<polygon fill="none" stroke="black" points="1202,-285 1202,-315 1356,-315 1356,-285 1202,-285"/>
<text text-anchor="start" x="1210" y="-303" font-family="Helvetica,sans-Serif" font-size="10.00">include/VoronoiMeshMaker</text>
<text text-anchor="middle" x="1279" y="-292" font-family="Helvetica,sans-Serif" font-size="10.00">/Nodes/Nodes2D/Nodes2D.h</text>
</a>
</g>
</g>
<!-- Node1&#45;&gt;Node16 -->
<g id="edge51" class="edge">
<title>Node1&#45;&gt;Node16</title>
<path fill="none" stroke="midnightblue" d="M1279,-481.3C1279,-438.25 1279,-349.63 1279,-315.15"/>
<polygon fill="midnightblue" stroke="midnightblue" points="1275.5,-481.44 1279,-491.44 1282.5,-481.44 1275.5,-481.44"/>
</g>
<!-- Node37 -->
<g id="node37" class="node">
<title>Node37</title>
<g id="a_node37"><a xlink:href="Voronoi_8h.html" target="_top" xlink:title="Declares the Voronoi base class for representing Voronoi diagrams.">
<polygon fill="none" stroke="black" points="1665.5,-424.5 1665.5,-454.5 1814.5,-454.5 1814.5,-424.5 1665.5,-424.5"/>
<text text-anchor="start" x="1673.5" y="-442.5" font-family="Helvetica,sans-Serif" font-size="10.00">include/VoronoiMeshMaker</text>
<text text-anchor="middle" x="1740" y="-431.5" font-family="Helvetica,sans-Serif" font-size="10.00">/Voronoi/Voronoi.h</text>
</a>
</g>
</g>
<!-- Node1&#45;&gt;Node37 -->
<g id="edge52" class="edge">
<title>Node1&#45;&gt;Node37</title>
<path fill="none" stroke="midnightblue" d="M1363.81,-494.23C1438.23,-484.24 1549.36,-469.1 1646,-455 1652.29,-454.08 1658.82,-453.11 1665.36,-452.13"/>
<polygon fill="midnightblue" stroke="midnightblue" points="1363,-490.81 1353.56,-495.6 1363.93,-497.74 1363,-490.81"/>
</g>
<!-- Node4 -->
<g id="node4" class="node">
<title>Node4</title>
<g id="a_node4"><a xlink:href="configure_8h.html" target="_top" xlink:title="Defines common constants used across the VoronoiMeshMaker library.">
<polygon fill="none" stroke="black" points="764.5,-212.5 764.5,-242.5 913.5,-242.5 913.5,-212.5 764.5,-212.5"/>
<text text-anchor="start" x="772.5" y="-230.5" font-family="Helvetica,sans-Serif" font-size="10.00">include/VoronoiMeshMaker</text>
<text text-anchor="middle" x="839" y="-219.5" font-family="Helvetica,sans-Serif" font-size="10.00">/Misc/configure.h</text>
</a>
</g>
</g>
<!-- Node3&#45;&gt;Node4 -->
<g id="edge3" class="edge">
<title>Node3&#45;&gt;Node4</title>
<path fill="none" stroke="midnightblue" d="M1049.27,-421.28C1028.36,-413.8 1007.25,-403.14 991,-388 952.27,-351.92 979.73,-317.12 943,-279 927.05,-262.45 904.57,-250.6 884.58,-242.56"/>
<polygon fill="midnightblue" stroke="midnightblue" points="1048.25,-424.63 1058.84,-424.5 1050.48,-417.99 1048.25,-424.63"/>
</g>
<!-- Node3&#45;&gt;Node15 -->
<g id="edge15" class="edge">
<title>Node3&#45;&gt;Node15</title>
<path fill="none" stroke="midnightblue" d="M1063.45,-422.12C1018.94,-411.48 961.53,-397.76 919.05,-387.61"/>
<polygon fill="midnightblue" stroke="midnightblue" points="1062.78,-425.56 1073.31,-424.48 1064.4,-418.75 1062.78,-425.56"/>
</g>
<!-- Node3&#45;&gt;Node16 -->
<g id="edge24" class="edge">
<title>Node3&#45;&gt;Node16</title>
<path fill="none" stroke="midnightblue" d="M1160.63,-418.23C1172.55,-409.38 1186.31,-398.61 1198,-388 1224.28,-364.14 1251.81,-333.07 1267.05,-315.25"/>
<polygon fill="midnightblue" stroke="midnightblue" points="1158.33,-415.58 1152.33,-424.31 1162.47,-421.22 1158.33,-415.58"/>
</g>
<!-- Node22 -->
<g id="node22" class="node">
<title>Node22</title>
<g id="a_node22"><a xlink:href="GeometricDataTraits_8h.html" target="_top" xlink:title="Defines the GeometricDataTraits structure used for type identification and operations on various data...">
<polygon fill="none" stroke="black" points="1000.5,-357.5 1000.5,-387.5 1189.5,-387.5 1189.5,-357.5 1000.5,-357.5"/>
<text text-anchor="start" x="1008.5" y="-375.5" font-family="Helvetica,sans-Serif" font-size="10.00">include/VoronoiMeshMaker</text>
<text text-anchor="middle" x="1095" y="-364.5" font-family="Helvetica,sans-Serif" font-size="10.00">/Parameters/GeometricDataTraits.h</text>
</a>
</g>
</g>
<!-- Node3&#45;&gt;Node22 -->
<g id="edge25" class="edge">
<title>Node3&#45;&gt;Node22</title>
<path fill="none" stroke="midnightblue" d="M1118.95,-415.58C1113.64,-406.24 1107.66,-395.75 1103.01,-387.58"/>
<polygon fill="midnightblue" stroke="midnightblue" points="1115.98,-417.44 1123.97,-424.4 1122.07,-413.97 1115.98,-417.44"/>
</g>
<!-- Node35 -->
<g id="node35" class="node">
<title>Node35</title>
<g id="a_node35"><a xlink:href="Voronoi2D_8h.html" target="_top" xlink:title="Declares the Voronoi2D class for representing 2D Voronoi diagrams.">
<polygon fill="none" stroke="black" points="1398,-357.5 1398,-387.5 1572,-387.5 1572,-357.5 1398,-357.5"/>
<text text-anchor="start" x="1406" y="-375.5" font-family="Helvetica,sans-Serif" font-size="10.00">include/VoronoiMeshMaker</text>
<text text-anchor="middle" x="1485" y="-364.5" font-family="Helvetica,sans-Serif" font-size="10.00">/Voronoi/Voronoi2D/Voronoi2D.h</text>
</a>
</g>
</g>
<!-- Node3&#45;&gt;Node35 -->
<g id="edge47" class="edge">
<title>Node3&#45;&gt;Node35</title>
<path fill="none" stroke="midnightblue" d="M1216.81,-422.88C1275.24,-412.12 1352.23,-397.95 1408.72,-387.55"/>
<polygon fill="midnightblue" stroke="midnightblue" points="1216.06,-419.46 1206.86,-424.72 1217.33,-426.35 1216.06,-419.46"/>
</g>
<!-- Node5 -->
<g id="node5" class="node">
<title>Node5</title>
<g id="a_node5"><a xlink:href="id_8h.html" target="_top" xlink:title=" ">
<polygon fill="none" stroke="black" points="599.5,-145.5 599.5,-175.5 748.5,-175.5 748.5,-145.5 599.5,-145.5"/>
<text text-anchor="start" x="607.5" y="-163.5" font-family="Helvetica,sans-Serif" font-size="10.00">include/VoronoiMeshMaker</text>
<text text-anchor="middle" x="674" y="-152.5" font-family="Helvetica,sans-Serif" font-size="10.00">/Misc/id.h</text>
</a>
</g>
</g>
<!-- Node4&#45;&gt;Node5 -->
<g id="edge4" class="edge">
<title>Node4&#45;&gt;Node5</title>
<path fill="none" stroke="midnightblue" d="M793.77,-208.68C767.31,-198.26 734.37,-185.28 709.73,-175.58"/>
<polygon fill="midnightblue" stroke="midnightblue" points="792.61,-211.99 803.2,-212.4 795.18,-205.47 792.61,-211.99"/>
</g>
<!-- Node13 -->
<g id="node13" class="node">
<title>Node13</title>
<g id="a_node13"><a xlink:href="misc_8h.html" target="_top" xlink:title="Provides general&#45;purpose utility functions for the VoronoiMeshMaker library.">
<polygon fill="none" stroke="black" points="81.5,-145.5 81.5,-175.5 230.5,-175.5 230.5,-145.5 81.5,-145.5"/>
<text text-anchor="start" x="89.5" y="-163.5" font-family="Helvetica,sans-Serif" font-size="10.00">include/VoronoiMeshMaker</text>
<text text-anchor="middle" x="156" y="-152.5" font-family="Helvetica,sans-Serif" font-size="10.00">/Misc/misc.h</text>
</a>
</g>
</g>
<!-- Node4&#45;&gt;Node13 -->
<g id="edge12" class="edge">
<title>Node4&#45;&gt;Node13</title>
<path fill="none" stroke="midnightblue" d="M754.26,-211.98C559.55,-187.39 342.61,-172.48 230.93,-165.72"/>
<polygon fill="midnightblue" stroke="midnightblue" points="754.03,-215.48 764.4,-213.28 754.92,-208.54 754.03,-215.48"/>
</g>
<!-- Node6 -->
<g id="node6" class="node">
<title>Node6</title>
<g id="a_node6"><a xlink:href="MakerException_8h.html" target="_top" xlink:title=" ">
<polygon fill="none" stroke="black" points="598.5,-78.5 598.5,-108.5 747.5,-108.5 747.5,-78.5 598.5,-78.5"/>
<text text-anchor="start" x="606.5" y="-96.5" font-family="Helvetica,sans-Serif" font-size="10.00">include/VoronoiMeshMaker</text>
<text text-anchor="middle" x="673" y="-85.5" font-family="Helvetica,sans-Serif" font-size="10.00">/Error/MakerException.h</text>
</a>
</g>
</g>
<!-- Node5&#45;&gt;Node6 -->
<g id="edge5" class="edge">
<title>Node5&#45;&gt;Node6</title>
<path fill="none" stroke="midnightblue" d="M673.62,-135.11C673.49,-126.15 673.34,-116.32 673.22,-108.58"/>
<polygon fill="midnightblue" stroke="midnightblue" points="670.13,-135.45 673.78,-145.4 677.13,-135.34 670.13,-135.45"/>
</g>
<!-- Node7 -->
<g id="node7" class="node">
<title>Node7</title>
<g id="a_node7"><a xlink:href="MakerException_8cpp.html" target="_top" xlink:title=" ">
<polygon fill="none" stroke="black" points="601,-6 601,-36 745,-36 745,-6 601,-6"/>
<text text-anchor="start" x="609" y="-24" font-family="Helvetica,sans-Serif" font-size="10.00">src/VoronoiMeshMaker</text>
<text text-anchor="middle" x="673" y="-13" font-family="Helvetica,sans-Serif" font-size="10.00">/Error/MakerException.cpp</text>
</a>
</g>
</g>
<!-- Node6&#45;&gt;Node7 -->
<g id="edge6" class="edge">
<title>Node6&#45;&gt;Node7</title>
<path fill="none" stroke="midnightblue" d="M673,-68.23C673,-57.57 673,-45.41 673,-36.25"/>
<polygon fill="midnightblue" stroke="midnightblue" points="669.5,-68.23 673,-78.23 676.5,-68.23 669.5,-68.23"/>
</g>
<!-- Node8 -->
<g id="node8" class="node">
<title>Node8</title>
<g id="a_node8"><a xlink:href="CommaSeparatedValues_8cpp.html" target="_top" xlink:title=" ">
<polygon fill="none" stroke="black" points="205.5,-0.5 205.5,-41.5 392.5,-41.5 392.5,-0.5 205.5,-0.5"/>
<text text-anchor="start" x="213.5" y="-29.5" font-family="Helvetica,sans-Serif" font-size="10.00">src/VoronoiMeshMaker</text>
<text text-anchor="start" x="213.5" y="-18.5" font-family="Helvetica,sans-Serif" font-size="10.00">/Shape/Shape2D/CommaSeparated</text>
<text text-anchor="middle" x="299" y="-7.5" font-family="Helvetica,sans-Serif" font-size="10.00">Values.cpp</text>
</a>
</g>
</g>
<!-- Node6&#45;&gt;Node8 -->
<g id="edge7" class="edge">
<title>Node6&#45;&gt;Node8</title>
<path fill="none" stroke="midnightblue" d="M588.76,-76.62C530.52,-65.64 453,-51.03 392.8,-39.68"/>
<polygon fill="midnightblue" stroke="midnightblue" points="588.19,-80.07 598.66,-78.49 589.48,-73.2 588.19,-80.07"/>
</g>
<!-- Node9 -->
<g id="node9" class="node">
<title>Node9</title>
<g id="a_node9"><a xlink:href="Ellipse_8cpp.html" target="_top" xlink:title=" ">
<polygon fill="none" stroke="black" points="1287,-6 1287,-36 1439,-36 1439,-6 1287,-6"/>
<text text-anchor="start" x="1295" y="-24" font-family="Helvetica,sans-Serif" font-size="10.00">src/VoronoiMeshMaker</text>
<text text-anchor="middle" x="1363" y="-13" font-family="Helvetica,sans-Serif" font-size="10.00">/Shape/Shape2D/Ellipse.cpp</text>
</a>
</g>
</g>
<!-- Node6&#45;&gt;Node9 -->
<g id="edge8" class="edge">
<title>Node6&#45;&gt;Node9</title>
<path fill="none" stroke="midnightblue" d="M757.65,-77.86C873.55,-63.15 1151.49,-39.48 1286.77,-28.26"/>
<polygon fill="midnightblue" stroke="midnightblue" points="757.08,-74.41 747.61,-79.17 757.98,-81.35 757.08,-74.41"/>
</g>
<!-- Node10 -->
<g id="node10" class="node">
<title>Node10</title>
<g id="a_node10"><a xlink:href="Polygon_8cpp.html" target="_top" xlink:title=" ">
<polygon fill="none" stroke="black" points="425,-6 425,-36 583,-36 583,-6 425,-6"/>
<text text-anchor="start" x="433" y="-24" font-family="Helvetica,sans-Serif" font-size="10.00">src/VoronoiMeshMaker</text>
<text text-anchor="middle" x="504" y="-13" font-family="Helvetica,sans-Serif" font-size="10.00">/Shape/Shape2D/Polygon.cpp</text>
</a>
</g>
</g>
<!-- Node6&#45;&gt;Node10 -->
<g id="edge9" class="edge">
<title>Node6&#45;&gt;Node10</title>
<path fill="none" stroke="midnightblue" d="M629.85,-74.5C601.23,-62.56 564.2,-47.11 537.73,-36.07"/>
<polygon fill="midnightblue" stroke="midnightblue" points="628.63,-77.78 639.21,-78.4 631.32,-71.32 628.63,-77.78"/>
</g>
<!-- Node11 -->
<g id="node11" class="node">
<title>Node11</title>
<g id="a_node11"><a xlink:href="Rectangle_8cpp.html" target="_top" xlink:title=" ">
<polygon fill="none" stroke="black" points="763,-6 763,-36 931,-36 931,-6 763,-6"/>
<text text-anchor="start" x="771" y="-24" font-family="Helvetica,sans-Serif" font-size="10.00">src/VoronoiMeshMaker</text>
<text text-anchor="middle" x="847" y="-13" font-family="Helvetica,sans-Serif" font-size="10.00">/Shape/Shape2D/Rectangle.cpp</text>
</a>
</g>
</g>
<!-- Node6&#45;&gt;Node11 -->
<g id="edge10" class="edge">
<title>Node6&#45;&gt;Node11</title>
<path fill="none" stroke="midnightblue" d="M717.43,-74.5C746.9,-62.56 785.02,-47.11 812.27,-36.07"/>
<polygon fill="midnightblue" stroke="midnightblue" points="715.75,-71.4 707.79,-78.4 718.38,-77.89 715.75,-71.4"/>
</g>
<!-- Node12 -->
<g id="node12" class="node">
<title>Node12</title>
<g id="a_node12"><a xlink:href="Star_8cpp.html" target="_top" xlink:title=" ">
<polygon fill="none" stroke="black" points="949.5,-6 949.5,-36 1088.5,-36 1088.5,-6 949.5,-6"/>
<text text-anchor="start" x="957.5" y="-24" font-family="Helvetica,sans-Serif" font-size="10.00">src/VoronoiMeshMaker</text>
<text text-anchor="middle" x="1019" y="-13" font-family="Helvetica,sans-Serif" font-size="10.00">/Shape/Shape2D/Star.cpp</text>
</a>
</g>
</g>
<!-- Node6&#45;&gt;Node12 -->
<g id="edge11" class="edge">
<title>Node6&#45;&gt;Node12</title>
<path fill="none" stroke="midnightblue" d="M757.79,-77.05C822.45,-65.15 906,-49.51 940,-42 948.15,-40.2 956.74,-38.17 965.13,-36.1"/>
<polygon fill="midnightblue" stroke="midnightblue" points="756.78,-73.67 747.58,-78.92 758.05,-80.56 756.78,-73.67"/>
</g>
<!-- Node13&#45;&gt;Node8 -->
<g id="edge14" class="edge">
<title>Node13&#45;&gt;Node8</title>
<path fill="none" stroke="midnightblue" d="M156.12,-135.36C157.41,-117.69 161.79,-94.08 175,-78 188.42,-61.67 207.61,-49.91 226.9,-41.52"/>
<polygon fill="midnightblue" stroke="midnightblue" points="152.62,-135.33 155.66,-145.48 159.61,-135.65 152.62,-135.33"/>
</g>
<!-- Node14 -->
<g id="node14" class="node">
<title>Node14</title>
<g id="a_node14"><a xlink:href="misc_8cpp.html" target="_top" xlink:title=" ">
<polygon fill="none" stroke="black" points="0,-78.5 0,-108.5 128,-108.5 128,-78.5 0,-78.5"/>
<text text-anchor="start" x="8" y="-96.5" font-family="Helvetica,sans-Serif" font-size="10.00">src/VoronoiMeshMaker</text>
<text text-anchor="middle" x="64" y="-85.5" font-family="Helvetica,sans-Serif" font-size="10.00">/Misc/misc.cpp</text>
</a>
</g>
</g>
<!-- Node13&#45;&gt;Node14 -->
<g id="edge13" class="edge">
<title>Node13&#45;&gt;Node14</title>
<path fill="none" stroke="midnightblue" d="M127.62,-139.45C113.47,-129.45 96.69,-117.6 83.92,-108.58"/>
<polygon fill="midnightblue" stroke="midnightblue" points="125.85,-142.48 136.04,-145.4 129.89,-136.77 125.85,-142.48"/>
</g>
<!-- Node15&#45;&gt;Node16 -->
<g id="edge16" class="edge">
<title>Node15&#45;&gt;Node16</title>
<path fill="none" stroke="midnightblue" d="M944.83,-360.49C1012.32,-351.29 1109.02,-337.11 1193,-321 1202.18,-319.24 1211.87,-317.18 1221.31,-315.07"/>
<polygon fill="midnightblue" stroke="midnightblue" points="944.12,-357.06 934.68,-361.87 945.06,-364 944.12,-357.06"/>
</g>
<!-- Node19 -->
<g id="node19" class="node">
<title>Node19</title>
<g id="a_node19"><a xlink:href="Nodes3D_8h.html" target="_top" xlink:title="Declares the Nodes3D class for representing 3D nodes.">
<polygon fill="none" stroke="black" points="780,-285 780,-315 934,-315 934,-285 780,-285"/>
<text text-anchor="start" x="788" y="-303" font-family="Helvetica,sans-Serif" font-size="10.00">include/VoronoiMeshMaker</text>
<text text-anchor="middle" x="857" y="-292" font-family="Helvetica,sans-Serif" font-size="10.00">/Nodes/Nodes3D/Nodes3D.h</text>
</a>
</g>
</g>
<!-- Node15&#45;&gt;Node19 -->
<g id="edge20" class="edge">
<title>Node15&#45;&gt;Node19</title>
<path fill="none" stroke="midnightblue" d="M858.97,-347.23C858.51,-336.57 858,-324.41 857.61,-315.25"/>
<polygon fill="midnightblue" stroke="midnightblue" points="855.47,-347.39 859.39,-357.23 862.46,-347.09 855.47,-347.39"/>
</g>
<!-- Node21 -->
<g id="node21" class="node">
<title>Node21</title>
<g id="a_node21"><a xlink:href="Nodes_8cpp.html" target="_top" xlink:title="Implements the Nodes base class methods.">
<polygon fill="none" stroke="black" points="634,-285 634,-315 762,-315 762,-285 634,-285"/>
<text text-anchor="start" x="642" y="-303" font-family="Helvetica,sans-Serif" font-size="10.00">src/VoronoiMeshMaker</text>
<text text-anchor="middle" x="698" y="-292" font-family="Helvetica,sans-Serif" font-size="10.00">/Nodes/Nodes.cpp</text>
</a>
</g>
</g>
<!-- Node15&#45;&gt;Node21 -->
<g id="edge23" class="edge">
<title>Node15&#45;&gt;Node21</title>
<path fill="none" stroke="midnightblue" d="M818.28,-353.34C790.89,-341.42 755.6,-326.07 730.34,-315.07"/>
<polygon fill="midnightblue" stroke="midnightblue" points="817.04,-356.62 827.61,-357.4 819.83,-350.2 817.04,-356.62"/>
</g>
<!-- Node17 -->
<g id="node17" class="node">
<title>Node17</title>
<g id="a_node17"><a xlink:href="ExporterTraits_8h.html" target="_top" xlink:title="Declares the ExporterTraits struct for data exporting.">
<polygon fill="none" stroke="black" points="1459.5,-212.5 1459.5,-242.5 1608.5,-242.5 1608.5,-212.5 1459.5,-212.5"/>
<text text-anchor="start" x="1467.5" y="-230.5" font-family="Helvetica,sans-Serif" font-size="10.00">include/VoronoiMeshMaker</text>
<text text-anchor="middle" x="1534" y="-219.5" font-family="Helvetica,sans-Serif" font-size="10.00">/Exporter/ExporterTraits.h</text>
</a>
</g>
</g>
<!-- Node16&#45;&gt;Node17 -->
<g id="edge17" class="edge">
<title>Node16&#45;&gt;Node17</title>
<path fill="none" stroke="midnightblue" d="M1339.34,-282.32C1383.07,-270.23 1441.56,-254.06 1482.98,-242.61"/>
<polygon fill="midnightblue" stroke="midnightblue" points="1338.39,-278.95 1329.68,-284.99 1340.26,-285.7 1338.39,-278.95"/>
</g>
<!-- Node18 -->
<g id="node18" class="node">
<title>Node18</title>
<g id="a_node18"><a xlink:href="Nodes2D_8cpp.html" target="_top" xlink:title="Implements the Nodes2D class methods.">
<polygon fill="none" stroke="black" points="1245.5,-212.5 1245.5,-242.5 1410.5,-242.5 1410.5,-212.5 1245.5,-212.5"/>
<text text-anchor="start" x="1253.5" y="-230.5" font-family="Helvetica,sans-Serif" font-size="10.00">src/VoronoiMeshMaker</text>
<text text-anchor="middle" x="1328" y="-219.5" font-family="Helvetica,sans-Serif" font-size="10.00">/Nodes/Nodes2D/Nodes2D.cpp</text>
</a>
</g>
</g>
<!-- Node16&#45;&gt;Node18 -->
<g id="edge19" class="edge">
<title>Node16&#45;&gt;Node18</title>
<path fill="none" stroke="midnightblue" d="M1294.72,-276.39C1302.39,-265.34 1311.39,-252.39 1318.1,-242.75"/>
<polygon fill="midnightblue" stroke="midnightblue" points="1291.75,-274.52 1288.92,-284.73 1297.5,-278.52 1291.75,-274.52"/>
</g>
<!-- Node17&#45;&gt;Node2 -->
<g id="edge18" class="edge">
<title>Node17&#45;&gt;Node2</title>
<path fill="none" stroke="midnightblue" d="M1551.3,-204.45C1558.79,-194.9 1567.34,-184 1573.96,-175.58"/>
<polygon fill="midnightblue" stroke="midnightblue" points="1548.49,-202.37 1545.07,-212.4 1553.99,-206.69 1548.49,-202.37"/>
</g>
<!-- Node19&#45;&gt;Node17 -->
<g id="edge21" class="edge">
<title>Node19&#45;&gt;Node17</title>
<path fill="none" stroke="midnightblue" d="M944.48,-284.02C956.72,-282.18 969.16,-280.44 981,-279 1174.9,-255.43 1224.73,-263.22 1419,-243 1432.01,-241.65 1445.83,-240.04 1459.2,-238.41"/>
<polygon fill="midnightblue" stroke="midnightblue" points="943.61,-280.61 934.26,-285.59 944.67,-287.53 943.61,-280.61"/>
</g>
<!-- Node20 -->
<g id="node20" class="node">
<title>Node20</title>
<g id="a_node20"><a xlink:href="Nodes3D_8cpp.html" target="_top" xlink:title="Implements the Nodes3D class methods.">
<polygon fill="none" stroke="black" points="581.5,-212.5 581.5,-242.5 746.5,-242.5 746.5,-212.5 581.5,-212.5"/>
<text text-anchor="start" x="589.5" y="-230.5" font-family="Helvetica,sans-Serif" font-size="10.00">src/VoronoiMeshMaker</text>
<text text-anchor="middle" x="664" y="-219.5" font-family="Helvetica,sans-Serif" font-size="10.00">/Nodes/Nodes3D/Nodes3D.cpp</text>
</a>
</g>
</g>
<!-- Node19&#45;&gt;Node20 -->
<g id="edge22" class="edge">
<title>Node19&#45;&gt;Node20</title>
<path fill="none" stroke="midnightblue" d="M809,-281.46C776.14,-269.46 733.14,-253.76 702.53,-242.57"/>
<polygon fill="midnightblue" stroke="midnightblue" points="807.81,-284.76 818.41,-284.9 810.22,-278.18 807.81,-284.76"/>
</g>
<!-- Node23 -->
<g id="node23" class="node">
<title>Node23</title>
<g id="a_node23"><a xlink:href="GeometricDataHolder_8h.html" target="_top" xlink:title="Defines the GeometricDataHolder class and the DataTraits for handling multiple data types....">
<polygon fill="none" stroke="black" points="990,-285 990,-315 1184,-315 1184,-285 990,-285"/>
<text text-anchor="start" x="998" y="-303" font-family="Helvetica,sans-Serif" font-size="10.00">include/VoronoiMeshMaker</text>
<text text-anchor="middle" x="1087" y="-292" font-family="Helvetica,sans-Serif" font-size="10.00">/Parameters/GeometricDataHolder.h</text>
</a>
</g>
</g>
<!-- Node22&#45;&gt;Node23 -->
<g id="edge26" class="edge">
<title>Node22&#45;&gt;Node23</title>
<path fill="none" stroke="midnightblue" d="M1092.25,-347.23C1091.04,-336.57 1089.66,-324.41 1088.62,-315.25"/>
<polygon fill="midnightblue" stroke="midnightblue" points="1088.78,-347.69 1093.38,-357.23 1095.73,-346.9 1088.78,-347.69"/>
</g>
<!-- Node24 -->
<g id="node24" class="node">
<title>Node24</title>
<g id="a_node24"><a xlink:href="Shape_8h.html" target="_top" xlink:title="Defines the Shape class, which serves as the abstract base class for all shapes. This class provides ...">
<polygon fill="none" stroke="black" points="1012.5,-212.5 1012.5,-242.5 1161.5,-242.5 1161.5,-212.5 1012.5,-212.5"/>
<text text-anchor="start" x="1020.5" y="-230.5" font-family="Helvetica,sans-Serif" font-size="10.00">include/VoronoiMeshMaker</text>
<text text-anchor="middle" x="1087" y="-219.5" font-family="Helvetica,sans-Serif" font-size="10.00">/Shape/Shape.h</text>
</a>
</g>
</g>
<!-- Node23&#45;&gt;Node24 -->
<g id="edge27" class="edge">
<title>Node23&#45;&gt;Node24</title>
<path fill="none" stroke="midnightblue" d="M1087,-274.73C1087,-264.07 1087,-251.91 1087,-242.75"/>
<polygon fill="midnightblue" stroke="midnightblue" points="1083.5,-274.73 1087,-284.73 1090.5,-274.73 1083.5,-274.73"/>
</g>
<!-- Node32 -->
<g id="node32" class="node">
<title>Node32</title>
<g id="a_node32"><a xlink:href="ShapeFactory_8h.html" target="_top" xlink:title=" ">
<polygon fill="none" stroke="black" points="1455.5,-78.5 1455.5,-108.5 1604.5,-108.5 1604.5,-78.5 1455.5,-78.5"/>
<text text-anchor="start" x="1463.5" y="-96.5" font-family="Helvetica,sans-Serif" font-size="10.00">include/VoronoiMeshMaker</text>
<text text-anchor="middle" x="1530" y="-85.5" font-family="Helvetica,sans-Serif" font-size="10.00">/Shape/ShapeFactory.h</text>
</a>
</g>
</g>
<!-- Node23&#45;&gt;Node32 -->
<g id="edge46" class="edge">
<title>Node23&#45;&gt;Node32</title>
<path fill="none" stroke="midnightblue" d="M1117.27,-279.53C1146.87,-260.93 1193.56,-232.73 1236,-212 1323.91,-169.06 1431.71,-129.03 1489.24,-108.62"/>
<polygon fill="midnightblue" stroke="midnightblue" points="1115.24,-276.68 1108.65,-284.98 1118.98,-282.6 1115.24,-276.68"/>
</g>
<!-- Node25 -->
<g id="node25" class="node">
<title>Node25</title>
<g id="a_node25"><a xlink:href="Shape2D_8h.html" target="_top" xlink:title="Defines the Shape2D class, which represents 2D geometric shapes.">
<polygon fill="none" stroke="black" points="853,-145.5 853,-175.5 1005,-175.5 1005,-145.5 853,-145.5"/>
<text text-anchor="start" x="861" y="-163.5" font-family="Helvetica,sans-Serif" font-size="10.00">include/VoronoiMeshMaker</text>
<text text-anchor="middle" x="929" y="-152.5" font-family="Helvetica,sans-Serif" font-size="10.00">/Shape/Shape2D/Shape2D.h</text>
</a>
</g>
</g>
<!-- Node24&#45;&gt;Node25 -->
<g id="edge28" class="edge">
<title>Node24&#45;&gt;Node25</title>
<path fill="none" stroke="midnightblue" d="M1043.35,-208.54C1018.07,-198.14 986.7,-185.24 963.22,-175.58"/>
<polygon fill="midnightblue" stroke="midnightblue" points="1042.14,-211.83 1052.72,-212.4 1044.8,-205.35 1042.14,-211.83"/>
</g>
<!-- Node24&#45;&gt;Node32 -->
<g id="edge40" class="edge">
<title>Node24&#45;&gt;Node32</title>
<path fill="none" stroke="midnightblue" d="M1115.92,-206.68C1129.37,-197.42 1145.54,-186.21 1160,-176 1179.24,-162.41 1181.17,-153.87 1203,-145 1304.15,-103.91 1338.2,-126.29 1446,-109 1449.07,-108.51 1452.2,-108 1455.36,-107.48"/>
<polygon fill="midnightblue" stroke="midnightblue" points="1113.78,-203.91 1107.53,-212.46 1117.75,-209.67 1113.78,-203.91"/>
</g>
<!-- Node34 -->
<g id="node34" class="node">
<title>Node34</title>
<g id="a_node34"><a xlink:href="Shape_8cpp.html" target="_top" xlink:title=" ">
<polygon fill="none" stroke="black" points="1023,-145.5 1023,-175.5 1151,-175.5 1151,-145.5 1023,-145.5"/>
<text text-anchor="start" x="1031" y="-163.5" font-family="Helvetica,sans-Serif" font-size="10.00">src/VoronoiMeshMaker</text>
<text text-anchor="middle" x="1087" y="-152.5" font-family="Helvetica,sans-Serif" font-size="10.00">/Shape/Shape.cpp</text>
</a>
</g>
</g>
<!-- Node24&#45;&gt;Node34 -->
<g id="edge45" class="edge">
<title>Node24&#45;&gt;Node34</title>
<path fill="none" stroke="midnightblue" d="M1087,-202.11C1087,-193.15 1087,-183.32 1087,-175.58"/>
<polygon fill="midnightblue" stroke="midnightblue" points="1083.5,-202.4 1087,-212.4 1090.5,-202.4 1083.5,-202.4"/>
</g>
<!-- Node26 -->
<g id="node26" class="node">
<title>Node26</title>
<g id="a_node26"><a xlink:href="CommaSeparatedValues_8h.html" target="_top" xlink:title=" ">
<polygon fill="none" stroke="black" points="184.5,-78.5 184.5,-108.5 413.5,-108.5 413.5,-78.5 184.5,-78.5"/>
<text text-anchor="start" x="192.5" y="-96.5" font-family="Helvetica,sans-Serif" font-size="10.00">include/VoronoiMeshMaker</text>
<text text-anchor="middle" x="299" y="-85.5" font-family="Helvetica,sans-Serif" font-size="10.00">/Shape/Shape2D/CommaSeparatedValues.h</text>
</a>
</g>
</g>
<!-- Node25&#45;&gt;Node26 -->
<g id="edge29" class="edge">
<title>Node25&#45;&gt;Node26</title>
<path fill="none" stroke="midnightblue" d="M842.8,-151.39C741.88,-141.79 569.72,-125.06 422,-109 419.22,-108.7 416.41,-108.39 413.57,-108.07"/>
<polygon fill="midnightblue" stroke="midnightblue" points="842.65,-154.89 852.94,-152.36 843.31,-147.93 842.65,-154.89"/>
</g>
<!-- Node27 -->
<g id="node27" class="node">
<title>Node27</title>
<g id="a_node27"><a xlink:href="Ellipse_8h.html" target="_top" xlink:title=" ">
<polygon fill="none" stroke="black" points="1288.5,-78.5 1288.5,-108.5 1437.5,-108.5 1437.5,-78.5 1288.5,-78.5"/>
<text text-anchor="start" x="1296.5" y="-96.5" font-family="Helvetica,sans-Serif" font-size="10.00">include/VoronoiMeshMaker</text>
<text text-anchor="middle" x="1363" y="-85.5" font-family="Helvetica,sans-Serif" font-size="10.00">/Shape/Shape2D/Ellipse.h</text>
</a>
</g>
</g>
<!-- Node25&#45;&gt;Node27 -->
<g id="edge31" class="edge">
<title>Node25&#45;&gt;Node27</title>
<path fill="none" stroke="midnightblue" d="M1015.56,-144.79C1133.2,-127 1164.74,-126.62 1279,-109 1282.07,-108.53 1285.2,-108.03 1288.37,-107.53"/>
<polygon fill="midnightblue" stroke="midnightblue" points="1014.79,-141.37 1005.44,-146.34 1015.85,-148.29 1014.79,-141.37"/>
</g>
<!-- Node28 -->
<g id="node28" class="node">
<title>Node28</title>
<g id="a_node28"><a xlink:href="Polygon_8h.html" target="_top" xlink:title=" ">
<polygon fill="none" stroke="black" points="431.5,-78.5 431.5,-108.5 580.5,-108.5 580.5,-78.5 431.5,-78.5"/>
<text text-anchor="start" x="439.5" y="-96.5" font-family="Helvetica,sans-Serif" font-size="10.00">include/VoronoiMeshMaker</text>
<text text-anchor="middle" x="506" y="-85.5" font-family="Helvetica,sans-Serif" font-size="10.00">/Shape/Shape2D/Polygon.h</text>
</a>
</g>
</g>
<!-- Node25&#45;&gt;Node28 -->
<g id="edge33" class="edge">
<title>Node25&#45;&gt;Node28</title>
<path fill="none" stroke="midnightblue" d="M843.03,-147.35C774.24,-137.48 675.33,-122.95 589,-109 586.26,-108.56 583.46,-108.1 580.64,-107.63"/>
<polygon fill="midnightblue" stroke="midnightblue" points="842.56,-150.82 852.96,-148.77 843.55,-143.89 842.56,-150.82"/>
</g>
<!-- Node29 -->
<g id="node29" class="node">
<title>Node29</title>
<g id="a_node29"><a xlink:href="Rectangle_8h.html" target="_top" xlink:title=" ">
<polygon fill="none" stroke="black" points="765.5,-78.5 765.5,-108.5 922.5,-108.5 922.5,-78.5 765.5,-78.5"/>
<text text-anchor="start" x="773.5" y="-96.5" font-family="Helvetica,sans-Serif" font-size="10.00">include/VoronoiMeshMaker</text>
<text text-anchor="middle" x="844" y="-85.5" font-family="Helvetica,sans-Serif" font-size="10.00">/Shape/Shape2D/Rectangle.h</text>
</a>
</g>
</g>
<!-- Node25&#45;&gt;Node29 -->
<g id="edge35" class="edge">
<title>Node25&#45;&gt;Node29</title>
<path fill="none" stroke="midnightblue" d="M902.41,-139.17C889.41,-129.23 874.1,-117.51 862.41,-108.58"/>
<polygon fill="midnightblue" stroke="midnightblue" points="900.49,-142.1 910.56,-145.4 904.74,-136.54 900.49,-142.1"/>
</g>
<!-- Node30 -->
<g id="node30" class="node">
<title>Node30</title>
<g id="a_node30"><a xlink:href="Star_8h.html" target="_top" xlink:title=" ">
<polygon fill="none" stroke="black" points="940.5,-78.5 940.5,-108.5 1089.5,-108.5 1089.5,-78.5 940.5,-78.5"/>
<text text-anchor="start" x="948.5" y="-96.5" font-family="Helvetica,sans-Serif" font-size="10.00">include/VoronoiMeshMaker</text>
<text text-anchor="middle" x="1015" y="-85.5" font-family="Helvetica,sans-Serif" font-size="10.00">/Shape/Shape2D/Star.h</text>
</a>
</g>
</g>
<!-- Node25&#45;&gt;Node30 -->
<g id="edge37" class="edge">
<title>Node25&#45;&gt;Node30</title>
<path fill="none" stroke="midnightblue" d="M955.9,-139.17C969.05,-129.23 984.55,-117.51 996.38,-108.58"/>
<polygon fill="midnightblue" stroke="midnightblue" points="953.53,-136.57 947.66,-145.4 957.75,-142.16 953.53,-136.57"/>
</g>
<!-- Node31 -->
<g id="node31" class="node">
<title>Node31</title>
<g id="a_node31"><a xlink:href="Shape2D_8cpp.html" target="_top" xlink:title=" ">
<polygon fill="none" stroke="black" points="1107.5,-78.5 1107.5,-108.5 1270.5,-108.5 1270.5,-78.5 1107.5,-78.5"/>
<text text-anchor="start" x="1115.5" y="-96.5" font-family="Helvetica,sans-Serif" font-size="10.00">src/VoronoiMeshMaker</text>
<text text-anchor="middle" x="1189" y="-85.5" font-family="Helvetica,sans-Serif" font-size="10.00">/Shape/Shape2D/Shape2D.cpp</text>
</a>
</g>
</g>
<!-- Node25&#45;&gt;Node31 -->
<g id="edge39" class="edge">
<title>Node25&#45;&gt;Node31</title>
<path fill="none" stroke="midnightblue" d="M995.06,-142.98C1037.53,-132.37 1092.12,-118.72 1132.56,-108.61"/>
<polygon fill="midnightblue" stroke="midnightblue" points="993.95,-139.66 985.1,-145.48 995.65,-146.45 993.95,-139.66"/>
</g>
<!-- Node26&#45;&gt;Node8 -->
<g id="edge30" class="edge">
<title>Node26&#45;&gt;Node8</title>
<path fill="none" stroke="midnightblue" d="M299,-67.98C299,-59.35 299,-49.76 299,-41.59"/>
<polygon fill="midnightblue" stroke="midnightblue" points="295.5,-68.23 299,-78.23 302.5,-68.23 295.5,-68.23"/>
</g>
<!-- Node27&#45;&gt;Node9 -->
<g id="edge32" class="edge">
<title>Node27&#45;&gt;Node9</title>
<path fill="none" stroke="midnightblue" d="M1363,-68.23C1363,-57.57 1363,-45.41 1363,-36.25"/>
<polygon fill="midnightblue" stroke="midnightblue" points="1359.5,-68.23 1363,-78.23 1366.5,-68.23 1359.5,-68.23"/>
</g>
<!-- Node28&#45;&gt;Node10 -->
<g id="edge34" class="edge">
<title>Node28&#45;&gt;Node10</title>
<path fill="none" stroke="midnightblue" d="M505.31,-68.23C505.01,-57.57 504.66,-45.41 504.4,-36.25"/>
<polygon fill="midnightblue" stroke="midnightblue" points="501.81,-68.34 505.6,-78.23 508.81,-68.14 501.81,-68.34"/>
</g>
<!-- Node29&#45;&gt;Node11 -->
<g id="edge36" class="edge">
<title>Node29&#45;&gt;Node11</title>
<path fill="none" stroke="midnightblue" d="M845.03,-68.23C845.49,-57.57 846,-45.41 846.39,-36.25"/>
<polygon fill="midnightblue" stroke="midnightblue" points="841.54,-68.09 844.61,-78.23 848.53,-68.39 841.54,-68.09"/>
</g>
<!-- Node30&#45;&gt;Node12 -->
<g id="edge38" class="edge">
<title>Node30&#45;&gt;Node12</title>
<path fill="none" stroke="midnightblue" d="M1016.38,-68.23C1016.98,-57.57 1017.67,-45.41 1018.19,-36.25"/>
<polygon fill="midnightblue" stroke="midnightblue" points="1012.88,-68.05 1015.81,-78.23 1019.87,-68.45 1012.88,-68.05"/>
</g>
<!-- Node32&#45;&gt;Node9 -->
<g id="edge41" class="edge">
<title>Node32&#45;&gt;Node9</title>
<path fill="none" stroke="midnightblue" d="M1487.36,-74.5C1459.07,-62.56 1422.49,-47.11 1396.34,-36.07"/>
<polygon fill="midnightblue" stroke="midnightblue" points="1486.03,-77.74 1496.61,-78.4 1488.75,-71.29 1486.03,-77.74"/>
</g>
<!-- Node32&#45;&gt;Node11 -->
<g id="edge42" class="edge">
<title>Node32&#45;&gt;Node11</title>
<path fill="none" stroke="midnightblue" d="M1445.26,-78.01C1220.43,-51.45 1159.94,-73.31 940,-42 929.05,-40.44 917.45,-38.33 906.31,-36.06"/>
<polygon fill="midnightblue" stroke="midnightblue" points="1445.06,-81.51 1455.4,-79.22 1445.89,-74.56 1445.06,-81.51"/>
</g>
<!-- Node32&#45;&gt;Node12 -->
<g id="edge43" class="edge">
<title>Node32&#45;&gt;Node12</title>
<path fill="none" stroke="midnightblue" d="M1445.46,-77.96C1313.19,-58.03 1171.21,-40.24 1088.64,-30.25"/>
<polygon fill="midnightblue" stroke="midnightblue" points="1444.96,-81.42 1455.37,-79.46 1446.01,-74.5 1444.96,-81.42"/>
</g>
<!-- Node33 -->
<g id="node33" class="node">
<title>Node33</title>
<g id="a_node33"><a xlink:href="ShapeFactory_8cpp.html" target="_top" xlink:title="Implements the ShapeFactory methods for creating shape objects. This file contains the registration a...">
<polygon fill="none" stroke="black" points="1461.5,-6 1461.5,-36 1598.5,-36 1598.5,-6 1461.5,-6"/>
<text text-anchor="start" x="1469.5" y="-24" font-family="Helvetica,sans-Serif" font-size="10.00">src/VoronoiMeshMaker</text>
<text text-anchor="middle" x="1530" y="-13" font-family="Helvetica,sans-Serif" font-size="10.00">/Shape/ShapeFactory.cpp</text>
</a>
</g>
</g>
<!-- Node32&#45;&gt;Node33 -->
<g id="edge44" class="edge">
<title>Node32&#45;&gt;Node33</title>
<path fill="none" stroke="midnightblue" d="M1530,-68.23C1530,-57.57 1530,-45.41 1530,-36.25"/>
<polygon fill="midnightblue" stroke="midnightblue" points="1526.5,-68.23 1530,-78.23 1533.5,-68.23 1526.5,-68.23"/>
</g>
<!-- Node35&#45;&gt;Node17 -->
<g id="edge48" class="edge">
<title>Node35&#45;&gt;Node17</title>
<path fill="none" stroke="midnightblue" d="M1516.58,-351.04C1526.27,-342.96 1535.76,-332.77 1541,-321 1552.45,-295.25 1544.98,-261.48 1539.1,-242.69"/>
<polygon fill="midnightblue" stroke="midnightblue" points="1514.23,-348.43 1508.47,-357.32 1518.52,-353.96 1514.23,-348.43"/>
</g>
<!-- Node36 -->
<g id="node36" class="node">
<title>Node36</title>
<g id="a_node36"><a xlink:href="Voronoi2D_8cpp.html" target="_top" xlink:title="Implements the Voronoi2D class methods.">
<polygon fill="none" stroke="black" points="1374,-279.5 1374,-320.5 1532,-320.5 1532,-279.5 1374,-279.5"/>
<text text-anchor="start" x="1382" y="-308.5" font-family="Helvetica,sans-Serif" font-size="10.00">src/VoronoiMeshMaker</text>
<text text-anchor="start" x="1382" y="-297.5" font-family="Helvetica,sans-Serif" font-size="10.00">/Voronoi/Voronoi2D/Voronoi2</text>
<text text-anchor="middle" x="1453" y="-286.5" font-family="Helvetica,sans-Serif" font-size="10.00">D.cpp</text>
</a>
</g>
</g>
<!-- Node35&#45;&gt;Node36 -->
<g id="edge49" class="edge">
<title>Node35&#45;&gt;Node36</title>
<path fill="none" stroke="midnightblue" d="M1474.39,-348.13C1470.34,-339.2 1465.77,-329.13 1461.89,-320.59"/>
<polygon fill="midnightblue" stroke="midnightblue" points="1471.2,-349.57 1478.52,-357.23 1477.58,-346.68 1471.2,-349.57"/>
</g>
<!-- Node37&#45;&gt;Node35 -->
<g id="edge53" class="edge">
<title>Node37&#45;&gt;Node35</title>
<path fill="none" stroke="midnightblue" d="M1675.21,-421.98C1633.56,-411.37 1580.02,-397.72 1540.36,-387.61"/>
<polygon fill="midnightblue" stroke="midnightblue" points="1674.43,-425.4 1684.98,-424.48 1676.16,-418.61 1674.43,-425.4"/>
</g>
<!-- Node38 -->
<g id="node38" class="node">
<title>Node38</title>
<g id="a_node38"><a xlink:href="Voronoi3D_8h.html" target="_top" xlink:title="Declares the Voronoi3D class for representing 3D Voronoi diagrams.">
<polygon fill="none" stroke="black" points="1660,-357.5 1660,-387.5 1834,-387.5 1834,-357.5 1660,-357.5"/>
<text text-anchor="start" x="1668" y="-375.5" font-family="Helvetica,sans-Serif" font-size="10.00">include/VoronoiMeshMaker</text>
<text text-anchor="middle" x="1747" y="-364.5" font-family="Helvetica,sans-Serif" font-size="10.00">/Voronoi/Voronoi3D/Voronoi3D.h</text>
</a>
</g>
</g>
<!-- Node37&#45;&gt;Node38 -->
<g id="edge54" class="edge">
<title>Node37&#45;&gt;Node38</title>
<path fill="none" stroke="midnightblue" d="M1742.6,-414.4C1743.57,-405.37 1744.64,-395.41 1745.48,-387.58"/>
<polygon fill="midnightblue" stroke="midnightblue" points="1739.11,-414.08 1741.52,-424.4 1746.07,-414.83 1739.11,-414.08"/>
</g>
<!-- Node40 -->
<g id="node40" class="node">
<title>Node40</title>
<g id="a_node40"><a xlink:href="Voronoi_8cpp.html" target="_top" xlink:title="Implements the Voronoi base class methods.">
<polygon fill="none" stroke="black" points="1852,-357.5 1852,-387.5 1980,-387.5 1980,-357.5 1852,-357.5"/>
<text text-anchor="start" x="1860" y="-375.5" font-family="Helvetica,sans-Serif" font-size="10.00">src/VoronoiMeshMaker</text>
<text text-anchor="middle" x="1916" y="-364.5" font-family="Helvetica,sans-Serif" font-size="10.00">/Voronoi/Voronoi.cpp</text>
</a>
</g>
</g>
<!-- Node37&#45;&gt;Node40 -->
<g id="edge57" class="edge">
<title>Node37&#45;&gt;Node40</title>
<path fill="none" stroke="midnightblue" d="M1787.88,-420.82C1816.17,-410.37 1851.49,-397.32 1877.89,-387.58"/>
<polygon fill="midnightblue" stroke="midnightblue" points="1786.36,-417.65 1778.19,-424.4 1788.78,-424.21 1786.36,-417.65"/>
</g>
<!-- Node38&#45;&gt;Node17 -->
<g id="edge55" class="edge">
<title>Node38&#45;&gt;Node17</title>
<path fill="none" stroke="midnightblue" d="M1711.55,-352.39C1695.27,-343.31 1675.88,-332.04 1659,-321 1619.46,-295.15 1575.56,-261.41 1551.75,-242.66"/>
<polygon fill="midnightblue" stroke="midnightblue" points="1710.28,-355.69 1720.73,-357.47 1713.67,-349.57 1710.28,-355.69"/>
</g>
<!-- Node39 -->
<g id="node39" class="node">
<title>Node39</title>
<g id="a_node39"><a xlink:href="Voronoi3D_8cpp.html" target="_top" xlink:title="Implements the Voronoi3D class methods.">
<polygon fill="none" stroke="black" points="1668,-279.5 1668,-320.5 1826,-320.5 1826,-279.5 1668,-279.5"/>
<text text-anchor="start" x="1676" y="-308.5" font-family="Helvetica,sans-Serif" font-size="10.00">src/VoronoiMeshMaker</text>
<text text-anchor="start" x="1676" y="-297.5" font-family="Helvetica,sans-Serif" font-size="10.00">/Voronoi/Voronoi3D/Voronoi3</text>
<text text-anchor="middle" x="1747" y="-286.5" font-family="Helvetica,sans-Serif" font-size="10.00">D.cpp</text>
</a>
</g>
</g>
<!-- Node38&#45;&gt;Node39 -->
<g id="edge56" class="edge">
<title>Node38&#45;&gt;Node39</title>
<path fill="none" stroke="midnightblue" d="M1747,-346.98C1747,-338.35 1747,-328.76 1747,-320.59"/>
<polygon fill="midnightblue" stroke="midnightblue" points="1743.5,-347.23 1747,-357.23 1750.5,-347.23 1743.5,-347.23"/>
</g>
</g>
</svg>
