<?xml version="1.0" encoding="UTF-8" standalone="no"?>
<!DOCTYPE svg PUBLIC "-//W3C//DTD SVG 1.1//EN"
 "http://www.w3.org/Graphics/SVG/1.1/DTD/svg11.dtd">
<!-- Generated by graphviz version 2.43.0 (0)
 -->
<!-- Title: include/VoronoiMeshMaker/Nodes/Nodes3D/Nodes3D.h Pages: 1 -->
<svg width="340pt" height="173pt"
 viewBox="0.00 0.00 340.00 173.00" xmlns="http://www.w3.org/2000/svg" xmlns:xlink="http://www.w3.org/1999/xlink">
<g id="graph0" class="graph" transform="scale(1 1) rotate(0) translate(4 169)">
<title>include/VoronoiMeshMaker/Nodes/Nodes3D/Nodes3D.h</title>
<!-- Node1 -->
<g id="node1" class="node">
<title>Node1</title>
<g id="a_node1"><a xlink:title="Declares the Nodes3D class for representing 3D nodes.">
<polygon fill="#bfbfbf" stroke="black" points="84.5,-134.5 84.5,-164.5 238.5,-164.5 238.5,-134.5 84.5,-134.5"/>
<text text-anchor="start" x="92.5" y="-152.5" font-family="Helvetica,sans-Serif" font-size="10.00">include/VoronoiMeshMaker</text>
<text text-anchor="middle" x="161.5" y="-141.5" font-family="Helvetica,sans-Serif" font-size="10.00">/Nodes/Nodes3D/Nodes3D.h</text>
</a>
</g>
</g>
<!-- Node2 -->
<g id="node2" class="node">
<title>Node2</title>
<g id="a_node2"><a xlink:href="ExporterTraits_8h.html" target="_top" xlink:title="Declares the ExporterTraits struct for data exporting.">
<polygon fill="none" stroke="black" points="0,-67.5 0,-97.5 149,-97.5 149,-67.5 0,-67.5"/>
<text text-anchor="start" x="8" y="-85.5" font-family="Helvetica,sans-Serif" font-size="10.00">include/VoronoiMeshMaker</text>
<text text-anchor="middle" x="74.5" y="-74.5" font-family="Helvetica,sans-Serif" font-size="10.00">/Exporter/ExporterTraits.h</text>
</a>
</g>
</g>
<!-- Node1&#45;&gt;Node2 -->
<g id="edge1" class="edge">
<title>Node1&#45;&gt;Node2</title>
<path fill="none" stroke="midnightblue" d="M134.29,-128.17C120.98,-118.23 105.3,-106.51 93.34,-97.58"/>
<polygon fill="midnightblue" stroke="midnightblue" points="132.52,-131.21 142.62,-134.4 136.71,-125.61 132.52,-131.21"/>
</g>
<!-- Node4 -->
<g id="node4" class="node">
<title>Node4</title>
<g id="a_node4"><a xlink:href="Nodes3D_8cpp.html" target="_top" xlink:title="Implements the Nodes3D class methods.">
<polygon fill="none" stroke="black" points="167,-67.5 167,-97.5 332,-97.5 332,-67.5 167,-67.5"/>
<text text-anchor="start" x="175" y="-85.5" font-family="Helvetica,sans-Serif" font-size="10.00">src/VoronoiMeshMaker</text>
<text text-anchor="middle" x="249.5" y="-74.5" font-family="Helvetica,sans-Serif" font-size="10.00">/Nodes/Nodes3D/Nodes3D.cpp</text>
</a>
</g>
</g>
<!-- Node1&#45;&gt;Node4 -->
<g id="edge3" class="edge">
<title>Node1&#45;&gt;Node4</title>
<path fill="none" stroke="midnightblue" d="M188.64,-128.45C202.18,-118.45 218.23,-106.6 230.44,-97.58"/>
<polygon fill="midnightblue" stroke="midnightblue" points="186.56,-125.64 180.59,-134.4 190.72,-131.27 186.56,-125.64"/>
</g>
<!-- Node3 -->
<g id="node3" class="node">
<title>Node3</title>
<g id="a_node3"><a xlink:href="Exporter_8h.html" target="_top" xlink:title="Declares the template class Exporter for data exporting.">
<polygon fill="none" stroke="black" points="0,-0.5 0,-30.5 149,-30.5 149,-0.5 0,-0.5"/>
<text text-anchor="start" x="8" y="-18.5" font-family="Helvetica,sans-Serif" font-size="10.00">include/VoronoiMeshMaker</text>
<text text-anchor="middle" x="74.5" y="-7.5" font-family="Helvetica,sans-Serif" font-size="10.00">/Exporter/Exporter.h</text>
</a>
</g>
</g>
<!-- Node2&#45;&gt;Node3 -->
<g id="edge2" class="edge">
<title>Node2&#45;&gt;Node3</title>
<path fill="none" stroke="midnightblue" d="M74.5,-57.11C74.5,-48.15 74.5,-38.32 74.5,-30.58"/>
<polygon fill="midnightblue" stroke="midnightblue" points="71,-57.4 74.5,-67.4 78,-57.4 71,-57.4"/>
</g>
</g>
</svg>
