<?xml version="1.0" encoding="UTF-8" standalone="no"?>
<!DOCTYPE svg PUBLIC "-//W3C//DTD SVG 1.1//EN"
 "http://www.w3.org/Graphics/SVG/1.1/DTD/svg11.dtd">
<!-- Generated by graphviz version 2.43.0 (0)
 -->
<!-- Title: include/VoronoiMeshMaker/Nodes/Nodes.h Pages: 1 -->
<svg width="575pt" height="240pt"
 viewBox="0.00 0.00 574.50 240.00" xmlns="http://www.w3.org/2000/svg" xmlns:xlink="http://www.w3.org/1999/xlink">
<g id="graph0" class="graph" transform="scale(1 1) rotate(0) translate(4 236)">
<title>include/VoronoiMeshMaker/Nodes/Nodes.h</title>
<!-- Node1 -->
<g id="node1" class="node">
<title>Node1</title>
<g id="a_node1"><a xlink:title="Declares the Nodes base class for representing collections of nodes.">
<polygon fill="#bfbfbf" stroke="black" points="269,-201.5 269,-231.5 418,-231.5 418,-201.5 269,-201.5"/>
<text text-anchor="start" x="277" y="-219.5" font-family="Helvetica,sans-Serif" font-size="10.00">include/VoronoiMeshMaker</text>
<text text-anchor="middle" x="343.5" y="-208.5" font-family="Helvetica,sans-Serif" font-size="10.00">/Nodes/Nodes.h</text>
</a>
</g>
</g>
<!-- Node2 -->
<g id="node2" class="node">
<title>Node2</title>
<g id="a_node2"><a xlink:href="Nodes2D_8h.html" target="_top" xlink:title="Declares the Nodes2D class for representing 2D nodes.">
<polygon fill="none" stroke="black" points="94.5,-134.5 94.5,-164.5 248.5,-164.5 248.5,-134.5 94.5,-134.5"/>
<text text-anchor="start" x="102.5" y="-152.5" font-family="Helvetica,sans-Serif" font-size="10.00">include/VoronoiMeshMaker</text>
<text text-anchor="middle" x="171.5" y="-141.5" font-family="Helvetica,sans-Serif" font-size="10.00">/Nodes/Nodes2D/Nodes2D.h</text>
</a>
</g>
</g>
<!-- Node1&#45;&gt;Node2 -->
<g id="edge1" class="edge">
<title>Node1&#45;&gt;Node2</title>
<path fill="none" stroke="midnightblue" d="M296.71,-197.82C269.07,-187.37 234.54,-174.32 208.75,-164.58"/>
<polygon fill="midnightblue" stroke="midnightblue" points="295.59,-201.13 306.18,-201.4 298.06,-194.59 295.59,-201.13"/>
</g>
<!-- Node6 -->
<g id="node6" class="node">
<title>Node6</title>
<g id="a_node6"><a xlink:href="Nodes3D_8h.html" target="_top" xlink:title="Declares the Nodes3D class for representing 3D nodes.">
<polygon fill="none" stroke="black" points="266.5,-134.5 266.5,-164.5 420.5,-164.5 420.5,-134.5 266.5,-134.5"/>
<text text-anchor="start" x="274.5" y="-152.5" font-family="Helvetica,sans-Serif" font-size="10.00">include/VoronoiMeshMaker</text>
<text text-anchor="middle" x="343.5" y="-141.5" font-family="Helvetica,sans-Serif" font-size="10.00">/Nodes/Nodes3D/Nodes3D.h</text>
</a>
</g>
</g>
<!-- Node1&#45;&gt;Node6 -->
<g id="edge5" class="edge">
<title>Node1&#45;&gt;Node6</title>
<path fill="none" stroke="midnightblue" d="M343.5,-191.11C343.5,-182.15 343.5,-172.32 343.5,-164.58"/>
<polygon fill="midnightblue" stroke="midnightblue" points="340,-191.4 343.5,-201.4 347,-191.4 340,-191.4"/>
</g>
<!-- Node8 -->
<g id="node8" class="node">
<title>Node8</title>
<g id="a_node8"><a xlink:href="Nodes_8cpp.html" target="_top" xlink:title="Implements the Nodes base class methods.">
<polygon fill="none" stroke="black" points="438.5,-134.5 438.5,-164.5 566.5,-164.5 566.5,-134.5 438.5,-134.5"/>
<text text-anchor="start" x="446.5" y="-152.5" font-family="Helvetica,sans-Serif" font-size="10.00">src/VoronoiMeshMaker</text>
<text text-anchor="middle" x="502.5" y="-141.5" font-family="Helvetica,sans-Serif" font-size="10.00">/Nodes/Nodes.cpp</text>
</a>
</g>
</g>
<!-- Node1&#45;&gt;Node8 -->
<g id="edge8" class="edge">
<title>Node1&#45;&gt;Node8</title>
<path fill="none" stroke="midnightblue" d="M387.42,-197.54C412.87,-187.14 444.43,-174.24 468.07,-164.58"/>
<polygon fill="midnightblue" stroke="midnightblue" points="385.93,-194.37 378,-201.4 388.58,-200.85 385.93,-194.37"/>
</g>
<!-- Node3 -->
<g id="node3" class="node">
<title>Node3</title>
<g id="a_node3"><a xlink:href="ExporterTraits_8h.html" target="_top" xlink:title="Declares the ExporterTraits struct for data exporting.">
<polygon fill="none" stroke="black" points="183,-67.5 183,-97.5 332,-97.5 332,-67.5 183,-67.5"/>
<text text-anchor="start" x="191" y="-85.5" font-family="Helvetica,sans-Serif" font-size="10.00">include/VoronoiMeshMaker</text>
<text text-anchor="middle" x="257.5" y="-74.5" font-family="Helvetica,sans-Serif" font-size="10.00">/Exporter/ExporterTraits.h</text>
</a>
</g>
</g>
<!-- Node2&#45;&gt;Node3 -->
<g id="edge2" class="edge">
<title>Node2&#45;&gt;Node3</title>
<path fill="none" stroke="midnightblue" d="M198.4,-128.17C211.55,-118.23 227.05,-106.51 238.88,-97.58"/>
<polygon fill="midnightblue" stroke="midnightblue" points="196.03,-125.57 190.16,-134.4 200.25,-131.16 196.03,-125.57"/>
</g>
<!-- Node5 -->
<g id="node5" class="node">
<title>Node5</title>
<g id="a_node5"><a xlink:href="Nodes2D_8cpp.html" target="_top" xlink:title="Implements the Nodes2D class methods.">
<polygon fill="none" stroke="black" points="0,-67.5 0,-97.5 165,-97.5 165,-67.5 0,-67.5"/>
<text text-anchor="start" x="8" y="-85.5" font-family="Helvetica,sans-Serif" font-size="10.00">src/VoronoiMeshMaker</text>
<text text-anchor="middle" x="82.5" y="-74.5" font-family="Helvetica,sans-Serif" font-size="10.00">/Nodes/Nodes2D/Nodes2D.cpp</text>
</a>
</g>
</g>
<!-- Node2&#45;&gt;Node5 -->
<g id="edge4" class="edge">
<title>Node2&#45;&gt;Node5</title>
<path fill="none" stroke="midnightblue" d="M144.05,-128.45C130.36,-118.45 114.13,-106.6 101.77,-97.58"/>
<polygon fill="midnightblue" stroke="midnightblue" points="142.05,-131.32 152.19,-134.4 146.18,-125.67 142.05,-131.32"/>
</g>
<!-- Node4 -->
<g id="node4" class="node">
<title>Node4</title>
<g id="a_node4"><a xlink:href="Exporter_8h.html" target="_top" xlink:title="Declares the template class Exporter for data exporting.">
<polygon fill="none" stroke="black" points="183,-0.5 183,-30.5 332,-30.5 332,-0.5 183,-0.5"/>
<text text-anchor="start" x="191" y="-18.5" font-family="Helvetica,sans-Serif" font-size="10.00">include/VoronoiMeshMaker</text>
<text text-anchor="middle" x="257.5" y="-7.5" font-family="Helvetica,sans-Serif" font-size="10.00">/Exporter/Exporter.h</text>
</a>
</g>
</g>
<!-- Node3&#45;&gt;Node4 -->
<g id="edge3" class="edge">
<title>Node3&#45;&gt;Node4</title>
<path fill="none" stroke="midnightblue" d="M257.5,-57.11C257.5,-48.15 257.5,-38.32 257.5,-30.58"/>
<polygon fill="midnightblue" stroke="midnightblue" points="254,-57.4 257.5,-67.4 261,-57.4 254,-57.4"/>
</g>
<!-- Node6&#45;&gt;Node3 -->
<g id="edge6" class="edge">
<title>Node6&#45;&gt;Node3</title>
<path fill="none" stroke="midnightblue" d="M316.6,-128.17C303.45,-118.23 287.95,-106.51 276.12,-97.58"/>
<polygon fill="midnightblue" stroke="midnightblue" points="314.75,-131.16 324.84,-134.4 318.97,-125.57 314.75,-131.16"/>
</g>
<!-- Node7 -->
<g id="node7" class="node">
<title>Node7</title>
<g id="a_node7"><a xlink:href="Nodes3D_8cpp.html" target="_top" xlink:title="Implements the Nodes3D class methods.">
<polygon fill="none" stroke="black" points="350,-67.5 350,-97.5 515,-97.5 515,-67.5 350,-67.5"/>
<text text-anchor="start" x="358" y="-85.5" font-family="Helvetica,sans-Serif" font-size="10.00">src/VoronoiMeshMaker</text>
<text text-anchor="middle" x="432.5" y="-74.5" font-family="Helvetica,sans-Serif" font-size="10.00">/Nodes/Nodes3D/Nodes3D.cpp</text>
</a>
</g>
</g>
<!-- Node6&#45;&gt;Node7 -->
<g id="edge7" class="edge">
<title>Node6&#45;&gt;Node7</title>
<path fill="none" stroke="midnightblue" d="M370.95,-128.45C384.64,-118.45 400.87,-106.6 413.23,-97.58"/>
<polygon fill="midnightblue" stroke="midnightblue" points="368.82,-125.67 362.81,-134.4 372.95,-131.32 368.82,-125.67"/>
</g>
</g>
</svg>
