<?xml version="1.0" encoding="UTF-8" standalone="no"?>
<!DOCTYPE svg PUBLIC "-//W3C//DTD SVG 1.1//EN"
 "http://www.w3.org/Graphics/SVG/1.1/DTD/svg11.dtd">
<!-- Generated by graphviz version 2.43.0 (0)
 -->
<!-- Title: src/VoronoiMeshMaker/Shape/Shape2D/Polygon.cpp Pages: 1 -->
<svg width="981pt" height="519pt"
 viewBox="0.00 0.00 981.00 519.00" xmlns="http://www.w3.org/2000/svg" xmlns:xlink="http://www.w3.org/1999/xlink">
<g id="graph0" class="graph" transform="scale(1 1) rotate(0) translate(4 515)">
<title>src/VoronoiMeshMaker/Shape/Shape2D/Polygon.cpp</title>
<!-- Node1 -->
<g id="node1" class="node">
<title>Node1</title>
<g id="a_node1"><a xlink:title=" ">
<polygon fill="#bfbfbf" stroke="black" points="381,-480.5 381,-510.5 539,-510.5 539,-480.5 381,-480.5"/>
<text text-anchor="start" x="389" y="-498.5" font-family="Helvetica,sans-Serif" font-size="10.00">src/VoronoiMeshMaker</text>
<text text-anchor="middle" x="460" y="-487.5" font-family="Helvetica,sans-Serif" font-size="10.00">/Shape/Shape2D/Polygon.cpp</text>
</a>
</g>
</g>
<!-- Node2 -->
<g id="node2" class="node">
<title>Node2</title>
<g id="a_node2"><a xlink:href="Polygon_8h.html" target="_top" xlink:title=" ">
<polygon fill="none" stroke="black" points="309.5,-413.5 309.5,-443.5 452.5,-443.5 452.5,-413.5 309.5,-413.5"/>
<text text-anchor="start" x="317.5" y="-431.5" font-family="Helvetica,sans-Serif" font-size="10.00">VoronoiMeshMaker/Shape</text>
<text text-anchor="middle" x="381" y="-420.5" font-family="Helvetica,sans-Serif" font-size="10.00">/Shape2D/Polygon.h</text>
</a>
</g>
</g>
<!-- Node1&#45;&gt;Node2 -->
<g id="edge1" class="edge">
<title>Node1&#45;&gt;Node2</title>
<path fill="none" stroke="midnightblue" d="M442.86,-480.4C432.09,-471.54 418.02,-459.96 406.02,-450.09"/>
<polygon fill="midnightblue" stroke="midnightblue" points="408.05,-447.23 398.11,-443.58 403.61,-452.63 408.05,-447.23"/>
</g>
<!-- Node19 -->
<g id="node19" class="node">
<title>Node19</title>
<g id="a_node19"><a xlink:href="MakerException_8h.html" target="_top" xlink:title=" ">
<polygon fill="none" stroke="black" points="483.5,-413.5 483.5,-443.5 620.5,-443.5 620.5,-413.5 483.5,-413.5"/>
<text text-anchor="start" x="491.5" y="-431.5" font-family="Helvetica,sans-Serif" font-size="10.00">VoronoiMeshMaker/Error</text>
<text text-anchor="middle" x="552" y="-420.5" font-family="Helvetica,sans-Serif" font-size="10.00">/MakerException.h</text>
</a>
</g>
</g>
<!-- Node1&#45;&gt;Node19 -->
<g id="edge20" class="edge">
<title>Node1&#45;&gt;Node19</title>
<path fill="none" stroke="midnightblue" d="M479.96,-480.4C492.74,-471.37 509.52,-459.51 523.67,-449.52"/>
<polygon fill="midnightblue" stroke="midnightblue" points="525.93,-452.21 532.08,-443.58 521.89,-446.49 525.93,-452.21"/>
</g>
<!-- Node3 -->
<g id="node3" class="node">
<title>Node3</title>
<g id="a_node3"><a xlink:href="Shape2D_8h.html" target="_top" xlink:title="Defines the Shape2D class, which represents 2D geometric shapes.">
<polygon fill="none" stroke="black" points="212.5,-346.5 212.5,-376.5 355.5,-376.5 355.5,-346.5 212.5,-346.5"/>
<text text-anchor="start" x="220.5" y="-364.5" font-family="Helvetica,sans-Serif" font-size="10.00">VoronoiMeshMaker/Shape</text>
<text text-anchor="middle" x="284" y="-353.5" font-family="Helvetica,sans-Serif" font-size="10.00">/Shape2D/Shape2D.h</text>
</a>
</g>
</g>
<!-- Node2&#45;&gt;Node3 -->
<g id="edge2" class="edge">
<title>Node2&#45;&gt;Node3</title>
<path fill="none" stroke="midnightblue" d="M359.95,-413.4C346.35,-404.28 328.46,-392.29 313.45,-382.24"/>
<polygon fill="midnightblue" stroke="midnightblue" points="315.26,-379.24 305.01,-376.58 311.37,-385.05 315.26,-379.24"/>
</g>
<!-- Node4 -->
<g id="node4" class="node">
<title>Node4</title>
<g id="a_node4"><a xlink:href="Shape_8h.html" target="_top" xlink:title="Defines the Shape class, which serves as the abstract base class for all shapes. This class provides ...">
<polygon fill="none" stroke="black" points="123.5,-279.5 123.5,-309.5 266.5,-309.5 266.5,-279.5 123.5,-279.5"/>
<text text-anchor="start" x="131.5" y="-297.5" font-family="Helvetica,sans-Serif" font-size="10.00">VoronoiMeshMaker/Shape</text>
<text text-anchor="middle" x="195" y="-286.5" font-family="Helvetica,sans-Serif" font-size="10.00">/Shape.h</text>
</a>
</g>
</g>
<!-- Node3&#45;&gt;Node4 -->
<g id="edge3" class="edge">
<title>Node3&#45;&gt;Node4</title>
<path fill="none" stroke="midnightblue" d="M264.69,-346.4C252.33,-337.37 236.1,-325.51 222.41,-315.52"/>
<polygon fill="midnightblue" stroke="midnightblue" points="224.41,-312.65 214.27,-309.58 220.29,-318.3 224.41,-312.65"/>
</g>
<!-- Node5 -->
<g id="node5" class="node">
<title>Node5</title>
<g id="a_node5"><a xlink:title=" ">
<polygon fill="none" stroke="#bfbfbf" points="0,-218 0,-237 60,-237 60,-218 0,-218"/>
<text text-anchor="middle" x="30" y="-225" font-family="Helvetica,sans-Serif" font-size="10.00">iostream</text>
</a>
</g>
</g>
<!-- Node4&#45;&gt;Node5 -->
<g id="edge4" class="edge">
<title>Node4&#45;&gt;Node5</title>
<path fill="none" stroke="midnightblue" d="M159.2,-279.4C129.99,-267.89 89.14,-251.8 61.24,-240.81"/>
<polygon fill="midnightblue" stroke="midnightblue" points="62.18,-237.42 51.59,-237.01 59.62,-243.93 62.18,-237.42"/>
</g>
<!-- Node6 -->
<g id="node6" class="node">
<title>Node6</title>
<g id="a_node6"><a xlink:title=" ">
<polygon fill="none" stroke="#bfbfbf" points="96,-11.5 96,-30.5 154,-30.5 154,-11.5 96,-11.5"/>
<text text-anchor="middle" x="125" y="-18.5" font-family="Helvetica,sans-Serif" font-size="10.00">memory</text>
</a>
</g>
</g>
<!-- Node4&#45;&gt;Node6 -->
<g id="edge5" class="edge">
<title>Node4&#45;&gt;Node6</title>
<path fill="none" stroke="midnightblue" d="M179.46,-279.41C158.28,-259.04 121.33,-219.04 107,-176 91.32,-128.9 107.57,-69.73 117.89,-40.33"/>
<polygon fill="midnightblue" stroke="midnightblue" points="121.3,-41.2 121.47,-30.61 114.73,-38.78 121.3,-41.2"/>
</g>
<!-- Node7 -->
<g id="node7" class="node">
<title>Node7</title>
<g id="a_node7"><a xlink:title=" ">
<polygon fill="none" stroke="#bfbfbf" points="116,-151 116,-170 274,-170 274,-151 116,-151"/>
<text text-anchor="middle" x="195" y="-158" font-family="Helvetica,sans-Serif" font-size="10.00">VoronoiMeshMaker/Misc/ID.h</text>
</a>
</g>
</g>
<!-- Node4&#45;&gt;Node7 -->
<g id="edge6" class="edge">
<title>Node4&#45;&gt;Node7</title>
<path fill="none" stroke="midnightblue" d="M195,-279.37C195,-255.5 195,-207.18 195,-180.41"/>
<polygon fill="midnightblue" stroke="midnightblue" points="198.5,-180.1 195,-170.1 191.5,-180.1 198.5,-180.1"/>
</g>
<!-- Node8 -->
<g id="node8" class="node">
<title>Node8</title>
<g id="a_node8"><a xlink:href="GeometricDataHolder_8h.html" target="_top" xlink:title="Defines the GeometricDataHolder class and the DataTraits for handling multiple data types....">
<polygon fill="none" stroke="black" points="240,-212.5 240,-242.5 410,-242.5 410,-212.5 240,-212.5"/>
<text text-anchor="start" x="248" y="-230.5" font-family="Helvetica,sans-Serif" font-size="10.00">VoronoiMeshMaker/Parameters</text>
<text text-anchor="middle" x="325" y="-219.5" font-family="Helvetica,sans-Serif" font-size="10.00">/GeometricDataHolder.h</text>
</a>
</g>
</g>
<!-- Node4&#45;&gt;Node8 -->
<g id="edge7" class="edge">
<title>Node4&#45;&gt;Node8</title>
<path fill="none" stroke="midnightblue" d="M223.21,-279.4C242.12,-269.94 267.22,-257.39 287.77,-247.12"/>
<polygon fill="midnightblue" stroke="midnightblue" points="289.47,-250.18 296.85,-242.58 286.34,-243.92 289.47,-250.18"/>
</g>
<!-- Node8&#45;&gt;Node7 -->
<g id="edge9" class="edge">
<title>Node8&#45;&gt;Node7</title>
<path fill="none" stroke="midnightblue" d="M296.79,-212.4C274.28,-201.14 243,-185.5 221.08,-174.54"/>
<polygon fill="midnightblue" stroke="midnightblue" points="222.52,-171.35 212.01,-170.01 219.39,-177.61 222.52,-171.35"/>
</g>
<!-- Node9 -->
<g id="node9" class="node">
<title>Node9</title>
<g id="a_node9"><a xlink:title=" ">
<polygon fill="none" stroke="#bfbfbf" points="292.5,-151 292.5,-170 357.5,-170 357.5,-151 292.5,-151"/>
<text text-anchor="middle" x="325" y="-158" font-family="Helvetica,sans-Serif" font-size="10.00">execution</text>
</a>
</g>
</g>
<!-- Node8&#45;&gt;Node9 -->
<g id="edge8" class="edge">
<title>Node8&#45;&gt;Node9</title>
<path fill="none" stroke="midnightblue" d="M325,-212.4C325,-203.06 325,-190.71 325,-180.52"/>
<polygon fill="midnightblue" stroke="midnightblue" points="328.5,-180.19 325,-170.19 321.5,-180.19 328.5,-180.19"/>
</g>
<!-- Node10 -->
<g id="node10" class="node">
<title>Node10</title>
<g id="a_node10"><a xlink:href="GeometricDataTraits_8h.html" target="_top" xlink:title="Defines the GeometricDataTraits structure used for type identification and operations on various data...">
<polygon fill="none" stroke="black" points="376,-145.5 376,-175.5 546,-175.5 546,-145.5 376,-145.5"/>
<text text-anchor="start" x="384" y="-163.5" font-family="Helvetica,sans-Serif" font-size="10.00">VoronoiMeshMaker/Parameters</text>
<text text-anchor="middle" x="461" y="-152.5" font-family="Helvetica,sans-Serif" font-size="10.00">/GeometricDataTraits.h</text>
</a>
</g>
</g>
<!-- Node8&#45;&gt;Node10 -->
<g id="edge10" class="edge">
<title>Node8&#45;&gt;Node10</title>
<path fill="none" stroke="midnightblue" d="M354.51,-212.4C374.38,-202.9 400.79,-190.28 422.34,-179.98"/>
<polygon fill="midnightblue" stroke="midnightblue" points="424.03,-183.05 431.55,-175.58 421.02,-176.73 424.03,-183.05"/>
</g>
<!-- Node18 -->
<g id="node18" class="node">
<title>Node18</title>
<g id="a_node18"><a xlink:href="GeometricDataHolder_8tpp.html" target="_top" xlink:title=" ">
<polygon fill="none" stroke="black" points="564,-145.5 564,-175.5 734,-175.5 734,-145.5 564,-145.5"/>
<text text-anchor="start" x="572" y="-163.5" font-family="Helvetica,sans-Serif" font-size="10.00">VoronoiMeshMaker/Parameters</text>
<text text-anchor="middle" x="649" y="-152.5" font-family="Helvetica,sans-Serif" font-size="10.00">/GeometricDataHolder.tpp</text>
</a>
</g>
</g>
<!-- Node8&#45;&gt;Node18 -->
<g id="edge19" class="edge">
<title>Node8&#45;&gt;Node18</title>
<path fill="none" stroke="midnightblue" d="M394.9,-212.48C446.02,-202.22 515.46,-188.29 568.83,-177.58"/>
<polygon fill="midnightblue" stroke="midnightblue" points="569.83,-180.95 578.94,-175.55 568.45,-174.09 569.83,-180.95"/>
</g>
<!-- Node11 -->
<g id="node11" class="node">
<title>Node11</title>
<g id="a_node11"><a xlink:href="type_8h.html" target="_top" xlink:title="Defines common geometric and numeric types used in the VoronoiMeshMaker library.">
<polygon fill="none" stroke="black" points="393,-78.5 393,-108.5 529,-108.5 529,-78.5 393,-78.5"/>
<text text-anchor="start" x="401" y="-96.5" font-family="Helvetica,sans-Serif" font-size="10.00">VoronoiMeshMaker/Misc</text>
<text text-anchor="middle" x="461" y="-85.5" font-family="Helvetica,sans-Serif" font-size="10.00">/type.h</text>
</a>
</g>
</g>
<!-- Node10&#45;&gt;Node11 -->
<g id="edge11" class="edge">
<title>Node10&#45;&gt;Node11</title>
<path fill="none" stroke="midnightblue" d="M461,-145.4C461,-137.64 461,-127.81 461,-118.86"/>
<polygon fill="midnightblue" stroke="midnightblue" points="464.5,-118.58 461,-108.58 457.5,-118.58 464.5,-118.58"/>
</g>
<!-- Node11&#45;&gt;Node6 -->
<g id="edge13" class="edge">
<title>Node11&#45;&gt;Node6</title>
<path fill="none" stroke="midnightblue" d="M394.22,-78.49C325.39,-64.05 220.43,-42.02 164.06,-30.19"/>
<polygon fill="midnightblue" stroke="midnightblue" points="164.62,-26.74 154.11,-28.11 163.18,-33.59 164.62,-26.74"/>
</g>
<!-- Node12 -->
<g id="node12" class="node">
<title>Node12</title>
<g id="a_node12"><a xlink:title=" ">
<polygon fill="none" stroke="#bfbfbf" points="245,-11.5 245,-30.5 277,-30.5 277,-11.5 245,-11.5"/>
<text text-anchor="middle" x="261" y="-18.5" font-family="Helvetica,sans-Serif" font-size="10.00">list</text>
</a>
</g>
</g>
<!-- Node11&#45;&gt;Node12 -->
<g id="edge12" class="edge">
<title>Node11&#45;&gt;Node12</title>
<path fill="none" stroke="midnightblue" d="M393,-79.46C359.58,-71.43 319.41,-59.3 286,-42 283.32,-40.61 280.64,-38.91 278.1,-37.09"/>
<polygon fill="midnightblue" stroke="midnightblue" points="280.12,-34.23 270.12,-30.74 275.77,-39.7 280.12,-34.23"/>
</g>
<!-- Node13 -->
<g id="node13" class="node">
<title>Node13</title>
<g id="a_node13"><a xlink:title=" ">
<polygon fill="none" stroke="#bfbfbf" points="295.5,-11.5 295.5,-30.5 342.5,-30.5 342.5,-11.5 295.5,-11.5"/>
<text text-anchor="middle" x="319" y="-18.5" font-family="Helvetica,sans-Serif" font-size="10.00">vector</text>
</a>
</g>
</g>
<!-- Node11&#45;&gt;Node13 -->
<g id="edge14" class="edge">
<title>Node11&#45;&gt;Node13</title>
<path fill="none" stroke="midnightblue" d="M427.24,-78.34C405.19,-68.77 375.97,-55.46 351,-42 347.57,-40.15 344,-38.08 340.55,-35.99"/>
<polygon fill="midnightblue" stroke="midnightblue" points="342.19,-32.89 331.85,-30.56 338.48,-38.82 342.19,-32.89"/>
</g>
<!-- Node14 -->
<g id="node14" class="node">
<title>Node14</title>
<g id="a_node14"><a xlink:title=" ">
<polygon fill="none" stroke="#bfbfbf" points="360.5,-0.5 360.5,-41.5 489.5,-41.5 489.5,-0.5 360.5,-0.5"/>
<text text-anchor="start" x="368.5" y="-29.5" font-family="Helvetica,sans-Serif" font-size="10.00">CGAL/Exact_predicates</text>
<text text-anchor="start" x="368.5" y="-18.5" font-family="Helvetica,sans-Serif" font-size="10.00">_inexact_constructions</text>
<text text-anchor="middle" x="425" y="-7.5" font-family="Helvetica,sans-Serif" font-size="10.00">_kernel.h</text>
</a>
</g>
</g>
<!-- Node11&#45;&gt;Node14 -->
<g id="edge15" class="edge">
<title>Node11&#45;&gt;Node14</title>
<path fill="none" stroke="midnightblue" d="M453.71,-78.23C449.68,-70.33 444.51,-60.21 439.67,-50.74"/>
<polygon fill="midnightblue" stroke="midnightblue" points="442.67,-48.9 435,-41.59 436.43,-52.09 442.67,-48.9"/>
</g>
<!-- Node15 -->
<g id="node15" class="node">
<title>Node15</title>
<g id="a_node15"><a xlink:title=" ">
<polygon fill="none" stroke="#bfbfbf" points="507.5,-11.5 507.5,-30.5 612.5,-30.5 612.5,-11.5 507.5,-11.5"/>
<text text-anchor="middle" x="560" y="-18.5" font-family="Helvetica,sans-Serif" font-size="10.00">CGAL/Polygon_2.h</text>
</a>
</g>
</g>
<!-- Node11&#45;&gt;Node15 -->
<g id="edge16" class="edge">
<title>Node11&#45;&gt;Node15</title>
<path fill="none" stroke="midnightblue" d="M481.03,-78.23C498.07,-66.1 522.42,-48.76 539.56,-36.55"/>
<polygon fill="midnightblue" stroke="midnightblue" points="541.68,-39.34 547.8,-30.69 537.62,-33.64 541.68,-39.34"/>
</g>
<!-- Node16 -->
<g id="node16" class="node">
<title>Node16</title>
<g id="a_node16"><a xlink:title=" ">
<polygon fill="none" stroke="#bfbfbf" points="630.5,-11.5 630.5,-30.5 751.5,-30.5 751.5,-11.5 630.5,-11.5"/>
<text text-anchor="middle" x="691" y="-18.5" font-family="Helvetica,sans-Serif" font-size="10.00">CGAL/Polyhedron_3.h</text>
</a>
</g>
</g>
<!-- Node11&#45;&gt;Node16 -->
<g id="edge17" class="edge">
<title>Node11&#45;&gt;Node16</title>
<path fill="none" stroke="midnightblue" d="M506.72,-78.49C549.71,-65.31 613.3,-45.82 653.42,-33.52"/>
<polygon fill="midnightblue" stroke="midnightblue" points="654.55,-36.83 663.09,-30.55 652.5,-30.14 654.55,-36.83"/>
</g>
<!-- Node17 -->
<g id="node17" class="node">
<title>Node17</title>
<g id="a_node17"><a xlink:href="namespace_8h.html" target="_top" xlink:title=" ">
<polygon fill="none" stroke="black" points="770,-6 770,-36 906,-36 906,-6 770,-6"/>
<text text-anchor="start" x="778" y="-24" font-family="Helvetica,sans-Serif" font-size="10.00">VoronoiMeshMaker/Misc</text>
<text text-anchor="middle" x="838" y="-13" font-family="Helvetica,sans-Serif" font-size="10.00">/namespace.h</text>
</a>
</g>
</g>
<!-- Node11&#45;&gt;Node17 -->
<g id="edge18" class="edge">
<title>Node11&#45;&gt;Node17</title>
<path fill="none" stroke="midnightblue" d="M529.24,-82.75C590.25,-73.62 681.97,-58.88 761,-42 766.02,-40.93 771.21,-39.74 776.4,-38.51"/>
<polygon fill="midnightblue" stroke="midnightblue" points="777.49,-41.84 786.37,-36.07 775.83,-35.04 777.49,-41.84"/>
</g>
<!-- Node20 -->
<g id="node20" class="node">
<title>Node20</title>
<g id="a_node20"><a xlink:title=" ">
<polygon fill="none" stroke="#bfbfbf" points="418,-352 418,-371 462,-371 462,-352 418,-352"/>
<text text-anchor="middle" x="440" y="-359" font-family="Helvetica,sans-Serif" font-size="10.00">string</text>
</a>
</g>
</g>
<!-- Node19&#45;&gt;Node20 -->
<g id="edge21" class="edge">
<title>Node19&#45;&gt;Node20</title>
<path fill="none" stroke="midnightblue" d="M527.7,-413.4C508.65,-402.34 482.32,-387.06 463.49,-376.13"/>
<polygon fill="midnightblue" stroke="midnightblue" points="465.06,-373 454.66,-371.01 461.55,-379.05 465.06,-373"/>
</g>
<!-- Node21 -->
<g id="node21" class="node">
<title>Node21</title>
<g id="a_node21"><a xlink:title=" ">
<polygon fill="none" stroke="#bfbfbf" points="480.5,-352 480.5,-371 545.5,-371 545.5,-352 480.5,-352"/>
<text text-anchor="middle" x="513" y="-359" font-family="Helvetica,sans-Serif" font-size="10.00">exception</text>
</a>
</g>
</g>
<!-- Node19&#45;&gt;Node21 -->
<g id="edge22" class="edge">
<title>Node19&#45;&gt;Node21</title>
<path fill="none" stroke="midnightblue" d="M543.54,-413.4C537.64,-403.56 529.73,-390.38 523.44,-379.89"/>
<polygon fill="midnightblue" stroke="midnightblue" points="526.36,-377.97 518.22,-371.19 520.36,-381.57 526.36,-377.97"/>
</g>
<!-- Node22 -->
<g id="node22" class="node">
<title>Node22</title>
<g id="a_node22"><a xlink:title=" ">
<polygon fill="none" stroke="#bfbfbf" points="563.5,-352 563.5,-371 620.5,-371 620.5,-352 563.5,-352"/>
<text text-anchor="middle" x="592" y="-359" font-family="Helvetica,sans-Serif" font-size="10.00">ostream</text>
</a>
</g>
</g>
<!-- Node19&#45;&gt;Node22 -->
<g id="edge23" class="edge">
<title>Node19&#45;&gt;Node22</title>
<path fill="none" stroke="midnightblue" d="M560.68,-413.4C566.73,-403.56 574.84,-390.38 581.3,-379.89"/>
<polygon fill="midnightblue" stroke="midnightblue" points="584.39,-381.55 586.65,-371.19 578.43,-377.88 584.39,-381.55"/>
</g>
<!-- Node23 -->
<g id="node23" class="node">
<title>Node23</title>
<g id="a_node23"><a xlink:href="id_8h.html" target="_top" xlink:title=" ">
<polygon fill="none" stroke="black" points="638.5,-352 638.5,-371 795.5,-371 795.5,-352 638.5,-352"/>
<text text-anchor="middle" x="717" y="-359" font-family="Helvetica,sans-Serif" font-size="10.00">VoronoiMeshMaker/Misc/id.h</text>
</a>
</g>
</g>
<!-- Node19&#45;&gt;Node23 -->
<g id="edge24" class="edge">
<title>Node19&#45;&gt;Node23</title>
<path fill="none" stroke="midnightblue" d="M587.8,-413.4C617.01,-401.89 657.86,-385.8 685.76,-374.81"/>
<polygon fill="midnightblue" stroke="midnightblue" points="687.38,-377.93 695.41,-371.01 684.82,-371.42 687.38,-377.93"/>
</g>
<!-- Node26 -->
<g id="node26" class="node">
<title>Node26</title>
<g id="a_node26"><a xlink:href="sourceinfo_8h.html" target="_top" xlink:title="Provides information about the source of an error or event in a function.">
<polygon fill="none" stroke="black" points="814,-346.5 814,-376.5 950,-376.5 950,-346.5 814,-346.5"/>
<text text-anchor="start" x="822" y="-364.5" font-family="Helvetica,sans-Serif" font-size="10.00">VoronoiMeshMaker/Misc</text>
<text text-anchor="middle" x="882" y="-353.5" font-family="Helvetica,sans-Serif" font-size="10.00">/sourceinfo.h</text>
</a>
</g>
</g>
<!-- Node19&#45;&gt;Node26 -->
<g id="edge28" class="edge">
<title>Node19&#45;&gt;Node26</title>
<path fill="none" stroke="midnightblue" d="M620.78,-413.95C674.24,-403.42 748.41,-388.81 804.06,-377.85"/>
<polygon fill="midnightblue" stroke="midnightblue" points="804.74,-381.28 813.88,-375.92 803.39,-374.42 804.74,-381.28"/>
</g>
<!-- Node24 -->
<g id="node24" class="node">
<title>Node24</title>
<g id="a_node24"><a xlink:title=" ">
<polygon fill="none" stroke="#bfbfbf" points="745.5,-285 745.5,-304 818.5,-304 818.5,-285 745.5,-285"/>
<text text-anchor="middle" x="782" y="-292" font-family="Helvetica,sans-Serif" font-size="10.00">string_view</text>
</a>
</g>
</g>
<!-- Node23&#45;&gt;Node24 -->
<g id="edge25" class="edge">
<title>Node23&#45;&gt;Node24</title>
<path fill="none" stroke="midnightblue" d="M725.77,-351.73C736.1,-341.4 753.46,-324.04 766.17,-311.33"/>
<polygon fill="midnightblue" stroke="midnightblue" points="768.78,-313.67 773.37,-304.13 763.83,-308.72 768.78,-313.67"/>
</g>
<!-- Node25 -->
<g id="node25" class="node">
<title>Node25</title>
<g id="a_node25"><a xlink:href="configure_8h.html" target="_top" xlink:title="Defines common constants used across the VoronoiMeshMaker library.">
<polygon fill="none" stroke="black" points="671,-212.5 671,-242.5 807,-242.5 807,-212.5 671,-212.5"/>
<text text-anchor="start" x="679" y="-230.5" font-family="Helvetica,sans-Serif" font-size="10.00">VoronoiMeshMaker/Misc</text>
<text text-anchor="middle" x="739" y="-219.5" font-family="Helvetica,sans-Serif" font-size="10.00">/configure.h</text>
</a>
</g>
</g>
<!-- Node23&#45;&gt;Node25 -->
<g id="edge26" class="edge">
<title>Node23&#45;&gt;Node25</title>
<path fill="none" stroke="midnightblue" d="M718.44,-351.84C721.75,-332.02 729.96,-282.77 734.94,-252.84"/>
<polygon fill="midnightblue" stroke="midnightblue" points="738.43,-253.22 736.62,-242.78 731.52,-252.07 738.43,-253.22"/>
</g>
<!-- Node25&#45;&gt;Node11 -->
<g id="edge27" class="edge">
<title>Node25&#45;&gt;Node11</title>
<path fill="none" stroke="midnightblue" d="M744.95,-212.28C751.37,-194.41 758.73,-163.8 743,-145 717.47,-114.49 613.72,-102.39 539.49,-97.61"/>
<polygon fill="midnightblue" stroke="midnightblue" points="539.41,-94.1 529.22,-96.98 538.99,-101.08 539.41,-94.1"/>
</g>
<!-- Node26&#45;&gt;Node24 -->
<g id="edge29" class="edge">
<title>Node26&#45;&gt;Node24</title>
<path fill="none" stroke="midnightblue" d="M860.3,-346.4C843.53,-335.5 820.43,-320.48 803.67,-309.58"/>
<polygon fill="midnightblue" stroke="midnightblue" points="805.38,-306.52 795.09,-304.01 801.56,-312.39 805.38,-306.52"/>
</g>
<!-- Node27 -->
<g id="node27" class="node">
<title>Node27</title>
<g id="a_node27"><a xlink:title=" ">
<polygon fill="none" stroke="#bfbfbf" points="837,-279.5 837,-309.5 973,-309.5 973,-279.5 837,-279.5"/>
<text text-anchor="start" x="845" y="-297.5" font-family="Helvetica,sans-Serif" font-size="10.00">VoronoiMeshMaker/Misc</text>
<text text-anchor="middle" x="905" y="-286.5" font-family="Helvetica,sans-Serif" font-size="10.00">/Misc.h</text>
</a>
</g>
</g>
<!-- Node26&#45;&gt;Node27 -->
<g id="edge30" class="edge">
<title>Node26&#45;&gt;Node27</title>
<path fill="none" stroke="midnightblue" d="M886.99,-346.4C889.79,-338.47 893.37,-328.38 896.59,-319.27"/>
<polygon fill="midnightblue" stroke="midnightblue" points="899.98,-320.17 900.02,-309.58 893.38,-317.84 899.98,-320.17"/>
</g>
</g>
</svg>
