<?xml version="1.0" encoding="UTF-8" standalone="no"?>
<!DOCTYPE svg PUBLIC "-//W3C//DTD SVG 1.1//EN"
 "http://www.w3.org/Graphics/SVG/1.1/DTD/svg11.dtd">
<!-- Generated by graphviz version 2.43.0 (0)
 -->
<!-- Title: src/VoronoiMeshMaker/Shape/Shape2D/Rectangle.cpp Pages: 1 -->
<svg width="1357pt" height="519pt"
 viewBox="0.00 0.00 1357.00 519.00" xmlns="http://www.w3.org/2000/svg" xmlns:xlink="http://www.w3.org/1999/xlink">
<g id="graph0" class="graph" transform="scale(1 1) rotate(0) translate(4 515)">
<title>src/VoronoiMeshMaker/Shape/Shape2D/Rectangle.cpp</title>
<!-- Node1 -->
<g id="node1" class="node">
<title>Node1</title>
<g id="a_node1"><a xlink:title=" ">
<polygon fill="#bfbfbf" stroke="black" points="215,-480.5 215,-510.5 383,-510.5 383,-480.5 215,-480.5"/>
<text text-anchor="start" x="223" y="-498.5" font-family="Helvetica,sans-Serif" font-size="10.00">src/VoronoiMeshMaker</text>
<text text-anchor="middle" x="299" y="-487.5" font-family="Helvetica,sans-Serif" font-size="10.00">/Shape/Shape2D/Rectangle.cpp</text>
</a>
</g>
</g>
<!-- Node2 -->
<g id="node2" class="node">
<title>Node2</title>
<g id="a_node2"><a xlink:title=" ">
<polygon fill="none" stroke="#bfbfbf" points="0,-218 0,-237 60,-237 60,-218 0,-218"/>
<text text-anchor="middle" x="30" y="-225" font-family="Helvetica,sans-Serif" font-size="10.00">iostream</text>
</a>
</g>
</g>
<!-- Node1&#45;&gt;Node2 -->
<g id="edge1" class="edge">
<title>Node1&#45;&gt;Node2</title>
<path fill="none" stroke="midnightblue" d="M214.87,-481.57C188,-474.13 159.64,-462.42 138,-444 74.36,-389.84 44.29,-289.05 34.14,-247.33"/>
<polygon fill="midnightblue" stroke="midnightblue" points="37.51,-246.38 31.84,-237.43 30.69,-247.96 37.51,-246.38"/>
</g>
<!-- Node3 -->
<g id="node3" class="node">
<title>Node3</title>
<g id="a_node3"><a xlink:href="Rectangle_8h.html" target="_top" xlink:title=" ">
<polygon fill="none" stroke="black" points="147.5,-413.5 147.5,-443.5 290.5,-443.5 290.5,-413.5 147.5,-413.5"/>
<text text-anchor="start" x="155.5" y="-431.5" font-family="Helvetica,sans-Serif" font-size="10.00">VoronoiMeshMaker/Shape</text>
<text text-anchor="middle" x="219" y="-420.5" font-family="Helvetica,sans-Serif" font-size="10.00">/Shape2D/Rectangle.h</text>
</a>
</g>
</g>
<!-- Node1&#45;&gt;Node3 -->
<g id="edge2" class="edge">
<title>Node1&#45;&gt;Node3</title>
<path fill="none" stroke="midnightblue" d="M281.64,-480.4C270.74,-471.54 256.49,-459.96 244.34,-450.09"/>
<polygon fill="midnightblue" stroke="midnightblue" points="246.29,-447.17 236.32,-443.58 241.88,-452.6 246.29,-447.17"/>
</g>
<!-- Node19 -->
<g id="node19" class="node">
<title>Node19</title>
<g id="a_node19"><a xlink:href="MakerException_8h.html" target="_top" xlink:title=" ">
<polygon fill="none" stroke="black" points="600.5,-413.5 600.5,-443.5 737.5,-443.5 737.5,-413.5 600.5,-413.5"/>
<text text-anchor="start" x="608.5" y="-431.5" font-family="Helvetica,sans-Serif" font-size="10.00">VoronoiMeshMaker/Error</text>
<text text-anchor="middle" x="669" y="-420.5" font-family="Helvetica,sans-Serif" font-size="10.00">/MakerException.h</text>
</a>
</g>
</g>
<!-- Node1&#45;&gt;Node19 -->
<g id="edge21" class="edge">
<title>Node1&#45;&gt;Node19</title>
<path fill="none" stroke="midnightblue" d="M378.83,-480.48C441.41,-469.48 528.05,-454.26 590.33,-443.32"/>
<polygon fill="midnightblue" stroke="midnightblue" points="591.25,-446.71 600.5,-441.53 590.04,-439.82 591.25,-446.71"/>
</g>
<!-- Node28 -->
<g id="node28" class="node">
<title>Node28</title>
<g id="a_node28"><a xlink:href="ShapeFactory_8h.html" target="_top" xlink:title=" ">
<polygon fill="none" stroke="black" points="295.5,-346.5 295.5,-376.5 438.5,-376.5 438.5,-346.5 295.5,-346.5"/>
<text text-anchor="start" x="303.5" y="-364.5" font-family="Helvetica,sans-Serif" font-size="10.00">VoronoiMeshMaker/Shape</text>
<text text-anchor="middle" x="367" y="-353.5" font-family="Helvetica,sans-Serif" font-size="10.00">/ShapeFactory.h</text>
</a>
</g>
</g>
<!-- Node1&#45;&gt;Node28 -->
<g id="edge32" class="edge">
<title>Node1&#45;&gt;Node28</title>
<path fill="none" stroke="midnightblue" d="M306.28,-480.37C317.93,-457.75 340.91,-413.14 355.02,-385.76"/>
<polygon fill="midnightblue" stroke="midnightblue" points="358.31,-387.02 359.78,-376.52 352.08,-383.81 358.31,-387.02"/>
</g>
<!-- Node4 -->
<g id="node4" class="node">
<title>Node4</title>
<g id="a_node4"><a xlink:href="Shape2D_8h.html" target="_top" xlink:title="Defines the Shape2D class, which represents 2D geometric shapes.">
<polygon fill="none" stroke="black" points="129.5,-346.5 129.5,-376.5 272.5,-376.5 272.5,-346.5 129.5,-346.5"/>
<text text-anchor="start" x="137.5" y="-364.5" font-family="Helvetica,sans-Serif" font-size="10.00">VoronoiMeshMaker/Shape</text>
<text text-anchor="middle" x="201" y="-353.5" font-family="Helvetica,sans-Serif" font-size="10.00">/Shape2D/Shape2D.h</text>
</a>
</g>
</g>
<!-- Node3&#45;&gt;Node4 -->
<g id="edge3" class="edge">
<title>Node3&#45;&gt;Node4</title>
<path fill="none" stroke="midnightblue" d="M215.09,-413.4C212.9,-405.47 210.1,-395.38 207.58,-386.27"/>
<polygon fill="midnightblue" stroke="midnightblue" points="210.94,-385.28 204.9,-376.58 204.19,-387.15 210.94,-385.28"/>
</g>
<!-- Node5 -->
<g id="node5" class="node">
<title>Node5</title>
<g id="a_node5"><a xlink:href="Shape_8h.html" target="_top" xlink:title="Defines the Shape class, which serves as the abstract base class for all shapes. This class provides ...">
<polygon fill="none" stroke="black" points="123.5,-279.5 123.5,-309.5 266.5,-309.5 266.5,-279.5 123.5,-279.5"/>
<text text-anchor="start" x="131.5" y="-297.5" font-family="Helvetica,sans-Serif" font-size="10.00">VoronoiMeshMaker/Shape</text>
<text text-anchor="middle" x="195" y="-286.5" font-family="Helvetica,sans-Serif" font-size="10.00">/Shape.h</text>
</a>
</g>
</g>
<!-- Node4&#45;&gt;Node5 -->
<g id="edge4" class="edge">
<title>Node4&#45;&gt;Node5</title>
<path fill="none" stroke="midnightblue" d="M199.7,-346.4C198.97,-338.56 198.05,-328.6 197.22,-319.57"/>
<polygon fill="midnightblue" stroke="midnightblue" points="200.7,-319.21 196.3,-309.58 193.73,-319.86 200.7,-319.21"/>
</g>
<!-- Node5&#45;&gt;Node2 -->
<g id="edge5" class="edge">
<title>Node5&#45;&gt;Node2</title>
<path fill="none" stroke="midnightblue" d="M159.2,-279.4C129.99,-267.89 89.14,-251.8 61.24,-240.81"/>
<polygon fill="midnightblue" stroke="midnightblue" points="62.18,-237.42 51.59,-237.01 59.62,-243.93 62.18,-237.42"/>
</g>
<!-- Node6 -->
<g id="node6" class="node">
<title>Node6</title>
<g id="a_node6"><a xlink:title=" ">
<polygon fill="none" stroke="#bfbfbf" points="612,-11.5 612,-30.5 670,-30.5 670,-11.5 612,-11.5"/>
<text text-anchor="middle" x="641" y="-18.5" font-family="Helvetica,sans-Serif" font-size="10.00">memory</text>
</a>
</g>
</g>
<!-- Node5&#45;&gt;Node6 -->
<g id="edge6" class="edge">
<title>Node5&#45;&gt;Node6</title>
<path fill="none" stroke="midnightblue" d="M175.37,-279.38C139.64,-252 70.89,-190.37 107,-145 169.2,-66.85 488.62,-34.15 601.46,-24.92"/>
<polygon fill="midnightblue" stroke="midnightblue" points="602.03,-28.38 611.72,-24.1 601.47,-21.41 602.03,-28.38"/>
</g>
<!-- Node7 -->
<g id="node7" class="node">
<title>Node7</title>
<g id="a_node7"><a xlink:title=" ">
<polygon fill="none" stroke="#bfbfbf" points="116,-151 116,-170 274,-170 274,-151 116,-151"/>
<text text-anchor="middle" x="195" y="-158" font-family="Helvetica,sans-Serif" font-size="10.00">VoronoiMeshMaker/Misc/ID.h</text>
</a>
</g>
</g>
<!-- Node5&#45;&gt;Node7 -->
<g id="edge7" class="edge">
<title>Node5&#45;&gt;Node7</title>
<path fill="none" stroke="midnightblue" d="M195,-279.37C195,-255.5 195,-207.18 195,-180.41"/>
<polygon fill="midnightblue" stroke="midnightblue" points="198.5,-180.1 195,-170.1 191.5,-180.1 198.5,-180.1"/>
</g>
<!-- Node8 -->
<g id="node8" class="node">
<title>Node8</title>
<g id="a_node8"><a xlink:href="GeometricDataHolder_8h.html" target="_top" xlink:title="Defines the GeometricDataHolder class and the DataTraits for handling multiple data types....">
<polygon fill="none" stroke="black" points="292,-212.5 292,-242.5 462,-242.5 462,-212.5 292,-212.5"/>
<text text-anchor="start" x="300" y="-230.5" font-family="Helvetica,sans-Serif" font-size="10.00">VoronoiMeshMaker/Parameters</text>
<text text-anchor="middle" x="377" y="-219.5" font-family="Helvetica,sans-Serif" font-size="10.00">/GeometricDataHolder.h</text>
</a>
</g>
</g>
<!-- Node5&#45;&gt;Node8 -->
<g id="edge8" class="edge">
<title>Node5&#45;&gt;Node8</title>
<path fill="none" stroke="midnightblue" d="M234.49,-279.4C261.92,-269.6 298.65,-256.48 327.96,-246.02"/>
<polygon fill="midnightblue" stroke="midnightblue" points="329.35,-249.24 337.59,-242.58 326.99,-242.64 329.35,-249.24"/>
</g>
<!-- Node8&#45;&gt;Node7 -->
<g id="edge10" class="edge">
<title>Node8&#45;&gt;Node7</title>
<path fill="none" stroke="midnightblue" d="M337.51,-212.4C304.87,-200.74 259.04,-184.37 228.25,-173.38"/>
<polygon fill="midnightblue" stroke="midnightblue" points="229.41,-170.07 218.82,-170.01 227.06,-176.67 229.41,-170.07"/>
</g>
<!-- Node9 -->
<g id="node9" class="node">
<title>Node9</title>
<g id="a_node9"><a xlink:title=" ">
<polygon fill="none" stroke="#bfbfbf" points="668.5,-151 668.5,-170 733.5,-170 733.5,-151 668.5,-151"/>
<text text-anchor="middle" x="701" y="-158" font-family="Helvetica,sans-Serif" font-size="10.00">execution</text>
</a>
</g>
</g>
<!-- Node8&#45;&gt;Node9 -->
<g id="edge9" class="edge">
<title>Node8&#45;&gt;Node9</title>
<path fill="none" stroke="midnightblue" d="M462.27,-214.76C518.6,-206.14 593.78,-192.99 659,-176 662.04,-175.21 665.17,-174.3 668.29,-173.34"/>
<polygon fill="midnightblue" stroke="midnightblue" points="669.68,-176.57 678.09,-170.13 667.5,-169.92 669.68,-176.57"/>
</g>
<!-- Node10 -->
<g id="node10" class="node">
<title>Node10</title>
<g id="a_node10"><a xlink:href="GeometricDataTraits_8h.html" target="_top" xlink:title="Defines the GeometricDataTraits structure used for type identification and operations on various data...">
<polygon fill="none" stroke="black" points="480,-145.5 480,-175.5 650,-175.5 650,-145.5 480,-145.5"/>
<text text-anchor="start" x="488" y="-163.5" font-family="Helvetica,sans-Serif" font-size="10.00">VoronoiMeshMaker/Parameters</text>
<text text-anchor="middle" x="565" y="-152.5" font-family="Helvetica,sans-Serif" font-size="10.00">/GeometricDataTraits.h</text>
</a>
</g>
</g>
<!-- Node8&#45;&gt;Node10 -->
<g id="edge11" class="edge">
<title>Node8&#45;&gt;Node10</title>
<path fill="none" stroke="midnightblue" d="M417.79,-212.4C446.25,-202.56 484.4,-189.37 514.73,-178.88"/>
<polygon fill="midnightblue" stroke="midnightblue" points="515.98,-182.15 524.29,-175.58 513.69,-175.54 515.98,-182.15"/>
</g>
<!-- Node18 -->
<g id="node18" class="node">
<title>Node18</title>
<g id="a_node18"><a xlink:href="GeometricDataHolder_8tpp.html" target="_top" xlink:title=" ">
<polygon fill="none" stroke="black" points="292,-145.5 292,-175.5 462,-175.5 462,-145.5 292,-145.5"/>
<text text-anchor="start" x="300" y="-163.5" font-family="Helvetica,sans-Serif" font-size="10.00">VoronoiMeshMaker/Parameters</text>
<text text-anchor="middle" x="377" y="-152.5" font-family="Helvetica,sans-Serif" font-size="10.00">/GeometricDataHolder.tpp</text>
</a>
</g>
</g>
<!-- Node8&#45;&gt;Node18 -->
<g id="edge20" class="edge">
<title>Node8&#45;&gt;Node18</title>
<path fill="none" stroke="midnightblue" d="M377,-212.4C377,-204.64 377,-194.81 377,-185.86"/>
<polygon fill="midnightblue" stroke="midnightblue" points="380.5,-185.58 377,-175.58 373.5,-185.58 380.5,-185.58"/>
</g>
<!-- Node11 -->
<g id="node11" class="node">
<title>Node11</title>
<g id="a_node11"><a xlink:href="type_8h.html" target="_top" xlink:title="Defines common geometric and numeric types used in the VoronoiMeshMaker library.">
<polygon fill="none" stroke="black" points="800,-78.5 800,-108.5 936,-108.5 936,-78.5 800,-78.5"/>
<text text-anchor="start" x="808" y="-96.5" font-family="Helvetica,sans-Serif" font-size="10.00">VoronoiMeshMaker/Misc</text>
<text text-anchor="middle" x="868" y="-85.5" font-family="Helvetica,sans-Serif" font-size="10.00">/type.h</text>
</a>
</g>
</g>
<!-- Node10&#45;&gt;Node11 -->
<g id="edge12" class="edge">
<title>Node10&#45;&gt;Node11</title>
<path fill="none" stroke="midnightblue" d="M630.37,-145.48C677.98,-135.26 742.58,-121.41 792.41,-110.72"/>
<polygon fill="midnightblue" stroke="midnightblue" points="793.44,-114.07 802.48,-108.55 791.97,-107.23 793.44,-114.07"/>
</g>
<!-- Node11&#45;&gt;Node6 -->
<g id="edge14" class="edge">
<title>Node11&#45;&gt;Node6</title>
<path fill="none" stroke="midnightblue" d="M800.8,-78.41C764.16,-69.77 718.38,-57.4 679,-42 674.22,-40.13 669.26,-37.82 664.56,-35.44"/>
<polygon fill="midnightblue" stroke="midnightblue" points="665.91,-32.19 655.44,-30.58 662.62,-38.37 665.91,-32.19"/>
</g>
<!-- Node12 -->
<g id="node12" class="node">
<title>Node12</title>
<g id="a_node12"><a xlink:title=" ">
<polygon fill="none" stroke="#bfbfbf" points="688,-11.5 688,-30.5 720,-30.5 720,-11.5 688,-11.5"/>
<text text-anchor="middle" x="704" y="-18.5" font-family="Helvetica,sans-Serif" font-size="10.00">list</text>
</a>
</g>
</g>
<!-- Node11&#45;&gt;Node12 -->
<g id="edge13" class="edge">
<title>Node11&#45;&gt;Node12</title>
<path fill="none" stroke="midnightblue" d="M818.52,-78.44C791.49,-69.78 757.94,-57.38 730,-42 727.2,-40.46 724.37,-38.63 721.67,-36.71"/>
<polygon fill="midnightblue" stroke="midnightblue" points="723.69,-33.85 713.63,-30.54 719.43,-39.41 723.69,-33.85"/>
</g>
<!-- Node13 -->
<g id="node13" class="node">
<title>Node13</title>
<g id="a_node13"><a xlink:title=" ">
<polygon fill="none" stroke="#bfbfbf" points="738.5,-11.5 738.5,-30.5 785.5,-30.5 785.5,-11.5 738.5,-11.5"/>
<text text-anchor="middle" x="762" y="-18.5" font-family="Helvetica,sans-Serif" font-size="10.00">vector</text>
</a>
</g>
</g>
<!-- Node11&#45;&gt;Node13 -->
<g id="edge15" class="edge">
<title>Node11&#45;&gt;Node13</title>
<path fill="none" stroke="midnightblue" d="M846.8,-78.4C828.32,-66.11 801.65,-48.37 783.17,-36.08"/>
<polygon fill="midnightblue" stroke="midnightblue" points="785.1,-33.16 774.83,-30.53 781.22,-38.99 785.1,-33.16"/>
</g>
<!-- Node14 -->
<g id="node14" class="node">
<title>Node14</title>
<g id="a_node14"><a xlink:title=" ">
<polygon fill="none" stroke="#bfbfbf" points="803.5,-0.5 803.5,-41.5 932.5,-41.5 932.5,-0.5 803.5,-0.5"/>
<text text-anchor="start" x="811.5" y="-29.5" font-family="Helvetica,sans-Serif" font-size="10.00">CGAL/Exact_predicates</text>
<text text-anchor="start" x="811.5" y="-18.5" font-family="Helvetica,sans-Serif" font-size="10.00">_inexact_constructions</text>
<text text-anchor="middle" x="868" y="-7.5" font-family="Helvetica,sans-Serif" font-size="10.00">_kernel.h</text>
</a>
</g>
</g>
<!-- Node11&#45;&gt;Node14 -->
<g id="edge16" class="edge">
<title>Node11&#45;&gt;Node14</title>
<path fill="none" stroke="midnightblue" d="M868,-78.23C868,-70.57 868,-60.84 868,-51.63"/>
<polygon fill="midnightblue" stroke="midnightblue" points="871.5,-51.59 868,-41.59 864.5,-51.59 871.5,-51.59"/>
</g>
<!-- Node15 -->
<g id="node15" class="node">
<title>Node15</title>
<g id="a_node15"><a xlink:title=" ">
<polygon fill="none" stroke="#bfbfbf" points="950.5,-11.5 950.5,-30.5 1055.5,-30.5 1055.5,-11.5 950.5,-11.5"/>
<text text-anchor="middle" x="1003" y="-18.5" font-family="Helvetica,sans-Serif" font-size="10.00">CGAL/Polygon_2.h</text>
</a>
</g>
</g>
<!-- Node11&#45;&gt;Node15 -->
<g id="edge17" class="edge">
<title>Node11&#45;&gt;Node15</title>
<path fill="none" stroke="midnightblue" d="M894.99,-78.4C919.07,-65.83 954.06,-47.56 977.63,-35.25"/>
<polygon fill="midnightblue" stroke="midnightblue" points="979.42,-38.27 986.66,-30.53 976.17,-32.06 979.42,-38.27"/>
</g>
<!-- Node16 -->
<g id="node16" class="node">
<title>Node16</title>
<g id="a_node16"><a xlink:title=" ">
<polygon fill="none" stroke="#bfbfbf" points="1073.5,-11.5 1073.5,-30.5 1194.5,-30.5 1194.5,-11.5 1073.5,-11.5"/>
<text text-anchor="middle" x="1134" y="-18.5" font-family="Helvetica,sans-Serif" font-size="10.00">CGAL/Polyhedron_3.h</text>
</a>
</g>
</g>
<!-- Node11&#45;&gt;Node16 -->
<g id="edge18" class="edge">
<title>Node11&#45;&gt;Node16</title>
<path fill="none" stroke="midnightblue" d="M924.59,-78.49C964.03,-68.6 1017.83,-54.88 1065,-42 1074.93,-39.29 1085.62,-36.25 1095.56,-33.37"/>
<polygon fill="midnightblue" stroke="midnightblue" points="1096.56,-36.73 1105.18,-30.57 1094.61,-30 1096.56,-36.73"/>
</g>
<!-- Node17 -->
<g id="node17" class="node">
<title>Node17</title>
<g id="a_node17"><a xlink:href="namespace_8h.html" target="_top" xlink:title=" ">
<polygon fill="none" stroke="black" points="1213,-6 1213,-36 1349,-36 1349,-6 1213,-6"/>
<text text-anchor="start" x="1221" y="-24" font-family="Helvetica,sans-Serif" font-size="10.00">VoronoiMeshMaker/Misc</text>
<text text-anchor="middle" x="1281" y="-13" font-family="Helvetica,sans-Serif" font-size="10.00">/namespace.h</text>
</a>
</g>
</g>
<!-- Node11&#45;&gt;Node17 -->
<g id="edge19" class="edge">
<title>Node11&#45;&gt;Node17</title>
<path fill="none" stroke="midnightblue" d="M936.26,-84.38C1004.41,-75.76 1111.96,-60.81 1204,-42 1209.24,-40.93 1214.66,-39.72 1220.09,-38.45"/>
<polygon fill="midnightblue" stroke="midnightblue" points="1220.92,-41.85 1229.82,-36.09 1219.27,-35.04 1220.92,-41.85"/>
</g>
<!-- Node20 -->
<g id="node20" class="node">
<title>Node20</title>
<g id="a_node20"><a xlink:title=" ">
<polygon fill="none" stroke="#bfbfbf" points="611,-352 611,-371 655,-371 655,-352 611,-352"/>
<text text-anchor="middle" x="633" y="-359" font-family="Helvetica,sans-Serif" font-size="10.00">string</text>
</a>
</g>
</g>
<!-- Node19&#45;&gt;Node20 -->
<g id="edge22" class="edge">
<title>Node19&#45;&gt;Node20</title>
<path fill="none" stroke="midnightblue" d="M661.19,-413.4C655.8,-403.66 648.59,-390.65 642.81,-380.21"/>
<polygon fill="midnightblue" stroke="midnightblue" points="645.72,-378.25 637.82,-371.19 639.6,-381.64 645.72,-378.25"/>
</g>
<!-- Node21 -->
<g id="node21" class="node">
<title>Node21</title>
<g id="a_node21"><a xlink:title=" ">
<polygon fill="none" stroke="#bfbfbf" points="673.5,-352 673.5,-371 738.5,-371 738.5,-352 673.5,-352"/>
<text text-anchor="middle" x="706" y="-359" font-family="Helvetica,sans-Serif" font-size="10.00">exception</text>
</a>
</g>
</g>
<!-- Node19&#45;&gt;Node21 -->
<g id="edge23" class="edge">
<title>Node19&#45;&gt;Node21</title>
<path fill="none" stroke="midnightblue" d="M677.03,-413.4C682.63,-403.56 690.13,-390.38 696.1,-379.89"/>
<polygon fill="midnightblue" stroke="midnightblue" points="699.15,-381.62 701.05,-371.19 693.06,-378.15 699.15,-381.62"/>
</g>
<!-- Node22 -->
<g id="node22" class="node">
<title>Node22</title>
<g id="a_node22"><a xlink:title=" ">
<polygon fill="none" stroke="#bfbfbf" points="756.5,-352 756.5,-371 813.5,-371 813.5,-352 756.5,-352"/>
<text text-anchor="middle" x="785" y="-359" font-family="Helvetica,sans-Serif" font-size="10.00">ostream</text>
</a>
</g>
</g>
<!-- Node19&#45;&gt;Node22 -->
<g id="edge24" class="edge">
<title>Node19&#45;&gt;Node22</title>
<path fill="none" stroke="midnightblue" d="M694.17,-413.4C713.98,-402.29 741.42,-386.92 760.94,-375.98"/>
<polygon fill="midnightblue" stroke="midnightblue" points="762.81,-378.95 769.82,-371.01 759.38,-372.84 762.81,-378.95"/>
</g>
<!-- Node23 -->
<g id="node23" class="node">
<title>Node23</title>
<g id="a_node23"><a xlink:href="id_8h.html" target="_top" xlink:title=" ">
<polygon fill="none" stroke="black" points="831.5,-352 831.5,-371 988.5,-371 988.5,-352 831.5,-352"/>
<text text-anchor="middle" x="910" y="-359" font-family="Helvetica,sans-Serif" font-size="10.00">VoronoiMeshMaker/Misc/id.h</text>
</a>
</g>
</g>
<!-- Node19&#45;&gt;Node23 -->
<g id="edge25" class="edge">
<title>Node19&#45;&gt;Node23</title>
<path fill="none" stroke="midnightblue" d="M721,-413.48C765.13,-401.57 827.63,-384.72 868.48,-373.7"/>
<polygon fill="midnightblue" stroke="midnightblue" points="869.63,-377.01 878.38,-371.03 867.81,-370.25 869.63,-377.01"/>
</g>
<!-- Node26 -->
<g id="node26" class="node">
<title>Node26</title>
<g id="a_node26"><a xlink:href="sourceinfo_8h.html" target="_top" xlink:title="Provides information about the source of an error or event in a function.">
<polygon fill="none" stroke="black" points="457,-346.5 457,-376.5 593,-376.5 593,-346.5 457,-346.5"/>
<text text-anchor="start" x="465" y="-364.5" font-family="Helvetica,sans-Serif" font-size="10.00">VoronoiMeshMaker/Misc</text>
<text text-anchor="middle" x="525" y="-353.5" font-family="Helvetica,sans-Serif" font-size="10.00">/sourceinfo.h</text>
</a>
</g>
</g>
<!-- Node19&#45;&gt;Node26 -->
<g id="edge29" class="edge">
<title>Node19&#45;&gt;Node26</title>
<path fill="none" stroke="midnightblue" d="M637.75,-413.4C616.53,-403.81 588.25,-391.05 565.32,-380.7"/>
<polygon fill="midnightblue" stroke="midnightblue" points="566.74,-377.5 556.18,-376.58 563.86,-383.88 566.74,-377.5"/>
</g>
<!-- Node24 -->
<g id="node24" class="node">
<title>Node24</title>
<g id="a_node24"><a xlink:title=" ">
<polygon fill="none" stroke="#bfbfbf" points="790.5,-285 790.5,-304 863.5,-304 863.5,-285 790.5,-285"/>
<text text-anchor="middle" x="827" y="-292" font-family="Helvetica,sans-Serif" font-size="10.00">string_view</text>
</a>
</g>
</g>
<!-- Node23&#45;&gt;Node24 -->
<g id="edge26" class="edge">
<title>Node23&#45;&gt;Node24</title>
<path fill="none" stroke="midnightblue" d="M898.81,-351.73C885.37,-341.21 862.6,-323.38 846.3,-310.62"/>
<polygon fill="midnightblue" stroke="midnightblue" points="848.05,-307.54 838.02,-304.13 843.73,-313.05 848.05,-307.54"/>
</g>
<!-- Node25 -->
<g id="node25" class="node">
<title>Node25</title>
<g id="a_node25"><a xlink:href="configure_8h.html" target="_top" xlink:title="Defines common constants used across the VoronoiMeshMaker library.">
<polygon fill="none" stroke="black" points="816,-212.5 816,-242.5 952,-242.5 952,-212.5 816,-212.5"/>
<text text-anchor="start" x="824" y="-230.5" font-family="Helvetica,sans-Serif" font-size="10.00">VoronoiMeshMaker/Misc</text>
<text text-anchor="middle" x="884" y="-219.5" font-family="Helvetica,sans-Serif" font-size="10.00">/configure.h</text>
</a>
</g>
</g>
<!-- Node23&#45;&gt;Node25 -->
<g id="edge27" class="edge">
<title>Node23&#45;&gt;Node25</title>
<path fill="none" stroke="midnightblue" d="M908.29,-351.84C904.39,-332.02 894.69,-282.77 888.79,-252.84"/>
<polygon fill="midnightblue" stroke="midnightblue" points="892.18,-251.92 886.81,-242.78 885.31,-253.27 892.18,-251.92"/>
</g>
<!-- Node25&#45;&gt;Node11 -->
<g id="edge28" class="edge">
<title>Node25&#45;&gt;Node11</title>
<path fill="none" stroke="midnightblue" d="M882.29,-212.37C879.57,-189.94 874.23,-145.92 870.91,-118.49"/>
<polygon fill="midnightblue" stroke="midnightblue" points="874.38,-118.03 869.7,-108.52 867.43,-118.87 874.38,-118.03"/>
</g>
<!-- Node26&#45;&gt;Node24 -->
<g id="edge30" class="edge">
<title>Node26&#45;&gt;Node24</title>
<path fill="none" stroke="midnightblue" d="M590.16,-346.48C647.42,-334.15 729.35,-316.52 780.3,-305.55"/>
<polygon fill="midnightblue" stroke="midnightblue" points="781.33,-308.91 790.37,-303.38 779.86,-302.07 781.33,-308.91"/>
</g>
<!-- Node27 -->
<g id="node27" class="node">
<title>Node27</title>
<g id="a_node27"><a xlink:title=" ">
<polygon fill="none" stroke="#bfbfbf" points="612,-279.5 612,-309.5 748,-309.5 748,-279.5 612,-279.5"/>
<text text-anchor="start" x="620" y="-297.5" font-family="Helvetica,sans-Serif" font-size="10.00">VoronoiMeshMaker/Misc</text>
<text text-anchor="middle" x="680" y="-286.5" font-family="Helvetica,sans-Serif" font-size="10.00">/Misc.h</text>
</a>
</g>
</g>
<!-- Node26&#45;&gt;Node27 -->
<g id="edge31" class="edge">
<title>Node26&#45;&gt;Node27</title>
<path fill="none" stroke="midnightblue" d="M558.63,-346.4C581.58,-336.77 612.19,-323.94 636.92,-313.56"/>
<polygon fill="midnightblue" stroke="midnightblue" points="638.56,-316.67 646.43,-309.58 635.86,-310.22 638.56,-316.67"/>
</g>
<!-- Node28&#45;&gt;Node5 -->
<g id="edge37" class="edge">
<title>Node28&#45;&gt;Node5</title>
<path fill="none" stroke="midnightblue" d="M329.68,-346.4C303.87,-336.64 269.34,-323.59 241.71,-313.15"/>
<polygon fill="midnightblue" stroke="midnightblue" points="242.84,-309.84 232.25,-309.58 240.37,-316.39 242.84,-309.84"/>
</g>
<!-- Node28&#45;&gt;Node6 -->
<g id="edge35" class="edge">
<title>Node28&#45;&gt;Node6</title>
<path fill="none" stroke="midnightblue" d="M380.43,-346.37C397.98,-328.58 430.33,-298.06 463,-279 577.53,-212.17 667.13,-284.75 743,-176 778.32,-125.37 702.84,-63.8 663.23,-36.38"/>
<polygon fill="midnightblue" stroke="midnightblue" points="664.94,-33.31 654.7,-30.61 661.02,-39.11 664.94,-33.31"/>
</g>
<!-- Node28&#45;&gt;Node8 -->
<g id="edge38" class="edge">
<title>Node28&#45;&gt;Node8</title>
<path fill="none" stroke="midnightblue" d="M368.07,-346.37C369.76,-324.04 373.07,-280.31 375.16,-252.85"/>
<polygon fill="midnightblue" stroke="midnightblue" points="378.67,-252.76 375.94,-242.52 371.69,-252.23 378.67,-252.76"/>
</g>
<!-- Node29 -->
<g id="node29" class="node">
<title>Node29</title>
<g id="a_node29"><a xlink:title=" ">
<polygon fill="none" stroke="#bfbfbf" points="472,-285 472,-304 510,-304 510,-285 472,-285"/>
<text text-anchor="middle" x="491" y="-292" font-family="Helvetica,sans-Serif" font-size="10.00">map</text>
</a>
</g>
</g>
<!-- Node28&#45;&gt;Node29 -->
<g id="edge33" class="edge">
<title>Node28&#45;&gt;Node29</title>
<path fill="none" stroke="midnightblue" d="M393.91,-346.4C415.28,-335.19 444.95,-319.64 465.85,-308.69"/>
<polygon fill="midnightblue" stroke="midnightblue" points="467.54,-311.75 474.77,-304.01 464.29,-305.55 467.54,-311.75"/>
</g>
<!-- Node30 -->
<g id="node30" class="node">
<title>Node30</title>
<g id="a_node30"><a xlink:title=" ">
<polygon fill="none" stroke="#bfbfbf" points="528.5,-285 528.5,-304 593.5,-304 593.5,-285 528.5,-285"/>
<text text-anchor="middle" x="561" y="-292" font-family="Helvetica,sans-Serif" font-size="10.00">functional</text>
</a>
</g>
</g>
<!-- Node28&#45;&gt;Node30 -->
<g id="edge34" class="edge">
<title>Node28&#45;&gt;Node30</title>
<path fill="none" stroke="midnightblue" d="M409.63,-346.48C440.13,-336.42 482.13,-322.49 519,-310 521.43,-309.18 523.94,-308.32 526.46,-307.46"/>
<polygon fill="midnightblue" stroke="midnightblue" points="527.82,-310.69 536.14,-304.14 525.55,-304.07 527.82,-310.69"/>
</g>
<!-- Node31 -->
<g id="node31" class="node">
<title>Node31</title>
<g id="a_node31"><a xlink:title=" ">
<polygon fill="none" stroke="#bfbfbf" points="284.5,-285 284.5,-304 349.5,-304 349.5,-285 284.5,-285"/>
<text text-anchor="middle" x="317" y="-292" font-family="Helvetica,sans-Serif" font-size="10.00">stdexcept</text>
</a>
</g>
</g>
<!-- Node28&#45;&gt;Node31 -->
<g id="edge36" class="edge">
<title>Node28&#45;&gt;Node31</title>
<path fill="none" stroke="midnightblue" d="M356.15,-346.4C348.43,-336.36 338.03,-322.84 329.89,-312.25"/>
<polygon fill="midnightblue" stroke="midnightblue" points="332.56,-309.99 323.69,-304.19 327.01,-314.25 332.56,-309.99"/>
</g>
</g>
</svg>
