<?xml version="1.0" encoding="UTF-8" standalone="no"?>
<!DOCTYPE svg PUBLIC "-//W3C//DTD SVG 1.1//EN"
 "http://www.w3.org/Graphics/SVG/1.1/DTD/svg11.dtd">
<!-- Generated by graphviz version 2.43.0 (0)
 -->
<!-- Title: src/VoronoiMeshMaker/Shape/ShapeFactory.cpp Pages: 1 -->
<svg width="977pt" height="452pt"
 viewBox="0.00 0.00 977.00 452.00" xmlns="http://www.w3.org/2000/svg" xmlns:xlink="http://www.w3.org/1999/xlink">
<g id="graph0" class="graph" transform="scale(1 1) rotate(0) translate(4 448)">
<title>src/VoronoiMeshMaker/Shape/ShapeFactory.cpp</title>
<!-- Node1 -->
<g id="node1" class="node">
<title>Node1</title>
<g id="a_node1"><a xlink:title="Implements the ShapeFactory methods for creating shape objects. This file contains the registration a...">
<polygon fill="#bfbfbf" stroke="black" points="231.5,-413.5 231.5,-443.5 368.5,-443.5 368.5,-413.5 231.5,-413.5"/>
<text text-anchor="start" x="239.5" y="-431.5" font-family="Helvetica,sans-Serif" font-size="10.00">src/VoronoiMeshMaker</text>
<text text-anchor="middle" x="300" y="-420.5" font-family="Helvetica,sans-Serif" font-size="10.00">/Shape/ShapeFactory.cpp</text>
</a>
</g>
</g>
<!-- Node2 -->
<g id="node2" class="node">
<title>Node2</title>
<g id="a_node2"><a xlink:href="ShapeFactory_8h.html" target="_top" xlink:title=" ">
<polygon fill="none" stroke="black" points="178.5,-346.5 178.5,-376.5 321.5,-376.5 321.5,-346.5 178.5,-346.5"/>
<text text-anchor="start" x="186.5" y="-364.5" font-family="Helvetica,sans-Serif" font-size="10.00">VoronoiMeshMaker/Shape</text>
<text text-anchor="middle" x="250" y="-353.5" font-family="Helvetica,sans-Serif" font-size="10.00">/ShapeFactory.h</text>
</a>
</g>
</g>
<!-- Node1&#45;&gt;Node2 -->
<g id="edge1" class="edge">
<title>Node1&#45;&gt;Node2</title>
<path fill="none" stroke="midnightblue" d="M289.15,-413.4C282.66,-404.96 274.28,-394.07 266.94,-384.52"/>
<polygon fill="midnightblue" stroke="midnightblue" points="269.7,-382.37 260.83,-376.58 264.15,-386.64 269.7,-382.37"/>
</g>
<!-- Node6 -->
<g id="node6" class="node">
<title>Node6</title>
<g id="a_node6"><a xlink:title=" ">
<polygon fill="none" stroke="#bfbfbf" points="378.5,-285 378.5,-304 443.5,-304 443.5,-285 378.5,-285"/>
<text text-anchor="middle" x="411" y="-292" font-family="Helvetica,sans-Serif" font-size="10.00">stdexcept</text>
</a>
</g>
</g>
<!-- Node1&#45;&gt;Node6 -->
<g id="edge24" class="edge">
<title>Node1&#45;&gt;Node6</title>
<path fill="none" stroke="midnightblue" d="M311.88,-413.37C332.58,-388.76 375.16,-338.12 397.16,-311.96"/>
<polygon fill="midnightblue" stroke="midnightblue" points="400.01,-314 403.77,-304.1 394.66,-309.5 400.01,-314"/>
</g>
<!-- Node3 -->
<g id="node3" class="node">
<title>Node3</title>
<g id="a_node3"><a xlink:title=" ">
<polygon fill="none" stroke="#bfbfbf" points="0,-285 0,-304 38,-304 38,-285 0,-285"/>
<text text-anchor="middle" x="19" y="-292" font-family="Helvetica,sans-Serif" font-size="10.00">map</text>
</a>
</g>
</g>
<!-- Node2&#45;&gt;Node3 -->
<g id="edge2" class="edge">
<title>Node2&#45;&gt;Node3</title>
<path fill="none" stroke="midnightblue" d="M178.3,-346.95C138.87,-338.44 89.47,-326.03 47,-310 45.79,-309.54 44.56,-309.05 43.34,-308.52"/>
<polygon fill="midnightblue" stroke="midnightblue" points="44.64,-305.27 34.11,-304.14 41.64,-311.59 44.64,-305.27"/>
</g>
<!-- Node4 -->
<g id="node4" class="node">
<title>Node4</title>
<g id="a_node4"><a xlink:title=" ">
<polygon fill="none" stroke="#bfbfbf" points="56.5,-285 56.5,-304 121.5,-304 121.5,-285 56.5,-285"/>
<text text-anchor="middle" x="89" y="-292" font-family="Helvetica,sans-Serif" font-size="10.00">functional</text>
</a>
</g>
</g>
<!-- Node2&#45;&gt;Node4 -->
<g id="edge3" class="edge">
<title>Node2&#45;&gt;Node4</title>
<path fill="none" stroke="midnightblue" d="M215.07,-346.4C186.57,-334.89 146.71,-318.8 119.48,-307.81"/>
<polygon fill="midnightblue" stroke="midnightblue" points="120.65,-304.51 110.07,-304.01 118.03,-311 120.65,-304.51"/>
</g>
<!-- Node5 -->
<g id="node5" class="node">
<title>Node5</title>
<g id="a_node5"><a xlink:title=" ">
<polygon fill="none" stroke="#bfbfbf" points="159,-11.5 159,-30.5 217,-30.5 217,-11.5 159,-11.5"/>
<text text-anchor="middle" x="188" y="-18.5" font-family="Helvetica,sans-Serif" font-size="10.00">memory</text>
</a>
</g>
</g>
<!-- Node2&#45;&gt;Node5 -->
<g id="edge4" class="edge">
<title>Node2&#45;&gt;Node5</title>
<path fill="none" stroke="midnightblue" d="M215.1,-346.37C198.79,-338.08 180.48,-326.04 169,-310 147.35,-279.75 150,-265.69 150,-228.5 150,-228.5 150,-228.5 150,-159.5 150,-115.31 168.46,-65.93 179.65,-40.06"/>
<polygon fill="midnightblue" stroke="midnightblue" points="182.91,-41.33 183.79,-30.78 176.52,-38.48 182.91,-41.33"/>
</g>
<!-- Node2&#45;&gt;Node6 -->
<g id="edge5" class="edge">
<title>Node2&#45;&gt;Node6</title>
<path fill="none" stroke="midnightblue" d="M284.93,-346.4C313.43,-334.89 353.29,-318.8 380.52,-307.81"/>
<polygon fill="midnightblue" stroke="midnightblue" points="381.97,-311 389.93,-304.01 379.35,-304.51 381.97,-311"/>
</g>
<!-- Node7 -->
<g id="node7" class="node">
<title>Node7</title>
<g id="a_node7"><a xlink:href="Shape_8h.html" target="_top" xlink:title="Defines the Shape class, which serves as the abstract base class for all shapes. This class provides ...">
<polygon fill="none" stroke="black" points="178.5,-279.5 178.5,-309.5 321.5,-309.5 321.5,-279.5 178.5,-279.5"/>
<text text-anchor="start" x="186.5" y="-297.5" font-family="Helvetica,sans-Serif" font-size="10.00">VoronoiMeshMaker/Shape</text>
<text text-anchor="middle" x="250" y="-286.5" font-family="Helvetica,sans-Serif" font-size="10.00">/Shape.h</text>
</a>
</g>
</g>
<!-- Node2&#45;&gt;Node7 -->
<g id="edge6" class="edge">
<title>Node2&#45;&gt;Node7</title>
<path fill="none" stroke="midnightblue" d="M250,-346.4C250,-338.64 250,-328.81 250,-319.86"/>
<polygon fill="midnightblue" stroke="midnightblue" points="253.5,-319.58 250,-309.58 246.5,-319.58 253.5,-319.58"/>
</g>
<!-- Node10 -->
<g id="node10" class="node">
<title>Node10</title>
<g id="a_node10"><a xlink:href="GeometricDataHolder_8h.html" target="_top" xlink:title="Defines the GeometricDataHolder class and the DataTraits for handling multiple data types....">
<polygon fill="none" stroke="black" points="336,-212.5 336,-242.5 506,-242.5 506,-212.5 336,-212.5"/>
<text text-anchor="start" x="344" y="-230.5" font-family="Helvetica,sans-Serif" font-size="10.00">VoronoiMeshMaker/Parameters</text>
<text text-anchor="middle" x="421" y="-219.5" font-family="Helvetica,sans-Serif" font-size="10.00">/GeometricDataHolder.h</text>
</a>
</g>
</g>
<!-- Node2&#45;&gt;Node10 -->
<g id="edge23" class="edge">
<title>Node2&#45;&gt;Node10</title>
<path fill="none" stroke="midnightblue" d="M274.5,-346.49C290.71,-336.87 312.17,-323.46 330,-310 354.95,-291.16 381.34,-266.99 399.24,-249.88"/>
<polygon fill="midnightblue" stroke="midnightblue" points="402.06,-252.02 406.83,-242.56 397.21,-246.98 402.06,-252.02"/>
</g>
<!-- Node7&#45;&gt;Node5 -->
<g id="edge8" class="edge">
<title>Node7&#45;&gt;Node5</title>
<path fill="none" stroke="midnightblue" d="M233.63,-279.31C224.11,-270.01 212.86,-257.03 207,-243 177.83,-173.14 182.26,-80.24 185.88,-40.89"/>
<polygon fill="midnightblue" stroke="midnightblue" points="189.37,-41.18 186.9,-30.88 182.41,-40.47 189.37,-41.18"/>
</g>
<!-- Node8 -->
<g id="node8" class="node">
<title>Node8</title>
<g id="a_node8"><a xlink:title=" ">
<polygon fill="none" stroke="#bfbfbf" points="216,-218 216,-237 276,-237 276,-218 216,-218"/>
<text text-anchor="middle" x="246" y="-225" font-family="Helvetica,sans-Serif" font-size="10.00">iostream</text>
</a>
</g>
</g>
<!-- Node7&#45;&gt;Node8 -->
<g id="edge7" class="edge">
<title>Node7&#45;&gt;Node8</title>
<path fill="none" stroke="midnightblue" d="M249.13,-279.4C248.55,-269.96 247.78,-257.45 247.15,-247.19"/>
<polygon fill="midnightblue" stroke="midnightblue" points="250.64,-246.96 246.54,-237.19 243.66,-247.39 250.64,-246.96"/>
</g>
<!-- Node9 -->
<g id="node9" class="node">
<title>Node9</title>
<g id="a_node9"><a xlink:title=" ">
<polygon fill="none" stroke="#bfbfbf" points="216,-151 216,-170 374,-170 374,-151 216,-151"/>
<text text-anchor="middle" x="295" y="-158" font-family="Helvetica,sans-Serif" font-size="10.00">VoronoiMeshMaker/Misc/ID.h</text>
</a>
</g>
</g>
<!-- Node7&#45;&gt;Node9 -->
<g id="edge9" class="edge">
<title>Node7&#45;&gt;Node9</title>
<path fill="none" stroke="midnightblue" d="M262.8,-279.12C270.56,-269.57 279.91,-256.36 285,-243 292.75,-222.65 294.81,-197.57 295.22,-180.65"/>
<polygon fill="midnightblue" stroke="midnightblue" points="298.72,-180.42 295.28,-170.4 291.72,-180.37 298.72,-180.42"/>
</g>
<!-- Node7&#45;&gt;Node10 -->
<g id="edge10" class="edge">
<title>Node7&#45;&gt;Node10</title>
<path fill="none" stroke="midnightblue" d="M287.1,-279.4C312.76,-269.64 347.09,-256.59 374.56,-246.15"/>
<polygon fill="midnightblue" stroke="midnightblue" points="375.86,-249.4 383.97,-242.58 373.38,-242.86 375.86,-249.4"/>
</g>
<!-- Node10&#45;&gt;Node9 -->
<g id="edge12" class="edge">
<title>Node10&#45;&gt;Node9</title>
<path fill="none" stroke="midnightblue" d="M393.66,-212.4C371.94,-201.19 341.8,-185.64 320.56,-174.69"/>
<polygon fill="midnightblue" stroke="midnightblue" points="321.98,-171.48 311.49,-170.01 318.77,-177.7 321.98,-171.48"/>
</g>
<!-- Node11 -->
<g id="node11" class="node">
<title>Node11</title>
<g id="a_node11"><a xlink:title=" ">
<polygon fill="none" stroke="#bfbfbf" points="392.5,-151 392.5,-170 457.5,-170 457.5,-151 392.5,-151"/>
<text text-anchor="middle" x="425" y="-158" font-family="Helvetica,sans-Serif" font-size="10.00">execution</text>
</a>
</g>
</g>
<!-- Node10&#45;&gt;Node11 -->
<g id="edge11" class="edge">
<title>Node10&#45;&gt;Node11</title>
<path fill="none" stroke="midnightblue" d="M421.87,-212.4C422.45,-202.96 423.22,-190.45 423.85,-180.19"/>
<polygon fill="midnightblue" stroke="midnightblue" points="427.34,-180.39 424.46,-170.19 420.36,-179.96 427.34,-180.39"/>
</g>
<!-- Node12 -->
<g id="node12" class="node">
<title>Node12</title>
<g id="a_node12"><a xlink:href="GeometricDataTraits_8h.html" target="_top" xlink:title="Defines the GeometricDataTraits structure used for type identification and operations on various data...">
<polygon fill="none" stroke="black" points="476,-145.5 476,-175.5 646,-175.5 646,-145.5 476,-145.5"/>
<text text-anchor="start" x="484" y="-163.5" font-family="Helvetica,sans-Serif" font-size="10.00">VoronoiMeshMaker/Parameters</text>
<text text-anchor="middle" x="561" y="-152.5" font-family="Helvetica,sans-Serif" font-size="10.00">/GeometricDataTraits.h</text>
</a>
</g>
</g>
<!-- Node10&#45;&gt;Node12 -->
<g id="edge13" class="edge">
<title>Node10&#45;&gt;Node12</title>
<path fill="none" stroke="midnightblue" d="M451.38,-212.4C471.93,-202.86 499.26,-190.16 521.5,-179.84"/>
<polygon fill="midnightblue" stroke="midnightblue" points="523.09,-182.96 530.68,-175.58 520.14,-176.61 523.09,-182.96"/>
</g>
<!-- Node20 -->
<g id="node20" class="node">
<title>Node20</title>
<g id="a_node20"><a xlink:href="GeometricDataHolder_8tpp.html" target="_top" xlink:title=" ">
<polygon fill="none" stroke="black" points="664,-145.5 664,-175.5 834,-175.5 834,-145.5 664,-145.5"/>
<text text-anchor="start" x="672" y="-163.5" font-family="Helvetica,sans-Serif" font-size="10.00">VoronoiMeshMaker/Parameters</text>
<text text-anchor="middle" x="749" y="-152.5" font-family="Helvetica,sans-Serif" font-size="10.00">/GeometricDataHolder.tpp</text>
</a>
</g>
</g>
<!-- Node10&#45;&gt;Node20 -->
<g id="edge22" class="edge">
<title>Node10&#45;&gt;Node20</title>
<path fill="none" stroke="midnightblue" d="M491.77,-212.48C543.63,-202.2 614.11,-188.23 668.18,-177.52"/>
<polygon fill="midnightblue" stroke="midnightblue" points="668.95,-180.93 678.08,-175.55 667.59,-174.07 668.95,-180.93"/>
</g>
<!-- Node13 -->
<g id="node13" class="node">
<title>Node13</title>
<g id="a_node13"><a xlink:href="type_8h.html" target="_top" xlink:title="Defines common geometric and numeric types used in the VoronoiMeshMaker library.">
<polygon fill="none" stroke="black" points="456,-78.5 456,-108.5 592,-108.5 592,-78.5 456,-78.5"/>
<text text-anchor="start" x="464" y="-96.5" font-family="Helvetica,sans-Serif" font-size="10.00">VoronoiMeshMaker/Misc</text>
<text text-anchor="middle" x="524" y="-85.5" font-family="Helvetica,sans-Serif" font-size="10.00">/type.h</text>
</a>
</g>
</g>
<!-- Node12&#45;&gt;Node13 -->
<g id="edge14" class="edge">
<title>Node12&#45;&gt;Node13</title>
<path fill="none" stroke="midnightblue" d="M552.97,-145.4C548.32,-137.22 542.34,-126.73 537.03,-117.39"/>
<polygon fill="midnightblue" stroke="midnightblue" points="540,-115.54 532.01,-108.58 533.92,-119 540,-115.54"/>
</g>
<!-- Node13&#45;&gt;Node5 -->
<g id="edge16" class="edge">
<title>Node13&#45;&gt;Node5</title>
<path fill="none" stroke="midnightblue" d="M457.22,-78.49C388.39,-64.05 283.43,-42.02 227.06,-30.19"/>
<polygon fill="midnightblue" stroke="midnightblue" points="227.62,-26.74 217.11,-28.11 226.18,-33.59 227.62,-26.74"/>
</g>
<!-- Node14 -->
<g id="node14" class="node">
<title>Node14</title>
<g id="a_node14"><a xlink:title=" ">
<polygon fill="none" stroke="#bfbfbf" points="308,-11.5 308,-30.5 340,-30.5 340,-11.5 308,-11.5"/>
<text text-anchor="middle" x="324" y="-18.5" font-family="Helvetica,sans-Serif" font-size="10.00">list</text>
</a>
</g>
</g>
<!-- Node13&#45;&gt;Node14 -->
<g id="edge15" class="edge">
<title>Node13&#45;&gt;Node14</title>
<path fill="none" stroke="midnightblue" d="M456,-79.46C422.58,-71.43 382.41,-59.3 349,-42 346.32,-40.61 343.64,-38.91 341.1,-37.09"/>
<polygon fill="midnightblue" stroke="midnightblue" points="343.12,-34.23 333.12,-30.74 338.77,-39.7 343.12,-34.23"/>
</g>
<!-- Node15 -->
<g id="node15" class="node">
<title>Node15</title>
<g id="a_node15"><a xlink:title=" ">
<polygon fill="none" stroke="#bfbfbf" points="358.5,-11.5 358.5,-30.5 405.5,-30.5 405.5,-11.5 358.5,-11.5"/>
<text text-anchor="middle" x="382" y="-18.5" font-family="Helvetica,sans-Serif" font-size="10.00">vector</text>
</a>
</g>
</g>
<!-- Node13&#45;&gt;Node15 -->
<g id="edge17" class="edge">
<title>Node13&#45;&gt;Node15</title>
<path fill="none" stroke="midnightblue" d="M490.24,-78.34C468.19,-68.77 438.97,-55.46 414,-42 410.57,-40.15 407,-38.08 403.55,-35.99"/>
<polygon fill="midnightblue" stroke="midnightblue" points="405.19,-32.89 394.85,-30.56 401.48,-38.82 405.19,-32.89"/>
</g>
<!-- Node16 -->
<g id="node16" class="node">
<title>Node16</title>
<g id="a_node16"><a xlink:title=" ">
<polygon fill="none" stroke="#bfbfbf" points="423.5,-0.5 423.5,-41.5 552.5,-41.5 552.5,-0.5 423.5,-0.5"/>
<text text-anchor="start" x="431.5" y="-29.5" font-family="Helvetica,sans-Serif" font-size="10.00">CGAL/Exact_predicates</text>
<text text-anchor="start" x="431.5" y="-18.5" font-family="Helvetica,sans-Serif" font-size="10.00">_inexact_constructions</text>
<text text-anchor="middle" x="488" y="-7.5" font-family="Helvetica,sans-Serif" font-size="10.00">_kernel.h</text>
</a>
</g>
</g>
<!-- Node13&#45;&gt;Node16 -->
<g id="edge18" class="edge">
<title>Node13&#45;&gt;Node16</title>
<path fill="none" stroke="midnightblue" d="M516.71,-78.23C512.68,-70.33 507.51,-60.21 502.67,-50.74"/>
<polygon fill="midnightblue" stroke="midnightblue" points="505.67,-48.9 498,-41.59 499.43,-52.09 505.67,-48.9"/>
</g>
<!-- Node17 -->
<g id="node17" class="node">
<title>Node17</title>
<g id="a_node17"><a xlink:title=" ">
<polygon fill="none" stroke="#bfbfbf" points="570.5,-11.5 570.5,-30.5 675.5,-30.5 675.5,-11.5 570.5,-11.5"/>
<text text-anchor="middle" x="623" y="-18.5" font-family="Helvetica,sans-Serif" font-size="10.00">CGAL/Polygon_2.h</text>
</a>
</g>
</g>
<!-- Node13&#45;&gt;Node17 -->
<g id="edge19" class="edge">
<title>Node13&#45;&gt;Node17</title>
<path fill="none" stroke="midnightblue" d="M544.03,-78.23C561.07,-66.1 585.42,-48.76 602.56,-36.55"/>
<polygon fill="midnightblue" stroke="midnightblue" points="604.68,-39.34 610.8,-30.69 600.62,-33.64 604.68,-39.34"/>
</g>
<!-- Node18 -->
<g id="node18" class="node">
<title>Node18</title>
<g id="a_node18"><a xlink:title=" ">
<polygon fill="none" stroke="#bfbfbf" points="693.5,-11.5 693.5,-30.5 814.5,-30.5 814.5,-11.5 693.5,-11.5"/>
<text text-anchor="middle" x="754" y="-18.5" font-family="Helvetica,sans-Serif" font-size="10.00">CGAL/Polyhedron_3.h</text>
</a>
</g>
</g>
<!-- Node13&#45;&gt;Node18 -->
<g id="edge20" class="edge">
<title>Node13&#45;&gt;Node18</title>
<path fill="none" stroke="midnightblue" d="M569.72,-78.49C612.71,-65.31 676.3,-45.82 716.42,-33.52"/>
<polygon fill="midnightblue" stroke="midnightblue" points="717.55,-36.83 726.09,-30.55 715.5,-30.14 717.55,-36.83"/>
</g>
<!-- Node19 -->
<g id="node19" class="node">
<title>Node19</title>
<g id="a_node19"><a xlink:href="namespace_8h.html" target="_top" xlink:title=" ">
<polygon fill="none" stroke="black" points="833,-6 833,-36 969,-36 969,-6 833,-6"/>
<text text-anchor="start" x="841" y="-24" font-family="Helvetica,sans-Serif" font-size="10.00">VoronoiMeshMaker/Misc</text>
<text text-anchor="middle" x="901" y="-13" font-family="Helvetica,sans-Serif" font-size="10.00">/namespace.h</text>
</a>
</g>
</g>
<!-- Node13&#45;&gt;Node19 -->
<g id="edge21" class="edge">
<title>Node13&#45;&gt;Node19</title>
<path fill="none" stroke="midnightblue" d="M592.24,-82.75C653.25,-73.62 744.97,-58.88 824,-42 829.02,-40.93 834.21,-39.74 839.4,-38.51"/>
<polygon fill="midnightblue" stroke="midnightblue" points="840.49,-41.84 849.37,-36.07 838.83,-35.04 840.49,-41.84"/>
</g>
</g>
</svg>
