<?xml version="1.0" encoding="UTF-8" standalone="no"?>
<!DOCTYPE svg PUBLIC "-//W3C//DTD SVG 1.1//EN"
 "http://www.w3.org/Graphics/SVG/1.1/DTD/svg11.dtd">
<!-- Generated by graphviz version 2.43.0 (0)
 -->
<!-- Title: include/VoronoiMeshMaker/Shape/Shape.h Pages: 1 -->
<svg width="1261pt" height="251pt"
 viewBox="0.00 0.00 1261.00 251.00" xmlns="http://www.w3.org/2000/svg" xmlns:xlink="http://www.w3.org/1999/xlink">
<g id="graph0" class="graph" transform="scale(1 1) rotate(0) translate(4 247)">
<title>include/VoronoiMeshMaker/Shape/Shape.h</title>
<!-- Node1 -->
<g id="node1" class="node">
<title>Node1</title>
<g id="a_node1"><a xlink:title="Defines the Shape class, which serves as the abstract base class for all shapes. This class provides ...">
<polygon fill="#bfbfbf" stroke="black" points="508,-212.5 508,-242.5 657,-242.5 657,-212.5 508,-212.5"/>
<text text-anchor="start" x="516" y="-230.5" font-family="Helvetica,sans-Serif" font-size="10.00">include/VoronoiMeshMaker</text>
<text text-anchor="middle" x="582.5" y="-219.5" font-family="Helvetica,sans-Serif" font-size="10.00">/Shape/Shape.h</text>
</a>
</g>
</g>
<!-- Node2 -->
<g id="node2" class="node">
<title>Node2</title>
<g id="a_node2"><a xlink:href="Shape2D_8h.html" target="_top" xlink:title="Defines the Shape2D class, which represents 2D geometric shapes.">
<polygon fill="none" stroke="black" points="506.5,-145.5 506.5,-175.5 658.5,-175.5 658.5,-145.5 506.5,-145.5"/>
<text text-anchor="start" x="514.5" y="-163.5" font-family="Helvetica,sans-Serif" font-size="10.00">include/VoronoiMeshMaker</text>
<text text-anchor="middle" x="582.5" y="-152.5" font-family="Helvetica,sans-Serif" font-size="10.00">/Shape/Shape2D/Shape2D.h</text>
</a>
</g>
</g>
<!-- Node1&#45;&gt;Node2 -->
<g id="edge1" class="edge">
<title>Node1&#45;&gt;Node2</title>
<path fill="none" stroke="midnightblue" d="M582.5,-202.11C582.5,-193.15 582.5,-183.32 582.5,-175.58"/>
<polygon fill="midnightblue" stroke="midnightblue" points="579,-202.4 582.5,-212.4 586,-202.4 579,-202.4"/>
</g>
<!-- Node14 -->
<g id="node14" class="node">
<title>Node14</title>
<g id="a_node14"><a xlink:href="ShapeFactory_8h.html" target="_top" xlink:title=" ">
<polygon fill="none" stroke="black" points="167,-78.5 167,-108.5 316,-108.5 316,-78.5 167,-78.5"/>
<text text-anchor="start" x="175" y="-96.5" font-family="Helvetica,sans-Serif" font-size="10.00">include/VoronoiMeshMaker</text>
<text text-anchor="middle" x="241.5" y="-85.5" font-family="Helvetica,sans-Serif" font-size="10.00">/Shape/ShapeFactory.h</text>
</a>
</g>
</g>
<!-- Node1&#45;&gt;Node14 -->
<g id="edge13" class="edge">
<title>Node1&#45;&gt;Node14</title>
<path fill="none" stroke="midnightblue" d="M536.66,-208.76C468.12,-182.23 340.32,-132.75 277.81,-108.56"/>
<polygon fill="midnightblue" stroke="midnightblue" points="535.74,-212.15 546.33,-212.5 538.27,-205.62 535.74,-212.15"/>
</g>
<!-- Node16 -->
<g id="node16" class="node">
<title>Node16</title>
<g id="a_node16"><a xlink:href="Shape_8cpp.html" target="_top" xlink:title=" ">
<polygon fill="none" stroke="black" points="676.5,-145.5 676.5,-175.5 804.5,-175.5 804.5,-145.5 676.5,-145.5"/>
<text text-anchor="start" x="684.5" y="-163.5" font-family="Helvetica,sans-Serif" font-size="10.00">src/VoronoiMeshMaker</text>
<text text-anchor="middle" x="740.5" y="-152.5" font-family="Helvetica,sans-Serif" font-size="10.00">/Shape/Shape.cpp</text>
</a>
</g>
</g>
<!-- Node1&#45;&gt;Node16 -->
<g id="edge18" class="edge">
<title>Node1&#45;&gt;Node16</title>
<path fill="none" stroke="midnightblue" d="M626.15,-208.54C651.43,-198.14 682.8,-185.24 706.28,-175.58"/>
<polygon fill="midnightblue" stroke="midnightblue" points="624.7,-205.35 616.78,-212.4 627.36,-211.83 624.7,-205.35"/>
</g>
<!-- Node3 -->
<g id="node3" class="node">
<title>Node3</title>
<g id="a_node3"><a xlink:href="CommaSeparatedValues_8h.html" target="_top" xlink:title=" ">
<polygon fill="none" stroke="black" points="1024,-78.5 1024,-108.5 1253,-108.5 1253,-78.5 1024,-78.5"/>
<text text-anchor="start" x="1032" y="-96.5" font-family="Helvetica,sans-Serif" font-size="10.00">include/VoronoiMeshMaker</text>
<text text-anchor="middle" x="1138.5" y="-85.5" font-family="Helvetica,sans-Serif" font-size="10.00">/Shape/Shape2D/CommaSeparatedValues.h</text>
</a>
</g>
</g>
<!-- Node2&#45;&gt;Node3 -->
<g id="edge2" class="edge">
<title>Node2&#45;&gt;Node3</title>
<path fill="none" stroke="midnightblue" d="M669.23,-144.82C823.3,-124 864.27,-125.74 1015.5,-109 1018.28,-108.69 1021.09,-108.38 1023.93,-108.06"/>
<polygon fill="midnightblue" stroke="midnightblue" points="668.36,-141.4 658.92,-146.22 669.3,-148.34 668.36,-141.4"/>
</g>
<!-- Node5 -->
<g id="node5" class="node">
<title>Node5</title>
<g id="a_node5"><a xlink:href="Ellipse_8h.html" target="_top" xlink:title=" ">
<polygon fill="none" stroke="black" points="334,-78.5 334,-108.5 483,-108.5 483,-78.5 334,-78.5"/>
<text text-anchor="start" x="342" y="-96.5" font-family="Helvetica,sans-Serif" font-size="10.00">include/VoronoiMeshMaker</text>
<text text-anchor="middle" x="408.5" y="-85.5" font-family="Helvetica,sans-Serif" font-size="10.00">/Shape/Shape2D/Ellipse.h</text>
</a>
</g>
</g>
<!-- Node2&#45;&gt;Node5 -->
<g id="edge4" class="edge">
<title>Node2&#45;&gt;Node5</title>
<path fill="none" stroke="midnightblue" d="M535.17,-141.82C507.2,-131.37 472.27,-118.32 446.18,-108.58"/>
<polygon fill="midnightblue" stroke="midnightblue" points="534.15,-145.18 544.74,-145.4 536.6,-138.62 534.15,-145.18"/>
</g>
<!-- Node7 -->
<g id="node7" class="node">
<title>Node7</title>
<g id="a_node7"><a xlink:href="Polygon_8h.html" target="_top" xlink:title=" ">
<polygon fill="none" stroke="black" points="857,-78.5 857,-108.5 1006,-108.5 1006,-78.5 857,-78.5"/>
<text text-anchor="start" x="865" y="-96.5" font-family="Helvetica,sans-Serif" font-size="10.00">include/VoronoiMeshMaker</text>
<text text-anchor="middle" x="931.5" y="-85.5" font-family="Helvetica,sans-Serif" font-size="10.00">/Shape/Shape2D/Polygon.h</text>
</a>
</g>
</g>
<!-- Node2&#45;&gt;Node7 -->
<g id="edge6" class="edge">
<title>Node2&#45;&gt;Node7</title>
<path fill="none" stroke="midnightblue" d="M667.66,-143.64C725.56,-132.86 801.42,-118.73 856.94,-108.39"/>
<polygon fill="midnightblue" stroke="midnightblue" points="666.99,-140.2 657.8,-145.48 668.27,-147.09 666.99,-140.2"/>
</g>
<!-- Node9 -->
<g id="node9" class="node">
<title>Node9</title>
<g id="a_node9"><a xlink:href="Rectangle_8h.html" target="_top" xlink:title=" ">
<polygon fill="none" stroke="black" points="682,-78.5 682,-108.5 839,-108.5 839,-78.5 682,-78.5"/>
<text text-anchor="start" x="690" y="-96.5" font-family="Helvetica,sans-Serif" font-size="10.00">include/VoronoiMeshMaker</text>
<text text-anchor="middle" x="760.5" y="-85.5" font-family="Helvetica,sans-Serif" font-size="10.00">/Shape/Shape2D/Rectangle.h</text>
</a>
</g>
</g>
<!-- Node2&#45;&gt;Node9 -->
<g id="edge8" class="edge">
<title>Node2&#45;&gt;Node9</title>
<path fill="none" stroke="midnightblue" d="M630.55,-141.96C659.22,-131.48 695.14,-118.37 721.95,-108.58"/>
<polygon fill="midnightblue" stroke="midnightblue" points="629.32,-138.68 621.12,-145.4 631.72,-145.25 629.32,-138.68"/>
</g>
<!-- Node11 -->
<g id="node11" class="node">
<title>Node11</title>
<g id="a_node11"><a xlink:href="Star_8h.html" target="_top" xlink:title=" ">
<polygon fill="none" stroke="black" points="0,-78.5 0,-108.5 149,-108.5 149,-78.5 0,-78.5"/>
<text text-anchor="start" x="8" y="-96.5" font-family="Helvetica,sans-Serif" font-size="10.00">include/VoronoiMeshMaker</text>
<text text-anchor="middle" x="74.5" y="-85.5" font-family="Helvetica,sans-Serif" font-size="10.00">/Shape/Shape2D/Star.h</text>
</a>
</g>
</g>
<!-- Node2&#45;&gt;Node11 -->
<g id="edge10" class="edge">
<title>Node2&#45;&gt;Node11</title>
<path fill="none" stroke="midnightblue" d="M496.18,-150.56C410.38,-141.36 275.1,-126 158.5,-109 155.42,-108.55 152.29,-108.08 149.12,-107.59"/>
<polygon fill="midnightblue" stroke="midnightblue" points="495.81,-154.04 506.13,-151.62 496.56,-147.08 495.81,-154.04"/>
</g>
<!-- Node13 -->
<g id="node13" class="node">
<title>Node13</title>
<g id="a_node13"><a xlink:href="Shape2D_8cpp.html" target="_top" xlink:title=" ">
<polygon fill="none" stroke="black" points="501,-78.5 501,-108.5 664,-108.5 664,-78.5 501,-78.5"/>
<text text-anchor="start" x="509" y="-96.5" font-family="Helvetica,sans-Serif" font-size="10.00">src/VoronoiMeshMaker</text>
<text text-anchor="middle" x="582.5" y="-85.5" font-family="Helvetica,sans-Serif" font-size="10.00">/Shape/Shape2D/Shape2D.cpp</text>
</a>
</g>
</g>
<!-- Node2&#45;&gt;Node13 -->
<g id="edge12" class="edge">
<title>Node2&#45;&gt;Node13</title>
<path fill="none" stroke="midnightblue" d="M582.5,-135.11C582.5,-126.15 582.5,-116.32 582.5,-108.58"/>
<polygon fill="midnightblue" stroke="midnightblue" points="579,-135.4 582.5,-145.4 586,-135.4 579,-135.4"/>
</g>
<!-- Node4 -->
<g id="node4" class="node">
<title>Node4</title>
<g id="a_node4"><a xlink:href="CommaSeparatedValues_8cpp.html" target="_top" xlink:title=" ">
<polygon fill="none" stroke="black" points="1045,-0.5 1045,-41.5 1232,-41.5 1232,-0.5 1045,-0.5"/>
<text text-anchor="start" x="1053" y="-29.5" font-family="Helvetica,sans-Serif" font-size="10.00">src/VoronoiMeshMaker</text>
<text text-anchor="start" x="1053" y="-18.5" font-family="Helvetica,sans-Serif" font-size="10.00">/Shape/Shape2D/CommaSeparated</text>
<text text-anchor="middle" x="1138.5" y="-7.5" font-family="Helvetica,sans-Serif" font-size="10.00">Values.cpp</text>
</a>
</g>
</g>
<!-- Node3&#45;&gt;Node4 -->
<g id="edge3" class="edge">
<title>Node3&#45;&gt;Node4</title>
<path fill="none" stroke="midnightblue" d="M1138.5,-67.98C1138.5,-59.35 1138.5,-49.76 1138.5,-41.59"/>
<polygon fill="midnightblue" stroke="midnightblue" points="1135,-68.23 1138.5,-78.23 1142,-68.23 1135,-68.23"/>
</g>
<!-- Node6 -->
<g id="node6" class="node">
<title>Node6</title>
<g id="a_node6"><a xlink:href="Ellipse_8cpp.html" target="_top" xlink:title=" ">
<polygon fill="none" stroke="black" points="330.5,-6 330.5,-36 482.5,-36 482.5,-6 330.5,-6"/>
<text text-anchor="start" x="338.5" y="-24" font-family="Helvetica,sans-Serif" font-size="10.00">src/VoronoiMeshMaker</text>
<text text-anchor="middle" x="406.5" y="-13" font-family="Helvetica,sans-Serif" font-size="10.00">/Shape/Shape2D/Ellipse.cpp</text>
</a>
</g>
</g>
<!-- Node5&#45;&gt;Node6 -->
<g id="edge5" class="edge">
<title>Node5&#45;&gt;Node6</title>
<path fill="none" stroke="midnightblue" d="M407.81,-68.23C407.51,-57.57 407.16,-45.41 406.9,-36.25"/>
<polygon fill="midnightblue" stroke="midnightblue" points="404.31,-68.34 408.1,-78.23 411.31,-68.14 404.31,-68.34"/>
</g>
<!-- Node8 -->
<g id="node8" class="node">
<title>Node8</title>
<g id="a_node8"><a xlink:href="Polygon_8cpp.html" target="_top" xlink:title=" ">
<polygon fill="none" stroke="black" points="852.5,-6 852.5,-36 1010.5,-36 1010.5,-6 852.5,-6"/>
<text text-anchor="start" x="860.5" y="-24" font-family="Helvetica,sans-Serif" font-size="10.00">src/VoronoiMeshMaker</text>
<text text-anchor="middle" x="931.5" y="-13" font-family="Helvetica,sans-Serif" font-size="10.00">/Shape/Shape2D/Polygon.cpp</text>
</a>
</g>
</g>
<!-- Node7&#45;&gt;Node8 -->
<g id="edge7" class="edge">
<title>Node7&#45;&gt;Node8</title>
<path fill="none" stroke="midnightblue" d="M931.5,-68.23C931.5,-57.57 931.5,-45.41 931.5,-36.25"/>
<polygon fill="midnightblue" stroke="midnightblue" points="928,-68.23 931.5,-78.23 935,-68.23 928,-68.23"/>
</g>
<!-- Node10 -->
<g id="node10" class="node">
<title>Node10</title>
<g id="a_node10"><a xlink:href="Rectangle_8cpp.html" target="_top" xlink:title=" ">
<polygon fill="none" stroke="black" points="583.5,-6 583.5,-36 751.5,-36 751.5,-6 583.5,-6"/>
<text text-anchor="start" x="591.5" y="-24" font-family="Helvetica,sans-Serif" font-size="10.00">src/VoronoiMeshMaker</text>
<text text-anchor="middle" x="667.5" y="-13" font-family="Helvetica,sans-Serif" font-size="10.00">/Shape/Shape2D/Rectangle.cpp</text>
</a>
</g>
</g>
<!-- Node9&#45;&gt;Node10 -->
<g id="edge9" class="edge">
<title>Node9&#45;&gt;Node10</title>
<path fill="none" stroke="midnightblue" d="M733.6,-72.11C718.33,-60.53 699.59,-46.33 685.97,-36"/>
<polygon fill="midnightblue" stroke="midnightblue" points="731.6,-74.98 741.68,-78.23 735.83,-69.4 731.6,-74.98"/>
</g>
<!-- Node12 -->
<g id="node12" class="node">
<title>Node12</title>
<g id="a_node12"><a xlink:href="Star_8cpp.html" target="_top" xlink:title=" ">
<polygon fill="none" stroke="black" points="11,-6 11,-36 150,-36 150,-6 11,-6"/>
<text text-anchor="start" x="19" y="-24" font-family="Helvetica,sans-Serif" font-size="10.00">src/VoronoiMeshMaker</text>
<text text-anchor="middle" x="80.5" y="-13" font-family="Helvetica,sans-Serif" font-size="10.00">/Shape/Shape2D/Star.cpp</text>
</a>
</g>
</g>
<!-- Node11&#45;&gt;Node12 -->
<g id="edge11" class="edge">
<title>Node11&#45;&gt;Node12</title>
<path fill="none" stroke="midnightblue" d="M76.57,-68.23C77.47,-57.57 78.51,-45.41 79.29,-36.25"/>
<polygon fill="midnightblue" stroke="midnightblue" points="73.07,-67.97 75.71,-78.23 80.05,-68.57 73.07,-67.97"/>
</g>
<!-- Node14&#45;&gt;Node6 -->
<g id="edge14" class="edge">
<title>Node14&#45;&gt;Node6</title>
<path fill="none" stroke="midnightblue" d="M283.99,-74.34C311.89,-62.42 347.84,-47.07 373.56,-36.07"/>
<polygon fill="midnightblue" stroke="midnightblue" points="282.31,-71.26 274.49,-78.4 285.06,-77.69 282.31,-71.26"/>
</g>
<!-- Node14&#45;&gt;Node10 -->
<g id="edge15" class="edge">
<title>Node14&#45;&gt;Node10</title>
<path fill="none" stroke="midnightblue" d="M326.14,-77.9C420.31,-62.09 516.6,-46.38 583.49,-35.55"/>
<polygon fill="midnightblue" stroke="midnightblue" points="325.43,-74.47 316.15,-79.58 326.59,-81.37 325.43,-74.47"/>
</g>
<!-- Node14&#45;&gt;Node12 -->
<g id="edge16" class="edge">
<title>Node14&#45;&gt;Node12</title>
<path fill="none" stroke="midnightblue" d="M200.04,-74.34C172.82,-62.42 137.74,-47.07 112.64,-36.07"/>
<polygon fill="midnightblue" stroke="midnightblue" points="198.74,-77.6 209.31,-78.4 201.55,-71.19 198.74,-77.6"/>
</g>
<!-- Node15 -->
<g id="node15" class="node">
<title>Node15</title>
<g id="a_node15"><a xlink:href="ShapeFactory_8cpp.html" target="_top" xlink:title="Implements the ShapeFactory methods for creating shape objects. This file contains the registration a...">
<polygon fill="none" stroke="black" points="173,-6 173,-36 310,-36 310,-6 173,-6"/>
<text text-anchor="start" x="181" y="-24" font-family="Helvetica,sans-Serif" font-size="10.00">src/VoronoiMeshMaker</text>
<text text-anchor="middle" x="241.5" y="-13" font-family="Helvetica,sans-Serif" font-size="10.00">/Shape/ShapeFactory.cpp</text>
</a>
</g>
</g>
<!-- Node14&#45;&gt;Node15 -->
<g id="edge17" class="edge">
<title>Node14&#45;&gt;Node15</title>
<path fill="none" stroke="midnightblue" d="M241.5,-68.23C241.5,-57.57 241.5,-45.41 241.5,-36.25"/>
<polygon fill="midnightblue" stroke="midnightblue" points="238,-68.23 241.5,-78.23 245,-68.23 238,-68.23"/>
</g>
</g>
</svg>
