<?xml version="1.0" encoding="UTF-8" standalone="no"?>
<!DOCTYPE svg PUBLIC "-//W3C//DTD SVG 1.1//EN"
 "http://www.w3.org/Graphics/SVG/1.1/DTD/svg11.dtd">
<!-- Generated by graphviz version 2.43.0 (0)
 -->
<!-- Title: include/VoronoiMeshMaker/Shape/ShapeFactory.h Pages: 1 -->
<svg width="994pt" height="385pt"
 viewBox="0.00 0.00 994.00 385.00" xmlns="http://www.w3.org/2000/svg" xmlns:xlink="http://www.w3.org/1999/xlink">
<g id="graph0" class="graph" transform="scale(1 1) rotate(0) translate(4 381)">
<title>include/VoronoiMeshMaker/Shape/ShapeFactory.h</title>
<!-- Node1 -->
<g id="node1" class="node">
<title>Node1</title>
<g id="a_node1"><a xlink:title=" ">
<polygon fill="#bfbfbf" stroke="black" points="105.5,-346.5 105.5,-376.5 254.5,-376.5 254.5,-346.5 105.5,-346.5"/>
<text text-anchor="start" x="113.5" y="-364.5" font-family="Helvetica,sans-Serif" font-size="10.00">include/VoronoiMeshMaker</text>
<text text-anchor="middle" x="180" y="-353.5" font-family="Helvetica,sans-Serif" font-size="10.00">/Shape/ShapeFactory.h</text>
</a>
</g>
</g>
<!-- Node2 -->
<g id="node2" class="node">
<title>Node2</title>
<g id="a_node2"><a xlink:title=" ">
<polygon fill="none" stroke="#bfbfbf" points="0,-285 0,-304 38,-304 38,-285 0,-285"/>
<text text-anchor="middle" x="19" y="-292" font-family="Helvetica,sans-Serif" font-size="10.00">map</text>
</a>
</g>
</g>
<!-- Node1&#45;&gt;Node2 -->
<g id="edge1" class="edge">
<title>Node1&#45;&gt;Node2</title>
<path fill="none" stroke="midnightblue" d="M139.35,-346.44C112.76,-336.91 77.44,-323.61 47,-310 46,-309.55 44.99,-309.09 43.97,-308.61"/>
<polygon fill="midnightblue" stroke="midnightblue" points="45.35,-305.39 34.84,-304.1 42.25,-311.67 45.35,-305.39"/>
</g>
<!-- Node3 -->
<g id="node3" class="node">
<title>Node3</title>
<g id="a_node3"><a xlink:title=" ">
<polygon fill="none" stroke="#bfbfbf" points="56.5,-285 56.5,-304 121.5,-304 121.5,-285 56.5,-285"/>
<text text-anchor="middle" x="89" y="-292" font-family="Helvetica,sans-Serif" font-size="10.00">functional</text>
</a>
</g>
</g>
<!-- Node1&#45;&gt;Node3 -->
<g id="edge2" class="edge">
<title>Node1&#45;&gt;Node3</title>
<path fill="none" stroke="midnightblue" d="M160.25,-346.4C145.14,-335.6 124.36,-320.76 109.14,-309.89"/>
<polygon fill="midnightblue" stroke="midnightblue" points="111.08,-306.97 100.91,-304.01 107.01,-312.67 111.08,-306.97"/>
</g>
<!-- Node4 -->
<g id="node4" class="node">
<title>Node4</title>
<g id="a_node4"><a xlink:title=" ">
<polygon fill="none" stroke="#bfbfbf" points="176,-11.5 176,-30.5 234,-30.5 234,-11.5 176,-11.5"/>
<text text-anchor="middle" x="205" y="-18.5" font-family="Helvetica,sans-Serif" font-size="10.00">memory</text>
</a>
</g>
</g>
<!-- Node1&#45;&gt;Node4 -->
<g id="edge3" class="edge">
<title>Node1&#45;&gt;Node4</title>
<path fill="none" stroke="midnightblue" d="M174.64,-346.48C166.01,-322.62 150,-272.45 150,-228.5 150,-228.5 150,-228.5 150,-159.5 150,-113.22 177.19,-64.04 193.34,-38.92"/>
<polygon fill="midnightblue" stroke="midnightblue" points="196.29,-40.8 198.9,-30.53 190.46,-36.93 196.29,-40.8"/>
</g>
<!-- Node5 -->
<g id="node5" class="node">
<title>Node5</title>
<g id="a_node5"><a xlink:title=" ">
<polygon fill="none" stroke="#bfbfbf" points="178.5,-285 178.5,-304 243.5,-304 243.5,-285 178.5,-285"/>
<text text-anchor="middle" x="211" y="-292" font-family="Helvetica,sans-Serif" font-size="10.00">stdexcept</text>
</a>
</g>
</g>
<!-- Node1&#45;&gt;Node5 -->
<g id="edge4" class="edge">
<title>Node1&#45;&gt;Node5</title>
<path fill="none" stroke="midnightblue" d="M186.73,-346.4C191.32,-336.76 197.45,-323.91 202.4,-313.54"/>
<polygon fill="midnightblue" stroke="midnightblue" points="205.71,-314.73 206.85,-304.19 199.39,-311.71 205.71,-314.73"/>
</g>
<!-- Node6 -->
<g id="node6" class="node">
<title>Node6</title>
<g id="a_node6"><a xlink:href="Shape_8h.html" target="_top" xlink:title="Defines the Shape class, which serves as the abstract base class for all shapes. This class provides ...">
<polygon fill="none" stroke="black" points="261.5,-279.5 261.5,-309.5 404.5,-309.5 404.5,-279.5 261.5,-279.5"/>
<text text-anchor="start" x="269.5" y="-297.5" font-family="Helvetica,sans-Serif" font-size="10.00">VoronoiMeshMaker/Shape</text>
<text text-anchor="middle" x="333" y="-286.5" font-family="Helvetica,sans-Serif" font-size="10.00">/Shape.h</text>
</a>
</g>
</g>
<!-- Node1&#45;&gt;Node6 -->
<g id="edge5" class="edge">
<title>Node1&#45;&gt;Node6</title>
<path fill="none" stroke="midnightblue" d="M213.2,-346.4C235.85,-336.77 266.07,-323.94 290.48,-313.56"/>
<polygon fill="midnightblue" stroke="midnightblue" points="292.03,-316.71 299.87,-309.58 289.29,-310.27 292.03,-316.71"/>
</g>
<!-- Node9 -->
<g id="node9" class="node">
<title>Node9</title>
<g id="a_node9"><a xlink:href="GeometricDataHolder_8h.html" target="_top" xlink:title="Defines the GeometricDataHolder class and the DataTraits for handling multiple data types....">
<polygon fill="none" stroke="black" points="357,-212.5 357,-242.5 527,-242.5 527,-212.5 357,-212.5"/>
<text text-anchor="start" x="365" y="-230.5" font-family="Helvetica,sans-Serif" font-size="10.00">VoronoiMeshMaker/Parameters</text>
<text text-anchor="middle" x="442" y="-219.5" font-family="Helvetica,sans-Serif" font-size="10.00">/GeometricDataHolder.h</text>
</a>
</g>
</g>
<!-- Node1&#45;&gt;Node9 -->
<g id="edge22" class="edge">
<title>Node1&#45;&gt;Node9</title>
<path fill="none" stroke="midnightblue" d="M254.55,-352.42C313.85,-344.57 390.62,-330.77 414,-310 430.36,-295.47 437.17,-270.93 440,-252.57"/>
<polygon fill="midnightblue" stroke="midnightblue" points="443.48,-252.95 441.24,-242.59 436.53,-252.08 443.48,-252.95"/>
</g>
<!-- Node6&#45;&gt;Node4 -->
<g id="edge7" class="edge">
<title>Node6&#45;&gt;Node4</title>
<path fill="none" stroke="midnightblue" d="M282.21,-279.4C263.54,-271.67 244.04,-260.06 232,-243 187.7,-180.2 195.93,-81.63 201.81,-40.74"/>
<polygon fill="midnightblue" stroke="midnightblue" points="205.31,-41.03 203.4,-30.61 198.39,-39.95 205.31,-41.03"/>
</g>
<!-- Node7 -->
<g id="node7" class="node">
<title>Node7</title>
<g id="a_node7"><a xlink:title=" ">
<polygon fill="none" stroke="#bfbfbf" points="241,-218 241,-237 301,-237 301,-218 241,-218"/>
<text text-anchor="middle" x="271" y="-225" font-family="Helvetica,sans-Serif" font-size="10.00">iostream</text>
</a>
</g>
</g>
<!-- Node6&#45;&gt;Node7 -->
<g id="edge6" class="edge">
<title>Node6&#45;&gt;Node7</title>
<path fill="none" stroke="midnightblue" d="M319.55,-279.4C309.78,-269.16 296.56,-255.3 286.38,-244.62"/>
<polygon fill="midnightblue" stroke="midnightblue" points="288.73,-242.01 279.29,-237.19 283.66,-246.85 288.73,-242.01"/>
</g>
<!-- Node8 -->
<g id="node8" class="node">
<title>Node8</title>
<g id="a_node8"><a xlink:title=" ">
<polygon fill="none" stroke="#bfbfbf" points="233,-151 233,-170 391,-170 391,-151 233,-151"/>
<text text-anchor="middle" x="312" y="-158" font-family="Helvetica,sans-Serif" font-size="10.00">VoronoiMeshMaker/Misc/ID.h</text>
</a>
</g>
</g>
<!-- Node6&#45;&gt;Node8 -->
<g id="edge8" class="edge">
<title>Node6&#45;&gt;Node8</title>
<path fill="none" stroke="midnightblue" d="M330.75,-279.37C326.94,-255.4 319.2,-206.75 314.95,-180.06"/>
<polygon fill="midnightblue" stroke="midnightblue" points="318.4,-179.42 313.37,-170.1 311.48,-180.52 318.4,-179.42"/>
</g>
<!-- Node6&#45;&gt;Node9 -->
<g id="edge9" class="edge">
<title>Node6&#45;&gt;Node9</title>
<path fill="none" stroke="midnightblue" d="M356.65,-279.4C372.08,-270.2 392.42,-258.07 409.38,-247.95"/>
<polygon fill="midnightblue" stroke="midnightblue" points="411.6,-250.7 418.39,-242.58 408.01,-244.69 411.6,-250.7"/>
</g>
<!-- Node9&#45;&gt;Node8 -->
<g id="edge11" class="edge">
<title>Node9&#45;&gt;Node8</title>
<path fill="none" stroke="midnightblue" d="M413.79,-212.4C391.28,-201.14 360,-185.5 338.08,-174.54"/>
<polygon fill="midnightblue" stroke="midnightblue" points="339.52,-171.35 329.01,-170.01 336.39,-177.61 339.52,-171.35"/>
</g>
<!-- Node10 -->
<g id="node10" class="node">
<title>Node10</title>
<g id="a_node10"><a xlink:title=" ">
<polygon fill="none" stroke="#bfbfbf" points="409.5,-151 409.5,-170 474.5,-170 474.5,-151 409.5,-151"/>
<text text-anchor="middle" x="442" y="-158" font-family="Helvetica,sans-Serif" font-size="10.00">execution</text>
</a>
</g>
</g>
<!-- Node9&#45;&gt;Node10 -->
<g id="edge10" class="edge">
<title>Node9&#45;&gt;Node10</title>
<path fill="none" stroke="midnightblue" d="M442,-212.4C442,-203.06 442,-190.71 442,-180.52"/>
<polygon fill="midnightblue" stroke="midnightblue" points="445.5,-180.19 442,-170.19 438.5,-180.19 445.5,-180.19"/>
</g>
<!-- Node11 -->
<g id="node11" class="node">
<title>Node11</title>
<g id="a_node11"><a xlink:href="GeometricDataTraits_8h.html" target="_top" xlink:title="Defines the GeometricDataTraits structure used for type identification and operations on various data...">
<polygon fill="none" stroke="black" points="493,-145.5 493,-175.5 663,-175.5 663,-145.5 493,-145.5"/>
<text text-anchor="start" x="501" y="-163.5" font-family="Helvetica,sans-Serif" font-size="10.00">VoronoiMeshMaker/Parameters</text>
<text text-anchor="middle" x="578" y="-152.5" font-family="Helvetica,sans-Serif" font-size="10.00">/GeometricDataTraits.h</text>
</a>
</g>
</g>
<!-- Node9&#45;&gt;Node11 -->
<g id="edge12" class="edge">
<title>Node9&#45;&gt;Node11</title>
<path fill="none" stroke="midnightblue" d="M471.51,-212.4C491.38,-202.9 517.79,-190.28 539.34,-179.98"/>
<polygon fill="midnightblue" stroke="midnightblue" points="541.03,-183.05 548.55,-175.58 538.02,-176.73 541.03,-183.05"/>
</g>
<!-- Node19 -->
<g id="node19" class="node">
<title>Node19</title>
<g id="a_node19"><a xlink:href="GeometricDataHolder_8tpp.html" target="_top" xlink:title=" ">
<polygon fill="none" stroke="black" points="681,-145.5 681,-175.5 851,-175.5 851,-145.5 681,-145.5"/>
<text text-anchor="start" x="689" y="-163.5" font-family="Helvetica,sans-Serif" font-size="10.00">VoronoiMeshMaker/Parameters</text>
<text text-anchor="middle" x="766" y="-152.5" font-family="Helvetica,sans-Serif" font-size="10.00">/GeometricDataHolder.tpp</text>
</a>
</g>
</g>
<!-- Node9&#45;&gt;Node19 -->
<g id="edge21" class="edge">
<title>Node9&#45;&gt;Node19</title>
<path fill="none" stroke="midnightblue" d="M511.9,-212.48C563.02,-202.22 632.46,-188.29 685.83,-177.58"/>
<polygon fill="midnightblue" stroke="midnightblue" points="686.83,-180.95 695.94,-175.55 685.45,-174.09 686.83,-180.95"/>
</g>
<!-- Node12 -->
<g id="node12" class="node">
<title>Node12</title>
<g id="a_node12"><a xlink:href="type_8h.html" target="_top" xlink:title="Defines common geometric and numeric types used in the VoronoiMeshMaker library.">
<polygon fill="none" stroke="black" points="473,-78.5 473,-108.5 609,-108.5 609,-78.5 473,-78.5"/>
<text text-anchor="start" x="481" y="-96.5" font-family="Helvetica,sans-Serif" font-size="10.00">VoronoiMeshMaker/Misc</text>
<text text-anchor="middle" x="541" y="-85.5" font-family="Helvetica,sans-Serif" font-size="10.00">/type.h</text>
</a>
</g>
</g>
<!-- Node11&#45;&gt;Node12 -->
<g id="edge13" class="edge">
<title>Node11&#45;&gt;Node12</title>
<path fill="none" stroke="midnightblue" d="M569.97,-145.4C565.32,-137.22 559.34,-126.73 554.03,-117.39"/>
<polygon fill="midnightblue" stroke="midnightblue" points="557,-115.54 549.01,-108.58 550.92,-119 557,-115.54"/>
</g>
<!-- Node12&#45;&gt;Node4 -->
<g id="edge15" class="edge">
<title>Node12&#45;&gt;Node4</title>
<path fill="none" stroke="midnightblue" d="M474.22,-78.49C405.39,-64.05 300.43,-42.02 244.06,-30.19"/>
<polygon fill="midnightblue" stroke="midnightblue" points="244.62,-26.74 234.11,-28.11 243.18,-33.59 244.62,-26.74"/>
</g>
<!-- Node13 -->
<g id="node13" class="node">
<title>Node13</title>
<g id="a_node13"><a xlink:title=" ">
<polygon fill="none" stroke="#bfbfbf" points="325,-11.5 325,-30.5 357,-30.5 357,-11.5 325,-11.5"/>
<text text-anchor="middle" x="341" y="-18.5" font-family="Helvetica,sans-Serif" font-size="10.00">list</text>
</a>
</g>
</g>
<!-- Node12&#45;&gt;Node13 -->
<g id="edge14" class="edge">
<title>Node12&#45;&gt;Node13</title>
<path fill="none" stroke="midnightblue" d="M472.69,-78.92C439.66,-70.82 400.11,-58.78 367,-42 364.15,-40.55 361.29,-38.78 358.58,-36.89"/>
<polygon fill="midnightblue" stroke="midnightblue" points="360.6,-34.03 350.54,-30.72 356.34,-39.59 360.6,-34.03"/>
</g>
<!-- Node14 -->
<g id="node14" class="node">
<title>Node14</title>
<g id="a_node14"><a xlink:title=" ">
<polygon fill="none" stroke="#bfbfbf" points="375.5,-11.5 375.5,-30.5 422.5,-30.5 422.5,-11.5 375.5,-11.5"/>
<text text-anchor="middle" x="399" y="-18.5" font-family="Helvetica,sans-Serif" font-size="10.00">vector</text>
</a>
</g>
</g>
<!-- Node12&#45;&gt;Node14 -->
<g id="edge16" class="edge">
<title>Node12&#45;&gt;Node14</title>
<path fill="none" stroke="midnightblue" d="M508.11,-78.4C486.23,-68.75 457.04,-55.33 432,-42 428.38,-40.07 424.6,-37.92 420.95,-35.76"/>
<polygon fill="midnightblue" stroke="midnightblue" points="422.66,-32.71 412.29,-30.52 419.03,-38.69 422.66,-32.71"/>
</g>
<!-- Node15 -->
<g id="node15" class="node">
<title>Node15</title>
<g id="a_node15"><a xlink:title=" ">
<polygon fill="none" stroke="#bfbfbf" points="440.5,-0.5 440.5,-41.5 569.5,-41.5 569.5,-0.5 440.5,-0.5"/>
<text text-anchor="start" x="448.5" y="-29.5" font-family="Helvetica,sans-Serif" font-size="10.00">CGAL/Exact_predicates</text>
<text text-anchor="start" x="448.5" y="-18.5" font-family="Helvetica,sans-Serif" font-size="10.00">_inexact_constructions</text>
<text text-anchor="middle" x="505" y="-7.5" font-family="Helvetica,sans-Serif" font-size="10.00">_kernel.h</text>
</a>
</g>
</g>
<!-- Node12&#45;&gt;Node15 -->
<g id="edge17" class="edge">
<title>Node12&#45;&gt;Node15</title>
<path fill="none" stroke="midnightblue" d="M533.71,-78.23C529.68,-70.33 524.51,-60.21 519.67,-50.74"/>
<polygon fill="midnightblue" stroke="midnightblue" points="522.67,-48.9 515,-41.59 516.43,-52.09 522.67,-48.9"/>
</g>
<!-- Node16 -->
<g id="node16" class="node">
<title>Node16</title>
<g id="a_node16"><a xlink:title=" ">
<polygon fill="none" stroke="#bfbfbf" points="587.5,-11.5 587.5,-30.5 692.5,-30.5 692.5,-11.5 587.5,-11.5"/>
<text text-anchor="middle" x="640" y="-18.5" font-family="Helvetica,sans-Serif" font-size="10.00">CGAL/Polygon_2.h</text>
</a>
</g>
</g>
<!-- Node12&#45;&gt;Node16 -->
<g id="edge18" class="edge">
<title>Node12&#45;&gt;Node16</title>
<path fill="none" stroke="midnightblue" d="M561.03,-78.23C578.07,-66.1 602.42,-48.76 619.56,-36.55"/>
<polygon fill="midnightblue" stroke="midnightblue" points="621.68,-39.34 627.8,-30.69 617.62,-33.64 621.68,-39.34"/>
</g>
<!-- Node17 -->
<g id="node17" class="node">
<title>Node17</title>
<g id="a_node17"><a xlink:title=" ">
<polygon fill="none" stroke="#bfbfbf" points="710.5,-11.5 710.5,-30.5 831.5,-30.5 831.5,-11.5 710.5,-11.5"/>
<text text-anchor="middle" x="771" y="-18.5" font-family="Helvetica,sans-Serif" font-size="10.00">CGAL/Polyhedron_3.h</text>
</a>
</g>
</g>
<!-- Node12&#45;&gt;Node17 -->
<g id="edge19" class="edge">
<title>Node12&#45;&gt;Node17</title>
<path fill="none" stroke="midnightblue" d="M586.72,-78.49C629.71,-65.31 693.3,-45.82 733.42,-33.52"/>
<polygon fill="midnightblue" stroke="midnightblue" points="734.55,-36.83 743.09,-30.55 732.5,-30.14 734.55,-36.83"/>
</g>
<!-- Node18 -->
<g id="node18" class="node">
<title>Node18</title>
<g id="a_node18"><a xlink:href="namespace_8h.html" target="_top" xlink:title=" ">
<polygon fill="none" stroke="black" points="850,-6 850,-36 986,-36 986,-6 850,-6"/>
<text text-anchor="start" x="858" y="-24" font-family="Helvetica,sans-Serif" font-size="10.00">VoronoiMeshMaker/Misc</text>
<text text-anchor="middle" x="918" y="-13" font-family="Helvetica,sans-Serif" font-size="10.00">/namespace.h</text>
</a>
</g>
</g>
<!-- Node12&#45;&gt;Node18 -->
<g id="edge20" class="edge">
<title>Node12&#45;&gt;Node18</title>
<path fill="none" stroke="midnightblue" d="M609.24,-82.75C670.25,-73.62 761.97,-58.88 841,-42 846.02,-40.93 851.21,-39.74 856.4,-38.51"/>
<polygon fill="midnightblue" stroke="midnightblue" points="857.49,-41.84 866.37,-36.07 855.83,-35.04 857.49,-41.84"/>
</g>
</g>
</svg>
