<?xml version="1.0" encoding="UTF-8" standalone="no"?>
<!DOCTYPE svg PUBLIC "-//W3C//DTD SVG 1.1//EN"
 "http://www.w3.org/Graphics/SVG/1.1/DTD/svg11.dtd">
<!-- Generated by graphviz version 2.43.0 (0)
 -->
<!-- Title: include/VoronoiMeshMaker/Shape/Shape2D/Shape2D.h Pages: 1 -->
<svg width="1094pt" height="184pt"
 viewBox="0.00 0.00 1094.00 184.00" xmlns="http://www.w3.org/2000/svg" xmlns:xlink="http://www.w3.org/1999/xlink">
<g id="graph0" class="graph" transform="scale(1 1) rotate(0) translate(4 180)">
<title>include/VoronoiMeshMaker/Shape/Shape2D/Shape2D.h</title>
<!-- Node1 -->
<g id="node1" class="node">
<title>Node1</title>
<g id="a_node1"><a xlink:title="Defines the Shape2D class, which represents 2D geometric shapes.">
<polygon fill="#bfbfbf" stroke="black" points="497.5,-145.5 497.5,-175.5 649.5,-175.5 649.5,-145.5 497.5,-145.5"/>
<text text-anchor="start" x="505.5" y="-163.5" font-family="Helvetica,sans-Serif" font-size="10.00">include/VoronoiMeshMaker</text>
<text text-anchor="middle" x="573.5" y="-152.5" font-family="Helvetica,sans-Serif" font-size="10.00">/Shape/Shape2D/Shape2D.h</text>
</a>
</g>
</g>
<!-- Node2 -->
<g id="node2" class="node">
<title>Node2</title>
<g id="a_node2"><a xlink:href="CommaSeparatedValues_8h.html" target="_top" xlink:title=" ">
<polygon fill="none" stroke="black" points="0,-78.5 0,-108.5 229,-108.5 229,-78.5 0,-78.5"/>
<text text-anchor="start" x="8" y="-96.5" font-family="Helvetica,sans-Serif" font-size="10.00">include/VoronoiMeshMaker</text>
<text text-anchor="middle" x="114.5" y="-85.5" font-family="Helvetica,sans-Serif" font-size="10.00">/Shape/Shape2D/CommaSeparatedValues.h</text>
</a>
</g>
</g>
<!-- Node1&#45;&gt;Node2 -->
<g id="edge1" class="edge">
<title>Node1&#45;&gt;Node2</title>
<path fill="none" stroke="midnightblue" d="M487.2,-147.28C409.41,-136.26 295.06,-120.07 213.57,-108.53"/>
<polygon fill="midnightblue" stroke="midnightblue" points="487.06,-150.79 497.45,-148.73 488.04,-143.86 487.06,-150.79"/>
</g>
<!-- Node4 -->
<g id="node4" class="node">
<title>Node4</title>
<g id="a_node4"><a xlink:href="Ellipse_8h.html" target="_top" xlink:title=" ">
<polygon fill="none" stroke="black" points="247,-78.5 247,-108.5 396,-108.5 396,-78.5 247,-78.5"/>
<text text-anchor="start" x="255" y="-96.5" font-family="Helvetica,sans-Serif" font-size="10.00">include/VoronoiMeshMaker</text>
<text text-anchor="middle" x="321.5" y="-85.5" font-family="Helvetica,sans-Serif" font-size="10.00">/Shape/Shape2D/Ellipse.h</text>
</a>
</g>
</g>
<!-- Node1&#45;&gt;Node4 -->
<g id="edge3" class="edge">
<title>Node1&#45;&gt;Node4</title>
<path fill="none" stroke="midnightblue" d="M509.21,-142.92C468.09,-132.31 415.32,-118.7 376.21,-108.61"/>
<polygon fill="midnightblue" stroke="midnightblue" points="508.57,-146.37 519.13,-145.48 510.32,-139.59 508.57,-146.37"/>
</g>
<!-- Node6 -->
<g id="node6" class="node">
<title>Node6</title>
<g id="a_node6"><a xlink:href="Polygon_8h.html" target="_top" xlink:title=" ">
<polygon fill="none" stroke="black" points="414,-78.5 414,-108.5 563,-108.5 563,-78.5 414,-78.5"/>
<text text-anchor="start" x="422" y="-96.5" font-family="Helvetica,sans-Serif" font-size="10.00">include/VoronoiMeshMaker</text>
<text text-anchor="middle" x="488.5" y="-85.5" font-family="Helvetica,sans-Serif" font-size="10.00">/Shape/Shape2D/Polygon.h</text>
</a>
</g>
</g>
<!-- Node1&#45;&gt;Node6 -->
<g id="edge5" class="edge">
<title>Node1&#45;&gt;Node6</title>
<path fill="none" stroke="midnightblue" d="M546.91,-139.17C533.91,-129.23 518.6,-117.51 506.91,-108.58"/>
<polygon fill="midnightblue" stroke="midnightblue" points="544.99,-142.1 555.06,-145.4 549.24,-136.54 544.99,-142.1"/>
</g>
<!-- Node8 -->
<g id="node8" class="node">
<title>Node8</title>
<g id="a_node8"><a xlink:href="Rectangle_8h.html" target="_top" xlink:title=" ">
<polygon fill="none" stroke="black" points="581,-78.5 581,-108.5 738,-108.5 738,-78.5 581,-78.5"/>
<text text-anchor="start" x="589" y="-96.5" font-family="Helvetica,sans-Serif" font-size="10.00">include/VoronoiMeshMaker</text>
<text text-anchor="middle" x="659.5" y="-85.5" font-family="Helvetica,sans-Serif" font-size="10.00">/Shape/Shape2D/Rectangle.h</text>
</a>
</g>
</g>
<!-- Node1&#45;&gt;Node8 -->
<g id="edge7" class="edge">
<title>Node1&#45;&gt;Node8</title>
<path fill="none" stroke="midnightblue" d="M600.4,-139.17C613.55,-129.23 629.05,-117.51 640.88,-108.58"/>
<polygon fill="midnightblue" stroke="midnightblue" points="598.03,-136.57 592.16,-145.4 602.25,-142.16 598.03,-136.57"/>
</g>
<!-- Node10 -->
<g id="node10" class="node">
<title>Node10</title>
<g id="a_node10"><a xlink:href="Star_8h.html" target="_top" xlink:title=" ">
<polygon fill="none" stroke="black" points="756,-78.5 756,-108.5 905,-108.5 905,-78.5 756,-78.5"/>
<text text-anchor="start" x="764" y="-96.5" font-family="Helvetica,sans-Serif" font-size="10.00">include/VoronoiMeshMaker</text>
<text text-anchor="middle" x="830.5" y="-85.5" font-family="Helvetica,sans-Serif" font-size="10.00">/Shape/Shape2D/Star.h</text>
</a>
</g>
</g>
<!-- Node1&#45;&gt;Node10 -->
<g id="edge9" class="edge">
<title>Node1&#45;&gt;Node10</title>
<path fill="none" stroke="midnightblue" d="M638.8,-142.98C680.78,-132.37 734.74,-118.72 774.71,-108.61"/>
<polygon fill="midnightblue" stroke="midnightblue" points="637.79,-139.63 628.95,-145.48 639.5,-146.42 637.79,-139.63"/>
</g>
<!-- Node12 -->
<g id="node12" class="node">
<title>Node12</title>
<g id="a_node12"><a xlink:href="Shape2D_8cpp.html" target="_top" xlink:title=" ">
<polygon fill="none" stroke="black" points="923,-78.5 923,-108.5 1086,-108.5 1086,-78.5 923,-78.5"/>
<text text-anchor="start" x="931" y="-96.5" font-family="Helvetica,sans-Serif" font-size="10.00">src/VoronoiMeshMaker</text>
<text text-anchor="middle" x="1004.5" y="-85.5" font-family="Helvetica,sans-Serif" font-size="10.00">/Shape/Shape2D/Shape2D.cpp</text>
</a>
</g>
</g>
<!-- Node1&#45;&gt;Node12 -->
<g id="edge11" class="edge">
<title>Node1&#45;&gt;Node12</title>
<path fill="none" stroke="midnightblue" d="M659.68,-147.05C728.64,-137.01 827.83,-122.4 914.5,-109 917.16,-108.59 919.86,-108.17 922.59,-107.74"/>
<polygon fill="midnightblue" stroke="midnightblue" points="659.12,-143.59 649.72,-148.49 660.12,-150.52 659.12,-143.59"/>
</g>
<!-- Node3 -->
<g id="node3" class="node">
<title>Node3</title>
<g id="a_node3"><a xlink:href="CommaSeparatedValues_8cpp.html" target="_top" xlink:title=" ">
<polygon fill="none" stroke="black" points="21,-0.5 21,-41.5 208,-41.5 208,-0.5 21,-0.5"/>
<text text-anchor="start" x="29" y="-29.5" font-family="Helvetica,sans-Serif" font-size="10.00">src/VoronoiMeshMaker</text>
<text text-anchor="start" x="29" y="-18.5" font-family="Helvetica,sans-Serif" font-size="10.00">/Shape/Shape2D/CommaSeparated</text>
<text text-anchor="middle" x="114.5" y="-7.5" font-family="Helvetica,sans-Serif" font-size="10.00">Values.cpp</text>
</a>
</g>
</g>
<!-- Node2&#45;&gt;Node3 -->
<g id="edge2" class="edge">
<title>Node2&#45;&gt;Node3</title>
<path fill="none" stroke="midnightblue" d="M114.5,-67.98C114.5,-59.35 114.5,-49.76 114.5,-41.59"/>
<polygon fill="midnightblue" stroke="midnightblue" points="111,-68.23 114.5,-78.23 118,-68.23 111,-68.23"/>
</g>
<!-- Node5 -->
<g id="node5" class="node">
<title>Node5</title>
<g id="a_node5"><a xlink:href="Ellipse_8cpp.html" target="_top" xlink:title=" ">
<polygon fill="none" stroke="black" points="234.5,-6 234.5,-36 386.5,-36 386.5,-6 234.5,-6"/>
<text text-anchor="start" x="242.5" y="-24" font-family="Helvetica,sans-Serif" font-size="10.00">src/VoronoiMeshMaker</text>
<text text-anchor="middle" x="310.5" y="-13" font-family="Helvetica,sans-Serif" font-size="10.00">/Shape/Shape2D/Ellipse.cpp</text>
</a>
</g>
</g>
<!-- Node4&#45;&gt;Node5 -->
<g id="edge4" class="edge">
<title>Node4&#45;&gt;Node5</title>
<path fill="none" stroke="midnightblue" d="M317.71,-68.23C316.05,-57.57 314.15,-45.41 312.72,-36.25"/>
<polygon fill="midnightblue" stroke="midnightblue" points="314.27,-68.89 319.27,-78.23 321.19,-67.81 314.27,-68.89"/>
</g>
<!-- Node7 -->
<g id="node7" class="node">
<title>Node7</title>
<g id="a_node7"><a xlink:href="Polygon_8cpp.html" target="_top" xlink:title=" ">
<polygon fill="none" stroke="black" points="404.5,-6 404.5,-36 562.5,-36 562.5,-6 404.5,-6"/>
<text text-anchor="start" x="412.5" y="-24" font-family="Helvetica,sans-Serif" font-size="10.00">src/VoronoiMeshMaker</text>
<text text-anchor="middle" x="483.5" y="-13" font-family="Helvetica,sans-Serif" font-size="10.00">/Shape/Shape2D/Polygon.cpp</text>
</a>
</g>
</g>
<!-- Node6&#45;&gt;Node7 -->
<g id="edge6" class="edge">
<title>Node6&#45;&gt;Node7</title>
<path fill="none" stroke="midnightblue" d="M486.78,-68.23C486.02,-57.57 485.16,-45.41 484.51,-36.25"/>
<polygon fill="midnightblue" stroke="midnightblue" points="483.29,-68.51 487.49,-78.23 490.27,-68.01 483.29,-68.51"/>
</g>
<!-- Node9 -->
<g id="node9" class="node">
<title>Node9</title>
<g id="a_node9"><a xlink:href="Rectangle_8cpp.html" target="_top" xlink:title=" ">
<polygon fill="none" stroke="black" points="580.5,-6 580.5,-36 748.5,-36 748.5,-6 580.5,-6"/>
<text text-anchor="start" x="588.5" y="-24" font-family="Helvetica,sans-Serif" font-size="10.00">src/VoronoiMeshMaker</text>
<text text-anchor="middle" x="664.5" y="-13" font-family="Helvetica,sans-Serif" font-size="10.00">/Shape/Shape2D/Rectangle.cpp</text>
</a>
</g>
</g>
<!-- Node8&#45;&gt;Node9 -->
<g id="edge8" class="edge">
<title>Node8&#45;&gt;Node9</title>
<path fill="none" stroke="midnightblue" d="M661.22,-68.23C661.98,-57.57 662.84,-45.41 663.49,-36.25"/>
<polygon fill="midnightblue" stroke="midnightblue" points="657.73,-68.01 660.51,-78.23 664.71,-68.51 657.73,-68.01"/>
</g>
<!-- Node11 -->
<g id="node11" class="node">
<title>Node11</title>
<g id="a_node11"><a xlink:href="Star_8cpp.html" target="_top" xlink:title=" ">
<polygon fill="none" stroke="black" points="767,-6 767,-36 906,-36 906,-6 767,-6"/>
<text text-anchor="start" x="775" y="-24" font-family="Helvetica,sans-Serif" font-size="10.00">src/VoronoiMeshMaker</text>
<text text-anchor="middle" x="836.5" y="-13" font-family="Helvetica,sans-Serif" font-size="10.00">/Shape/Shape2D/Star.cpp</text>
</a>
</g>
</g>
<!-- Node10&#45;&gt;Node11 -->
<g id="edge10" class="edge">
<title>Node10&#45;&gt;Node11</title>
<path fill="none" stroke="midnightblue" d="M832.57,-68.23C833.47,-57.57 834.51,-45.41 835.29,-36.25"/>
<polygon fill="midnightblue" stroke="midnightblue" points="829.07,-67.97 831.71,-78.23 836.05,-68.57 829.07,-67.97"/>
</g>
</g>
</svg>
