<?xml version="1.0" encoding="UTF-8" standalone="no"?>
<!DOCTYPE svg PUBLIC "-//W3C//DTD SVG 1.1//EN"
 "http://www.w3.org/Graphics/SVG/1.1/DTD/svg11.dtd">
<!-- Generated by graphviz version 2.43.0 (0)
 -->
<!-- Title: include/VoronoiMeshMaker/Shape/Shape.h Pages: 1 -->
<svg width="913pt" height="318pt"
 viewBox="0.00 0.00 913.00 318.00" xmlns="http://www.w3.org/2000/svg" xmlns:xlink="http://www.w3.org/1999/xlink">
<g id="graph0" class="graph" transform="scale(1 1) rotate(0) translate(4 314)">
<title>include/VoronoiMeshMaker/Shape/Shape.h</title>
<!-- Node1 -->
<g id="node1" class="node">
<title>Node1</title>
<g id="a_node1"><a xlink:title="Defines the Shape class, which serves as the abstract base class for all shapes. This class provides ...">
<polygon fill="#bfbfbf" stroke="black" points="66.5,-279.5 66.5,-309.5 215.5,-309.5 215.5,-279.5 66.5,-279.5"/>
<text text-anchor="start" x="74.5" y="-297.5" font-family="Helvetica,sans-Serif" font-size="10.00">include/VoronoiMeshMaker</text>
<text text-anchor="middle" x="141" y="-286.5" font-family="Helvetica,sans-Serif" font-size="10.00">/Shape/Shape.h</text>
</a>
</g>
</g>
<!-- Node2 -->
<g id="node2" class="node">
<title>Node2</title>
<g id="a_node2"><a xlink:title=" ">
<polygon fill="none" stroke="#bfbfbf" points="0,-218 0,-237 60,-237 60,-218 0,-218"/>
<text text-anchor="middle" x="30" y="-225" font-family="Helvetica,sans-Serif" font-size="10.00">iostream</text>
</a>
</g>
</g>
<!-- Node1&#45;&gt;Node2 -->
<g id="edge1" class="edge">
<title>Node1&#45;&gt;Node2</title>
<path fill="none" stroke="midnightblue" d="M116.91,-279.4C98.04,-268.34 71.94,-253.06 53.28,-242.13"/>
<polygon fill="midnightblue" stroke="midnightblue" points="54.93,-239.04 44.53,-237.01 51.39,-245.08 54.93,-239.04"/>
</g>
<!-- Node3 -->
<g id="node3" class="node">
<title>Node3</title>
<g id="a_node3"><a xlink:title=" ">
<polygon fill="none" stroke="#bfbfbf" points="132,-11.5 132,-30.5 190,-30.5 190,-11.5 132,-11.5"/>
<text text-anchor="middle" x="161" y="-18.5" font-family="Helvetica,sans-Serif" font-size="10.00">memory</text>
</a>
</g>
</g>
<!-- Node1&#45;&gt;Node3 -->
<g id="edge2" class="edge">
<title>Node1&#45;&gt;Node3</title>
<path fill="none" stroke="midnightblue" d="M133.53,-279.2C120.66,-252.77 96.63,-194.44 107,-145 115.34,-105.24 137.34,-62.63 150.54,-39.46"/>
<polygon fill="midnightblue" stroke="midnightblue" points="153.74,-40.93 155.75,-30.53 147.69,-37.4 153.74,-40.93"/>
</g>
<!-- Node4 -->
<g id="node4" class="node">
<title>Node4</title>
<g id="a_node4"><a xlink:title=" ">
<polygon fill="none" stroke="#bfbfbf" points="116,-151 116,-170 274,-170 274,-151 116,-151"/>
<text text-anchor="middle" x="195" y="-158" font-family="Helvetica,sans-Serif" font-size="10.00">VoronoiMeshMaker/Misc/ID.h</text>
</a>
</g>
</g>
<!-- Node1&#45;&gt;Node4 -->
<g id="edge3" class="edge">
<title>Node1&#45;&gt;Node4</title>
<path fill="none" stroke="midnightblue" d="M146.78,-279.37C156.63,-255.29 176.67,-206.31 187.55,-179.7"/>
<polygon fill="midnightblue" stroke="midnightblue" points="190.94,-180.68 191.48,-170.1 184.46,-178.03 190.94,-180.68"/>
</g>
<!-- Node5 -->
<g id="node5" class="node">
<title>Node5</title>
<g id="a_node5"><a xlink:href="GeometricDataHolder_8h.html" target="_top" xlink:title="Defines the GeometricDataHolder class and the DataTraits for handling multiple data types....">
<polygon fill="none" stroke="black" points="240,-212.5 240,-242.5 410,-242.5 410,-212.5 240,-212.5"/>
<text text-anchor="start" x="248" y="-230.5" font-family="Helvetica,sans-Serif" font-size="10.00">VoronoiMeshMaker/Parameters</text>
<text text-anchor="middle" x="325" y="-219.5" font-family="Helvetica,sans-Serif" font-size="10.00">/GeometricDataHolder.h</text>
</a>
</g>
</g>
<!-- Node1&#45;&gt;Node5 -->
<g id="edge4" class="edge">
<title>Node1&#45;&gt;Node5</title>
<path fill="none" stroke="midnightblue" d="M180.93,-279.4C208.65,-269.6 245.79,-256.48 275.42,-246.02"/>
<polygon fill="midnightblue" stroke="midnightblue" points="276.89,-249.21 285.15,-242.58 274.56,-242.61 276.89,-249.21"/>
</g>
<!-- Node5&#45;&gt;Node4 -->
<g id="edge6" class="edge">
<title>Node5&#45;&gt;Node4</title>
<path fill="none" stroke="midnightblue" d="M296.79,-212.4C274.28,-201.14 243,-185.5 221.08,-174.54"/>
<polygon fill="midnightblue" stroke="midnightblue" points="222.52,-171.35 212.01,-170.01 219.39,-177.61 222.52,-171.35"/>
</g>
<!-- Node6 -->
<g id="node6" class="node">
<title>Node6</title>
<g id="a_node6"><a xlink:title=" ">
<polygon fill="none" stroke="#bfbfbf" points="292.5,-151 292.5,-170 357.5,-170 357.5,-151 292.5,-151"/>
<text text-anchor="middle" x="325" y="-158" font-family="Helvetica,sans-Serif" font-size="10.00">execution</text>
</a>
</g>
</g>
<!-- Node5&#45;&gt;Node6 -->
<g id="edge5" class="edge">
<title>Node5&#45;&gt;Node6</title>
<path fill="none" stroke="midnightblue" d="M325,-212.4C325,-203.06 325,-190.71 325,-180.52"/>
<polygon fill="midnightblue" stroke="midnightblue" points="328.5,-180.19 325,-170.19 321.5,-180.19 328.5,-180.19"/>
</g>
<!-- Node7 -->
<g id="node7" class="node">
<title>Node7</title>
<g id="a_node7"><a xlink:href="GeometricDataTraits_8h.html" target="_top" xlink:title="Defines the GeometricDataTraits structure used for type identification and operations on various data...">
<polygon fill="none" stroke="black" points="376,-145.5 376,-175.5 546,-175.5 546,-145.5 376,-145.5"/>
<text text-anchor="start" x="384" y="-163.5" font-family="Helvetica,sans-Serif" font-size="10.00">VoronoiMeshMaker/Parameters</text>
<text text-anchor="middle" x="461" y="-152.5" font-family="Helvetica,sans-Serif" font-size="10.00">/GeometricDataTraits.h</text>
</a>
</g>
</g>
<!-- Node5&#45;&gt;Node7 -->
<g id="edge7" class="edge">
<title>Node5&#45;&gt;Node7</title>
<path fill="none" stroke="midnightblue" d="M354.51,-212.4C374.38,-202.9 400.79,-190.28 422.34,-179.98"/>
<polygon fill="midnightblue" stroke="midnightblue" points="424.03,-183.05 431.55,-175.58 421.02,-176.73 424.03,-183.05"/>
</g>
<!-- Node15 -->
<g id="node15" class="node">
<title>Node15</title>
<g id="a_node15"><a xlink:href="GeometricDataHolder_8tpp.html" target="_top" xlink:title=" ">
<polygon fill="none" stroke="black" points="564,-145.5 564,-175.5 734,-175.5 734,-145.5 564,-145.5"/>
<text text-anchor="start" x="572" y="-163.5" font-family="Helvetica,sans-Serif" font-size="10.00">VoronoiMeshMaker/Parameters</text>
<text text-anchor="middle" x="649" y="-152.5" font-family="Helvetica,sans-Serif" font-size="10.00">/GeometricDataHolder.tpp</text>
</a>
</g>
</g>
<!-- Node5&#45;&gt;Node15 -->
<g id="edge16" class="edge">
<title>Node5&#45;&gt;Node15</title>
<path fill="none" stroke="midnightblue" d="M394.9,-212.48C446.02,-202.22 515.46,-188.29 568.83,-177.58"/>
<polygon fill="midnightblue" stroke="midnightblue" points="569.83,-180.95 578.94,-175.55 568.45,-174.09 569.83,-180.95"/>
</g>
<!-- Node8 -->
<g id="node8" class="node">
<title>Node8</title>
<g id="a_node8"><a xlink:href="type_8h.html" target="_top" xlink:title="Defines common geometric and numeric types used in the VoronoiMeshMaker library.">
<polygon fill="none" stroke="black" points="374,-78.5 374,-108.5 510,-108.5 510,-78.5 374,-78.5"/>
<text text-anchor="start" x="382" y="-96.5" font-family="Helvetica,sans-Serif" font-size="10.00">VoronoiMeshMaker/Misc</text>
<text text-anchor="middle" x="442" y="-85.5" font-family="Helvetica,sans-Serif" font-size="10.00">/type.h</text>
</a>
</g>
</g>
<!-- Node7&#45;&gt;Node8 -->
<g id="edge8" class="edge">
<title>Node7&#45;&gt;Node8</title>
<path fill="none" stroke="midnightblue" d="M456.88,-145.4C454.56,-137.47 451.61,-127.38 448.95,-118.27"/>
<polygon fill="midnightblue" stroke="midnightblue" points="452.28,-117.19 446.11,-108.58 445.56,-119.16 452.28,-117.19"/>
</g>
<!-- Node8&#45;&gt;Node3 -->
<g id="edge10" class="edge">
<title>Node8&#45;&gt;Node3</title>
<path fill="none" stroke="midnightblue" d="M382.57,-78.41C341.14,-68.49 284.62,-54.76 235,-42 223.65,-39.08 211.36,-35.81 200.11,-32.76"/>
<polygon fill="midnightblue" stroke="midnightblue" points="200.7,-29.3 190.13,-30.05 198.86,-36.05 200.7,-29.3"/>
</g>
<!-- Node9 -->
<g id="node9" class="node">
<title>Node9</title>
<g id="a_node9"><a xlink:title=" ">
<polygon fill="none" stroke="#bfbfbf" points="244,-11.5 244,-30.5 276,-30.5 276,-11.5 244,-11.5"/>
<text text-anchor="middle" x="260" y="-18.5" font-family="Helvetica,sans-Serif" font-size="10.00">list</text>
</a>
</g>
</g>
<!-- Node8&#45;&gt;Node9 -->
<g id="edge9" class="edge">
<title>Node8&#45;&gt;Node9</title>
<path fill="none" stroke="midnightblue" d="M382.67,-78.46C352.7,-70.1 316.36,-57.97 286,-42 283.17,-40.51 280.33,-38.71 277.62,-36.81"/>
<polygon fill="midnightblue" stroke="midnightblue" points="279.64,-33.95 269.58,-30.64 275.38,-39.51 279.64,-33.95"/>
</g>
<!-- Node10 -->
<g id="node10" class="node">
<title>Node10</title>
<g id="a_node10"><a xlink:title=" ">
<polygon fill="none" stroke="#bfbfbf" points="294.5,-11.5 294.5,-30.5 341.5,-30.5 341.5,-11.5 294.5,-11.5"/>
<text text-anchor="middle" x="318" y="-18.5" font-family="Helvetica,sans-Serif" font-size="10.00">vector</text>
</a>
</g>
</g>
<!-- Node8&#45;&gt;Node10 -->
<g id="edge11" class="edge">
<title>Node8&#45;&gt;Node10</title>
<path fill="none" stroke="midnightblue" d="M415.96,-78.4C397.68,-68.41 372.72,-54.6 351,-42 347.68,-40.07 344.18,-38 340.77,-35.95"/>
<polygon fill="midnightblue" stroke="midnightblue" points="342.43,-32.87 332.06,-30.68 338.8,-38.86 342.43,-32.87"/>
</g>
<!-- Node11 -->
<g id="node11" class="node">
<title>Node11</title>
<g id="a_node11"><a xlink:title=" ">
<polygon fill="none" stroke="#bfbfbf" points="359.5,-0.5 359.5,-41.5 488.5,-41.5 488.5,-0.5 359.5,-0.5"/>
<text text-anchor="start" x="367.5" y="-29.5" font-family="Helvetica,sans-Serif" font-size="10.00">CGAL/Exact_predicates</text>
<text text-anchor="start" x="367.5" y="-18.5" font-family="Helvetica,sans-Serif" font-size="10.00">_inexact_constructions</text>
<text text-anchor="middle" x="424" y="-7.5" font-family="Helvetica,sans-Serif" font-size="10.00">_kernel.h</text>
</a>
</g>
</g>
<!-- Node8&#45;&gt;Node11 -->
<g id="edge12" class="edge">
<title>Node8&#45;&gt;Node11</title>
<path fill="none" stroke="midnightblue" d="M438.36,-78.23C436.38,-70.49 433.86,-60.63 431.49,-51.33"/>
<polygon fill="midnightblue" stroke="midnightblue" points="434.87,-50.41 429,-41.59 428.08,-52.14 434.87,-50.41"/>
</g>
<!-- Node12 -->
<g id="node12" class="node">
<title>Node12</title>
<g id="a_node12"><a xlink:title=" ">
<polygon fill="none" stroke="#bfbfbf" points="506.5,-11.5 506.5,-30.5 611.5,-30.5 611.5,-11.5 506.5,-11.5"/>
<text text-anchor="middle" x="559" y="-18.5" font-family="Helvetica,sans-Serif" font-size="10.00">CGAL/Polygon_2.h</text>
</a>
</g>
</g>
<!-- Node8&#45;&gt;Node12 -->
<g id="edge13" class="edge">
<title>Node8&#45;&gt;Node12</title>
<path fill="none" stroke="midnightblue" d="M465.4,-78.4C485.98,-66 515.77,-48.05 536.19,-35.75"/>
<polygon fill="midnightblue" stroke="midnightblue" points="538.08,-38.69 544.84,-30.53 534.47,-32.7 538.08,-38.69"/>
</g>
<!-- Node13 -->
<g id="node13" class="node">
<title>Node13</title>
<g id="a_node13"><a xlink:title=" ">
<polygon fill="none" stroke="#bfbfbf" points="629.5,-11.5 629.5,-30.5 750.5,-30.5 750.5,-11.5 629.5,-11.5"/>
<text text-anchor="middle" x="690" y="-18.5" font-family="Helvetica,sans-Serif" font-size="10.00">CGAL/Polyhedron_3.h</text>
</a>
</g>
</g>
<!-- Node8&#45;&gt;Node13 -->
<g id="edge14" class="edge">
<title>Node8&#45;&gt;Node13</title>
<path fill="none" stroke="midnightblue" d="M492.18,-78.45C528.08,-68.37 577.54,-54.43 621,-42 630.7,-39.23 641.16,-36.21 650.93,-33.38"/>
<polygon fill="midnightblue" stroke="midnightblue" points="652.18,-36.66 660.8,-30.51 650.22,-29.94 652.18,-36.66"/>
</g>
<!-- Node14 -->
<g id="node14" class="node">
<title>Node14</title>
<g id="a_node14"><a xlink:href="namespace_8h.html" target="_top" xlink:title=" ">
<polygon fill="none" stroke="black" points="769,-6 769,-36 905,-36 905,-6 769,-6"/>
<text text-anchor="start" x="777" y="-24" font-family="Helvetica,sans-Serif" font-size="10.00">VoronoiMeshMaker/Misc</text>
<text text-anchor="middle" x="837" y="-13" font-family="Helvetica,sans-Serif" font-size="10.00">/namespace.h</text>
</a>
</g>
</g>
<!-- Node8&#45;&gt;Node14 -->
<g id="edge15" class="edge">
<title>Node8&#45;&gt;Node14</title>
<path fill="none" stroke="midnightblue" d="M510.27,-83.6C574.91,-74.72 674.5,-59.85 760,-42 765.24,-40.91 770.66,-39.69 776.08,-38.4"/>
<polygon fill="midnightblue" stroke="midnightblue" points="776.91,-41.8 785.8,-36.03 775.26,-35 776.91,-41.8"/>
</g>
</g>
</svg>
