<?xml version="1.0" encoding="UTF-8" standalone="no"?>
<!DOCTYPE svg PUBLIC "-//W3C//DTD SVG 1.1//EN"
 "http://www.w3.org/Graphics/SVG/1.1/DTD/svg11.dtd">
<!-- Generated by graphviz version 2.43.0 (0)
 -->
<!-- Title: src/VoronoiMeshMaker/Shape/Shape2D/Star.cpp Pages: 1 -->
<svg width="1316pt" height="519pt"
 viewBox="0.00 0.00 1316.31 519.00" xmlns="http://www.w3.org/2000/svg" xmlns:xlink="http://www.w3.org/1999/xlink">
<g id="graph0" class="graph" transform="scale(1 1) rotate(0) translate(4 515)">
<title>src/VoronoiMeshMaker/Shape/Shape2D/Star.cpp</title>
<!-- Node1 -->
<g id="node1" class="node">
<title>Node1</title>
<g id="a_node1"><a xlink:title=" ">
<polygon fill="#bfbfbf" stroke="black" points="289.81,-480.5 289.81,-510.5 428.81,-510.5 428.81,-480.5 289.81,-480.5"/>
<text text-anchor="start" x="297.81" y="-498.5" font-family="Helvetica,sans-Serif" font-size="10.00">src/VoronoiMeshMaker</text>
<text text-anchor="middle" x="359.31" y="-487.5" font-family="Helvetica,sans-Serif" font-size="10.00">/Shape/Shape2D/Star.cpp</text>
</a>
</g>
</g>
<!-- Node2 -->
<g id="node2" class="node">
<title>Node2</title>
<g id="a_node2"><a xlink:href="Star_8h.html" target="_top" xlink:title=" ">
<polygon fill="none" stroke="black" points="157.81,-413.5 157.81,-443.5 300.81,-443.5 300.81,-413.5 157.81,-413.5"/>
<text text-anchor="start" x="165.81" y="-431.5" font-family="Helvetica,sans-Serif" font-size="10.00">VoronoiMeshMaker/Shape</text>
<text text-anchor="middle" x="229.31" y="-420.5" font-family="Helvetica,sans-Serif" font-size="10.00">/Shape2D/Star.h</text>
</a>
</g>
</g>
<!-- Node1&#45;&gt;Node2 -->
<g id="edge1" class="edge">
<title>Node1&#45;&gt;Node2</title>
<path fill="none" stroke="midnightblue" d="M331.1,-480.4C312.2,-470.94 287.09,-458.39 266.55,-448.12"/>
<polygon fill="midnightblue" stroke="midnightblue" points="267.98,-444.92 257.47,-443.58 264.84,-451.18 267.98,-444.92"/>
</g>
<!-- Node19 -->
<g id="node19" class="node">
<title>Node19</title>
<g id="a_node19"><a xlink:href="MakerException_8h.html" target="_top" xlink:title=" ">
<polygon fill="none" stroke="black" points="640.81,-413.5 640.81,-443.5 777.81,-443.5 777.81,-413.5 640.81,-413.5"/>
<text text-anchor="start" x="648.81" y="-431.5" font-family="Helvetica,sans-Serif" font-size="10.00">VoronoiMeshMaker/Error</text>
<text text-anchor="middle" x="709.31" y="-420.5" font-family="Helvetica,sans-Serif" font-size="10.00">/MakerException.h</text>
</a>
</g>
</g>
<!-- Node1&#45;&gt;Node19 -->
<g id="edge20" class="edge">
<title>Node1&#45;&gt;Node19</title>
<path fill="none" stroke="midnightblue" d="M428.88,-481.58C487.14,-470.76 570.25,-455.33 630.87,-444.07"/>
<polygon fill="midnightblue" stroke="midnightblue" points="631.58,-447.5 640.77,-442.23 630.3,-440.61 631.58,-447.5"/>
</g>
<!-- Node28 -->
<g id="node28" class="node">
<title>Node28</title>
<g id="a_node28"><a xlink:href="ShapeFactory_8h.html" target="_top" xlink:title=" ">
<polygon fill="none" stroke="black" points="287.81,-346.5 287.81,-376.5 430.81,-376.5 430.81,-346.5 287.81,-346.5"/>
<text text-anchor="start" x="295.81" y="-364.5" font-family="Helvetica,sans-Serif" font-size="10.00">VoronoiMeshMaker/Shape</text>
<text text-anchor="middle" x="359.31" y="-353.5" font-family="Helvetica,sans-Serif" font-size="10.00">/ShapeFactory.h</text>
</a>
</g>
</g>
<!-- Node1&#45;&gt;Node28 -->
<g id="edge31" class="edge">
<title>Node1&#45;&gt;Node28</title>
<path fill="none" stroke="midnightblue" d="M359.31,-480.37C359.31,-458.04 359.31,-414.31 359.31,-386.85"/>
<polygon fill="midnightblue" stroke="midnightblue" points="362.81,-386.52 359.31,-376.52 355.81,-386.52 362.81,-386.52"/>
</g>
<!-- Node3 -->
<g id="node3" class="node">
<title>Node3</title>
<g id="a_node3"><a xlink:href="Shape2D_8h.html" target="_top" xlink:title="Defines the Shape2D class, which represents 2D geometric shapes.">
<polygon fill="none" stroke="black" points="109.81,-346.5 109.81,-376.5 252.81,-376.5 252.81,-346.5 109.81,-346.5"/>
<text text-anchor="start" x="117.81" y="-364.5" font-family="Helvetica,sans-Serif" font-size="10.00">VoronoiMeshMaker/Shape</text>
<text text-anchor="middle" x="181.31" y="-353.5" font-family="Helvetica,sans-Serif" font-size="10.00">/Shape2D/Shape2D.h</text>
</a>
</g>
</g>
<!-- Node2&#45;&gt;Node3 -->
<g id="edge2" class="edge">
<title>Node2&#45;&gt;Node3</title>
<path fill="none" stroke="midnightblue" d="M218.9,-413.4C212.73,-405.05 204.79,-394.29 197.79,-384.81"/>
<polygon fill="midnightblue" stroke="midnightblue" points="200.46,-382.54 191.71,-376.58 194.83,-386.7 200.46,-382.54"/>
</g>
<!-- Node4 -->
<g id="node4" class="node">
<title>Node4</title>
<g id="a_node4"><a xlink:href="Shape_8h.html" target="_top" xlink:title="Defines the Shape class, which serves as the abstract base class for all shapes. This class provides ...">
<polygon fill="none" stroke="black" points="97.81,-279.5 97.81,-309.5 240.81,-309.5 240.81,-279.5 97.81,-279.5"/>
<text text-anchor="start" x="105.81" y="-297.5" font-family="Helvetica,sans-Serif" font-size="10.00">VoronoiMeshMaker/Shape</text>
<text text-anchor="middle" x="169.31" y="-286.5" font-family="Helvetica,sans-Serif" font-size="10.00">/Shape.h</text>
</a>
</g>
</g>
<!-- Node3&#45;&gt;Node4 -->
<g id="edge3" class="edge">
<title>Node3&#45;&gt;Node4</title>
<path fill="none" stroke="midnightblue" d="M178.71,-346.4C177.26,-338.56 175.42,-328.6 173.76,-319.57"/>
<polygon fill="midnightblue" stroke="midnightblue" points="177.17,-318.77 171.91,-309.58 170.29,-320.05 177.17,-318.77"/>
</g>
<!-- Node5 -->
<g id="node5" class="node">
<title>Node5</title>
<g id="a_node5"><a xlink:title=" ">
<polygon fill="none" stroke="#bfbfbf" points="75.31,-218 75.31,-237 135.31,-237 135.31,-218 75.31,-218"/>
<text text-anchor="middle" x="105.31" y="-225" font-family="Helvetica,sans-Serif" font-size="10.00">iostream</text>
</a>
</g>
</g>
<!-- Node4&#45;&gt;Node5 -->
<g id="edge4" class="edge">
<title>Node4&#45;&gt;Node5</title>
<path fill="none" stroke="midnightblue" d="M155.43,-279.4C145.35,-269.16 131.7,-255.3 121.19,-244.62"/>
<polygon fill="midnightblue" stroke="midnightblue" points="123.38,-241.86 113.87,-237.19 118.4,-246.78 123.38,-241.86"/>
</g>
<!-- Node6 -->
<g id="node6" class="node">
<title>Node6</title>
<g id="a_node6"><a xlink:title=" ">
<polygon fill="none" stroke="#bfbfbf" points="571.31,-11.5 571.31,-30.5 629.31,-30.5 629.31,-11.5 571.31,-11.5"/>
<text text-anchor="middle" x="600.31" y="-18.5" font-family="Helvetica,sans-Serif" font-size="10.00">memory</text>
</a>
</g>
</g>
<!-- Node4&#45;&gt;Node6 -->
<g id="edge5" class="edge">
<title>Node4&#45;&gt;Node6</title>
<path fill="none" stroke="midnightblue" d="M132.82,-279.46C73.38,-254.55 -33.44,-200.07 11.31,-145 81.26,-58.93 440.4,-31.02 560.87,-24"/>
<polygon fill="midnightblue" stroke="midnightblue" points="561.32,-27.48 571.11,-23.42 560.93,-20.49 561.32,-27.48"/>
</g>
<!-- Node7 -->
<g id="node7" class="node">
<title>Node7</title>
<g id="a_node7"><a xlink:title=" ">
<polygon fill="none" stroke="#bfbfbf" points="20.31,-151 20.31,-170 178.31,-170 178.31,-151 20.31,-151"/>
<text text-anchor="middle" x="99.31" y="-158" font-family="Helvetica,sans-Serif" font-size="10.00">VoronoiMeshMaker/Misc/ID.h</text>
</a>
</g>
</g>
<!-- Node4&#45;&gt;Node7 -->
<g id="edge6" class="edge">
<title>Node4&#45;&gt;Node7</title>
<path fill="none" stroke="midnightblue" d="M166.86,-279.21C163.55,-262.33 156.58,-233.8 144.31,-212 137.02,-199.05 125.94,-186.56 116.6,-177.24"/>
<polygon fill="midnightblue" stroke="midnightblue" points="118.92,-174.62 109.28,-170.22 114.08,-179.67 118.92,-174.62"/>
</g>
<!-- Node8 -->
<g id="node8" class="node">
<title>Node8</title>
<g id="a_node8"><a xlink:href="GeometricDataHolder_8h.html" target="_top" xlink:title="Defines the GeometricDataHolder class and the DataTraits for handling multiple data types....">
<polygon fill="none" stroke="black" points="191.31,-212.5 191.31,-242.5 361.31,-242.5 361.31,-212.5 191.31,-212.5"/>
<text text-anchor="start" x="199.31" y="-230.5" font-family="Helvetica,sans-Serif" font-size="10.00">VoronoiMeshMaker/Parameters</text>
<text text-anchor="middle" x="276.31" y="-219.5" font-family="Helvetica,sans-Serif" font-size="10.00">/GeometricDataHolder.h</text>
</a>
</g>
</g>
<!-- Node4&#45;&gt;Node8 -->
<g id="edge7" class="edge">
<title>Node4&#45;&gt;Node8</title>
<path fill="none" stroke="midnightblue" d="M192.53,-279.4C207.67,-270.2 227.64,-258.07 244.29,-247.95"/>
<polygon fill="midnightblue" stroke="midnightblue" points="246.41,-250.76 253.14,-242.58 242.78,-244.78 246.41,-250.76"/>
</g>
<!-- Node8&#45;&gt;Node7 -->
<g id="edge9" class="edge">
<title>Node8&#45;&gt;Node7</title>
<path fill="none" stroke="midnightblue" d="M237.91,-212.4C206.3,-200.79 161.98,-184.51 132.04,-173.52"/>
<polygon fill="midnightblue" stroke="midnightblue" points="133.07,-170.17 122.48,-170.01 130.66,-176.74 133.07,-170.17"/>
</g>
<!-- Node9 -->
<g id="node9" class="node">
<title>Node9</title>
<g id="a_node9"><a xlink:title=" ">
<polygon fill="none" stroke="#bfbfbf" points="196.81,-151 196.81,-170 261.81,-170 261.81,-151 196.81,-151"/>
<text text-anchor="middle" x="229.31" y="-158" font-family="Helvetica,sans-Serif" font-size="10.00">execution</text>
</a>
</g>
</g>
<!-- Node8&#45;&gt;Node9 -->
<g id="edge8" class="edge">
<title>Node8&#45;&gt;Node9</title>
<path fill="none" stroke="midnightblue" d="M266.11,-212.4C258.93,-202.46 249.28,-189.11 241.66,-178.57"/>
<polygon fill="midnightblue" stroke="midnightblue" points="244.3,-176.25 235.6,-170.19 238.62,-180.35 244.3,-176.25"/>
</g>
<!-- Node10 -->
<g id="node10" class="node">
<title>Node10</title>
<g id="a_node10"><a xlink:href="GeometricDataTraits_8h.html" target="_top" xlink:title="Defines the GeometricDataTraits structure used for type identification and operations on various data...">
<polygon fill="none" stroke="black" points="468.31,-145.5 468.31,-175.5 638.31,-175.5 638.31,-145.5 468.31,-145.5"/>
<text text-anchor="start" x="476.31" y="-163.5" font-family="Helvetica,sans-Serif" font-size="10.00">VoronoiMeshMaker/Parameters</text>
<text text-anchor="middle" x="553.31" y="-152.5" font-family="Helvetica,sans-Serif" font-size="10.00">/GeometricDataTraits.h</text>
</a>
</g>
</g>
<!-- Node8&#45;&gt;Node10 -->
<g id="edge10" class="edge">
<title>Node8&#45;&gt;Node10</title>
<path fill="none" stroke="midnightblue" d="M336.08,-212.48C379.34,-202.32 437.96,-188.57 483.4,-177.91"/>
<polygon fill="midnightblue" stroke="midnightblue" points="484.24,-181.3 493.18,-175.61 482.64,-174.49 484.24,-181.3"/>
</g>
<!-- Node18 -->
<g id="node18" class="node">
<title>Node18</title>
<g id="a_node18"><a xlink:href="GeometricDataHolder_8tpp.html" target="_top" xlink:title=" ">
<polygon fill="none" stroke="black" points="280.31,-145.5 280.31,-175.5 450.31,-175.5 450.31,-145.5 280.31,-145.5"/>
<text text-anchor="start" x="288.31" y="-163.5" font-family="Helvetica,sans-Serif" font-size="10.00">VoronoiMeshMaker/Parameters</text>
<text text-anchor="middle" x="365.31" y="-152.5" font-family="Helvetica,sans-Serif" font-size="10.00">/GeometricDataHolder.tpp</text>
</a>
</g>
</g>
<!-- Node8&#45;&gt;Node18 -->
<g id="edge19" class="edge">
<title>Node8&#45;&gt;Node18</title>
<path fill="none" stroke="midnightblue" d="M295.62,-212.4C307.99,-203.37 324.22,-191.51 337.9,-181.52"/>
<polygon fill="midnightblue" stroke="midnightblue" points="340.03,-184.3 346.04,-175.58 335.9,-178.65 340.03,-184.3"/>
</g>
<!-- Node11 -->
<g id="node11" class="node">
<title>Node11</title>
<g id="a_node11"><a xlink:href="type_8h.html" target="_top" xlink:title="Defines common geometric and numeric types used in the VoronoiMeshMaker library.">
<polygon fill="none" stroke="black" points="759.31,-78.5 759.31,-108.5 895.31,-108.5 895.31,-78.5 759.31,-78.5"/>
<text text-anchor="start" x="767.31" y="-96.5" font-family="Helvetica,sans-Serif" font-size="10.00">VoronoiMeshMaker/Misc</text>
<text text-anchor="middle" x="827.31" y="-85.5" font-family="Helvetica,sans-Serif" font-size="10.00">/type.h</text>
</a>
</g>
</g>
<!-- Node10&#45;&gt;Node11 -->
<g id="edge11" class="edge">
<title>Node10&#45;&gt;Node11</title>
<path fill="none" stroke="midnightblue" d="M612.43,-145.48C655.14,-135.34 712.97,-121.63 757.87,-110.97"/>
<polygon fill="midnightblue" stroke="midnightblue" points="758.91,-114.32 767.83,-108.61 757.29,-107.51 758.91,-114.32"/>
</g>
<!-- Node11&#45;&gt;Node6 -->
<g id="edge13" class="edge">
<title>Node11&#45;&gt;Node6</title>
<path fill="none" stroke="midnightblue" d="M760.11,-78.41C723.47,-69.77 677.69,-57.4 638.31,-42 633.53,-40.13 628.57,-37.82 623.88,-35.44"/>
<polygon fill="midnightblue" stroke="midnightblue" points="625.22,-32.19 614.75,-30.58 621.93,-38.37 625.22,-32.19"/>
</g>
<!-- Node12 -->
<g id="node12" class="node">
<title>Node12</title>
<g id="a_node12"><a xlink:title=" ">
<polygon fill="none" stroke="#bfbfbf" points="647.31,-11.5 647.31,-30.5 679.31,-30.5 679.31,-11.5 647.31,-11.5"/>
<text text-anchor="middle" x="663.31" y="-18.5" font-family="Helvetica,sans-Serif" font-size="10.00">list</text>
</a>
</g>
</g>
<!-- Node11&#45;&gt;Node12 -->
<g id="edge12" class="edge">
<title>Node11&#45;&gt;Node12</title>
<path fill="none" stroke="midnightblue" d="M777.83,-78.44C750.81,-69.78 717.25,-57.38 689.31,-42 686.51,-40.46 683.68,-38.63 680.98,-36.71"/>
<polygon fill="midnightblue" stroke="midnightblue" points="683.01,-33.85 672.94,-30.54 678.75,-39.41 683.01,-33.85"/>
</g>
<!-- Node13 -->
<g id="node13" class="node">
<title>Node13</title>
<g id="a_node13"><a xlink:title=" ">
<polygon fill="none" stroke="#bfbfbf" points="697.81,-11.5 697.81,-30.5 744.81,-30.5 744.81,-11.5 697.81,-11.5"/>
<text text-anchor="middle" x="721.31" y="-18.5" font-family="Helvetica,sans-Serif" font-size="10.00">vector</text>
</a>
</g>
</g>
<!-- Node11&#45;&gt;Node13 -->
<g id="edge14" class="edge">
<title>Node11&#45;&gt;Node13</title>
<path fill="none" stroke="midnightblue" d="M806.12,-78.4C787.63,-66.11 760.96,-48.37 742.48,-36.08"/>
<polygon fill="midnightblue" stroke="midnightblue" points="744.41,-33.16 734.14,-30.53 740.53,-38.99 744.41,-33.16"/>
</g>
<!-- Node14 -->
<g id="node14" class="node">
<title>Node14</title>
<g id="a_node14"><a xlink:title=" ">
<polygon fill="none" stroke="#bfbfbf" points="762.81,-0.5 762.81,-41.5 891.81,-41.5 891.81,-0.5 762.81,-0.5"/>
<text text-anchor="start" x="770.81" y="-29.5" font-family="Helvetica,sans-Serif" font-size="10.00">CGAL/Exact_predicates</text>
<text text-anchor="start" x="770.81" y="-18.5" font-family="Helvetica,sans-Serif" font-size="10.00">_inexact_constructions</text>
<text text-anchor="middle" x="827.31" y="-7.5" font-family="Helvetica,sans-Serif" font-size="10.00">_kernel.h</text>
</a>
</g>
</g>
<!-- Node11&#45;&gt;Node14 -->
<g id="edge15" class="edge">
<title>Node11&#45;&gt;Node14</title>
<path fill="none" stroke="midnightblue" d="M827.31,-78.23C827.31,-70.57 827.31,-60.84 827.31,-51.63"/>
<polygon fill="midnightblue" stroke="midnightblue" points="830.81,-51.59 827.31,-41.59 823.81,-51.59 830.81,-51.59"/>
</g>
<!-- Node15 -->
<g id="node15" class="node">
<title>Node15</title>
<g id="a_node15"><a xlink:title=" ">
<polygon fill="none" stroke="#bfbfbf" points="909.81,-11.5 909.81,-30.5 1014.81,-30.5 1014.81,-11.5 909.81,-11.5"/>
<text text-anchor="middle" x="962.31" y="-18.5" font-family="Helvetica,sans-Serif" font-size="10.00">CGAL/Polygon_2.h</text>
</a>
</g>
</g>
<!-- Node11&#45;&gt;Node15 -->
<g id="edge16" class="edge">
<title>Node11&#45;&gt;Node15</title>
<path fill="none" stroke="midnightblue" d="M854.31,-78.4C878.38,-65.83 913.37,-47.56 936.94,-35.25"/>
<polygon fill="midnightblue" stroke="midnightblue" points="938.73,-38.27 945.97,-30.53 935.49,-32.06 938.73,-38.27"/>
</g>
<!-- Node16 -->
<g id="node16" class="node">
<title>Node16</title>
<g id="a_node16"><a xlink:title=" ">
<polygon fill="none" stroke="#bfbfbf" points="1032.81,-11.5 1032.81,-30.5 1153.81,-30.5 1153.81,-11.5 1032.81,-11.5"/>
<text text-anchor="middle" x="1093.31" y="-18.5" font-family="Helvetica,sans-Serif" font-size="10.00">CGAL/Polyhedron_3.h</text>
</a>
</g>
</g>
<!-- Node11&#45;&gt;Node16 -->
<g id="edge17" class="edge">
<title>Node11&#45;&gt;Node16</title>
<path fill="none" stroke="midnightblue" d="M883.91,-78.49C923.35,-68.6 977.14,-54.88 1024.31,-42 1034.24,-39.29 1044.93,-36.25 1054.87,-33.37"/>
<polygon fill="midnightblue" stroke="midnightblue" points="1055.88,-36.73 1064.5,-30.57 1053.92,-30 1055.88,-36.73"/>
</g>
<!-- Node17 -->
<g id="node17" class="node">
<title>Node17</title>
<g id="a_node17"><a xlink:href="namespace_8h.html" target="_top" xlink:title=" ">
<polygon fill="none" stroke="black" points="1172.31,-6 1172.31,-36 1308.31,-36 1308.31,-6 1172.31,-6"/>
<text text-anchor="start" x="1180.31" y="-24" font-family="Helvetica,sans-Serif" font-size="10.00">VoronoiMeshMaker/Misc</text>
<text text-anchor="middle" x="1240.31" y="-13" font-family="Helvetica,sans-Serif" font-size="10.00">/namespace.h</text>
</a>
</g>
</g>
<!-- Node11&#45;&gt;Node17 -->
<g id="edge18" class="edge">
<title>Node11&#45;&gt;Node17</title>
<path fill="none" stroke="midnightblue" d="M895.58,-84.38C963.72,-75.76 1071.28,-60.81 1163.31,-42 1168.56,-40.93 1173.98,-39.72 1179.4,-38.45"/>
<polygon fill="midnightblue" stroke="midnightblue" points="1180.23,-41.85 1189.13,-36.09 1178.59,-35.04 1180.23,-41.85"/>
</g>
<!-- Node20 -->
<g id="node20" class="node">
<title>Node20</title>
<g id="a_node20"><a xlink:title=" ">
<polygon fill="none" stroke="#bfbfbf" points="651.31,-352 651.31,-371 695.31,-371 695.31,-352 651.31,-352"/>
<text text-anchor="middle" x="673.31" y="-359" font-family="Helvetica,sans-Serif" font-size="10.00">string</text>
</a>
</g>
</g>
<!-- Node19&#45;&gt;Node20 -->
<g id="edge21" class="edge">
<title>Node19&#45;&gt;Node20</title>
<path fill="none" stroke="midnightblue" d="M701.5,-413.4C696.11,-403.66 688.9,-390.65 683.12,-380.21"/>
<polygon fill="midnightblue" stroke="midnightblue" points="686.04,-378.25 678.13,-371.19 679.91,-381.64 686.04,-378.25"/>
</g>
<!-- Node21 -->
<g id="node21" class="node">
<title>Node21</title>
<g id="a_node21"><a xlink:title=" ">
<polygon fill="none" stroke="#bfbfbf" points="713.81,-352 713.81,-371 778.81,-371 778.81,-352 713.81,-352"/>
<text text-anchor="middle" x="746.31" y="-359" font-family="Helvetica,sans-Serif" font-size="10.00">exception</text>
</a>
</g>
</g>
<!-- Node19&#45;&gt;Node21 -->
<g id="edge22" class="edge">
<title>Node19&#45;&gt;Node21</title>
<path fill="none" stroke="midnightblue" d="M717.34,-413.4C722.94,-403.56 730.44,-390.38 736.41,-379.89"/>
<polygon fill="midnightblue" stroke="midnightblue" points="739.46,-381.62 741.36,-371.19 733.37,-378.15 739.46,-381.62"/>
</g>
<!-- Node22 -->
<g id="node22" class="node">
<title>Node22</title>
<g id="a_node22"><a xlink:title=" ">
<polygon fill="none" stroke="#bfbfbf" points="796.81,-352 796.81,-371 853.81,-371 853.81,-352 796.81,-352"/>
<text text-anchor="middle" x="825.31" y="-359" font-family="Helvetica,sans-Serif" font-size="10.00">ostream</text>
</a>
</g>
</g>
<!-- Node19&#45;&gt;Node22 -->
<g id="edge23" class="edge">
<title>Node19&#45;&gt;Node22</title>
<path fill="none" stroke="midnightblue" d="M734.48,-413.4C754.3,-402.29 781.73,-386.92 801.25,-375.98"/>
<polygon fill="midnightblue" stroke="midnightblue" points="803.12,-378.95 810.13,-371.01 799.7,-372.84 803.12,-378.95"/>
</g>
<!-- Node23 -->
<g id="node23" class="node">
<title>Node23</title>
<g id="a_node23"><a xlink:href="id_8h.html" target="_top" xlink:title=" ">
<polygon fill="none" stroke="black" points="871.81,-352 871.81,-371 1028.81,-371 1028.81,-352 871.81,-352"/>
<text text-anchor="middle" x="950.31" y="-359" font-family="Helvetica,sans-Serif" font-size="10.00">VoronoiMeshMaker/Misc/id.h</text>
</a>
</g>
</g>
<!-- Node19&#45;&gt;Node23 -->
<g id="edge24" class="edge">
<title>Node19&#45;&gt;Node23</title>
<path fill="none" stroke="midnightblue" d="M761.31,-413.48C805.45,-401.57 867.94,-384.72 908.8,-373.7"/>
<polygon fill="midnightblue" stroke="midnightblue" points="909.95,-377.01 918.69,-371.03 908.12,-370.25 909.95,-377.01"/>
</g>
<!-- Node26 -->
<g id="node26" class="node">
<title>Node26</title>
<g id="a_node26"><a xlink:href="sourceinfo_8h.html" target="_top" xlink:title="Provides information about the source of an error or event in a function.">
<polygon fill="none" stroke="black" points="497.31,-346.5 497.31,-376.5 633.31,-376.5 633.31,-346.5 497.31,-346.5"/>
<text text-anchor="start" x="505.31" y="-364.5" font-family="Helvetica,sans-Serif" font-size="10.00">VoronoiMeshMaker/Misc</text>
<text text-anchor="middle" x="565.31" y="-353.5" font-family="Helvetica,sans-Serif" font-size="10.00">/sourceinfo.h</text>
</a>
</g>
</g>
<!-- Node19&#45;&gt;Node26 -->
<g id="edge28" class="edge">
<title>Node19&#45;&gt;Node26</title>
<path fill="none" stroke="midnightblue" d="M678.07,-413.4C656.84,-403.81 628.56,-391.05 605.64,-380.7"/>
<polygon fill="midnightblue" stroke="midnightblue" points="607.05,-377.5 596.5,-376.58 604.17,-383.88 607.05,-377.5"/>
</g>
<!-- Node24 -->
<g id="node24" class="node">
<title>Node24</title>
<g id="a_node24"><a xlink:title=" ">
<polygon fill="none" stroke="#bfbfbf" points="848.81,-285 848.81,-304 921.81,-304 921.81,-285 848.81,-285"/>
<text text-anchor="middle" x="885.31" y="-292" font-family="Helvetica,sans-Serif" font-size="10.00">string_view</text>
</a>
</g>
</g>
<!-- Node23&#45;&gt;Node24 -->
<g id="edge25" class="edge">
<title>Node23&#45;&gt;Node24</title>
<path fill="none" stroke="midnightblue" d="M941.55,-351.73C931.22,-341.4 913.85,-324.04 901.14,-311.33"/>
<polygon fill="midnightblue" stroke="midnightblue" points="903.49,-308.72 893.94,-304.13 898.54,-313.67 903.49,-308.72"/>
</g>
<!-- Node25 -->
<g id="node25" class="node">
<title>Node25</title>
<g id="a_node25"><a xlink:href="configure_8h.html" target="_top" xlink:title="Defines common constants used across the VoronoiMeshMaker library.">
<polygon fill="none" stroke="black" points="851.31,-212.5 851.31,-242.5 987.31,-242.5 987.31,-212.5 851.31,-212.5"/>
<text text-anchor="start" x="859.31" y="-230.5" font-family="Helvetica,sans-Serif" font-size="10.00">VoronoiMeshMaker/Misc</text>
<text text-anchor="middle" x="919.31" y="-219.5" font-family="Helvetica,sans-Serif" font-size="10.00">/configure.h</text>
</a>
</g>
</g>
<!-- Node23&#45;&gt;Node25 -->
<g id="edge26" class="edge">
<title>Node23&#45;&gt;Node25</title>
<path fill="none" stroke="midnightblue" d="M948.33,-351.93C944.88,-337.08 937.57,-305.59 931.31,-279 929.28,-270.37 927.04,-260.9 925.04,-252.53"/>
<polygon fill="midnightblue" stroke="midnightblue" points="928.41,-251.56 922.69,-242.65 921.6,-253.18 928.41,-251.56"/>
</g>
<!-- Node25&#45;&gt;Node11 -->
<g id="edge27" class="edge">
<title>Node25&#45;&gt;Node11</title>
<path fill="none" stroke="midnightblue" d="M909.47,-212.37C893.56,-189.55 862.06,-144.36 843.03,-117.04"/>
<polygon fill="midnightblue" stroke="midnightblue" points="845.68,-114.73 837.09,-108.52 839.93,-118.73 845.68,-114.73"/>
</g>
<!-- Node26&#45;&gt;Node24 -->
<g id="edge29" class="edge">
<title>Node26&#45;&gt;Node24</title>
<path fill="none" stroke="midnightblue" d="M633.33,-347.67C636.37,-347.11 639.37,-346.55 642.31,-346 729.83,-329.76 752.92,-331.42 839.31,-310 842.94,-309.1 846.7,-308.07 850.44,-306.99"/>
<polygon fill="midnightblue" stroke="midnightblue" points="851.61,-310.29 860.17,-304.05 849.58,-303.59 851.61,-310.29"/>
</g>
<!-- Node27 -->
<g id="node27" class="node">
<title>Node27</title>
<g id="a_node27"><a xlink:title=" ">
<polygon fill="none" stroke="#bfbfbf" points="694.31,-279.5 694.31,-309.5 830.31,-309.5 830.31,-279.5 694.31,-279.5"/>
<text text-anchor="start" x="702.31" y="-297.5" font-family="Helvetica,sans-Serif" font-size="10.00">VoronoiMeshMaker/Misc</text>
<text text-anchor="middle" x="762.31" y="-286.5" font-family="Helvetica,sans-Serif" font-size="10.00">/Misc.h</text>
</a>
</g>
</g>
<!-- Node26&#45;&gt;Node27 -->
<g id="edge30" class="edge">
<title>Node26&#45;&gt;Node27</title>
<path fill="none" stroke="midnightblue" d="M608.06,-346.4C638,-336.52 678.2,-323.25 710.05,-312.74"/>
<polygon fill="midnightblue" stroke="midnightblue" points="711.25,-316.03 719.65,-309.58 709.06,-309.39 711.25,-316.03"/>
</g>
<!-- Node28&#45;&gt;Node4 -->
<g id="edge36" class="edge">
<title>Node28&#45;&gt;Node4</title>
<path fill="none" stroke="midnightblue" d="M318.09,-346.4C289.33,-336.56 250.77,-323.37 220.11,-312.88"/>
<polygon fill="midnightblue" stroke="midnightblue" points="221.05,-309.5 210.46,-309.58 218.79,-316.13 221.05,-309.5"/>
</g>
<!-- Node28&#45;&gt;Node6 -->
<g id="edge34" class="edge">
<title>Node28&#45;&gt;Node6</title>
<path fill="none" stroke="midnightblue" d="M423.67,-346.49C513.69,-325.01 666.31,-280.86 666.31,-228.5 666.31,-228.5 666.31,-228.5 666.31,-159.5 666.31,-111.86 633.72,-63.27 614.34,-38.6"/>
<polygon fill="midnightblue" stroke="midnightblue" points="616.9,-36.2 607.88,-30.63 611.46,-40.61 616.9,-36.2"/>
</g>
<!-- Node28&#45;&gt;Node8 -->
<g id="edge37" class="edge">
<title>Node28&#45;&gt;Node8</title>
<path fill="none" stroke="midnightblue" d="M333.96,-346.3C320.53,-337.52 304.87,-325.05 295.31,-310 284.39,-292.8 279.73,-269.98 277.75,-252.86"/>
<polygon fill="midnightblue" stroke="midnightblue" points="281.2,-252.19 276.8,-242.55 274.23,-252.83 281.2,-252.19"/>
</g>
<!-- Node29 -->
<g id="node29" class="node">
<title>Node29</title>
<g id="a_node29"><a xlink:title=" ">
<polygon fill="none" stroke="#bfbfbf" points="304.31,-285 304.31,-304 342.31,-304 342.31,-285 304.31,-285"/>
<text text-anchor="middle" x="323.31" y="-292" font-family="Helvetica,sans-Serif" font-size="10.00">map</text>
</a>
</g>
</g>
<!-- Node28&#45;&gt;Node29 -->
<g id="edge32" class="edge">
<title>Node28&#45;&gt;Node29</title>
<path fill="none" stroke="midnightblue" d="M351.5,-346.4C346.11,-336.66 338.9,-323.65 333.12,-313.21"/>
<polygon fill="midnightblue" stroke="midnightblue" points="336.04,-311.25 328.13,-304.19 329.91,-314.64 336.04,-311.25"/>
</g>
<!-- Node30 -->
<g id="node30" class="node">
<title>Node30</title>
<g id="a_node30"><a xlink:title=" ">
<polygon fill="none" stroke="#bfbfbf" points="360.81,-285 360.81,-304 425.81,-304 425.81,-285 360.81,-285"/>
<text text-anchor="middle" x="393.31" y="-292" font-family="Helvetica,sans-Serif" font-size="10.00">functional</text>
</a>
</g>
</g>
<!-- Node28&#45;&gt;Node30 -->
<g id="edge33" class="edge">
<title>Node28&#45;&gt;Node30</title>
<path fill="none" stroke="midnightblue" d="M366.69,-346.4C371.78,-336.66 378.59,-323.65 384.05,-313.21"/>
<polygon fill="midnightblue" stroke="midnightblue" points="387.23,-314.68 388.77,-304.19 381.03,-311.43 387.23,-314.68"/>
</g>
<!-- Node31 -->
<g id="node31" class="node">
<title>Node31</title>
<g id="a_node31"><a xlink:title=" ">
<polygon fill="none" stroke="#bfbfbf" points="443.81,-285 443.81,-304 508.81,-304 508.81,-285 443.81,-285"/>
<text text-anchor="middle" x="476.31" y="-292" font-family="Helvetica,sans-Serif" font-size="10.00">stdexcept</text>
</a>
</g>
</g>
<!-- Node28&#45;&gt;Node31 -->
<g id="edge35" class="edge">
<title>Node28&#45;&gt;Node31</title>
<path fill="none" stroke="midnightblue" d="M384.7,-346.4C404.68,-335.29 432.36,-319.92 452.04,-308.98"/>
<polygon fill="midnightblue" stroke="midnightblue" points="453.96,-311.92 461,-304.01 450.56,-305.8 453.96,-311.92"/>
</g>
</g>
</svg>
