<?xml version="1.0" encoding="UTF-8" standalone="no"?>
<!DOCTYPE svg PUBLIC "-//W3C//DTD SVG 1.1//EN"
 "http://www.w3.org/Graphics/SVG/1.1/DTD/svg11.dtd">
<!-- Generated by graphviz version 2.43.0 (0)
 -->
<!-- Title: include/VoronoiMeshMaker/Misc/type.h Pages: 1 -->
<svg width="2129pt" height="463pt"
 viewBox="0.00 0.00 2129.37 463.00" xmlns="http://www.w3.org/2000/svg" xmlns:xlink="http://www.w3.org/1999/xlink">
<g id="graph0" class="graph" transform="scale(1 1) rotate(0) translate(4 459)">
<title>include/VoronoiMeshMaker/Misc/type.h</title>
<!-- Node1 -->
<g id="node1" class="node">
<title>Node1</title>
<g id="a_node1"><a xlink:title="Defines common geometric and numeric types used in the VoronoiMeshMaker library.">
<polygon fill="#bfbfbf" stroke="black" points="1458.5,-424.5 1458.5,-454.5 1607.5,-454.5 1607.5,-424.5 1458.5,-424.5"/>
<text text-anchor="start" x="1466.5" y="-442.5" font-family="Helvetica,sans-Serif" font-size="10.00">include/VoronoiMeshMaker</text>
<text text-anchor="middle" x="1533" y="-431.5" font-family="Helvetica,sans-Serif" font-size="10.00">/Misc/type.h</text>
</a>
</g>
</g>
<!-- Node2 -->
<g id="node2" class="node">
<title>Node2</title>
<g id="a_node2"><a xlink:href="configure_8h.html" target="_top" xlink:title="Defines common constants used across the VoronoiMeshMaker library.">
<polygon fill="none" stroke="black" points="598.5,-212.5 598.5,-242.5 747.5,-242.5 747.5,-212.5 598.5,-212.5"/>
<text text-anchor="start" x="606.5" y="-230.5" font-family="Helvetica,sans-Serif" font-size="10.00">include/VoronoiMeshMaker</text>
<text text-anchor="middle" x="673" y="-219.5" font-family="Helvetica,sans-Serif" font-size="10.00">/Misc/configure.h</text>
</a>
</g>
</g>
<!-- Node1&#45;&gt;Node2 -->
<g id="edge1" class="edge">
<title>Node1&#45;&gt;Node2</title>
<path fill="none" stroke="midnightblue" d="M1448.43,-423.67C1397.19,-414.3 1330.62,-401.46 1272,-388 1065.63,-340.62 822.66,-271.86 721.24,-242.56"/>
<polygon fill="midnightblue" stroke="midnightblue" points="1448,-427.15 1458.46,-425.49 1449.25,-420.26 1448,-427.15"/>
</g>
<!-- Node13 -->
<g id="node13" class="node">
<title>Node13</title>
<g id="a_node13"><a xlink:href="Nodes_8h.html" target="_top" xlink:title="Declares the Nodes base class for representing collections of nodes.">
<polygon fill="none" stroke="black" points="1595.5,-357.5 1595.5,-387.5 1744.5,-387.5 1744.5,-357.5 1595.5,-357.5"/>
<text text-anchor="start" x="1603.5" y="-375.5" font-family="Helvetica,sans-Serif" font-size="10.00">include/VoronoiMeshMaker</text>
<text text-anchor="middle" x="1670" y="-364.5" font-family="Helvetica,sans-Serif" font-size="10.00">/Nodes/Nodes.h</text>
</a>
</g>
</g>
<!-- Node1&#45;&gt;Node13 -->
<g id="edge13" class="edge">
<title>Node1&#45;&gt;Node13</title>
<path fill="none" stroke="midnightblue" d="M1572.01,-419.99C1593.72,-409.69 1620.33,-397.07 1640.33,-387.58"/>
<polygon fill="midnightblue" stroke="midnightblue" points="1570.26,-416.95 1562.73,-424.4 1573.26,-423.27 1570.26,-416.95"/>
</g>
<!-- Node14 -->
<g id="node14" class="node">
<title>Node14</title>
<g id="a_node14"><a xlink:href="Nodes2D_8h.html" target="_top" xlink:title="Declares the Nodes2D class for representing 2D nodes.">
<polygon fill="none" stroke="black" points="1456,-285 1456,-315 1610,-315 1610,-285 1456,-285"/>
<text text-anchor="start" x="1464" y="-303" font-family="Helvetica,sans-Serif" font-size="10.00">include/VoronoiMeshMaker</text>
<text text-anchor="middle" x="1533" y="-292" font-family="Helvetica,sans-Serif" font-size="10.00">/Nodes/Nodes2D/Nodes2D.h</text>
</a>
</g>
</g>
<!-- Node1&#45;&gt;Node14 -->
<g id="edge22" class="edge">
<title>Node1&#45;&gt;Node14</title>
<path fill="none" stroke="midnightblue" d="M1533,-414.29C1533,-385.61 1533,-338.78 1533,-315.33"/>
<polygon fill="midnightblue" stroke="midnightblue" points="1529.5,-414.3 1533,-424.3 1536.5,-414.3 1529.5,-414.3"/>
</g>
<!-- Node21 -->
<g id="node21" class="node">
<title>Node21</title>
<g id="a_node21"><a xlink:href="GeometricDataTraits_8h.html" target="_top" xlink:title="Defines the GeometricDataTraits structure used for type identification and operations on various data...">
<polygon fill="none" stroke="black" points="1281.5,-357.5 1281.5,-387.5 1470.5,-387.5 1470.5,-357.5 1281.5,-357.5"/>
<text text-anchor="start" x="1289.5" y="-375.5" font-family="Helvetica,sans-Serif" font-size="10.00">include/VoronoiMeshMaker</text>
<text text-anchor="middle" x="1376" y="-364.5" font-family="Helvetica,sans-Serif" font-size="10.00">/Parameters/GeometricDataTraits.h</text>
</a>
</g>
</g>
<!-- Node1&#45;&gt;Node21 -->
<g id="edge23" class="edge">
<title>Node1&#45;&gt;Node21</title>
<path fill="none" stroke="midnightblue" d="M1489.63,-420.54C1464.51,-410.14 1433.34,-397.24 1410,-387.58"/>
<polygon fill="midnightblue" stroke="midnightblue" points="1488.36,-423.8 1498.93,-424.4 1491.03,-417.34 1488.36,-423.8"/>
</g>
<!-- Node34 -->
<g id="node34" class="node">
<title>Node34</title>
<g id="a_node34"><a xlink:href="Voronoi2D_8h.html" target="_top" xlink:title="Declares the Voronoi2D class for representing 2D Voronoi diagrams.">
<polygon fill="none" stroke="black" points="1938,-357.5 1938,-387.5 2112,-387.5 2112,-357.5 1938,-357.5"/>
<text text-anchor="start" x="1946" y="-375.5" font-family="Helvetica,sans-Serif" font-size="10.00">include/VoronoiMeshMaker</text>
<text text-anchor="middle" x="2025" y="-364.5" font-family="Helvetica,sans-Serif" font-size="10.00">/Voronoi/Voronoi2D/Voronoi2D.h</text>
</a>
</g>
</g>
<!-- Node1&#45;&gt;Node34 -->
<g id="edge45" class="edge">
<title>Node1&#45;&gt;Node34</title>
<path fill="none" stroke="midnightblue" d="M1617.84,-427.29C1707.32,-415.47 1847.62,-396.93 1937.93,-385"/>
<polygon fill="midnightblue" stroke="midnightblue" points="1617.18,-423.85 1607.72,-428.63 1618.1,-430.79 1617.18,-423.85"/>
</g>
<!-- Node3 -->
<g id="node3" class="node">
<title>Node3</title>
<g id="a_node3"><a xlink:href="id_8h.html" target="_top" xlink:title=" ">
<polygon fill="none" stroke="black" points="598.5,-145.5 598.5,-175.5 747.5,-175.5 747.5,-145.5 598.5,-145.5"/>
<text text-anchor="start" x="606.5" y="-163.5" font-family="Helvetica,sans-Serif" font-size="10.00">include/VoronoiMeshMaker</text>
<text text-anchor="middle" x="673" y="-152.5" font-family="Helvetica,sans-Serif" font-size="10.00">/Misc/id.h</text>
</a>
</g>
</g>
<!-- Node2&#45;&gt;Node3 -->
<g id="edge2" class="edge">
<title>Node2&#45;&gt;Node3</title>
<path fill="none" stroke="midnightblue" d="M673,-202.11C673,-193.15 673,-183.32 673,-175.58"/>
<polygon fill="midnightblue" stroke="midnightblue" points="669.5,-202.4 673,-212.4 676.5,-202.4 669.5,-202.4"/>
</g>
<!-- Node11 -->
<g id="node11" class="node">
<title>Node11</title>
<g id="a_node11"><a xlink:href="misc_8h.html" target="_top" xlink:title="Provides general&#45;purpose utility functions for the VoronoiMeshMaker library.">
<polygon fill="none" stroke="black" points="81.5,-145.5 81.5,-175.5 230.5,-175.5 230.5,-145.5 81.5,-145.5"/>
<text text-anchor="start" x="89.5" y="-163.5" font-family="Helvetica,sans-Serif" font-size="10.00">include/VoronoiMeshMaker</text>
<text text-anchor="middle" x="156" y="-152.5" font-family="Helvetica,sans-Serif" font-size="10.00">/Misc/misc.h</text>
</a>
</g>
</g>
<!-- Node2&#45;&gt;Node11 -->
<g id="edge10" class="edge">
<title>Node2&#45;&gt;Node11</title>
<path fill="none" stroke="midnightblue" d="M588.36,-215.86C488.92,-203.36 325.48,-182.81 230.6,-170.88"/>
<polygon fill="midnightblue" stroke="midnightblue" points="588.02,-219.34 598.38,-217.12 588.89,-212.4 588.02,-219.34"/>
</g>
<!-- Node4 -->
<g id="node4" class="node">
<title>Node4</title>
<g id="a_node4"><a xlink:href="MakerException_8h.html" target="_top" xlink:title=" ">
<polygon fill="none" stroke="black" points="598.5,-78.5 598.5,-108.5 747.5,-108.5 747.5,-78.5 598.5,-78.5"/>
<text text-anchor="start" x="606.5" y="-96.5" font-family="Helvetica,sans-Serif" font-size="10.00">include/VoronoiMeshMaker</text>
<text text-anchor="middle" x="673" y="-85.5" font-family="Helvetica,sans-Serif" font-size="10.00">/Error/MakerException.h</text>
</a>
</g>
</g>
<!-- Node3&#45;&gt;Node4 -->
<g id="edge3" class="edge">
<title>Node3&#45;&gt;Node4</title>
<path fill="none" stroke="midnightblue" d="M673,-135.11C673,-126.15 673,-116.32 673,-108.58"/>
<polygon fill="midnightblue" stroke="midnightblue" points="669.5,-135.4 673,-145.4 676.5,-135.4 669.5,-135.4"/>
</g>
<!-- Node5 -->
<g id="node5" class="node">
<title>Node5</title>
<g id="a_node5"><a xlink:href="MakerException_8cpp.html" target="_top" xlink:title=" ">
<polygon fill="none" stroke="black" points="603,-6 603,-36 747,-36 747,-6 603,-6"/>
<text text-anchor="start" x="611" y="-24" font-family="Helvetica,sans-Serif" font-size="10.00">src/VoronoiMeshMaker</text>
<text text-anchor="middle" x="675" y="-13" font-family="Helvetica,sans-Serif" font-size="10.00">/Error/MakerException.cpp</text>
</a>
</g>
</g>
<!-- Node4&#45;&gt;Node5 -->
<g id="edge4" class="edge">
<title>Node4&#45;&gt;Node5</title>
<path fill="none" stroke="midnightblue" d="M673.69,-68.23C673.99,-57.57 674.34,-45.41 674.6,-36.25"/>
<polygon fill="midnightblue" stroke="midnightblue" points="670.19,-68.14 673.4,-78.23 677.19,-68.34 670.19,-68.14"/>
</g>
<!-- Node6 -->
<g id="node6" class="node">
<title>Node6</title>
<g id="a_node6"><a xlink:href="CommaSeparatedValues_8cpp.html" target="_top" xlink:title=" ">
<polygon fill="none" stroke="black" points="205.5,-0.5 205.5,-41.5 392.5,-41.5 392.5,-0.5 205.5,-0.5"/>
<text text-anchor="start" x="213.5" y="-29.5" font-family="Helvetica,sans-Serif" font-size="10.00">src/VoronoiMeshMaker</text>
<text text-anchor="start" x="213.5" y="-18.5" font-family="Helvetica,sans-Serif" font-size="10.00">/Shape/Shape2D/CommaSeparated</text>
<text text-anchor="middle" x="299" y="-7.5" font-family="Helvetica,sans-Serif" font-size="10.00">Values.cpp</text>
</a>
</g>
</g>
<!-- Node4&#45;&gt;Node6 -->
<g id="edge5" class="edge">
<title>Node4&#45;&gt;Node6</title>
<path fill="none" stroke="midnightblue" d="M588.76,-76.62C530.52,-65.64 453,-51.03 392.8,-39.68"/>
<polygon fill="midnightblue" stroke="midnightblue" points="588.19,-80.07 598.66,-78.49 589.48,-73.2 588.19,-80.07"/>
</g>
<!-- Node7 -->
<g id="node7" class="node">
<title>Node7</title>
<g id="a_node7"><a xlink:href="Ellipse_8cpp.html" target="_top" xlink:title=" ">
<polygon fill="none" stroke="black" points="1121,-6 1121,-36 1273,-36 1273,-6 1121,-6"/>
<text text-anchor="start" x="1129" y="-24" font-family="Helvetica,sans-Serif" font-size="10.00">src/VoronoiMeshMaker</text>
<text text-anchor="middle" x="1197" y="-13" font-family="Helvetica,sans-Serif" font-size="10.00">/Shape/Shape2D/Ellipse.cpp</text>
</a>
</g>
</g>
<!-- Node4&#45;&gt;Node7 -->
<g id="edge6" class="edge">
<title>Node4&#45;&gt;Node7</title>
<path fill="none" stroke="midnightblue" d="M757.67,-77.84C915.3,-56.78 958.37,-67.73 1112,-42 1121.72,-40.37 1131.98,-38.28 1141.89,-36.07"/>
<polygon fill="midnightblue" stroke="midnightblue" points="757.05,-74.39 747.62,-79.2 758,-81.32 757.05,-74.39"/>
</g>
<!-- Node8 -->
<g id="node8" class="node">
<title>Node8</title>
<g id="a_node8"><a xlink:href="Polygon_8cpp.html" target="_top" xlink:title=" ">
<polygon fill="none" stroke="black" points="427,-6 427,-36 585,-36 585,-6 427,-6"/>
<text text-anchor="start" x="435" y="-24" font-family="Helvetica,sans-Serif" font-size="10.00">src/VoronoiMeshMaker</text>
<text text-anchor="middle" x="506" y="-13" font-family="Helvetica,sans-Serif" font-size="10.00">/Shape/Shape2D/Polygon.cpp</text>
</a>
</g>
</g>
<!-- Node4&#45;&gt;Node8 -->
<g id="edge7" class="edge">
<title>Node4&#45;&gt;Node8</title>
<path fill="none" stroke="midnightblue" d="M630.36,-74.5C602.07,-62.56 565.49,-47.11 539.34,-36.07"/>
<polygon fill="midnightblue" stroke="midnightblue" points="629.03,-77.74 639.61,-78.4 631.75,-71.29 629.03,-77.74"/>
</g>
<!-- Node9 -->
<g id="node9" class="node">
<title>Node9</title>
<g id="a_node9"><a xlink:href="Rectangle_8cpp.html" target="_top" xlink:title=" ">
<polygon fill="none" stroke="black" points="935,-6 935,-36 1103,-36 1103,-6 935,-6"/>
<text text-anchor="start" x="943" y="-24" font-family="Helvetica,sans-Serif" font-size="10.00">src/VoronoiMeshMaker</text>
<text text-anchor="middle" x="1019" y="-13" font-family="Helvetica,sans-Serif" font-size="10.00">/Shape/Shape2D/Rectangle.cpp</text>
</a>
</g>
</g>
<!-- Node4&#45;&gt;Node9 -->
<g id="edge8" class="edge">
<title>Node4&#45;&gt;Node9</title>
<path fill="none" stroke="midnightblue" d="M751.92,-76.42C811.66,-64.25 892.91,-47.69 950.06,-36.05"/>
<polygon fill="midnightblue" stroke="midnightblue" points="750.87,-73.06 741.77,-78.49 752.27,-79.92 750.87,-73.06"/>
</g>
<!-- Node10 -->
<g id="node10" class="node">
<title>Node10</title>
<g id="a_node10"><a xlink:href="Star_8cpp.html" target="_top" xlink:title=" ">
<polygon fill="none" stroke="black" points="1293.5,-6 1293.5,-36 1432.5,-36 1432.5,-6 1293.5,-6"/>
<text text-anchor="start" x="1301.5" y="-24" font-family="Helvetica,sans-Serif" font-size="10.00">src/VoronoiMeshMaker</text>
<text text-anchor="middle" x="1363" y="-13" font-family="Helvetica,sans-Serif" font-size="10.00">/Shape/Shape2D/Star.cpp</text>
</a>
</g>
</g>
<!-- Node4&#45;&gt;Node10 -->
<g id="edge9" class="edge">
<title>Node4&#45;&gt;Node10</title>
<path fill="none" stroke="midnightblue" d="M757.73,-77.88C990.41,-50.59 1053.77,-77.71 1282,-42 1291.73,-40.48 1302.01,-38.35 1311.85,-36.05"/>
<polygon fill="midnightblue" stroke="midnightblue" points="757.12,-74.43 747.6,-79.09 757.95,-81.38 757.12,-74.43"/>
</g>
<!-- Node11&#45;&gt;Node6 -->
<g id="edge12" class="edge">
<title>Node11&#45;&gt;Node6</title>
<path fill="none" stroke="midnightblue" d="M156.12,-135.36C157.41,-117.69 161.79,-94.08 175,-78 188.42,-61.67 207.61,-49.91 226.9,-41.52"/>
<polygon fill="midnightblue" stroke="midnightblue" points="152.62,-135.33 155.66,-145.48 159.61,-135.65 152.62,-135.33"/>
</g>
<!-- Node12 -->
<g id="node12" class="node">
<title>Node12</title>
<g id="a_node12"><a xlink:href="misc_8cpp.html" target="_top" xlink:title=" ">
<polygon fill="none" stroke="black" points="0,-78.5 0,-108.5 128,-108.5 128,-78.5 0,-78.5"/>
<text text-anchor="start" x="8" y="-96.5" font-family="Helvetica,sans-Serif" font-size="10.00">src/VoronoiMeshMaker</text>
<text text-anchor="middle" x="64" y="-85.5" font-family="Helvetica,sans-Serif" font-size="10.00">/Misc/misc.cpp</text>
</a>
</g>
</g>
<!-- Node11&#45;&gt;Node12 -->
<g id="edge11" class="edge">
<title>Node11&#45;&gt;Node12</title>
<path fill="none" stroke="midnightblue" d="M127.62,-139.45C113.47,-129.45 96.69,-117.6 83.92,-108.58"/>
<polygon fill="midnightblue" stroke="midnightblue" points="125.85,-142.48 136.04,-145.4 129.89,-136.77 125.85,-142.48"/>
</g>
<!-- Node13&#45;&gt;Node14 -->
<g id="edge14" class="edge">
<title>Node13&#45;&gt;Node14</title>
<path fill="none" stroke="midnightblue" d="M1633.5,-352.72C1610.51,-340.89 1581.34,-325.87 1560.35,-315.07"/>
<polygon fill="midnightblue" stroke="midnightblue" points="1632.11,-355.94 1642.61,-357.4 1635.32,-349.71 1632.11,-355.94"/>
</g>
<!-- Node18 -->
<g id="node18" class="node">
<title>Node18</title>
<g id="a_node18"><a xlink:href="Nodes3D_8h.html" target="_top" xlink:title="Declares the Nodes3D class for representing 3D nodes.">
<polygon fill="none" stroke="black" points="1628,-285 1628,-315 1782,-315 1782,-285 1628,-285"/>
<text text-anchor="start" x="1636" y="-303" font-family="Helvetica,sans-Serif" font-size="10.00">include/VoronoiMeshMaker</text>
<text text-anchor="middle" x="1705" y="-292" font-family="Helvetica,sans-Serif" font-size="10.00">/Nodes/Nodes3D/Nodes3D.h</text>
</a>
</g>
</g>
<!-- Node13&#45;&gt;Node18 -->
<g id="edge18" class="edge">
<title>Node13&#45;&gt;Node18</title>
<path fill="none" stroke="midnightblue" d="M1681.55,-348.23C1686.96,-337.33 1693.23,-324.7 1697.93,-315.25"/>
<polygon fill="midnightblue" stroke="midnightblue" points="1678.39,-346.72 1677.08,-357.23 1684.66,-349.83 1678.39,-346.72"/>
</g>
<!-- Node20 -->
<g id="node20" class="node">
<title>Node20</title>
<g id="a_node20"><a xlink:href="Nodes_8cpp.html" target="_top" xlink:title="Implements the Nodes base class methods.">
<polygon fill="none" stroke="black" points="1800,-285 1800,-315 1928,-315 1928,-285 1800,-285"/>
<text text-anchor="start" x="1808" y="-303" font-family="Helvetica,sans-Serif" font-size="10.00">src/VoronoiMeshMaker</text>
<text text-anchor="middle" x="1864" y="-292" font-family="Helvetica,sans-Serif" font-size="10.00">/Nodes/Nodes.cpp</text>
</a>
</g>
</g>
<!-- Node13&#45;&gt;Node20 -->
<g id="edge21" class="edge">
<title>Node13&#45;&gt;Node20</title>
<path fill="none" stroke="midnightblue" d="M1718.25,-353.96C1751.28,-341.96 1794.5,-326.26 1825.27,-315.07"/>
<polygon fill="midnightblue" stroke="midnightblue" points="1717,-350.7 1708.79,-357.4 1719.39,-357.28 1717,-350.7"/>
</g>
<!-- Node15 -->
<g id="node15" class="node">
<title>Node15</title>
<g id="a_node15"><a xlink:href="ExporterTraits_8h.html" target="_top" xlink:title="Declares the ExporterTraits struct for data exporting.">
<polygon fill="none" stroke="black" points="1632.5,-212.5 1632.5,-242.5 1781.5,-242.5 1781.5,-212.5 1632.5,-212.5"/>
<text text-anchor="start" x="1640.5" y="-230.5" font-family="Helvetica,sans-Serif" font-size="10.00">include/VoronoiMeshMaker</text>
<text text-anchor="middle" x="1707" y="-219.5" font-family="Helvetica,sans-Serif" font-size="10.00">/Exporter/ExporterTraits.h</text>
</a>
</g>
</g>
<!-- Node14&#45;&gt;Node15 -->
<g id="edge15" class="edge">
<title>Node14&#45;&gt;Node15</title>
<path fill="none" stroke="midnightblue" d="M1577.43,-281C1606.9,-269.06 1645.02,-253.61 1672.27,-242.57"/>
<polygon fill="midnightblue" stroke="midnightblue" points="1575.75,-277.9 1567.79,-284.9 1578.38,-284.39 1575.75,-277.9"/>
</g>
<!-- Node17 -->
<g id="node17" class="node">
<title>Node17</title>
<g id="a_node17"><a xlink:href="Nodes2D_8cpp.html" target="_top" xlink:title="Implements the Nodes2D class methods.">
<polygon fill="none" stroke="black" points="1449.5,-212.5 1449.5,-242.5 1614.5,-242.5 1614.5,-212.5 1449.5,-212.5"/>
<text text-anchor="start" x="1457.5" y="-230.5" font-family="Helvetica,sans-Serif" font-size="10.00">src/VoronoiMeshMaker</text>
<text text-anchor="middle" x="1532" y="-219.5" font-family="Helvetica,sans-Serif" font-size="10.00">/Nodes/Nodes2D/Nodes2D.cpp</text>
</a>
</g>
</g>
<!-- Node14&#45;&gt;Node17 -->
<g id="edge17" class="edge">
<title>Node14&#45;&gt;Node17</title>
<path fill="none" stroke="midnightblue" d="M1532.66,-274.73C1532.5,-264.07 1532.33,-251.91 1532.2,-242.75"/>
<polygon fill="midnightblue" stroke="midnightblue" points="1529.16,-274.78 1532.8,-284.73 1536.16,-274.68 1529.16,-274.78"/>
</g>
<!-- Node16 -->
<g id="node16" class="node">
<title>Node16</title>
<g id="a_node16"><a xlink:href="Exporter_8h.html" target="_top" xlink:title="Declares the template class Exporter for data exporting.">
<polygon fill="none" stroke="black" points="1632.5,-145.5 1632.5,-175.5 1781.5,-175.5 1781.5,-145.5 1632.5,-145.5"/>
<text text-anchor="start" x="1640.5" y="-163.5" font-family="Helvetica,sans-Serif" font-size="10.00">include/VoronoiMeshMaker</text>
<text text-anchor="middle" x="1707" y="-152.5" font-family="Helvetica,sans-Serif" font-size="10.00">/Exporter/Exporter.h</text>
</a>
</g>
</g>
<!-- Node15&#45;&gt;Node16 -->
<g id="edge16" class="edge">
<title>Node15&#45;&gt;Node16</title>
<path fill="none" stroke="midnightblue" d="M1707,-202.11C1707,-193.15 1707,-183.32 1707,-175.58"/>
<polygon fill="midnightblue" stroke="midnightblue" points="1703.5,-202.4 1707,-212.4 1710.5,-202.4 1703.5,-202.4"/>
</g>
<!-- Node18&#45;&gt;Node15 -->
<g id="edge19" class="edge">
<title>Node18&#45;&gt;Node15</title>
<path fill="none" stroke="midnightblue" d="M1705.69,-274.73C1705.99,-264.07 1706.34,-251.91 1706.6,-242.75"/>
<polygon fill="midnightblue" stroke="midnightblue" points="1702.19,-274.64 1705.4,-284.73 1709.19,-274.84 1702.19,-274.64"/>
</g>
<!-- Node19 -->
<g id="node19" class="node">
<title>Node19</title>
<g id="a_node19"><a xlink:href="Nodes3D_8cpp.html" target="_top" xlink:title="Implements the Nodes3D class methods.">
<polygon fill="none" stroke="black" points="1799.5,-212.5 1799.5,-242.5 1964.5,-242.5 1964.5,-212.5 1799.5,-212.5"/>
<text text-anchor="start" x="1807.5" y="-230.5" font-family="Helvetica,sans-Serif" font-size="10.00">src/VoronoiMeshMaker</text>
<text text-anchor="middle" x="1882" y="-219.5" font-family="Helvetica,sans-Serif" font-size="10.00">/Nodes/Nodes3D/Nodes3D.cpp</text>
</a>
</g>
</g>
<!-- Node18&#45;&gt;Node19 -->
<g id="edge20" class="edge">
<title>Node18&#45;&gt;Node19</title>
<path fill="none" stroke="midnightblue" d="M1749.8,-281.15C1779.83,-269.19 1818.83,-253.66 1846.67,-242.57"/>
<polygon fill="midnightblue" stroke="midnightblue" points="1748.39,-277.95 1740.39,-284.9 1750.98,-284.45 1748.39,-277.95"/>
</g>
<!-- Node22 -->
<g id="node22" class="node">
<title>Node22</title>
<g id="a_node22"><a xlink:href="GeometricDataHolder_8h.html" target="_top" xlink:title="Defines the GeometricDataHolder class and the DataTraits for handling multiple data types....">
<polygon fill="none" stroke="black" points="1244,-285 1244,-315 1438,-315 1438,-285 1244,-285"/>
<text text-anchor="start" x="1252" y="-303" font-family="Helvetica,sans-Serif" font-size="10.00">include/VoronoiMeshMaker</text>
<text text-anchor="middle" x="1341" y="-292" font-family="Helvetica,sans-Serif" font-size="10.00">/Parameters/GeometricDataHolder.h</text>
</a>
</g>
</g>
<!-- Node21&#45;&gt;Node22 -->
<g id="edge24" class="edge">
<title>Node21&#45;&gt;Node22</title>
<path fill="none" stroke="midnightblue" d="M1364.45,-348.23C1359.04,-337.33 1352.77,-324.7 1348.07,-315.25"/>
<polygon fill="midnightblue" stroke="midnightblue" points="1361.34,-349.83 1368.92,-357.23 1367.61,-346.72 1361.34,-349.83"/>
</g>
<!-- Node23 -->
<g id="node23" class="node">
<title>Node23</title>
<g id="a_node23"><a xlink:href="Shape_8h.html" target="_top" xlink:title="Defines the Shape class, which serves as the abstract base class for all shapes. This class provides ...">
<polygon fill="none" stroke="black" points="1203.5,-212.5 1203.5,-242.5 1352.5,-242.5 1352.5,-212.5 1203.5,-212.5"/>
<text text-anchor="start" x="1211.5" y="-230.5" font-family="Helvetica,sans-Serif" font-size="10.00">include/VoronoiMeshMaker</text>
<text text-anchor="middle" x="1278" y="-219.5" font-family="Helvetica,sans-Serif" font-size="10.00">/Shape/Shape.h</text>
</a>
</g>
</g>
<!-- Node22&#45;&gt;Node23 -->
<g id="edge25" class="edge">
<title>Node22&#45;&gt;Node23</title>
<path fill="none" stroke="midnightblue" d="M1321.38,-277.04C1311.38,-265.86 1299.52,-252.58 1290.73,-242.75"/>
<polygon fill="midnightblue" stroke="midnightblue" points="1318.98,-279.61 1328.25,-284.73 1324.2,-274.94 1318.98,-279.61"/>
</g>
<!-- Node31 -->
<g id="node31" class="node">
<title>Node31</title>
<g id="a_node31"><a xlink:href="ShapeFactory_8h.html" target="_top" xlink:title=" ">
<polygon fill="none" stroke="black" points="1455.5,-78.5 1455.5,-108.5 1604.5,-108.5 1604.5,-78.5 1455.5,-78.5"/>
<text text-anchor="start" x="1463.5" y="-96.5" font-family="Helvetica,sans-Serif" font-size="10.00">include/VoronoiMeshMaker</text>
<text text-anchor="middle" x="1530" y="-85.5" font-family="Helvetica,sans-Serif" font-size="10.00">/Shape/ShapeFactory.h</text>
</a>
</g>
</g>
<!-- Node22&#45;&gt;Node31 -->
<g id="edge44" class="edge">
<title>Node22&#45;&gt;Node31</title>
<path fill="none" stroke="midnightblue" d="M1360.89,-277.48C1399.66,-235.53 1484.38,-143.86 1516.92,-108.65"/>
<polygon fill="midnightblue" stroke="midnightblue" points="1358.21,-275.22 1353.99,-284.94 1363.35,-279.98 1358.21,-275.22"/>
</g>
<!-- Node24 -->
<g id="node24" class="node">
<title>Node24</title>
<g id="a_node24"><a xlink:href="Shape2D_8h.html" target="_top" xlink:title="Defines the Shape2D class, which represents 2D geometric shapes.">
<polygon fill="none" stroke="black" points="949,-145.5 949,-175.5 1101,-175.5 1101,-145.5 949,-145.5"/>
<text text-anchor="start" x="957" y="-163.5" font-family="Helvetica,sans-Serif" font-size="10.00">include/VoronoiMeshMaker</text>
<text text-anchor="middle" x="1025" y="-152.5" font-family="Helvetica,sans-Serif" font-size="10.00">/Shape/Shape2D/Shape2D.h</text>
</a>
</g>
</g>
<!-- Node23&#45;&gt;Node24 -->
<g id="edge26" class="edge">
<title>Node23&#45;&gt;Node24</title>
<path fill="none" stroke="midnightblue" d="M1213.72,-209.98C1172.39,-199.37 1119.27,-185.72 1079.92,-175.61"/>
<polygon fill="midnightblue" stroke="midnightblue" points="1212.86,-213.38 1223.41,-212.48 1214.6,-206.6 1212.86,-213.38"/>
</g>
<!-- Node23&#45;&gt;Node31 -->
<g id="edge38" class="edge">
<title>Node23&#45;&gt;Node31</title>
<path fill="none" stroke="midnightblue" d="M1262,-203.88C1251.56,-186.08 1242.19,-161.59 1256,-145 1257.62,-143.05 1374.77,-121.97 1455.34,-107.67"/>
<polygon fill="midnightblue" stroke="midnightblue" points="1259.15,-205.91 1267.45,-212.5 1265.07,-202.17 1259.15,-205.91"/>
</g>
<!-- Node33 -->
<g id="node33" class="node">
<title>Node33</title>
<g id="a_node33"><a xlink:href="Shape_8cpp.html" target="_top" xlink:title=" ">
<polygon fill="none" stroke="black" points="1265,-145.5 1265,-175.5 1393,-175.5 1393,-145.5 1265,-145.5"/>
<text text-anchor="start" x="1273" y="-163.5" font-family="Helvetica,sans-Serif" font-size="10.00">src/VoronoiMeshMaker</text>
<text text-anchor="middle" x="1329" y="-152.5" font-family="Helvetica,sans-Serif" font-size="10.00">/Shape/Shape.cpp</text>
</a>
</g>
</g>
<!-- Node23&#45;&gt;Node33 -->
<g id="edge43" class="edge">
<title>Node23&#45;&gt;Node33</title>
<path fill="none" stroke="midnightblue" d="M1295.3,-204.45C1302.79,-194.9 1311.34,-184 1317.96,-175.58"/>
<polygon fill="midnightblue" stroke="midnightblue" points="1292.49,-202.37 1289.07,-212.4 1297.99,-206.69 1292.49,-202.37"/>
</g>
<!-- Node25 -->
<g id="node25" class="node">
<title>Node25</title>
<g id="a_node25"><a xlink:href="CommaSeparatedValues_8h.html" target="_top" xlink:title=" ">
<polygon fill="none" stroke="black" points="184.5,-78.5 184.5,-108.5 413.5,-108.5 413.5,-78.5 184.5,-78.5"/>
<text text-anchor="start" x="192.5" y="-96.5" font-family="Helvetica,sans-Serif" font-size="10.00">include/VoronoiMeshMaker</text>
<text text-anchor="middle" x="299" y="-85.5" font-family="Helvetica,sans-Serif" font-size="10.00">/Shape/Shape2D/CommaSeparatedValues.h</text>
</a>
</g>
</g>
<!-- Node24&#45;&gt;Node25 -->
<g id="edge27" class="edge">
<title>Node24&#45;&gt;Node25</title>
<path fill="none" stroke="midnightblue" d="M938.79,-153.2C821.68,-144.43 605.83,-127.53 422,-109 419.22,-108.72 416.4,-108.43 413.56,-108.13"/>
<polygon fill="midnightblue" stroke="midnightblue" points="938.54,-156.69 948.77,-153.95 939.06,-149.71 938.54,-156.69"/>
</g>
<!-- Node26 -->
<g id="node26" class="node">
<title>Node26</title>
<g id="a_node26"><a xlink:href="Ellipse_8h.html" target="_top" xlink:title=" ">
<polygon fill="none" stroke="black" points="1121.5,-78.5 1121.5,-108.5 1270.5,-108.5 1270.5,-78.5 1121.5,-78.5"/>
<text text-anchor="start" x="1129.5" y="-96.5" font-family="Helvetica,sans-Serif" font-size="10.00">include/VoronoiMeshMaker</text>
<text text-anchor="middle" x="1196" y="-85.5" font-family="Helvetica,sans-Serif" font-size="10.00">/Shape/Shape2D/Ellipse.h</text>
</a>
</g>
</g>
<!-- Node24&#45;&gt;Node26 -->
<g id="edge29" class="edge">
<title>Node24&#45;&gt;Node26</title>
<path fill="none" stroke="midnightblue" d="M1071.52,-141.82C1099,-131.37 1133.33,-118.32 1158.97,-108.58"/>
<polygon fill="midnightblue" stroke="midnightblue" points="1070.21,-138.57 1062.1,-145.4 1072.7,-145.11 1070.21,-138.57"/>
</g>
<!-- Node27 -->
<g id="node27" class="node">
<title>Node27</title>
<g id="a_node27"><a xlink:href="Polygon_8h.html" target="_top" xlink:title=" ">
<polygon fill="none" stroke="black" points="431.5,-78.5 431.5,-108.5 580.5,-108.5 580.5,-78.5 431.5,-78.5"/>
<text text-anchor="start" x="439.5" y="-96.5" font-family="Helvetica,sans-Serif" font-size="10.00">include/VoronoiMeshMaker</text>
<text text-anchor="middle" x="506" y="-85.5" font-family="Helvetica,sans-Serif" font-size="10.00">/Shape/Shape2D/Polygon.h</text>
</a>
</g>
</g>
<!-- Node24&#45;&gt;Node27 -->
<g id="edge31" class="edge">
<title>Node24&#45;&gt;Node27</title>
<path fill="none" stroke="midnightblue" d="M938.61,-150.98C850.5,-141.94 709.96,-126.56 589,-109 586.25,-108.6 583.45,-108.18 580.62,-107.75"/>
<polygon fill="midnightblue" stroke="midnightblue" points="938.52,-154.49 948.82,-152.02 939.23,-147.52 938.52,-154.49"/>
</g>
<!-- Node28 -->
<g id="node28" class="node">
<title>Node28</title>
<g id="a_node28"><a xlink:href="Rectangle_8h.html" target="_top" xlink:title=" ">
<polygon fill="none" stroke="black" points="946.5,-78.5 946.5,-108.5 1103.5,-108.5 1103.5,-78.5 946.5,-78.5"/>
<text text-anchor="start" x="954.5" y="-96.5" font-family="Helvetica,sans-Serif" font-size="10.00">include/VoronoiMeshMaker</text>
<text text-anchor="middle" x="1025" y="-85.5" font-family="Helvetica,sans-Serif" font-size="10.00">/Shape/Shape2D/Rectangle.h</text>
</a>
</g>
</g>
<!-- Node24&#45;&gt;Node28 -->
<g id="edge33" class="edge">
<title>Node24&#45;&gt;Node28</title>
<path fill="none" stroke="midnightblue" d="M1025,-135.11C1025,-126.15 1025,-116.32 1025,-108.58"/>
<polygon fill="midnightblue" stroke="midnightblue" points="1021.5,-135.4 1025,-145.4 1028.5,-135.4 1021.5,-135.4"/>
</g>
<!-- Node29 -->
<g id="node29" class="node">
<title>Node29</title>
<g id="a_node29"><a xlink:href="Star_8h.html" target="_top" xlink:title=" ">
<polygon fill="none" stroke="black" points="1288.5,-78.5 1288.5,-108.5 1437.5,-108.5 1437.5,-78.5 1288.5,-78.5"/>
<text text-anchor="start" x="1296.5" y="-96.5" font-family="Helvetica,sans-Serif" font-size="10.00">include/VoronoiMeshMaker</text>
<text text-anchor="middle" x="1363" y="-85.5" font-family="Helvetica,sans-Serif" font-size="10.00">/Shape/Shape2D/Star.h</text>
</a>
</g>
</g>
<!-- Node24&#45;&gt;Node29 -->
<g id="edge35" class="edge">
<title>Node24&#45;&gt;Node29</title>
<path fill="none" stroke="midnightblue" d="M1107.77,-143.58C1163.5,-132.86 1236.33,-118.86 1289.91,-108.55"/>
<polygon fill="midnightblue" stroke="midnightblue" points="1107.08,-140.15 1097.92,-145.48 1108.41,-147.02 1107.08,-140.15"/>
</g>
<!-- Node30 -->
<g id="node30" class="node">
<title>Node30</title>
<g id="a_node30"><a xlink:href="Shape2D_8cpp.html" target="_top" xlink:title=" ">
<polygon fill="none" stroke="black" points="765.5,-78.5 765.5,-108.5 928.5,-108.5 928.5,-78.5 765.5,-78.5"/>
<text text-anchor="start" x="773.5" y="-96.5" font-family="Helvetica,sans-Serif" font-size="10.00">src/VoronoiMeshMaker</text>
<text text-anchor="middle" x="847" y="-85.5" font-family="Helvetica,sans-Serif" font-size="10.00">/Shape/Shape2D/Shape2D.cpp</text>
</a>
</g>
</g>
<!-- Node24&#45;&gt;Node30 -->
<g id="edge37" class="edge">
<title>Node24&#45;&gt;Node30</title>
<path fill="none" stroke="midnightblue" d="M976.95,-141.96C948.28,-131.48 912.36,-118.37 885.55,-108.58"/>
<polygon fill="midnightblue" stroke="midnightblue" points="975.78,-145.25 986.38,-145.4 978.18,-138.68 975.78,-145.25"/>
</g>
<!-- Node25&#45;&gt;Node6 -->
<g id="edge28" class="edge">
<title>Node25&#45;&gt;Node6</title>
<path fill="none" stroke="midnightblue" d="M299,-67.98C299,-59.35 299,-49.76 299,-41.59"/>
<polygon fill="midnightblue" stroke="midnightblue" points="295.5,-68.23 299,-78.23 302.5,-68.23 295.5,-68.23"/>
</g>
<!-- Node26&#45;&gt;Node7 -->
<g id="edge30" class="edge">
<title>Node26&#45;&gt;Node7</title>
<path fill="none" stroke="midnightblue" d="M1196.34,-68.23C1196.5,-57.57 1196.67,-45.41 1196.8,-36.25"/>
<polygon fill="midnightblue" stroke="midnightblue" points="1192.84,-68.18 1196.2,-78.23 1199.84,-68.28 1192.84,-68.18"/>
</g>
<!-- Node27&#45;&gt;Node8 -->
<g id="edge32" class="edge">
<title>Node27&#45;&gt;Node8</title>
<path fill="none" stroke="midnightblue" d="M506,-68.23C506,-57.57 506,-45.41 506,-36.25"/>
<polygon fill="midnightblue" stroke="midnightblue" points="502.5,-68.23 506,-78.23 509.5,-68.23 502.5,-68.23"/>
</g>
<!-- Node28&#45;&gt;Node9 -->
<g id="edge34" class="edge">
<title>Node28&#45;&gt;Node9</title>
<path fill="none" stroke="midnightblue" d="M1022.93,-68.23C1022.03,-57.57 1020.99,-45.41 1020.21,-36.25"/>
<polygon fill="midnightblue" stroke="midnightblue" points="1019.45,-68.57 1023.79,-78.23 1026.43,-67.97 1019.45,-68.57"/>
</g>
<!-- Node29&#45;&gt;Node10 -->
<g id="edge36" class="edge">
<title>Node29&#45;&gt;Node10</title>
<path fill="none" stroke="midnightblue" d="M1363,-68.23C1363,-57.57 1363,-45.41 1363,-36.25"/>
<polygon fill="midnightblue" stroke="midnightblue" points="1359.5,-68.23 1363,-78.23 1366.5,-68.23 1359.5,-68.23"/>
</g>
<!-- Node31&#45;&gt;Node7 -->
<g id="edge39" class="edge">
<title>Node31&#45;&gt;Node7</title>
<path fill="none" stroke="midnightblue" d="M1449.36,-76.44C1401.28,-66.75 1339.09,-53.98 1284,-42 1275.37,-40.12 1266.27,-38.09 1257.33,-36.06"/>
<polygon fill="midnightblue" stroke="midnightblue" points="1448.9,-79.92 1459.39,-78.46 1450.28,-73.06 1448.9,-79.92"/>
</g>
<!-- Node31&#45;&gt;Node9 -->
<g id="edge40" class="edge">
<title>Node31&#45;&gt;Node9</title>
<path fill="none" stroke="midnightblue" d="M1445.41,-77.99C1296.42,-57.64 1256.24,-65.22 1112,-42 1101.56,-40.32 1090.53,-38.23 1079.86,-36.04"/>
<polygon fill="midnightblue" stroke="midnightblue" points="1445,-81.46 1455.38,-79.37 1445.96,-74.53 1445,-81.46"/>
</g>
<!-- Node31&#45;&gt;Node10 -->
<g id="edge41" class="edge">
<title>Node31&#45;&gt;Node10</title>
<path fill="none" stroke="midnightblue" d="M1487.36,-74.5C1459.07,-62.56 1422.49,-47.11 1396.34,-36.07"/>
<polygon fill="midnightblue" stroke="midnightblue" points="1486.03,-77.74 1496.61,-78.4 1488.75,-71.29 1486.03,-77.74"/>
</g>
<!-- Node32 -->
<g id="node32" class="node">
<title>Node32</title>
<g id="a_node32"><a xlink:href="ShapeFactory_8cpp.html" target="_top" xlink:title="Implements the ShapeFactory methods for creating shape objects. This file contains the registration a...">
<polygon fill="none" stroke="black" points="1461.5,-6 1461.5,-36 1598.5,-36 1598.5,-6 1461.5,-6"/>
<text text-anchor="start" x="1469.5" y="-24" font-family="Helvetica,sans-Serif" font-size="10.00">src/VoronoiMeshMaker</text>
<text text-anchor="middle" x="1530" y="-13" font-family="Helvetica,sans-Serif" font-size="10.00">/Shape/ShapeFactory.cpp</text>
</a>
</g>
</g>
<!-- Node31&#45;&gt;Node32 -->
<g id="edge42" class="edge">
<title>Node31&#45;&gt;Node32</title>
<path fill="none" stroke="midnightblue" d="M1530,-68.23C1530,-57.57 1530,-45.41 1530,-36.25"/>
<polygon fill="midnightblue" stroke="midnightblue" points="1526.5,-68.23 1530,-78.23 1533.5,-68.23 1526.5,-68.23"/>
</g>
<!-- Node34&#45;&gt;Node15 -->
<g id="edge46" class="edge">
<title>Node34&#45;&gt;Node15</title>
<path fill="none" stroke="midnightblue" d="M2077.89,-352.7C2091.75,-345.09 2105.03,-334.75 2113,-321 2122.35,-304.85 2125.45,-292.91 2113,-279 2064.84,-225.18 1861.5,-253.22 1790,-243 1787.25,-242.61 1784.45,-242.19 1781.62,-241.76"/>
<polygon fill="midnightblue" stroke="midnightblue" points="2076.09,-349.69 2068.75,-357.32 2079.25,-355.93 2076.09,-349.69"/>
</g>
<!-- Node35 -->
<g id="node35" class="node">
<title>Node35</title>
<g id="a_node35"><a xlink:href="Voronoi2D_8cpp.html" target="_top" xlink:title="Implements the Voronoi2D class methods.">
<polygon fill="none" stroke="black" points="1946,-279.5 1946,-320.5 2104,-320.5 2104,-279.5 1946,-279.5"/>
<text text-anchor="start" x="1954" y="-308.5" font-family="Helvetica,sans-Serif" font-size="10.00">src/VoronoiMeshMaker</text>
<text text-anchor="start" x="1954" y="-297.5" font-family="Helvetica,sans-Serif" font-size="10.00">/Voronoi/Voronoi2D/Voronoi2</text>
<text text-anchor="middle" x="2025" y="-286.5" font-family="Helvetica,sans-Serif" font-size="10.00">D.cpp</text>
</a>
</g>
</g>
<!-- Node34&#45;&gt;Node35 -->
<g id="edge47" class="edge">
<title>Node34&#45;&gt;Node35</title>
<path fill="none" stroke="midnightblue" d="M2025,-346.98C2025,-338.35 2025,-328.76 2025,-320.59"/>
<polygon fill="midnightblue" stroke="midnightblue" points="2021.5,-347.23 2025,-357.23 2028.5,-347.23 2021.5,-347.23"/>
</g>
</g>
</svg>
