<?xml version="1.0" encoding="UTF-8" standalone="no"?>
<!DOCTYPE svg PUBLIC "-//W3C//DTD SVG 1.1//EN"
 "http://www.w3.org/Graphics/SVG/1.1/DTD/svg11.dtd">
<!-- Generated by graphviz version 2.43.0 (0)
 -->
<!-- Title: include/VoronoiMeshMaker/Voronoi/Voronoi2D/Voronoi2D.h Pages: 1 -->
<svg width="333pt" height="184pt"
 viewBox="0.00 0.00 332.50 184.00" xmlns="http://www.w3.org/2000/svg" xmlns:xlink="http://www.w3.org/1999/xlink">
<g id="graph0" class="graph" transform="scale(1 1) rotate(0) translate(4 180)">
<title>include/VoronoiMeshMaker/Voronoi/Voronoi2D/Voronoi2D.h</title>
<!-- Node1 -->
<g id="node1" class="node">
<title>Node1</title>
<g id="a_node1"><a xlink:title="Declares the Voronoi2D class for representing 2D Voronoi diagrams.">
<polygon fill="#bfbfbf" stroke="black" points="72.5,-145.5 72.5,-175.5 246.5,-175.5 246.5,-145.5 72.5,-145.5"/>
<text text-anchor="start" x="80.5" y="-163.5" font-family="Helvetica,sans-Serif" font-size="10.00">include/VoronoiMeshMaker</text>
<text text-anchor="middle" x="159.5" y="-152.5" font-family="Helvetica,sans-Serif" font-size="10.00">/Voronoi/Voronoi2D/Voronoi2D.h</text>
</a>
</g>
</g>
<!-- Node2 -->
<g id="node2" class="node">
<title>Node2</title>
<g id="a_node2"><a xlink:href="ExporterTraits_8h.html" target="_top" xlink:title="Declares the ExporterTraits struct for data exporting.">
<polygon fill="none" stroke="black" points="0,-73 0,-103 149,-103 149,-73 0,-73"/>
<text text-anchor="start" x="8" y="-91" font-family="Helvetica,sans-Serif" font-size="10.00">include/VoronoiMeshMaker</text>
<text text-anchor="middle" x="74.5" y="-80" font-family="Helvetica,sans-Serif" font-size="10.00">/Exporter/ExporterTraits.h</text>
</a>
</g>
</g>
<!-- Node1&#45;&gt;Node2 -->
<g id="edge1" class="edge">
<title>Node1&#45;&gt;Node2</title>
<path fill="none" stroke="midnightblue" d="M134.53,-138.79C120.64,-127.27 103.72,-113.23 91.39,-103"/>
<polygon fill="midnightblue" stroke="midnightblue" points="132.37,-141.54 142.3,-145.23 136.84,-136.16 132.37,-141.54"/>
</g>
<!-- Node4 -->
<g id="node4" class="node">
<title>Node4</title>
<g id="a_node4"><a xlink:href="Voronoi2D_8cpp.html" target="_top" xlink:title="Implements the Voronoi2D class methods.">
<polygon fill="none" stroke="black" points="166.5,-67.5 166.5,-108.5 324.5,-108.5 324.5,-67.5 166.5,-67.5"/>
<text text-anchor="start" x="174.5" y="-96.5" font-family="Helvetica,sans-Serif" font-size="10.00">src/VoronoiMeshMaker</text>
<text text-anchor="start" x="174.5" y="-85.5" font-family="Helvetica,sans-Serif" font-size="10.00">/Voronoi/Voronoi2D/Voronoi2</text>
<text text-anchor="middle" x="245.5" y="-74.5" font-family="Helvetica,sans-Serif" font-size="10.00">D.cpp</text>
</a>
</g>
</g>
<!-- Node1&#45;&gt;Node4 -->
<g id="edge3" class="edge">
<title>Node1&#45;&gt;Node4</title>
<path fill="none" stroke="midnightblue" d="M184.93,-138.66C196.53,-129.15 210.19,-117.94 221.6,-108.59"/>
<polygon fill="midnightblue" stroke="midnightblue" points="182.42,-136.19 176.9,-145.23 186.86,-141.6 182.42,-136.19"/>
</g>
<!-- Node3 -->
<g id="node3" class="node">
<title>Node3</title>
<g id="a_node3"><a xlink:href="Exporter_8h.html" target="_top" xlink:title="Declares the template class Exporter for data exporting.">
<polygon fill="none" stroke="black" points="0,-0.5 0,-30.5 149,-30.5 149,-0.5 0,-0.5"/>
<text text-anchor="start" x="8" y="-18.5" font-family="Helvetica,sans-Serif" font-size="10.00">include/VoronoiMeshMaker</text>
<text text-anchor="middle" x="74.5" y="-7.5" font-family="Helvetica,sans-Serif" font-size="10.00">/Exporter/Exporter.h</text>
</a>
</g>
</g>
<!-- Node2&#45;&gt;Node3 -->
<g id="edge2" class="edge">
<title>Node2&#45;&gt;Node3</title>
<path fill="none" stroke="midnightblue" d="M74.5,-62.73C74.5,-52.07 74.5,-39.91 74.5,-30.75"/>
<polygon fill="midnightblue" stroke="midnightblue" points="71,-62.73 74.5,-72.73 78,-62.73 71,-62.73"/>
</g>
</g>
</svg>
