<?xml version="1.0" encoding="UTF-8" standalone="no"?>
<!DOCTYPE svg PUBLIC "-//W3C//DTD SVG 1.1//EN"
 "http://www.w3.org/Graphics/SVG/1.1/DTD/svg11.dtd">
<!-- Generated by graphviz version 2.43.0 (0)
 -->
<!-- Title: include/VoronoiMeshMaker/Voronoi/Voronoi.h Pages: 1 -->
<svg width="587pt" height="251pt"
 viewBox="0.00 0.00 587.00 251.00" xmlns="http://www.w3.org/2000/svg" xmlns:xlink="http://www.w3.org/1999/xlink">
<g id="graph0" class="graph" transform="scale(1 1) rotate(0) translate(4 247)">
<title>include/VoronoiMeshMaker/Voronoi/Voronoi.h</title>
<!-- Node1 -->
<g id="node1" class="node">
<title>Node1</title>
<g id="a_node1"><a xlink:title="Declares the Voronoi base class for representing Voronoi diagrams.">
<polygon fill="#bfbfbf" stroke="black" points="271.5,-212.5 271.5,-242.5 420.5,-242.5 420.5,-212.5 271.5,-212.5"/>
<text text-anchor="start" x="279.5" y="-230.5" font-family="Helvetica,sans-Serif" font-size="10.00">include/VoronoiMeshMaker</text>
<text text-anchor="middle" x="346" y="-219.5" font-family="Helvetica,sans-Serif" font-size="10.00">/Voronoi/Voronoi.h</text>
</a>
</g>
</g>
<!-- Node2 -->
<g id="node2" class="node">
<title>Node2</title>
<g id="a_node2"><a xlink:href="Voronoi2D_8h.html" target="_top" xlink:title="Declares the Voronoi2D class for representing 2D Voronoi diagrams.">
<polygon fill="none" stroke="black" points="67,-145.5 67,-175.5 241,-175.5 241,-145.5 67,-145.5"/>
<text text-anchor="start" x="75" y="-163.5" font-family="Helvetica,sans-Serif" font-size="10.00">include/VoronoiMeshMaker</text>
<text text-anchor="middle" x="154" y="-152.5" font-family="Helvetica,sans-Serif" font-size="10.00">/Voronoi/Voronoi2D/Voronoi2D.h</text>
</a>
</g>
</g>
<!-- Node1&#45;&gt;Node2 -->
<g id="edge1" class="edge">
<title>Node1&#45;&gt;Node2</title>
<path fill="none" stroke="midnightblue" d="M294.58,-209.09C263.58,-198.6 224.62,-185.41 195.58,-175.58"/>
<polygon fill="midnightblue" stroke="midnightblue" points="293.74,-212.5 304.34,-212.4 295.99,-205.87 293.74,-212.5"/>
</g>
<!-- Node6 -->
<g id="node6" class="node">
<title>Node6</title>
<g id="a_node6"><a xlink:href="Voronoi3D_8h.html" target="_top" xlink:title="Declares the Voronoi3D class for representing 3D Voronoi diagrams.">
<polygon fill="none" stroke="black" points="259,-145.5 259,-175.5 433,-175.5 433,-145.5 259,-145.5"/>
<text text-anchor="start" x="267" y="-163.5" font-family="Helvetica,sans-Serif" font-size="10.00">include/VoronoiMeshMaker</text>
<text text-anchor="middle" x="346" y="-152.5" font-family="Helvetica,sans-Serif" font-size="10.00">/Voronoi/Voronoi3D/Voronoi3D.h</text>
</a>
</g>
</g>
<!-- Node1&#45;&gt;Node6 -->
<g id="edge5" class="edge">
<title>Node1&#45;&gt;Node6</title>
<path fill="none" stroke="midnightblue" d="M346,-202.11C346,-193.15 346,-183.32 346,-175.58"/>
<polygon fill="midnightblue" stroke="midnightblue" points="342.5,-202.4 346,-212.4 349.5,-202.4 342.5,-202.4"/>
</g>
<!-- Node8 -->
<g id="node8" class="node">
<title>Node8</title>
<g id="a_node8"><a xlink:href="Voronoi_8cpp.html" target="_top" xlink:title="Implements the Voronoi base class methods.">
<polygon fill="none" stroke="black" points="451,-145.5 451,-175.5 579,-175.5 579,-145.5 451,-145.5"/>
<text text-anchor="start" x="459" y="-163.5" font-family="Helvetica,sans-Serif" font-size="10.00">src/VoronoiMeshMaker</text>
<text text-anchor="middle" x="515" y="-152.5" font-family="Helvetica,sans-Serif" font-size="10.00">/Voronoi/Voronoi.cpp</text>
</a>
</g>
</g>
<!-- Node1&#45;&gt;Node8 -->
<g id="edge8" class="edge">
<title>Node1&#45;&gt;Node8</title>
<path fill="none" stroke="midnightblue" d="M392.33,-208.68C419.43,-198.26 453.17,-185.28 478.4,-175.58"/>
<polygon fill="midnightblue" stroke="midnightblue" points="390.75,-205.54 382.67,-212.4 393.26,-212.07 390.75,-205.54"/>
</g>
<!-- Node3 -->
<g id="node3" class="node">
<title>Node3</title>
<g id="a_node3"><a xlink:href="ExporterTraits_8h.html" target="_top" xlink:title="Declares the ExporterTraits struct for data exporting.">
<polygon fill="none" stroke="black" points="175.5,-73 175.5,-103 324.5,-103 324.5,-73 175.5,-73"/>
<text text-anchor="start" x="183.5" y="-91" font-family="Helvetica,sans-Serif" font-size="10.00">include/VoronoiMeshMaker</text>
<text text-anchor="middle" x="250" y="-80" font-family="Helvetica,sans-Serif" font-size="10.00">/Exporter/ExporterTraits.h</text>
</a>
</g>
</g>
<!-- Node2&#45;&gt;Node3 -->
<g id="edge2" class="edge">
<title>Node2&#45;&gt;Node3</title>
<path fill="none" stroke="midnightblue" d="M181.77,-139.11C197.54,-127.53 216.87,-113.33 230.93,-103"/>
<polygon fill="midnightblue" stroke="midnightblue" points="179.42,-136.49 173.43,-145.23 183.56,-142.14 179.42,-136.49"/>
</g>
<!-- Node5 -->
<g id="node5" class="node">
<title>Node5</title>
<g id="a_node5"><a xlink:href="Voronoi2D_8cpp.html" target="_top" xlink:title="Implements the Voronoi2D class methods.">
<polygon fill="none" stroke="black" points="0,-67.5 0,-108.5 158,-108.5 158,-67.5 0,-67.5"/>
<text text-anchor="start" x="8" y="-96.5" font-family="Helvetica,sans-Serif" font-size="10.00">src/VoronoiMeshMaker</text>
<text text-anchor="start" x="8" y="-85.5" font-family="Helvetica,sans-Serif" font-size="10.00">/Voronoi/Voronoi2D/Voronoi2</text>
<text text-anchor="middle" x="79" y="-74.5" font-family="Helvetica,sans-Serif" font-size="10.00">D.cpp</text>
</a>
</g>
</g>
<!-- Node2&#45;&gt;Node5 -->
<g id="edge4" class="edge">
<title>Node2&#45;&gt;Node5</title>
<path fill="none" stroke="midnightblue" d="M131.53,-138.38C121.48,-128.93 109.69,-117.85 99.84,-108.59"/>
<polygon fill="midnightblue" stroke="midnightblue" points="129.14,-140.93 138.82,-145.23 133.93,-135.83 129.14,-140.93"/>
</g>
<!-- Node4 -->
<g id="node4" class="node">
<title>Node4</title>
<g id="a_node4"><a xlink:href="Exporter_8h.html" target="_top" xlink:title="Declares the template class Exporter for data exporting.">
<polygon fill="none" stroke="black" points="175.5,-0.5 175.5,-30.5 324.5,-30.5 324.5,-0.5 175.5,-0.5"/>
<text text-anchor="start" x="183.5" y="-18.5" font-family="Helvetica,sans-Serif" font-size="10.00">include/VoronoiMeshMaker</text>
<text text-anchor="middle" x="250" y="-7.5" font-family="Helvetica,sans-Serif" font-size="10.00">/Exporter/Exporter.h</text>
</a>
</g>
</g>
<!-- Node3&#45;&gt;Node4 -->
<g id="edge3" class="edge">
<title>Node3&#45;&gt;Node4</title>
<path fill="none" stroke="midnightblue" d="M250,-62.73C250,-52.07 250,-39.91 250,-30.75"/>
<polygon fill="midnightblue" stroke="midnightblue" points="246.5,-62.73 250,-72.73 253.5,-62.73 246.5,-62.73"/>
</g>
<!-- Node6&#45;&gt;Node3 -->
<g id="edge6" class="edge">
<title>Node6&#45;&gt;Node3</title>
<path fill="none" stroke="midnightblue" d="M318.23,-139.11C302.46,-127.53 283.13,-113.33 269.07,-103"/>
<polygon fill="midnightblue" stroke="midnightblue" points="316.44,-142.14 326.57,-145.23 320.58,-136.49 316.44,-142.14"/>
</g>
<!-- Node7 -->
<g id="node7" class="node">
<title>Node7</title>
<g id="a_node7"><a xlink:href="Voronoi3D_8cpp.html" target="_top" xlink:title="Implements the Voronoi3D class methods.">
<polygon fill="none" stroke="black" points="342,-67.5 342,-108.5 500,-108.5 500,-67.5 342,-67.5"/>
<text text-anchor="start" x="350" y="-96.5" font-family="Helvetica,sans-Serif" font-size="10.00">src/VoronoiMeshMaker</text>
<text text-anchor="start" x="350" y="-85.5" font-family="Helvetica,sans-Serif" font-size="10.00">/Voronoi/Voronoi3D/Voronoi3</text>
<text text-anchor="middle" x="421" y="-74.5" font-family="Helvetica,sans-Serif" font-size="10.00">D.cpp</text>
</a>
</g>
</g>
<!-- Node6&#45;&gt;Node7 -->
<g id="edge7" class="edge">
<title>Node6&#45;&gt;Node7</title>
<path fill="none" stroke="midnightblue" d="M368.47,-138.38C378.52,-128.93 390.31,-117.85 400.16,-108.59"/>
<polygon fill="midnightblue" stroke="midnightblue" points="366.07,-135.83 361.18,-145.23 370.86,-140.93 366.07,-135.83"/>
</g>
</g>
</svg>
