<?xml version="1.0" encoding="UTF-8" standalone="no"?>
<!DOCTYPE svg PUBLIC "-//W3C//DTD SVG 1.1//EN"
 "http://www.w3.org/Graphics/SVG/1.1/DTD/svg11.dtd">
<!-- Generated by graphviz version 2.43.0 (0)
 -->
<!-- Title: include/VoronoiMeshMaker/Voronoi/Voronoi3D/Voronoi3D.h Pages: 1 -->
<svg width="182pt" height="173pt"
 viewBox="0.00 0.00 182.00 173.00" xmlns="http://www.w3.org/2000/svg" xmlns:xlink="http://www.w3.org/1999/xlink">
<g id="graph0" class="graph" transform="scale(1 1) rotate(0) translate(4 169)">
<title>include/VoronoiMeshMaker/Voronoi/Voronoi3D/Voronoi3D.h</title>
<!-- Node1 -->
<g id="node1" class="node">
<title>Node1</title>
<g id="a_node1"><a xlink:title="Declares the Voronoi3D class for representing 3D Voronoi diagrams.">
<polygon fill="#bfbfbf" stroke="black" points="0,-134.5 0,-164.5 174,-164.5 174,-134.5 0,-134.5"/>
<text text-anchor="start" x="8" y="-152.5" font-family="Helvetica,sans-Serif" font-size="10.00">include/VoronoiMeshMaker</text>
<text text-anchor="middle" x="87" y="-141.5" font-family="Helvetica,sans-Serif" font-size="10.00">/Voronoi/Voronoi3D/Voronoi3D.h</text>
</a>
</g>
</g>
<!-- Node2 -->
<g id="node2" class="node">
<title>Node2</title>
<g id="a_node2"><a xlink:href="Voronoi_8h.html" target="_top" xlink:title="Declares the Voronoi base class for representing Voronoi diagrams.">
<polygon fill="none" stroke="black" points="11.5,-67.5 11.5,-97.5 162.5,-97.5 162.5,-67.5 11.5,-67.5"/>
<text text-anchor="start" x="19.5" y="-85.5" font-family="Helvetica,sans-Serif" font-size="10.00">VoronoiMeshMaker/Voronoi</text>
<text text-anchor="middle" x="87" y="-74.5" font-family="Helvetica,sans-Serif" font-size="10.00">/Voronoi.h</text>
</a>
</g>
</g>
<!-- Node1&#45;&gt;Node2 -->
<g id="edge1" class="edge">
<title>Node1&#45;&gt;Node2</title>
<path fill="none" stroke="midnightblue" d="M87,-134.4C87,-126.64 87,-116.81 87,-107.86"/>
<polygon fill="midnightblue" stroke="midnightblue" points="90.5,-107.58 87,-97.58 83.5,-107.58 90.5,-107.58"/>
</g>
<!-- Node3 -->
<g id="node3" class="node">
<title>Node3</title>
<g id="a_node3"><a xlink:href="namespace_8h.html" target="_top" xlink:title=" ">
<polygon fill="none" stroke="black" points="19,-0.5 19,-30.5 155,-30.5 155,-0.5 19,-0.5"/>
<text text-anchor="start" x="27" y="-18.5" font-family="Helvetica,sans-Serif" font-size="10.00">VoronoiMeshMaker/Misc</text>
<text text-anchor="middle" x="87" y="-7.5" font-family="Helvetica,sans-Serif" font-size="10.00">/namespace.h</text>
</a>
</g>
</g>
<!-- Node2&#45;&gt;Node3 -->
<g id="edge2" class="edge">
<title>Node2&#45;&gt;Node3</title>
<path fill="none" stroke="midnightblue" d="M87,-67.4C87,-59.64 87,-49.81 87,-40.86"/>
<polygon fill="midnightblue" stroke="midnightblue" points="90.5,-40.58 87,-30.58 83.5,-40.58 90.5,-40.58"/>
</g>
</g>
</svg>
