<?xml version="1.0" encoding="UTF-8" standalone="no"?>
<!DOCTYPE svg PUBLIC "-//W3C//DTD SVG 1.1//EN"
 "http://www.w3.org/Graphics/SVG/1.1/DTD/svg11.dtd">
<!-- Generated by graphviz version 2.43.0 (0)
 -->
<!-- Title: include/VoronoiMeshMaker/DataExporter/VoronoiDataExporter.h Pages: 1 -->
<svg width="833pt" height="586pt"
 viewBox="0.00 0.00 833.00 586.00" xmlns="http://www.w3.org/2000/svg" xmlns:xlink="http://www.w3.org/1999/xlink">
<g id="graph0" class="graph" transform="scale(1 1) rotate(0) translate(4 582)">
<title>include/VoronoiMeshMaker/DataExporter/VoronoiDataExporter.h</title>
<!-- Node1 -->
<g id="node1" class="node">
<title>Node1</title>
<g id="a_node1"><a xlink:title="Defines the VoronoiDataExporter class for exporting data in different formats.">
<polygon fill="#bfbfbf" stroke="black" points="56,-547.5 56,-577.5 254,-577.5 254,-547.5 56,-547.5"/>
<text text-anchor="start" x="64" y="-565.5" font-family="Helvetica,sans-Serif" font-size="10.00">include/VoronoiMeshMaker</text>
<text text-anchor="middle" x="155" y="-554.5" font-family="Helvetica,sans-Serif" font-size="10.00">/DataExporter/VoronoiDataExporter.h</text>
</a>
</g>
</g>
<!-- Node2 -->
<g id="node2" class="node">
<title>Node2</title>
<g id="a_node2"><a xlink:title=" ">
<polygon fill="none" stroke="#bfbfbf" points="9,-11.5 9,-30.5 67,-30.5 67,-11.5 9,-11.5"/>
<text text-anchor="middle" x="38" y="-18.5" font-family="Helvetica,sans-Serif" font-size="10.00">memory</text>
</a>
</g>
</g>
<!-- Node1&#45;&gt;Node2 -->
<g id="edge1" class="edge">
<title>Node1&#45;&gt;Node2</title>
<path fill="none" stroke="midnightblue" d="M115.08,-547.5C69.16,-528.53 0,-489.94 0,-429.5 0,-429.5 0,-429.5 0,-159.5 0,-115.31 18.46,-65.93 29.65,-40.06"/>
<polygon fill="midnightblue" stroke="midnightblue" points="32.91,-41.33 33.79,-30.78 26.52,-38.48 32.91,-41.33"/>
</g>
<!-- Node3 -->
<g id="node3" class="node">
<title>Node3</title>
<g id="a_node3"><a xlink:title=" ">
<polygon fill="none" stroke="#bfbfbf" points="300.5,-486 300.5,-505 373.5,-505 373.5,-486 300.5,-486"/>
<text text-anchor="middle" x="337" y="-493" font-family="Helvetica,sans-Serif" font-size="10.00">string_view</text>
</a>
</g>
</g>
<!-- Node1&#45;&gt;Node3 -->
<g id="edge2" class="edge">
<title>Node1&#45;&gt;Node3</title>
<path fill="none" stroke="midnightblue" d="M194.49,-547.4C227.13,-535.74 272.96,-519.37 303.75,-508.38"/>
<polygon fill="midnightblue" stroke="midnightblue" points="304.94,-511.67 313.18,-505.01 302.59,-505.07 304.94,-511.67"/>
</g>
<!-- Node4 -->
<g id="node4" class="node">
<title>Node4</title>
<g id="a_node4"><a xlink:href="Shape2D_8h.html" target="_top" xlink:title="Defines the Shape2D class, which represents 2D geometric shapes.">
<polygon fill="none" stroke="black" points="162.5,-346.5 162.5,-376.5 305.5,-376.5 305.5,-346.5 162.5,-346.5"/>
<text text-anchor="start" x="170.5" y="-364.5" font-family="Helvetica,sans-Serif" font-size="10.00">VoronoiMeshMaker/Shape</text>
<text text-anchor="middle" x="234" y="-353.5" font-family="Helvetica,sans-Serif" font-size="10.00">/Shape2D/Shape2D.h</text>
</a>
</g>
</g>
<!-- Node1&#45;&gt;Node4 -->
<g id="edge3" class="edge">
<title>Node1&#45;&gt;Node4</title>
<path fill="none" stroke="midnightblue" d="M206.15,-547.43C224.17,-539.74 242.54,-528.16 253,-511 276.68,-472.15 259.09,-417 245.6,-386"/>
<polygon fill="midnightblue" stroke="midnightblue" points="248.76,-384.48 241.42,-376.84 242.39,-387.39 248.76,-384.48"/>
</g>
<!-- Node19 -->
<g id="node19" class="node">
<title>Node19</title>
<g id="a_node19"><a xlink:href="ExportStrategy_8h.html" target="_top" xlink:title="Defines the abstract base class for export strategies.">
<polygon fill="none" stroke="black" points="28,-413.5 28,-443.5 206,-443.5 206,-413.5 28,-413.5"/>
<text text-anchor="start" x="36" y="-431.5" font-family="Helvetica,sans-Serif" font-size="10.00">VoronoiMeshMaker/DataExporter</text>
<text text-anchor="middle" x="117" y="-420.5" font-family="Helvetica,sans-Serif" font-size="10.00">/ExportStrategy.h</text>
</a>
</g>
</g>
<!-- Node1&#45;&gt;Node19 -->
<g id="edge21" class="edge">
<title>Node1&#45;&gt;Node19</title>
<path fill="none" stroke="midnightblue" d="M103.85,-547.43C85.83,-539.74 67.46,-528.16 57,-511 49.83,-499.24 51.19,-492.49 57,-480 62.67,-467.82 72.87,-457.54 83.28,-449.49"/>
<polygon fill="midnightblue" stroke="midnightblue" points="85.51,-452.19 91.59,-443.52 81.42,-446.51 85.51,-452.19"/>
</g>
<!-- Node21 -->
<g id="node21" class="node">
<title>Node21</title>
<g id="a_node21"><a xlink:href="VTKExportStrategy_8h.html" target="_top" xlink:title="Defines the VTKExportStrategy class for exporting Shape2D to VTK format.">
<polygon fill="none" stroke="black" points="66,-480.5 66,-510.5 244,-510.5 244,-480.5 66,-480.5"/>
<text text-anchor="start" x="74" y="-498.5" font-family="Helvetica,sans-Serif" font-size="10.00">VoronoiMeshMaker/DataExporter</text>
<text text-anchor="middle" x="155" y="-487.5" font-family="Helvetica,sans-Serif" font-size="10.00">/VTKExportStrategy.h</text>
</a>
</g>
</g>
<!-- Node1&#45;&gt;Node21 -->
<g id="edge24" class="edge">
<title>Node1&#45;&gt;Node21</title>
<path fill="none" stroke="midnightblue" d="M155,-547.4C155,-539.64 155,-529.81 155,-520.86"/>
<polygon fill="midnightblue" stroke="midnightblue" points="158.5,-520.58 155,-510.58 151.5,-520.58 158.5,-520.58"/>
</g>
<!-- Node5 -->
<g id="node5" class="node">
<title>Node5</title>
<g id="a_node5"><a xlink:href="Shape_8h.html" target="_top" xlink:title="Defines the Shape class, which serves as the abstract base class for all shapes. This class provides ...">
<polygon fill="none" stroke="black" points="162.5,-279.5 162.5,-309.5 305.5,-309.5 305.5,-279.5 162.5,-279.5"/>
<text text-anchor="start" x="170.5" y="-297.5" font-family="Helvetica,sans-Serif" font-size="10.00">VoronoiMeshMaker/Shape</text>
<text text-anchor="middle" x="234" y="-286.5" font-family="Helvetica,sans-Serif" font-size="10.00">/Shape.h</text>
</a>
</g>
</g>
<!-- Node4&#45;&gt;Node5 -->
<g id="edge4" class="edge">
<title>Node4&#45;&gt;Node5</title>
<path fill="none" stroke="midnightblue" d="M234,-346.4C234,-338.64 234,-328.81 234,-319.86"/>
<polygon fill="midnightblue" stroke="midnightblue" points="237.5,-319.58 234,-309.58 230.5,-319.58 237.5,-319.58"/>
</g>
<!-- Node5&#45;&gt;Node2 -->
<g id="edge6" class="edge">
<title>Node5&#45;&gt;Node2</title>
<path fill="none" stroke="midnightblue" d="M195.18,-279.38C153.42,-261.97 88.75,-228.14 57,-176 31.04,-133.36 32.71,-71.75 35.61,-40.98"/>
<polygon fill="midnightblue" stroke="midnightblue" points="39.11,-41.13 36.73,-30.8 32.15,-40.36 39.11,-41.13"/>
</g>
<!-- Node6 -->
<g id="node6" class="node">
<title>Node6</title>
<g id="a_node6"><a xlink:title=" ">
<polygon fill="none" stroke="#bfbfbf" points="164,-218 164,-237 224,-237 224,-218 164,-218"/>
<text text-anchor="middle" x="194" y="-225" font-family="Helvetica,sans-Serif" font-size="10.00">iostream</text>
</a>
</g>
</g>
<!-- Node5&#45;&gt;Node6 -->
<g id="edge5" class="edge">
<title>Node5&#45;&gt;Node6</title>
<path fill="none" stroke="midnightblue" d="M225.32,-279.4C219.27,-269.56 211.16,-256.38 204.7,-245.89"/>
<polygon fill="midnightblue" stroke="midnightblue" points="207.57,-243.88 199.35,-237.19 201.61,-247.55 207.57,-243.88"/>
</g>
<!-- Node7 -->
<g id="node7" class="node">
<title>Node7</title>
<g id="a_node7"><a xlink:title=" ">
<polygon fill="none" stroke="#bfbfbf" points="526,-151 526,-170 684,-170 684,-151 526,-151"/>
<text text-anchor="middle" x="605" y="-158" font-family="Helvetica,sans-Serif" font-size="10.00">VoronoiMeshMaker/Misc/ID.h</text>
</a>
</g>
</g>
<!-- Node5&#45;&gt;Node7 -->
<g id="edge7" class="edge">
<title>Node5&#45;&gt;Node7</title>
<path fill="none" stroke="midnightblue" d="M295.36,-279.45C332.21,-270.39 379.79,-257.59 421,-243 478.8,-222.53 543.83,-191.82 579.01,-174.54"/>
<polygon fill="midnightblue" stroke="midnightblue" points="580.69,-177.61 588.11,-170.04 577.59,-171.33 580.69,-177.61"/>
</g>
<!-- Node8 -->
<g id="node8" class="node">
<title>Node8</title>
<g id="a_node8"><a xlink:href="GeometricDataHolder_8h.html" target="_top" xlink:title="Defines the GeometricDataHolder class and the DataTraits for handling multiple data types....">
<polygon fill="none" stroke="black" points="242,-212.5 242,-242.5 412,-242.5 412,-212.5 242,-212.5"/>
<text text-anchor="start" x="250" y="-230.5" font-family="Helvetica,sans-Serif" font-size="10.00">VoronoiMeshMaker/Parameters</text>
<text text-anchor="middle" x="327" y="-219.5" font-family="Helvetica,sans-Serif" font-size="10.00">/GeometricDataHolder.h</text>
</a>
</g>
</g>
<!-- Node5&#45;&gt;Node8 -->
<g id="edge8" class="edge">
<title>Node5&#45;&gt;Node8</title>
<path fill="none" stroke="midnightblue" d="M254.18,-279.4C267.1,-270.37 284.06,-258.51 298.36,-248.52"/>
<polygon fill="midnightblue" stroke="midnightblue" points="300.67,-251.17 306.86,-242.58 296.66,-245.44 300.67,-251.17"/>
</g>
<!-- Node8&#45;&gt;Node7 -->
<g id="edge10" class="edge">
<title>Node8&#45;&gt;Node7</title>
<path fill="none" stroke="midnightblue" d="M386.98,-212.48C438.43,-200.45 511.52,-183.36 558.6,-172.35"/>
<polygon fill="midnightblue" stroke="midnightblue" points="559.58,-175.71 568.52,-170.03 557.99,-168.9 559.58,-175.71"/>
</g>
<!-- Node9 -->
<g id="node9" class="node">
<title>Node9</title>
<g id="a_node9"><a xlink:title=" ">
<polygon fill="none" stroke="#bfbfbf" points="254.5,-151 254.5,-170 319.5,-170 319.5,-151 254.5,-151"/>
<text text-anchor="middle" x="287" y="-158" font-family="Helvetica,sans-Serif" font-size="10.00">execution</text>
</a>
</g>
</g>
<!-- Node8&#45;&gt;Node9 -->
<g id="edge9" class="edge">
<title>Node8&#45;&gt;Node9</title>
<path fill="none" stroke="midnightblue" d="M318.32,-212.4C312.27,-202.56 304.16,-189.38 297.7,-178.89"/>
<polygon fill="midnightblue" stroke="midnightblue" points="300.57,-176.88 292.35,-170.19 294.61,-180.55 300.57,-176.88"/>
</g>
<!-- Node10 -->
<g id="node10" class="node">
<title>Node10</title>
<g id="a_node10"><a xlink:href="GeometricDataTraits_8h.html" target="_top" xlink:title="Defines the GeometricDataTraits structure used for type identification and operations on various data...">
<polygon fill="none" stroke="black" points="338,-145.5 338,-175.5 508,-175.5 508,-145.5 338,-145.5"/>
<text text-anchor="start" x="346" y="-163.5" font-family="Helvetica,sans-Serif" font-size="10.00">VoronoiMeshMaker/Parameters</text>
<text text-anchor="middle" x="423" y="-152.5" font-family="Helvetica,sans-Serif" font-size="10.00">/GeometricDataTraits.h</text>
</a>
</g>
</g>
<!-- Node8&#45;&gt;Node10 -->
<g id="edge11" class="edge">
<title>Node8&#45;&gt;Node10</title>
<path fill="none" stroke="midnightblue" d="M347.83,-212.4C361.29,-203.28 379,-191.29 393.85,-181.24"/>
<polygon fill="midnightblue" stroke="midnightblue" points="395.89,-184.08 402.21,-175.58 391.97,-178.28 395.89,-184.08"/>
</g>
<!-- Node18 -->
<g id="node18" class="node">
<title>Node18</title>
<g id="a_node18"><a xlink:href="GeometricDataHolder_8tpp.html" target="_top" xlink:title=" ">
<polygon fill="none" stroke="black" points="66,-145.5 66,-175.5 236,-175.5 236,-145.5 66,-145.5"/>
<text text-anchor="start" x="74" y="-163.5" font-family="Helvetica,sans-Serif" font-size="10.00">VoronoiMeshMaker/Parameters</text>
<text text-anchor="middle" x="151" y="-152.5" font-family="Helvetica,sans-Serif" font-size="10.00">/GeometricDataHolder.tpp</text>
</a>
</g>
</g>
<!-- Node8&#45;&gt;Node18 -->
<g id="edge20" class="edge">
<title>Node8&#45;&gt;Node18</title>
<path fill="none" stroke="midnightblue" d="M288.81,-212.4C262.4,-202.64 227.07,-189.59 198.8,-179.15"/>
<polygon fill="midnightblue" stroke="midnightblue" points="199.71,-175.76 189.11,-175.58 197.28,-182.32 199.71,-175.76"/>
</g>
<!-- Node11 -->
<g id="node11" class="node">
<title>Node11</title>
<g id="a_node11"><a xlink:href="type_8h.html" target="_top" xlink:title="Defines common geometric and numeric types used in the VoronoiMeshMaker library.">
<polygon fill="none" stroke="black" points="315,-78.5 315,-108.5 451,-108.5 451,-78.5 315,-78.5"/>
<text text-anchor="start" x="323" y="-96.5" font-family="Helvetica,sans-Serif" font-size="10.00">VoronoiMeshMaker/Misc</text>
<text text-anchor="middle" x="383" y="-85.5" font-family="Helvetica,sans-Serif" font-size="10.00">/type.h</text>
</a>
</g>
</g>
<!-- Node10&#45;&gt;Node11 -->
<g id="edge12" class="edge">
<title>Node10&#45;&gt;Node11</title>
<path fill="none" stroke="midnightblue" d="M414.32,-145.4C409.24,-137.13 402.7,-126.51 396.91,-117.1"/>
<polygon fill="midnightblue" stroke="midnightblue" points="399.88,-115.26 391.66,-108.58 393.92,-118.93 399.88,-115.26"/>
</g>
<!-- Node11&#45;&gt;Node2 -->
<g id="edge14" class="edge">
<title>Node11&#45;&gt;Node2</title>
<path fill="none" stroke="midnightblue" d="M314.84,-78.57C243.7,-64.03 134.65,-41.75 76.94,-29.96"/>
<polygon fill="midnightblue" stroke="midnightblue" points="77.62,-26.52 67.12,-27.95 76.21,-33.38 77.62,-26.52"/>
</g>
<!-- Node12 -->
<g id="node12" class="node">
<title>Node12</title>
<g id="a_node12"><a xlink:title=" ">
<polygon fill="none" stroke="#bfbfbf" points="164,-11.5 164,-30.5 196,-30.5 196,-11.5 164,-11.5"/>
<text text-anchor="middle" x="180" y="-18.5" font-family="Helvetica,sans-Serif" font-size="10.00">list</text>
</a>
</g>
</g>
<!-- Node11&#45;&gt;Node12 -->
<g id="edge13" class="edge">
<title>Node11&#45;&gt;Node12</title>
<path fill="none" stroke="midnightblue" d="M314.78,-79.4C280.93,-71.33 240.1,-59.19 206,-42 203.14,-40.56 200.29,-38.79 197.57,-36.9"/>
<polygon fill="midnightblue" stroke="midnightblue" points="199.59,-34.04 189.53,-30.73 195.34,-39.6 199.59,-34.04"/>
</g>
<!-- Node13 -->
<g id="node13" class="node">
<title>Node13</title>
<g id="a_node13"><a xlink:title=" ">
<polygon fill="none" stroke="#bfbfbf" points="214.5,-11.5 214.5,-30.5 261.5,-30.5 261.5,-11.5 214.5,-11.5"/>
<text text-anchor="middle" x="238" y="-18.5" font-family="Helvetica,sans-Serif" font-size="10.00">vector</text>
</a>
</g>
</g>
<!-- Node11&#45;&gt;Node13 -->
<g id="edge15" class="edge">
<title>Node11&#45;&gt;Node13</title>
<path fill="none" stroke="midnightblue" d="M348.67,-78.3C326.24,-68.72 296.48,-55.4 271,-42 267.37,-40.09 263.59,-37.95 259.93,-35.8"/>
<polygon fill="midnightblue" stroke="midnightblue" points="261.64,-32.74 251.27,-30.55 258.01,-38.73 261.64,-32.74"/>
</g>
<!-- Node14 -->
<g id="node14" class="node">
<title>Node14</title>
<g id="a_node14"><a xlink:title=" ">
<polygon fill="none" stroke="#bfbfbf" points="279.5,-0.5 279.5,-41.5 408.5,-41.5 408.5,-0.5 279.5,-0.5"/>
<text text-anchor="start" x="287.5" y="-29.5" font-family="Helvetica,sans-Serif" font-size="10.00">CGAL/Exact_predicates</text>
<text text-anchor="start" x="287.5" y="-18.5" font-family="Helvetica,sans-Serif" font-size="10.00">_inexact_constructions</text>
<text text-anchor="middle" x="344" y="-7.5" font-family="Helvetica,sans-Serif" font-size="10.00">_kernel.h</text>
</a>
</g>
</g>
<!-- Node11&#45;&gt;Node14 -->
<g id="edge16" class="edge">
<title>Node11&#45;&gt;Node14</title>
<path fill="none" stroke="midnightblue" d="M375.11,-78.23C370.69,-70.24 365.02,-60 359.73,-50.44"/>
<polygon fill="midnightblue" stroke="midnightblue" points="362.74,-48.64 354.84,-41.59 356.61,-52.03 362.74,-48.64"/>
</g>
<!-- Node15 -->
<g id="node15" class="node">
<title>Node15</title>
<g id="a_node15"><a xlink:title=" ">
<polygon fill="none" stroke="#bfbfbf" points="426.5,-11.5 426.5,-30.5 531.5,-30.5 531.5,-11.5 426.5,-11.5"/>
<text text-anchor="middle" x="479" y="-18.5" font-family="Helvetica,sans-Serif" font-size="10.00">CGAL/Polygon_2.h</text>
</a>
</g>
</g>
<!-- Node11&#45;&gt;Node15 -->
<g id="edge17" class="edge">
<title>Node11&#45;&gt;Node15</title>
<path fill="none" stroke="midnightblue" d="M402.43,-78.23C418.79,-66.22 442.12,-49.08 458.72,-36.89"/>
<polygon fill="midnightblue" stroke="midnightblue" points="461.18,-39.43 467.17,-30.69 457.03,-33.79 461.18,-39.43"/>
</g>
<!-- Node16 -->
<g id="node16" class="node">
<title>Node16</title>
<g id="a_node16"><a xlink:title=" ">
<polygon fill="none" stroke="#bfbfbf" points="549.5,-11.5 549.5,-30.5 670.5,-30.5 670.5,-11.5 549.5,-11.5"/>
<text text-anchor="middle" x="610" y="-18.5" font-family="Helvetica,sans-Serif" font-size="10.00">CGAL/Polyhedron_3.h</text>
</a>
</g>
</g>
<!-- Node11&#45;&gt;Node16 -->
<g id="edge18" class="edge">
<title>Node11&#45;&gt;Node16</title>
<path fill="none" stroke="midnightblue" d="M428.12,-78.49C470.46,-65.34 533.05,-45.9 572.66,-33.6"/>
<polygon fill="midnightblue" stroke="midnightblue" points="573.94,-36.86 582.45,-30.55 571.87,-30.18 573.94,-36.86"/>
</g>
<!-- Node17 -->
<g id="node17" class="node">
<title>Node17</title>
<g id="a_node17"><a xlink:href="namespace_8h.html" target="_top" xlink:title=" ">
<polygon fill="none" stroke="black" points="689,-6 689,-36 825,-36 825,-6 689,-6"/>
<text text-anchor="start" x="697" y="-24" font-family="Helvetica,sans-Serif" font-size="10.00">VoronoiMeshMaker/Misc</text>
<text text-anchor="middle" x="757" y="-13" font-family="Helvetica,sans-Serif" font-size="10.00">/namespace.h</text>
</a>
</g>
</g>
<!-- Node11&#45;&gt;Node17 -->
<g id="edge19" class="edge">
<title>Node11&#45;&gt;Node17</title>
<path fill="none" stroke="midnightblue" d="M451.14,-82.61C511.55,-73.45 602.01,-58.73 680,-42 685.02,-40.92 690.21,-39.74 695.4,-38.5"/>
<polygon fill="midnightblue" stroke="midnightblue" points="696.49,-41.83 705.37,-36.06 694.83,-35.04 696.49,-41.83"/>
</g>
<!-- Node19&#45;&gt;Node4 -->
<g id="edge23" class="edge">
<title>Node19&#45;&gt;Node4</title>
<path fill="none" stroke="midnightblue" d="M142.39,-413.4C159.18,-404.07 181.39,-391.73 199.74,-381.53"/>
<polygon fill="midnightblue" stroke="midnightblue" points="201.62,-384.49 208.66,-376.58 198.22,-378.37 201.62,-384.49"/>
</g>
<!-- Node20 -->
<g id="node20" class="node">
<title>Node20</title>
<g id="a_node20"><a xlink:title=" ">
<polygon fill="none" stroke="#bfbfbf" points="95,-352 95,-371 139,-371 139,-352 95,-352"/>
<text text-anchor="middle" x="117" y="-359" font-family="Helvetica,sans-Serif" font-size="10.00">string</text>
</a>
</g>
</g>
<!-- Node19&#45;&gt;Node20 -->
<g id="edge22" class="edge">
<title>Node19&#45;&gt;Node20</title>
<path fill="none" stroke="midnightblue" d="M117,-413.4C117,-404.06 117,-391.71 117,-381.52"/>
<polygon fill="midnightblue" stroke="midnightblue" points="120.5,-381.19 117,-371.19 113.5,-381.19 120.5,-381.19"/>
</g>
<!-- Node21&#45;&gt;Node4 -->
<g id="edge26" class="edge">
<title>Node21&#45;&gt;Node4</title>
<path fill="none" stroke="midnightblue" d="M178.17,-480.39C190.89,-471.48 205.89,-458.86 215,-444 225.59,-426.73 230.28,-404.09 232.36,-387.06"/>
<polygon fill="midnightblue" stroke="midnightblue" points="235.87,-387.08 233.38,-376.78 228.91,-386.39 235.87,-387.08"/>
</g>
<!-- Node21&#45;&gt;Node19 -->
<g id="edge25" class="edge">
<title>Node21&#45;&gt;Node19</title>
<path fill="none" stroke="midnightblue" d="M146.75,-480.4C141.97,-472.22 135.84,-461.73 130.38,-452.39"/>
<polygon fill="midnightblue" stroke="midnightblue" points="133.3,-450.44 125.23,-443.58 127.25,-453.98 133.3,-450.44"/>
</g>
</g>
</svg>
