<?xml version="1.0" encoding="UTF-8" standalone="no"?>
<!DOCTYPE svg PUBLIC "-//W3C//DTD SVG 1.1//EN"
 "http://www.w3.org/Graphics/SVG/1.1/DTD/svg11.dtd">
<!-- Generated by graphviz version 2.43.0 (0)
 -->
<!-- Title: src/VoronoiMeshMaker/Voronoi/Voronoi3D/Voronoi3D.cpp Pages: 1 -->
<svg width="166pt" height="251pt"
 viewBox="0.00 0.00 166.00 251.00" xmlns="http://www.w3.org/2000/svg" xmlns:xlink="http://www.w3.org/1999/xlink">
<g id="graph0" class="graph" transform="scale(1 1) rotate(0) translate(4 247)">
<title>src/VoronoiMeshMaker/Voronoi/Voronoi3D/Voronoi3D.cpp</title>
<!-- Node1 -->
<g id="node1" class="node">
<title>Node1</title>
<g id="a_node1"><a xlink:title="Implements the Voronoi3D class methods.">
<polygon fill="#bfbfbf" stroke="black" points="0,-201.5 0,-242.5 158,-242.5 158,-201.5 0,-201.5"/>
<text text-anchor="start" x="8" y="-230.5" font-family="Helvetica,sans-Serif" font-size="10.00">src/VoronoiMeshMaker</text>
<text text-anchor="start" x="8" y="-219.5" font-family="Helvetica,sans-Serif" font-size="10.00">/Voronoi/Voronoi3D/Voronoi3</text>
<text text-anchor="middle" x="79" y="-208.5" font-family="Helvetica,sans-Serif" font-size="10.00">D.cpp</text>
</a>
</g>
</g>
<!-- Node2 -->
<g id="node2" class="node">
<title>Node2</title>
<g id="a_node2"><a xlink:href="Voronoi3D_8h.html" target="_top" xlink:title="Declares the Voronoi3D class for representing 3D Voronoi diagrams.">
<polygon fill="none" stroke="black" points="3.5,-134.5 3.5,-164.5 154.5,-164.5 154.5,-134.5 3.5,-134.5"/>
<text text-anchor="start" x="11.5" y="-152.5" font-family="Helvetica,sans-Serif" font-size="10.00">VoronoiMeshMaker/Voronoi</text>
<text text-anchor="middle" x="79" y="-141.5" font-family="Helvetica,sans-Serif" font-size="10.00">/Voronoi3D/Voronoi3D.h</text>
</a>
</g>
</g>
<!-- Node1&#45;&gt;Node2 -->
<g id="edge1" class="edge">
<title>Node1&#45;&gt;Node2</title>
<path fill="none" stroke="midnightblue" d="M79,-201.36C79,-193.23 79,-183.7 79,-175.11"/>
<polygon fill="midnightblue" stroke="midnightblue" points="82.5,-174.89 79,-164.89 75.5,-174.89 82.5,-174.89"/>
</g>
<!-- Node3 -->
<g id="node3" class="node">
<title>Node3</title>
<g id="a_node3"><a xlink:href="Voronoi_8h.html" target="_top" xlink:title="Declares the Voronoi base class for representing Voronoi diagrams.">
<polygon fill="none" stroke="black" points="3.5,-67.5 3.5,-97.5 154.5,-97.5 154.5,-67.5 3.5,-67.5"/>
<text text-anchor="start" x="11.5" y="-85.5" font-family="Helvetica,sans-Serif" font-size="10.00">VoronoiMeshMaker/Voronoi</text>
<text text-anchor="middle" x="79" y="-74.5" font-family="Helvetica,sans-Serif" font-size="10.00">/Voronoi.h</text>
</a>
</g>
</g>
<!-- Node2&#45;&gt;Node3 -->
<g id="edge2" class="edge">
<title>Node2&#45;&gt;Node3</title>
<path fill="none" stroke="midnightblue" d="M79,-134.4C79,-126.64 79,-116.81 79,-107.86"/>
<polygon fill="midnightblue" stroke="midnightblue" points="82.5,-107.58 79,-97.58 75.5,-107.58 82.5,-107.58"/>
</g>
<!-- Node4 -->
<g id="node4" class="node">
<title>Node4</title>
<g id="a_node4"><a xlink:href="namespace_8h.html" target="_top" xlink:title=" ">
<polygon fill="none" stroke="black" points="11,-0.5 11,-30.5 147,-30.5 147,-0.5 11,-0.5"/>
<text text-anchor="start" x="19" y="-18.5" font-family="Helvetica,sans-Serif" font-size="10.00">VoronoiMeshMaker/Misc</text>
<text text-anchor="middle" x="79" y="-7.5" font-family="Helvetica,sans-Serif" font-size="10.00">/namespace.h</text>
</a>
</g>
</g>
<!-- Node3&#45;&gt;Node4 -->
<g id="edge3" class="edge">
<title>Node3&#45;&gt;Node4</title>
<path fill="none" stroke="midnightblue" d="M79,-67.4C79,-59.64 79,-49.81 79,-40.86"/>
<polygon fill="midnightblue" stroke="midnightblue" points="82.5,-40.58 79,-30.58 75.5,-40.58 82.5,-40.58"/>
</g>
</g>
</svg>
