<?xml version="1.0" encoding="UTF-8" standalone="no"?>
<!DOCTYPE svg PUBLIC "-//W3C//DTD SVG 1.1//EN"
 "http://www.w3.org/Graphics/SVG/1.1/DTD/svg11.dtd">
<!-- Generated by graphviz version 2.43.0 (0)
 -->
<!-- Title: include/VoronoiMeshMaker/Voronoi/Voronoi2D/Voronoi2D.h Pages: 1 -->
<svg width="745pt" height="184pt"
 viewBox="0.00 0.00 744.50 184.00" xmlns="http://www.w3.org/2000/svg" xmlns:xlink="http://www.w3.org/1999/xlink">
<g id="graph0" class="graph" transform="scale(1 1) rotate(0) translate(4 180)">
<title>include/VoronoiMeshMaker/Voronoi/Voronoi2D/Voronoi2D.h</title>
<!-- Node1 -->
<g id="node1" class="node">
<title>Node1</title>
<g id="a_node1"><a xlink:title="Declares the Voronoi2D class for representing 2D Voronoi diagrams.">
<polygon fill="#bfbfbf" stroke="black" points="99,-145.5 99,-175.5 273,-175.5 273,-145.5 99,-145.5"/>
<text text-anchor="start" x="107" y="-163.5" font-family="Helvetica,sans-Serif" font-size="10.00">include/VoronoiMeshMaker</text>
<text text-anchor="middle" x="186" y="-152.5" font-family="Helvetica,sans-Serif" font-size="10.00">/Voronoi/Voronoi2D/Voronoi2D.h</text>
</a>
</g>
</g>
<!-- Node2 -->
<g id="node2" class="node">
<title>Node2</title>
<g id="a_node2"><a xlink:href="Voronoi_8h.html" target="_top" xlink:title="Declares the Voronoi base class for representing Voronoi diagrams.">
<polygon fill="none" stroke="black" points="29.5,-78.5 29.5,-108.5 180.5,-108.5 180.5,-78.5 29.5,-78.5"/>
<text text-anchor="start" x="37.5" y="-96.5" font-family="Helvetica,sans-Serif" font-size="10.00">VoronoiMeshMaker/Voronoi</text>
<text text-anchor="middle" x="105" y="-85.5" font-family="Helvetica,sans-Serif" font-size="10.00">/Voronoi.h</text>
</a>
</g>
</g>
<!-- Node1&#45;&gt;Node2 -->
<g id="edge1" class="edge">
<title>Node1&#45;&gt;Node2</title>
<path fill="none" stroke="midnightblue" d="M168.42,-145.4C157.39,-136.54 142.96,-124.96 130.65,-115.09"/>
<polygon fill="midnightblue" stroke="midnightblue" points="132.53,-112.11 122.54,-108.58 128.15,-117.56 132.53,-112.11"/>
</g>
<!-- Node4 -->
<g id="node4" class="node">
<title>Node4</title>
<g id="a_node4"><a xlink:href="type_8h.html" target="_top" xlink:title="Defines common geometric and numeric types used in the VoronoiMeshMaker library.">
<polygon fill="none" stroke="black" points="200,-78.5 200,-108.5 336,-108.5 336,-78.5 200,-78.5"/>
<text text-anchor="start" x="208" y="-96.5" font-family="Helvetica,sans-Serif" font-size="10.00">VoronoiMeshMaker/Misc</text>
<text text-anchor="middle" x="268" y="-85.5" font-family="Helvetica,sans-Serif" font-size="10.00">/type.h</text>
</a>
</g>
</g>
<!-- Node1&#45;&gt;Node4 -->
<g id="edge3" class="edge">
<title>Node1&#45;&gt;Node4</title>
<path fill="none" stroke="midnightblue" d="M203.79,-145.4C215.08,-136.45 229.85,-124.74 242.39,-114.8"/>
<polygon fill="midnightblue" stroke="midnightblue" points="244.58,-117.53 250.24,-108.58 240.23,-112.05 244.58,-117.53"/>
</g>
<!-- Node3 -->
<g id="node3" class="node">
<title>Node3</title>
<g id="a_node3"><a xlink:href="namespace_8h.html" target="_top" xlink:title=" ">
<polygon fill="none" stroke="black" points="0,-6 0,-36 136,-36 136,-6 0,-6"/>
<text text-anchor="start" x="8" y="-24" font-family="Helvetica,sans-Serif" font-size="10.00">VoronoiMeshMaker/Misc</text>
<text text-anchor="middle" x="68" y="-13" font-family="Helvetica,sans-Serif" font-size="10.00">/namespace.h</text>
</a>
</g>
</g>
<!-- Node2&#45;&gt;Node3 -->
<g id="edge2" class="edge">
<title>Node2&#45;&gt;Node3</title>
<path fill="none" stroke="midnightblue" d="M97.51,-78.23C92.55,-68.77 85.92,-56.14 80.2,-45.25"/>
<polygon fill="midnightblue" stroke="midnightblue" points="83.22,-43.47 75.48,-36.25 77.02,-46.73 83.22,-43.47"/>
</g>
<!-- Node4&#45;&gt;Node3 -->
<g id="edge10" class="edge">
<title>Node4&#45;&gt;Node3</title>
<path fill="none" stroke="midnightblue" d="M228.01,-78.4C196.26,-67.21 151.71,-51.51 117.67,-39.51"/>
<polygon fill="midnightblue" stroke="midnightblue" points="118.52,-36.1 107.92,-36.07 116.19,-42.7 118.52,-36.1"/>
</g>
<!-- Node5 -->
<g id="node5" class="node">
<title>Node5</title>
<g id="a_node5"><a xlink:title=" ">
<polygon fill="none" stroke="#bfbfbf" points="154,-11.5 154,-30.5 186,-30.5 186,-11.5 154,-11.5"/>
<text text-anchor="middle" x="170" y="-18.5" font-family="Helvetica,sans-Serif" font-size="10.00">list</text>
</a>
</g>
</g>
<!-- Node4&#45;&gt;Node5 -->
<g id="edge4" class="edge">
<title>Node4&#45;&gt;Node5</title>
<path fill="none" stroke="midnightblue" d="M246.64,-78.3C231.94,-68.38 212.06,-54.7 195,-42 192.89,-40.43 190.71,-38.76 188.56,-37.08"/>
<polygon fill="midnightblue" stroke="midnightblue" points="190.58,-34.22 180.58,-30.73 186.22,-39.7 190.58,-34.22"/>
</g>
<!-- Node6 -->
<g id="node6" class="node">
<title>Node6</title>
<g id="a_node6"><a xlink:title=" ">
<polygon fill="none" stroke="#bfbfbf" points="204,-11.5 204,-30.5 262,-30.5 262,-11.5 204,-11.5"/>
<text text-anchor="middle" x="233" y="-18.5" font-family="Helvetica,sans-Serif" font-size="10.00">memory</text>
</a>
</g>
</g>
<!-- Node4&#45;&gt;Node6 -->
<g id="edge5" class="edge">
<title>Node4&#45;&gt;Node6</title>
<path fill="none" stroke="midnightblue" d="M260.92,-78.23C255.42,-67.17 247.78,-51.77 241.88,-39.88"/>
<polygon fill="midnightblue" stroke="midnightblue" points="245,-38.29 237.42,-30.89 238.73,-41.41 245,-38.29"/>
</g>
<!-- Node7 -->
<g id="node7" class="node">
<title>Node7</title>
<g id="a_node7"><a xlink:title=" ">
<polygon fill="none" stroke="#bfbfbf" points="280.5,-11.5 280.5,-30.5 327.5,-30.5 327.5,-11.5 280.5,-11.5"/>
<text text-anchor="middle" x="304" y="-18.5" font-family="Helvetica,sans-Serif" font-size="10.00">vector</text>
</a>
</g>
</g>
<!-- Node4&#45;&gt;Node7 -->
<g id="edge6" class="edge">
<title>Node4&#45;&gt;Node7</title>
<path fill="none" stroke="midnightblue" d="M275.29,-78.23C280.94,-67.17 288.8,-51.77 294.87,-39.88"/>
<polygon fill="midnightblue" stroke="midnightblue" points="298.03,-41.39 299.46,-30.89 291.79,-38.21 298.03,-41.39"/>
</g>
<!-- Node8 -->
<g id="node8" class="node">
<title>Node8</title>
<g id="a_node8"><a xlink:title=" ">
<polygon fill="none" stroke="#bfbfbf" points="345.5,-0.5 345.5,-41.5 474.5,-41.5 474.5,-0.5 345.5,-0.5"/>
<text text-anchor="start" x="353.5" y="-29.5" font-family="Helvetica,sans-Serif" font-size="10.00">CGAL/Exact_predicates</text>
<text text-anchor="start" x="353.5" y="-18.5" font-family="Helvetica,sans-Serif" font-size="10.00">_inexact_constructions</text>
<text text-anchor="middle" x="410" y="-7.5" font-family="Helvetica,sans-Serif" font-size="10.00">_kernel.h</text>
</a>
</g>
</g>
<!-- Node4&#45;&gt;Node8 -->
<g id="edge7" class="edge">
<title>Node4&#45;&gt;Node8</title>
<path fill="none" stroke="midnightblue" d="M296.39,-78.4C315.02,-69.16 339.85,-56.83 361.55,-46.05"/>
<polygon fill="midnightblue" stroke="midnightblue" points="363.23,-49.13 370.63,-41.55 360.12,-42.86 363.23,-49.13"/>
</g>
<!-- Node9 -->
<g id="node9" class="node">
<title>Node9</title>
<g id="a_node9"><a xlink:title=" ">
<polygon fill="none" stroke="#bfbfbf" points="492.5,-11.5 492.5,-30.5 597.5,-30.5 597.5,-11.5 492.5,-11.5"/>
<text text-anchor="middle" x="545" y="-18.5" font-family="Helvetica,sans-Serif" font-size="10.00">CGAL/Polygon_2.h</text>
</a>
</g>
</g>
<!-- Node4&#45;&gt;Node9 -->
<g id="edge8" class="edge">
<title>Node4&#45;&gt;Node9</title>
<path fill="none" stroke="midnightblue" d="M335.04,-78.41C377.88,-69.01 434.49,-55.87 484,-42 492.81,-39.53 502.24,-36.59 510.99,-33.73"/>
<polygon fill="midnightblue" stroke="midnightblue" points="512.13,-37.04 520.51,-30.57 509.92,-30.4 512.13,-37.04"/>
</g>
<!-- Node10 -->
<g id="node10" class="node">
<title>Node10</title>
<g id="a_node10"><a xlink:title=" ">
<polygon fill="none" stroke="#bfbfbf" points="615.5,-11.5 615.5,-30.5 736.5,-30.5 736.5,-11.5 615.5,-11.5"/>
<text text-anchor="middle" x="676" y="-18.5" font-family="Helvetica,sans-Serif" font-size="10.00">CGAL/Polyhedron_3.h</text>
</a>
</g>
</g>
<!-- Node4&#45;&gt;Node10 -->
<g id="edge9" class="edge">
<title>Node4&#45;&gt;Node10</title>
<path fill="none" stroke="midnightblue" d="M336.02,-85.09C404.82,-76.96 513.99,-62.31 607,-42 617.8,-39.64 629.4,-36.52 639.95,-33.44"/>
<polygon fill="midnightblue" stroke="midnightblue" points="641.09,-36.75 649.67,-30.53 639.09,-30.04 641.09,-36.75"/>
</g>
</g>
</svg>
