<?xml version="1.0" encoding="UTF-8" standalone="no"?>
<!DOCTYPE svg PUBLIC "-//W3C//DTD SVG 1.1//EN"
 "http://www.w3.org/Graphics/SVG/1.1/DTD/svg11.dtd">
<!-- Generated by graphviz version 2.43.0 (0)
 -->
<!-- Title: include/VoronoiMeshMaker/DataExporter/VTKExportStrategy.h Pages: 1 -->
<svg width="650pt" height="106pt"
 viewBox="0.00 0.00 650.00 106.00" xmlns="http://www.w3.org/2000/svg" xmlns:xlink="http://www.w3.org/1999/xlink">
<g id="graph0" class="graph" transform="scale(1 1) rotate(0) translate(4 102)">
<title>include/VoronoiMeshMaker/DataExporter/VTKExportStrategy.h</title>
<!-- Node1 -->
<g id="node1" class="node">
<title>Node1</title>
<g id="a_node1"><a xlink:title="Defines the VTKExportStrategy class for exporting Shape2D to VTK format.">
<polygon fill="#bfbfbf" stroke="black" points="227.5,-67.5 227.5,-97.5 414.5,-97.5 414.5,-67.5 227.5,-67.5"/>
<text text-anchor="start" x="235.5" y="-85.5" font-family="Helvetica,sans-Serif" font-size="10.00">include/VoronoiMeshMaker</text>
<text text-anchor="middle" x="321" y="-74.5" font-family="Helvetica,sans-Serif" font-size="10.00">/DataExporter/VTKExportStrategy.h</text>
</a>
</g>
</g>
<!-- Node2 -->
<g id="node2" class="node">
<title>Node2</title>
<g id="a_node2"><a xlink:href="VoronoiDataExporter_8h.html" target="_top" xlink:title="Defines the VoronoiDataExporter class for exporting data in different formats.">
<polygon fill="none" stroke="black" points="0,-0.5 0,-30.5 198,-30.5 198,-0.5 0,-0.5"/>
<text text-anchor="start" x="8" y="-18.5" font-family="Helvetica,sans-Serif" font-size="10.00">include/VoronoiMeshMaker</text>
<text text-anchor="middle" x="99" y="-7.5" font-family="Helvetica,sans-Serif" font-size="10.00">/DataExporter/VoronoiDataExporter.h</text>
</a>
</g>
</g>
<!-- Node1&#45;&gt;Node2 -->
<g id="edge1" class="edge">
<title>Node1&#45;&gt;Node2</title>
<path fill="none" stroke="midnightblue" d="M263.21,-64.58C227.15,-54.02 181.28,-40.59 147.19,-30.61"/>
<polygon fill="midnightblue" stroke="midnightblue" points="262.52,-68.02 273.1,-67.48 264.49,-61.31 262.52,-68.02"/>
</g>
<!-- Node3 -->
<g id="node3" class="node">
<title>Node3</title>
<g id="a_node3"><a xlink:href="VoronoiDataExporter_8cpp.html" target="_top" xlink:title=" ">
<polygon fill="none" stroke="black" points="216.5,-0.5 216.5,-30.5 425.5,-30.5 425.5,-0.5 216.5,-0.5"/>
<text text-anchor="start" x="224.5" y="-18.5" font-family="Helvetica,sans-Serif" font-size="10.00">src/VoronoiMeshMaker</text>
<text text-anchor="middle" x="321" y="-7.5" font-family="Helvetica,sans-Serif" font-size="10.00">/DataExporter/VoronoiDataExporter.cpp</text>
</a>
</g>
</g>
<!-- Node1&#45;&gt;Node3 -->
<g id="edge2" class="edge">
<title>Node1&#45;&gt;Node3</title>
<path fill="none" stroke="midnightblue" d="M321,-57.11C321,-48.15 321,-38.32 321,-30.58"/>
<polygon fill="midnightblue" stroke="midnightblue" points="317.5,-57.4 321,-67.4 324.5,-57.4 317.5,-57.4"/>
</g>
<!-- Node4 -->
<g id="node4" class="node">
<title>Node4</title>
<g id="a_node4"><a xlink:href="VTKExportStrategy_8cpp.html" target="_top" xlink:title="Implements the export strategy for exporting Shape2D to VTK format.">
<polygon fill="none" stroke="black" points="444,-0.5 444,-30.5 642,-30.5 642,-0.5 444,-0.5"/>
<text text-anchor="start" x="452" y="-18.5" font-family="Helvetica,sans-Serif" font-size="10.00">src/VoronoiMeshMaker</text>
<text text-anchor="middle" x="543" y="-7.5" font-family="Helvetica,sans-Serif" font-size="10.00">/DataExporter/VTKExportStrategy.cpp</text>
</a>
</g>
</g>
<!-- Node1&#45;&gt;Node4 -->
<g id="edge3" class="edge">
<title>Node1&#45;&gt;Node4</title>
<path fill="none" stroke="midnightblue" d="M378.79,-64.58C414.85,-54.02 460.72,-40.59 494.81,-30.61"/>
<polygon fill="midnightblue" stroke="midnightblue" points="377.51,-61.31 368.9,-67.48 379.48,-68.02 377.51,-61.31"/>
</g>
</g>
</svg>
