<?xml version="1.0" encoding="UTF-8" standalone="no"?>
<!DOCTYPE svg PUBLIC "-//W3C//DTD SVG 1.1//EN"
 "http://www.w3.org/Graphics/SVG/1.1/DTD/svg11.dtd">
<!-- Generated by graphviz version 2.43.0 (0)
 -->
<!-- Title: src/VoronoiMeshMaker/DataExporter/VTKExportStrategy.cpp Pages: 1 -->
<svg width="1351pt" height="586pt"
 viewBox="0.00 0.00 1351.12 586.00" xmlns="http://www.w3.org/2000/svg" xmlns:xlink="http://www.w3.org/1999/xlink">
<g id="graph0" class="graph" transform="scale(1 1) rotate(0) translate(4 582)">
<title>src/VoronoiMeshMaker/DataExporter/VTKExportStrategy.cpp</title>
<!-- Node1 -->
<g id="node1" class="node">
<title>Node1</title>
<g id="a_node1"><a xlink:title="Implements the export strategy for exporting Shape2D to VTK format.">
<polygon fill="#bfbfbf" stroke="black" points="285.12,-547.5 285.12,-577.5 483.12,-577.5 483.12,-547.5 285.12,-547.5"/>
<text text-anchor="start" x="293.12" y="-565.5" font-family="Helvetica,sans-Serif" font-size="10.00">src/VoronoiMeshMaker</text>
<text text-anchor="middle" x="384.12" y="-554.5" font-family="Helvetica,sans-Serif" font-size="10.00">/DataExporter/VTKExportStrategy.cpp</text>
</a>
</g>
</g>
<!-- Node2 -->
<g id="node2" class="node">
<title>Node2</title>
<g id="a_node2"><a xlink:title=" ">
<polygon fill="none" stroke="#bfbfbf" points="282.12,-218 282.12,-237 342.12,-237 342.12,-218 282.12,-218"/>
<text text-anchor="middle" x="312.12" y="-225" font-family="Helvetica,sans-Serif" font-size="10.00">iostream</text>
</a>
</g>
</g>
<!-- Node1&#45;&gt;Node2 -->
<g id="edge1" class="edge">
<title>Node1&#45;&gt;Node2</title>
<path fill="none" stroke="midnightblue" d="M284.68,-559.98C190.69,-556.43 58.65,-545.27 21.12,-511 -6.35,-485.92 2.12,-466.69 2.12,-429.5 2.12,-429.5 2.12,-429.5 2.12,-360.5 2.12,-244.52 188.07,-229.01 271.93,-227.92"/>
<polygon fill="midnightblue" stroke="midnightblue" points="272.13,-231.42 282.11,-227.85 272.09,-224.42 272.13,-231.42"/>
</g>
<!-- Node3 -->
<g id="node3" class="node">
<title>Node3</title>
<g id="a_node3"><a xlink:title=" ">
<polygon fill="none" stroke="#bfbfbf" points="30.62,-486 30.62,-505 135.62,-505 135.62,-486 30.62,-486"/>
<text text-anchor="middle" x="83.12" y="-493" font-family="Helvetica,sans-Serif" font-size="10.00">vtkSmartPointer.h</text>
</a>
</g>
</g>
<!-- Node1&#45;&gt;Node3 -->
<g id="edge2" class="edge">
<title>Node1&#45;&gt;Node3</title>
<path fill="none" stroke="midnightblue" d="M315.22,-547.5C267.19,-537.62 201.66,-523.89 144.12,-511 139,-509.85 133.66,-508.63 128.34,-507.39"/>
<polygon fill="midnightblue" stroke="midnightblue" points="128.78,-503.9 118.24,-505.01 127.17,-510.71 128.78,-503.9"/>
</g>
<!-- Node4 -->
<g id="node4" class="node">
<title>Node4</title>
<g id="a_node4"><a xlink:title=" ">
<polygon fill="none" stroke="#bfbfbf" points="153.62,-486 153.62,-505 224.62,-505 224.62,-486 153.62,-486"/>
<text text-anchor="middle" x="189.12" y="-493" font-family="Helvetica,sans-Serif" font-size="10.00">vtkPoints.h</text>
</a>
</g>
</g>
<!-- Node1&#45;&gt;Node4 -->
<g id="edge3" class="edge">
<title>Node1&#45;&gt;Node4</title>
<path fill="none" stroke="midnightblue" d="M341.8,-547.4C306.68,-535.69 257.31,-519.23 224.32,-508.23"/>
<polygon fill="midnightblue" stroke="midnightblue" points="225.23,-504.85 214.64,-505.01 223.02,-511.49 225.23,-504.85"/>
</g>
<!-- Node5 -->
<g id="node5" class="node">
<title>Node5</title>
<g id="a_node5"><a xlink:title=" ">
<polygon fill="none" stroke="#bfbfbf" points="243.12,-486 243.12,-505 323.12,-505 323.12,-486 243.12,-486"/>
<text text-anchor="middle" x="283.12" y="-493" font-family="Helvetica,sans-Serif" font-size="10.00">vtkPolygon.h</text>
</a>
</g>
</g>
<!-- Node1&#45;&gt;Node5 -->
<g id="edge4" class="edge">
<title>Node1&#45;&gt;Node5</title>
<path fill="none" stroke="midnightblue" d="M362.2,-547.4C345.26,-536.5 321.93,-521.48 305,-510.58"/>
<polygon fill="midnightblue" stroke="midnightblue" points="306.64,-507.48 296.34,-505.01 302.85,-513.36 306.64,-507.48"/>
</g>
<!-- Node6 -->
<g id="node6" class="node">
<title>Node6</title>
<g id="a_node6"><a xlink:title=" ">
<polygon fill="none" stroke="#bfbfbf" points="341.12,-486 341.12,-505 427.12,-505 427.12,-486 341.12,-486"/>
<text text-anchor="middle" x="384.12" y="-493" font-family="Helvetica,sans-Serif" font-size="10.00">vtkPolyData.h</text>
</a>
</g>
</g>
<!-- Node1&#45;&gt;Node6 -->
<g id="edge5" class="edge">
<title>Node1&#45;&gt;Node6</title>
<path fill="none" stroke="midnightblue" d="M384.12,-547.4C384.12,-538.06 384.12,-525.71 384.12,-515.52"/>
<polygon fill="midnightblue" stroke="midnightblue" points="387.62,-515.19 384.12,-505.19 380.62,-515.19 387.62,-515.19"/>
</g>
<!-- Node7 -->
<g id="node7" class="node">
<title>Node7</title>
<g id="a_node7"><a xlink:title=" ">
<polygon fill="none" stroke="#bfbfbf" points="445.62,-486 445.62,-505 582.62,-505 582.62,-486 445.62,-486"/>
<text text-anchor="middle" x="514.12" y="-493" font-family="Helvetica,sans-Serif" font-size="10.00">vtkXMLPolyDataWriter.h</text>
</a>
</g>
</g>
<!-- Node1&#45;&gt;Node7 -->
<g id="edge6" class="edge">
<title>Node1&#45;&gt;Node7</title>
<path fill="none" stroke="midnightblue" d="M412.32,-547.4C434.83,-536.14 466.11,-520.5 488.04,-509.54"/>
<polygon fill="midnightblue" stroke="midnightblue" points="489.72,-512.61 497.1,-505.01 486.59,-506.35 489.72,-512.61"/>
</g>
<!-- Node8 -->
<g id="node8" class="node">
<title>Node8</title>
<g id="a_node8"><a xlink:title=" ">
<polygon fill="none" stroke="#bfbfbf" points="600.62,-486 600.62,-505 685.62,-505 685.62,-486 600.62,-486"/>
<text text-anchor="middle" x="643.12" y="-493" font-family="Helvetica,sans-Serif" font-size="10.00">vtkCellArray.h</text>
</a>
</g>
</g>
<!-- Node1&#45;&gt;Node8 -->
<g id="edge7" class="edge">
<title>Node1&#45;&gt;Node8</title>
<path fill="none" stroke="midnightblue" d="M444.03,-547.43C485.43,-537.57 541.73,-523.91 591.12,-511 595.15,-509.95 599.34,-508.82 603.53,-507.68"/>
<polygon fill="midnightblue" stroke="midnightblue" points="604.48,-511.05 613.19,-505.03 602.62,-504.3 604.48,-511.05"/>
</g>
<!-- Node9 -->
<g id="node9" class="node">
<title>Node9</title>
<g id="a_node9"><a xlink:href="VTKExportStrategy_8h.html" target="_top" xlink:title="Defines the VTKExportStrategy class for exporting Shape2D to VTK format.">
<polygon fill="none" stroke="black" points="704.12,-480.5 704.12,-510.5 882.12,-510.5 882.12,-480.5 704.12,-480.5"/>
<text text-anchor="start" x="712.12" y="-498.5" font-family="Helvetica,sans-Serif" font-size="10.00">VoronoiMeshMaker/DataExporter</text>
<text text-anchor="middle" x="793.12" y="-487.5" font-family="Helvetica,sans-Serif" font-size="10.00">/VTKExportStrategy.h</text>
</a>
</g>
</g>
<!-- Node1&#45;&gt;Node9 -->
<g id="edge8" class="edge">
<title>Node1&#45;&gt;Node9</title>
<path fill="none" stroke="midnightblue" d="M472.36,-547.48C537.69,-537.09 626.74,-522.94 694.43,-512.18"/>
<polygon fill="midnightblue" stroke="midnightblue" points="695.35,-515.58 704.68,-510.55 694.25,-508.67 695.35,-515.58"/>
</g>
<!-- Node12 -->
<g id="node12" class="node">
<title>Node12</title>
<g id="a_node12"><a xlink:href="Shape2D_8h.html" target="_top" xlink:title="Defines the Shape2D class, which represents 2D geometric shapes.">
<polygon fill="none" stroke="black" points="757.62,-346.5 757.62,-376.5 900.62,-376.5 900.62,-346.5 757.62,-346.5"/>
<text text-anchor="start" x="765.62" y="-364.5" font-family="Helvetica,sans-Serif" font-size="10.00">VoronoiMeshMaker/Shape</text>
<text text-anchor="middle" x="829.12" y="-353.5" font-family="Helvetica,sans-Serif" font-size="10.00">/Shape2D/Shape2D.h</text>
</a>
</g>
</g>
<!-- Node1&#45;&gt;Node12 -->
<g id="edge30" class="edge">
<title>Node1&#45;&gt;Node12</title>
<path fill="none" stroke="midnightblue" d="M483.12,-558.65C622.93,-553.58 864.31,-540.61 891.12,-511 924.82,-473.77 880.62,-415.6 851.3,-384.26"/>
<polygon fill="midnightblue" stroke="midnightblue" points="853.68,-381.68 844.23,-376.9 848.63,-386.53 853.68,-381.68"/>
</g>
<!-- Node10 -->
<g id="node10" class="node">
<title>Node10</title>
<g id="a_node10"><a xlink:href="ExportStrategy_8h.html" target="_top" xlink:title="Defines the abstract base class for export strategies.">
<polygon fill="none" stroke="black" points="626.12,-413.5 626.12,-443.5 804.12,-443.5 804.12,-413.5 626.12,-413.5"/>
<text text-anchor="start" x="634.12" y="-431.5" font-family="Helvetica,sans-Serif" font-size="10.00">VoronoiMeshMaker/DataExporter</text>
<text text-anchor="middle" x="715.12" y="-420.5" font-family="Helvetica,sans-Serif" font-size="10.00">/ExportStrategy.h</text>
</a>
</g>
</g>
<!-- Node9&#45;&gt;Node10 -->
<g id="edge9" class="edge">
<title>Node9&#45;&gt;Node10</title>
<path fill="none" stroke="midnightblue" d="M776.19,-480.4C765.56,-471.54 751.67,-459.96 739.82,-450.09"/>
<polygon fill="midnightblue" stroke="midnightblue" points="741.93,-447.29 732.01,-443.58 737.45,-452.67 741.93,-447.29"/>
</g>
<!-- Node9&#45;&gt;Node12 -->
<g id="edge29" class="edge">
<title>Node9&#45;&gt;Node12</title>
<path fill="none" stroke="midnightblue" d="M799.61,-480.16C803.93,-470.19 809.45,-456.49 813.12,-444 818.66,-425.11 822.84,-403.2 825.54,-386.85"/>
<polygon fill="midnightblue" stroke="midnightblue" points="829.06,-386.95 827.16,-376.53 822.15,-385.86 829.06,-386.95"/>
</g>
<!-- Node11 -->
<g id="node11" class="node">
<title>Node11</title>
<g id="a_node11"><a xlink:title=" ">
<polygon fill="none" stroke="#bfbfbf" points="693.12,-352 693.12,-371 737.12,-371 737.12,-352 693.12,-352"/>
<text text-anchor="middle" x="715.12" y="-359" font-family="Helvetica,sans-Serif" font-size="10.00">string</text>
</a>
</g>
</g>
<!-- Node10&#45;&gt;Node11 -->
<g id="edge10" class="edge">
<title>Node10&#45;&gt;Node11</title>
<path fill="none" stroke="midnightblue" d="M715.12,-413.4C715.12,-404.06 715.12,-391.71 715.12,-381.52"/>
<polygon fill="midnightblue" stroke="midnightblue" points="718.62,-381.19 715.12,-371.19 711.62,-381.19 718.62,-381.19"/>
</g>
<!-- Node10&#45;&gt;Node12 -->
<g id="edge11" class="edge">
<title>Node10&#45;&gt;Node12</title>
<path fill="none" stroke="midnightblue" d="M739.85,-413.4C756.14,-404.11 777.66,-391.84 795.49,-381.67"/>
<polygon fill="midnightblue" stroke="midnightblue" points="797.48,-384.57 804.43,-376.58 794.01,-378.49 797.48,-384.57"/>
</g>
<!-- Node13 -->
<g id="node13" class="node">
<title>Node13</title>
<g id="a_node13"><a xlink:href="Shape_8h.html" target="_top" xlink:title="Defines the Shape class, which serves as the abstract base class for all shapes. This class provides ...">
<polygon fill="none" stroke="black" points="561.62,-279.5 561.62,-309.5 704.62,-309.5 704.62,-279.5 561.62,-279.5"/>
<text text-anchor="start" x="569.62" y="-297.5" font-family="Helvetica,sans-Serif" font-size="10.00">VoronoiMeshMaker/Shape</text>
<text text-anchor="middle" x="633.12" y="-286.5" font-family="Helvetica,sans-Serif" font-size="10.00">/Shape.h</text>
</a>
</g>
</g>
<!-- Node12&#45;&gt;Node13 -->
<g id="edge12" class="edge">
<title>Node12&#45;&gt;Node13</title>
<path fill="none" stroke="midnightblue" d="M786.59,-346.4C756.79,-336.52 716.8,-323.25 685.11,-312.74"/>
<polygon fill="midnightblue" stroke="midnightblue" points="686.16,-309.4 675.56,-309.58 683.95,-316.05 686.16,-309.4"/>
</g>
<!-- Node13&#45;&gt;Node2 -->
<g id="edge13" class="edge">
<title>Node13&#45;&gt;Node2</title>
<path fill="none" stroke="midnightblue" d="M563.86,-279.48C499.41,-266.43 405.57,-247.42 352.54,-236.69"/>
<polygon fill="midnightblue" stroke="midnightblue" points="353,-233.21 342.5,-234.65 351.61,-240.07 353,-233.21"/>
</g>
<!-- Node14 -->
<g id="node14" class="node">
<title>Node14</title>
<g id="a_node14"><a xlink:title=" ">
<polygon fill="none" stroke="#bfbfbf" points="570.12,-11.5 570.12,-30.5 628.12,-30.5 628.12,-11.5 570.12,-11.5"/>
<text text-anchor="middle" x="599.12" y="-18.5" font-family="Helvetica,sans-Serif" font-size="10.00">memory</text>
</a>
</g>
</g>
<!-- Node13&#45;&gt;Node14 -->
<g id="edge14" class="edge">
<title>Node13&#45;&gt;Node14</title>
<path fill="none" stroke="midnightblue" d="M617.58,-279.41C596.39,-259.04 559.45,-219.04 545.12,-176 528.4,-125.79 564.82,-66.87 585.74,-38.67"/>
<polygon fill="midnightblue" stroke="midnightblue" points="588.59,-40.71 591.9,-30.65 583.04,-36.45 588.59,-40.71"/>
</g>
<!-- Node15 -->
<g id="node15" class="node">
<title>Node15</title>
<g id="a_node15"><a xlink:title=" ">
<polygon fill="none" stroke="#bfbfbf" points="554.12,-151 554.12,-170 712.12,-170 712.12,-151 554.12,-151"/>
<text text-anchor="middle" x="633.12" y="-158" font-family="Helvetica,sans-Serif" font-size="10.00">VoronoiMeshMaker/Misc/ID.h</text>
</a>
</g>
</g>
<!-- Node13&#45;&gt;Node15 -->
<g id="edge15" class="edge">
<title>Node13&#45;&gt;Node15</title>
<path fill="none" stroke="midnightblue" d="M633.12,-279.37C633.12,-255.5 633.12,-207.18 633.12,-180.41"/>
<polygon fill="midnightblue" stroke="midnightblue" points="636.62,-180.1 633.12,-170.1 629.62,-180.1 636.62,-180.1"/>
</g>
<!-- Node16 -->
<g id="node16" class="node">
<title>Node16</title>
<g id="a_node16"><a xlink:href="GeometricDataHolder_8h.html" target="_top" xlink:title="Defines the GeometricDataHolder class and the DataTraits for handling multiple data types....">
<polygon fill="none" stroke="black" points="678.12,-212.5 678.12,-242.5 848.12,-242.5 848.12,-212.5 678.12,-212.5"/>
<text text-anchor="start" x="686.12" y="-230.5" font-family="Helvetica,sans-Serif" font-size="10.00">VoronoiMeshMaker/Parameters</text>
<text text-anchor="middle" x="763.12" y="-219.5" font-family="Helvetica,sans-Serif" font-size="10.00">/GeometricDataHolder.h</text>
</a>
</g>
</g>
<!-- Node13&#45;&gt;Node16 -->
<g id="edge16" class="edge">
<title>Node13&#45;&gt;Node16</title>
<path fill="none" stroke="midnightblue" d="M661.32,-279.4C680.23,-269.94 705.34,-257.39 725.88,-247.12"/>
<polygon fill="midnightblue" stroke="midnightblue" points="727.58,-250.18 734.96,-242.58 724.45,-243.92 727.58,-250.18"/>
</g>
<!-- Node16&#45;&gt;Node15 -->
<g id="edge18" class="edge">
<title>Node16&#45;&gt;Node15</title>
<path fill="none" stroke="midnightblue" d="M734.91,-212.4C712.4,-201.14 681.12,-185.5 659.19,-174.54"/>
<polygon fill="midnightblue" stroke="midnightblue" points="660.64,-171.35 650.13,-170.01 657.51,-177.61 660.64,-171.35"/>
</g>
<!-- Node17 -->
<g id="node17" class="node">
<title>Node17</title>
<g id="a_node17"><a xlink:title=" ">
<polygon fill="none" stroke="#bfbfbf" points="730.62,-151 730.62,-170 795.62,-170 795.62,-151 730.62,-151"/>
<text text-anchor="middle" x="763.12" y="-158" font-family="Helvetica,sans-Serif" font-size="10.00">execution</text>
</a>
</g>
</g>
<!-- Node16&#45;&gt;Node17 -->
<g id="edge17" class="edge">
<title>Node16&#45;&gt;Node17</title>
<path fill="none" stroke="midnightblue" d="M763.12,-212.4C763.12,-203.06 763.12,-190.71 763.12,-180.52"/>
<polygon fill="midnightblue" stroke="midnightblue" points="766.62,-180.19 763.12,-170.19 759.62,-180.19 766.62,-180.19"/>
</g>
<!-- Node18 -->
<g id="node18" class="node">
<title>Node18</title>
<g id="a_node18"><a xlink:href="GeometricDataTraits_8h.html" target="_top" xlink:title="Defines the GeometricDataTraits structure used for type identification and operations on various data...">
<polygon fill="none" stroke="black" points="814.12,-145.5 814.12,-175.5 984.12,-175.5 984.12,-145.5 814.12,-145.5"/>
<text text-anchor="start" x="822.12" y="-163.5" font-family="Helvetica,sans-Serif" font-size="10.00">VoronoiMeshMaker/Parameters</text>
<text text-anchor="middle" x="899.12" y="-152.5" font-family="Helvetica,sans-Serif" font-size="10.00">/GeometricDataTraits.h</text>
</a>
</g>
</g>
<!-- Node16&#45;&gt;Node18 -->
<g id="edge19" class="edge">
<title>Node16&#45;&gt;Node18</title>
<path fill="none" stroke="midnightblue" d="M792.63,-212.4C812.5,-202.9 838.91,-190.28 860.45,-179.98"/>
<polygon fill="midnightblue" stroke="midnightblue" points="862.15,-183.05 869.66,-175.58 859.13,-176.73 862.15,-183.05"/>
</g>
<!-- Node26 -->
<g id="node26" class="node">
<title>Node26</title>
<g id="a_node26"><a xlink:href="GeometricDataHolder_8tpp.html" target="_top" xlink:title=" ">
<polygon fill="none" stroke="black" points="1002.12,-145.5 1002.12,-175.5 1172.12,-175.5 1172.12,-145.5 1002.12,-145.5"/>
<text text-anchor="start" x="1010.12" y="-163.5" font-family="Helvetica,sans-Serif" font-size="10.00">VoronoiMeshMaker/Parameters</text>
<text text-anchor="middle" x="1087.12" y="-152.5" font-family="Helvetica,sans-Serif" font-size="10.00">/GeometricDataHolder.tpp</text>
</a>
</g>
</g>
<!-- Node16&#45;&gt;Node26 -->
<g id="edge28" class="edge">
<title>Node16&#45;&gt;Node26</title>
<path fill="none" stroke="midnightblue" d="M833.02,-212.48C884.14,-202.22 953.58,-188.29 1006.95,-177.58"/>
<polygon fill="midnightblue" stroke="midnightblue" points="1007.94,-180.95 1017.06,-175.55 1006.57,-174.09 1007.94,-180.95"/>
</g>
<!-- Node19 -->
<g id="node19" class="node">
<title>Node19</title>
<g id="a_node19"><a xlink:href="type_8h.html" target="_top" xlink:title="Defines common geometric and numeric types used in the VoronoiMeshMaker library.">
<polygon fill="none" stroke="black" points="812.12,-78.5 812.12,-108.5 948.12,-108.5 948.12,-78.5 812.12,-78.5"/>
<text text-anchor="start" x="820.12" y="-96.5" font-family="Helvetica,sans-Serif" font-size="10.00">VoronoiMeshMaker/Misc</text>
<text text-anchor="middle" x="880.12" y="-85.5" font-family="Helvetica,sans-Serif" font-size="10.00">/type.h</text>
</a>
</g>
</g>
<!-- Node18&#45;&gt;Node19 -->
<g id="edge20" class="edge">
<title>Node18&#45;&gt;Node19</title>
<path fill="none" stroke="midnightblue" d="M894.99,-145.4C892.68,-137.47 889.73,-127.38 887.07,-118.27"/>
<polygon fill="midnightblue" stroke="midnightblue" points="890.4,-117.19 884.23,-108.58 883.68,-119.16 890.4,-117.19"/>
</g>
<!-- Node19&#45;&gt;Node14 -->
<g id="edge22" class="edge">
<title>Node19&#45;&gt;Node14</title>
<path fill="none" stroke="midnightblue" d="M820.68,-78.41C779.25,-68.49 722.74,-54.76 673.12,-42 661.77,-39.08 649.47,-35.81 638.22,-32.76"/>
<polygon fill="midnightblue" stroke="midnightblue" points="638.81,-29.3 628.24,-30.05 636.98,-36.05 638.81,-29.3"/>
</g>
<!-- Node20 -->
<g id="node20" class="node">
<title>Node20</title>
<g id="a_node20"><a xlink:title=" ">
<polygon fill="none" stroke="#bfbfbf" points="682.12,-11.5 682.12,-30.5 714.12,-30.5 714.12,-11.5 682.12,-11.5"/>
<text text-anchor="middle" x="698.12" y="-18.5" font-family="Helvetica,sans-Serif" font-size="10.00">list</text>
</a>
</g>
</g>
<!-- Node19&#45;&gt;Node20 -->
<g id="edge21" class="edge">
<title>Node19&#45;&gt;Node20</title>
<path fill="none" stroke="midnightblue" d="M820.78,-78.46C790.82,-70.1 754.47,-57.97 724.12,-42 721.28,-40.51 718.44,-38.71 715.73,-36.81"/>
<polygon fill="midnightblue" stroke="midnightblue" points="717.76,-33.95 707.69,-30.64 713.5,-39.51 717.76,-33.95"/>
</g>
<!-- Node21 -->
<g id="node21" class="node">
<title>Node21</title>
<g id="a_node21"><a xlink:title=" ">
<polygon fill="none" stroke="#bfbfbf" points="732.62,-11.5 732.62,-30.5 779.62,-30.5 779.62,-11.5 732.62,-11.5"/>
<text text-anchor="middle" x="756.12" y="-18.5" font-family="Helvetica,sans-Serif" font-size="10.00">vector</text>
</a>
</g>
</g>
<!-- Node19&#45;&gt;Node21 -->
<g id="edge23" class="edge">
<title>Node19&#45;&gt;Node21</title>
<path fill="none" stroke="midnightblue" d="M854.08,-78.4C835.8,-68.41 810.84,-54.6 789.12,-42 785.79,-40.07 782.3,-38 778.88,-35.95"/>
<polygon fill="midnightblue" stroke="midnightblue" points="780.54,-32.87 770.18,-30.68 776.92,-38.86 780.54,-32.87"/>
</g>
<!-- Node22 -->
<g id="node22" class="node">
<title>Node22</title>
<g id="a_node22"><a xlink:title=" ">
<polygon fill="none" stroke="#bfbfbf" points="797.62,-0.5 797.62,-41.5 926.62,-41.5 926.62,-0.5 797.62,-0.5"/>
<text text-anchor="start" x="805.62" y="-29.5" font-family="Helvetica,sans-Serif" font-size="10.00">CGAL/Exact_predicates</text>
<text text-anchor="start" x="805.62" y="-18.5" font-family="Helvetica,sans-Serif" font-size="10.00">_inexact_constructions</text>
<text text-anchor="middle" x="862.12" y="-7.5" font-family="Helvetica,sans-Serif" font-size="10.00">_kernel.h</text>
</a>
</g>
</g>
<!-- Node19&#45;&gt;Node22 -->
<g id="edge24" class="edge">
<title>Node19&#45;&gt;Node22</title>
<path fill="none" stroke="midnightblue" d="M876.47,-78.23C874.5,-70.49 871.98,-60.63 869.6,-51.33"/>
<polygon fill="midnightblue" stroke="midnightblue" points="872.98,-50.41 867.12,-41.59 866.2,-52.14 872.98,-50.41"/>
</g>
<!-- Node23 -->
<g id="node23" class="node">
<title>Node23</title>
<g id="a_node23"><a xlink:title=" ">
<polygon fill="none" stroke="#bfbfbf" points="944.62,-11.5 944.62,-30.5 1049.62,-30.5 1049.62,-11.5 944.62,-11.5"/>
<text text-anchor="middle" x="997.12" y="-18.5" font-family="Helvetica,sans-Serif" font-size="10.00">CGAL/Polygon_2.h</text>
</a>
</g>
</g>
<!-- Node19&#45;&gt;Node23 -->
<g id="edge25" class="edge">
<title>Node19&#45;&gt;Node23</title>
<path fill="none" stroke="midnightblue" d="M903.51,-78.4C924.1,-66 953.89,-48.05 974.3,-35.75"/>
<polygon fill="midnightblue" stroke="midnightblue" points="976.2,-38.69 982.95,-30.53 972.58,-32.7 976.2,-38.69"/>
</g>
<!-- Node24 -->
<g id="node24" class="node">
<title>Node24</title>
<g id="a_node24"><a xlink:title=" ">
<polygon fill="none" stroke="#bfbfbf" points="1067.62,-11.5 1067.62,-30.5 1188.62,-30.5 1188.62,-11.5 1067.62,-11.5"/>
<text text-anchor="middle" x="1128.12" y="-18.5" font-family="Helvetica,sans-Serif" font-size="10.00">CGAL/Polyhedron_3.h</text>
</a>
</g>
</g>
<!-- Node19&#45;&gt;Node24 -->
<g id="edge26" class="edge">
<title>Node19&#45;&gt;Node24</title>
<path fill="none" stroke="midnightblue" d="M930.3,-78.45C966.19,-68.37 1015.65,-54.43 1059.12,-42 1068.82,-39.23 1079.28,-36.21 1089.05,-33.38"/>
<polygon fill="midnightblue" stroke="midnightblue" points="1090.29,-36.66 1098.92,-30.51 1088.34,-29.94 1090.29,-36.66"/>
</g>
<!-- Node25 -->
<g id="node25" class="node">
<title>Node25</title>
<g id="a_node25"><a xlink:href="namespace_8h.html" target="_top" xlink:title=" ">
<polygon fill="none" stroke="black" points="1207.12,-6 1207.12,-36 1343.12,-36 1343.12,-6 1207.12,-6"/>
<text text-anchor="start" x="1215.12" y="-24" font-family="Helvetica,sans-Serif" font-size="10.00">VoronoiMeshMaker/Misc</text>
<text text-anchor="middle" x="1275.12" y="-13" font-family="Helvetica,sans-Serif" font-size="10.00">/namespace.h</text>
</a>
</g>
</g>
<!-- Node19&#45;&gt;Node25 -->
<g id="edge27" class="edge">
<title>Node19&#45;&gt;Node25</title>
<path fill="none" stroke="midnightblue" d="M948.39,-83.6C1013.02,-74.72 1112.62,-59.85 1198.12,-42 1203.36,-40.91 1208.77,-39.69 1214.19,-38.4"/>
<polygon fill="midnightblue" stroke="midnightblue" points="1215.03,-41.8 1223.92,-36.03 1213.38,-35 1215.03,-41.8"/>
</g>
</g>
</svg>
