<?xml version="1.0" encoding="UTF-8" standalone="no"?>
<!DOCTYPE svg PUBLIC "-//W3C//DTD SVG 1.1//EN"
 "http://www.w3.org/Graphics/SVG/1.1/DTD/svg11.dtd">
<!-- Generated by graphviz version 2.43.0 (0)
 -->
<!-- Title: include/VoronoiMeshMaker/DataExporter/VTKExportStrategy.h Pages: 1 -->
<svg width="992pt" height="519pt"
 viewBox="0.00 0.00 992.00 519.00" xmlns="http://www.w3.org/2000/svg" xmlns:xlink="http://www.w3.org/1999/xlink">
<g id="graph0" class="graph" transform="scale(1 1) rotate(0) translate(4 515)">
<title>include/VoronoiMeshMaker/DataExporter/VTKExportStrategy.h</title>
<!-- Node1 -->
<g id="node1" class="node">
<title>Node1</title>
<g id="a_node1"><a xlink:title="Defines the VTKExportStrategy class for exporting Shape2D to VTK format.">
<polygon fill="#bfbfbf" stroke="black" points="53.5,-480.5 53.5,-510.5 240.5,-510.5 240.5,-480.5 53.5,-480.5"/>
<text text-anchor="start" x="61.5" y="-498.5" font-family="Helvetica,sans-Serif" font-size="10.00">include/VoronoiMeshMaker</text>
<text text-anchor="middle" x="147" y="-487.5" font-family="Helvetica,sans-Serif" font-size="10.00">/DataExporter/VTKExportStrategy.h</text>
</a>
</g>
</g>
<!-- Node2 -->
<g id="node2" class="node">
<title>Node2</title>
<g id="a_node2"><a xlink:href="ExportStrategy_8h.html" target="_top" xlink:title="Defines the abstract base class for export strategies.">
<polygon fill="none" stroke="black" points="0,-413.5 0,-443.5 178,-443.5 178,-413.5 0,-413.5"/>
<text text-anchor="start" x="8" y="-431.5" font-family="Helvetica,sans-Serif" font-size="10.00">VoronoiMeshMaker/DataExporter</text>
<text text-anchor="middle" x="89" y="-420.5" font-family="Helvetica,sans-Serif" font-size="10.00">/ExportStrategy.h</text>
</a>
</g>
</g>
<!-- Node1&#45;&gt;Node2 -->
<g id="edge1" class="edge">
<title>Node1&#45;&gt;Node2</title>
<path fill="none" stroke="midnightblue" d="M134.41,-480.4C126.81,-471.88 116.97,-460.85 108.39,-451.23"/>
<polygon fill="midnightblue" stroke="midnightblue" points="110.83,-448.71 101.56,-443.58 105.61,-453.37 110.83,-448.71"/>
</g>
<!-- Node4 -->
<g id="node4" class="node">
<title>Node4</title>
<g id="a_node4"><a xlink:href="Shape2D_8h.html" target="_top" xlink:title="Defines the Shape2D class, which represents 2D geometric shapes.">
<polygon fill="none" stroke="black" points="131.5,-346.5 131.5,-376.5 274.5,-376.5 274.5,-346.5 131.5,-346.5"/>
<text text-anchor="start" x="139.5" y="-364.5" font-family="Helvetica,sans-Serif" font-size="10.00">VoronoiMeshMaker/Shape</text>
<text text-anchor="middle" x="203" y="-353.5" font-family="Helvetica,sans-Serif" font-size="10.00">/Shape2D/Shape2D.h</text>
</a>
</g>
</g>
<!-- Node1&#45;&gt;Node4 -->
<g id="edge21" class="edge">
<title>Node1&#45;&gt;Node4</title>
<path fill="none" stroke="midnightblue" d="M161.32,-480.3C170.06,-470.81 180.73,-457.61 187,-444 195.37,-425.85 199.36,-403.45 201.27,-386.74"/>
<polygon fill="midnightblue" stroke="midnightblue" points="204.76,-386.96 202.25,-376.67 197.8,-386.29 204.76,-386.96"/>
</g>
<!-- Node3 -->
<g id="node3" class="node">
<title>Node3</title>
<g id="a_node3"><a xlink:title=" ">
<polygon fill="none" stroke="#bfbfbf" points="67,-352 67,-371 111,-371 111,-352 67,-352"/>
<text text-anchor="middle" x="89" y="-359" font-family="Helvetica,sans-Serif" font-size="10.00">string</text>
</a>
</g>
</g>
<!-- Node2&#45;&gt;Node3 -->
<g id="edge2" class="edge">
<title>Node2&#45;&gt;Node3</title>
<path fill="none" stroke="midnightblue" d="M89,-413.4C89,-404.06 89,-391.71 89,-381.52"/>
<polygon fill="midnightblue" stroke="midnightblue" points="92.5,-381.19 89,-371.19 85.5,-381.19 92.5,-381.19"/>
</g>
<!-- Node2&#45;&gt;Node4 -->
<g id="edge3" class="edge">
<title>Node2&#45;&gt;Node4</title>
<path fill="none" stroke="midnightblue" d="M113.74,-413.4C130.02,-404.11 151.54,-391.84 169.37,-381.67"/>
<polygon fill="midnightblue" stroke="midnightblue" points="171.36,-384.57 178.31,-376.58 167.89,-378.49 171.36,-384.57"/>
</g>
<!-- Node5 -->
<g id="node5" class="node">
<title>Node5</title>
<g id="a_node5"><a xlink:href="Shape_8h.html" target="_top" xlink:title="Defines the Shape class, which serves as the abstract base class for all shapes. This class provides ...">
<polygon fill="none" stroke="black" points="131.5,-279.5 131.5,-309.5 274.5,-309.5 274.5,-279.5 131.5,-279.5"/>
<text text-anchor="start" x="139.5" y="-297.5" font-family="Helvetica,sans-Serif" font-size="10.00">VoronoiMeshMaker/Shape</text>
<text text-anchor="middle" x="203" y="-286.5" font-family="Helvetica,sans-Serif" font-size="10.00">/Shape.h</text>
</a>
</g>
</g>
<!-- Node4&#45;&gt;Node5 -->
<g id="edge4" class="edge">
<title>Node4&#45;&gt;Node5</title>
<path fill="none" stroke="midnightblue" d="M203,-346.4C203,-338.64 203,-328.81 203,-319.86"/>
<polygon fill="midnightblue" stroke="midnightblue" points="206.5,-319.58 203,-309.58 199.5,-319.58 206.5,-319.58"/>
</g>
<!-- Node6 -->
<g id="node6" class="node">
<title>Node6</title>
<g id="a_node6"><a xlink:title=" ">
<polygon fill="none" stroke="#bfbfbf" points="79,-218 79,-237 139,-237 139,-218 79,-218"/>
<text text-anchor="middle" x="109" y="-225" font-family="Helvetica,sans-Serif" font-size="10.00">iostream</text>
</a>
</g>
</g>
<!-- Node5&#45;&gt;Node6 -->
<g id="edge5" class="edge">
<title>Node5&#45;&gt;Node6</title>
<path fill="none" stroke="midnightblue" d="M182.6,-279.4C166.99,-268.6 145.52,-253.76 129.81,-242.89"/>
<polygon fill="midnightblue" stroke="midnightblue" points="131.52,-239.82 121.3,-237.01 127.54,-245.57 131.52,-239.82"/>
</g>
<!-- Node7 -->
<g id="node7" class="node">
<title>Node7</title>
<g id="a_node7"><a xlink:title=" ">
<polygon fill="none" stroke="#bfbfbf" points="211,-11.5 211,-30.5 269,-30.5 269,-11.5 211,-11.5"/>
<text text-anchor="middle" x="240" y="-18.5" font-family="Helvetica,sans-Serif" font-size="10.00">memory</text>
</a>
</g>
</g>
<!-- Node5&#45;&gt;Node7 -->
<g id="edge6" class="edge">
<title>Node5&#45;&gt;Node7</title>
<path fill="none" stroke="midnightblue" d="M198.43,-279.44C190.45,-252.91 175.77,-193.76 186,-145 194.34,-105.24 216.34,-62.63 229.54,-39.46"/>
<polygon fill="midnightblue" stroke="midnightblue" points="232.74,-40.93 234.75,-30.53 226.69,-37.4 232.74,-40.93"/>
</g>
<!-- Node8 -->
<g id="node8" class="node">
<title>Node8</title>
<g id="a_node8"><a xlink:title=" ">
<polygon fill="none" stroke="#bfbfbf" points="195,-151 195,-170 353,-170 353,-151 195,-151"/>
<text text-anchor="middle" x="274" y="-158" font-family="Helvetica,sans-Serif" font-size="10.00">VoronoiMeshMaker/Misc/ID.h</text>
</a>
</g>
</g>
<!-- Node5&#45;&gt;Node8 -->
<g id="edge7" class="edge">
<title>Node5&#45;&gt;Node8</title>
<path fill="none" stroke="midnightblue" d="M210.6,-279.37C223.67,-255.08 250.37,-205.44 264.59,-179"/>
<polygon fill="midnightblue" stroke="midnightblue" points="267.72,-180.56 269.38,-170.1 261.56,-177.25 267.72,-180.56"/>
</g>
<!-- Node9 -->
<g id="node9" class="node">
<title>Node9</title>
<g id="a_node9"><a xlink:href="GeometricDataHolder_8h.html" target="_top" xlink:title="Defines the GeometricDataHolder class and the DataTraits for handling multiple data types....">
<polygon fill="none" stroke="black" points="319,-212.5 319,-242.5 489,-242.5 489,-212.5 319,-212.5"/>
<text text-anchor="start" x="327" y="-230.5" font-family="Helvetica,sans-Serif" font-size="10.00">VoronoiMeshMaker/Parameters</text>
<text text-anchor="middle" x="404" y="-219.5" font-family="Helvetica,sans-Serif" font-size="10.00">/GeometricDataHolder.h</text>
</a>
</g>
</g>
<!-- Node5&#45;&gt;Node9 -->
<g id="edge8" class="edge">
<title>Node5&#45;&gt;Node9</title>
<path fill="none" stroke="midnightblue" d="M246.61,-279.4C277.17,-269.52 318.18,-256.25 350.68,-245.74"/>
<polygon fill="midnightblue" stroke="midnightblue" points="352.03,-248.98 360.47,-242.58 349.88,-242.32 352.03,-248.98"/>
</g>
<!-- Node9&#45;&gt;Node8 -->
<g id="edge10" class="edge">
<title>Node9&#45;&gt;Node8</title>
<path fill="none" stroke="midnightblue" d="M375.79,-212.4C353.28,-201.14 322,-185.5 300.08,-174.54"/>
<polygon fill="midnightblue" stroke="midnightblue" points="301.52,-171.35 291.01,-170.01 298.39,-177.61 301.52,-171.35"/>
</g>
<!-- Node10 -->
<g id="node10" class="node">
<title>Node10</title>
<g id="a_node10"><a xlink:title=" ">
<polygon fill="none" stroke="#bfbfbf" points="371.5,-151 371.5,-170 436.5,-170 436.5,-151 371.5,-151"/>
<text text-anchor="middle" x="404" y="-158" font-family="Helvetica,sans-Serif" font-size="10.00">execution</text>
</a>
</g>
</g>
<!-- Node9&#45;&gt;Node10 -->
<g id="edge9" class="edge">
<title>Node9&#45;&gt;Node10</title>
<path fill="none" stroke="midnightblue" d="M404,-212.4C404,-203.06 404,-190.71 404,-180.52"/>
<polygon fill="midnightblue" stroke="midnightblue" points="407.5,-180.19 404,-170.19 400.5,-180.19 407.5,-180.19"/>
</g>
<!-- Node11 -->
<g id="node11" class="node">
<title>Node11</title>
<g id="a_node11"><a xlink:href="GeometricDataTraits_8h.html" target="_top" xlink:title="Defines the GeometricDataTraits structure used for type identification and operations on various data...">
<polygon fill="none" stroke="black" points="455,-145.5 455,-175.5 625,-175.5 625,-145.5 455,-145.5"/>
<text text-anchor="start" x="463" y="-163.5" font-family="Helvetica,sans-Serif" font-size="10.00">VoronoiMeshMaker/Parameters</text>
<text text-anchor="middle" x="540" y="-152.5" font-family="Helvetica,sans-Serif" font-size="10.00">/GeometricDataTraits.h</text>
</a>
</g>
</g>
<!-- Node9&#45;&gt;Node11 -->
<g id="edge11" class="edge">
<title>Node9&#45;&gt;Node11</title>
<path fill="none" stroke="midnightblue" d="M433.51,-212.4C453.38,-202.9 479.79,-190.28 501.34,-179.98"/>
<polygon fill="midnightblue" stroke="midnightblue" points="503.03,-183.05 510.55,-175.58 500.02,-176.73 503.03,-183.05"/>
</g>
<!-- Node19 -->
<g id="node19" class="node">
<title>Node19</title>
<g id="a_node19"><a xlink:href="GeometricDataHolder_8tpp.html" target="_top" xlink:title=" ">
<polygon fill="none" stroke="black" points="643,-145.5 643,-175.5 813,-175.5 813,-145.5 643,-145.5"/>
<text text-anchor="start" x="651" y="-163.5" font-family="Helvetica,sans-Serif" font-size="10.00">VoronoiMeshMaker/Parameters</text>
<text text-anchor="middle" x="728" y="-152.5" font-family="Helvetica,sans-Serif" font-size="10.00">/GeometricDataHolder.tpp</text>
</a>
</g>
</g>
<!-- Node9&#45;&gt;Node19 -->
<g id="edge20" class="edge">
<title>Node9&#45;&gt;Node19</title>
<path fill="none" stroke="midnightblue" d="M473.9,-212.48C525.02,-202.22 594.46,-188.29 647.83,-177.58"/>
<polygon fill="midnightblue" stroke="midnightblue" points="648.83,-180.95 657.94,-175.55 647.45,-174.09 648.83,-180.95"/>
</g>
<!-- Node12 -->
<g id="node12" class="node">
<title>Node12</title>
<g id="a_node12"><a xlink:href="type_8h.html" target="_top" xlink:title="Defines common geometric and numeric types used in the VoronoiMeshMaker library.">
<polygon fill="none" stroke="black" points="453,-78.5 453,-108.5 589,-108.5 589,-78.5 453,-78.5"/>
<text text-anchor="start" x="461" y="-96.5" font-family="Helvetica,sans-Serif" font-size="10.00">VoronoiMeshMaker/Misc</text>
<text text-anchor="middle" x="521" y="-85.5" font-family="Helvetica,sans-Serif" font-size="10.00">/type.h</text>
</a>
</g>
</g>
<!-- Node11&#45;&gt;Node12 -->
<g id="edge12" class="edge">
<title>Node11&#45;&gt;Node12</title>
<path fill="none" stroke="midnightblue" d="M535.88,-145.4C533.56,-137.47 530.61,-127.38 527.95,-118.27"/>
<polygon fill="midnightblue" stroke="midnightblue" points="531.28,-117.19 525.11,-108.58 524.56,-119.16 531.28,-117.19"/>
</g>
<!-- Node12&#45;&gt;Node7 -->
<g id="edge14" class="edge">
<title>Node12&#45;&gt;Node7</title>
<path fill="none" stroke="midnightblue" d="M461.57,-78.41C420.14,-68.49 363.62,-54.76 314,-42 302.65,-39.08 290.36,-35.81 279.11,-32.76"/>
<polygon fill="midnightblue" stroke="midnightblue" points="279.7,-29.3 269.13,-30.05 277.86,-36.05 279.7,-29.3"/>
</g>
<!-- Node13 -->
<g id="node13" class="node">
<title>Node13</title>
<g id="a_node13"><a xlink:title=" ">
<polygon fill="none" stroke="#bfbfbf" points="323,-11.5 323,-30.5 355,-30.5 355,-11.5 323,-11.5"/>
<text text-anchor="middle" x="339" y="-18.5" font-family="Helvetica,sans-Serif" font-size="10.00">list</text>
</a>
</g>
</g>
<!-- Node12&#45;&gt;Node13 -->
<g id="edge13" class="edge">
<title>Node12&#45;&gt;Node13</title>
<path fill="none" stroke="midnightblue" d="M461.67,-78.46C431.7,-70.1 395.36,-57.97 365,-42 362.17,-40.51 359.33,-38.71 356.62,-36.81"/>
<polygon fill="midnightblue" stroke="midnightblue" points="358.64,-33.95 348.58,-30.64 354.38,-39.51 358.64,-33.95"/>
</g>
<!-- Node14 -->
<g id="node14" class="node">
<title>Node14</title>
<g id="a_node14"><a xlink:title=" ">
<polygon fill="none" stroke="#bfbfbf" points="373.5,-11.5 373.5,-30.5 420.5,-30.5 420.5,-11.5 373.5,-11.5"/>
<text text-anchor="middle" x="397" y="-18.5" font-family="Helvetica,sans-Serif" font-size="10.00">vector</text>
</a>
</g>
</g>
<!-- Node12&#45;&gt;Node14 -->
<g id="edge15" class="edge">
<title>Node12&#45;&gt;Node14</title>
<path fill="none" stroke="midnightblue" d="M494.96,-78.4C476.68,-68.41 451.72,-54.6 430,-42 426.68,-40.07 423.18,-38 419.77,-35.95"/>
<polygon fill="midnightblue" stroke="midnightblue" points="421.43,-32.87 411.06,-30.68 417.8,-38.86 421.43,-32.87"/>
</g>
<!-- Node15 -->
<g id="node15" class="node">
<title>Node15</title>
<g id="a_node15"><a xlink:title=" ">
<polygon fill="none" stroke="#bfbfbf" points="438.5,-0.5 438.5,-41.5 567.5,-41.5 567.5,-0.5 438.5,-0.5"/>
<text text-anchor="start" x="446.5" y="-29.5" font-family="Helvetica,sans-Serif" font-size="10.00">CGAL/Exact_predicates</text>
<text text-anchor="start" x="446.5" y="-18.5" font-family="Helvetica,sans-Serif" font-size="10.00">_inexact_constructions</text>
<text text-anchor="middle" x="503" y="-7.5" font-family="Helvetica,sans-Serif" font-size="10.00">_kernel.h</text>
</a>
</g>
</g>
<!-- Node12&#45;&gt;Node15 -->
<g id="edge16" class="edge">
<title>Node12&#45;&gt;Node15</title>
<path fill="none" stroke="midnightblue" d="M517.36,-78.23C515.38,-70.49 512.86,-60.63 510.49,-51.33"/>
<polygon fill="midnightblue" stroke="midnightblue" points="513.87,-50.41 508,-41.59 507.08,-52.14 513.87,-50.41"/>
</g>
<!-- Node16 -->
<g id="node16" class="node">
<title>Node16</title>
<g id="a_node16"><a xlink:title=" ">
<polygon fill="none" stroke="#bfbfbf" points="585.5,-11.5 585.5,-30.5 690.5,-30.5 690.5,-11.5 585.5,-11.5"/>
<text text-anchor="middle" x="638" y="-18.5" font-family="Helvetica,sans-Serif" font-size="10.00">CGAL/Polygon_2.h</text>
</a>
</g>
</g>
<!-- Node12&#45;&gt;Node16 -->
<g id="edge17" class="edge">
<title>Node12&#45;&gt;Node16</title>
<path fill="none" stroke="midnightblue" d="M544.4,-78.4C564.98,-66 594.77,-48.05 615.19,-35.75"/>
<polygon fill="midnightblue" stroke="midnightblue" points="617.08,-38.69 623.84,-30.53 613.47,-32.7 617.08,-38.69"/>
</g>
<!-- Node17 -->
<g id="node17" class="node">
<title>Node17</title>
<g id="a_node17"><a xlink:title=" ">
<polygon fill="none" stroke="#bfbfbf" points="708.5,-11.5 708.5,-30.5 829.5,-30.5 829.5,-11.5 708.5,-11.5"/>
<text text-anchor="middle" x="769" y="-18.5" font-family="Helvetica,sans-Serif" font-size="10.00">CGAL/Polyhedron_3.h</text>
</a>
</g>
</g>
<!-- Node12&#45;&gt;Node17 -->
<g id="edge18" class="edge">
<title>Node12&#45;&gt;Node17</title>
<path fill="none" stroke="midnightblue" d="M571.18,-78.45C607.08,-68.37 656.54,-54.43 700,-42 709.7,-39.23 720.16,-36.21 729.93,-33.38"/>
<polygon fill="midnightblue" stroke="midnightblue" points="731.18,-36.66 739.8,-30.51 729.22,-29.94 731.18,-36.66"/>
</g>
<!-- Node18 -->
<g id="node18" class="node">
<title>Node18</title>
<g id="a_node18"><a xlink:href="namespace_8h.html" target="_top" xlink:title=" ">
<polygon fill="none" stroke="black" points="848,-6 848,-36 984,-36 984,-6 848,-6"/>
<text text-anchor="start" x="856" y="-24" font-family="Helvetica,sans-Serif" font-size="10.00">VoronoiMeshMaker/Misc</text>
<text text-anchor="middle" x="916" y="-13" font-family="Helvetica,sans-Serif" font-size="10.00">/namespace.h</text>
</a>
</g>
</g>
<!-- Node12&#45;&gt;Node18 -->
<g id="edge19" class="edge">
<title>Node12&#45;&gt;Node18</title>
<path fill="none" stroke="midnightblue" d="M589.27,-83.6C653.91,-74.72 753.5,-59.85 839,-42 844.24,-40.91 849.66,-39.69 855.08,-38.4"/>
<polygon fill="midnightblue" stroke="midnightblue" points="855.91,-41.8 864.8,-36.03 854.26,-35 855.91,-41.8"/>
</g>
</g>
</svg>
