# vtk DataFile Version 3.0
Ellipse 2D geometry
ASCII
DATASET POLYDATA
POINTS 96 double
4.3190778623577248 1.2760604299770062 0
4.2794882188082024 1.3660518127054027 0
4.2279963799909481 1.4512640902324034 0
4.1648228418649502 1.5313323705036108 0
4.0902381232190415 1.6059137888505974 0
4.0045616072689167 1.6746889761900539 0
3.9081601740091725 1.7373634266112334 0
3.8014466291768465 1.7936687584954765 0
3.6848779365538697 1.8433638637675027 0
3.5589532611780061 1.886235940357206 0
3.4242118318415242 1.9221014034507879 0
3.281230632030721 1.9508066716291161 0
3.1306219291940618 1.9722288245269377 0
2.9730306529189594 1.9862761291967559 0
2.8091316332442791 1.9928884329233929 0
2.6396267109345022 1.9920374208071516 0
2.4652417320898272 1.9837267370125637 0
2.2867234399617367 1.9679919691635173 0
2.1048362772837512 1.944900495951587 0
1.9203591128102824 1.9145511986101345 0
1.7340819060810537 1.8770740374896837 0
1.5468023246930787 1.8326294955477518 0
1.3593223285655442 1.7814078911361837 0
1.1724447358243215 1.7236285630287542 0
0.98696978501149712 1.6595389311788626 0
0.80369170834108505 1.5894134372293094 0
0.62339533067475084 1.5135523693110486 0
0.44685270878126448 1.4322805761633095 0
0.27481982527089022 1.3459460760814226 0
0.10803335136178793 1.2549185666490523 0
-0.05279250765923682 1.1595878416363863 0
-0.2069690707734233 1.060362121843367 0
-0.35383613026789762 0.95766630703555777 0
-0.49276477884646575 0.85194015645811416 0
-0.62316010270719779 0.74363640571918366 0
-0.74446372905466873 0.63321882810652341 0
-0.85615621713798684 0.5211602486390865 0
-0.95775928257583698 0.40794051935769837 0
-1.0488378454436282 0.29404446452495081 0
-1.129001893352525 0.17995980453327809 0
-1.1979081515423728 0.0661750674113597 0
-1.2552615528369211 -0.046822503127895487 0
-1.3008165011667732 -0.15854903413973886 0
-1.3343779232494573 -0.26852609546580641 0
-1.3558021039231711 -0.3762827484455149 0
-1.3649973015571715 -0.48135756254770379 0
-1.3619241409035161 -0.5833005912870064 0
-1.3465957817079248 -0.68167529896378487 0
-1.3190778623577253 -0.77606042997700597 0
-1.2794882188082024 -0.86605181270540244 0
-1.2279963799909486 -0.95126409023240366 0
-1.1648228418649511 -1.0313323705036104 0
-1.090238123219041 -1.1059137888505974 0
-1.0045616072689163 -1.1746889761900534 0
-0.90816017400917293 -1.2373634266112332 0
-0.80144662917684584 -1.2936687584954769 0
-0.68487793655387041 -1.3433638637675025 0
-0.55895326117800748 -1.3862359403572058 0
-0.42421183184152422 -1.4221014034507884 0
-0.28123063203072163 -1.4508066716291161 0
-0.13062192919406268 -1.4722288245269377 0
0.026969347081039707 -1.4862761291967559 0
0.19086836675572028 -1.4928884329233925 0
0.36037328906549848 -1.4920374208071512 0
0.53475826791017167 -1.4837267370125637 0
0.71327656003826267 -1.4679919691635173 0
0.89516372271624967 -1.4449004959515868 0
1.0796408871897176 -1.4145511986101345 0
1.2659180939189467 -1.3770740374896837 0
1.4531976753069202 -1.332629495547752 0
1.6406776714344558 -1.2814078911361837 0
1.8275552641756803 -1.2236285630287538 0
2.0130302149885027 -1.1595389311788629 0
2.1963082916589127 -1.0894134372293105 0
2.3766046693252481 -1.0135523693110493 0
2.5531472912187358 -0.93228057616330928 0
2.7251801747291085 -0.84594607608142303 0
2.8919666486382116 -0.75491856664905255 0
3.0527925076592362 -0.65958784163638673 0
3.2069690707734226 -0.56036212184336698 0
3.353836130267899 -0.45766630703555744 0
3.4927647788464649 -0.35194015645811505 0
3.623160102707196 -0.2436364057191851 0
3.7444637290546687 -0.13321882810652286 0
3.8561562171379866 -0.021160248639086721 0
3.9577592825758376 0.092059480642302405 0
4.0488378454436278 0.20595553547504908 0
4.1290018933525241 0.32004019546672091 0
4.1979081515423724 0.43382493258863919 0
4.2552615528369211 0.54682250312789615 0
4.3008165011667732 0.65854903413973953 0
4.3343779232494573 0.76852609546580641 0
4.3558021039231711 0.87628274844551401 0
4.364997301557171 0.98135756254770279 0
4.3619241409035165 1.0833005912870068 0
4.3465957817079248 1.1816752989637853 0
LINES 1 98
97 0 1 2 3 4 5 6 7 8 9 10 11 12 13 14 15 16 17 18 19 20 21 22 23 24 25 26 27 28 29 30 31 32 33 34 35 36 37 38 39 40 41 42 43 44 45 46 47 48 49 50 51 52 53 54 55 56 57 58 59 60 61 62 63 64 65 66 67 68 69 70 71 72 73 74 75 76 77 78 79 80 81 82 83 84 85 86 87 88 89 90 91 92 93 94 95 0
