<?xml version="1.0" encoding="UTF-8" standalone="no"?>
<!DOCTYPE svg PUBLIC "-//W3C//DTD SVG 1.1//EN"
 "http://www.w3.org/Graphics/SVG/1.1/DTD/svg11.dtd">
<!-- Generated by graphviz version 2.43.0 (0)
 -->
<!-- Title: VMMException Pages: 1 -->
<svg width="244pt" height="163pt"
 viewBox="0.00 0.00 244.00 163.00" xmlns="http://www.w3.org/2000/svg" xmlns:xlink="http://www.w3.org/1999/xlink">
<g id="graph0" class="graph" transform="scale(1 1) rotate(0) translate(4 159)">
<title>VMMException</title>
<!-- Node1 -->
<g id="node1" class="node">
<title>Node1</title>
<g id="a_node1"><a xlink:title="Exception class for handling errors in VoronoiMeshMaker.">
<polygon fill="#bfbfbf" stroke="black" points="74.5,-0.5 74.5,-19.5 163.5,-19.5 163.5,-0.5 74.5,-0.5"/>
<text text-anchor="middle" x="119" y="-7.5" font-family="Helvetica,sans-Serif" font-size="10.00">VMMException</text>
</a>
</g>
</g>
<!-- Node2 -->
<g id="node2" class="node">
<title>Node2</title>
<g id="a_node2"><a xlink:title=" ">
<polygon fill="none" stroke="#bfbfbf" points="0,-67.5 0,-86.5 86,-86.5 86,-67.5 0,-67.5"/>
<text text-anchor="middle" x="43" y="-74.5" font-family="Helvetica,sans-Serif" font-size="10.00">std::exception</text>
</a>
</g>
</g>
<!-- Node2&#45;&gt;Node1 -->
<g id="edge1" class="edge">
<title>Node2&#45;&gt;Node1</title>
<path fill="none" stroke="midnightblue" d="M60.87,-60.71C75.85,-47.91 96.68,-30.09 108.91,-19.63"/>
<polygon fill="midnightblue" stroke="midnightblue" points="58.57,-58.07 53.25,-67.23 63.12,-63.39 58.57,-58.07"/>
</g>
<!-- Node3 -->
<g id="node3" class="node">
<title>Node3</title>
<g id="a_node3"><a xlink:href="classID.html" target="_top" xlink:title="Base class to provide unique identification for derived classes.">
<polygon fill="none" stroke="black" points="104.5,-67.5 104.5,-86.5 133.5,-86.5 133.5,-67.5 104.5,-67.5"/>
<text text-anchor="middle" x="119" y="-74.5" font-family="Helvetica,sans-Serif" font-size="10.00">ID</text>
</a>
</g>
</g>
<!-- Node3&#45;&gt;Node1 -->
<g id="edge2" class="edge">
<title>Node3&#45;&gt;Node1</title>
<path fill="none" stroke="midnightblue" d="M119,-57.04C119,-44.67 119,-29.12 119,-19.63"/>
<polygon fill="midnightblue" stroke="midnightblue" points="115.5,-57.23 119,-67.23 122.5,-57.23 115.5,-57.23"/>
</g>
<!-- Node4 -->
<g id="node4" class="node">
<title>Node4</title>
<g id="a_node4"><a xlink:title=" ">
<polygon fill="none" stroke="#bfbfbf" points="151.5,-67.5 151.5,-86.5 216.5,-86.5 216.5,-67.5 151.5,-67.5"/>
<text text-anchor="middle" x="184" y="-74.5" font-family="Helvetica,sans-Serif" font-size="10.00">std::string</text>
</a>
</g>
</g>
<!-- Node4&#45;&gt;Node1 -->
<g id="edge3" class="edge">
<title>Node4&#45;&gt;Node1</title>
<path fill="none" stroke="#9a32cd" stroke-dasharray="5,2" d="M168,-60C155.25,-47.25 137.89,-29.89 127.63,-19.63"/>
<polygon fill="#9a32cd" stroke="#9a32cd" points="165.69,-62.64 175.23,-67.23 170.64,-57.69 165.69,-62.64"/>
<text text-anchor="middle" x="178.5" y="-41" font-family="Helvetica,sans-Serif" font-size="10.00"> errorMsg</text>
</g>
<!-- Node5 -->
<g id="node5" class="node">
<title>Node5</title>
<g id="a_node5"><a xlink:title=" ">
<polygon fill="none" stroke="#bfbfbf" points="132,-124.5 132,-154.5 236,-154.5 236,-124.5 132,-124.5"/>
<text text-anchor="start" x="140" y="-142.5" font-family="Helvetica,sans-Serif" font-size="10.00">std::basic_string&lt;</text>
<text text-anchor="middle" x="184" y="-131.5" font-family="Helvetica,sans-Serif" font-size="10.00"> Char &gt;</text>
</a>
</g>
</g>
<!-- Node5&#45;&gt;Node4 -->
<g id="edge4" class="edge">
<title>Node5&#45;&gt;Node4</title>
<path fill="none" stroke="midnightblue" d="M184,-114.35C184,-104.51 184,-93.78 184,-86.54"/>
<polygon fill="midnightblue" stroke="midnightblue" points="180.5,-114.47 184,-124.47 187.5,-114.47 180.5,-114.47"/>
</g>
</g>
</svg>
