<?xml version="1.0" encoding="UTF-8" standalone="no"?>
<!DOCTYPE svg PUBLIC "-//W3C//DTD SVG 1.1//EN"
 "http://www.w3.org/Graphics/SVG/1.1/DTD/svg11.dtd">
<!-- Generated by graphviz version 2.43.0 (0)
 -->
<!-- Title: VMMException Pages: 1 -->
<svg width="142pt" height="84pt"
 viewBox="0.00 0.00 141.50 84.00" xmlns="http://www.w3.org/2000/svg" xmlns:xlink="http://www.w3.org/1999/xlink">
<g id="graph0" class="graph" transform="scale(1 1) rotate(0) translate(4 80)">
<title>VMMException</title>
<!-- Node1 -->
<g id="node1" class="node">
<title>Node1</title>
<g id="a_node1"><a xlink:title="Exception class for handling errors in VoronoiMeshMaker.">
<polygon fill="#bfbfbf" stroke="black" points="36.5,-0.5 36.5,-19.5 125.5,-19.5 125.5,-0.5 36.5,-0.5"/>
<text text-anchor="middle" x="81" y="-7.5" font-family="Helvetica,sans-Serif" font-size="10.00">VMMException</text>
</a>
</g>
</g>
<!-- Node2 -->
<g id="node2" class="node">
<title>Node2</title>
<g id="a_node2"><a xlink:title=" ">
<polygon fill="none" stroke="#bfbfbf" points="0,-56.5 0,-75.5 86,-75.5 86,-56.5 0,-56.5"/>
<text text-anchor="middle" x="43" y="-63.5" font-family="Helvetica,sans-Serif" font-size="10.00">std::exception</text>
</a>
</g>
</g>
<!-- Node2&#45;&gt;Node1 -->
<g id="edge1" class="edge">
<title>Node2&#45;&gt;Node1</title>
<path fill="none" stroke="midnightblue" d="M55.06,-47.86C61.64,-38.5 69.51,-27.33 74.84,-19.75"/>
<polygon fill="midnightblue" stroke="midnightblue" points="52.17,-45.89 49.27,-56.08 57.89,-49.92 52.17,-45.89"/>
</g>
<!-- Node3 -->
<g id="node3" class="node">
<title>Node3</title>
<g id="a_node3"><a xlink:href="classID.html" target="_top" xlink:title="Base class to provide unique identification for derived classes.">
<polygon fill="none" stroke="black" points="104.5,-56.5 104.5,-75.5 133.5,-75.5 133.5,-56.5 104.5,-56.5"/>
<text text-anchor="middle" x="119" y="-63.5" font-family="Helvetica,sans-Serif" font-size="10.00">ID</text>
</a>
</g>
</g>
<!-- Node3&#45;&gt;Node1 -->
<g id="edge2" class="edge">
<title>Node3&#45;&gt;Node1</title>
<path fill="none" stroke="midnightblue" d="M106.94,-47.86C100.36,-38.5 92.49,-27.33 87.16,-19.75"/>
<polygon fill="midnightblue" stroke="midnightblue" points="104.11,-49.92 112.73,-56.08 109.83,-45.89 104.11,-49.92"/>
</g>
</g>
</svg>
