<?xml version="1.0" encoding="UTF-8" standalone="no"?>
<!DOCTYPE svg PUBLIC "-//W3C//DTD SVG 1.1//EN"
 "http://www.w3.org/Graphics/SVG/1.1/DTD/svg11.dtd">
<!-- Generated by graphviz version 2.43.0 (0)
 -->
<!-- Title: VoronoiMeshMaker/include/VoronoiMeshMaker/Misc/configure.h Pages: 1 -->
<svg width="1188pt" height="273pt"
 viewBox="0.00 0.00 1187.50 273.00" xmlns="http://www.w3.org/2000/svg" xmlns:xlink="http://www.w3.org/1999/xlink">
<g id="graph0" class="graph" transform="scale(1 1) rotate(0) translate(4 269)">
<title>VoronoiMeshMaker/include/VoronoiMeshMaker/Misc/configure.h</title>
<!-- Node1 -->
<g id="node1" class="node">
<title>Node1</title>
<g id="a_node1"><a xlink:title="Defines common constants used across the VoronoiMeshMaker library.">
<polygon fill="#bfbfbf" stroke="black" points="767.5,-223.5 767.5,-264.5 916.5,-264.5 916.5,-223.5 767.5,-223.5"/>
<text text-anchor="start" x="775.5" y="-252.5" font-family="Helvetica,sans-Serif" font-size="10.00">VoronoiMeshMaker/include</text>
<text text-anchor="start" x="775.5" y="-241.5" font-family="Helvetica,sans-Serif" font-size="10.00">/VoronoiMeshMaker/Misc</text>
<text text-anchor="middle" x="842" y="-230.5" font-family="Helvetica,sans-Serif" font-size="10.00">/configure.h</text>
</a>
</g>
</g>
<!-- Node2 -->
<g id="node2" class="node">
<title>Node2</title>
<g id="a_node2"><a xlink:href="id_8h.html" target="_top" xlink:title=" ">
<polygon fill="none" stroke="black" points="670,-156.5 670,-186.5 830,-186.5 830,-156.5 670,-156.5"/>
<text text-anchor="start" x="678" y="-174.5" font-family="Helvetica,sans-Serif" font-size="10.00">VoronoiMeshMaker/include</text>
<text text-anchor="middle" x="750" y="-163.5" font-family="Helvetica,sans-Serif" font-size="10.00">/VoronoiMeshMaker/Misc/id.h</text>
</a>
</g>
</g>
<!-- Node1&#45;&gt;Node2 -->
<g id="edge1" class="edge">
<title>Node1&#45;&gt;Node2</title>
<path fill="none" stroke="midnightblue" d="M808.25,-217.14C794.81,-206.84 779.88,-195.39 768.49,-186.67"/>
<polygon fill="midnightblue" stroke="midnightblue" points="806.31,-220.06 816.37,-223.36 810.56,-214.5 806.31,-220.06"/>
</g>
<!-- Node11 -->
<g id="node11" class="node">
<title>Node11</title>
<g id="a_node11"><a xlink:href="misc_8h.html" target="_top" xlink:title="Provides general&#45;purpose utility functions for the VoronoiMeshMaker library.">
<polygon fill="none" stroke="black" points="925,-156.5 925,-186.5 1099,-186.5 1099,-156.5 925,-156.5"/>
<text text-anchor="start" x="933" y="-174.5" font-family="Helvetica,sans-Serif" font-size="10.00">VoronoiMeshMaker/include</text>
<text text-anchor="middle" x="1012" y="-163.5" font-family="Helvetica,sans-Serif" font-size="10.00">/VoronoiMeshMaker/Misc/misc.h</text>
</a>
</g>
</g>
<!-- Node1&#45;&gt;Node11 -->
<g id="edge10" class="edge">
<title>Node1&#45;&gt;Node11</title>
<path fill="none" stroke="midnightblue" d="M898.83,-219.43C925.12,-208.53 955.45,-195.95 978.1,-186.56"/>
<polygon fill="midnightblue" stroke="midnightblue" points="897.25,-216.3 889.35,-223.36 899.93,-222.76 897.25,-216.3"/>
</g>
<!-- Node3 -->
<g id="node3" class="node">
<title>Node3</title>
<g id="a_node3"><a xlink:href="MakerException_8h.html" target="_top" xlink:title=" ">
<polygon fill="none" stroke="black" points="522.5,-78.5 522.5,-119.5 671.5,-119.5 671.5,-78.5 522.5,-78.5"/>
<text text-anchor="start" x="530.5" y="-107.5" font-family="Helvetica,sans-Serif" font-size="10.00">VoronoiMeshMaker/include</text>
<text text-anchor="start" x="530.5" y="-96.5" font-family="Helvetica,sans-Serif" font-size="10.00">/VoronoiMeshMaker/Error</text>
<text text-anchor="middle" x="597" y="-85.5" font-family="Helvetica,sans-Serif" font-size="10.00">/MakerException.h</text>
</a>
</g>
</g>
<!-- Node2&#45;&gt;Node3 -->
<g id="edge2" class="edge">
<title>Node2&#45;&gt;Node3</title>
<path fill="none" stroke="midnightblue" d="M710.13,-152.13C688.41,-142.12 661.53,-129.73 639.42,-119.55"/>
<polygon fill="midnightblue" stroke="midnightblue" points="708.86,-155.4 719.41,-156.4 711.79,-149.04 708.86,-155.4"/>
</g>
<!-- Node4 -->
<g id="node4" class="node">
<title>Node4</title>
<g id="a_node4"><a xlink:href="MakerException_8cpp.html" target="_top" xlink:title=" ">
<polygon fill="none" stroke="black" points="0,-0.5 0,-41.5 140,-41.5 140,-0.5 0,-0.5"/>
<text text-anchor="start" x="8" y="-29.5" font-family="Helvetica,sans-Serif" font-size="10.00">VoronoiMeshMaker/src</text>
<text text-anchor="start" x="8" y="-18.5" font-family="Helvetica,sans-Serif" font-size="10.00">/VoronoiMeshMaker/Error</text>
<text text-anchor="middle" x="70" y="-7.5" font-family="Helvetica,sans-Serif" font-size="10.00">/MakerException.cpp</text>
</a>
</g>
</g>
<!-- Node3&#45;&gt;Node4 -->
<g id="edge3" class="edge">
<title>Node3&#45;&gt;Node4</title>
<path fill="none" stroke="midnightblue" d="M512.24,-90.56C421.79,-81.88 274.53,-65.64 149,-42 146.08,-41.45 143.11,-40.86 140.11,-40.23"/>
<polygon fill="midnightblue" stroke="midnightblue" points="512.16,-94.06 522.44,-91.53 512.82,-87.09 512.16,-94.06"/>
</g>
<!-- Node5 -->
<g id="node5" class="node">
<title>Node5</title>
<g id="a_node5"><a xlink:href="Ellipse_8cpp.html" target="_top" xlink:title=" ">
<polygon fill="none" stroke="black" points="158,-0.5 158,-41.5 304,-41.5 304,-0.5 158,-0.5"/>
<text text-anchor="start" x="166" y="-29.5" font-family="Helvetica,sans-Serif" font-size="10.00">VoronoiMeshMaker/src</text>
<text text-anchor="start" x="166" y="-18.5" font-family="Helvetica,sans-Serif" font-size="10.00">/VoronoiMeshMaker/Shape</text>
<text text-anchor="middle" x="231" y="-7.5" font-family="Helvetica,sans-Serif" font-size="10.00">/Shape2D/Ellipse.cpp</text>
</a>
</g>
</g>
<!-- Node3&#45;&gt;Node5 -->
<g id="edge4" class="edge">
<title>Node3&#45;&gt;Node5</title>
<path fill="none" stroke="midnightblue" d="M512.39,-82.34C455.81,-71.61 379.78,-56.72 313,-42 310.14,-41.37 307.22,-40.71 304.28,-40.04"/>
<polygon fill="midnightblue" stroke="midnightblue" points="511.89,-85.81 522.37,-84.22 513.19,-78.93 511.89,-85.81"/>
</g>
<!-- Node6 -->
<g id="node6" class="node">
<title>Node6</title>
<g id="a_node6"><a xlink:href="Polygon_8cpp.html" target="_top" xlink:title=" ">
<polygon fill="none" stroke="black" points="322,-0.5 322,-41.5 468,-41.5 468,-0.5 322,-0.5"/>
<text text-anchor="start" x="330" y="-29.5" font-family="Helvetica,sans-Serif" font-size="10.00">VoronoiMeshMaker/src</text>
<text text-anchor="start" x="330" y="-18.5" font-family="Helvetica,sans-Serif" font-size="10.00">/VoronoiMeshMaker/Shape</text>
<text text-anchor="middle" x="395" y="-7.5" font-family="Helvetica,sans-Serif" font-size="10.00">/Shape2D/Polygon.cpp</text>
</a>
</g>
</g>
<!-- Node3&#45;&gt;Node6 -->
<g id="edge5" class="edge">
<title>Node3&#45;&gt;Node6</title>
<path fill="none" stroke="midnightblue" d="M535.57,-74.89C507.21,-64.22 473.91,-51.69 446.84,-41.51"/>
<polygon fill="midnightblue" stroke="midnightblue" points="534.39,-78.18 544.98,-78.43 536.85,-71.63 534.39,-78.18"/>
</g>
<!-- Node7 -->
<g id="node7" class="node">
<title>Node7</title>
<g id="a_node7"><a xlink:href="PolygonCSV_8cpp.html" target="_top" xlink:title=" ">
<polygon fill="none" stroke="black" points="978,-0.5 978,-41.5 1124,-41.5 1124,-0.5 978,-0.5"/>
<text text-anchor="start" x="986" y="-29.5" font-family="Helvetica,sans-Serif" font-size="10.00">VoronoiMeshMaker/src</text>
<text text-anchor="start" x="986" y="-18.5" font-family="Helvetica,sans-Serif" font-size="10.00">/VoronoiMeshMaker/Shape</text>
<text text-anchor="middle" x="1051" y="-7.5" font-family="Helvetica,sans-Serif" font-size="10.00">/Shape2D/PolygonCSV.cpp</text>
</a>
</g>
</g>
<!-- Node3&#45;&gt;Node7 -->
<g id="edge6" class="edge">
<title>Node3&#45;&gt;Node7</title>
<path fill="none" stroke="midnightblue" d="M681.76,-87.45C757.4,-77.51 871.03,-61.28 969,-42 971.88,-41.43 974.8,-40.83 977.75,-40.21"/>
<polygon fill="midnightblue" stroke="midnightblue" points="681.26,-83.98 671.8,-88.75 682.17,-90.92 681.26,-83.98"/>
</g>
<!-- Node8 -->
<g id="node8" class="node">
<title>Node8</title>
<g id="a_node8"><a xlink:href="Rectangle_8cpp.html" target="_top" xlink:title=" ">
<polygon fill="none" stroke="black" points="486,-0.5 486,-41.5 632,-41.5 632,-0.5 486,-0.5"/>
<text text-anchor="start" x="494" y="-29.5" font-family="Helvetica,sans-Serif" font-size="10.00">VoronoiMeshMaker/src</text>
<text text-anchor="start" x="494" y="-18.5" font-family="Helvetica,sans-Serif" font-size="10.00">/VoronoiMeshMaker/Shape</text>
<text text-anchor="middle" x="559" y="-7.5" font-family="Helvetica,sans-Serif" font-size="10.00">/Shape2D/Rectangle.cpp</text>
</a>
</g>
</g>
<!-- Node3&#45;&gt;Node8 -->
<g id="edge7" class="edge">
<title>Node3&#45;&gt;Node8</title>
<path fill="none" stroke="midnightblue" d="M582.73,-69.47C578.07,-60.14 573,-50.01 568.75,-41.51"/>
<polygon fill="midnightblue" stroke="midnightblue" points="579.61,-71.05 587.21,-78.43 585.87,-67.92 579.61,-71.05"/>
</g>
<!-- Node9 -->
<g id="node9" class="node">
<title>Node9</title>
<g id="a_node9"><a xlink:href="Star_8cpp.html" target="_top" xlink:title=" ">
<polygon fill="none" stroke="black" points="650,-0.5 650,-41.5 796,-41.5 796,-0.5 650,-0.5"/>
<text text-anchor="start" x="658" y="-29.5" font-family="Helvetica,sans-Serif" font-size="10.00">VoronoiMeshMaker/src</text>
<text text-anchor="start" x="658" y="-18.5" font-family="Helvetica,sans-Serif" font-size="10.00">/VoronoiMeshMaker/Shape</text>
<text text-anchor="middle" x="723" y="-7.5" font-family="Helvetica,sans-Serif" font-size="10.00">/Shape2D/Star.cpp</text>
</a>
</g>
</g>
<!-- Node3&#45;&gt;Node9 -->
<g id="edge8" class="edge">
<title>Node3&#45;&gt;Node9</title>
<path fill="none" stroke="midnightblue" d="M638.11,-73.2C655.16,-62.92 674.66,-51.16 690.66,-41.51"/>
<polygon fill="midnightblue" stroke="midnightblue" points="636.2,-70.27 629.45,-78.43 639.82,-76.26 636.2,-70.27"/>
</g>
<!-- Node10 -->
<g id="node10" class="node">
<title>Node10</title>
<g id="a_node10"><a xlink:href="ShapeFactory_8cpp.html" target="_top" xlink:title="Implements the ShapeFactory methods for creating shape objects. This file contains the registration a...">
<polygon fill="none" stroke="black" points="814,-0.5 814,-41.5 960,-41.5 960,-0.5 814,-0.5"/>
<text text-anchor="start" x="822" y="-29.5" font-family="Helvetica,sans-Serif" font-size="10.00">VoronoiMeshMaker/src</text>
<text text-anchor="start" x="822" y="-18.5" font-family="Helvetica,sans-Serif" font-size="10.00">/VoronoiMeshMaker/Shape</text>
<text text-anchor="middle" x="887" y="-7.5" font-family="Helvetica,sans-Serif" font-size="10.00">/ShapeFactory.cpp</text>
</a>
</g>
</g>
<!-- Node3&#45;&gt;Node10 -->
<g id="edge9" class="edge">
<title>Node3&#45;&gt;Node10</title>
<path fill="none" stroke="midnightblue" d="M681.57,-75.84C723.39,-64.88 773.38,-51.78 813.57,-41.24"/>
<polygon fill="midnightblue" stroke="midnightblue" points="680.47,-72.51 671.68,-78.43 682.24,-79.28 680.47,-72.51"/>
</g>
<!-- Node11&#45;&gt;Node7 -->
<g id="edge12" class="edge">
<title>Node11&#45;&gt;Node7</title>
<path fill="none" stroke="midnightblue" d="M1016.46,-146.21C1020.1,-127.45 1025.66,-100.9 1032,-78 1035.4,-65.73 1039.96,-52.21 1043.76,-41.53"/>
<polygon fill="midnightblue" stroke="midnightblue" points="1012.98,-145.8 1014.55,-156.27 1019.86,-147.1 1012.98,-145.8"/>
</g>
<!-- Node12 -->
<g id="node12" class="node">
<title>Node12</title>
<g id="a_node12"><a xlink:href="misc_8cpp.html" target="_top" xlink:title=" ">
<polygon fill="none" stroke="black" points="1040.5,-78.5 1040.5,-119.5 1179.5,-119.5 1179.5,-78.5 1040.5,-78.5"/>
<text text-anchor="start" x="1048.5" y="-107.5" font-family="Helvetica,sans-Serif" font-size="10.00">VoronoiMeshMaker/src</text>
<text text-anchor="start" x="1048.5" y="-96.5" font-family="Helvetica,sans-Serif" font-size="10.00">/VoronoiMeshMaker/Misc</text>
<text text-anchor="middle" x="1110" y="-85.5" font-family="Helvetica,sans-Serif" font-size="10.00">/misc.cpp</text>
</a>
</g>
</g>
<!-- Node11&#45;&gt;Node12 -->
<g id="edge11" class="edge">
<title>Node11&#45;&gt;Node12</title>
<path fill="none" stroke="midnightblue" d="M1040.21,-150.21C1053.59,-140.58 1069.51,-129.12 1082.77,-119.59"/>
<polygon fill="midnightblue" stroke="midnightblue" points="1037.91,-147.55 1031.83,-156.23 1041.99,-153.23 1037.91,-147.55"/>
</g>
</g>
</svg>
