<?xml version="1.0" encoding="UTF-8" standalone="no"?>
<!DOCTYPE svg PUBLIC "-//W3C//DTD SVG 1.1//EN"
 "http://www.w3.org/Graphics/SVG/1.1/DTD/svg11.dtd">
<!-- Generated by graphviz version 2.43.0 (0)
 -->
<!-- Title: VoronoiMeshMaker/src/VoronoiMeshMaker Pages: 1 -->
<svg width="474pt" height="159pt"
 viewBox="0.00 0.00 474.00 159.00" xmlns="http://www.w3.org/2000/svg" xmlns:xlink="http://www.w3.org/1999/xlink">
<g id="graph0" class="graph" transform="scale(1 1) rotate(0) translate(4 155)">
<title>VoronoiMeshMaker/src/VoronoiMeshMaker</title>
<g id="clust1" class="cluster">
<title>clusterdir_8ad10daabed8df44e925c43ae90eb5d4</title>
<g id="a_clust1"><a xlink:href="dir_8ad10daabed8df44e925c43ae90eb5d4.html" target="_top" xlink:title="src">
<polygon fill="#ddddee" stroke="black" points="8,-56 8,-143 458,-143 458,-56 8,-56"/>
<text text-anchor="middle" x="233" y="-131" font-family="Helvetica,sans-Serif" font-size="10.00">src</text>
</a>
</g>
</g>
<g id="clust2" class="cluster">
<title>clusterdir_1243ef2b1690351902c3c8b500b42814</title>
<g id="a_clust2"><a xlink:href="dir_1243ef2b1690351902c3c8b500b42814.html" target="_top">
<polygon fill="#eeeeff" stroke="black" points="16,-64 16,-116 450,-116 450,-64 16,-64"/>
</a>
</g>
</g>
<!-- dir_1243ef2b1690351902c3c8b500b42814 -->
<g id="node1" class="node">
<title>dir_1243ef2b1690351902c3c8b500b42814</title>
<text text-anchor="middle" x="387" y="-87.5" font-family="Helvetica,sans-Serif" font-size="10.00">VoronoiMeshMaker</text>
</g>
<!-- dir_7a7ddf677f3a0a5fb7fdc74763c9d25c -->
<g id="node2" class="node">
<title>dir_7a7ddf677f3a0a5fb7fdc74763c9d25c</title>
<g id="a_node2"><a xlink:href="dir_7a7ddf677f3a0a5fb7fdc74763c9d25c.html" target="_top" xlink:title="Error">
<polygon fill="white" stroke="black" points="314,-108 260,-108 260,-72 314,-72 314,-108"/>
<text text-anchor="middle" x="287" y="-87.5" font-family="Helvetica,sans-Serif" font-size="10.00">Error</text>
</a>
</g>
</g>
<!-- dir_3d76d392fc864399b71d61d55d21af57 -->
<g id="node6" class="node">
<title>dir_3d76d392fc864399b71d61d55d21af57</title>
<g id="a_node6"><a xlink:href="dir_3d76d392fc864399b71d61d55d21af57.html" target="_top" xlink:title="include">
<polygon fill="none" stroke="red" points="201,-36 147,-36 147,0 201,0 201,-36"/>
<text text-anchor="middle" x="174" y="-15.5" font-family="Helvetica,sans-Serif" font-size="10.00">include</text>
</a>
</g>
</g>
<!-- dir_7a7ddf677f3a0a5fb7fdc74763c9d25c&#45;&gt;dir_3d76d392fc864399b71d61d55d21af57 -->
<g id="edge3" class="edge">
<title>dir_7a7ddf677f3a0a5fb7fdc74763c9d25c&#45;&gt;dir_3d76d392fc864399b71d61d55d21af57</title>
<path fill="none" stroke="black" d="M270.29,-71.79C264.49,-66.34 257.74,-60.56 251,-56 238.45,-47.51 223.65,-39.9 210.39,-33.82"/>
<polygon fill="black" stroke="black" points="211.63,-30.54 201.07,-29.68 208.78,-36.94 211.63,-30.54"/>
<g id="a_edge3&#45;headlabel"><a xlink:href="dir_000011_000001.html" target="_top" xlink:title="1">
<text text-anchor="middle" x="216.07" y="-26.9" font-family="Helvetica,sans-Serif" font-size="10.00">1</text>
</a>
</g>
</g>
<!-- dir_9b3aa4669936d2358fd4c29ce856fdde -->
<g id="node3" class="node">
<title>dir_9b3aa4669936d2358fd4c29ce856fdde</title>
<g id="a_node3"><a xlink:href="dir_9b3aa4669936d2358fd4c29ce856fdde.html" target="_top" xlink:title="Misc">
<polygon fill="white" stroke="black" points="242,-108 188,-108 188,-72 242,-72 242,-108"/>
<text text-anchor="middle" x="215" y="-87.5" font-family="Helvetica,sans-Serif" font-size="10.00">Misc</text>
</a>
</g>
</g>
<!-- dir_9b3aa4669936d2358fd4c29ce856fdde&#45;&gt;dir_3d76d392fc864399b71d61d55d21af57 -->
<g id="edge1" class="edge">
<title>dir_9b3aa4669936d2358fd4c29ce856fdde&#45;&gt;dir_3d76d392fc864399b71d61d55d21af57</title>
<path fill="none" stroke="black" d="M204.87,-71.7C200.15,-63.64 194.44,-53.89 189.22,-44.98"/>
<polygon fill="black" stroke="black" points="192.09,-42.96 184.02,-36.1 186.05,-46.5 192.09,-42.96"/>
<g id="a_edge1&#45;headlabel"><a xlink:href="dir_000012_000001.html" target="_top" xlink:title="1">
<text text-anchor="middle" x="196.36" y="-42.13" font-family="Helvetica,sans-Serif" font-size="10.00">1</text>
</a>
</g>
</g>
<!-- dir_3c39122fa3489942e99198c0224bbac1 -->
<g id="node4" class="node">
<title>dir_3c39122fa3489942e99198c0224bbac1</title>
<g id="a_node4"><a xlink:href="dir_3c39122fa3489942e99198c0224bbac1.html" target="_top" xlink:title="Parameters">
<polygon fill="white" stroke="black" points="169.5,-108 96.5,-108 96.5,-72 169.5,-72 169.5,-108"/>
<text text-anchor="middle" x="133" y="-87.5" font-family="Helvetica,sans-Serif" font-size="10.00">Parameters</text>
</a>
</g>
</g>
<!-- dir_3c39122fa3489942e99198c0224bbac1&#45;&gt;dir_3d76d392fc864399b71d61d55d21af57 -->
<g id="edge2" class="edge">
<title>dir_3c39122fa3489942e99198c0224bbac1&#45;&gt;dir_3d76d392fc864399b71d61d55d21af57</title>
<path fill="none" stroke="black" d="M143.13,-71.7C147.85,-63.64 153.56,-53.89 158.78,-44.98"/>
<polygon fill="black" stroke="black" points="161.95,-46.5 163.98,-36.1 155.91,-42.96 161.95,-46.5"/>
<g id="a_edge2&#45;headlabel"><a xlink:href="dir_000013_000001.html" target="_top" xlink:title="1">
<text text-anchor="middle" x="162.58" y="-48.54" font-family="Helvetica,sans-Serif" font-size="10.00">1</text>
</a>
</g>
</g>
<!-- dir_df471b08699de772abda48d5dbf37edb -->
<g id="node5" class="node">
<title>dir_df471b08699de772abda48d5dbf37edb</title>
<g id="a_node5"><a xlink:href="dir_df471b08699de772abda48d5dbf37edb.html" target="_top" xlink:title="Shape">
<polygon fill="white" stroke="red" points="78,-108 24,-108 24,-72 78,-72 78,-108"/>
<text text-anchor="middle" x="51" y="-87.5" font-family="Helvetica,sans-Serif" font-size="10.00">Shape</text>
</a>
</g>
</g>
<!-- dir_df471b08699de772abda48d5dbf37edb&#45;&gt;dir_3d76d392fc864399b71d61d55d21af57 -->
<g id="edge4" class="edge">
<title>dir_df471b08699de772abda48d5dbf37edb&#45;&gt;dir_3d76d392fc864399b71d61d55d21af57</title>
<path fill="none" stroke="black" d="M67.76,-71.99C73.8,-66.43 80.89,-60.53 88,-56 103.32,-46.24 121.67,-37.94 137.47,-31.7"/>
<polygon fill="black" stroke="black" points="138.84,-34.92 146.93,-28.08 136.34,-28.38 138.84,-34.92"/>
<g id="a_edge4&#45;headlabel"><a xlink:href="dir_000014_000001.html" target="_top" xlink:title="19">
<text text-anchor="middle" x="136.49" y="-36.36" font-family="Helvetica,sans-Serif" font-size="10.00">19</text>
</a>
</g>
</g>
</g>
</svg>
