<?xml version="1.0" encoding="UTF-8" standalone="no"?>
<!DOCTYPE svg PUBLIC "-//W3C//DTD SVG 1.1//EN"
 "http://www.w3.org/Graphics/SVG/1.1/DTD/svg11.dtd">
<!-- Generated by graphviz version 2.43.0 (0)
 -->
<!-- Title: VoronoiMeshMaker/include/VoronoiMeshMaker Pages: 1 -->
<svg width="238pt" height="255pt"
 viewBox="0.00 0.00 238.00 255.00" xmlns="http://www.w3.org/2000/svg" xmlns:xlink="http://www.w3.org/1999/xlink">
<g id="graph0" class="graph" transform="scale(1 1) rotate(0) translate(4 251)">
<title>VoronoiMeshMaker/include/VoronoiMeshMaker</title>
<g id="clust1" class="cluster">
<title>clusterdir_3d76d392fc864399b71d61d55d21af57</title>
<g id="a_clust1"><a xlink:href="dir_3d76d392fc864399b71d61d55d21af57.html" target="_top" xlink:title="include">
<polygon fill="#ddddee" stroke="black" points="8,-8 8,-239 222,-239 222,-8 8,-8"/>
<text text-anchor="middle" x="115" y="-227" font-family="Helvetica,sans-Serif" font-size="10.00">include</text>
</a>
</g>
</g>
<g id="clust2" class="cluster">
<title>clusterdir_a166c128cee399a6c56f1021b36b4e9a</title>
<g id="a_clust2"><a xlink:href="dir_a166c128cee399a6c56f1021b36b4e9a.html" target="_top">
<polygon fill="#eeeeff" stroke="black" points="16,-16 16,-212 214,-212 214,-16 16,-16"/>
</a>
</g>
</g>
<!-- dir_a166c128cee399a6c56f1021b36b4e9a -->
<g id="node1" class="node">
<title>dir_a166c128cee399a6c56f1021b36b4e9a</title>
<text text-anchor="middle" x="151" y="-183.5" font-family="Helvetica,sans-Serif" font-size="10.00">VoronoiMeshMaker</text>
</g>
<!-- dir_0795aa6079c9c5e4875381072dfaa60a -->
<g id="node2" class="node">
<title>dir_0795aa6079c9c5e4875381072dfaa60a</title>
<g id="a_node2"><a xlink:href="dir_0795aa6079c9c5e4875381072dfaa60a.html" target="_top" xlink:title="Error">
<polygon fill="white" stroke="black" points="170,-132 116,-132 116,-96 170,-96 170,-132"/>
<text text-anchor="middle" x="143" y="-111.5" font-family="Helvetica,sans-Serif" font-size="10.00">Error</text>
</a>
</g>
</g>
<!-- dir_76bf7ccb57fc843010ca00f87a33bb5d -->
<g id="node3" class="node">
<title>dir_76bf7ccb57fc843010ca00f87a33bb5d</title>
<g id="a_node3"><a xlink:href="dir_76bf7ccb57fc843010ca00f87a33bb5d.html" target="_top" xlink:title="Misc">
<polygon fill="white" stroke="black" points="129,-60 75,-60 75,-24 129,-24 129,-60"/>
<text text-anchor="middle" x="102" y="-39.5" font-family="Helvetica,sans-Serif" font-size="10.00">Misc</text>
</a>
</g>
</g>
<!-- dir_0795aa6079c9c5e4875381072dfaa60a&#45;&gt;dir_76bf7ccb57fc843010ca00f87a33bb5d -->
<g id="edge2" class="edge">
<title>dir_0795aa6079c9c5e4875381072dfaa60a&#45;&gt;dir_76bf7ccb57fc843010ca00f87a33bb5d</title>
<path fill="none" stroke="black" d="M132.87,-95.7C128.15,-87.64 122.44,-77.89 117.22,-68.98"/>
<polygon fill="black" stroke="black" points="120.09,-66.96 112.02,-60.1 114.05,-70.5 120.09,-66.96"/>
<g id="a_edge2&#45;headlabel"><a xlink:href="dir_000003_000004.html" target="_top" xlink:title="2">
<text text-anchor="middle" x="124.36" y="-66.13" font-family="Helvetica,sans-Serif" font-size="10.00">2</text>
</a>
</g>
</g>
<!-- dir_f876b286619456c93d57aaa692879dc8 -->
<g id="node4" class="node">
<title>dir_f876b286619456c93d57aaa692879dc8</title>
<g id="a_node4"><a xlink:href="dir_f876b286619456c93d57aaa692879dc8.html" target="_top" xlink:title="Parameters">
<polygon fill="white" stroke="black" points="97.5,-132 24.5,-132 24.5,-96 97.5,-96 97.5,-132"/>
<text text-anchor="middle" x="61" y="-111.5" font-family="Helvetica,sans-Serif" font-size="10.00">Parameters</text>
</a>
</g>
</g>
<!-- dir_f876b286619456c93d57aaa692879dc8&#45;&gt;dir_76bf7ccb57fc843010ca00f87a33bb5d -->
<g id="edge3" class="edge">
<title>dir_f876b286619456c93d57aaa692879dc8&#45;&gt;dir_76bf7ccb57fc843010ca00f87a33bb5d</title>
<path fill="none" stroke="black" d="M71.13,-95.7C75.85,-87.64 81.56,-77.89 86.78,-68.98"/>
<polygon fill="black" stroke="black" points="89.95,-70.5 91.98,-60.1 83.91,-66.96 89.95,-70.5"/>
<g id="a_edge3&#45;headlabel"><a xlink:href="dir_000005_000004.html" target="_top" xlink:title="1">
<text text-anchor="middle" x="90.58" y="-72.54" font-family="Helvetica,sans-Serif" font-size="10.00">1</text>
</a>
</g>
</g>
<!-- dir_86c97043b29e68d0dd6da0fd7dd9a604 -->
<g id="node5" class="node">
<title>dir_86c97043b29e68d0dd6da0fd7dd9a604</title>
<g id="a_node5"><a xlink:href="dir_86c97043b29e68d0dd6da0fd7dd9a604.html" target="_top" xlink:title="Shape">
<polygon fill="white" stroke="red" points="78,-204 24,-204 24,-168 78,-168 78,-204"/>
<text text-anchor="middle" x="51" y="-183.5" font-family="Helvetica,sans-Serif" font-size="10.00">Shape</text>
</a>
</g>
</g>
<!-- dir_86c97043b29e68d0dd6da0fd7dd9a604&#45;&gt;dir_f876b286619456c93d57aaa692879dc8 -->
<g id="edge1" class="edge">
<title>dir_86c97043b29e68d0dd6da0fd7dd9a604&#45;&gt;dir_f876b286619456c93d57aaa692879dc8</title>
<path fill="none" stroke="black" d="M53.47,-167.7C54.57,-159.98 55.9,-150.71 57.13,-142.11"/>
<polygon fill="black" stroke="black" points="60.61,-142.5 58.56,-132.1 53.68,-141.51 60.61,-142.5"/>
<g id="a_edge1&#45;headlabel"><a xlink:href="dir_000006_000005.html" target="_top" xlink:title="2">
<text text-anchor="middle" x="62.91" y="-143.96" font-family="Helvetica,sans-Serif" font-size="10.00">2</text>
</a>
</g>
</g>
</g>
</svg>
