<?xml version="1.0" encoding="UTF-8" standalone="no"?>
<!DOCTYPE svg PUBLIC "-//W3C//DTD SVG 1.1//EN"
 "http://www.w3.org/Graphics/SVG/1.1/DTD/svg11.dtd">
<!-- Generated by graphviz version 2.43.0 (0)
 -->
<!-- Title: VoronoiMeshMaker/src/VoronoiMeshMaker/Shape/Shape2D/Ellipse.cpp Pages: 1 -->
<svg width="957pt" height="463pt"
 viewBox="0.00 0.00 957.00 463.00" xmlns="http://www.w3.org/2000/svg" xmlns:xlink="http://www.w3.org/1999/xlink">
<g id="graph0" class="graph" transform="scale(1 1) rotate(0) translate(4 459)">
<title>VoronoiMeshMaker/src/VoronoiMeshMaker/Shape/Shape2D/Ellipse.cpp</title>
<!-- Node1 -->
<g id="node1" class="node">
<title>Node1</title>
<g id="a_node1"><a xlink:title=" ">
<polygon fill="#bfbfbf" stroke="black" points="160,-413.5 160,-454.5 306,-454.5 306,-413.5 160,-413.5"/>
<text text-anchor="start" x="168" y="-442.5" font-family="Helvetica,sans-Serif" font-size="10.00">VoronoiMeshMaker/src</text>
<text text-anchor="start" x="168" y="-431.5" font-family="Helvetica,sans-Serif" font-size="10.00">/VoronoiMeshMaker/Shape</text>
<text text-anchor="middle" x="233" y="-420.5" font-family="Helvetica,sans-Serif" font-size="10.00">/Shape2D/Ellipse.cpp</text>
</a>
</g>
</g>
<!-- Node2 -->
<g id="node2" class="node">
<title>Node2</title>
<g id="a_node2"><a xlink:title=" ">
<polygon fill="none" stroke="#bfbfbf" points="0,-352 0,-371 60,-371 60,-352 0,-352"/>
<text text-anchor="middle" x="30" y="-359" font-family="Helvetica,sans-Serif" font-size="10.00">iostream</text>
</a>
</g>
</g>
<!-- Node1&#45;&gt;Node2 -->
<g id="edge1" class="edge">
<title>Node1&#45;&gt;Node2</title>
<path fill="none" stroke="midnightblue" d="M174.42,-413.42C143.08,-402.84 103.86,-389.43 69,-377 66.76,-376.2 64.45,-375.37 62.13,-374.52"/>
<polygon fill="midnightblue" stroke="midnightblue" points="63.24,-371.2 52.65,-371.04 60.83,-377.77 63.24,-371.2"/>
</g>
<!-- Node3 -->
<g id="node3" class="node">
<title>Node3</title>
<g id="a_node3"><a xlink:title=" ">
<polygon fill="none" stroke="#bfbfbf" points="78.5,-352 78.5,-371 143.5,-371 143.5,-352 78.5,-352"/>
<text text-anchor="middle" x="111" y="-359" font-family="Helvetica,sans-Serif" font-size="10.00">execution</text>
</a>
</g>
</g>
<!-- Node1&#45;&gt;Node3 -->
<g id="edge2" class="edge">
<title>Node1&#45;&gt;Node3</title>
<path fill="none" stroke="midnightblue" d="M199.02,-413.36C178.6,-401.57 153.13,-386.85 134.85,-376.28"/>
<polygon fill="midnightblue" stroke="midnightblue" points="136.42,-373.15 126.01,-371.17 132.92,-379.21 136.42,-373.15"/>
</g>
<!-- Node4 -->
<g id="node4" class="node">
<title>Node4</title>
<g id="a_node4"><a xlink:href="Ellipse_8h.html" target="_top" xlink:title=" ">
<polygon fill="none" stroke="black" points="161.5,-346.5 161.5,-376.5 304.5,-376.5 304.5,-346.5 161.5,-346.5"/>
<text text-anchor="start" x="169.5" y="-364.5" font-family="Helvetica,sans-Serif" font-size="10.00">VoronoiMeshMaker/Shape</text>
<text text-anchor="middle" x="233" y="-353.5" font-family="Helvetica,sans-Serif" font-size="10.00">/Shape2D/Ellipse.h</text>
</a>
</g>
</g>
<!-- Node1&#45;&gt;Node4 -->
<g id="edge3" class="edge">
<title>Node1&#45;&gt;Node4</title>
<path fill="none" stroke="midnightblue" d="M233,-413.36C233,-405.23 233,-395.7 233,-387.11"/>
<polygon fill="midnightblue" stroke="midnightblue" points="236.5,-386.89 233,-376.89 229.5,-386.89 236.5,-386.89"/>
</g>
<!-- Node21 -->
<g id="node21" class="node">
<title>Node21</title>
<g id="a_node21"><a xlink:href="MakerException_8h.html" target="_top" xlink:title=" ">
<polygon fill="none" stroke="black" points="495.5,-279.5 495.5,-309.5 632.5,-309.5 632.5,-279.5 495.5,-279.5"/>
<text text-anchor="start" x="503.5" y="-297.5" font-family="Helvetica,sans-Serif" font-size="10.00">VoronoiMeshMaker/Error</text>
<text text-anchor="middle" x="564" y="-286.5" font-family="Helvetica,sans-Serif" font-size="10.00">/MakerException.h</text>
</a>
</g>
</g>
<!-- Node1&#45;&gt;Node21 -->
<g id="edge20" class="edge">
<title>Node1&#45;&gt;Node21</title>
<path fill="none" stroke="midnightblue" d="M280.07,-413.45C344.28,-386.77 458.44,-339.35 520.65,-313.51"/>
<polygon fill="midnightblue" stroke="midnightblue" points="522.28,-316.62 530.17,-309.55 519.59,-310.16 522.28,-316.62"/>
</g>
<!-- Node29 -->
<g id="node29" class="node">
<title>Node29</title>
<g id="a_node29"><a xlink:href="ShapeFactory_8h.html" target="_top" xlink:title=" ">
<polygon fill="none" stroke="black" points="261.5,-279.5 261.5,-309.5 404.5,-309.5 404.5,-279.5 261.5,-279.5"/>
<text text-anchor="start" x="269.5" y="-297.5" font-family="Helvetica,sans-Serif" font-size="10.00">VoronoiMeshMaker/Shape</text>
<text text-anchor="middle" x="333" y="-286.5" font-family="Helvetica,sans-Serif" font-size="10.00">/ShapeFactory.h</text>
</a>
</g>
</g>
<!-- Node1&#45;&gt;Node29 -->
<g id="edge31" class="edge">
<title>Node1&#45;&gt;Node29</title>
<path fill="none" stroke="midnightblue" d="M273.34,-413.28C288.17,-404.16 303.81,-391.98 314,-377 325.46,-360.15 330.07,-337.3 331.89,-320.08"/>
<polygon fill="midnightblue" stroke="midnightblue" points="335.41,-319.94 332.73,-309.69 328.44,-319.38 335.41,-319.94"/>
</g>
<!-- Node5 -->
<g id="node5" class="node">
<title>Node5</title>
<g id="a_node5"><a xlink:href="Shape2D_8h.html" target="_top" xlink:title="Defines the Shape2D class, which represents 2D geometric shapes.">
<polygon fill="none" stroke="black" points="100.5,-279.5 100.5,-309.5 243.5,-309.5 243.5,-279.5 100.5,-279.5"/>
<text text-anchor="start" x="108.5" y="-297.5" font-family="Helvetica,sans-Serif" font-size="10.00">VoronoiMeshMaker/Shape</text>
<text text-anchor="middle" x="172" y="-286.5" font-family="Helvetica,sans-Serif" font-size="10.00">/Shape2D/Shape2D.h</text>
</a>
</g>
</g>
<!-- Node4&#45;&gt;Node5 -->
<g id="edge4" class="edge">
<title>Node4&#45;&gt;Node5</title>
<path fill="none" stroke="midnightblue" d="M219.76,-346.4C211.69,-337.79 201.21,-326.63 192.13,-316.94"/>
<polygon fill="midnightblue" stroke="midnightblue" points="194.61,-314.47 185.21,-309.58 189.5,-319.26 194.61,-314.47"/>
</g>
<!-- Node6 -->
<g id="node6" class="node">
<title>Node6</title>
<g id="a_node6"><a xlink:href="Shape_8h.html" target="_top" xlink:title="Defines the Shape class, which serves as the abstract base class for all shapes.">
<polygon fill="none" stroke="black" points="118.5,-212.5 118.5,-242.5 261.5,-242.5 261.5,-212.5 118.5,-212.5"/>
<text text-anchor="start" x="126.5" y="-230.5" font-family="Helvetica,sans-Serif" font-size="10.00">VoronoiMeshMaker/Shape</text>
<text text-anchor="middle" x="190" y="-219.5" font-family="Helvetica,sans-Serif" font-size="10.00">/Shape.h</text>
</a>
</g>
</g>
<!-- Node5&#45;&gt;Node6 -->
<g id="edge5" class="edge">
<title>Node5&#45;&gt;Node6</title>
<path fill="none" stroke="midnightblue" d="M175.91,-279.4C178.1,-271.47 180.9,-261.38 183.42,-252.27"/>
<polygon fill="midnightblue" stroke="midnightblue" points="186.81,-253.15 186.1,-242.58 180.06,-251.28 186.81,-253.15"/>
</g>
<!-- Node7 -->
<g id="node7" class="node">
<title>Node7</title>
<g id="a_node7"><a xlink:title=" ">
<polygon fill="none" stroke="#bfbfbf" points="50,-151 50,-170 208,-170 208,-151 50,-151"/>
<text text-anchor="middle" x="129" y="-158" font-family="Helvetica,sans-Serif" font-size="10.00">VoronoiMeshMaker/Misc/ID.h</text>
</a>
</g>
</g>
<!-- Node6&#45;&gt;Node7 -->
<g id="edge6" class="edge">
<title>Node6&#45;&gt;Node7</title>
<path fill="none" stroke="midnightblue" d="M176.76,-212.4C167.16,-202.16 154.15,-188.3 144.13,-177.62"/>
<polygon fill="midnightblue" stroke="midnightblue" points="146.55,-175.09 137.16,-170.19 141.45,-179.88 146.55,-175.09"/>
</g>
<!-- Node8 -->
<g id="node8" class="node">
<title>Node8</title>
<g id="a_node8"><a xlink:href="GeometricDataHolder_8h.html" target="_top" xlink:title=" ">
<polygon fill="none" stroke="black" points="226,-145.5 226,-175.5 396,-175.5 396,-145.5 226,-145.5"/>
<text text-anchor="start" x="234" y="-163.5" font-family="Helvetica,sans-Serif" font-size="10.00">VoronoiMeshMaker/Parameters</text>
<text text-anchor="middle" x="311" y="-152.5" font-family="Helvetica,sans-Serif" font-size="10.00">/GeometricDataHolder.h</text>
</a>
</g>
</g>
<!-- Node6&#45;&gt;Node8 -->
<g id="edge7" class="edge">
<title>Node6&#45;&gt;Node8</title>
<path fill="none" stroke="midnightblue" d="M216.26,-212.4C233.7,-203.03 256.8,-190.62 275.83,-180.39"/>
<polygon fill="midnightblue" stroke="midnightblue" points="277.64,-183.39 284.8,-175.58 274.33,-177.23 277.64,-183.39"/>
</g>
<!-- Node9 -->
<g id="node9" class="node">
<title>Node9</title>
<g id="a_node9"><a xlink:title=" ">
<polygon fill="none" stroke="#bfbfbf" points="344,-84 344,-103 382,-103 382,-84 344,-84"/>
<text text-anchor="middle" x="363" y="-91" font-family="Helvetica,sans-Serif" font-size="10.00">map</text>
</a>
</g>
</g>
<!-- Node8&#45;&gt;Node9 -->
<g id="edge8" class="edge">
<title>Node8&#45;&gt;Node9</title>
<path fill="none" stroke="midnightblue" d="M322.28,-145.4C330.31,-135.36 341.13,-121.84 349.6,-111.25"/>
<polygon fill="midnightblue" stroke="midnightblue" points="352.53,-113.19 356.04,-103.19 347.06,-108.82 352.53,-113.19"/>
</g>
<!-- Node10 -->
<g id="node10" class="node">
<title>Node10</title>
<g id="a_node10"><a xlink:title=" ">
<polygon fill="none" stroke="#bfbfbf" points="86.5,-84 86.5,-103 137.5,-103 137.5,-84 86.5,-84"/>
<text text-anchor="middle" x="112" y="-91" font-family="Helvetica,sans-Serif" font-size="10.00">variant</text>
</a>
</g>
</g>
<!-- Node8&#45;&gt;Node10 -->
<g id="edge9" class="edge">
<title>Node8&#45;&gt;Node10</title>
<path fill="none" stroke="midnightblue" d="M261.08,-145.45C228.38,-135.93 184.84,-122.63 147,-109 145.14,-108.33 143.24,-107.62 141.33,-106.89"/>
<polygon fill="midnightblue" stroke="midnightblue" points="142.45,-103.56 131.86,-103.11 139.85,-110.07 142.45,-103.56"/>
</g>
<!-- Node11 -->
<g id="node11" class="node">
<title>Node11</title>
<g id="a_node11"><a xlink:title=" ">
<polygon fill="none" stroke="#bfbfbf" points="554.5,-84 554.5,-103 627.5,-103 627.5,-84 554.5,-84"/>
<text text-anchor="middle" x="591" y="-91" font-family="Helvetica,sans-Serif" font-size="10.00">string_view</text>
</a>
</g>
</g>
<!-- Node8&#45;&gt;Node11 -->
<g id="edge10" class="edge">
<title>Node8&#45;&gt;Node11</title>
<path fill="none" stroke="midnightblue" d="M384.41,-145.48C430.72,-136.18 491.67,-123.13 545,-109 548.42,-108.09 551.97,-107.09 555.51,-106.05"/>
<polygon fill="midnightblue" stroke="midnightblue" points="556.79,-109.32 565.33,-103.05 554.75,-102.62 556.79,-109.32"/>
</g>
<!-- Node12 -->
<g id="node12" class="node">
<title>Node12</title>
<g id="a_node12"><a xlink:href="type_8h.html" target="_top" xlink:title="Defines common geometric and numeric types used in the VoronoiMeshMaker library.">
<polygon fill="none" stroke="black" points="400,-78.5 400,-108.5 536,-108.5 536,-78.5 400,-78.5"/>
<text text-anchor="start" x="408" y="-96.5" font-family="Helvetica,sans-Serif" font-size="10.00">VoronoiMeshMaker/Misc</text>
<text text-anchor="middle" x="468" y="-85.5" font-family="Helvetica,sans-Serif" font-size="10.00">/type.h</text>
</a>
</g>
</g>
<!-- Node8&#45;&gt;Node12 -->
<g id="edge11" class="edge">
<title>Node8&#45;&gt;Node12</title>
<path fill="none" stroke="midnightblue" d="M345.07,-145.4C368.42,-135.73 399.59,-122.82 424.7,-112.43"/>
<polygon fill="midnightblue" stroke="midnightblue" points="426.1,-115.64 434,-108.58 423.42,-109.17 426.1,-115.64"/>
</g>
<!-- Node20 -->
<g id="node20" class="node">
<title>Node20</title>
<g id="a_node20"><a xlink:href="GeometricDataHolder_8tpp.html" target="_top" xlink:title=" ">
<polygon fill="none" stroke="black" points="156,-78.5 156,-108.5 326,-108.5 326,-78.5 156,-78.5"/>
<text text-anchor="start" x="164" y="-96.5" font-family="Helvetica,sans-Serif" font-size="10.00">VoronoiMeshMaker/Parameters</text>
<text text-anchor="middle" x="241" y="-85.5" font-family="Helvetica,sans-Serif" font-size="10.00">/GeometricDataHolder.tpp</text>
</a>
</g>
</g>
<!-- Node8&#45;&gt;Node20 -->
<g id="edge19" class="edge">
<title>Node8&#45;&gt;Node20</title>
<path fill="none" stroke="midnightblue" d="M295.81,-145.4C286.45,-136.71 274.28,-125.4 263.79,-115.66"/>
<polygon fill="midnightblue" stroke="midnightblue" points="265.87,-112.82 256.16,-108.58 261.11,-117.95 265.87,-112.82"/>
</g>
<!-- Node13 -->
<g id="node13" class="node">
<title>Node13</title>
<g id="a_node13"><a xlink:title=" ">
<polygon fill="none" stroke="#bfbfbf" points="212,-11.5 212,-30.5 244,-30.5 244,-11.5 212,-11.5"/>
<text text-anchor="middle" x="228" y="-18.5" font-family="Helvetica,sans-Serif" font-size="10.00">list</text>
</a>
</g>
</g>
<!-- Node12&#45;&gt;Node13 -->
<g id="edge12" class="edge">
<title>Node12&#45;&gt;Node13</title>
<path fill="none" stroke="midnightblue" d="M401.65,-78.46C343.59,-65.92 266.47,-48.55 253,-42 250.28,-40.68 247.59,-39.02 245.04,-37.22"/>
<polygon fill="midnightblue" stroke="midnightblue" points="247.06,-34.35 237.05,-30.87 242.7,-39.83 247.06,-34.35"/>
</g>
<!-- Node14 -->
<g id="node14" class="node">
<title>Node14</title>
<g id="a_node14"><a xlink:title=" ">
<polygon fill="none" stroke="#bfbfbf" points="262,-11.5 262,-30.5 320,-30.5 320,-11.5 262,-11.5"/>
<text text-anchor="middle" x="291" y="-18.5" font-family="Helvetica,sans-Serif" font-size="10.00">memory</text>
</a>
</g>
</g>
<!-- Node12&#45;&gt;Node14 -->
<g id="edge13" class="edge">
<title>Node12&#45;&gt;Node14</title>
<path fill="none" stroke="midnightblue" d="M425.5,-78.46C397.93,-68.99 361.44,-55.75 330,-42 325.36,-39.97 320.5,-37.65 315.85,-35.32"/>
<polygon fill="midnightblue" stroke="midnightblue" points="317.22,-32.09 306.73,-30.62 314.02,-38.31 317.22,-32.09"/>
</g>
<!-- Node15 -->
<g id="node15" class="node">
<title>Node15</title>
<g id="a_node15"><a xlink:title=" ">
<polygon fill="none" stroke="#bfbfbf" points="338.5,-11.5 338.5,-30.5 385.5,-30.5 385.5,-11.5 338.5,-11.5"/>
<text text-anchor="middle" x="362" y="-18.5" font-family="Helvetica,sans-Serif" font-size="10.00">vector</text>
</a>
</g>
</g>
<!-- Node12&#45;&gt;Node15 -->
<g id="edge14" class="edge">
<title>Node12&#45;&gt;Node15</title>
<path fill="none" stroke="midnightblue" d="M446.8,-78.4C428.32,-66.11 401.65,-48.37 383.17,-36.08"/>
<polygon fill="midnightblue" stroke="midnightblue" points="385.1,-33.16 374.83,-30.53 381.22,-38.99 385.1,-33.16"/>
</g>
<!-- Node16 -->
<g id="node16" class="node">
<title>Node16</title>
<g id="a_node16"><a xlink:title=" ">
<polygon fill="none" stroke="#bfbfbf" points="403.5,-0.5 403.5,-41.5 532.5,-41.5 532.5,-0.5 403.5,-0.5"/>
<text text-anchor="start" x="411.5" y="-29.5" font-family="Helvetica,sans-Serif" font-size="10.00">CGAL/Exact_predicates</text>
<text text-anchor="start" x="411.5" y="-18.5" font-family="Helvetica,sans-Serif" font-size="10.00">_inexact_constructions</text>
<text text-anchor="middle" x="468" y="-7.5" font-family="Helvetica,sans-Serif" font-size="10.00">_kernel.h</text>
</a>
</g>
</g>
<!-- Node12&#45;&gt;Node16 -->
<g id="edge15" class="edge">
<title>Node12&#45;&gt;Node16</title>
<path fill="none" stroke="midnightblue" d="M468,-78.23C468,-70.57 468,-60.84 468,-51.63"/>
<polygon fill="midnightblue" stroke="midnightblue" points="471.5,-51.59 468,-41.59 464.5,-51.59 471.5,-51.59"/>
</g>
<!-- Node17 -->
<g id="node17" class="node">
<title>Node17</title>
<g id="a_node17"><a xlink:title=" ">
<polygon fill="none" stroke="#bfbfbf" points="550.5,-11.5 550.5,-30.5 655.5,-30.5 655.5,-11.5 550.5,-11.5"/>
<text text-anchor="middle" x="603" y="-18.5" font-family="Helvetica,sans-Serif" font-size="10.00">CGAL/Polygon_2.h</text>
</a>
</g>
</g>
<!-- Node12&#45;&gt;Node17 -->
<g id="edge16" class="edge">
<title>Node12&#45;&gt;Node17</title>
<path fill="none" stroke="midnightblue" d="M494.99,-78.4C519.07,-65.83 554.06,-47.56 577.63,-35.25"/>
<polygon fill="midnightblue" stroke="midnightblue" points="579.42,-38.27 586.66,-30.53 576.17,-32.06 579.42,-38.27"/>
</g>
<!-- Node18 -->
<g id="node18" class="node">
<title>Node18</title>
<g id="a_node18"><a xlink:title=" ">
<polygon fill="none" stroke="#bfbfbf" points="673.5,-11.5 673.5,-30.5 794.5,-30.5 794.5,-11.5 673.5,-11.5"/>
<text text-anchor="middle" x="734" y="-18.5" font-family="Helvetica,sans-Serif" font-size="10.00">CGAL/Polyhedron_3.h</text>
</a>
</g>
</g>
<!-- Node12&#45;&gt;Node18 -->
<g id="edge17" class="edge">
<title>Node12&#45;&gt;Node18</title>
<path fill="none" stroke="midnightblue" d="M524.59,-78.49C564.03,-68.6 617.83,-54.88 665,-42 674.93,-39.29 685.62,-36.25 695.56,-33.37"/>
<polygon fill="midnightblue" stroke="midnightblue" points="696.56,-36.73 705.18,-30.57 694.61,-30 696.56,-36.73"/>
</g>
<!-- Node19 -->
<g id="node19" class="node">
<title>Node19</title>
<g id="a_node19"><a xlink:href="namespace_8h.html" target="_top" xlink:title=" ">
<polygon fill="none" stroke="black" points="813,-6 813,-36 949,-36 949,-6 813,-6"/>
<text text-anchor="start" x="821" y="-24" font-family="Helvetica,sans-Serif" font-size="10.00">VoronoiMeshMaker/Misc</text>
<text text-anchor="middle" x="881" y="-13" font-family="Helvetica,sans-Serif" font-size="10.00">/namespace.h</text>
</a>
</g>
</g>
<!-- Node12&#45;&gt;Node19 -->
<g id="edge18" class="edge">
<title>Node12&#45;&gt;Node19</title>
<path fill="none" stroke="midnightblue" d="M536.03,-79.67C539.4,-79.09 542.74,-78.53 546,-78 660.28,-59.42 690.45,-64.59 804,-42 809.33,-40.94 814.85,-39.73 820.36,-38.45"/>
<polygon fill="midnightblue" stroke="midnightblue" points="821.34,-41.81 830.25,-36.07 819.7,-35 821.34,-41.81"/>
</g>
<!-- Node22 -->
<g id="node22" class="node">
<title>Node22</title>
<g id="a_node22"><a xlink:title=" ">
<polygon fill="none" stroke="#bfbfbf" points="744,-218 744,-237 788,-237 788,-218 744,-218"/>
<text text-anchor="middle" x="766" y="-225" font-family="Helvetica,sans-Serif" font-size="10.00">string</text>
</a>
</g>
</g>
<!-- Node21&#45;&gt;Node22 -->
<g id="edge21" class="edge">
<title>Node21&#45;&gt;Node22</title>
<path fill="none" stroke="midnightblue" d="M619.37,-279.42C653.19,-270.26 697.08,-257.37 735,-243 736.42,-242.46 737.87,-241.88 739.33,-241.28"/>
<polygon fill="midnightblue" stroke="midnightblue" points="741.08,-244.33 748.82,-237.1 738.26,-237.93 741.08,-244.33"/>
</g>
<!-- Node23 -->
<g id="node23" class="node">
<title>Node23</title>
<g id="a_node23"><a xlink:title=" ">
<polygon fill="none" stroke="#bfbfbf" points="806.5,-218 806.5,-237 871.5,-237 871.5,-218 806.5,-218"/>
<text text-anchor="middle" x="839" y="-225" font-family="Helvetica,sans-Serif" font-size="10.00">exception</text>
</a>
</g>
</g>
<!-- Node21&#45;&gt;Node23 -->
<g id="edge22" class="edge">
<title>Node21&#45;&gt;Node23</title>
<path fill="none" stroke="midnightblue" d="M632.58,-280.87C679.27,-271.72 742.29,-258.31 797,-243 799.95,-242.17 803,-241.26 806.04,-240.29"/>
<polygon fill="midnightblue" stroke="midnightblue" points="807.21,-243.59 815.61,-237.13 805.02,-236.94 807.21,-243.59"/>
</g>
<!-- Node24 -->
<g id="node24" class="node">
<title>Node24</title>
<g id="a_node24"><a xlink:title=" ">
<polygon fill="none" stroke="#bfbfbf" points="339.5,-218 339.5,-237 396.5,-237 396.5,-218 339.5,-218"/>
<text text-anchor="middle" x="368" y="-225" font-family="Helvetica,sans-Serif" font-size="10.00">ostream</text>
</a>
</g>
</g>
<!-- Node21&#45;&gt;Node24 -->
<g id="edge23" class="edge">
<title>Node21&#45;&gt;Node24</title>
<path fill="none" stroke="midnightblue" d="M517.8,-279.47C486.18,-269.69 443.37,-256.09 406,-243 403.89,-242.26 401.72,-241.48 399.53,-240.68"/>
<polygon fill="midnightblue" stroke="midnightblue" points="400.62,-237.35 390.03,-237.14 398.18,-243.91 400.62,-237.35"/>
</g>
<!-- Node25 -->
<g id="node25" class="node">
<title>Node25</title>
<g id="a_node25"><a xlink:href="id_8h.html" target="_top" xlink:title=" ">
<polygon fill="none" stroke="black" points="414.5,-218 414.5,-237 571.5,-237 571.5,-218 414.5,-218"/>
<text text-anchor="middle" x="493" y="-225" font-family="Helvetica,sans-Serif" font-size="10.00">VoronoiMeshMaker/Misc/id.h</text>
</a>
</g>
</g>
<!-- Node21&#45;&gt;Node25 -->
<g id="edge24" class="edge">
<title>Node21&#45;&gt;Node25</title>
<path fill="none" stroke="midnightblue" d="M548.59,-279.4C537.19,-268.96 521.67,-254.75 509.93,-244"/>
<polygon fill="midnightblue" stroke="midnightblue" points="512.24,-241.37 502.5,-237.19 507.51,-246.53 512.24,-241.37"/>
</g>
<!-- Node27 -->
<g id="node27" class="node">
<title>Node27</title>
<g id="a_node27"><a xlink:href="sourceinfo_8h.html" target="_top" xlink:title="Provides information about the source of an error or event in a function.">
<polygon fill="none" stroke="black" points="590,-212.5 590,-242.5 726,-242.5 726,-212.5 590,-212.5"/>
<text text-anchor="start" x="598" y="-230.5" font-family="Helvetica,sans-Serif" font-size="10.00">VoronoiMeshMaker/Misc</text>
<text text-anchor="middle" x="658" y="-219.5" font-family="Helvetica,sans-Serif" font-size="10.00">/sourceinfo.h</text>
</a>
</g>
</g>
<!-- Node21&#45;&gt;Node27 -->
<g id="edge28" class="edge">
<title>Node21&#45;&gt;Node27</title>
<path fill="none" stroke="midnightblue" d="M584.4,-279.4C597.45,-270.37 614.6,-258.51 629.05,-248.52"/>
<polygon fill="midnightblue" stroke="midnightblue" points="631.41,-251.14 637.64,-242.58 627.43,-245.39 631.41,-251.14"/>
</g>
<!-- Node25&#45;&gt;Node11 -->
<g id="edge25" class="edge">
<title>Node25&#45;&gt;Node11</title>
<path fill="none" stroke="midnightblue" d="M508.58,-217.97C523.35,-209.17 545.28,-194.2 559,-176 573.34,-156.98 582.11,-130.71 586.76,-113.2"/>
<polygon fill="midnightblue" stroke="midnightblue" points="590.25,-113.66 589.24,-103.11 583.45,-111.99 590.25,-113.66"/>
</g>
<!-- Node26 -->
<g id="node26" class="node">
<title>Node26</title>
<g id="a_node26"><a xlink:href="configure_8h.html" target="_top" xlink:title="Defines common constants used across the VoronoiMeshMaker library.">
<polygon fill="none" stroke="black" points="414,-145.5 414,-175.5 550,-175.5 550,-145.5 414,-145.5"/>
<text text-anchor="start" x="422" y="-163.5" font-family="Helvetica,sans-Serif" font-size="10.00">VoronoiMeshMaker/Misc</text>
<text text-anchor="middle" x="482" y="-152.5" font-family="Helvetica,sans-Serif" font-size="10.00">/configure.h</text>
</a>
</g>
</g>
<!-- Node25&#45;&gt;Node26 -->
<g id="edge26" class="edge">
<title>Node25&#45;&gt;Node26</title>
<path fill="none" stroke="midnightblue" d="M491.52,-217.73C490.13,-209.54 487.99,-196.92 486.1,-185.71"/>
<polygon fill="midnightblue" stroke="midnightblue" points="489.5,-184.86 484.38,-175.59 482.6,-186.03 489.5,-184.86"/>
</g>
<!-- Node26&#45;&gt;Node12 -->
<g id="edge27" class="edge">
<title>Node26&#45;&gt;Node12</title>
<path fill="none" stroke="midnightblue" d="M478.96,-145.4C477.27,-137.56 475.13,-127.6 473.18,-118.57"/>
<polygon fill="midnightblue" stroke="midnightblue" points="476.56,-117.62 471.03,-108.58 469.72,-119.09 476.56,-117.62"/>
</g>
<!-- Node27&#45;&gt;Node11 -->
<g id="edge29" class="edge">
<title>Node27&#45;&gt;Node11</title>
<path fill="none" stroke="midnightblue" d="M650.83,-212.37C638.55,-188.18 613.52,-138.88 600.06,-112.35"/>
<polygon fill="midnightblue" stroke="midnightblue" points="603.01,-110.43 595.36,-103.1 596.77,-113.6 603.01,-110.43"/>
</g>
<!-- Node28 -->
<g id="node28" class="node">
<title>Node28</title>
<g id="a_node28"><a xlink:title=" ">
<polygon fill="none" stroke="#bfbfbf" points="644,-145.5 644,-175.5 780,-175.5 780,-145.5 644,-145.5"/>
<text text-anchor="start" x="652" y="-163.5" font-family="Helvetica,sans-Serif" font-size="10.00">VoronoiMeshMaker/Misc</text>
<text text-anchor="middle" x="712" y="-152.5" font-family="Helvetica,sans-Serif" font-size="10.00">/Misc.h</text>
</a>
</g>
</g>
<!-- Node27&#45;&gt;Node28 -->
<g id="edge30" class="edge">
<title>Node27&#45;&gt;Node28</title>
<path fill="none" stroke="midnightblue" d="M669.72,-212.4C676.72,-203.96 685.77,-193.07 693.71,-183.52"/>
<polygon fill="midnightblue" stroke="midnightblue" points="696.61,-185.51 700.31,-175.58 691.22,-181.03 696.61,-185.51"/>
</g>
<!-- Node29&#45;&gt;Node6 -->
<g id="edge32" class="edge">
<title>Node29&#45;&gt;Node6</title>
<path fill="none" stroke="midnightblue" d="M301.97,-279.4C280.98,-269.86 253.06,-257.16 230.35,-246.84"/>
<polygon fill="midnightblue" stroke="midnightblue" points="231.52,-243.53 220.97,-242.58 228.62,-249.9 231.52,-243.53"/>
</g>
<!-- Node29&#45;&gt;Node8 -->
<g id="edge33" class="edge">
<title>Node29&#45;&gt;Node8</title>
<path fill="none" stroke="midnightblue" d="M330.65,-279.37C326.91,-256.94 319.57,-212.92 315,-185.49"/>
<polygon fill="midnightblue" stroke="midnightblue" points="318.43,-184.81 313.34,-175.52 311.53,-185.96 318.43,-184.81"/>
</g>
</g>
</svg>
