<?xml version="1.0" encoding="UTF-8" standalone="no"?>
<!DOCTYPE svg PUBLIC "-//W3C//DTD SVG 1.1//EN"
 "http://www.w3.org/Graphics/SVG/1.1/DTD/svg11.dtd">
<!-- Generated by graphviz version 2.43.0 (0)
 -->
<!-- Title: VoronoiMeshMaker/include/VoronoiMeshMaker/Parameters/GeometricDataHolder.h Pages: 1 -->
<svg width="774pt" height="195pt"
 viewBox="0.00 0.00 774.00 195.00" xmlns="http://www.w3.org/2000/svg" xmlns:xlink="http://www.w3.org/1999/xlink">
<g id="graph0" class="graph" transform="scale(1 1) rotate(0) translate(4 191)">
<title>VoronoiMeshMaker/include/VoronoiMeshMaker/Parameters/GeometricDataHolder.h</title>
<!-- Node1 -->
<g id="node1" class="node">
<title>Node1</title>
<g id="a_node1"><a xlink:title=" ">
<polygon fill="#bfbfbf" stroke="black" points="75.5,-145.5 75.5,-186.5 248.5,-186.5 248.5,-145.5 75.5,-145.5"/>
<text text-anchor="start" x="83.5" y="-174.5" font-family="Helvetica,sans-Serif" font-size="10.00">VoronoiMeshMaker/include</text>
<text text-anchor="start" x="83.5" y="-163.5" font-family="Helvetica,sans-Serif" font-size="10.00">/VoronoiMeshMaker/Parameters</text>
<text text-anchor="middle" x="162" y="-152.5" font-family="Helvetica,sans-Serif" font-size="10.00">/GeometricDataHolder.h</text>
</a>
</g>
</g>
<!-- Node2 -->
<g id="node2" class="node">
<title>Node2</title>
<g id="a_node2"><a xlink:title=" ">
<polygon fill="none" stroke="#bfbfbf" points="0,-84 0,-103 38,-103 38,-84 0,-84"/>
<text text-anchor="middle" x="19" y="-91" font-family="Helvetica,sans-Serif" font-size="10.00">map</text>
</a>
</g>
</g>
<!-- Node1&#45;&gt;Node2 -->
<g id="edge1" class="edge">
<title>Node1&#45;&gt;Node2</title>
<path fill="none" stroke="midnightblue" d="M121.16,-145.42C99.13,-134.78 71.51,-121.31 47,-109 46.17,-108.58 45.32,-108.15 44.46,-107.72"/>
<polygon fill="midnightblue" stroke="midnightblue" points="45.75,-104.45 35.25,-103 42.56,-110.68 45.75,-104.45"/>
</g>
<!-- Node3 -->
<g id="node3" class="node">
<title>Node3</title>
<g id="a_node3"><a xlink:title=" ">
<polygon fill="none" stroke="#bfbfbf" points="56.5,-84 56.5,-103 107.5,-103 107.5,-84 56.5,-84"/>
<text text-anchor="middle" x="82" y="-91" font-family="Helvetica,sans-Serif" font-size="10.00">variant</text>
</a>
</g>
</g>
<!-- Node1&#45;&gt;Node3 -->
<g id="edge2" class="edge">
<title>Node1&#45;&gt;Node3</title>
<path fill="none" stroke="midnightblue" d="M139.72,-145.36C127.07,-134.21 111.46,-120.46 99.66,-110.06"/>
<polygon fill="midnightblue" stroke="midnightblue" points="101.66,-107.16 91.84,-103.17 97.03,-112.41 101.66,-107.16"/>
</g>
<!-- Node4 -->
<g id="node4" class="node">
<title>Node4</title>
<g id="a_node4"><a xlink:title=" ">
<polygon fill="none" stroke="#bfbfbf" points="125.5,-84 125.5,-103 198.5,-103 198.5,-84 125.5,-84"/>
<text text-anchor="middle" x="162" y="-91" font-family="Helvetica,sans-Serif" font-size="10.00">string_view</text>
</a>
</g>
</g>
<!-- Node1&#45;&gt;Node4 -->
<g id="edge3" class="edge">
<title>Node1&#45;&gt;Node4</title>
<path fill="none" stroke="midnightblue" d="M162,-145.36C162,-135.3 162,-123.1 162,-113.18"/>
<polygon fill="midnightblue" stroke="midnightblue" points="165.5,-113.17 162,-103.17 158.5,-113.17 165.5,-113.17"/>
</g>
<!-- Node5 -->
<g id="node5" class="node">
<title>Node5</title>
<g id="a_node5"><a xlink:href="type_8h.html" target="_top" xlink:title="Defines common geometric and numeric types used in the VoronoiMeshMaker library.">
<polygon fill="none" stroke="black" points="217,-78.5 217,-108.5 353,-108.5 353,-78.5 217,-78.5"/>
<text text-anchor="start" x="225" y="-96.5" font-family="Helvetica,sans-Serif" font-size="10.00">VoronoiMeshMaker/Misc</text>
<text text-anchor="middle" x="285" y="-85.5" font-family="Helvetica,sans-Serif" font-size="10.00">/type.h</text>
</a>
</g>
</g>
<!-- Node1&#45;&gt;Node5 -->
<g id="edge4" class="edge">
<title>Node1&#45;&gt;Node5</title>
<path fill="none" stroke="midnightblue" d="M196.26,-145.36C213.42,-135.53 234.11,-123.67 251.2,-113.87"/>
<polygon fill="midnightblue" stroke="midnightblue" points="253.34,-116.68 260.28,-108.67 249.86,-110.61 253.34,-116.68"/>
</g>
<!-- Node13 -->
<g id="node13" class="node">
<title>Node13</title>
<g id="a_node13"><a xlink:href="GeometricDataHolder_8tpp.html" target="_top" xlink:title=" ">
<polygon fill="none" stroke="black" points="371,-78.5 371,-108.5 541,-108.5 541,-78.5 371,-78.5"/>
<text text-anchor="start" x="379" y="-96.5" font-family="Helvetica,sans-Serif" font-size="10.00">VoronoiMeshMaker/Parameters</text>
<text text-anchor="middle" x="456" y="-85.5" font-family="Helvetica,sans-Serif" font-size="10.00">/GeometricDataHolder.tpp</text>
</a>
</g>
</g>
<!-- Node1&#45;&gt;Node13 -->
<g id="edge12" class="edge">
<title>Node1&#45;&gt;Node13</title>
<path fill="none" stroke="midnightblue" d="M243.5,-145.46C288.75,-134.61 344.41,-121.26 387.41,-110.95"/>
<polygon fill="midnightblue" stroke="midnightblue" points="388.31,-114.33 397.21,-108.6 386.67,-107.53 388.31,-114.33"/>
</g>
<!-- Node6 -->
<g id="node6" class="node">
<title>Node6</title>
<g id="a_node6"><a xlink:title=" ">
<polygon fill="none" stroke="#bfbfbf" points="29,-11.5 29,-30.5 61,-30.5 61,-11.5 29,-11.5"/>
<text text-anchor="middle" x="45" y="-18.5" font-family="Helvetica,sans-Serif" font-size="10.00">list</text>
</a>
</g>
</g>
<!-- Node5&#45;&gt;Node6 -->
<g id="edge5" class="edge">
<title>Node5&#45;&gt;Node6</title>
<path fill="none" stroke="midnightblue" d="M216.91,-79.9C164.08,-69.5 95.64,-54.47 70,-42 67.28,-40.68 64.59,-39.02 62.04,-37.22"/>
<polygon fill="midnightblue" stroke="midnightblue" points="64.06,-34.35 54.05,-30.87 59.7,-39.83 64.06,-34.35"/>
</g>
<!-- Node7 -->
<g id="node7" class="node">
<title>Node7</title>
<g id="a_node7"><a xlink:title=" ">
<polygon fill="none" stroke="#bfbfbf" points="79,-11.5 79,-30.5 137,-30.5 137,-11.5 79,-11.5"/>
<text text-anchor="middle" x="108" y="-18.5" font-family="Helvetica,sans-Serif" font-size="10.00">memory</text>
</a>
</g>
</g>
<!-- Node5&#45;&gt;Node7 -->
<g id="edge6" class="edge">
<title>Node5&#45;&gt;Node7</title>
<path fill="none" stroke="midnightblue" d="M241.51,-78.4C213.8,-69 177.35,-55.87 146,-42 141.47,-39.99 136.72,-37.68 132.19,-35.36"/>
<polygon fill="midnightblue" stroke="midnightblue" points="133.77,-32.24 123.3,-30.66 130.5,-38.42 133.77,-32.24"/>
</g>
<!-- Node8 -->
<g id="node8" class="node">
<title>Node8</title>
<g id="a_node8"><a xlink:title=" ">
<polygon fill="none" stroke="#bfbfbf" points="155.5,-11.5 155.5,-30.5 202.5,-30.5 202.5,-11.5 155.5,-11.5"/>
<text text-anchor="middle" x="179" y="-18.5" font-family="Helvetica,sans-Serif" font-size="10.00">vector</text>
</a>
</g>
</g>
<!-- Node5&#45;&gt;Node8 -->
<g id="edge7" class="edge">
<title>Node5&#45;&gt;Node8</title>
<path fill="none" stroke="midnightblue" d="M263.8,-78.4C245.32,-66.11 218.65,-48.37 200.17,-36.08"/>
<polygon fill="midnightblue" stroke="midnightblue" points="202.1,-33.16 191.83,-30.53 198.22,-38.99 202.1,-33.16"/>
</g>
<!-- Node9 -->
<g id="node9" class="node">
<title>Node9</title>
<g id="a_node9"><a xlink:title=" ">
<polygon fill="none" stroke="#bfbfbf" points="220.5,-0.5 220.5,-41.5 349.5,-41.5 349.5,-0.5 220.5,-0.5"/>
<text text-anchor="start" x="228.5" y="-29.5" font-family="Helvetica,sans-Serif" font-size="10.00">CGAL/Exact_predicates</text>
<text text-anchor="start" x="228.5" y="-18.5" font-family="Helvetica,sans-Serif" font-size="10.00">_inexact_constructions</text>
<text text-anchor="middle" x="285" y="-7.5" font-family="Helvetica,sans-Serif" font-size="10.00">_kernel.h</text>
</a>
</g>
</g>
<!-- Node5&#45;&gt;Node9 -->
<g id="edge8" class="edge">
<title>Node5&#45;&gt;Node9</title>
<path fill="none" stroke="midnightblue" d="M285,-78.23C285,-70.57 285,-60.84 285,-51.63"/>
<polygon fill="midnightblue" stroke="midnightblue" points="288.5,-51.59 285,-41.59 281.5,-51.59 288.5,-51.59"/>
</g>
<!-- Node10 -->
<g id="node10" class="node">
<title>Node10</title>
<g id="a_node10"><a xlink:title=" ">
<polygon fill="none" stroke="#bfbfbf" points="367.5,-11.5 367.5,-30.5 472.5,-30.5 472.5,-11.5 367.5,-11.5"/>
<text text-anchor="middle" x="420" y="-18.5" font-family="Helvetica,sans-Serif" font-size="10.00">CGAL/Polygon_2.h</text>
</a>
</g>
</g>
<!-- Node5&#45;&gt;Node10 -->
<g id="edge9" class="edge">
<title>Node5&#45;&gt;Node10</title>
<path fill="none" stroke="midnightblue" d="M311.99,-78.4C336.07,-65.83 371.06,-47.56 394.63,-35.25"/>
<polygon fill="midnightblue" stroke="midnightblue" points="396.42,-38.27 403.66,-30.53 393.17,-32.06 396.42,-38.27"/>
</g>
<!-- Node11 -->
<g id="node11" class="node">
<title>Node11</title>
<g id="a_node11"><a xlink:title=" ">
<polygon fill="none" stroke="#bfbfbf" points="490.5,-11.5 490.5,-30.5 611.5,-30.5 611.5,-11.5 490.5,-11.5"/>
<text text-anchor="middle" x="551" y="-18.5" font-family="Helvetica,sans-Serif" font-size="10.00">CGAL/Polyhedron_3.h</text>
</a>
</g>
</g>
<!-- Node5&#45;&gt;Node11 -->
<g id="edge10" class="edge">
<title>Node5&#45;&gt;Node11</title>
<path fill="none" stroke="midnightblue" d="M341.59,-78.49C381.03,-68.6 434.83,-54.88 482,-42 491.93,-39.29 502.62,-36.25 512.56,-33.37"/>
<polygon fill="midnightblue" stroke="midnightblue" points="513.56,-36.73 522.18,-30.57 511.61,-30 513.56,-36.73"/>
</g>
<!-- Node12 -->
<g id="node12" class="node">
<title>Node12</title>
<g id="a_node12"><a xlink:href="namespace_8h.html" target="_top" xlink:title=" ">
<polygon fill="none" stroke="black" points="630,-6 630,-36 766,-36 766,-6 630,-6"/>
<text text-anchor="start" x="638" y="-24" font-family="Helvetica,sans-Serif" font-size="10.00">VoronoiMeshMaker/Misc</text>
<text text-anchor="middle" x="698" y="-13" font-family="Helvetica,sans-Serif" font-size="10.00">/namespace.h</text>
</a>
</g>
</g>
<!-- Node5&#45;&gt;Node12 -->
<g id="edge11" class="edge">
<title>Node5&#45;&gt;Node12</title>
<path fill="none" stroke="midnightblue" d="M353.4,-79.44C356.31,-78.94 359.18,-78.46 362,-78 476.69,-59.24 507.01,-64.65 621,-42 626.33,-40.94 631.85,-39.73 637.36,-38.45"/>
<polygon fill="midnightblue" stroke="midnightblue" points="638.34,-41.81 647.25,-36.07 636.71,-35.01 638.34,-41.81"/>
</g>
</g>
</svg>
