<?xml version="1.0" encoding="UTF-8" standalone="no"?>
<!DOCTYPE svg PUBLIC "-//W3C//DTD SVG 1.1//EN"
 "http://www.w3.org/Graphics/SVG/1.1/DTD/svg11.dtd">
<!-- Generated by graphviz version 2.43.0 (0)
 -->
<!-- Title: VoronoiMeshMaker/include/VoronoiMeshMaker/Parameters/GeometricDataHolder.tpp Pages: 1 -->
<svg width="1157pt" height="440pt"
 viewBox="0.00 0.00 1156.50 440.00" xmlns="http://www.w3.org/2000/svg" xmlns:xlink="http://www.w3.org/1999/xlink">
<g id="graph0" class="graph" transform="scale(1 1) rotate(0) translate(4 436)">
<title>VoronoiMeshMaker/include/VoronoiMeshMaker/Parameters/GeometricDataHolder.tpp</title>
<!-- Node1 -->
<g id="node1" class="node">
<title>Node1</title>
<g id="a_node1"><a xlink:title=" ">
<polygon fill="#bfbfbf" stroke="black" points="366,-390.5 366,-431.5 539,-431.5 539,-390.5 366,-390.5"/>
<text text-anchor="start" x="374" y="-419.5" font-family="Helvetica,sans-Serif" font-size="10.00">VoronoiMeshMaker/include</text>
<text text-anchor="start" x="374" y="-408.5" font-family="Helvetica,sans-Serif" font-size="10.00">/VoronoiMeshMaker/Parameters</text>
<text text-anchor="middle" x="452.5" y="-397.5" font-family="Helvetica,sans-Serif" font-size="10.00">/GeometricDataHolder.tpp</text>
</a>
</g>
</g>
<!-- Node2 -->
<g id="node2" class="node">
<title>Node2</title>
<g id="a_node2"><a xlink:href="GeometricDataHolder_8h.html" target="_top" xlink:title=" ">
<polygon fill="none" stroke="black" points="366,-312.5 366,-353.5 539,-353.5 539,-312.5 366,-312.5"/>
<text text-anchor="start" x="374" y="-341.5" font-family="Helvetica,sans-Serif" font-size="10.00">VoronoiMeshMaker/include</text>
<text text-anchor="start" x="374" y="-330.5" font-family="Helvetica,sans-Serif" font-size="10.00">/VoronoiMeshMaker/Parameters</text>
<text text-anchor="middle" x="452.5" y="-319.5" font-family="Helvetica,sans-Serif" font-size="10.00">/GeometricDataHolder.h</text>
</a>
</g>
</g>
<!-- Node1&#45;&gt;Node2 -->
<g id="edge1" class="edge">
<title>Node1&#45;&gt;Node2</title>
<path fill="none" stroke="midnightblue" d="M452.5,-380.3C452.5,-371.3 452.5,-361.65 452.5,-353.51"/>
<polygon fill="midnightblue" stroke="midnightblue" points="449,-380.43 452.5,-390.43 456,-380.43 449,-380.43"/>
</g>
<!-- Node3 -->
<g id="node3" class="node">
<title>Node3</title>
<g id="a_node3"><a xlink:href="Shape_8h.html" target="_top" xlink:title="Defines the Shape class, which serves as the abstract base class for all shapes.">
<polygon fill="none" stroke="black" points="378,-234.5 378,-275.5 527,-275.5 527,-234.5 378,-234.5"/>
<text text-anchor="start" x="386" y="-263.5" font-family="Helvetica,sans-Serif" font-size="10.00">VoronoiMeshMaker/include</text>
<text text-anchor="start" x="386" y="-252.5" font-family="Helvetica,sans-Serif" font-size="10.00">/VoronoiMeshMaker/Shape</text>
<text text-anchor="middle" x="452.5" y="-241.5" font-family="Helvetica,sans-Serif" font-size="10.00">/Shape.h</text>
</a>
</g>
</g>
<!-- Node2&#45;&gt;Node3 -->
<g id="edge2" class="edge">
<title>Node2&#45;&gt;Node3</title>
<path fill="none" stroke="midnightblue" d="M452.5,-302.3C452.5,-293.3 452.5,-283.65 452.5,-275.51"/>
<polygon fill="midnightblue" stroke="midnightblue" points="449,-302.43 452.5,-312.43 456,-302.43 449,-302.43"/>
</g>
<!-- Node16 -->
<g id="node16" class="node">
<title>Node16</title>
<g id="a_node16"><a xlink:href="ShapeFactory_8h.html" target="_top" xlink:title=" ">
<polygon fill="none" stroke="black" points="167,-78.5 167,-119.5 316,-119.5 316,-78.5 167,-78.5"/>
<text text-anchor="start" x="175" y="-107.5" font-family="Helvetica,sans-Serif" font-size="10.00">VoronoiMeshMaker/include</text>
<text text-anchor="start" x="175" y="-96.5" font-family="Helvetica,sans-Serif" font-size="10.00">/VoronoiMeshMaker/Shape</text>
<text text-anchor="middle" x="241.5" y="-85.5" font-family="Helvetica,sans-Serif" font-size="10.00">/ShapeFactory.h</text>
</a>
</g>
</g>
<!-- Node2&#45;&gt;Node16 -->
<g id="edge21" class="edge">
<title>Node2&#45;&gt;Node16</title>
<path fill="none" stroke="midnightblue" d="M408.56,-306.93C394.94,-298.09 380.41,-287.47 368.5,-276 317.22,-226.59 272.43,-154.2 252.51,-119.7"/>
<polygon fill="midnightblue" stroke="midnightblue" points="407.01,-310.1 417.33,-312.48 410.75,-304.18 407.01,-310.1"/>
</g>
<!-- Node19 -->
<g id="node19" class="node">
<title>Node19</title>
<g id="a_node19"><a xlink:href="GeometricDataHolder_8cpp.html" target="_top" xlink:title=" ">
<polygon fill="none" stroke="black" points="545,-234.5 545,-275.5 718,-275.5 718,-234.5 545,-234.5"/>
<text text-anchor="start" x="553" y="-263.5" font-family="Helvetica,sans-Serif" font-size="10.00">VoronoiMeshMaker/src</text>
<text text-anchor="start" x="553" y="-252.5" font-family="Helvetica,sans-Serif" font-size="10.00">/VoronoiMeshMaker/Parameters</text>
<text text-anchor="middle" x="631.5" y="-241.5" font-family="Helvetica,sans-Serif" font-size="10.00">/GeometricDataHolder.cpp</text>
</a>
</g>
</g>
<!-- Node2&#45;&gt;Node19 -->
<g id="edge22" class="edge">
<title>Node2&#45;&gt;Node19</title>
<path fill="none" stroke="midnightblue" d="M507.92,-308.47C532.83,-297.89 561.88,-285.56 585.56,-275.51"/>
<polygon fill="midnightblue" stroke="midnightblue" points="506.43,-305.3 498.6,-312.43 509.17,-311.74 506.43,-305.3"/>
</g>
<!-- Node4 -->
<g id="node4" class="node">
<title>Node4</title>
<g id="a_node4"><a xlink:href="Shape2D_8h.html" target="_top" xlink:title="Defines the Shape2D class, which represents 2D geometric shapes.">
<polygon fill="none" stroke="black" points="417,-156.5 417,-197.5 566,-197.5 566,-156.5 417,-156.5"/>
<text text-anchor="start" x="425" y="-185.5" font-family="Helvetica,sans-Serif" font-size="10.00">VoronoiMeshMaker/include</text>
<text text-anchor="start" x="425" y="-174.5" font-family="Helvetica,sans-Serif" font-size="10.00">/VoronoiMeshMaker/Shape</text>
<text text-anchor="middle" x="491.5" y="-163.5" font-family="Helvetica,sans-Serif" font-size="10.00">/Shape2D/Shape2D.h</text>
</a>
</g>
</g>
<!-- Node3&#45;&gt;Node4 -->
<g id="edge3" class="edge">
<title>Node3&#45;&gt;Node4</title>
<path fill="none" stroke="midnightblue" d="M467.14,-225.47C471.93,-216.14 477.13,-206.01 481.49,-197.51"/>
<polygon fill="midnightblue" stroke="midnightblue" points="464,-223.93 462.54,-234.43 470.22,-227.13 464,-223.93"/>
</g>
<!-- Node3&#45;&gt;Node16 -->
<g id="edge15" class="edge">
<title>Node3&#45;&gt;Node16</title>
<path fill="none" stroke="midnightblue" d="M426.84,-227.09C406.09,-206.21 375.49,-177.31 345.5,-156 326.11,-142.22 302.94,-129.43 283.39,-119.56"/>
<polygon fill="midnightblue" stroke="midnightblue" points="424.52,-229.72 434.02,-234.4 429.51,-224.81 424.52,-229.72"/>
</g>
<!-- Node18 -->
<g id="node18" class="node">
<title>Node18</title>
<g id="a_node18"><a xlink:href="Shape_8cpp.html" target="_top" xlink:title="Implementation of the Shape class methods.">
<polygon fill="none" stroke="black" points="584.5,-156.5 584.5,-197.5 730.5,-197.5 730.5,-156.5 584.5,-156.5"/>
<text text-anchor="start" x="592.5" y="-185.5" font-family="Helvetica,sans-Serif" font-size="10.00">VoronoiMeshMaker/src</text>
<text text-anchor="start" x="592.5" y="-174.5" font-family="Helvetica,sans-Serif" font-size="10.00">/VoronoiMeshMaker/Shape</text>
<text text-anchor="middle" x="657.5" y="-163.5" font-family="Helvetica,sans-Serif" font-size="10.00">/Shape.cpp</text>
</a>
</g>
</g>
<!-- Node3&#45;&gt;Node18 -->
<g id="edge20" class="edge">
<title>Node3&#45;&gt;Node18</title>
<path fill="none" stroke="midnightblue" d="M514.84,-230.89C543.62,-220.22 577.41,-207.69 604.89,-197.51"/>
<polygon fill="midnightblue" stroke="midnightblue" points="513.45,-227.67 505.29,-234.43 515.89,-234.23 513.45,-227.67"/>
</g>
<!-- Node5 -->
<g id="node5" class="node">
<title>Node5</title>
<g id="a_node5"><a xlink:href="Ellipse_8h.html" target="_top" xlink:title=" ">
<polygon fill="none" stroke="black" points="0,-78.5 0,-119.5 149,-119.5 149,-78.5 0,-78.5"/>
<text text-anchor="start" x="8" y="-107.5" font-family="Helvetica,sans-Serif" font-size="10.00">VoronoiMeshMaker/include</text>
<text text-anchor="start" x="8" y="-96.5" font-family="Helvetica,sans-Serif" font-size="10.00">/VoronoiMeshMaker/Shape</text>
<text text-anchor="middle" x="74.5" y="-85.5" font-family="Helvetica,sans-Serif" font-size="10.00">/Shape2D/Ellipse.h</text>
</a>
</g>
</g>
<!-- Node4&#45;&gt;Node5 -->
<g id="edge4" class="edge">
<title>Node4&#45;&gt;Node5</title>
<path fill="none" stroke="midnightblue" d="M406.75,-163.48C339.05,-153.07 241.89,-137.22 157.5,-120 154.74,-119.44 151.93,-118.85 149.1,-118.24"/>
<polygon fill="midnightblue" stroke="midnightblue" points="406.52,-166.98 416.94,-165.04 407.58,-160.06 406.52,-166.98"/>
</g>
<!-- Node7 -->
<g id="node7" class="node">
<title>Node7</title>
<g id="a_node7"><a xlink:href="Polygon_8h.html" target="_top" xlink:title=" ">
<polygon fill="none" stroke="black" points="668,-78.5 668,-119.5 817,-119.5 817,-78.5 668,-78.5"/>
<text text-anchor="start" x="676" y="-107.5" font-family="Helvetica,sans-Serif" font-size="10.00">VoronoiMeshMaker/include</text>
<text text-anchor="start" x="676" y="-96.5" font-family="Helvetica,sans-Serif" font-size="10.00">/VoronoiMeshMaker/Shape</text>
<text text-anchor="middle" x="742.5" y="-85.5" font-family="Helvetica,sans-Serif" font-size="10.00">/Shape2D/Polygon.h</text>
</a>
</g>
</g>
<!-- Node4&#45;&gt;Node7 -->
<g id="edge6" class="edge">
<title>Node4&#45;&gt;Node7</title>
<path fill="none" stroke="midnightblue" d="M566,-153.44C601.63,-142.66 643.86,-129.87 678.08,-119.51"/>
<polygon fill="midnightblue" stroke="midnightblue" points="564.7,-150.18 556.14,-156.43 566.72,-156.88 564.7,-150.18"/>
</g>
<!-- Node9 -->
<g id="node9" class="node">
<title>Node9</title>
<g id="a_node9"><a xlink:href="PolygonCSV_8h.html" target="_top" xlink:title=" ">
<polygon fill="none" stroke="black" points="835,-78.5 835,-119.5 984,-119.5 984,-78.5 835,-78.5"/>
<text text-anchor="start" x="843" y="-107.5" font-family="Helvetica,sans-Serif" font-size="10.00">VoronoiMeshMaker/include</text>
<text text-anchor="start" x="843" y="-96.5" font-family="Helvetica,sans-Serif" font-size="10.00">/VoronoiMeshMaker/Shape</text>
<text text-anchor="middle" x="909.5" y="-85.5" font-family="Helvetica,sans-Serif" font-size="10.00">/Shape2D/PolygonCSV.h</text>
</a>
</g>
</g>
<!-- Node4&#45;&gt;Node9 -->
<g id="edge8" class="edge">
<title>Node4&#45;&gt;Node9</title>
<path fill="none" stroke="midnightblue" d="M576.04,-156C687.5,-135.3 718.35,-140.43 825.5,-120 828.59,-119.41 831.74,-118.78 834.92,-118.13"/>
<polygon fill="midnightblue" stroke="midnightblue" points="575.26,-152.58 566.08,-157.87 576.55,-159.46 575.26,-152.58"/>
</g>
<!-- Node11 -->
<g id="node11" class="node">
<title>Node11</title>
<g id="a_node11"><a xlink:href="Rectangle_8h.html" target="_top" xlink:title=" ">
<polygon fill="none" stroke="black" points="334,-78.5 334,-119.5 483,-119.5 483,-78.5 334,-78.5"/>
<text text-anchor="start" x="342" y="-107.5" font-family="Helvetica,sans-Serif" font-size="10.00">VoronoiMeshMaker/include</text>
<text text-anchor="start" x="342" y="-96.5" font-family="Helvetica,sans-Serif" font-size="10.00">/VoronoiMeshMaker/Shape</text>
<text text-anchor="middle" x="408.5" y="-85.5" font-family="Helvetica,sans-Serif" font-size="10.00">/Shape2D/Rectangle.h</text>
</a>
</g>
</g>
<!-- Node4&#45;&gt;Node11 -->
<g id="edge10" class="edge">
<title>Node4&#45;&gt;Node11</title>
<path fill="none" stroke="midnightblue" d="M462.55,-149.49C451.78,-139.63 439.76,-128.63 429.8,-119.51"/>
<polygon fill="midnightblue" stroke="midnightblue" points="460.39,-152.26 470.13,-156.43 465.11,-147.09 460.39,-152.26"/>
</g>
<!-- Node13 -->
<g id="node13" class="node">
<title>Node13</title>
<g id="a_node13"><a xlink:href="Star_8h.html" target="_top" xlink:title=" ">
<polygon fill="none" stroke="black" points="501,-78.5 501,-119.5 650,-119.5 650,-78.5 501,-78.5"/>
<text text-anchor="start" x="509" y="-107.5" font-family="Helvetica,sans-Serif" font-size="10.00">VoronoiMeshMaker/include</text>
<text text-anchor="start" x="509" y="-96.5" font-family="Helvetica,sans-Serif" font-size="10.00">/VoronoiMeshMaker/Shape</text>
<text text-anchor="middle" x="575.5" y="-85.5" font-family="Helvetica,sans-Serif" font-size="10.00">/Shape2D/Star.h</text>
</a>
</g>
</g>
<!-- Node4&#45;&gt;Node13 -->
<g id="edge12" class="edge">
<title>Node4&#45;&gt;Node13</title>
<path fill="none" stroke="midnightblue" d="M520.8,-149.49C531.7,-139.63 543.86,-128.63 553.94,-119.51"/>
<polygon fill="midnightblue" stroke="midnightblue" points="518.2,-147.12 513.13,-156.43 522.9,-152.31 518.2,-147.12"/>
</g>
<!-- Node15 -->
<g id="node15" class="node">
<title>Node15</title>
<g id="a_node15"><a xlink:href="Shape2D_8cpp.html" target="_top" xlink:title="Implementation of the Shape2D class methods.">
<polygon fill="none" stroke="black" points="1002.5,-78.5 1002.5,-119.5 1148.5,-119.5 1148.5,-78.5 1002.5,-78.5"/>
<text text-anchor="start" x="1010.5" y="-107.5" font-family="Helvetica,sans-Serif" font-size="10.00">VoronoiMeshMaker/src</text>
<text text-anchor="start" x="1010.5" y="-96.5" font-family="Helvetica,sans-Serif" font-size="10.00">/VoronoiMeshMaker/Shape</text>
<text text-anchor="middle" x="1075.5" y="-85.5" font-family="Helvetica,sans-Serif" font-size="10.00">/Shape2D/Shape2D.cpp</text>
</a>
</g>
</g>
<!-- Node4&#45;&gt;Node15 -->
<g id="edge14" class="edge">
<title>Node4&#45;&gt;Node15</title>
<path fill="none" stroke="midnightblue" d="M576.12,-156.05C761.38,-127.15 812.73,-149.65 993.5,-120 996.39,-119.53 999.33,-119 1002.3,-118.44"/>
<polygon fill="midnightblue" stroke="midnightblue" points="575.37,-152.62 566.04,-157.65 576.47,-159.54 575.37,-152.62"/>
</g>
<!-- Node6 -->
<g id="node6" class="node">
<title>Node6</title>
<g id="a_node6"><a xlink:href="Ellipse_8cpp.html" target="_top" xlink:title=" ">
<polygon fill="none" stroke="black" points="3.5,-0.5 3.5,-41.5 149.5,-41.5 149.5,-0.5 3.5,-0.5"/>
<text text-anchor="start" x="11.5" y="-29.5" font-family="Helvetica,sans-Serif" font-size="10.00">VoronoiMeshMaker/src</text>
<text text-anchor="start" x="11.5" y="-18.5" font-family="Helvetica,sans-Serif" font-size="10.00">/VoronoiMeshMaker/Shape</text>
<text text-anchor="middle" x="76.5" y="-7.5" font-family="Helvetica,sans-Serif" font-size="10.00">/Shape2D/Ellipse.cpp</text>
</a>
</g>
</g>
<!-- Node5&#45;&gt;Node6 -->
<g id="edge5" class="edge">
<title>Node5&#45;&gt;Node6</title>
<path fill="none" stroke="midnightblue" d="M75.28,-68.3C75.52,-59.3 75.77,-49.65 75.99,-41.51"/>
<polygon fill="midnightblue" stroke="midnightblue" points="71.78,-68.34 75.02,-78.43 78.78,-68.52 71.78,-68.34"/>
</g>
<!-- Node8 -->
<g id="node8" class="node">
<title>Node8</title>
<g id="a_node8"><a xlink:href="Polygon_8cpp.html" target="_top" xlink:title=" ">
<polygon fill="none" stroke="black" points="669.5,-0.5 669.5,-41.5 815.5,-41.5 815.5,-0.5 669.5,-0.5"/>
<text text-anchor="start" x="677.5" y="-29.5" font-family="Helvetica,sans-Serif" font-size="10.00">VoronoiMeshMaker/src</text>
<text text-anchor="start" x="677.5" y="-18.5" font-family="Helvetica,sans-Serif" font-size="10.00">/VoronoiMeshMaker/Shape</text>
<text text-anchor="middle" x="742.5" y="-7.5" font-family="Helvetica,sans-Serif" font-size="10.00">/Shape2D/Polygon.cpp</text>
</a>
</g>
</g>
<!-- Node7&#45;&gt;Node8 -->
<g id="edge7" class="edge">
<title>Node7&#45;&gt;Node8</title>
<path fill="none" stroke="midnightblue" d="M742.5,-68.3C742.5,-59.3 742.5,-49.65 742.5,-41.51"/>
<polygon fill="midnightblue" stroke="midnightblue" points="739,-68.43 742.5,-78.43 746,-68.43 739,-68.43"/>
</g>
<!-- Node10 -->
<g id="node10" class="node">
<title>Node10</title>
<g id="a_node10"><a xlink:href="PolygonCSV_8cpp.html" target="_top" xlink:title=" ">
<polygon fill="none" stroke="black" points="836.5,-0.5 836.5,-41.5 982.5,-41.5 982.5,-0.5 836.5,-0.5"/>
<text text-anchor="start" x="844.5" y="-29.5" font-family="Helvetica,sans-Serif" font-size="10.00">VoronoiMeshMaker/src</text>
<text text-anchor="start" x="844.5" y="-18.5" font-family="Helvetica,sans-Serif" font-size="10.00">/VoronoiMeshMaker/Shape</text>
<text text-anchor="middle" x="909.5" y="-7.5" font-family="Helvetica,sans-Serif" font-size="10.00">/Shape2D/PolygonCSV.cpp</text>
</a>
</g>
</g>
<!-- Node9&#45;&gt;Node10 -->
<g id="edge9" class="edge">
<title>Node9&#45;&gt;Node10</title>
<path fill="none" stroke="midnightblue" d="M909.5,-68.3C909.5,-59.3 909.5,-49.65 909.5,-41.51"/>
<polygon fill="midnightblue" stroke="midnightblue" points="906,-68.43 909.5,-78.43 913,-68.43 906,-68.43"/>
</g>
<!-- Node12 -->
<g id="node12" class="node">
<title>Node12</title>
<g id="a_node12"><a xlink:href="Rectangle_8cpp.html" target="_top" xlink:title=" ">
<polygon fill="none" stroke="black" points="334.5,-0.5 334.5,-41.5 480.5,-41.5 480.5,-0.5 334.5,-0.5"/>
<text text-anchor="start" x="342.5" y="-29.5" font-family="Helvetica,sans-Serif" font-size="10.00">VoronoiMeshMaker/src</text>
<text text-anchor="start" x="342.5" y="-18.5" font-family="Helvetica,sans-Serif" font-size="10.00">/VoronoiMeshMaker/Shape</text>
<text text-anchor="middle" x="407.5" y="-7.5" font-family="Helvetica,sans-Serif" font-size="10.00">/Shape2D/Rectangle.cpp</text>
</a>
</g>
</g>
<!-- Node11&#45;&gt;Node12 -->
<g id="edge11" class="edge">
<title>Node11&#45;&gt;Node12</title>
<path fill="none" stroke="midnightblue" d="M408.11,-68.3C407.99,-59.3 407.86,-49.65 407.76,-41.51"/>
<polygon fill="midnightblue" stroke="midnightblue" points="404.61,-68.48 408.24,-78.43 411.61,-68.38 404.61,-68.48"/>
</g>
<!-- Node14 -->
<g id="node14" class="node">
<title>Node14</title>
<g id="a_node14"><a xlink:href="Star_8cpp.html" target="_top" xlink:title=" ">
<polygon fill="none" stroke="black" points="500.5,-0.5 500.5,-41.5 646.5,-41.5 646.5,-0.5 500.5,-0.5"/>
<text text-anchor="start" x="508.5" y="-29.5" font-family="Helvetica,sans-Serif" font-size="10.00">VoronoiMeshMaker/src</text>
<text text-anchor="start" x="508.5" y="-18.5" font-family="Helvetica,sans-Serif" font-size="10.00">/VoronoiMeshMaker/Shape</text>
<text text-anchor="middle" x="573.5" y="-7.5" font-family="Helvetica,sans-Serif" font-size="10.00">/Shape2D/Star.cpp</text>
</a>
</g>
</g>
<!-- Node13&#45;&gt;Node14 -->
<g id="edge13" class="edge">
<title>Node13&#45;&gt;Node14</title>
<path fill="none" stroke="midnightblue" d="M574.72,-68.3C574.48,-59.3 574.23,-49.65 574.01,-41.51"/>
<polygon fill="midnightblue" stroke="midnightblue" points="571.22,-68.52 574.98,-78.43 578.22,-68.34 571.22,-68.52"/>
</g>
<!-- Node16&#45;&gt;Node6 -->
<g id="edge16" class="edge">
<title>Node16&#45;&gt;Node6</title>
<path fill="none" stroke="midnightblue" d="M189.81,-74.19C166.98,-63.67 140.48,-51.47 118.85,-41.51"/>
<polygon fill="midnightblue" stroke="midnightblue" points="188.46,-77.42 199.01,-78.43 191.39,-71.07 188.46,-77.42"/>
</g>
<!-- Node16&#45;&gt;Node12 -->
<g id="edge17" class="edge">
<title>Node16&#45;&gt;Node12</title>
<path fill="none" stroke="midnightblue" d="M293.51,-74.19C316.47,-63.67 343.13,-51.47 364.9,-41.51"/>
<polygon fill="midnightblue" stroke="midnightblue" points="291.88,-71.08 284.25,-78.43 294.8,-77.45 291.88,-71.08"/>
</g>
<!-- Node16&#45;&gt;Node14 -->
<g id="edge18" class="edge">
<title>Node16&#45;&gt;Node14</title>
<path fill="none" stroke="midnightblue" d="M326.31,-77.61C399.36,-60.97 419.47,-57.98 489.5,-42 493.01,-41.2 496.6,-40.37 500.22,-39.53"/>
<polygon fill="midnightblue" stroke="midnightblue" points="325.11,-74.29 316.14,-79.93 326.67,-81.12 325.11,-74.29"/>
</g>
<!-- Node17 -->
<g id="node17" class="node">
<title>Node17</title>
<g id="a_node17"><a xlink:href="ShapeFactory_8cpp.html" target="_top" xlink:title="Implements the ShapeFactory methods for creating shape objects. This file contains the registration a...">
<polygon fill="none" stroke="black" points="168.5,-0.5 168.5,-41.5 314.5,-41.5 314.5,-0.5 168.5,-0.5"/>
<text text-anchor="start" x="176.5" y="-29.5" font-family="Helvetica,sans-Serif" font-size="10.00">VoronoiMeshMaker/src</text>
<text text-anchor="start" x="176.5" y="-18.5" font-family="Helvetica,sans-Serif" font-size="10.00">/VoronoiMeshMaker/Shape</text>
<text text-anchor="middle" x="241.5" y="-7.5" font-family="Helvetica,sans-Serif" font-size="10.00">/ShapeFactory.cpp</text>
</a>
</g>
</g>
<!-- Node16&#45;&gt;Node17 -->
<g id="edge19" class="edge">
<title>Node16&#45;&gt;Node17</title>
<path fill="none" stroke="midnightblue" d="M241.5,-68.3C241.5,-59.3 241.5,-49.65 241.5,-41.51"/>
<polygon fill="midnightblue" stroke="midnightblue" points="238,-68.43 241.5,-78.43 245,-68.43 238,-68.43"/>
</g>
</g>
</svg>
