<?xml version="1.0" encoding="UTF-8" standalone="no"?>
<!DOCTYPE svg PUBLIC "-//W3C//DTD SVG 1.1//EN"
 "http://www.w3.org/Graphics/SVG/1.1/DTD/svg11.dtd">
<!-- Generated by graphviz version 2.43.0 (0)
 -->
<!-- Title: Graphical Class Hierarchy Pages: 1 -->
<svg width="219pt" height="66pt"
 viewBox="0.00 0.00 219.00 66.00" xmlns="http://www.w3.org/2000/svg" xmlns:xlink="http://www.w3.org/1999/xlink">
<g id="graph0" class="graph" transform="scale(1 1) rotate(0) translate(4 62)">
<title>Graphical Class Hierarchy</title>
<!-- Node1 -->
<g id="node1" class="node">
<title>Node1</title>
<g id="a_node1"><a xlink:title=" ">
<polygon fill="none" stroke="#bfbfbf" points="0,-38.5 0,-57.5 86,-57.5 86,-38.5 0,-38.5"/>
<text text-anchor="middle" x="43" y="-45.5" font-family="Helvetica,sans-Serif" font-size="10.00">std::exception</text>
</a>
</g>
</g>
<!-- Node0 -->
<g id="node2" class="node">
<title>Node0</title>
<g id="a_node2"><a xlink:href="classVMMException.html" target="_top" xlink:title="Exception class for handling errors in VoronoiMeshMaker.">
<polygon fill="none" stroke="black" points="122,-19.5 122,-38.5 211,-38.5 211,-19.5 122,-19.5"/>
<text text-anchor="middle" x="166.5" y="-26.5" font-family="Helvetica,sans-Serif" font-size="10.00">VMMException</text>
</a>
</g>
</g>
<!-- Node1&#45;&gt;Node0 -->
<g id="edge1" class="edge">
<title>Node1&#45;&gt;Node0</title>
<path fill="none" stroke="midnightblue" d="M96.06,-39.86C104.63,-38.52 113.43,-37.14 121.77,-35.84"/>
<polygon fill="midnightblue" stroke="midnightblue" points="95.49,-36.4 86.15,-41.41 96.57,-43.32 95.49,-36.4"/>
</g>
<!-- Node3 -->
<g id="node3" class="node">
<title>Node3</title>
<g id="a_node3"><a xlink:href="classID.html" target="_top" xlink:title="Base class to provide unique identification for derived classes.">
<polygon fill="none" stroke="black" points="28.5,-0.5 28.5,-19.5 57.5,-19.5 57.5,-0.5 28.5,-0.5"/>
<text text-anchor="middle" x="43" y="-7.5" font-family="Helvetica,sans-Serif" font-size="10.00">ID</text>
</a>
</g>
</g>
<!-- Node3&#45;&gt;Node0 -->
<g id="edge2" class="edge">
<title>Node3&#45;&gt;Node0</title>
<path fill="none" stroke="midnightblue" d="M68.11,-13.77C83.43,-16.17 103.71,-19.34 121.8,-22.17"/>
<polygon fill="midnightblue" stroke="midnightblue" points="68.36,-10.27 57.94,-12.18 67.28,-17.18 68.36,-10.27"/>
</g>
</g>
</svg>
