<?xml version="1.0" encoding="UTF-8" standalone="no"?>
<!DOCTYPE svg PUBLIC "-//W3C//DTD SVG 1.1//EN"
 "http://www.w3.org/Graphics/SVG/1.1/DTD/svg11.dtd">
<!-- Generated by graphviz version 2.43.0 (0)
 -->
<!-- Title: VoronoiMeshMaker/src/VoronoiMeshMaker/Misc/misc.cpp Pages: 1 -->
<svg width="1047pt" height="329pt"
 viewBox="0.00 0.00 1047.00 329.00" xmlns="http://www.w3.org/2000/svg" xmlns:xlink="http://www.w3.org/1999/xlink">
<g id="graph0" class="graph" transform="scale(1 1) rotate(0) translate(4 325)">
<title>VoronoiMeshMaker/src/VoronoiMeshMaker/Misc/misc.cpp</title>
<!-- Node1 -->
<g id="node1" class="node">
<title>Node1</title>
<g id="a_node1"><a xlink:title=" ">
<polygon fill="#bfbfbf" stroke="black" points="147.5,-279.5 147.5,-320.5 286.5,-320.5 286.5,-279.5 147.5,-279.5"/>
<text text-anchor="start" x="155.5" y="-308.5" font-family="Helvetica,sans-Serif" font-size="10.00">VoronoiMeshMaker/src</text>
<text text-anchor="start" x="155.5" y="-297.5" font-family="Helvetica,sans-Serif" font-size="10.00">/VoronoiMeshMaker/Misc</text>
<text text-anchor="middle" x="217" y="-286.5" font-family="Helvetica,sans-Serif" font-size="10.00">/misc.cpp</text>
</a>
</g>
</g>
<!-- Node2 -->
<g id="node2" class="node">
<title>Node2</title>
<g id="a_node2"><a xlink:title=" ">
<polygon fill="none" stroke="#bfbfbf" points="0,-218 0,-237 64,-237 64,-218 0,-218"/>
<text text-anchor="middle" x="32" y="-225" font-family="Helvetica,sans-Serif" font-size="10.00">algorithm</text>
</a>
</g>
</g>
<!-- Node1&#45;&gt;Node2 -->
<g id="edge1" class="edge">
<title>Node1&#45;&gt;Node2</title>
<path fill="none" stroke="midnightblue" d="M165.47,-279.36C133.09,-267.02 92.33,-251.49 64.42,-240.85"/>
<polygon fill="midnightblue" stroke="midnightblue" points="65.35,-237.46 54.76,-237.17 62.86,-244.01 65.35,-237.46"/>
</g>
<!-- Node3 -->
<g id="node3" class="node">
<title>Node3</title>
<g id="a_node3"><a xlink:title=" ">
<polygon fill="none" stroke="#bfbfbf" points="82.5,-218 82.5,-237 131.5,-237 131.5,-218 82.5,-218"/>
<text text-anchor="middle" x="107" y="-225" font-family="Helvetica,sans-Serif" font-size="10.00">cctype</text>
</a>
</g>
</g>
<!-- Node1&#45;&gt;Node3 -->
<g id="edge2" class="edge">
<title>Node1&#45;&gt;Node3</title>
<path fill="none" stroke="midnightblue" d="M186.36,-279.36C168.12,-267.67 145.41,-253.12 128.96,-242.57"/>
<polygon fill="midnightblue" stroke="midnightblue" points="130.84,-239.62 120.53,-237.17 127.06,-245.52 130.84,-239.62"/>
</g>
<!-- Node4 -->
<g id="node4" class="node">
<title>Node4</title>
<g id="a_node4"><a xlink:title=" ">
<polygon fill="none" stroke="#bfbfbf" points="150,-218 150,-237 210,-237 210,-218 150,-218"/>
<text text-anchor="middle" x="180" y="-225" font-family="Helvetica,sans-Serif" font-size="10.00">iostream</text>
</a>
</g>
</g>
<!-- Node1&#45;&gt;Node4 -->
<g id="edge3" class="edge">
<title>Node1&#45;&gt;Node4</title>
<path fill="none" stroke="midnightblue" d="M206.69,-279.36C201.24,-268.97 194.6,-256.32 189.3,-246.23"/>
<polygon fill="midnightblue" stroke="midnightblue" points="192.3,-244.4 184.55,-237.17 186.1,-247.65 192.3,-244.4"/>
</g>
<!-- Node5 -->
<g id="node5" class="node">
<title>Node5</title>
<g id="a_node5"><a xlink:title=" ">
<polygon fill="none" stroke="#bfbfbf" points="228.5,-218 228.5,-237 281.5,-237 281.5,-218 228.5,-218"/>
<text text-anchor="middle" x="255" y="-225" font-family="Helvetica,sans-Serif" font-size="10.00">iterator</text>
</a>
</g>
</g>
<!-- Node1&#45;&gt;Node5 -->
<g id="edge4" class="edge">
<title>Node1&#45;&gt;Node5</title>
<path fill="none" stroke="midnightblue" d="M227.59,-279.36C233.19,-268.97 240.01,-256.32 245.45,-246.23"/>
<polygon fill="midnightblue" stroke="midnightblue" points="248.66,-247.64 250.32,-237.17 242.5,-244.32 248.66,-247.64"/>
</g>
<!-- Node6 -->
<g id="node6" class="node">
<title>Node6</title>
<g id="a_node6"><a xlink:title=" ">
<polygon fill="none" stroke="#bfbfbf" points="293,-151 293,-170 361,-170 361,-151 293,-151"/>
<text text-anchor="middle" x="327" y="-158" font-family="Helvetica,sans-Serif" font-size="10.00">filesystem</text>
</a>
</g>
</g>
<!-- Node1&#45;&gt;Node6 -->
<g id="edge5" class="edge">
<title>Node1&#45;&gt;Node6</title>
<path fill="none" stroke="midnightblue" d="M249.38,-279.33C263.23,-269.7 278.77,-257.13 290,-243 305.29,-223.75 315.81,-197.18 321.62,-179.68"/>
<polygon fill="midnightblue" stroke="midnightblue" points="324.97,-180.69 324.63,-170.1 318.29,-178.59 324.97,-180.69"/>
</g>
<!-- Node7 -->
<g id="node7" class="node">
<title>Node7</title>
<g id="a_node7"><a xlink:href="misc_8h.html" target="_top" xlink:title="Provides general&#45;purpose utility functions for the VoronoiMeshMaker library.">
<polygon fill="none" stroke="black" points="338,-212.5 338,-242.5 474,-242.5 474,-212.5 338,-212.5"/>
<text text-anchor="start" x="346" y="-230.5" font-family="Helvetica,sans-Serif" font-size="10.00">VoronoiMeshMaker/Misc</text>
<text text-anchor="middle" x="406" y="-219.5" font-family="Helvetica,sans-Serif" font-size="10.00">/misc.h</text>
</a>
</g>
</g>
<!-- Node1&#45;&gt;Node7 -->
<g id="edge6" class="edge">
<title>Node1&#45;&gt;Node7</title>
<path fill="none" stroke="midnightblue" d="M269.4,-279.46C297.32,-269.04 331.41,-256.32 358.55,-246.2"/>
<polygon fill="midnightblue" stroke="midnightblue" points="360.06,-249.37 368.21,-242.6 357.62,-242.81 360.06,-249.37"/>
</g>
<!-- Node7&#45;&gt;Node6 -->
<g id="edge7" class="edge">
<title>Node7&#45;&gt;Node6</title>
<path fill="none" stroke="midnightblue" d="M388.86,-212.4C376.05,-201.86 358.57,-187.48 345.46,-176.69"/>
<polygon fill="midnightblue" stroke="midnightblue" points="347.51,-173.85 337.57,-170.19 343.07,-179.25 347.51,-173.85"/>
</g>
<!-- Node8 -->
<g id="node8" class="node">
<title>Node8</title>
<g id="a_node8"><a xlink:title=" ">
<polygon fill="none" stroke="#bfbfbf" points="302,-11.5 302,-30.5 360,-30.5 360,-11.5 302,-11.5"/>
<text text-anchor="middle" x="331" y="-18.5" font-family="Helvetica,sans-Serif" font-size="10.00">memory</text>
</a>
</g>
</g>
<!-- Node7&#45;&gt;Node8 -->
<g id="edge8" class="edge">
<title>Node7&#45;&gt;Node8</title>
<path fill="none" stroke="midnightblue" d="M400.84,-212.44C387.63,-176.4 352.53,-80.71 337.73,-40.36"/>
<polygon fill="midnightblue" stroke="midnightblue" points="340.94,-38.93 334.21,-30.74 334.36,-41.34 340.94,-38.93"/>
</g>
<!-- Node9 -->
<g id="node9" class="node">
<title>Node9</title>
<g id="a_node9"><a xlink:href="configure_8h.html" target="_top" xlink:title="Defines common constants used across the VoronoiMeshMaker library.">
<polygon fill="none" stroke="black" points="431,-145.5 431,-175.5 567,-175.5 567,-145.5 431,-145.5"/>
<text text-anchor="start" x="439" y="-163.5" font-family="Helvetica,sans-Serif" font-size="10.00">VoronoiMeshMaker/Misc</text>
<text text-anchor="middle" x="499" y="-152.5" font-family="Helvetica,sans-Serif" font-size="10.00">/configure.h</text>
</a>
</g>
</g>
<!-- Node7&#45;&gt;Node9 -->
<g id="edge9" class="edge">
<title>Node7&#45;&gt;Node9</title>
<path fill="none" stroke="midnightblue" d="M426.18,-212.4C439.1,-203.37 456.06,-191.51 470.36,-181.52"/>
<polygon fill="midnightblue" stroke="midnightblue" points="472.67,-184.17 478.86,-175.58 468.66,-178.44 472.67,-184.17"/>
</g>
<!-- Node10 -->
<g id="node10" class="node">
<title>Node10</title>
<g id="a_node10"><a xlink:href="type_8h.html" target="_top" xlink:title="Defines common geometric and numeric types used in the VoronoiMeshMaker library.">
<polygon fill="none" stroke="black" points="437,-78.5 437,-108.5 573,-108.5 573,-78.5 437,-78.5"/>
<text text-anchor="start" x="445" y="-96.5" font-family="Helvetica,sans-Serif" font-size="10.00">VoronoiMeshMaker/Misc</text>
<text text-anchor="middle" x="505" y="-85.5" font-family="Helvetica,sans-Serif" font-size="10.00">/type.h</text>
</a>
</g>
</g>
<!-- Node9&#45;&gt;Node10 -->
<g id="edge10" class="edge">
<title>Node9&#45;&gt;Node10</title>
<path fill="none" stroke="midnightblue" d="M500.3,-145.4C501.03,-137.56 501.95,-127.6 502.78,-118.57"/>
<polygon fill="midnightblue" stroke="midnightblue" points="506.27,-118.86 503.7,-108.58 499.3,-118.21 506.27,-118.86"/>
</g>
<!-- Node10&#45;&gt;Node8 -->
<g id="edge12" class="edge">
<title>Node10&#45;&gt;Node8</title>
<path fill="none" stroke="midnightblue" d="M462.77,-78.4C435.63,-68.95 399.82,-55.76 369,-42 364.47,-39.98 359.73,-37.66 355.2,-35.33"/>
<polygon fill="midnightblue" stroke="midnightblue" points="356.78,-32.21 346.31,-30.63 353.51,-38.4 356.78,-32.21"/>
</g>
<!-- Node11 -->
<g id="node11" class="node">
<title>Node11</title>
<g id="a_node11"><a xlink:title=" ">
<polygon fill="none" stroke="#bfbfbf" points="378,-11.5 378,-30.5 410,-30.5 410,-11.5 378,-11.5"/>
<text text-anchor="middle" x="394" y="-18.5" font-family="Helvetica,sans-Serif" font-size="10.00">list</text>
</a>
</g>
</g>
<!-- Node10&#45;&gt;Node11 -->
<g id="edge11" class="edge">
<title>Node10&#45;&gt;Node11</title>
<path fill="none" stroke="midnightblue" d="M478.81,-78.42C461.46,-68.77 438.4,-55.35 419,-42 416.76,-40.46 414.46,-38.77 412.2,-37.05"/>
<polygon fill="midnightblue" stroke="midnightblue" points="413.97,-33.99 403.96,-30.51 409.62,-39.47 413.97,-33.99"/>
</g>
<!-- Node12 -->
<g id="node12" class="node">
<title>Node12</title>
<g id="a_node12"><a xlink:title=" ">
<polygon fill="none" stroke="#bfbfbf" points="428.5,-11.5 428.5,-30.5 475.5,-30.5 475.5,-11.5 428.5,-11.5"/>
<text text-anchor="middle" x="452" y="-18.5" font-family="Helvetica,sans-Serif" font-size="10.00">vector</text>
</a>
</g>
</g>
<!-- Node10&#45;&gt;Node12 -->
<g id="edge13" class="edge">
<title>Node10&#45;&gt;Node12</title>
<path fill="none" stroke="midnightblue" d="M494.27,-78.23C485.79,-66.95 473.91,-51.15 464.91,-39.17"/>
<polygon fill="midnightblue" stroke="midnightblue" points="467.49,-36.78 458.69,-30.89 461.9,-40.99 467.49,-36.78"/>
</g>
<!-- Node13 -->
<g id="node13" class="node">
<title>Node13</title>
<g id="a_node13"><a xlink:title=" ">
<polygon fill="none" stroke="#bfbfbf" points="493.5,-0.5 493.5,-41.5 622.5,-41.5 622.5,-0.5 493.5,-0.5"/>
<text text-anchor="start" x="501.5" y="-29.5" font-family="Helvetica,sans-Serif" font-size="10.00">CGAL/Exact_predicates</text>
<text text-anchor="start" x="501.5" y="-18.5" font-family="Helvetica,sans-Serif" font-size="10.00">_inexact_constructions</text>
<text text-anchor="middle" x="558" y="-7.5" font-family="Helvetica,sans-Serif" font-size="10.00">_kernel.h</text>
</a>
</g>
</g>
<!-- Node10&#45;&gt;Node13 -->
<g id="edge14" class="edge">
<title>Node10&#45;&gt;Node13</title>
<path fill="none" stroke="midnightblue" d="M515.73,-78.23C521.85,-70.08 529.75,-59.57 537.06,-49.85"/>
<polygon fill="midnightblue" stroke="midnightblue" points="540.06,-51.68 543.27,-41.59 534.47,-47.48 540.06,-51.68"/>
</g>
<!-- Node14 -->
<g id="node14" class="node">
<title>Node14</title>
<g id="a_node14"><a xlink:title=" ">
<polygon fill="none" stroke="#bfbfbf" points="640.5,-11.5 640.5,-30.5 745.5,-30.5 745.5,-11.5 640.5,-11.5"/>
<text text-anchor="middle" x="693" y="-18.5" font-family="Helvetica,sans-Serif" font-size="10.00">CGAL/Polygon_2.h</text>
</a>
</g>
</g>
<!-- Node10&#45;&gt;Node14 -->
<g id="edge15" class="edge">
<title>Node10&#45;&gt;Node14</title>
<path fill="none" stroke="midnightblue" d="M542.59,-78.4C577.16,-65.44 627.89,-46.42 660.68,-34.12"/>
<polygon fill="midnightblue" stroke="midnightblue" points="662.11,-37.32 670.24,-30.53 659.65,-30.77 662.11,-37.32"/>
</g>
<!-- Node15 -->
<g id="node15" class="node">
<title>Node15</title>
<g id="a_node15"><a xlink:title=" ">
<polygon fill="none" stroke="#bfbfbf" points="763.5,-11.5 763.5,-30.5 884.5,-30.5 884.5,-11.5 763.5,-11.5"/>
<text text-anchor="middle" x="824" y="-18.5" font-family="Helvetica,sans-Serif" font-size="10.00">CGAL/Polyhedron_3.h</text>
</a>
</g>
</g>
<!-- Node10&#45;&gt;Node15 -->
<g id="edge16" class="edge">
<title>Node10&#45;&gt;Node15</title>
<path fill="none" stroke="midnightblue" d="M573.25,-80.29C623.7,-70.89 693.94,-56.99 755,-42 765.36,-39.46 776.49,-36.38 786.73,-33.41"/>
<polygon fill="midnightblue" stroke="midnightblue" points="788,-36.69 796.61,-30.51 786.03,-29.97 788,-36.69"/>
</g>
<!-- Node16 -->
<g id="node16" class="node">
<title>Node16</title>
<g id="a_node16"><a xlink:href="namespace_8h.html" target="_top" xlink:title=" ">
<polygon fill="none" stroke="black" points="903,-6 903,-36 1039,-36 1039,-6 903,-6"/>
<text text-anchor="start" x="911" y="-24" font-family="Helvetica,sans-Serif" font-size="10.00">VoronoiMeshMaker/Misc</text>
<text text-anchor="middle" x="971" y="-13" font-family="Helvetica,sans-Serif" font-size="10.00">/namespace.h</text>
</a>
</g>
</g>
<!-- Node10&#45;&gt;Node16 -->
<g id="edge17" class="edge">
<title>Node10&#45;&gt;Node16</title>
<path fill="none" stroke="midnightblue" d="M573.23,-86.25C651.22,-78.51 782.52,-63.63 894,-42 899.42,-40.95 905.03,-39.74 910.64,-38.44"/>
<polygon fill="midnightblue" stroke="midnightblue" points="911.77,-41.77 920.67,-36.03 910.13,-34.96 911.77,-41.77"/>
</g>
</g>
</svg>
