<?xml version="1.0" encoding="UTF-8" standalone="no"?>
<!DOCTYPE svg PUBLIC "-//W3C//DTD SVG 1.1//EN"
 "http://www.w3.org/Graphics/SVG/1.1/DTD/svg11.dtd">
<!-- Generated by graphviz version 2.43.0 (0)
 -->
<!-- Title: VoronoiMeshMaker/include/VoronoiMeshMaker/Misc/misc.h Pages: 1 -->
<svg width="312pt" height="117pt"
 viewBox="0.00 0.00 311.50 117.00" xmlns="http://www.w3.org/2000/svg" xmlns:xlink="http://www.w3.org/1999/xlink">
<g id="graph0" class="graph" transform="scale(1 1) rotate(0) translate(4 113)">
<title>VoronoiMeshMaker/include/VoronoiMeshMaker/Misc/misc.h</title>
<!-- Node1 -->
<g id="node1" class="node">
<title>Node1</title>
<g id="a_node1"><a xlink:title="Provides general&#45;purpose utility functions for the VoronoiMeshMaker library.">
<polygon fill="#bfbfbf" stroke="black" points="62.5,-78.5 62.5,-108.5 236.5,-108.5 236.5,-78.5 62.5,-78.5"/>
<text text-anchor="start" x="70.5" y="-96.5" font-family="Helvetica,sans-Serif" font-size="10.00">VoronoiMeshMaker/include</text>
<text text-anchor="middle" x="149.5" y="-85.5" font-family="Helvetica,sans-Serif" font-size="10.00">/VoronoiMeshMaker/Misc/misc.h</text>
</a>
</g>
</g>
<!-- Node2 -->
<g id="node2" class="node">
<title>Node2</title>
<g id="a_node2"><a xlink:href="misc_8cpp.html" target="_top" xlink:title=" ">
<polygon fill="none" stroke="black" points="0,-0.5 0,-41.5 139,-41.5 139,-0.5 0,-0.5"/>
<text text-anchor="start" x="8" y="-29.5" font-family="Helvetica,sans-Serif" font-size="10.00">VoronoiMeshMaker/src</text>
<text text-anchor="start" x="8" y="-18.5" font-family="Helvetica,sans-Serif" font-size="10.00">/VoronoiMeshMaker/Misc</text>
<text text-anchor="middle" x="69.5" y="-7.5" font-family="Helvetica,sans-Serif" font-size="10.00">/misc.cpp</text>
</a>
</g>
</g>
<!-- Node1&#45;&gt;Node2 -->
<g id="edge1" class="edge">
<title>Node1&#45;&gt;Node2</title>
<path fill="none" stroke="midnightblue" d="M125.53,-71.38C114.81,-61.93 102.24,-50.85 91.73,-41.59"/>
<polygon fill="midnightblue" stroke="midnightblue" points="123.49,-74.25 133.31,-78.23 128.12,-69 123.49,-74.25"/>
</g>
<!-- Node3 -->
<g id="node3" class="node">
<title>Node3</title>
<g id="a_node3"><a xlink:href="PolygonCSV_8cpp.html" target="_top" xlink:title=" ">
<polygon fill="none" stroke="black" points="157.5,-0.5 157.5,-41.5 303.5,-41.5 303.5,-0.5 157.5,-0.5"/>
<text text-anchor="start" x="165.5" y="-29.5" font-family="Helvetica,sans-Serif" font-size="10.00">VoronoiMeshMaker/src</text>
<text text-anchor="start" x="165.5" y="-18.5" font-family="Helvetica,sans-Serif" font-size="10.00">/VoronoiMeshMaker/Shape</text>
<text text-anchor="middle" x="230.5" y="-7.5" font-family="Helvetica,sans-Serif" font-size="10.00">/Shape2D/PolygonCSV.cpp</text>
</a>
</g>
</g>
<!-- Node1&#45;&gt;Node3 -->
<g id="edge2" class="edge">
<title>Node1&#45;&gt;Node3</title>
<path fill="none" stroke="midnightblue" d="M173.45,-71.66C184.38,-62.15 197.25,-50.94 207.99,-41.59"/>
<polygon fill="midnightblue" stroke="midnightblue" points="171.14,-69.03 165.89,-78.23 175.73,-74.31 171.14,-69.03"/>
</g>
</g>
</svg>
