<?xml version="1.0" encoding="UTF-8" standalone="no"?>
<!DOCTYPE svg PUBLIC "-//W3C//DTD SVG 1.1//EN"
 "http://www.w3.org/Graphics/SVG/1.1/DTD/svg11.dtd">
<!-- Generated by graphviz version 2.43.0 (0)
 -->
<!-- Title: VoronoiMeshMaker/include/VoronoiMeshMaker/Misc/namespace.h Pages: 1 -->
<svg width="1548pt" height="507pt"
 viewBox="0.00 0.00 1547.50 507.00" xmlns="http://www.w3.org/2000/svg" xmlns:xlink="http://www.w3.org/1999/xlink">
<g id="graph0" class="graph" transform="scale(1 1) rotate(0) translate(4 503)">
<title>VoronoiMeshMaker/include/VoronoiMeshMaker/Misc/namespace.h</title>
<!-- Node1 -->
<g id="node1" class="node">
<title>Node1</title>
<g id="a_node1"><a xlink:title=" ">
<polygon fill="#bfbfbf" stroke="black" points="1160,-457.5 1160,-498.5 1309,-498.5 1309,-457.5 1160,-457.5"/>
<text text-anchor="start" x="1168" y="-486.5" font-family="Helvetica,sans-Serif" font-size="10.00">VoronoiMeshMaker/include</text>
<text text-anchor="start" x="1168" y="-475.5" font-family="Helvetica,sans-Serif" font-size="10.00">/VoronoiMeshMaker/Misc</text>
<text text-anchor="middle" x="1234.5" y="-464.5" font-family="Helvetica,sans-Serif" font-size="10.00">/namespace.h</text>
</a>
</g>
</g>
<!-- Node2 -->
<g id="node2" class="node">
<title>Node2</title>
<g id="a_node2"><a xlink:href="type_8h.html" target="_top" xlink:title="Defines common geometric and numeric types used in the VoronoiMeshMaker library.">
<polygon fill="none" stroke="black" points="1148,-390.5 1148,-420.5 1321,-420.5 1321,-390.5 1148,-390.5"/>
<text text-anchor="start" x="1156" y="-408.5" font-family="Helvetica,sans-Serif" font-size="10.00">VoronoiMeshMaker/include</text>
<text text-anchor="middle" x="1234.5" y="-397.5" font-family="Helvetica,sans-Serif" font-size="10.00">/VoronoiMeshMaker/Misc/type.h</text>
</a>
</g>
</g>
<!-- Node1&#45;&gt;Node2 -->
<g id="edge1" class="edge">
<title>Node1&#45;&gt;Node2</title>
<path fill="none" stroke="midnightblue" d="M1234.5,-447.08C1234.5,-438.01 1234.5,-428.45 1234.5,-420.89"/>
<polygon fill="midnightblue" stroke="midnightblue" points="1231,-447.36 1234.5,-457.36 1238,-447.36 1231,-447.36"/>
</g>
<!-- Node3 -->
<g id="node3" class="node">
<title>Node3</title>
<g id="a_node3"><a xlink:href="configure_8h.html" target="_top" xlink:title="Defines common constants used across the VoronoiMeshMaker library.">
<polygon fill="none" stroke="black" points="1160,-234.5 1160,-275.5 1309,-275.5 1309,-234.5 1160,-234.5"/>
<text text-anchor="start" x="1168" y="-263.5" font-family="Helvetica,sans-Serif" font-size="10.00">VoronoiMeshMaker/include</text>
<text text-anchor="start" x="1168" y="-252.5" font-family="Helvetica,sans-Serif" font-size="10.00">/VoronoiMeshMaker/Misc</text>
<text text-anchor="middle" x="1234.5" y="-241.5" font-family="Helvetica,sans-Serif" font-size="10.00">/configure.h</text>
</a>
</g>
</g>
<!-- Node2&#45;&gt;Node3 -->
<g id="edge2" class="edge">
<title>Node2&#45;&gt;Node3</title>
<path fill="none" stroke="midnightblue" d="M1234.5,-380.08C1234.5,-350.83 1234.5,-302.44 1234.5,-275.55"/>
<polygon fill="midnightblue" stroke="midnightblue" points="1231,-380.26 1234.5,-390.26 1238,-380.26 1231,-380.26"/>
</g>
<!-- Node9 -->
<g id="node9" class="node">
<title>Node9</title>
<g id="a_node9"><a xlink:href="PolygonCSV_8cpp.html" target="_top" xlink:title=" ">
<polygon fill="none" stroke="black" points="1298.5,-0.5 1298.5,-41.5 1444.5,-41.5 1444.5,-0.5 1298.5,-0.5"/>
<text text-anchor="start" x="1306.5" y="-29.5" font-family="Helvetica,sans-Serif" font-size="10.00">VoronoiMeshMaker/src</text>
<text text-anchor="start" x="1306.5" y="-18.5" font-family="Helvetica,sans-Serif" font-size="10.00">/VoronoiMeshMaker/Shape</text>
<text text-anchor="middle" x="1371.5" y="-7.5" font-family="Helvetica,sans-Serif" font-size="10.00">/Shape2D/PolygonCSV.cpp</text>
</a>
</g>
</g>
<!-- Node2&#45;&gt;Node9 -->
<g id="edge37" class="edge">
<title>Node2&#45;&gt;Node9</title>
<path fill="none" stroke="midnightblue" d="M1331,-397.27C1420.36,-384.68 1539.5,-350.23 1539.5,-256 1539.5,-256 1539.5,-256 1539.5,-176 1539.5,-128.96 1532.35,-111.68 1499.5,-78 1483.75,-61.85 1462.55,-50.05 1441.94,-41.56"/>
<polygon fill="midnightblue" stroke="midnightblue" points="1330.53,-393.8 1321.08,-398.59 1331.46,-400.74 1330.53,-393.8"/>
</g>
<!-- Node15 -->
<g id="node15" class="node">
<title>Node15</title>
<g id="a_node15"><a xlink:href="GeometricDataHolder_8h.html" target="_top" xlink:title=" ">
<polygon fill="none" stroke="black" points="399,-312.5 399,-353.5 572,-353.5 572,-312.5 399,-312.5"/>
<text text-anchor="start" x="407" y="-341.5" font-family="Helvetica,sans-Serif" font-size="10.00">VoronoiMeshMaker/include</text>
<text text-anchor="start" x="407" y="-330.5" font-family="Helvetica,sans-Serif" font-size="10.00">/VoronoiMeshMaker/Parameters</text>
<text text-anchor="middle" x="485.5" y="-319.5" font-family="Helvetica,sans-Serif" font-size="10.00">/GeometricDataHolder.h</text>
</a>
</g>
</g>
<!-- Node2&#45;&gt;Node15 -->
<g id="edge15" class="edge">
<title>Node2&#45;&gt;Node15</title>
<path fill="none" stroke="midnightblue" d="M1137.48,-395.37C990.34,-381.52 713.03,-355.42 572.24,-342.16"/>
<polygon fill="midnightblue" stroke="midnightblue" points="1137.56,-398.89 1147.85,-396.34 1138.22,-391.92 1137.56,-398.89"/>
</g>
<!-- Node4 -->
<g id="node4" class="node">
<title>Node4</title>
<g id="a_node4"><a xlink:href="id_8h.html" target="_top" xlink:title=" ">
<polygon fill="none" stroke="black" points="985.5,-162 985.5,-192 1145.5,-192 1145.5,-162 985.5,-162"/>
<text text-anchor="start" x="993.5" y="-180" font-family="Helvetica,sans-Serif" font-size="10.00">VoronoiMeshMaker/include</text>
<text text-anchor="middle" x="1065.5" y="-169" font-family="Helvetica,sans-Serif" font-size="10.00">/VoronoiMeshMaker/Misc/id.h</text>
</a>
</g>
</g>
<!-- Node3&#45;&gt;Node4 -->
<g id="edge3" class="edge">
<title>Node3&#45;&gt;Node4</title>
<path fill="none" stroke="midnightblue" d="M1181.76,-230.28C1153.9,-217.76 1120.66,-202.81 1096.87,-192.11"/>
<polygon fill="midnightblue" stroke="midnightblue" points="1180.42,-233.52 1190.98,-234.43 1183.29,-227.13 1180.42,-233.52"/>
</g>
<!-- Node13 -->
<g id="node13" class="node">
<title>Node13</title>
<g id="a_node13"><a xlink:href="misc_8h.html" target="_top" xlink:title="Provides general&#45;purpose utility functions for the VoronoiMeshMaker library.">
<polygon fill="none" stroke="black" points="1316.5,-162 1316.5,-192 1490.5,-192 1490.5,-162 1316.5,-162"/>
<text text-anchor="start" x="1324.5" y="-180" font-family="Helvetica,sans-Serif" font-size="10.00">VoronoiMeshMaker/include</text>
<text text-anchor="middle" x="1403.5" y="-169" font-family="Helvetica,sans-Serif" font-size="10.00">/VoronoiMeshMaker/Misc/misc.h</text>
</a>
</g>
</g>
<!-- Node3&#45;&gt;Node13 -->
<g id="edge12" class="edge">
<title>Node3&#45;&gt;Node13</title>
<path fill="none" stroke="midnightblue" d="M1287.24,-230.28C1315.1,-217.76 1348.34,-202.81 1372.13,-192.11"/>
<polygon fill="midnightblue" stroke="midnightblue" points="1285.71,-227.13 1278.02,-234.43 1288.58,-233.52 1285.71,-227.13"/>
</g>
<!-- Node5 -->
<g id="node5" class="node">
<title>Node5</title>
<g id="a_node5"><a xlink:href="MakerException_8h.html" target="_top" xlink:title=" ">
<polygon fill="none" stroke="black" points="833,-78.5 833,-119.5 982,-119.5 982,-78.5 833,-78.5"/>
<text text-anchor="start" x="841" y="-107.5" font-family="Helvetica,sans-Serif" font-size="10.00">VoronoiMeshMaker/include</text>
<text text-anchor="start" x="841" y="-96.5" font-family="Helvetica,sans-Serif" font-size="10.00">/VoronoiMeshMaker/Error</text>
<text text-anchor="middle" x="907.5" y="-85.5" font-family="Helvetica,sans-Serif" font-size="10.00">/MakerException.h</text>
</a>
</g>
</g>
<!-- Node4&#45;&gt;Node5 -->
<g id="edge4" class="edge">
<title>Node4&#45;&gt;Node5</title>
<path fill="none" stroke="midnightblue" d="M1027.04,-157.5C1003.19,-146.03 972.58,-131.3 948.31,-119.63"/>
<polygon fill="midnightblue" stroke="midnightblue" points="1025.62,-160.7 1036.15,-161.88 1028.66,-154.39 1025.62,-160.7"/>
</g>
<!-- Node6 -->
<g id="node6" class="node">
<title>Node6</title>
<g id="a_node6"><a xlink:href="MakerException_8cpp.html" target="_top" xlink:title=" ">
<polygon fill="none" stroke="black" points="838.5,-0.5 838.5,-41.5 978.5,-41.5 978.5,-0.5 838.5,-0.5"/>
<text text-anchor="start" x="846.5" y="-29.5" font-family="Helvetica,sans-Serif" font-size="10.00">VoronoiMeshMaker/src</text>
<text text-anchor="start" x="846.5" y="-18.5" font-family="Helvetica,sans-Serif" font-size="10.00">/VoronoiMeshMaker/Error</text>
<text text-anchor="middle" x="908.5" y="-7.5" font-family="Helvetica,sans-Serif" font-size="10.00">/MakerException.cpp</text>
</a>
</g>
</g>
<!-- Node5&#45;&gt;Node6 -->
<g id="edge5" class="edge">
<title>Node5&#45;&gt;Node6</title>
<path fill="none" stroke="midnightblue" d="M907.89,-68.3C908.01,-59.3 908.14,-49.65 908.24,-41.51"/>
<polygon fill="midnightblue" stroke="midnightblue" points="904.39,-68.38 907.76,-78.43 911.39,-68.48 904.39,-68.38"/>
</g>
<!-- Node7 -->
<g id="node7" class="node">
<title>Node7</title>
<g id="a_node7"><a xlink:href="Ellipse_8cpp.html" target="_top" xlink:title=" ">
<polygon fill="none" stroke="black" points="168.5,-0.5 168.5,-41.5 314.5,-41.5 314.5,-0.5 168.5,-0.5"/>
<text text-anchor="start" x="176.5" y="-29.5" font-family="Helvetica,sans-Serif" font-size="10.00">VoronoiMeshMaker/src</text>
<text text-anchor="start" x="176.5" y="-18.5" font-family="Helvetica,sans-Serif" font-size="10.00">/VoronoiMeshMaker/Shape</text>
<text text-anchor="middle" x="241.5" y="-7.5" font-family="Helvetica,sans-Serif" font-size="10.00">/Shape2D/Ellipse.cpp</text>
</a>
</g>
</g>
<!-- Node5&#45;&gt;Node7 -->
<g id="edge6" class="edge">
<title>Node5&#45;&gt;Node7</title>
<path fill="none" stroke="midnightblue" d="M823.06,-77.91C603.45,-44.81 542.65,-75.03 326.5,-42 322.6,-41.4 318.62,-40.72 314.61,-39.98"/>
<polygon fill="midnightblue" stroke="midnightblue" points="822.54,-81.37 832.96,-79.43 823.61,-74.45 822.54,-81.37"/>
</g>
<!-- Node8 -->
<g id="node8" class="node">
<title>Node8</title>
<g id="a_node8"><a xlink:href="Polygon_8cpp.html" target="_top" xlink:title=" ">
<polygon fill="none" stroke="black" points="998.5,-0.5 998.5,-41.5 1144.5,-41.5 1144.5,-0.5 998.5,-0.5"/>
<text text-anchor="start" x="1006.5" y="-29.5" font-family="Helvetica,sans-Serif" font-size="10.00">VoronoiMeshMaker/src</text>
<text text-anchor="start" x="1006.5" y="-18.5" font-family="Helvetica,sans-Serif" font-size="10.00">/VoronoiMeshMaker/Shape</text>
<text text-anchor="middle" x="1071.5" y="-7.5" font-family="Helvetica,sans-Serif" font-size="10.00">/Shape2D/Polygon.cpp</text>
</a>
</g>
</g>
<!-- Node5&#45;&gt;Node8 -->
<g id="edge7" class="edge">
<title>Node5&#45;&gt;Node8</title>
<path fill="none" stroke="midnightblue" d="M958.88,-74.19C981.57,-63.67 1007.91,-51.47 1029.41,-41.51"/>
<polygon fill="midnightblue" stroke="midnightblue" points="957.34,-71.05 949.73,-78.43 960.28,-77.4 957.34,-71.05"/>
</g>
<!-- Node5&#45;&gt;Node9 -->
<g id="edge8" class="edge">
<title>Node5&#45;&gt;Node9</title>
<path fill="none" stroke="midnightblue" d="M991.91,-78C1104.57,-56.64 1223.75,-40.31 1298.33,-30.85"/>
<polygon fill="midnightblue" stroke="midnightblue" points="991.25,-74.57 982.08,-79.88 992.56,-81.44 991.25,-74.57"/>
</g>
<!-- Node10 -->
<g id="node10" class="node">
<title>Node10</title>
<g id="a_node10"><a xlink:href="Rectangle_8cpp.html" target="_top" xlink:title=" ">
<polygon fill="none" stroke="black" points="510.5,-0.5 510.5,-41.5 656.5,-41.5 656.5,-0.5 510.5,-0.5"/>
<text text-anchor="start" x="518.5" y="-29.5" font-family="Helvetica,sans-Serif" font-size="10.00">VoronoiMeshMaker/src</text>
<text text-anchor="start" x="518.5" y="-18.5" font-family="Helvetica,sans-Serif" font-size="10.00">/VoronoiMeshMaker/Shape</text>
<text text-anchor="middle" x="583.5" y="-7.5" font-family="Helvetica,sans-Serif" font-size="10.00">/Shape2D/Rectangle.cpp</text>
</a>
</g>
</g>
<!-- Node5&#45;&gt;Node10 -->
<g id="edge9" class="edge">
<title>Node5&#45;&gt;Node10</title>
<path fill="none" stroke="midnightblue" d="M823.01,-77.67C752.31,-61.24 733,-57.87 665.5,-42 662.65,-41.33 659.74,-40.64 656.8,-39.94"/>
<polygon fill="midnightblue" stroke="midnightblue" points="822.32,-81.1 832.85,-79.96 823.91,-74.28 822.32,-81.1"/>
</g>
<!-- Node11 -->
<g id="node11" class="node">
<title>Node11</title>
<g id="a_node11"><a xlink:href="Star_8cpp.html" target="_top" xlink:title=" ">
<polygon fill="none" stroke="black" points="335.5,-0.5 335.5,-41.5 481.5,-41.5 481.5,-0.5 335.5,-0.5"/>
<text text-anchor="start" x="343.5" y="-29.5" font-family="Helvetica,sans-Serif" font-size="10.00">VoronoiMeshMaker/src</text>
<text text-anchor="start" x="343.5" y="-18.5" font-family="Helvetica,sans-Serif" font-size="10.00">/VoronoiMeshMaker/Shape</text>
<text text-anchor="middle" x="408.5" y="-7.5" font-family="Helvetica,sans-Serif" font-size="10.00">/Shape2D/Star.cpp</text>
</a>
</g>
</g>
<!-- Node5&#45;&gt;Node11 -->
<g id="edge10" class="edge">
<title>Node5&#45;&gt;Node11</title>
<path fill="none" stroke="midnightblue" d="M822.95,-77.84C680.46,-53.56 640.86,-64.69 501.5,-42 495.06,-40.95 488.4,-39.75 481.73,-38.47"/>
<polygon fill="midnightblue" stroke="midnightblue" points="822.49,-81.31 832.94,-79.57 823.68,-74.41 822.49,-81.31"/>
</g>
<!-- Node12 -->
<g id="node12" class="node">
<title>Node12</title>
<g id="a_node12"><a xlink:href="ShapeFactory_8cpp.html" target="_top" xlink:title="Implements the ShapeFactory methods for creating shape objects. This file contains the registration a...">
<polygon fill="none" stroke="black" points="674.5,-0.5 674.5,-41.5 820.5,-41.5 820.5,-0.5 674.5,-0.5"/>
<text text-anchor="start" x="682.5" y="-29.5" font-family="Helvetica,sans-Serif" font-size="10.00">VoronoiMeshMaker/src</text>
<text text-anchor="start" x="682.5" y="-18.5" font-family="Helvetica,sans-Serif" font-size="10.00">/VoronoiMeshMaker/Shape</text>
<text text-anchor="middle" x="747.5" y="-7.5" font-family="Helvetica,sans-Serif" font-size="10.00">/ShapeFactory.cpp</text>
</a>
</g>
</g>
<!-- Node5&#45;&gt;Node12 -->
<g id="edge11" class="edge">
<title>Node5&#45;&gt;Node12</title>
<path fill="none" stroke="midnightblue" d="M857.08,-74.05C835.01,-63.57 809.45,-51.42 788.56,-41.51"/>
<polygon fill="midnightblue" stroke="midnightblue" points="855.76,-77.3 866.3,-78.43 858.76,-70.98 855.76,-77.3"/>
</g>
<!-- Node13&#45;&gt;Node9 -->
<g id="edge14" class="edge">
<title>Node13&#45;&gt;Node9</title>
<path fill="none" stroke="midnightblue" d="M1445.35,-156.73C1459.83,-147.77 1474.45,-135.58 1482.5,-120 1491.07,-103.42 1492.29,-93.9 1482.5,-78 1472.43,-61.64 1455.95,-49.89 1438.72,-41.52"/>
<polygon fill="midnightblue" stroke="midnightblue" points="1443.31,-153.87 1436.4,-161.9 1446.81,-159.93 1443.31,-153.87"/>
</g>
<!-- Node14 -->
<g id="node14" class="node">
<title>Node14</title>
<g id="a_node14"><a xlink:href="misc_8cpp.html" target="_top" xlink:title=" ">
<polygon fill="none" stroke="black" points="1334,-78.5 1334,-119.5 1473,-119.5 1473,-78.5 1334,-78.5"/>
<text text-anchor="start" x="1342" y="-107.5" font-family="Helvetica,sans-Serif" font-size="10.00">VoronoiMeshMaker/src</text>
<text text-anchor="start" x="1342" y="-96.5" font-family="Helvetica,sans-Serif" font-size="10.00">/VoronoiMeshMaker/Misc</text>
<text text-anchor="middle" x="1403.5" y="-85.5" font-family="Helvetica,sans-Serif" font-size="10.00">/misc.cpp</text>
</a>
</g>
</g>
<!-- Node13&#45;&gt;Node14 -->
<g id="edge13" class="edge">
<title>Node13&#45;&gt;Node14</title>
<path fill="none" stroke="midnightblue" d="M1403.5,-151.66C1403.5,-141.33 1403.5,-129.44 1403.5,-119.68"/>
<polygon fill="midnightblue" stroke="midnightblue" points="1400,-151.7 1403.5,-161.7 1407,-151.71 1400,-151.7"/>
</g>
<!-- Node16 -->
<g id="node16" class="node">
<title>Node16</title>
<g id="a_node16"><a xlink:href="Shape_8h.html" target="_top" xlink:title="Defines the Shape class, which serves as the abstract base class for all shapes.">
<polygon fill="none" stroke="black" points="500,-234.5 500,-275.5 649,-275.5 649,-234.5 500,-234.5"/>
<text text-anchor="start" x="508" y="-263.5" font-family="Helvetica,sans-Serif" font-size="10.00">VoronoiMeshMaker/include</text>
<text text-anchor="start" x="508" y="-252.5" font-family="Helvetica,sans-Serif" font-size="10.00">/VoronoiMeshMaker/Shape</text>
<text text-anchor="middle" x="574.5" y="-241.5" font-family="Helvetica,sans-Serif" font-size="10.00">/Shape.h</text>
</a>
</g>
</g>
<!-- Node15&#45;&gt;Node16 -->
<g id="edge16" class="edge">
<title>Node15&#45;&gt;Node16</title>
<path fill="none" stroke="midnightblue" d="M516.21,-305.78C527.84,-295.84 540.87,-284.72 551.66,-275.51"/>
<polygon fill="midnightblue" stroke="midnightblue" points="513.75,-303.27 508.42,-312.43 518.3,-308.6 513.75,-303.27"/>
</g>
<!-- Node24 -->
<g id="node24" class="node">
<title>Node24</title>
<g id="a_node24"><a xlink:href="ShapeFactory_8h.html" target="_top" xlink:title=" ">
<polygon fill="none" stroke="black" points="167,-78.5 167,-119.5 316,-119.5 316,-78.5 167,-78.5"/>
<text text-anchor="start" x="175" y="-107.5" font-family="Helvetica,sans-Serif" font-size="10.00">VoronoiMeshMaker/include</text>
<text text-anchor="start" x="175" y="-96.5" font-family="Helvetica,sans-Serif" font-size="10.00">/VoronoiMeshMaker/Shape</text>
<text text-anchor="middle" x="241.5" y="-85.5" font-family="Helvetica,sans-Serif" font-size="10.00">/ShapeFactory.h</text>
</a>
</g>
</g>
<!-- Node15&#45;&gt;Node24 -->
<g id="edge35" class="edge">
<title>Node15&#45;&gt;Node24</title>
<path fill="none" stroke="midnightblue" d="M389.08,-321.1C357.11,-313.14 323.58,-299.46 299.5,-276 255.38,-233 244.81,-155.85 242.29,-119.7"/>
<polygon fill="midnightblue" stroke="midnightblue" points="388.4,-324.54 398.94,-323.39 389.99,-317.72 388.4,-324.54"/>
</g>
<!-- Node26 -->
<g id="node26" class="node">
<title>Node26</title>
<g id="a_node26"><a xlink:href="GeometricDataHolder_8cpp.html" target="_top" xlink:title=" ">
<polygon fill="none" stroke="black" points="309,-234.5 309,-275.5 482,-275.5 482,-234.5 309,-234.5"/>
<text text-anchor="start" x="317" y="-263.5" font-family="Helvetica,sans-Serif" font-size="10.00">VoronoiMeshMaker/src</text>
<text text-anchor="start" x="317" y="-252.5" font-family="Helvetica,sans-Serif" font-size="10.00">/VoronoiMeshMaker/Parameters</text>
<text text-anchor="middle" x="395.5" y="-241.5" font-family="Helvetica,sans-Serif" font-size="10.00">/GeometricDataHolder.cpp</text>
</a>
</g>
</g>
<!-- Node15&#45;&gt;Node26 -->
<g id="edge36" class="edge">
<title>Node15&#45;&gt;Node26</title>
<path fill="none" stroke="midnightblue" d="M454.45,-305.78C442.68,-295.84 429.51,-284.72 418.6,-275.51"/>
<polygon fill="midnightblue" stroke="midnightblue" points="452.42,-308.65 462.32,-312.43 456.94,-303.3 452.42,-308.65"/>
</g>
<!-- Node17 -->
<g id="node17" class="node">
<title>Node17</title>
<g id="a_node17"><a xlink:href="Shape2D_8h.html" target="_top" xlink:title="Defines the Shape2D class, which represents 2D geometric shapes.">
<polygon fill="none" stroke="black" points="500,-156.5 500,-197.5 649,-197.5 649,-156.5 500,-156.5"/>
<text text-anchor="start" x="508" y="-185.5" font-family="Helvetica,sans-Serif" font-size="10.00">VoronoiMeshMaker/include</text>
<text text-anchor="start" x="508" y="-174.5" font-family="Helvetica,sans-Serif" font-size="10.00">/VoronoiMeshMaker/Shape</text>
<text text-anchor="middle" x="574.5" y="-163.5" font-family="Helvetica,sans-Serif" font-size="10.00">/Shape2D/Shape2D.h</text>
</a>
</g>
</g>
<!-- Node16&#45;&gt;Node17 -->
<g id="edge17" class="edge">
<title>Node16&#45;&gt;Node17</title>
<path fill="none" stroke="midnightblue" d="M574.5,-224.3C574.5,-215.3 574.5,-205.65 574.5,-197.51"/>
<polygon fill="midnightblue" stroke="midnightblue" points="571,-224.43 574.5,-234.43 578,-224.43 571,-224.43"/>
</g>
<!-- Node16&#45;&gt;Node24 -->
<g id="edge29" class="edge">
<title>Node16&#45;&gt;Node24</title>
<path fill="none" stroke="midnightblue" d="M522.98,-230.17C457.26,-199.78 344.84,-147.79 283.86,-119.59"/>
<polygon fill="midnightblue" stroke="midnightblue" points="521.78,-233.47 532.33,-234.5 524.72,-227.12 521.78,-233.47"/>
</g>
<!-- Node25 -->
<g id="node25" class="node">
<title>Node25</title>
<g id="a_node25"><a xlink:href="Shape_8cpp.html" target="_top" xlink:title="Implementation of the Shape class methods.">
<polygon fill="none" stroke="black" points="667.5,-156.5 667.5,-197.5 813.5,-197.5 813.5,-156.5 667.5,-156.5"/>
<text text-anchor="start" x="675.5" y="-185.5" font-family="Helvetica,sans-Serif" font-size="10.00">VoronoiMeshMaker/src</text>
<text text-anchor="start" x="675.5" y="-174.5" font-family="Helvetica,sans-Serif" font-size="10.00">/VoronoiMeshMaker/Shape</text>
<text text-anchor="middle" x="740.5" y="-163.5" font-family="Helvetica,sans-Serif" font-size="10.00">/Shape.cpp</text>
</a>
</g>
</g>
<!-- Node16&#45;&gt;Node25 -->
<g id="edge34" class="edge">
<title>Node16&#45;&gt;Node25</title>
<path fill="none" stroke="midnightblue" d="M626.51,-230.19C649.47,-219.67 676.13,-207.47 697.9,-197.51"/>
<polygon fill="midnightblue" stroke="midnightblue" points="624.88,-227.08 617.25,-234.43 627.8,-233.45 624.88,-227.08"/>
</g>
<!-- Node18 -->
<g id="node18" class="node">
<title>Node18</title>
<g id="a_node18"><a xlink:href="Ellipse_8h.html" target="_top" xlink:title=" ">
<polygon fill="none" stroke="black" points="0,-78.5 0,-119.5 149,-119.5 149,-78.5 0,-78.5"/>
<text text-anchor="start" x="8" y="-107.5" font-family="Helvetica,sans-Serif" font-size="10.00">VoronoiMeshMaker/include</text>
<text text-anchor="start" x="8" y="-96.5" font-family="Helvetica,sans-Serif" font-size="10.00">/VoronoiMeshMaker/Shape</text>
<text text-anchor="middle" x="74.5" y="-85.5" font-family="Helvetica,sans-Serif" font-size="10.00">/Shape2D/Ellipse.h</text>
</a>
</g>
</g>
<!-- Node17&#45;&gt;Node18 -->
<g id="edge18" class="edge">
<title>Node17&#45;&gt;Node18</title>
<path fill="none" stroke="midnightblue" d="M489.87,-167.22C405.34,-157.85 271.86,-141.4 157.5,-120 154.73,-119.48 151.92,-118.93 149.08,-118.35"/>
<polygon fill="midnightblue" stroke="midnightblue" points="489.61,-170.71 499.93,-168.33 490.38,-163.76 489.61,-170.71"/>
</g>
<!-- Node19 -->
<g id="node19" class="node">
<title>Node19</title>
<g id="a_node19"><a xlink:href="Polygon_8h.html" target="_top" xlink:title=" ">
<polygon fill="none" stroke="black" points="1000,-78.5 1000,-119.5 1149,-119.5 1149,-78.5 1000,-78.5"/>
<text text-anchor="start" x="1008" y="-107.5" font-family="Helvetica,sans-Serif" font-size="10.00">VoronoiMeshMaker/include</text>
<text text-anchor="start" x="1008" y="-96.5" font-family="Helvetica,sans-Serif" font-size="10.00">/VoronoiMeshMaker/Shape</text>
<text text-anchor="middle" x="1074.5" y="-85.5" font-family="Helvetica,sans-Serif" font-size="10.00">/Shape2D/Polygon.h</text>
</a>
</g>
</g>
<!-- Node17&#45;&gt;Node19 -->
<g id="edge20" class="edge">
<title>Node17&#45;&gt;Node19</title>
<path fill="none" stroke="midnightblue" d="M658.96,-156.05C806.95,-131.33 847.99,-144.94 991.5,-120 994.27,-119.52 997.09,-119 999.94,-118.45"/>
<polygon fill="midnightblue" stroke="midnightblue" points="658.33,-152.61 649.05,-157.73 659.5,-159.51 658.33,-152.61"/>
</g>
<!-- Node20 -->
<g id="node20" class="node">
<title>Node20</title>
<g id="a_node20"><a xlink:href="PolygonCSV_8h.html" target="_top" xlink:title=" ">
<polygon fill="none" stroke="black" points="1167,-78.5 1167,-119.5 1316,-119.5 1316,-78.5 1167,-78.5"/>
<text text-anchor="start" x="1175" y="-107.5" font-family="Helvetica,sans-Serif" font-size="10.00">VoronoiMeshMaker/include</text>
<text text-anchor="start" x="1175" y="-96.5" font-family="Helvetica,sans-Serif" font-size="10.00">/VoronoiMeshMaker/Shape</text>
<text text-anchor="middle" x="1241.5" y="-85.5" font-family="Helvetica,sans-Serif" font-size="10.00">/Shape2D/PolygonCSV.h</text>
</a>
</g>
</g>
<!-- Node17&#45;&gt;Node20 -->
<g id="edge22" class="edge">
<title>Node17&#45;&gt;Node20</title>
<path fill="none" stroke="midnightblue" d="M659.02,-156.08C880.48,-123.01 941.57,-153.71 1158.5,-120 1161.28,-119.57 1164.11,-119.09 1166.96,-118.57"/>
<polygon fill="midnightblue" stroke="midnightblue" points="658.39,-152.63 649.03,-157.59 659.44,-159.55 658.39,-152.63"/>
</g>
<!-- Node21 -->
<g id="node21" class="node">
<title>Node21</title>
<g id="a_node21"><a xlink:href="Rectangle_8h.html" target="_top" xlink:title=" ">
<polygon fill="none" stroke="black" points="666,-78.5 666,-119.5 815,-119.5 815,-78.5 666,-78.5"/>
<text text-anchor="start" x="674" y="-107.5" font-family="Helvetica,sans-Serif" font-size="10.00">VoronoiMeshMaker/include</text>
<text text-anchor="start" x="674" y="-96.5" font-family="Helvetica,sans-Serif" font-size="10.00">/VoronoiMeshMaker/Shape</text>
<text text-anchor="middle" x="740.5" y="-85.5" font-family="Helvetica,sans-Serif" font-size="10.00">/Shape2D/Rectangle.h</text>
</a>
</g>
</g>
<!-- Node17&#45;&gt;Node21 -->
<g id="edge24" class="edge">
<title>Node17&#45;&gt;Node21</title>
<path fill="none" stroke="midnightblue" d="M626.51,-152.19C649.47,-141.67 676.13,-129.47 697.9,-119.51"/>
<polygon fill="midnightblue" stroke="midnightblue" points="624.88,-149.08 617.25,-156.43 627.8,-155.45 624.88,-149.08"/>
</g>
<!-- Node22 -->
<g id="node22" class="node">
<title>Node22</title>
<g id="a_node22"><a xlink:href="Star_8h.html" target="_top" xlink:title=" ">
<polygon fill="none" stroke="black" points="334,-78.5 334,-119.5 483,-119.5 483,-78.5 334,-78.5"/>
<text text-anchor="start" x="342" y="-107.5" font-family="Helvetica,sans-Serif" font-size="10.00">VoronoiMeshMaker/include</text>
<text text-anchor="start" x="342" y="-96.5" font-family="Helvetica,sans-Serif" font-size="10.00">/VoronoiMeshMaker/Shape</text>
<text text-anchor="middle" x="408.5" y="-85.5" font-family="Helvetica,sans-Serif" font-size="10.00">/Shape2D/Star.h</text>
</a>
</g>
</g>
<!-- Node17&#45;&gt;Node22 -->
<g id="edge26" class="edge">
<title>Node17&#45;&gt;Node22</title>
<path fill="none" stroke="midnightblue" d="M522.49,-152.19C499.53,-141.67 472.87,-129.47 451.1,-119.51"/>
<polygon fill="midnightblue" stroke="midnightblue" points="521.2,-155.45 531.75,-156.43 524.12,-149.08 521.2,-155.45"/>
</g>
<!-- Node23 -->
<g id="node23" class="node">
<title>Node23</title>
<g id="a_node23"><a xlink:href="Shape2D_8cpp.html" target="_top" xlink:title="Implementation of the Shape2D class methods.">
<polygon fill="none" stroke="black" points="501.5,-78.5 501.5,-119.5 647.5,-119.5 647.5,-78.5 501.5,-78.5"/>
<text text-anchor="start" x="509.5" y="-107.5" font-family="Helvetica,sans-Serif" font-size="10.00">VoronoiMeshMaker/src</text>
<text text-anchor="start" x="509.5" y="-96.5" font-family="Helvetica,sans-Serif" font-size="10.00">/VoronoiMeshMaker/Shape</text>
<text text-anchor="middle" x="574.5" y="-85.5" font-family="Helvetica,sans-Serif" font-size="10.00">/Shape2D/Shape2D.cpp</text>
</a>
</g>
</g>
<!-- Node17&#45;&gt;Node23 -->
<g id="edge28" class="edge">
<title>Node17&#45;&gt;Node23</title>
<path fill="none" stroke="midnightblue" d="M574.5,-146.3C574.5,-137.3 574.5,-127.65 574.5,-119.51"/>
<polygon fill="midnightblue" stroke="midnightblue" points="571,-146.43 574.5,-156.43 578,-146.43 571,-146.43"/>
</g>
<!-- Node18&#45;&gt;Node7 -->
<g id="edge19" class="edge">
<title>Node18&#45;&gt;Node7</title>
<path fill="none" stroke="midnightblue" d="M126.82,-74.19C149.92,-63.67 176.75,-51.47 198.64,-41.51"/>
<polygon fill="midnightblue" stroke="midnightblue" points="125.16,-71.1 117.51,-78.43 128.06,-77.47 125.16,-71.1"/>
</g>
<!-- Node19&#45;&gt;Node8 -->
<g id="edge21" class="edge">
<title>Node19&#45;&gt;Node8</title>
<path fill="none" stroke="midnightblue" d="M1073.33,-68.3C1072.97,-59.3 1072.59,-49.65 1072.27,-41.51"/>
<polygon fill="midnightblue" stroke="midnightblue" points="1069.84,-68.57 1073.73,-78.43 1076.83,-68.3 1069.84,-68.57"/>
</g>
<!-- Node20&#45;&gt;Node9 -->
<g id="edge23" class="edge">
<title>Node20&#45;&gt;Node9</title>
<path fill="none" stroke="midnightblue" d="M1283.92,-73.2C1301.51,-62.92 1321.62,-51.16 1338.14,-41.51"/>
<polygon fill="midnightblue" stroke="midnightblue" points="1281.84,-70.36 1274.98,-78.43 1285.38,-76.4 1281.84,-70.36"/>
</g>
<!-- Node21&#45;&gt;Node10 -->
<g id="edge25" class="edge">
<title>Node21&#45;&gt;Node10</title>
<path fill="none" stroke="midnightblue" d="M691.02,-74.05C669.37,-63.57 644.28,-51.42 623.79,-41.51"/>
<polygon fill="midnightblue" stroke="midnightblue" points="689.54,-77.22 700.07,-78.43 692.59,-70.92 689.54,-77.22"/>
</g>
<!-- Node22&#45;&gt;Node11 -->
<g id="edge27" class="edge">
<title>Node22&#45;&gt;Node11</title>
<path fill="none" stroke="midnightblue" d="M408.5,-68.3C408.5,-59.3 408.5,-49.65 408.5,-41.51"/>
<polygon fill="midnightblue" stroke="midnightblue" points="405,-68.43 408.5,-78.43 412,-68.43 405,-68.43"/>
</g>
<!-- Node24&#45;&gt;Node7 -->
<g id="edge30" class="edge">
<title>Node24&#45;&gt;Node7</title>
<path fill="none" stroke="midnightblue" d="M241.5,-68.3C241.5,-59.3 241.5,-49.65 241.5,-41.51"/>
<polygon fill="midnightblue" stroke="midnightblue" points="238,-68.43 241.5,-78.43 245,-68.43 238,-68.43"/>
</g>
<!-- Node24&#45;&gt;Node10 -->
<g id="edge31" class="edge">
<title>Node24&#45;&gt;Node10</title>
<path fill="none" stroke="midnightblue" d="M326.29,-77.64C362.13,-69.65 447.46,-51.26 510.43,-37.71"/>
<polygon fill="midnightblue" stroke="midnightblue" points="325.12,-74.32 316.14,-79.93 326.66,-81.14 325.12,-74.32"/>
</g>
<!-- Node24&#45;&gt;Node11 -->
<g id="edge32" class="edge">
<title>Node24&#45;&gt;Node11</title>
<path fill="none" stroke="midnightblue" d="M293.82,-74.19C316.92,-63.67 343.75,-51.47 365.64,-41.51"/>
<polygon fill="midnightblue" stroke="midnightblue" points="292.16,-71.1 284.51,-78.43 295.06,-77.47 292.16,-71.1"/>
</g>
<!-- Node24&#45;&gt;Node12 -->
<g id="edge33" class="edge">
<title>Node24&#45;&gt;Node12</title>
<path fill="none" stroke="midnightblue" d="M326.12,-77.84C476.48,-52.76 518.58,-67.55 665.5,-42 668.39,-41.5 671.32,-40.95 674.28,-40.37"/>
<polygon fill="midnightblue" stroke="midnightblue" points="325.33,-74.42 316.06,-79.55 326.51,-81.32 325.33,-74.42"/>
</g>
</g>
</svg>
