<?xml version="1.0" encoding="UTF-8" standalone="no"?>
<!DOCTYPE svg PUBLIC "-//W3C//DTD SVG 1.1//EN"
 "http://www.w3.org/Graphics/SVG/1.1/DTD/svg11.dtd">
<!-- Generated by graphviz version 2.43.0 (0)
 -->
<!-- Title: VoronoiMeshMaker/src/VoronoiMeshMaker/Shape/Shape2D/Polygon.cpp Pages: 1 -->
<svg width="921pt" height="463pt"
 viewBox="0.00 0.00 921.00 463.00" xmlns="http://www.w3.org/2000/svg" xmlns:xlink="http://www.w3.org/1999/xlink">
<g id="graph0" class="graph" transform="scale(1 1) rotate(0) translate(4 459)">
<title>VoronoiMeshMaker/src/VoronoiMeshMaker/Shape/Shape2D/Polygon.cpp</title>
<!-- Node1 -->
<g id="node1" class="node">
<title>Node1</title>
<g id="a_node1"><a xlink:title=" ">
<polygon fill="#bfbfbf" stroke="black" points="410,-413.5 410,-454.5 556,-454.5 556,-413.5 410,-413.5"/>
<text text-anchor="start" x="418" y="-442.5" font-family="Helvetica,sans-Serif" font-size="10.00">VoronoiMeshMaker/src</text>
<text text-anchor="start" x="418" y="-431.5" font-family="Helvetica,sans-Serif" font-size="10.00">/VoronoiMeshMaker/Shape</text>
<text text-anchor="middle" x="483" y="-420.5" font-family="Helvetica,sans-Serif" font-size="10.00">/Shape2D/Polygon.cpp</text>
</a>
</g>
</g>
<!-- Node2 -->
<g id="node2" class="node">
<title>Node2</title>
<g id="a_node2"><a xlink:href="Polygon_8h.html" target="_top" xlink:title=" ">
<polygon fill="none" stroke="black" points="361.5,-346.5 361.5,-376.5 504.5,-376.5 504.5,-346.5 361.5,-346.5"/>
<text text-anchor="start" x="369.5" y="-364.5" font-family="Helvetica,sans-Serif" font-size="10.00">VoronoiMeshMaker/Shape</text>
<text text-anchor="middle" x="433" y="-353.5" font-family="Helvetica,sans-Serif" font-size="10.00">/Shape2D/Polygon.h</text>
</a>
</g>
</g>
<!-- Node1&#45;&gt;Node2 -->
<g id="edge1" class="edge">
<title>Node1&#45;&gt;Node2</title>
<path fill="none" stroke="midnightblue" d="M469.07,-413.36C462.85,-404.59 455.49,-394.21 449.04,-385.12"/>
<polygon fill="midnightblue" stroke="midnightblue" points="451.85,-383.02 443.21,-376.89 446.14,-387.07 451.85,-383.02"/>
</g>
<!-- Node19 -->
<g id="node19" class="node">
<title>Node19</title>
<g id="a_node19"><a xlink:href="MakerException_8h.html" target="_top" xlink:title=" ">
<polygon fill="none" stroke="black" points="582.5,-279.5 582.5,-309.5 719.5,-309.5 719.5,-279.5 582.5,-279.5"/>
<text text-anchor="start" x="590.5" y="-297.5" font-family="Helvetica,sans-Serif" font-size="10.00">VoronoiMeshMaker/Error</text>
<text text-anchor="middle" x="651" y="-286.5" font-family="Helvetica,sans-Serif" font-size="10.00">/MakerException.h</text>
</a>
</g>
</g>
<!-- Node1&#45;&gt;Node19 -->
<g id="edge18" class="edge">
<title>Node1&#45;&gt;Node19</title>
<path fill="none" stroke="midnightblue" d="M507.07,-413.3C538.55,-387.53 593.47,-342.59 625.6,-316.29"/>
<polygon fill="midnightblue" stroke="midnightblue" points="628.11,-318.76 633.63,-309.72 623.68,-313.34 628.11,-318.76"/>
</g>
<!-- Node3 -->
<g id="node3" class="node">
<title>Node3</title>
<g id="a_node3"><a xlink:href="Shape2D_8h.html" target="_top" xlink:title="Defines the Shape2D class, which represents 2D geometric shapes.">
<polygon fill="none" stroke="black" points="332.5,-279.5 332.5,-309.5 475.5,-309.5 475.5,-279.5 332.5,-279.5"/>
<text text-anchor="start" x="340.5" y="-297.5" font-family="Helvetica,sans-Serif" font-size="10.00">VoronoiMeshMaker/Shape</text>
<text text-anchor="middle" x="404" y="-286.5" font-family="Helvetica,sans-Serif" font-size="10.00">/Shape2D/Shape2D.h</text>
</a>
</g>
</g>
<!-- Node2&#45;&gt;Node3 -->
<g id="edge2" class="edge">
<title>Node2&#45;&gt;Node3</title>
<path fill="none" stroke="midnightblue" d="M426.71,-346.4C423.14,-338.39 418.57,-328.16 414.47,-318.98"/>
<polygon fill="midnightblue" stroke="midnightblue" points="417.55,-317.28 410.28,-309.58 411.16,-320.13 417.55,-317.28"/>
</g>
<!-- Node4 -->
<g id="node4" class="node">
<title>Node4</title>
<g id="a_node4"><a xlink:href="Shape_8h.html" target="_top" xlink:title="Defines the Shape class, which serves as the abstract base class for all shapes.">
<polygon fill="none" stroke="black" points="189.5,-212.5 189.5,-242.5 332.5,-242.5 332.5,-212.5 189.5,-212.5"/>
<text text-anchor="start" x="197.5" y="-230.5" font-family="Helvetica,sans-Serif" font-size="10.00">VoronoiMeshMaker/Shape</text>
<text text-anchor="middle" x="261" y="-219.5" font-family="Helvetica,sans-Serif" font-size="10.00">/Shape.h</text>
</a>
</g>
</g>
<!-- Node3&#45;&gt;Node4 -->
<g id="edge3" class="edge">
<title>Node3&#45;&gt;Node4</title>
<path fill="none" stroke="midnightblue" d="M372.97,-279.4C351.98,-269.86 324.06,-257.16 301.35,-246.84"/>
<polygon fill="midnightblue" stroke="midnightblue" points="302.52,-243.53 291.97,-242.58 299.62,-249.9 302.52,-243.53"/>
</g>
<!-- Node5 -->
<g id="node5" class="node">
<title>Node5</title>
<g id="a_node5"><a xlink:title=" ">
<polygon fill="none" stroke="#bfbfbf" points="0,-151 0,-170 158,-170 158,-151 0,-151"/>
<text text-anchor="middle" x="79" y="-158" font-family="Helvetica,sans-Serif" font-size="10.00">VoronoiMeshMaker/Misc/ID.h</text>
</a>
</g>
</g>
<!-- Node4&#45;&gt;Node5 -->
<g id="edge4" class="edge">
<title>Node4&#45;&gt;Node5</title>
<path fill="none" stroke="midnightblue" d="M221.51,-212.4C188.87,-200.74 143.04,-184.37 112.25,-173.38"/>
<polygon fill="midnightblue" stroke="midnightblue" points="113.41,-170.07 102.82,-170.01 111.06,-176.67 113.41,-170.07"/>
</g>
<!-- Node6 -->
<g id="node6" class="node">
<title>Node6</title>
<g id="a_node6"><a xlink:href="GeometricDataHolder_8h.html" target="_top" xlink:title=" ">
<polygon fill="none" stroke="black" points="176,-145.5 176,-175.5 346,-175.5 346,-145.5 176,-145.5"/>
<text text-anchor="start" x="184" y="-163.5" font-family="Helvetica,sans-Serif" font-size="10.00">VoronoiMeshMaker/Parameters</text>
<text text-anchor="middle" x="261" y="-152.5" font-family="Helvetica,sans-Serif" font-size="10.00">/GeometricDataHolder.h</text>
</a>
</g>
</g>
<!-- Node4&#45;&gt;Node6 -->
<g id="edge5" class="edge">
<title>Node4&#45;&gt;Node6</title>
<path fill="none" stroke="midnightblue" d="M261,-212.4C261,-204.64 261,-194.81 261,-185.86"/>
<polygon fill="midnightblue" stroke="midnightblue" points="264.5,-185.58 261,-175.58 257.5,-185.58 264.5,-185.58"/>
</g>
<!-- Node7 -->
<g id="node7" class="node">
<title>Node7</title>
<g id="a_node7"><a xlink:title=" ">
<polygon fill="none" stroke="#bfbfbf" points="50,-84 50,-103 88,-103 88,-84 50,-84"/>
<text text-anchor="middle" x="69" y="-91" font-family="Helvetica,sans-Serif" font-size="10.00">map</text>
</a>
</g>
</g>
<!-- Node6&#45;&gt;Node7 -->
<g id="edge6" class="edge">
<title>Node6&#45;&gt;Node7</title>
<path fill="none" stroke="midnightblue" d="M206.97,-145.5C174.58,-136.46 132.85,-123.66 97,-109 95.96,-108.58 94.91,-108.13 93.85,-107.66"/>
<polygon fill="midnightblue" stroke="midnightblue" points="94.99,-104.32 84.46,-103.13 91.95,-110.63 94.99,-104.32"/>
</g>
<!-- Node8 -->
<g id="node8" class="node">
<title>Node8</title>
<g id="a_node8"><a xlink:title=" ">
<polygon fill="none" stroke="#bfbfbf" points="106.5,-84 106.5,-103 157.5,-103 157.5,-84 106.5,-84"/>
<text text-anchor="middle" x="132" y="-91" font-family="Helvetica,sans-Serif" font-size="10.00">variant</text>
</a>
</g>
</g>
<!-- Node6&#45;&gt;Node8 -->
<g id="edge7" class="edge">
<title>Node6&#45;&gt;Node8</title>
<path fill="none" stroke="midnightblue" d="M233.01,-145.4C210.67,-134.14 179.63,-118.5 157.87,-107.54"/>
<polygon fill="midnightblue" stroke="midnightblue" points="159.39,-104.38 148.88,-103.01 156.24,-110.63 159.39,-104.38"/>
</g>
<!-- Node9 -->
<g id="node9" class="node">
<title>Node9</title>
<g id="a_node9"><a xlink:title=" ">
<polygon fill="none" stroke="#bfbfbf" points="518.5,-84 518.5,-103 591.5,-103 591.5,-84 518.5,-84"/>
<text text-anchor="middle" x="555" y="-91" font-family="Helvetica,sans-Serif" font-size="10.00">string_view</text>
</a>
</g>
</g>
<!-- Node6&#45;&gt;Node9 -->
<g id="edge8" class="edge">
<title>Node6&#45;&gt;Node9</title>
<path fill="none" stroke="midnightblue" d="M340.5,-145.5C389.4,-136.35 453.17,-123.44 509,-109 512.43,-108.11 515.98,-107.12 519.52,-106.09"/>
<polygon fill="midnightblue" stroke="midnightblue" points="520.8,-109.36 529.35,-103.11 518.76,-102.66 520.8,-109.36"/>
</g>
<!-- Node10 -->
<g id="node10" class="node">
<title>Node10</title>
<g id="a_node10"><a xlink:href="type_8h.html" target="_top" xlink:title="Defines common geometric and numeric types used in the VoronoiMeshMaker library.">
<polygon fill="none" stroke="black" points="364,-78.5 364,-108.5 500,-108.5 500,-78.5 364,-78.5"/>
<text text-anchor="start" x="372" y="-96.5" font-family="Helvetica,sans-Serif" font-size="10.00">VoronoiMeshMaker/Misc</text>
<text text-anchor="middle" x="432" y="-85.5" font-family="Helvetica,sans-Serif" font-size="10.00">/type.h</text>
</a>
</g>
</g>
<!-- Node6&#45;&gt;Node10 -->
<g id="edge9" class="edge">
<title>Node6&#45;&gt;Node10</title>
<path fill="none" stroke="midnightblue" d="M298.1,-145.4C323.76,-135.64 358.09,-122.59 385.56,-112.15"/>
<polygon fill="midnightblue" stroke="midnightblue" points="386.86,-115.4 394.97,-108.58 384.38,-108.86 386.86,-115.4"/>
</g>
<!-- Node18 -->
<g id="node18" class="node">
<title>Node18</title>
<g id="a_node18"><a xlink:href="GeometricDataHolder_8tpp.html" target="_top" xlink:title=" ">
<polygon fill="none" stroke="black" points="176,-78.5 176,-108.5 346,-108.5 346,-78.5 176,-78.5"/>
<text text-anchor="start" x="184" y="-96.5" font-family="Helvetica,sans-Serif" font-size="10.00">VoronoiMeshMaker/Parameters</text>
<text text-anchor="middle" x="261" y="-85.5" font-family="Helvetica,sans-Serif" font-size="10.00">/GeometricDataHolder.tpp</text>
</a>
</g>
</g>
<!-- Node6&#45;&gt;Node18 -->
<g id="edge17" class="edge">
<title>Node6&#45;&gt;Node18</title>
<path fill="none" stroke="midnightblue" d="M261,-145.4C261,-137.64 261,-127.81 261,-118.86"/>
<polygon fill="midnightblue" stroke="midnightblue" points="264.5,-118.58 261,-108.58 257.5,-118.58 264.5,-118.58"/>
</g>
<!-- Node11 -->
<g id="node11" class="node">
<title>Node11</title>
<g id="a_node11"><a xlink:title=" ">
<polygon fill="none" stroke="#bfbfbf" points="176,-11.5 176,-30.5 208,-30.5 208,-11.5 176,-11.5"/>
<text text-anchor="middle" x="192" y="-18.5" font-family="Helvetica,sans-Serif" font-size="10.00">list</text>
</a>
</g>
</g>
<!-- Node10&#45;&gt;Node11 -->
<g id="edge10" class="edge">
<title>Node10&#45;&gt;Node11</title>
<path fill="none" stroke="midnightblue" d="M365.65,-78.46C307.59,-65.92 230.47,-48.55 217,-42 214.28,-40.68 211.59,-39.02 209.04,-37.22"/>
<polygon fill="midnightblue" stroke="midnightblue" points="211.06,-34.35 201.05,-30.87 206.7,-39.83 211.06,-34.35"/>
</g>
<!-- Node12 -->
<g id="node12" class="node">
<title>Node12</title>
<g id="a_node12"><a xlink:title=" ">
<polygon fill="none" stroke="#bfbfbf" points="226,-11.5 226,-30.5 284,-30.5 284,-11.5 226,-11.5"/>
<text text-anchor="middle" x="255" y="-18.5" font-family="Helvetica,sans-Serif" font-size="10.00">memory</text>
</a>
</g>
</g>
<!-- Node10&#45;&gt;Node12 -->
<g id="edge11" class="edge">
<title>Node10&#45;&gt;Node12</title>
<path fill="none" stroke="midnightblue" d="M388.51,-78.4C360.8,-69 324.35,-55.87 293,-42 288.47,-39.99 283.72,-37.68 279.19,-35.36"/>
<polygon fill="midnightblue" stroke="midnightblue" points="280.77,-32.24 270.3,-30.66 277.5,-38.42 280.77,-32.24"/>
</g>
<!-- Node13 -->
<g id="node13" class="node">
<title>Node13</title>
<g id="a_node13"><a xlink:title=" ">
<polygon fill="none" stroke="#bfbfbf" points="302.5,-11.5 302.5,-30.5 349.5,-30.5 349.5,-11.5 302.5,-11.5"/>
<text text-anchor="middle" x="326" y="-18.5" font-family="Helvetica,sans-Serif" font-size="10.00">vector</text>
</a>
</g>
</g>
<!-- Node10&#45;&gt;Node13 -->
<g id="edge12" class="edge">
<title>Node10&#45;&gt;Node13</title>
<path fill="none" stroke="midnightblue" d="M410.8,-78.4C392.32,-66.11 365.65,-48.37 347.17,-36.08"/>
<polygon fill="midnightblue" stroke="midnightblue" points="349.1,-33.16 338.83,-30.53 345.22,-38.99 349.1,-33.16"/>
</g>
<!-- Node14 -->
<g id="node14" class="node">
<title>Node14</title>
<g id="a_node14"><a xlink:title=" ">
<polygon fill="none" stroke="#bfbfbf" points="367.5,-0.5 367.5,-41.5 496.5,-41.5 496.5,-0.5 367.5,-0.5"/>
<text text-anchor="start" x="375.5" y="-29.5" font-family="Helvetica,sans-Serif" font-size="10.00">CGAL/Exact_predicates</text>
<text text-anchor="start" x="375.5" y="-18.5" font-family="Helvetica,sans-Serif" font-size="10.00">_inexact_constructions</text>
<text text-anchor="middle" x="432" y="-7.5" font-family="Helvetica,sans-Serif" font-size="10.00">_kernel.h</text>
</a>
</g>
</g>
<!-- Node10&#45;&gt;Node14 -->
<g id="edge13" class="edge">
<title>Node10&#45;&gt;Node14</title>
<path fill="none" stroke="midnightblue" d="M432,-78.23C432,-70.57 432,-60.84 432,-51.63"/>
<polygon fill="midnightblue" stroke="midnightblue" points="435.5,-51.59 432,-41.59 428.5,-51.59 435.5,-51.59"/>
</g>
<!-- Node15 -->
<g id="node15" class="node">
<title>Node15</title>
<g id="a_node15"><a xlink:title=" ">
<polygon fill="none" stroke="#bfbfbf" points="514.5,-11.5 514.5,-30.5 619.5,-30.5 619.5,-11.5 514.5,-11.5"/>
<text text-anchor="middle" x="567" y="-18.5" font-family="Helvetica,sans-Serif" font-size="10.00">CGAL/Polygon_2.h</text>
</a>
</g>
</g>
<!-- Node10&#45;&gt;Node15 -->
<g id="edge14" class="edge">
<title>Node10&#45;&gt;Node15</title>
<path fill="none" stroke="midnightblue" d="M458.99,-78.4C483.07,-65.83 518.06,-47.56 541.63,-35.25"/>
<polygon fill="midnightblue" stroke="midnightblue" points="543.42,-38.27 550.66,-30.53 540.17,-32.06 543.42,-38.27"/>
</g>
<!-- Node16 -->
<g id="node16" class="node">
<title>Node16</title>
<g id="a_node16"><a xlink:title=" ">
<polygon fill="none" stroke="#bfbfbf" points="637.5,-11.5 637.5,-30.5 758.5,-30.5 758.5,-11.5 637.5,-11.5"/>
<text text-anchor="middle" x="698" y="-18.5" font-family="Helvetica,sans-Serif" font-size="10.00">CGAL/Polyhedron_3.h</text>
</a>
</g>
</g>
<!-- Node10&#45;&gt;Node16 -->
<g id="edge15" class="edge">
<title>Node10&#45;&gt;Node16</title>
<path fill="none" stroke="midnightblue" d="M488.29,-78.41C527.52,-68.49 581.03,-54.76 628,-42 638.06,-39.27 648.91,-36.22 658.99,-33.34"/>
<polygon fill="midnightblue" stroke="midnightblue" points="660.11,-36.66 668.76,-30.54 658.18,-29.93 660.11,-36.66"/>
</g>
<!-- Node17 -->
<g id="node17" class="node">
<title>Node17</title>
<g id="a_node17"><a xlink:href="namespace_8h.html" target="_top" xlink:title=" ">
<polygon fill="none" stroke="black" points="777,-6 777,-36 913,-36 913,-6 777,-6"/>
<text text-anchor="start" x="785" y="-24" font-family="Helvetica,sans-Serif" font-size="10.00">VoronoiMeshMaker/Misc</text>
<text text-anchor="middle" x="845" y="-13" font-family="Helvetica,sans-Serif" font-size="10.00">/namespace.h</text>
</a>
</g>
</g>
<!-- Node10&#45;&gt;Node17 -->
<g id="edge16" class="edge">
<title>Node10&#45;&gt;Node17</title>
<path fill="none" stroke="midnightblue" d="M500.4,-79.44C503.31,-78.95 506.18,-78.46 509,-78 623.25,-59.28 653.41,-64.41 767,-42 772.4,-40.93 777.98,-39.72 783.57,-38.44"/>
<polygon fill="midnightblue" stroke="midnightblue" points="784.66,-41.77 793.58,-36.06 783.04,-34.96 784.66,-41.77"/>
</g>
<!-- Node20 -->
<g id="node20" class="node">
<title>Node20</title>
<g id="a_node20"><a xlink:title=" ">
<polygon fill="none" stroke="#bfbfbf" points="683,-218 683,-237 727,-237 727,-218 683,-218"/>
<text text-anchor="middle" x="705" y="-225" font-family="Helvetica,sans-Serif" font-size="10.00">string</text>
</a>
</g>
</g>
<!-- Node19&#45;&gt;Node20 -->
<g id="edge19" class="edge">
<title>Node19&#45;&gt;Node20</title>
<path fill="none" stroke="midnightblue" d="M662.72,-279.4C671.14,-269.26 682.51,-255.57 691.34,-244.94"/>
<polygon fill="midnightblue" stroke="midnightblue" points="694.08,-247.12 697.78,-237.19 688.69,-242.65 694.08,-247.12"/>
</g>
<!-- Node21 -->
<g id="node21" class="node">
<title>Node21</title>
<g id="a_node21"><a xlink:title=" ">
<polygon fill="none" stroke="#bfbfbf" points="745.5,-218 745.5,-237 810.5,-237 810.5,-218 745.5,-218"/>
<text text-anchor="middle" x="778" y="-225" font-family="Helvetica,sans-Serif" font-size="10.00">exception</text>
</a>
</g>
</g>
<!-- Node19&#45;&gt;Node21 -->
<g id="edge20" class="edge">
<title>Node19&#45;&gt;Node21</title>
<path fill="none" stroke="midnightblue" d="M678.56,-279.4C700.45,-268.19 730.83,-252.64 752.24,-241.69"/>
<polygon fill="midnightblue" stroke="midnightblue" points="754.07,-244.68 761.38,-237.01 750.88,-238.45 754.07,-244.68"/>
</g>
<!-- Node22 -->
<g id="node22" class="node">
<title>Node22</title>
<g id="a_node22"><a xlink:title=" ">
<polygon fill="none" stroke="#bfbfbf" points="828.5,-218 828.5,-237 885.5,-237 885.5,-218 828.5,-218"/>
<text text-anchor="middle" x="857" y="-225" font-family="Helvetica,sans-Serif" font-size="10.00">ostream</text>
</a>
</g>
</g>
<!-- Node19&#45;&gt;Node22 -->
<g id="edge21" class="edge">
<title>Node19&#45;&gt;Node22</title>
<path fill="none" stroke="midnightblue" d="M701.29,-279.42C734.83,-269.77 779.79,-256.35 819,-243 821.26,-242.23 823.58,-241.41 825.91,-240.57"/>
<polygon fill="midnightblue" stroke="midnightblue" points="827.24,-243.81 835.4,-237.05 824.8,-237.25 827.24,-243.81"/>
</g>
<!-- Node23 -->
<g id="node23" class="node">
<title>Node23</title>
<g id="a_node23"><a xlink:href="id_8h.html" target="_top" xlink:title=" ">
<polygon fill="none" stroke="black" points="353.5,-218 353.5,-237 510.5,-237 510.5,-218 353.5,-218"/>
<text text-anchor="middle" x="432" y="-225" font-family="Helvetica,sans-Serif" font-size="10.00">VoronoiMeshMaker/Misc/id.h</text>
</a>
</g>
</g>
<!-- Node19&#45;&gt;Node23 -->
<g id="edge22" class="edge">
<title>Node19&#45;&gt;Node23</title>
<path fill="none" stroke="midnightblue" d="M603.75,-279.48C563.98,-267.67 507.81,-251 470.67,-239.98"/>
<polygon fill="midnightblue" stroke="midnightblue" points="471.32,-236.52 460.74,-237.03 469.33,-243.23 471.32,-236.52"/>
</g>
<!-- Node25 -->
<g id="node25" class="node">
<title>Node25</title>
<g id="a_node25"><a xlink:href="sourceinfo_8h.html" target="_top" xlink:title="Provides information about the source of an error or event in a function.">
<polygon fill="none" stroke="black" points="529,-212.5 529,-242.5 665,-242.5 665,-212.5 529,-212.5"/>
<text text-anchor="start" x="537" y="-230.5" font-family="Helvetica,sans-Serif" font-size="10.00">VoronoiMeshMaker/Misc</text>
<text text-anchor="middle" x="597" y="-219.5" font-family="Helvetica,sans-Serif" font-size="10.00">/sourceinfo.h</text>
</a>
</g>
</g>
<!-- Node19&#45;&gt;Node25 -->
<g id="edge26" class="edge">
<title>Node19&#45;&gt;Node25</title>
<path fill="none" stroke="midnightblue" d="M639.28,-279.4C632.28,-270.96 623.23,-260.07 615.29,-250.52"/>
<polygon fill="midnightblue" stroke="midnightblue" points="617.78,-248.03 608.69,-242.58 612.39,-252.51 617.78,-248.03"/>
</g>
<!-- Node23&#45;&gt;Node9 -->
<g id="edge23" class="edge">
<title>Node23&#45;&gt;Node9</title>
<path fill="none" stroke="midnightblue" d="M449.95,-217.91C466.78,-209.17 491.85,-194.33 509,-176 526.56,-157.23 539.98,-130.54 547.67,-112.89"/>
<polygon fill="midnightblue" stroke="midnightblue" points="551.09,-113.79 551.71,-103.21 544.63,-111.09 551.09,-113.79"/>
</g>
<!-- Node24 -->
<g id="node24" class="node">
<title>Node24</title>
<g id="a_node24"><a xlink:href="configure_8h.html" target="_top" xlink:title="Defines common constants used across the VoronoiMeshMaker library.">
<polygon fill="none" stroke="black" points="364,-145.5 364,-175.5 500,-175.5 500,-145.5 364,-145.5"/>
<text text-anchor="start" x="372" y="-163.5" font-family="Helvetica,sans-Serif" font-size="10.00">VoronoiMeshMaker/Misc</text>
<text text-anchor="middle" x="432" y="-152.5" font-family="Helvetica,sans-Serif" font-size="10.00">/configure.h</text>
</a>
</g>
</g>
<!-- Node23&#45;&gt;Node24 -->
<g id="edge24" class="edge">
<title>Node23&#45;&gt;Node24</title>
<path fill="none" stroke="midnightblue" d="M432,-217.73C432,-209.54 432,-196.92 432,-185.71"/>
<polygon fill="midnightblue" stroke="midnightblue" points="435.5,-185.59 432,-175.59 428.5,-185.59 435.5,-185.59"/>
</g>
<!-- Node24&#45;&gt;Node10 -->
<g id="edge25" class="edge">
<title>Node24&#45;&gt;Node10</title>
<path fill="none" stroke="midnightblue" d="M432,-145.4C432,-137.64 432,-127.81 432,-118.86"/>
<polygon fill="midnightblue" stroke="midnightblue" points="435.5,-118.58 432,-108.58 428.5,-118.58 435.5,-118.58"/>
</g>
<!-- Node25&#45;&gt;Node9 -->
<g id="edge27" class="edge">
<title>Node25&#45;&gt;Node9</title>
<path fill="none" stroke="midnightblue" d="M592.51,-212.37C584.84,-188.29 569.26,-139.31 560.79,-112.7"/>
<polygon fill="midnightblue" stroke="midnightblue" points="564.1,-111.57 557.74,-103.1 557.43,-113.69 564.1,-111.57"/>
</g>
<!-- Node26 -->
<g id="node26" class="node">
<title>Node26</title>
<g id="a_node26"><a xlink:title=" ">
<polygon fill="none" stroke="#bfbfbf" points="594,-145.5 594,-175.5 730,-175.5 730,-145.5 594,-145.5"/>
<text text-anchor="start" x="602" y="-163.5" font-family="Helvetica,sans-Serif" font-size="10.00">VoronoiMeshMaker/Misc</text>
<text text-anchor="middle" x="662" y="-152.5" font-family="Helvetica,sans-Serif" font-size="10.00">/Misc.h</text>
</a>
</g>
</g>
<!-- Node25&#45;&gt;Node26 -->
<g id="edge28" class="edge">
<title>Node25&#45;&gt;Node26</title>
<path fill="none" stroke="midnightblue" d="M611.1,-212.4C619.79,-203.71 631.1,-192.4 640.84,-182.66"/>
<polygon fill="midnightblue" stroke="midnightblue" points="643.33,-185.12 647.92,-175.58 638.38,-180.17 643.33,-185.12"/>
</g>
</g>
</svg>
