<?xml version="1.0" encoding="UTF-8" standalone="no"?>
<!DOCTYPE svg PUBLIC "-//W3C//DTD SVG 1.1//EN"
 "http://www.w3.org/Graphics/SVG/1.1/DTD/svg11.dtd">
<!-- Generated by graphviz version 2.43.0 (0)
 -->
<!-- Title: VoronoiMeshMaker/src/VoronoiMeshMaker/Shape/Shape2D/PolygonCSV.cpp Pages: 1 -->
<svg width="1247pt" height="463pt"
 viewBox="0.00 0.00 1246.50 463.00" xmlns="http://www.w3.org/2000/svg" xmlns:xlink="http://www.w3.org/1999/xlink">
<g id="graph0" class="graph" transform="scale(1 1) rotate(0) translate(4 459)">
<title>VoronoiMeshMaker/src/VoronoiMeshMaker/Shape/Shape2D/PolygonCSV.cpp</title>
<!-- Node1 -->
<g id="node1" class="node">
<title>Node1</title>
<g id="a_node1"><a xlink:title=" ">
<polygon fill="#bfbfbf" stroke="black" points="558.5,-413.5 558.5,-454.5 704.5,-454.5 704.5,-413.5 558.5,-413.5"/>
<text text-anchor="start" x="566.5" y="-442.5" font-family="Helvetica,sans-Serif" font-size="10.00">VoronoiMeshMaker/src</text>
<text text-anchor="start" x="566.5" y="-431.5" font-family="Helvetica,sans-Serif" font-size="10.00">/VoronoiMeshMaker/Shape</text>
<text text-anchor="middle" x="631.5" y="-420.5" font-family="Helvetica,sans-Serif" font-size="10.00">/Shape2D/PolygonCSV.cpp</text>
</a>
</g>
</g>
<!-- Node2 -->
<g id="node2" class="node">
<title>Node2</title>
<g id="a_node2"><a xlink:title=" ">
<polygon fill="none" stroke="#bfbfbf" points="530.5,-285 530.5,-304 598.5,-304 598.5,-285 530.5,-285"/>
<text text-anchor="middle" x="564.5" y="-292" font-family="Helvetica,sans-Serif" font-size="10.00">filesystem</text>
</a>
</g>
</g>
<!-- Node1&#45;&gt;Node2 -->
<g id="edge1" class="edge">
<title>Node1&#45;&gt;Node2</title>
<path fill="none" stroke="midnightblue" d="M590.55,-413.42C576.47,-404.43 562.3,-392.32 554.5,-377 544.32,-357.01 550.43,-330.81 556.65,-313.58"/>
<polygon fill="midnightblue" stroke="midnightblue" points="559.96,-314.73 560.4,-304.15 553.46,-312.15 559.96,-314.73"/>
</g>
<!-- Node3 -->
<g id="node3" class="node">
<title>Node3</title>
<g id="a_node3"><a xlink:title=" ">
<polygon fill="none" stroke="#bfbfbf" points="756,-352 756,-371 811,-371 811,-352 756,-352"/>
<text text-anchor="middle" x="783.5" y="-359" font-family="Helvetica,sans-Serif" font-size="10.00">fstream</text>
</a>
</g>
</g>
<!-- Node1&#45;&gt;Node3 -->
<g id="edge2" class="edge">
<title>Node1&#45;&gt;Node3</title>
<path fill="none" stroke="midnightblue" d="M673.84,-413.36C699.97,-401.24 732.76,-386.03 755.65,-375.42"/>
<polygon fill="midnightblue" stroke="midnightblue" points="757.2,-378.56 764.8,-371.17 754.26,-372.21 757.2,-378.56"/>
</g>
<!-- Node4 -->
<g id="node4" class="node">
<title>Node4</title>
<g id="a_node4"><a xlink:title=" ">
<polygon fill="none" stroke="#bfbfbf" points="829.5,-352 829.5,-371 885.5,-371 885.5,-352 829.5,-352"/>
<text text-anchor="middle" x="857.5" y="-359" font-family="Helvetica,sans-Serif" font-size="10.00">sstream</text>
</a>
</g>
</g>
<!-- Node1&#45;&gt;Node4 -->
<g id="edge3" class="edge">
<title>Node1&#45;&gt;Node4</title>
<path fill="none" stroke="midnightblue" d="M702.86,-413.42C738.44,-403.26 781.98,-390.23 820.5,-377 822.62,-376.27 824.8,-375.49 826.99,-374.69"/>
<polygon fill="midnightblue" stroke="midnightblue" points="828.37,-377.91 836.48,-371.1 825.89,-371.37 828.37,-377.91"/>
</g>
<!-- Node5 -->
<g id="node5" class="node">
<title>Node5</title>
<g id="a_node5"><a xlink:href="PolygonCSV_8h.html" target="_top" xlink:title=" ">
<polygon fill="none" stroke="black" points="326,-346.5 326,-376.5 469,-376.5 469,-346.5 326,-346.5"/>
<text text-anchor="start" x="334" y="-364.5" font-family="Helvetica,sans-Serif" font-size="10.00">VoronoiMeshMaker/Shape</text>
<text text-anchor="middle" x="397.5" y="-353.5" font-family="Helvetica,sans-Serif" font-size="10.00">/Shape2D/PolygonCSV.h</text>
</a>
</g>
</g>
<!-- Node1&#45;&gt;Node5 -->
<g id="edge4" class="edge">
<title>Node1&#45;&gt;Node5</title>
<path fill="none" stroke="midnightblue" d="M566.63,-413.46C531.3,-402.81 488,-389.76 454.05,-379.54"/>
<polygon fill="midnightblue" stroke="midnightblue" points="454.87,-376.13 444.29,-376.6 452.85,-382.83 454.87,-376.13"/>
</g>
<!-- Node13 -->
<g id="node13" class="node">
<title>Node13</title>
<g id="a_node13"><a xlink:href="type_8h.html" target="_top" xlink:title="Defines common geometric and numeric types used in the VoronoiMeshMaker library.">
<polygon fill="none" stroke="black" points="429.5,-78.5 429.5,-108.5 565.5,-108.5 565.5,-78.5 429.5,-78.5"/>
<text text-anchor="start" x="437.5" y="-96.5" font-family="Helvetica,sans-Serif" font-size="10.00">VoronoiMeshMaker/Misc</text>
<text text-anchor="middle" x="497.5" y="-85.5" font-family="Helvetica,sans-Serif" font-size="10.00">/type.h</text>
</a>
</g>
</g>
<!-- Node1&#45;&gt;Node13 -->
<g id="edge36" class="edge">
<title>Node1&#45;&gt;Node13</title>
<path fill="none" stroke="midnightblue" d="M591.66,-413.46C552.16,-390.97 497.5,-350 497.5,-295.5 497.5,-295.5 497.5,-295.5 497.5,-226.5 497.5,-189 497.5,-145.51 497.5,-119.01"/>
<polygon fill="midnightblue" stroke="midnightblue" points="501,-118.76 497.5,-108.76 494,-118.76 501,-118.76"/>
</g>
<!-- Node22 -->
<g id="node22" class="node">
<title>Node22</title>
<g id="a_node22"><a xlink:href="MakerException_8h.html" target="_top" xlink:title=" ">
<polygon fill="none" stroke="black" points="871,-279.5 871,-309.5 1008,-309.5 1008,-279.5 871,-279.5"/>
<text text-anchor="start" x="879" y="-297.5" font-family="Helvetica,sans-Serif" font-size="10.00">VoronoiMeshMaker/Error</text>
<text text-anchor="middle" x="939.5" y="-286.5" font-family="Helvetica,sans-Serif" font-size="10.00">/MakerException.h</text>
</a>
</g>
</g>
<!-- Node1&#45;&gt;Node22 -->
<g id="edge21" class="edge">
<title>Node1&#45;&gt;Node22</title>
<path fill="none" stroke="midnightblue" d="M659.15,-413.33C673.91,-402.72 692.32,-389.31 708.5,-377 726.12,-363.6 727.7,-355.92 747.5,-346 782.85,-328.29 825.07,-316.31 860.91,-308.49"/>
<polygon fill="midnightblue" stroke="midnightblue" points="861.78,-311.88 870.84,-306.39 860.33,-305.03 861.78,-311.88"/>
</g>
<!-- Node30 -->
<g id="node30" class="node">
<title>Node30</title>
<g id="a_node30"><a xlink:href="misc_8h.html" target="_top" xlink:title="Provides general&#45;purpose utility functions for the VoronoiMeshMaker library.">
<polygon fill="none" stroke="black" points="563.5,-346.5 563.5,-376.5 699.5,-376.5 699.5,-346.5 563.5,-346.5"/>
<text text-anchor="start" x="571.5" y="-364.5" font-family="Helvetica,sans-Serif" font-size="10.00">VoronoiMeshMaker/Misc</text>
<text text-anchor="middle" x="631.5" y="-353.5" font-family="Helvetica,sans-Serif" font-size="10.00">/misc.h</text>
</a>
</g>
</g>
<!-- Node1&#45;&gt;Node30 -->
<g id="edge32" class="edge">
<title>Node1&#45;&gt;Node30</title>
<path fill="none" stroke="midnightblue" d="M631.5,-413.36C631.5,-405.23 631.5,-395.7 631.5,-387.11"/>
<polygon fill="midnightblue" stroke="midnightblue" points="635,-386.89 631.5,-376.89 628,-386.89 635,-386.89"/>
</g>
<!-- Node6 -->
<g id="node6" class="node">
<title>Node6</title>
<g id="a_node6"><a xlink:href="Shape2D_8h.html" target="_top" xlink:title="Defines the Shape2D class, which represents 2D geometric shapes.">
<polygon fill="none" stroke="black" points="323,-279.5 323,-309.5 466,-309.5 466,-279.5 323,-279.5"/>
<text text-anchor="start" x="331" y="-297.5" font-family="Helvetica,sans-Serif" font-size="10.00">VoronoiMeshMaker/Shape</text>
<text text-anchor="middle" x="394.5" y="-286.5" font-family="Helvetica,sans-Serif" font-size="10.00">/Shape2D/Shape2D.h</text>
</a>
</g>
</g>
<!-- Node5&#45;&gt;Node6 -->
<g id="edge5" class="edge">
<title>Node5&#45;&gt;Node6</title>
<path fill="none" stroke="midnightblue" d="M396.85,-346.4C396.49,-338.64 396.04,-328.81 395.62,-319.86"/>
<polygon fill="midnightblue" stroke="midnightblue" points="399.11,-319.4 395.15,-309.58 392.11,-319.73 399.11,-319.4"/>
</g>
<!-- Node7 -->
<g id="node7" class="node">
<title>Node7</title>
<g id="a_node7"><a xlink:href="Shape_8h.html" target="_top" xlink:title="Defines the Shape class, which serves as the abstract base class for all shapes.">
<polygon fill="none" stroke="black" points="319,-212.5 319,-242.5 462,-242.5 462,-212.5 319,-212.5"/>
<text text-anchor="start" x="327" y="-230.5" font-family="Helvetica,sans-Serif" font-size="10.00">VoronoiMeshMaker/Shape</text>
<text text-anchor="middle" x="390.5" y="-219.5" font-family="Helvetica,sans-Serif" font-size="10.00">/Shape.h</text>
</a>
</g>
</g>
<!-- Node6&#45;&gt;Node7 -->
<g id="edge6" class="edge">
<title>Node6&#45;&gt;Node7</title>
<path fill="none" stroke="midnightblue" d="M393.63,-279.4C393.15,-271.56 392.54,-261.6 391.98,-252.57"/>
<polygon fill="midnightblue" stroke="midnightblue" points="395.47,-252.34 391.37,-242.58 388.49,-252.77 395.47,-252.34"/>
</g>
<!-- Node8 -->
<g id="node8" class="node">
<title>Node8</title>
<g id="a_node8"><a xlink:title=" ">
<polygon fill="none" stroke="#bfbfbf" points="311.5,-151 311.5,-170 469.5,-170 469.5,-151 311.5,-151"/>
<text text-anchor="middle" x="390.5" y="-158" font-family="Helvetica,sans-Serif" font-size="10.00">VoronoiMeshMaker/Misc/ID.h</text>
</a>
</g>
</g>
<!-- Node7&#45;&gt;Node8 -->
<g id="edge7" class="edge">
<title>Node7&#45;&gt;Node8</title>
<path fill="none" stroke="midnightblue" d="M390.5,-212.4C390.5,-203.06 390.5,-190.71 390.5,-180.52"/>
<polygon fill="midnightblue" stroke="midnightblue" points="394,-180.19 390.5,-170.19 387,-180.19 394,-180.19"/>
</g>
<!-- Node9 -->
<g id="node9" class="node">
<title>Node9</title>
<g id="a_node9"><a xlink:href="GeometricDataHolder_8h.html" target="_top" xlink:title=" ">
<polygon fill="none" stroke="black" points="123.5,-145.5 123.5,-175.5 293.5,-175.5 293.5,-145.5 123.5,-145.5"/>
<text text-anchor="start" x="131.5" y="-163.5" font-family="Helvetica,sans-Serif" font-size="10.00">VoronoiMeshMaker/Parameters</text>
<text text-anchor="middle" x="208.5" y="-152.5" font-family="Helvetica,sans-Serif" font-size="10.00">/GeometricDataHolder.h</text>
</a>
</g>
</g>
<!-- Node7&#45;&gt;Node9 -->
<g id="edge8" class="edge">
<title>Node7&#45;&gt;Node9</title>
<path fill="none" stroke="midnightblue" d="M351.01,-212.4C323.58,-202.6 286.85,-189.48 257.54,-179.02"/>
<polygon fill="midnightblue" stroke="midnightblue" points="258.51,-175.64 247.91,-175.58 256.15,-182.24 258.51,-175.64"/>
</g>
<!-- Node10 -->
<g id="node10" class="node">
<title>Node10</title>
<g id="a_node10"><a xlink:title=" ">
<polygon fill="none" stroke="#bfbfbf" points="115.5,-84 115.5,-103 153.5,-103 153.5,-84 115.5,-84"/>
<text text-anchor="middle" x="134.5" y="-91" font-family="Helvetica,sans-Serif" font-size="10.00">map</text>
</a>
</g>
</g>
<!-- Node9&#45;&gt;Node10 -->
<g id="edge9" class="edge">
<title>Node9&#45;&gt;Node10</title>
<path fill="none" stroke="midnightblue" d="M192.44,-145.4C180.56,-134.96 164.39,-120.75 152.14,-110"/>
<polygon fill="midnightblue" stroke="midnightblue" points="154.22,-107.16 144.4,-103.19 149.6,-112.42 154.22,-107.16"/>
</g>
<!-- Node11 -->
<g id="node11" class="node">
<title>Node11</title>
<g id="a_node11"><a xlink:title=" ">
<polygon fill="none" stroke="#bfbfbf" points="172,-84 172,-103 223,-103 223,-84 172,-84"/>
<text text-anchor="middle" x="197.5" y="-91" font-family="Helvetica,sans-Serif" font-size="10.00">variant</text>
</a>
</g>
</g>
<!-- Node9&#45;&gt;Node11 -->
<g id="edge10" class="edge">
<title>Node9&#45;&gt;Node11</title>
<path fill="none" stroke="midnightblue" d="M206.11,-145.4C204.52,-135.96 202.4,-123.45 200.66,-113.19"/>
<polygon fill="midnightblue" stroke="midnightblue" points="204.09,-112.47 198.97,-103.19 197.19,-113.64 204.09,-112.47"/>
</g>
<!-- Node12 -->
<g id="node12" class="node">
<title>Node12</title>
<g id="a_node12"><a xlink:title=" ">
<polygon fill="none" stroke="#bfbfbf" points="748,-84 748,-103 821,-103 821,-84 748,-84"/>
<text text-anchor="middle" x="784.5" y="-91" font-family="Helvetica,sans-Serif" font-size="10.00">string_view</text>
</a>
</g>
</g>
<!-- Node9&#45;&gt;Node12 -->
<g id="edge11" class="edge">
<title>Node9&#45;&gt;Node12</title>
<path fill="none" stroke="midnightblue" d="M293.53,-146.19C296.55,-145.78 299.55,-145.38 302.5,-145 461.86,-124.37 651.71,-106.42 737.86,-98.63"/>
<polygon fill="midnightblue" stroke="midnightblue" points="738.2,-102.11 747.85,-97.73 737.57,-95.14 738.2,-102.11"/>
</g>
<!-- Node9&#45;&gt;Node13 -->
<g id="edge12" class="edge">
<title>Node9&#45;&gt;Node13</title>
<path fill="none" stroke="midnightblue" d="M270.85,-145.48C316.09,-135.3 377.41,-121.51 424.86,-110.84"/>
<polygon fill="midnightblue" stroke="midnightblue" points="425.77,-114.22 434.76,-108.61 424.24,-107.39 425.77,-114.22"/>
</g>
<!-- Node21 -->
<g id="node21" class="node">
<title>Node21</title>
<g id="a_node21"><a xlink:href="GeometricDataHolder_8tpp.html" target="_top" xlink:title=" ">
<polygon fill="none" stroke="black" points="241.5,-78.5 241.5,-108.5 411.5,-108.5 411.5,-78.5 241.5,-78.5"/>
<text text-anchor="start" x="249.5" y="-96.5" font-family="Helvetica,sans-Serif" font-size="10.00">VoronoiMeshMaker/Parameters</text>
<text text-anchor="middle" x="326.5" y="-85.5" font-family="Helvetica,sans-Serif" font-size="10.00">/GeometricDataHolder.tpp</text>
</a>
</g>
</g>
<!-- Node9&#45;&gt;Node21 -->
<g id="edge20" class="edge">
<title>Node9&#45;&gt;Node21</title>
<path fill="none" stroke="midnightblue" d="M234.1,-145.4C251.04,-136.07 273.44,-123.73 291.95,-113.53"/>
<polygon fill="midnightblue" stroke="midnightblue" points="293.88,-116.47 300.95,-108.58 290.5,-110.34 293.88,-116.47"/>
</g>
<!-- Node14 -->
<g id="node14" class="node">
<title>Node14</title>
<g id="a_node14"><a xlink:title=" ">
<polygon fill="none" stroke="#bfbfbf" points="563.5,-11.5 563.5,-30.5 595.5,-30.5 595.5,-11.5 563.5,-11.5"/>
<text text-anchor="middle" x="579.5" y="-18.5" font-family="Helvetica,sans-Serif" font-size="10.00">list</text>
</a>
</g>
</g>
<!-- Node13&#45;&gt;Node14 -->
<g id="edge13" class="edge">
<title>Node13&#45;&gt;Node14</title>
<path fill="none" stroke="midnightblue" d="M514.09,-78.23C527.86,-66.39 547.41,-49.59 561.54,-37.44"/>
<polygon fill="midnightblue" stroke="midnightblue" points="563.86,-40.07 569.16,-30.89 559.29,-34.76 563.86,-40.07"/>
</g>
<!-- Node15 -->
<g id="node15" class="node">
<title>Node15</title>
<g id="a_node15"><a xlink:title=" ">
<polygon fill="none" stroke="#bfbfbf" points="679.5,-11.5 679.5,-30.5 737.5,-30.5 737.5,-11.5 679.5,-11.5"/>
<text text-anchor="middle" x="708.5" y="-18.5" font-family="Helvetica,sans-Serif" font-size="10.00">memory</text>
</a>
</g>
</g>
<!-- Node13&#45;&gt;Node15 -->
<g id="edge14" class="edge">
<title>Node13&#45;&gt;Node15</title>
<path fill="none" stroke="midnightblue" d="M555.36,-78.43C589.17,-69.49 632.36,-56.82 669.5,-42 674.28,-40.09 679.26,-37.79 684,-35.45"/>
<polygon fill="midnightblue" stroke="midnightblue" points="685.97,-38.37 693.25,-30.67 682.76,-32.15 685.97,-38.37"/>
</g>
<!-- Node16 -->
<g id="node16" class="node">
<title>Node16</title>
<g id="a_node16"><a xlink:title=" ">
<polygon fill="none" stroke="#bfbfbf" points="614,-11.5 614,-30.5 661,-30.5 661,-11.5 614,-11.5"/>
<text text-anchor="middle" x="637.5" y="-18.5" font-family="Helvetica,sans-Serif" font-size="10.00">vector</text>
</a>
</g>
</g>
<!-- Node13&#45;&gt;Node16 -->
<g id="edge15" class="edge">
<title>Node13&#45;&gt;Node16</title>
<path fill="none" stroke="midnightblue" d="M529.77,-78.33C551.23,-68.65 579.89,-55.22 604.5,-42 607.95,-40.15 611.54,-38.1 615.04,-36.04"/>
<polygon fill="midnightblue" stroke="midnightblue" points="617.13,-38.86 623.88,-30.69 613.51,-32.87 617.13,-38.86"/>
</g>
<!-- Node17 -->
<g id="node17" class="node">
<title>Node17</title>
<g id="a_node17"><a xlink:title=" ">
<polygon fill="none" stroke="#bfbfbf" points="0,-0.5 0,-41.5 129,-41.5 129,-0.5 0,-0.5"/>
<text text-anchor="start" x="8" y="-29.5" font-family="Helvetica,sans-Serif" font-size="10.00">CGAL/Exact_predicates</text>
<text text-anchor="start" x="8" y="-18.5" font-family="Helvetica,sans-Serif" font-size="10.00">_inexact_constructions</text>
<text text-anchor="middle" x="64.5" y="-7.5" font-family="Helvetica,sans-Serif" font-size="10.00">_kernel.h</text>
</a>
</g>
</g>
<!-- Node13&#45;&gt;Node17 -->
<g id="edge16" class="edge">
<title>Node13&#45;&gt;Node17</title>
<path fill="none" stroke="midnightblue" d="M429.1,-79.4C426.2,-78.91 423.32,-78.44 420.5,-78 298.43,-58.76 263.6,-66.4 139.18,-42.21"/>
<polygon fill="midnightblue" stroke="midnightblue" points="139.75,-38.76 129.27,-40.25 138.4,-45.62 139.75,-38.76"/>
</g>
<!-- Node18 -->
<g id="node18" class="node">
<title>Node18</title>
<g id="a_node18"><a xlink:title=" ">
<polygon fill="none" stroke="#bfbfbf" points="147,-11.5 147,-30.5 252,-30.5 252,-11.5 147,-11.5"/>
<text text-anchor="middle" x="199.5" y="-18.5" font-family="Helvetica,sans-Serif" font-size="10.00">CGAL/Polygon_2.h</text>
</a>
</g>
</g>
<!-- Node13&#45;&gt;Node18 -->
<g id="edge17" class="edge">
<title>Node13&#45;&gt;Node18</title>
<path fill="none" stroke="midnightblue" d="M429.22,-78.8C370.93,-66.94 291.73,-50.42 260.5,-42 251.59,-39.6 242.06,-36.65 233.24,-33.77"/>
<polygon fill="midnightblue" stroke="midnightblue" points="234.25,-30.42 223.66,-30.58 232.04,-37.06 234.25,-30.42"/>
</g>
<!-- Node19 -->
<g id="node19" class="node">
<title>Node19</title>
<g id="a_node19"><a xlink:title=" ">
<polygon fill="none" stroke="#bfbfbf" points="270,-11.5 270,-30.5 391,-30.5 391,-11.5 270,-11.5"/>
<text text-anchor="middle" x="330.5" y="-18.5" font-family="Helvetica,sans-Serif" font-size="10.00">CGAL/Polyhedron_3.h</text>
</a>
</g>
</g>
<!-- Node13&#45;&gt;Node19 -->
<g id="edge18" class="edge">
<title>Node13&#45;&gt;Node19</title>
<path fill="none" stroke="midnightblue" d="M464.11,-78.4C433.66,-65.55 389.12,-46.74 359.97,-34.44"/>
<polygon fill="midnightblue" stroke="midnightblue" points="361.29,-31.2 350.71,-30.53 358.57,-37.65 361.29,-31.2"/>
</g>
<!-- Node20 -->
<g id="node20" class="node">
<title>Node20</title>
<g id="a_node20"><a xlink:href="namespace_8h.html" target="_top" xlink:title=" ">
<polygon fill="none" stroke="black" points="409.5,-6 409.5,-36 545.5,-36 545.5,-6 409.5,-6"/>
<text text-anchor="start" x="417.5" y="-24" font-family="Helvetica,sans-Serif" font-size="10.00">VoronoiMeshMaker/Misc</text>
<text text-anchor="middle" x="477.5" y="-13" font-family="Helvetica,sans-Serif" font-size="10.00">/namespace.h</text>
</a>
</g>
</g>
<!-- Node13&#45;&gt;Node20 -->
<g id="edge19" class="edge">
<title>Node13&#45;&gt;Node20</title>
<path fill="none" stroke="midnightblue" d="M493.45,-78.23C490.82,-68.96 487.33,-56.65 484.28,-45.91"/>
<polygon fill="midnightblue" stroke="midnightblue" points="487.64,-44.91 481.54,-36.25 480.9,-46.82 487.64,-44.91"/>
</g>
<!-- Node23 -->
<g id="node23" class="node">
<title>Node23</title>
<g id="a_node23"><a xlink:title=" ">
<polygon fill="none" stroke="#bfbfbf" points="881.5,-218 881.5,-237 925.5,-237 925.5,-218 881.5,-218"/>
<text text-anchor="middle" x="903.5" y="-225" font-family="Helvetica,sans-Serif" font-size="10.00">string</text>
</a>
</g>
</g>
<!-- Node22&#45;&gt;Node23 -->
<g id="edge22" class="edge">
<title>Node22&#45;&gt;Node23</title>
<path fill="none" stroke="midnightblue" d="M931.69,-279.4C926.3,-269.66 919.09,-256.65 913.31,-246.21"/>
<polygon fill="midnightblue" stroke="midnightblue" points="916.22,-244.25 908.32,-237.19 910.1,-247.64 916.22,-244.25"/>
</g>
<!-- Node24 -->
<g id="node24" class="node">
<title>Node24</title>
<g id="a_node24"><a xlink:title=" ">
<polygon fill="none" stroke="#bfbfbf" points="944,-218 944,-237 1009,-237 1009,-218 944,-218"/>
<text text-anchor="middle" x="976.5" y="-225" font-family="Helvetica,sans-Serif" font-size="10.00">exception</text>
</a>
</g>
</g>
<!-- Node22&#45;&gt;Node24 -->
<g id="edge23" class="edge">
<title>Node22&#45;&gt;Node24</title>
<path fill="none" stroke="midnightblue" d="M947.53,-279.4C953.13,-269.56 960.63,-256.38 966.6,-245.89"/>
<polygon fill="midnightblue" stroke="midnightblue" points="969.65,-247.62 971.55,-237.19 963.56,-244.15 969.65,-247.62"/>
</g>
<!-- Node25 -->
<g id="node25" class="node">
<title>Node25</title>
<g id="a_node25"><a xlink:title=" ">
<polygon fill="none" stroke="#bfbfbf" points="1027,-218 1027,-237 1084,-237 1084,-218 1027,-218"/>
<text text-anchor="middle" x="1055.5" y="-225" font-family="Helvetica,sans-Serif" font-size="10.00">ostream</text>
</a>
</g>
</g>
<!-- Node22&#45;&gt;Node25 -->
<g id="edge24" class="edge">
<title>Node22&#45;&gt;Node25</title>
<path fill="none" stroke="midnightblue" d="M964.67,-279.4C984.48,-268.29 1011.92,-252.92 1031.44,-241.98"/>
<polygon fill="midnightblue" stroke="midnightblue" points="1033.31,-244.95 1040.32,-237.01 1029.88,-238.84 1033.31,-244.95"/>
</g>
<!-- Node26 -->
<g id="node26" class="node">
<title>Node26</title>
<g id="a_node26"><a xlink:href="id_8h.html" target="_top" xlink:title=" ">
<polygon fill="none" stroke="black" points="706,-218 706,-237 863,-237 863,-218 706,-218"/>
<text text-anchor="middle" x="784.5" y="-225" font-family="Helvetica,sans-Serif" font-size="10.00">VoronoiMeshMaker/Misc/id.h</text>
</a>
</g>
</g>
<!-- Node22&#45;&gt;Node26 -->
<g id="edge25" class="edge">
<title>Node22&#45;&gt;Node26</title>
<path fill="none" stroke="midnightblue" d="M905.87,-279.4C878.55,-267.94 840.39,-251.94 814.19,-240.95"/>
<polygon fill="midnightblue" stroke="midnightblue" points="815.36,-237.65 804.79,-237.01 812.65,-244.1 815.36,-237.65"/>
</g>
<!-- Node28 -->
<g id="node28" class="node">
<title>Node28</title>
<g id="a_node28"><a xlink:href="sourceinfo_8h.html" target="_top" xlink:title="Provides information about the source of an error or event in a function.">
<polygon fill="none" stroke="black" points="1102.5,-212.5 1102.5,-242.5 1238.5,-242.5 1238.5,-212.5 1102.5,-212.5"/>
<text text-anchor="start" x="1110.5" y="-230.5" font-family="Helvetica,sans-Serif" font-size="10.00">VoronoiMeshMaker/Misc</text>
<text text-anchor="middle" x="1170.5" y="-219.5" font-family="Helvetica,sans-Serif" font-size="10.00">/sourceinfo.h</text>
</a>
</g>
</g>
<!-- Node22&#45;&gt;Node28 -->
<g id="edge29" class="edge">
<title>Node22&#45;&gt;Node28</title>
<path fill="none" stroke="midnightblue" d="M989.34,-279.48C1024.89,-269.47 1072.87,-255.97 1110.52,-245.38"/>
<polygon fill="midnightblue" stroke="midnightblue" points="1111.67,-248.69 1120.35,-242.61 1109.78,-241.95 1111.67,-248.69"/>
</g>
<!-- Node26&#45;&gt;Node12 -->
<g id="edge26" class="edge">
<title>Node26&#45;&gt;Node12</title>
<path fill="none" stroke="midnightblue" d="M784.5,-217.84C784.5,-196.67 784.5,-141.95 784.5,-113.03"/>
<polygon fill="midnightblue" stroke="midnightblue" points="788,-113.02 784.5,-103.02 781,-113.02 788,-113.02"/>
</g>
<!-- Node27 -->
<g id="node27" class="node">
<title>Node27</title>
<g id="a_node27"><a xlink:href="configure_8h.html" target="_top" xlink:title="Defines common constants used across the VoronoiMeshMaker library.">
<polygon fill="none" stroke="black" points="525.5,-145.5 525.5,-175.5 661.5,-175.5 661.5,-145.5 525.5,-145.5"/>
<text text-anchor="start" x="533.5" y="-163.5" font-family="Helvetica,sans-Serif" font-size="10.00">VoronoiMeshMaker/Misc</text>
<text text-anchor="middle" x="593.5" y="-152.5" font-family="Helvetica,sans-Serif" font-size="10.00">/configure.h</text>
</a>
</g>
</g>
<!-- Node26&#45;&gt;Node27 -->
<g id="edge27" class="edge">
<title>Node26&#45;&gt;Node27</title>
<path fill="none" stroke="midnightblue" d="M759.14,-217.87C729.98,-207.95 681.38,-191.41 644.35,-178.81"/>
<polygon fill="midnightblue" stroke="midnightblue" points="645.32,-175.44 634.72,-175.53 643.06,-182.06 645.32,-175.44"/>
</g>
<!-- Node27&#45;&gt;Node13 -->
<g id="edge28" class="edge">
<title>Node27&#45;&gt;Node13</title>
<path fill="none" stroke="midnightblue" d="M572.67,-145.4C559.21,-136.28 541.5,-124.29 526.65,-114.24"/>
<polygon fill="midnightblue" stroke="midnightblue" points="528.53,-111.28 518.29,-108.58 524.61,-117.08 528.53,-111.28"/>
</g>
<!-- Node28&#45;&gt;Node12 -->
<g id="edge30" class="edge">
<title>Node28&#45;&gt;Node12</title>
<path fill="none" stroke="midnightblue" d="M1129.56,-212.5C1053.36,-186.44 891.07,-130.94 819.57,-106.49"/>
<polygon fill="midnightblue" stroke="midnightblue" points="820.29,-103.04 809.7,-103.12 818.03,-109.66 820.29,-103.04"/>
</g>
<!-- Node29 -->
<g id="node29" class="node">
<title>Node29</title>
<g id="a_node29"><a xlink:title=" ">
<polygon fill="none" stroke="#bfbfbf" points="1102.5,-145.5 1102.5,-175.5 1238.5,-175.5 1238.5,-145.5 1102.5,-145.5"/>
<text text-anchor="start" x="1110.5" y="-163.5" font-family="Helvetica,sans-Serif" font-size="10.00">VoronoiMeshMaker/Misc</text>
<text text-anchor="middle" x="1170.5" y="-152.5" font-family="Helvetica,sans-Serif" font-size="10.00">/Misc.h</text>
</a>
</g>
</g>
<!-- Node28&#45;&gt;Node29 -->
<g id="edge31" class="edge">
<title>Node28&#45;&gt;Node29</title>
<path fill="none" stroke="midnightblue" d="M1170.5,-212.4C1170.5,-204.64 1170.5,-194.81 1170.5,-185.86"/>
<polygon fill="midnightblue" stroke="midnightblue" points="1174,-185.58 1170.5,-175.58 1167,-185.58 1174,-185.58"/>
</g>
<!-- Node30&#45;&gt;Node2 -->
<g id="edge33" class="edge">
<title>Node30&#45;&gt;Node2</title>
<path fill="none" stroke="midnightblue" d="M616.96,-346.4C606.31,-336.06 591.84,-322.02 580.8,-311.31"/>
<polygon fill="midnightblue" stroke="midnightblue" points="583.08,-308.65 573.46,-304.19 578.2,-313.67 583.08,-308.65"/>
</g>
<!-- Node30&#45;&gt;Node15 -->
<g id="edge34" class="edge">
<title>Node30&#45;&gt;Node15</title>
<path fill="none" stroke="midnightblue" d="M634.71,-346.39C646.9,-292.78 690.35,-101.79 704.21,-40.84"/>
<polygon fill="midnightblue" stroke="midnightblue" points="707.71,-41.27 706.51,-30.75 700.88,-39.72 707.71,-41.27"/>
</g>
<!-- Node30&#45;&gt;Node27 -->
<g id="edge35" class="edge">
<title>Node30&#45;&gt;Node27</title>
<path fill="none" stroke="midnightblue" d="M628.77,-346.19C622.32,-312.41 606.09,-227.44 598.1,-185.57"/>
<polygon fill="midnightblue" stroke="midnightblue" points="601.52,-184.85 596.21,-175.68 594.65,-186.16 601.52,-184.85"/>
</g>
</g>
</svg>
