<?xml version="1.0" encoding="UTF-8" standalone="no"?>
<!DOCTYPE svg PUBLIC "-//W3C//DTD SVG 1.1//EN"
 "http://www.w3.org/Graphics/SVG/1.1/DTD/svg11.dtd">
<!-- Generated by graphviz version 2.43.0 (0)
 -->
<!-- Title: VoronoiMeshMaker/src/VoronoiMeshMaker/Shape/Shape2D/Rectangle.cpp Pages: 1 -->
<svg width="907pt" height="463pt"
 viewBox="0.00 0.00 907.00 463.00" xmlns="http://www.w3.org/2000/svg" xmlns:xlink="http://www.w3.org/1999/xlink">
<g id="graph0" class="graph" transform="scale(1 1) rotate(0) translate(4 459)">
<title>VoronoiMeshMaker/src/VoronoiMeshMaker/Shape/Shape2D/Rectangle.cpp</title>
<!-- Node1 -->
<g id="node1" class="node">
<title>Node1</title>
<g id="a_node1"><a xlink:title=" ">
<polygon fill="#bfbfbf" stroke="black" points="160,-413.5 160,-454.5 306,-454.5 306,-413.5 160,-413.5"/>
<text text-anchor="start" x="168" y="-442.5" font-family="Helvetica,sans-Serif" font-size="10.00">VoronoiMeshMaker/src</text>
<text text-anchor="start" x="168" y="-431.5" font-family="Helvetica,sans-Serif" font-size="10.00">/VoronoiMeshMaker/Shape</text>
<text text-anchor="middle" x="233" y="-420.5" font-family="Helvetica,sans-Serif" font-size="10.00">/Shape2D/Rectangle.cpp</text>
</a>
</g>
</g>
<!-- Node2 -->
<g id="node2" class="node">
<title>Node2</title>
<g id="a_node2"><a xlink:title=" ">
<polygon fill="none" stroke="#bfbfbf" points="33,-352 33,-371 93,-371 93,-352 33,-352"/>
<text text-anchor="middle" x="63" y="-359" font-family="Helvetica,sans-Serif" font-size="10.00">iostream</text>
</a>
</g>
</g>
<!-- Node1&#45;&gt;Node2 -->
<g id="edge1" class="edge">
<title>Node1&#45;&gt;Node2</title>
<path fill="none" stroke="midnightblue" d="M185.65,-413.36C156.16,-401.13 119.09,-385.76 93.47,-375.14"/>
<polygon fill="midnightblue" stroke="midnightblue" points="94.49,-371.77 83.91,-371.17 91.81,-378.24 94.49,-371.77"/>
</g>
<!-- Node3 -->
<g id="node3" class="node">
<title>Node3</title>
<g id="a_node3"><a xlink:href="Rectangle_8h.html" target="_top" xlink:title=" ">
<polygon fill="none" stroke="black" points="111.5,-346.5 111.5,-376.5 254.5,-376.5 254.5,-346.5 111.5,-346.5"/>
<text text-anchor="start" x="119.5" y="-364.5" font-family="Helvetica,sans-Serif" font-size="10.00">VoronoiMeshMaker/Shape</text>
<text text-anchor="middle" x="183" y="-353.5" font-family="Helvetica,sans-Serif" font-size="10.00">/Shape2D/Rectangle.h</text>
</a>
</g>
</g>
<!-- Node1&#45;&gt;Node3 -->
<g id="edge2" class="edge">
<title>Node1&#45;&gt;Node3</title>
<path fill="none" stroke="midnightblue" d="M219.07,-413.36C212.85,-404.59 205.49,-394.21 199.04,-385.12"/>
<polygon fill="midnightblue" stroke="midnightblue" points="201.85,-383.02 193.21,-376.89 196.14,-387.07 201.85,-383.02"/>
</g>
<!-- Node20 -->
<g id="node20" class="node">
<title>Node20</title>
<g id="a_node20"><a xlink:href="MakerException_8h.html" target="_top" xlink:title=" ">
<polygon fill="none" stroke="black" points="445.5,-279.5 445.5,-309.5 582.5,-309.5 582.5,-279.5 445.5,-279.5"/>
<text text-anchor="start" x="453.5" y="-297.5" font-family="Helvetica,sans-Serif" font-size="10.00">VoronoiMeshMaker/Error</text>
<text text-anchor="middle" x="514" y="-286.5" font-family="Helvetica,sans-Serif" font-size="10.00">/MakerException.h</text>
</a>
</g>
</g>
<!-- Node1&#45;&gt;Node20 -->
<g id="edge19" class="edge">
<title>Node1&#45;&gt;Node20</title>
<path fill="none" stroke="midnightblue" d="M272.96,-413.45C327.14,-386.94 423.19,-339.94 476.21,-313.99"/>
<polygon fill="midnightblue" stroke="midnightblue" points="477.84,-317.09 485.28,-309.55 474.76,-310.8 477.84,-317.09"/>
</g>
<!-- Node28 -->
<g id="node28" class="node">
<title>Node28</title>
<g id="a_node28"><a xlink:href="ShapeFactory_8h.html" target="_top" xlink:title=" ">
<polygon fill="none" stroke="black" points="211.5,-279.5 211.5,-309.5 354.5,-309.5 354.5,-279.5 211.5,-279.5"/>
<text text-anchor="start" x="219.5" y="-297.5" font-family="Helvetica,sans-Serif" font-size="10.00">VoronoiMeshMaker/Shape</text>
<text text-anchor="middle" x="283" y="-286.5" font-family="Helvetica,sans-Serif" font-size="10.00">/ShapeFactory.h</text>
</a>
</g>
</g>
<!-- Node1&#45;&gt;Node28 -->
<g id="edge30" class="edge">
<title>Node1&#45;&gt;Node28</title>
<path fill="none" stroke="midnightblue" d="M245.59,-413.43C251.86,-402.96 259.13,-389.65 264,-377 271.19,-358.31 276.15,-336.13 279.19,-319.62"/>
<polygon fill="midnightblue" stroke="midnightblue" points="282.65,-320.15 280.92,-309.69 275.75,-318.95 282.65,-320.15"/>
</g>
<!-- Node4 -->
<g id="node4" class="node">
<title>Node4</title>
<g id="a_node4"><a xlink:href="Shape2D_8h.html" target="_top" xlink:title="Defines the Shape2D class, which represents 2D geometric shapes.">
<polygon fill="none" stroke="black" points="50.5,-279.5 50.5,-309.5 193.5,-309.5 193.5,-279.5 50.5,-279.5"/>
<text text-anchor="start" x="58.5" y="-297.5" font-family="Helvetica,sans-Serif" font-size="10.00">VoronoiMeshMaker/Shape</text>
<text text-anchor="middle" x="122" y="-286.5" font-family="Helvetica,sans-Serif" font-size="10.00">/Shape2D/Shape2D.h</text>
</a>
</g>
</g>
<!-- Node3&#45;&gt;Node4 -->
<g id="edge3" class="edge">
<title>Node3&#45;&gt;Node4</title>
<path fill="none" stroke="midnightblue" d="M169.76,-346.4C161.69,-337.79 151.21,-326.63 142.13,-316.94"/>
<polygon fill="midnightblue" stroke="midnightblue" points="144.61,-314.47 135.21,-309.58 139.5,-319.26 144.61,-314.47"/>
</g>
<!-- Node5 -->
<g id="node5" class="node">
<title>Node5</title>
<g id="a_node5"><a xlink:href="Shape_8h.html" target="_top" xlink:title="Defines the Shape class, which serves as the abstract base class for all shapes.">
<polygon fill="none" stroke="black" points="68.5,-212.5 68.5,-242.5 211.5,-242.5 211.5,-212.5 68.5,-212.5"/>
<text text-anchor="start" x="76.5" y="-230.5" font-family="Helvetica,sans-Serif" font-size="10.00">VoronoiMeshMaker/Shape</text>
<text text-anchor="middle" x="140" y="-219.5" font-family="Helvetica,sans-Serif" font-size="10.00">/Shape.h</text>
</a>
</g>
</g>
<!-- Node4&#45;&gt;Node5 -->
<g id="edge4" class="edge">
<title>Node4&#45;&gt;Node5</title>
<path fill="none" stroke="midnightblue" d="M125.91,-279.4C128.1,-271.47 130.9,-261.38 133.42,-252.27"/>
<polygon fill="midnightblue" stroke="midnightblue" points="136.81,-253.15 136.1,-242.58 130.06,-251.28 136.81,-253.15"/>
</g>
<!-- Node6 -->
<g id="node6" class="node">
<title>Node6</title>
<g id="a_node6"><a xlink:title=" ">
<polygon fill="none" stroke="#bfbfbf" points="0,-151 0,-170 158,-170 158,-151 0,-151"/>
<text text-anchor="middle" x="79" y="-158" font-family="Helvetica,sans-Serif" font-size="10.00">VoronoiMeshMaker/Misc/ID.h</text>
</a>
</g>
</g>
<!-- Node5&#45;&gt;Node6 -->
<g id="edge5" class="edge">
<title>Node5&#45;&gt;Node6</title>
<path fill="none" stroke="midnightblue" d="M126.76,-212.4C117.16,-202.16 104.15,-188.3 94.13,-177.62"/>
<polygon fill="midnightblue" stroke="midnightblue" points="96.55,-175.09 87.16,-170.19 91.45,-179.88 96.55,-175.09"/>
</g>
<!-- Node7 -->
<g id="node7" class="node">
<title>Node7</title>
<g id="a_node7"><a xlink:href="GeometricDataHolder_8h.html" target="_top" xlink:title=" ">
<polygon fill="none" stroke="black" points="176,-145.5 176,-175.5 346,-175.5 346,-145.5 176,-145.5"/>
<text text-anchor="start" x="184" y="-163.5" font-family="Helvetica,sans-Serif" font-size="10.00">VoronoiMeshMaker/Parameters</text>
<text text-anchor="middle" x="261" y="-152.5" font-family="Helvetica,sans-Serif" font-size="10.00">/GeometricDataHolder.h</text>
</a>
</g>
</g>
<!-- Node5&#45;&gt;Node7 -->
<g id="edge6" class="edge">
<title>Node5&#45;&gt;Node7</title>
<path fill="none" stroke="midnightblue" d="M166.26,-212.4C183.7,-203.03 206.8,-190.62 225.83,-180.39"/>
<polygon fill="midnightblue" stroke="midnightblue" points="227.64,-183.39 234.8,-175.58 224.33,-177.23 227.64,-183.39"/>
</g>
<!-- Node8 -->
<g id="node8" class="node">
<title>Node8</title>
<g id="a_node8"><a xlink:title=" ">
<polygon fill="none" stroke="#bfbfbf" points="294,-84 294,-103 332,-103 332,-84 294,-84"/>
<text text-anchor="middle" x="313" y="-91" font-family="Helvetica,sans-Serif" font-size="10.00">map</text>
</a>
</g>
</g>
<!-- Node7&#45;&gt;Node8 -->
<g id="edge7" class="edge">
<title>Node7&#45;&gt;Node8</title>
<path fill="none" stroke="midnightblue" d="M272.28,-145.4C280.31,-135.36 291.13,-121.84 299.6,-111.25"/>
<polygon fill="midnightblue" stroke="midnightblue" points="302.53,-113.19 306.04,-103.19 297.06,-108.82 302.53,-113.19"/>
</g>
<!-- Node9 -->
<g id="node9" class="node">
<title>Node9</title>
<g id="a_node9"><a xlink:title=" ">
<polygon fill="none" stroke="#bfbfbf" points="36.5,-84 36.5,-103 87.5,-103 87.5,-84 36.5,-84"/>
<text text-anchor="middle" x="62" y="-91" font-family="Helvetica,sans-Serif" font-size="10.00">variant</text>
</a>
</g>
</g>
<!-- Node7&#45;&gt;Node9 -->
<g id="edge8" class="edge">
<title>Node7&#45;&gt;Node9</title>
<path fill="none" stroke="midnightblue" d="M211.08,-145.45C178.38,-135.93 134.84,-122.63 97,-109 95.14,-108.33 93.24,-107.62 91.33,-106.89"/>
<polygon fill="midnightblue" stroke="midnightblue" points="92.45,-103.56 81.86,-103.11 89.85,-110.07 92.45,-103.56"/>
</g>
<!-- Node10 -->
<g id="node10" class="node">
<title>Node10</title>
<g id="a_node10"><a xlink:title=" ">
<polygon fill="none" stroke="#bfbfbf" points="504.5,-84 504.5,-103 577.5,-103 577.5,-84 504.5,-84"/>
<text text-anchor="middle" x="541" y="-91" font-family="Helvetica,sans-Serif" font-size="10.00">string_view</text>
</a>
</g>
</g>
<!-- Node7&#45;&gt;Node10 -->
<g id="edge9" class="edge">
<title>Node7&#45;&gt;Node10</title>
<path fill="none" stroke="midnightblue" d="M334.41,-145.48C380.72,-136.18 441.67,-123.13 495,-109 498.42,-108.09 501.97,-107.09 505.51,-106.05"/>
<polygon fill="midnightblue" stroke="midnightblue" points="506.79,-109.32 515.33,-103.05 504.75,-102.62 506.79,-109.32"/>
</g>
<!-- Node11 -->
<g id="node11" class="node">
<title>Node11</title>
<g id="a_node11"><a xlink:href="type_8h.html" target="_top" xlink:title="Defines common geometric and numeric types used in the VoronoiMeshMaker library.">
<polygon fill="none" stroke="black" points="350,-78.5 350,-108.5 486,-108.5 486,-78.5 350,-78.5"/>
<text text-anchor="start" x="358" y="-96.5" font-family="Helvetica,sans-Serif" font-size="10.00">VoronoiMeshMaker/Misc</text>
<text text-anchor="middle" x="418" y="-85.5" font-family="Helvetica,sans-Serif" font-size="10.00">/type.h</text>
</a>
</g>
</g>
<!-- Node7&#45;&gt;Node11 -->
<g id="edge10" class="edge">
<title>Node7&#45;&gt;Node11</title>
<path fill="none" stroke="midnightblue" d="M295.07,-145.4C318.42,-135.73 349.59,-122.82 374.7,-112.43"/>
<polygon fill="midnightblue" stroke="midnightblue" points="376.1,-115.64 384,-108.58 373.42,-109.17 376.1,-115.64"/>
</g>
<!-- Node19 -->
<g id="node19" class="node">
<title>Node19</title>
<g id="a_node19"><a xlink:href="GeometricDataHolder_8tpp.html" target="_top" xlink:title=" ">
<polygon fill="none" stroke="black" points="106,-78.5 106,-108.5 276,-108.5 276,-78.5 106,-78.5"/>
<text text-anchor="start" x="114" y="-96.5" font-family="Helvetica,sans-Serif" font-size="10.00">VoronoiMeshMaker/Parameters</text>
<text text-anchor="middle" x="191" y="-85.5" font-family="Helvetica,sans-Serif" font-size="10.00">/GeometricDataHolder.tpp</text>
</a>
</g>
</g>
<!-- Node7&#45;&gt;Node19 -->
<g id="edge18" class="edge">
<title>Node7&#45;&gt;Node19</title>
<path fill="none" stroke="midnightblue" d="M245.81,-145.4C236.45,-136.71 224.28,-125.4 213.79,-115.66"/>
<polygon fill="midnightblue" stroke="midnightblue" points="215.87,-112.82 206.16,-108.58 211.11,-117.95 215.87,-112.82"/>
</g>
<!-- Node12 -->
<g id="node12" class="node">
<title>Node12</title>
<g id="a_node12"><a xlink:title=" ">
<polygon fill="none" stroke="#bfbfbf" points="162,-11.5 162,-30.5 194,-30.5 194,-11.5 162,-11.5"/>
<text text-anchor="middle" x="178" y="-18.5" font-family="Helvetica,sans-Serif" font-size="10.00">list</text>
</a>
</g>
</g>
<!-- Node11&#45;&gt;Node12 -->
<g id="edge11" class="edge">
<title>Node11&#45;&gt;Node12</title>
<path fill="none" stroke="midnightblue" d="M351.65,-78.46C293.59,-65.92 216.47,-48.55 203,-42 200.28,-40.68 197.59,-39.02 195.04,-37.22"/>
<polygon fill="midnightblue" stroke="midnightblue" points="197.06,-34.35 187.05,-30.87 192.7,-39.83 197.06,-34.35"/>
</g>
<!-- Node13 -->
<g id="node13" class="node">
<title>Node13</title>
<g id="a_node13"><a xlink:title=" ">
<polygon fill="none" stroke="#bfbfbf" points="212,-11.5 212,-30.5 270,-30.5 270,-11.5 212,-11.5"/>
<text text-anchor="middle" x="241" y="-18.5" font-family="Helvetica,sans-Serif" font-size="10.00">memory</text>
</a>
</g>
</g>
<!-- Node11&#45;&gt;Node13 -->
<g id="edge12" class="edge">
<title>Node11&#45;&gt;Node13</title>
<path fill="none" stroke="midnightblue" d="M375.5,-78.46C347.93,-68.99 311.44,-55.75 280,-42 275.36,-39.97 270.5,-37.65 265.85,-35.32"/>
<polygon fill="midnightblue" stroke="midnightblue" points="267.22,-32.09 256.73,-30.62 264.02,-38.31 267.22,-32.09"/>
</g>
<!-- Node14 -->
<g id="node14" class="node">
<title>Node14</title>
<g id="a_node14"><a xlink:title=" ">
<polygon fill="none" stroke="#bfbfbf" points="288.5,-11.5 288.5,-30.5 335.5,-30.5 335.5,-11.5 288.5,-11.5"/>
<text text-anchor="middle" x="312" y="-18.5" font-family="Helvetica,sans-Serif" font-size="10.00">vector</text>
</a>
</g>
</g>
<!-- Node11&#45;&gt;Node14 -->
<g id="edge13" class="edge">
<title>Node11&#45;&gt;Node14</title>
<path fill="none" stroke="midnightblue" d="M396.8,-78.4C378.32,-66.11 351.65,-48.37 333.17,-36.08"/>
<polygon fill="midnightblue" stroke="midnightblue" points="335.1,-33.16 324.83,-30.53 331.22,-38.99 335.1,-33.16"/>
</g>
<!-- Node15 -->
<g id="node15" class="node">
<title>Node15</title>
<g id="a_node15"><a xlink:title=" ">
<polygon fill="none" stroke="#bfbfbf" points="353.5,-0.5 353.5,-41.5 482.5,-41.5 482.5,-0.5 353.5,-0.5"/>
<text text-anchor="start" x="361.5" y="-29.5" font-family="Helvetica,sans-Serif" font-size="10.00">CGAL/Exact_predicates</text>
<text text-anchor="start" x="361.5" y="-18.5" font-family="Helvetica,sans-Serif" font-size="10.00">_inexact_constructions</text>
<text text-anchor="middle" x="418" y="-7.5" font-family="Helvetica,sans-Serif" font-size="10.00">_kernel.h</text>
</a>
</g>
</g>
<!-- Node11&#45;&gt;Node15 -->
<g id="edge14" class="edge">
<title>Node11&#45;&gt;Node15</title>
<path fill="none" stroke="midnightblue" d="M418,-78.23C418,-70.57 418,-60.84 418,-51.63"/>
<polygon fill="midnightblue" stroke="midnightblue" points="421.5,-51.59 418,-41.59 414.5,-51.59 421.5,-51.59"/>
</g>
<!-- Node16 -->
<g id="node16" class="node">
<title>Node16</title>
<g id="a_node16"><a xlink:title=" ">
<polygon fill="none" stroke="#bfbfbf" points="500.5,-11.5 500.5,-30.5 605.5,-30.5 605.5,-11.5 500.5,-11.5"/>
<text text-anchor="middle" x="553" y="-18.5" font-family="Helvetica,sans-Serif" font-size="10.00">CGAL/Polygon_2.h</text>
</a>
</g>
</g>
<!-- Node11&#45;&gt;Node16 -->
<g id="edge15" class="edge">
<title>Node11&#45;&gt;Node16</title>
<path fill="none" stroke="midnightblue" d="M444.99,-78.4C469.07,-65.83 504.06,-47.56 527.63,-35.25"/>
<polygon fill="midnightblue" stroke="midnightblue" points="529.42,-38.27 536.66,-30.53 526.17,-32.06 529.42,-38.27"/>
</g>
<!-- Node17 -->
<g id="node17" class="node">
<title>Node17</title>
<g id="a_node17"><a xlink:title=" ">
<polygon fill="none" stroke="#bfbfbf" points="623.5,-11.5 623.5,-30.5 744.5,-30.5 744.5,-11.5 623.5,-11.5"/>
<text text-anchor="middle" x="684" y="-18.5" font-family="Helvetica,sans-Serif" font-size="10.00">CGAL/Polyhedron_3.h</text>
</a>
</g>
</g>
<!-- Node11&#45;&gt;Node17 -->
<g id="edge16" class="edge">
<title>Node11&#45;&gt;Node17</title>
<path fill="none" stroke="midnightblue" d="M474.59,-78.49C514.03,-68.6 567.83,-54.88 615,-42 624.93,-39.29 635.62,-36.25 645.56,-33.37"/>
<polygon fill="midnightblue" stroke="midnightblue" points="646.56,-36.73 655.18,-30.57 644.61,-30 646.56,-36.73"/>
</g>
<!-- Node18 -->
<g id="node18" class="node">
<title>Node18</title>
<g id="a_node18"><a xlink:href="namespace_8h.html" target="_top" xlink:title=" ">
<polygon fill="none" stroke="black" points="763,-6 763,-36 899,-36 899,-6 763,-6"/>
<text text-anchor="start" x="771" y="-24" font-family="Helvetica,sans-Serif" font-size="10.00">VoronoiMeshMaker/Misc</text>
<text text-anchor="middle" x="831" y="-13" font-family="Helvetica,sans-Serif" font-size="10.00">/namespace.h</text>
</a>
</g>
</g>
<!-- Node11&#45;&gt;Node18 -->
<g id="edge17" class="edge">
<title>Node11&#45;&gt;Node18</title>
<path fill="none" stroke="midnightblue" d="M486.03,-79.67C489.4,-79.09 492.74,-78.53 496,-78 610.28,-59.42 640.45,-64.59 754,-42 759.33,-40.94 764.85,-39.73 770.36,-38.45"/>
<polygon fill="midnightblue" stroke="midnightblue" points="771.34,-41.81 780.25,-36.07 769.7,-35 771.34,-41.81"/>
</g>
<!-- Node21 -->
<g id="node21" class="node">
<title>Node21</title>
<g id="a_node21"><a xlink:title=" ">
<polygon fill="none" stroke="#bfbfbf" points="694,-218 694,-237 738,-237 738,-218 694,-218"/>
<text text-anchor="middle" x="716" y="-225" font-family="Helvetica,sans-Serif" font-size="10.00">string</text>
</a>
</g>
</g>
<!-- Node20&#45;&gt;Node21 -->
<g id="edge20" class="edge">
<title>Node20&#45;&gt;Node21</title>
<path fill="none" stroke="midnightblue" d="M569.37,-279.42C603.19,-270.26 647.08,-257.37 685,-243 686.42,-242.46 687.87,-241.88 689.33,-241.28"/>
<polygon fill="midnightblue" stroke="midnightblue" points="691.08,-244.33 698.82,-237.1 688.26,-237.93 691.08,-244.33"/>
</g>
<!-- Node22 -->
<g id="node22" class="node">
<title>Node22</title>
<g id="a_node22"><a xlink:title=" ">
<polygon fill="none" stroke="#bfbfbf" points="756.5,-218 756.5,-237 821.5,-237 821.5,-218 756.5,-218"/>
<text text-anchor="middle" x="789" y="-225" font-family="Helvetica,sans-Serif" font-size="10.00">exception</text>
</a>
</g>
</g>
<!-- Node20&#45;&gt;Node22 -->
<g id="edge21" class="edge">
<title>Node20&#45;&gt;Node22</title>
<path fill="none" stroke="midnightblue" d="M582.58,-280.87C629.27,-271.72 692.29,-258.31 747,-243 749.95,-242.17 753,-241.26 756.04,-240.29"/>
<polygon fill="midnightblue" stroke="midnightblue" points="757.21,-243.59 765.61,-237.13 755.02,-236.94 757.21,-243.59"/>
</g>
<!-- Node23 -->
<g id="node23" class="node">
<title>Node23</title>
<g id="a_node23"><a xlink:title=" ">
<polygon fill="none" stroke="#bfbfbf" points="289.5,-218 289.5,-237 346.5,-237 346.5,-218 289.5,-218"/>
<text text-anchor="middle" x="318" y="-225" font-family="Helvetica,sans-Serif" font-size="10.00">ostream</text>
</a>
</g>
</g>
<!-- Node20&#45;&gt;Node23 -->
<g id="edge22" class="edge">
<title>Node20&#45;&gt;Node23</title>
<path fill="none" stroke="midnightblue" d="M467.8,-279.47C436.18,-269.69 393.37,-256.09 356,-243 353.89,-242.26 351.72,-241.48 349.53,-240.68"/>
<polygon fill="midnightblue" stroke="midnightblue" points="350.62,-237.35 340.03,-237.14 348.18,-243.91 350.62,-237.35"/>
</g>
<!-- Node24 -->
<g id="node24" class="node">
<title>Node24</title>
<g id="a_node24"><a xlink:href="id_8h.html" target="_top" xlink:title=" ">
<polygon fill="none" stroke="black" points="364.5,-218 364.5,-237 521.5,-237 521.5,-218 364.5,-218"/>
<text text-anchor="middle" x="443" y="-225" font-family="Helvetica,sans-Serif" font-size="10.00">VoronoiMeshMaker/Misc/id.h</text>
</a>
</g>
</g>
<!-- Node20&#45;&gt;Node24 -->
<g id="edge23" class="edge">
<title>Node20&#45;&gt;Node24</title>
<path fill="none" stroke="midnightblue" d="M498.59,-279.4C487.19,-268.96 471.67,-254.75 459.93,-244"/>
<polygon fill="midnightblue" stroke="midnightblue" points="462.24,-241.37 452.5,-237.19 457.51,-246.53 462.24,-241.37"/>
</g>
<!-- Node26 -->
<g id="node26" class="node">
<title>Node26</title>
<g id="a_node26"><a xlink:href="sourceinfo_8h.html" target="_top" xlink:title="Provides information about the source of an error or event in a function.">
<polygon fill="none" stroke="black" points="540,-212.5 540,-242.5 676,-242.5 676,-212.5 540,-212.5"/>
<text text-anchor="start" x="548" y="-230.5" font-family="Helvetica,sans-Serif" font-size="10.00">VoronoiMeshMaker/Misc</text>
<text text-anchor="middle" x="608" y="-219.5" font-family="Helvetica,sans-Serif" font-size="10.00">/sourceinfo.h</text>
</a>
</g>
</g>
<!-- Node20&#45;&gt;Node26 -->
<g id="edge27" class="edge">
<title>Node20&#45;&gt;Node26</title>
<path fill="none" stroke="midnightblue" d="M534.4,-279.4C547.45,-270.37 564.6,-258.51 579.05,-248.52"/>
<polygon fill="midnightblue" stroke="midnightblue" points="581.41,-251.14 587.64,-242.58 577.43,-245.39 581.41,-251.14"/>
</g>
<!-- Node24&#45;&gt;Node10 -->
<g id="edge24" class="edge">
<title>Node24&#45;&gt;Node10</title>
<path fill="none" stroke="midnightblue" d="M458.58,-217.97C473.35,-209.17 495.28,-194.2 509,-176 523.34,-156.98 532.11,-130.71 536.76,-113.2"/>
<polygon fill="midnightblue" stroke="midnightblue" points="540.25,-113.66 539.24,-103.11 533.45,-111.99 540.25,-113.66"/>
</g>
<!-- Node25 -->
<g id="node25" class="node">
<title>Node25</title>
<g id="a_node25"><a xlink:href="configure_8h.html" target="_top" xlink:title="Defines common constants used across the VoronoiMeshMaker library.">
<polygon fill="none" stroke="black" points="364,-145.5 364,-175.5 500,-175.5 500,-145.5 364,-145.5"/>
<text text-anchor="start" x="372" y="-163.5" font-family="Helvetica,sans-Serif" font-size="10.00">VoronoiMeshMaker/Misc</text>
<text text-anchor="middle" x="432" y="-152.5" font-family="Helvetica,sans-Serif" font-size="10.00">/configure.h</text>
</a>
</g>
</g>
<!-- Node24&#45;&gt;Node25 -->
<g id="edge25" class="edge">
<title>Node24&#45;&gt;Node25</title>
<path fill="none" stroke="midnightblue" d="M441.52,-217.73C440.13,-209.54 437.99,-196.92 436.1,-185.71"/>
<polygon fill="midnightblue" stroke="midnightblue" points="439.5,-184.86 434.38,-175.59 432.6,-186.03 439.5,-184.86"/>
</g>
<!-- Node25&#45;&gt;Node11 -->
<g id="edge26" class="edge">
<title>Node25&#45;&gt;Node11</title>
<path fill="none" stroke="midnightblue" d="M428.96,-145.4C427.27,-137.56 425.13,-127.6 423.18,-118.57"/>
<polygon fill="midnightblue" stroke="midnightblue" points="426.56,-117.62 421.03,-108.58 419.72,-119.09 426.56,-117.62"/>
</g>
<!-- Node26&#45;&gt;Node10 -->
<g id="edge28" class="edge">
<title>Node26&#45;&gt;Node10</title>
<path fill="none" stroke="midnightblue" d="M600.83,-212.37C588.55,-188.18 563.52,-138.88 550.06,-112.35"/>
<polygon fill="midnightblue" stroke="midnightblue" points="553.01,-110.43 545.36,-103.1 546.77,-113.6 553.01,-110.43"/>
</g>
<!-- Node27 -->
<g id="node27" class="node">
<title>Node27</title>
<g id="a_node27"><a xlink:title=" ">
<polygon fill="none" stroke="#bfbfbf" points="594,-145.5 594,-175.5 730,-175.5 730,-145.5 594,-145.5"/>
<text text-anchor="start" x="602" y="-163.5" font-family="Helvetica,sans-Serif" font-size="10.00">VoronoiMeshMaker/Misc</text>
<text text-anchor="middle" x="662" y="-152.5" font-family="Helvetica,sans-Serif" font-size="10.00">/Misc.h</text>
</a>
</g>
</g>
<!-- Node26&#45;&gt;Node27 -->
<g id="edge29" class="edge">
<title>Node26&#45;&gt;Node27</title>
<path fill="none" stroke="midnightblue" d="M619.72,-212.4C626.72,-203.96 635.77,-193.07 643.71,-183.52"/>
<polygon fill="midnightblue" stroke="midnightblue" points="646.61,-185.51 650.31,-175.58 641.22,-181.03 646.61,-185.51"/>
</g>
<!-- Node28&#45;&gt;Node5 -->
<g id="edge31" class="edge">
<title>Node28&#45;&gt;Node5</title>
<path fill="none" stroke="midnightblue" d="M251.97,-279.4C230.98,-269.86 203.06,-257.16 180.35,-246.84"/>
<polygon fill="midnightblue" stroke="midnightblue" points="181.52,-243.53 170.97,-242.58 178.62,-249.9 181.52,-243.53"/>
</g>
<!-- Node28&#45;&gt;Node7 -->
<g id="edge32" class="edge">
<title>Node28&#45;&gt;Node7</title>
<path fill="none" stroke="midnightblue" d="M280.65,-279.37C276.91,-256.94 269.57,-212.92 265,-185.49"/>
<polygon fill="midnightblue" stroke="midnightblue" points="268.43,-184.81 263.34,-175.52 261.53,-185.96 268.43,-184.81"/>
</g>
</g>
</svg>
