<?xml version="1.0" encoding="UTF-8" standalone="no"?>
<!DOCTYPE svg PUBLIC "-//W3C//DTD SVG 1.1//EN"
 "http://www.w3.org/Graphics/SVG/1.1/DTD/svg11.dtd">
<!-- Generated by graphviz version 2.43.0 (0)
 -->
<!-- Title: VoronoiMeshMaker/include/VoronoiMeshMaker/Shape/Shape.h Pages: 1 -->
<svg width="1157pt" height="284pt"
 viewBox="0.00 0.00 1157.00 284.00" xmlns="http://www.w3.org/2000/svg" xmlns:xlink="http://www.w3.org/1999/xlink">
<g id="graph0" class="graph" transform="scale(1 1) rotate(0) translate(4 280)">
<title>VoronoiMeshMaker/include/VoronoiMeshMaker/Shape/Shape.h</title>
<!-- Node1 -->
<g id="node1" class="node">
<title>Node1</title>
<g id="a_node1"><a xlink:title="Defines the Shape class, which serves as the abstract base class for all shapes.">
<polygon fill="#bfbfbf" stroke="black" points="500,-234.5 500,-275.5 649,-275.5 649,-234.5 500,-234.5"/>
<text text-anchor="start" x="508" y="-263.5" font-family="Helvetica,sans-Serif" font-size="10.00">VoronoiMeshMaker/include</text>
<text text-anchor="start" x="508" y="-252.5" font-family="Helvetica,sans-Serif" font-size="10.00">/VoronoiMeshMaker/Shape</text>
<text text-anchor="middle" x="574.5" y="-241.5" font-family="Helvetica,sans-Serif" font-size="10.00">/Shape.h</text>
</a>
</g>
</g>
<!-- Node2 -->
<g id="node2" class="node">
<title>Node2</title>
<g id="a_node2"><a xlink:href="Shape2D_8h.html" target="_top" xlink:title="Defines the Shape2D class, which represents 2D geometric shapes.">
<polygon fill="none" stroke="black" points="500,-156.5 500,-197.5 649,-197.5 649,-156.5 500,-156.5"/>
<text text-anchor="start" x="508" y="-185.5" font-family="Helvetica,sans-Serif" font-size="10.00">VoronoiMeshMaker/include</text>
<text text-anchor="start" x="508" y="-174.5" font-family="Helvetica,sans-Serif" font-size="10.00">/VoronoiMeshMaker/Shape</text>
<text text-anchor="middle" x="574.5" y="-163.5" font-family="Helvetica,sans-Serif" font-size="10.00">/Shape2D/Shape2D.h</text>
</a>
</g>
</g>
<!-- Node1&#45;&gt;Node2 -->
<g id="edge1" class="edge">
<title>Node1&#45;&gt;Node2</title>
<path fill="none" stroke="midnightblue" d="M574.5,-224.3C574.5,-215.3 574.5,-205.65 574.5,-197.51"/>
<polygon fill="midnightblue" stroke="midnightblue" points="571,-224.43 574.5,-234.43 578,-224.43 571,-224.43"/>
</g>
<!-- Node14 -->
<g id="node14" class="node">
<title>Node14</title>
<g id="a_node14"><a xlink:href="ShapeFactory_8h.html" target="_top" xlink:title=" ">
<polygon fill="none" stroke="black" points="167,-78.5 167,-119.5 316,-119.5 316,-78.5 167,-78.5"/>
<text text-anchor="start" x="175" y="-107.5" font-family="Helvetica,sans-Serif" font-size="10.00">VoronoiMeshMaker/include</text>
<text text-anchor="start" x="175" y="-96.5" font-family="Helvetica,sans-Serif" font-size="10.00">/VoronoiMeshMaker/Shape</text>
<text text-anchor="middle" x="241.5" y="-85.5" font-family="Helvetica,sans-Serif" font-size="10.00">/ShapeFactory.h</text>
</a>
</g>
</g>
<!-- Node1&#45;&gt;Node14 -->
<g id="edge13" class="edge">
<title>Node1&#45;&gt;Node14</title>
<path fill="none" stroke="midnightblue" d="M522.98,-230.17C457.26,-199.78 344.84,-147.79 283.86,-119.59"/>
<polygon fill="midnightblue" stroke="midnightblue" points="521.78,-233.47 532.33,-234.5 524.72,-227.12 521.78,-233.47"/>
</g>
<!-- Node16 -->
<g id="node16" class="node">
<title>Node16</title>
<g id="a_node16"><a xlink:href="Shape_8cpp.html" target="_top" xlink:title="Implementation of the Shape class methods.">
<polygon fill="none" stroke="black" points="667.5,-156.5 667.5,-197.5 813.5,-197.5 813.5,-156.5 667.5,-156.5"/>
<text text-anchor="start" x="675.5" y="-185.5" font-family="Helvetica,sans-Serif" font-size="10.00">VoronoiMeshMaker/src</text>
<text text-anchor="start" x="675.5" y="-174.5" font-family="Helvetica,sans-Serif" font-size="10.00">/VoronoiMeshMaker/Shape</text>
<text text-anchor="middle" x="740.5" y="-163.5" font-family="Helvetica,sans-Serif" font-size="10.00">/Shape.cpp</text>
</a>
</g>
</g>
<!-- Node1&#45;&gt;Node16 -->
<g id="edge18" class="edge">
<title>Node1&#45;&gt;Node16</title>
<path fill="none" stroke="midnightblue" d="M626.51,-230.19C649.47,-219.67 676.13,-207.47 697.9,-197.51"/>
<polygon fill="midnightblue" stroke="midnightblue" points="624.88,-227.08 617.25,-234.43 627.8,-233.45 624.88,-227.08"/>
</g>
<!-- Node3 -->
<g id="node3" class="node">
<title>Node3</title>
<g id="a_node3"><a xlink:href="Ellipse_8h.html" target="_top" xlink:title=" ">
<polygon fill="none" stroke="black" points="0,-78.5 0,-119.5 149,-119.5 149,-78.5 0,-78.5"/>
<text text-anchor="start" x="8" y="-107.5" font-family="Helvetica,sans-Serif" font-size="10.00">VoronoiMeshMaker/include</text>
<text text-anchor="start" x="8" y="-96.5" font-family="Helvetica,sans-Serif" font-size="10.00">/VoronoiMeshMaker/Shape</text>
<text text-anchor="middle" x="74.5" y="-85.5" font-family="Helvetica,sans-Serif" font-size="10.00">/Shape2D/Ellipse.h</text>
</a>
</g>
</g>
<!-- Node2&#45;&gt;Node3 -->
<g id="edge2" class="edge">
<title>Node2&#45;&gt;Node3</title>
<path fill="none" stroke="midnightblue" d="M489.87,-167.22C405.34,-157.85 271.86,-141.4 157.5,-120 154.73,-119.48 151.92,-118.93 149.08,-118.35"/>
<polygon fill="midnightblue" stroke="midnightblue" points="489.61,-170.71 499.93,-168.33 490.38,-163.76 489.61,-170.71"/>
</g>
<!-- Node5 -->
<g id="node5" class="node">
<title>Node5</title>
<g id="a_node5"><a xlink:href="Polygon_8h.html" target="_top" xlink:title=" ">
<polygon fill="none" stroke="black" points="833,-78.5 833,-119.5 982,-119.5 982,-78.5 833,-78.5"/>
<text text-anchor="start" x="841" y="-107.5" font-family="Helvetica,sans-Serif" font-size="10.00">VoronoiMeshMaker/include</text>
<text text-anchor="start" x="841" y="-96.5" font-family="Helvetica,sans-Serif" font-size="10.00">/VoronoiMeshMaker/Shape</text>
<text text-anchor="middle" x="907.5" y="-85.5" font-family="Helvetica,sans-Serif" font-size="10.00">/Shape2D/Polygon.h</text>
</a>
</g>
</g>
<!-- Node2&#45;&gt;Node5 -->
<g id="edge4" class="edge">
<title>Node2&#45;&gt;Node5</title>
<path fill="none" stroke="midnightblue" d="M658.98,-155.91C733.3,-139.07 753.32,-136.01 823.5,-120 826.57,-119.3 829.7,-118.58 832.86,-117.85"/>
<polygon fill="midnightblue" stroke="midnightblue" points="658.11,-152.52 649.14,-158.15 659.67,-159.35 658.11,-152.52"/>
</g>
<!-- Node7 -->
<g id="node7" class="node">
<title>Node7</title>
<g id="a_node7"><a xlink:href="PolygonCSV_8h.html" target="_top" xlink:title=" ">
<polygon fill="none" stroke="black" points="1000,-78.5 1000,-119.5 1149,-119.5 1149,-78.5 1000,-78.5"/>
<text text-anchor="start" x="1008" y="-107.5" font-family="Helvetica,sans-Serif" font-size="10.00">VoronoiMeshMaker/include</text>
<text text-anchor="start" x="1008" y="-96.5" font-family="Helvetica,sans-Serif" font-size="10.00">/VoronoiMeshMaker/Shape</text>
<text text-anchor="middle" x="1074.5" y="-85.5" font-family="Helvetica,sans-Serif" font-size="10.00">/Shape2D/PolygonCSV.h</text>
</a>
</g>
</g>
<!-- Node2&#45;&gt;Node7 -->
<g id="edge6" class="edge">
<title>Node2&#45;&gt;Node7</title>
<path fill="none" stroke="midnightblue" d="M658.93,-156.05C806.5,-131.37 847.38,-144.7 990.5,-120 993.6,-119.46 996.76,-118.88 999.95,-118.27"/>
<polygon fill="midnightblue" stroke="midnightblue" points="658.32,-152.61 649.05,-157.73 659.5,-159.51 658.32,-152.61"/>
</g>
<!-- Node9 -->
<g id="node9" class="node">
<title>Node9</title>
<g id="a_node9"><a xlink:href="Rectangle_8h.html" target="_top" xlink:title=" ">
<polygon fill="none" stroke="black" points="334,-78.5 334,-119.5 483,-119.5 483,-78.5 334,-78.5"/>
<text text-anchor="start" x="342" y="-107.5" font-family="Helvetica,sans-Serif" font-size="10.00">VoronoiMeshMaker/include</text>
<text text-anchor="start" x="342" y="-96.5" font-family="Helvetica,sans-Serif" font-size="10.00">/VoronoiMeshMaker/Shape</text>
<text text-anchor="middle" x="408.5" y="-85.5" font-family="Helvetica,sans-Serif" font-size="10.00">/Shape2D/Rectangle.h</text>
</a>
</g>
</g>
<!-- Node2&#45;&gt;Node9 -->
<g id="edge8" class="edge">
<title>Node2&#45;&gt;Node9</title>
<path fill="none" stroke="midnightblue" d="M522.49,-152.19C499.53,-141.67 472.87,-129.47 451.1,-119.51"/>
<polygon fill="midnightblue" stroke="midnightblue" points="521.2,-155.45 531.75,-156.43 524.12,-149.08 521.2,-155.45"/>
</g>
<!-- Node11 -->
<g id="node11" class="node">
<title>Node11</title>
<g id="a_node11"><a xlink:href="Star_8h.html" target="_top" xlink:title=" ">
<polygon fill="none" stroke="black" points="666,-78.5 666,-119.5 815,-119.5 815,-78.5 666,-78.5"/>
<text text-anchor="start" x="674" y="-107.5" font-family="Helvetica,sans-Serif" font-size="10.00">VoronoiMeshMaker/include</text>
<text text-anchor="start" x="674" y="-96.5" font-family="Helvetica,sans-Serif" font-size="10.00">/VoronoiMeshMaker/Shape</text>
<text text-anchor="middle" x="740.5" y="-85.5" font-family="Helvetica,sans-Serif" font-size="10.00">/Shape2D/Star.h</text>
</a>
</g>
</g>
<!-- Node2&#45;&gt;Node11 -->
<g id="edge10" class="edge">
<title>Node2&#45;&gt;Node11</title>
<path fill="none" stroke="midnightblue" d="M626.51,-152.19C649.47,-141.67 676.13,-129.47 697.9,-119.51"/>
<polygon fill="midnightblue" stroke="midnightblue" points="624.88,-149.08 617.25,-156.43 627.8,-155.45 624.88,-149.08"/>
</g>
<!-- Node13 -->
<g id="node13" class="node">
<title>Node13</title>
<g id="a_node13"><a xlink:href="Shape2D_8cpp.html" target="_top" xlink:title="Implementation of the Shape2D class methods.">
<polygon fill="none" stroke="black" points="501.5,-78.5 501.5,-119.5 647.5,-119.5 647.5,-78.5 501.5,-78.5"/>
<text text-anchor="start" x="509.5" y="-107.5" font-family="Helvetica,sans-Serif" font-size="10.00">VoronoiMeshMaker/src</text>
<text text-anchor="start" x="509.5" y="-96.5" font-family="Helvetica,sans-Serif" font-size="10.00">/VoronoiMeshMaker/Shape</text>
<text text-anchor="middle" x="574.5" y="-85.5" font-family="Helvetica,sans-Serif" font-size="10.00">/Shape2D/Shape2D.cpp</text>
</a>
</g>
</g>
<!-- Node2&#45;&gt;Node13 -->
<g id="edge12" class="edge">
<title>Node2&#45;&gt;Node13</title>
<path fill="none" stroke="midnightblue" d="M574.5,-146.3C574.5,-137.3 574.5,-127.65 574.5,-119.51"/>
<polygon fill="midnightblue" stroke="midnightblue" points="571,-146.43 574.5,-156.43 578,-146.43 571,-146.43"/>
</g>
<!-- Node4 -->
<g id="node4" class="node">
<title>Node4</title>
<g id="a_node4"><a xlink:href="Ellipse_8cpp.html" target="_top" xlink:title=" ">
<polygon fill="none" stroke="black" points="3.5,-0.5 3.5,-41.5 149.5,-41.5 149.5,-0.5 3.5,-0.5"/>
<text text-anchor="start" x="11.5" y="-29.5" font-family="Helvetica,sans-Serif" font-size="10.00">VoronoiMeshMaker/src</text>
<text text-anchor="start" x="11.5" y="-18.5" font-family="Helvetica,sans-Serif" font-size="10.00">/VoronoiMeshMaker/Shape</text>
<text text-anchor="middle" x="76.5" y="-7.5" font-family="Helvetica,sans-Serif" font-size="10.00">/Shape2D/Ellipse.cpp</text>
</a>
</g>
</g>
<!-- Node3&#45;&gt;Node4 -->
<g id="edge3" class="edge">
<title>Node3&#45;&gt;Node4</title>
<path fill="none" stroke="midnightblue" d="M75.28,-68.3C75.52,-59.3 75.77,-49.65 75.99,-41.51"/>
<polygon fill="midnightblue" stroke="midnightblue" points="71.78,-68.34 75.02,-78.43 78.78,-68.52 71.78,-68.34"/>
</g>
<!-- Node6 -->
<g id="node6" class="node">
<title>Node6</title>
<g id="a_node6"><a xlink:href="Polygon_8cpp.html" target="_top" xlink:title=" ">
<polygon fill="none" stroke="black" points="834.5,-0.5 834.5,-41.5 980.5,-41.5 980.5,-0.5 834.5,-0.5"/>
<text text-anchor="start" x="842.5" y="-29.5" font-family="Helvetica,sans-Serif" font-size="10.00">VoronoiMeshMaker/src</text>
<text text-anchor="start" x="842.5" y="-18.5" font-family="Helvetica,sans-Serif" font-size="10.00">/VoronoiMeshMaker/Shape</text>
<text text-anchor="middle" x="907.5" y="-7.5" font-family="Helvetica,sans-Serif" font-size="10.00">/Shape2D/Polygon.cpp</text>
</a>
</g>
</g>
<!-- Node5&#45;&gt;Node6 -->
<g id="edge5" class="edge">
<title>Node5&#45;&gt;Node6</title>
<path fill="none" stroke="midnightblue" d="M907.5,-68.3C907.5,-59.3 907.5,-49.65 907.5,-41.51"/>
<polygon fill="midnightblue" stroke="midnightblue" points="904,-68.43 907.5,-78.43 911,-68.43 904,-68.43"/>
</g>
<!-- Node8 -->
<g id="node8" class="node">
<title>Node8</title>
<g id="a_node8"><a xlink:href="PolygonCSV_8cpp.html" target="_top" xlink:title=" ">
<polygon fill="none" stroke="black" points="1001.5,-0.5 1001.5,-41.5 1147.5,-41.5 1147.5,-0.5 1001.5,-0.5"/>
<text text-anchor="start" x="1009.5" y="-29.5" font-family="Helvetica,sans-Serif" font-size="10.00">VoronoiMeshMaker/src</text>
<text text-anchor="start" x="1009.5" y="-18.5" font-family="Helvetica,sans-Serif" font-size="10.00">/VoronoiMeshMaker/Shape</text>
<text text-anchor="middle" x="1074.5" y="-7.5" font-family="Helvetica,sans-Serif" font-size="10.00">/Shape2D/PolygonCSV.cpp</text>
</a>
</g>
</g>
<!-- Node7&#45;&gt;Node8 -->
<g id="edge7" class="edge">
<title>Node7&#45;&gt;Node8</title>
<path fill="none" stroke="midnightblue" d="M1074.5,-68.3C1074.5,-59.3 1074.5,-49.65 1074.5,-41.51"/>
<polygon fill="midnightblue" stroke="midnightblue" points="1071,-68.43 1074.5,-78.43 1078,-68.43 1071,-68.43"/>
</g>
<!-- Node10 -->
<g id="node10" class="node">
<title>Node10</title>
<g id="a_node10"><a xlink:href="Rectangle_8cpp.html" target="_top" xlink:title=" ">
<polygon fill="none" stroke="black" points="334.5,-0.5 334.5,-41.5 480.5,-41.5 480.5,-0.5 334.5,-0.5"/>
<text text-anchor="start" x="342.5" y="-29.5" font-family="Helvetica,sans-Serif" font-size="10.00">VoronoiMeshMaker/src</text>
<text text-anchor="start" x="342.5" y="-18.5" font-family="Helvetica,sans-Serif" font-size="10.00">/VoronoiMeshMaker/Shape</text>
<text text-anchor="middle" x="407.5" y="-7.5" font-family="Helvetica,sans-Serif" font-size="10.00">/Shape2D/Rectangle.cpp</text>
</a>
</g>
</g>
<!-- Node9&#45;&gt;Node10 -->
<g id="edge9" class="edge">
<title>Node9&#45;&gt;Node10</title>
<path fill="none" stroke="midnightblue" d="M408.11,-68.3C407.99,-59.3 407.86,-49.65 407.76,-41.51"/>
<polygon fill="midnightblue" stroke="midnightblue" points="404.61,-68.48 408.24,-78.43 411.61,-68.38 404.61,-68.48"/>
</g>
<!-- Node12 -->
<g id="node12" class="node">
<title>Node12</title>
<g id="a_node12"><a xlink:href="Star_8cpp.html" target="_top" xlink:title=" ">
<polygon fill="none" stroke="black" points="583.5,-0.5 583.5,-41.5 729.5,-41.5 729.5,-0.5 583.5,-0.5"/>
<text text-anchor="start" x="591.5" y="-29.5" font-family="Helvetica,sans-Serif" font-size="10.00">VoronoiMeshMaker/src</text>
<text text-anchor="start" x="591.5" y="-18.5" font-family="Helvetica,sans-Serif" font-size="10.00">/VoronoiMeshMaker/Shape</text>
<text text-anchor="middle" x="656.5" y="-7.5" font-family="Helvetica,sans-Serif" font-size="10.00">/Shape2D/Star.cpp</text>
</a>
</g>
</g>
<!-- Node11&#45;&gt;Node12 -->
<g id="edge11" class="edge">
<title>Node11&#45;&gt;Node12</title>
<path fill="none" stroke="midnightblue" d="M711.2,-71.49C700.3,-61.63 688.14,-50.63 678.06,-41.51"/>
<polygon fill="midnightblue" stroke="midnightblue" points="709.1,-74.31 718.87,-78.43 713.8,-69.12 709.1,-74.31"/>
</g>
<!-- Node14&#45;&gt;Node4 -->
<g id="edge14" class="edge">
<title>Node14&#45;&gt;Node4</title>
<path fill="none" stroke="midnightblue" d="M189.81,-74.19C166.98,-63.67 140.48,-51.47 118.85,-41.51"/>
<polygon fill="midnightblue" stroke="midnightblue" points="188.46,-77.42 199.01,-78.43 191.39,-71.07 188.46,-77.42"/>
</g>
<!-- Node14&#45;&gt;Node10 -->
<g id="edge15" class="edge">
<title>Node14&#45;&gt;Node10</title>
<path fill="none" stroke="midnightblue" d="M293.51,-74.19C316.47,-63.67 343.13,-51.47 364.9,-41.51"/>
<polygon fill="midnightblue" stroke="midnightblue" points="291.88,-71.08 284.25,-78.43 294.8,-77.45 291.88,-71.08"/>
</g>
<!-- Node14&#45;&gt;Node12 -->
<g id="edge16" class="edge">
<title>Node14&#45;&gt;Node12</title>
<path fill="none" stroke="midnightblue" d="M326.07,-77.74C420.11,-58.74 518.22,-42.84 583.37,-32.84"/>
<polygon fill="midnightblue" stroke="midnightblue" points="325.2,-74.34 316.1,-79.77 326.6,-81.2 325.2,-74.34"/>
</g>
<!-- Node15 -->
<g id="node15" class="node">
<title>Node15</title>
<g id="a_node15"><a xlink:href="ShapeFactory_8cpp.html" target="_top" xlink:title="Implements the ShapeFactory methods for creating shape objects. This file contains the registration a...">
<polygon fill="none" stroke="black" points="168.5,-0.5 168.5,-41.5 314.5,-41.5 314.5,-0.5 168.5,-0.5"/>
<text text-anchor="start" x="176.5" y="-29.5" font-family="Helvetica,sans-Serif" font-size="10.00">VoronoiMeshMaker/src</text>
<text text-anchor="start" x="176.5" y="-18.5" font-family="Helvetica,sans-Serif" font-size="10.00">/VoronoiMeshMaker/Shape</text>
<text text-anchor="middle" x="241.5" y="-7.5" font-family="Helvetica,sans-Serif" font-size="10.00">/ShapeFactory.cpp</text>
</a>
</g>
</g>
<!-- Node14&#45;&gt;Node15 -->
<g id="edge17" class="edge">
<title>Node14&#45;&gt;Node15</title>
<path fill="none" stroke="midnightblue" d="M241.5,-68.3C241.5,-59.3 241.5,-49.65 241.5,-41.51"/>
<polygon fill="midnightblue" stroke="midnightblue" points="238,-68.43 241.5,-78.43 245,-68.43 238,-68.43"/>
</g>
</g>
</svg>
