<?xml version="1.0" encoding="UTF-8" standalone="no"?>
<!DOCTYPE svg PUBLIC "-//W3C//DTD SVG 1.1//EN"
 "http://www.w3.org/Graphics/SVG/1.1/DTD/svg11.dtd">
<!-- Generated by graphviz version 2.43.0 (0)
 -->
<!-- Title: VoronoiMeshMaker/include/VoronoiMeshMaker/Shape/Shape2D/Shape2D.h Pages: 1 -->
<svg width="873pt" height="329pt"
 viewBox="0.00 0.00 873.00 329.00" xmlns="http://www.w3.org/2000/svg" xmlns:xlink="http://www.w3.org/1999/xlink">
<g id="graph0" class="graph" transform="scale(1 1) rotate(0) translate(4 325)">
<title>VoronoiMeshMaker/include/VoronoiMeshMaker/Shape/Shape2D/Shape2D.h</title>
<!-- Node1 -->
<g id="node1" class="node">
<title>Node1</title>
<g id="a_node1"><a xlink:title="Defines the Shape2D class, which represents 2D geometric shapes.">
<polygon fill="#bfbfbf" stroke="black" points="95.5,-279.5 95.5,-320.5 244.5,-320.5 244.5,-279.5 95.5,-279.5"/>
<text text-anchor="start" x="103.5" y="-308.5" font-family="Helvetica,sans-Serif" font-size="10.00">VoronoiMeshMaker/include</text>
<text text-anchor="start" x="103.5" y="-297.5" font-family="Helvetica,sans-Serif" font-size="10.00">/VoronoiMeshMaker/Shape</text>
<text text-anchor="middle" x="170" y="-286.5" font-family="Helvetica,sans-Serif" font-size="10.00">/Shape2D/Shape2D.h</text>
</a>
</g>
</g>
<!-- Node2 -->
<g id="node2" class="node">
<title>Node2</title>
<g id="a_node2"><a xlink:href="Shape_8h.html" target="_top" xlink:title="Defines the Shape class, which serves as the abstract base class for all shapes.">
<polygon fill="none" stroke="black" points="98.5,-212.5 98.5,-242.5 241.5,-242.5 241.5,-212.5 98.5,-212.5"/>
<text text-anchor="start" x="106.5" y="-230.5" font-family="Helvetica,sans-Serif" font-size="10.00">VoronoiMeshMaker/Shape</text>
<text text-anchor="middle" x="170" y="-219.5" font-family="Helvetica,sans-Serif" font-size="10.00">/Shape.h</text>
</a>
</g>
</g>
<!-- Node1&#45;&gt;Node2 -->
<g id="edge1" class="edge">
<title>Node1&#45;&gt;Node2</title>
<path fill="none" stroke="midnightblue" d="M170,-279.36C170,-271.23 170,-261.7 170,-253.11"/>
<polygon fill="midnightblue" stroke="midnightblue" points="173.5,-252.89 170,-242.89 166.5,-252.89 173.5,-252.89"/>
</g>
<!-- Node3 -->
<g id="node3" class="node">
<title>Node3</title>
<g id="a_node3"><a xlink:title=" ">
<polygon fill="none" stroke="#bfbfbf" points="0,-151 0,-170 158,-170 158,-151 0,-151"/>
<text text-anchor="middle" x="79" y="-158" font-family="Helvetica,sans-Serif" font-size="10.00">VoronoiMeshMaker/Misc/ID.h</text>
</a>
</g>
</g>
<!-- Node2&#45;&gt;Node3 -->
<g id="edge2" class="edge">
<title>Node2&#45;&gt;Node3</title>
<path fill="none" stroke="midnightblue" d="M150.25,-212.4C135.14,-201.6 114.36,-186.76 99.14,-175.89"/>
<polygon fill="midnightblue" stroke="midnightblue" points="101.08,-172.97 90.91,-170.01 97.01,-178.67 101.08,-172.97"/>
</g>
<!-- Node4 -->
<g id="node4" class="node">
<title>Node4</title>
<g id="a_node4"><a xlink:href="GeometricDataHolder_8h.html" target="_top" xlink:title=" ">
<polygon fill="none" stroke="black" points="176,-145.5 176,-175.5 346,-175.5 346,-145.5 176,-145.5"/>
<text text-anchor="start" x="184" y="-163.5" font-family="Helvetica,sans-Serif" font-size="10.00">VoronoiMeshMaker/Parameters</text>
<text text-anchor="middle" x="261" y="-152.5" font-family="Helvetica,sans-Serif" font-size="10.00">/GeometricDataHolder.h</text>
</a>
</g>
</g>
<!-- Node2&#45;&gt;Node4 -->
<g id="edge3" class="edge">
<title>Node2&#45;&gt;Node4</title>
<path fill="none" stroke="midnightblue" d="M189.75,-212.4C202.39,-203.37 218.98,-191.51 232.97,-181.52"/>
<polygon fill="midnightblue" stroke="midnightblue" points="235.19,-184.24 241.29,-175.58 231.12,-178.54 235.19,-184.24"/>
</g>
<!-- Node5 -->
<g id="node5" class="node">
<title>Node5</title>
<g id="a_node5"><a xlink:title=" ">
<polygon fill="none" stroke="#bfbfbf" points="99,-84 99,-103 137,-103 137,-84 99,-84"/>
<text text-anchor="middle" x="118" y="-91" font-family="Helvetica,sans-Serif" font-size="10.00">map</text>
</a>
</g>
</g>
<!-- Node4&#45;&gt;Node5 -->
<g id="edge4" class="edge">
<title>Node4&#45;&gt;Node5</title>
<path fill="none" stroke="midnightblue" d="M227.53,-145.47C204.45,-135.64 173.15,-121.97 146,-109 145.16,-108.6 144.3,-108.18 143.44,-107.76"/>
<polygon fill="midnightblue" stroke="midnightblue" points="144.7,-104.48 134.2,-103.11 141.56,-110.73 144.7,-104.48"/>
</g>
<!-- Node6 -->
<g id="node6" class="node">
<title>Node6</title>
<g id="a_node6"><a xlink:title=" ">
<polygon fill="none" stroke="#bfbfbf" points="155.5,-84 155.5,-103 206.5,-103 206.5,-84 155.5,-84"/>
<text text-anchor="middle" x="181" y="-91" font-family="Helvetica,sans-Serif" font-size="10.00">variant</text>
</a>
</g>
</g>
<!-- Node4&#45;&gt;Node6 -->
<g id="edge5" class="edge">
<title>Node4&#45;&gt;Node6</title>
<path fill="none" stroke="midnightblue" d="M243.64,-145.4C230.67,-134.86 212.97,-120.48 199.69,-109.69"/>
<polygon fill="midnightblue" stroke="midnightblue" points="201.67,-106.78 191.7,-103.19 197.26,-112.22 201.67,-106.78"/>
</g>
<!-- Node7 -->
<g id="node7" class="node">
<title>Node7</title>
<g id="a_node7"><a xlink:title=" ">
<polygon fill="none" stroke="#bfbfbf" points="224.5,-84 224.5,-103 297.5,-103 297.5,-84 224.5,-84"/>
<text text-anchor="middle" x="261" y="-91" font-family="Helvetica,sans-Serif" font-size="10.00">string_view</text>
</a>
</g>
</g>
<!-- Node4&#45;&gt;Node7 -->
<g id="edge6" class="edge">
<title>Node4&#45;&gt;Node7</title>
<path fill="none" stroke="midnightblue" d="M261,-145.4C261,-136.06 261,-123.71 261,-113.52"/>
<polygon fill="midnightblue" stroke="midnightblue" points="264.5,-113.19 261,-103.19 257.5,-113.19 264.5,-113.19"/>
</g>
<!-- Node8 -->
<g id="node8" class="node">
<title>Node8</title>
<g id="a_node8"><a xlink:href="type_8h.html" target="_top" xlink:title="Defines common geometric and numeric types used in the VoronoiMeshMaker library.">
<polygon fill="none" stroke="black" points="316,-78.5 316,-108.5 452,-108.5 452,-78.5 316,-78.5"/>
<text text-anchor="start" x="324" y="-96.5" font-family="Helvetica,sans-Serif" font-size="10.00">VoronoiMeshMaker/Misc</text>
<text text-anchor="middle" x="384" y="-85.5" font-family="Helvetica,sans-Serif" font-size="10.00">/type.h</text>
</a>
</g>
</g>
<!-- Node4&#45;&gt;Node8 -->
<g id="edge7" class="edge">
<title>Node4&#45;&gt;Node8</title>
<path fill="none" stroke="midnightblue" d="M287.69,-145.4C305.5,-135.98 329.12,-123.5 348.51,-113.26"/>
<polygon fill="midnightblue" stroke="midnightblue" points="350.16,-116.34 357.36,-108.58 346.89,-110.15 350.16,-116.34"/>
</g>
<!-- Node16 -->
<g id="node16" class="node">
<title>Node16</title>
<g id="a_node16"><a xlink:href="GeometricDataHolder_8tpp.html" target="_top" xlink:title=" ">
<polygon fill="none" stroke="black" points="470,-78.5 470,-108.5 640,-108.5 640,-78.5 470,-78.5"/>
<text text-anchor="start" x="478" y="-96.5" font-family="Helvetica,sans-Serif" font-size="10.00">VoronoiMeshMaker/Parameters</text>
<text text-anchor="middle" x="555" y="-85.5" font-family="Helvetica,sans-Serif" font-size="10.00">/GeometricDataHolder.tpp</text>
</a>
</g>
</g>
<!-- Node4&#45;&gt;Node16 -->
<g id="edge15" class="edge">
<title>Node4&#45;&gt;Node16</title>
<path fill="none" stroke="midnightblue" d="M324.43,-145.48C370.62,-135.26 433.3,-121.41 481.65,-110.72"/>
<polygon fill="midnightblue" stroke="midnightblue" points="482.42,-114.13 491.43,-108.55 480.91,-107.3 482.42,-114.13"/>
</g>
<!-- Node9 -->
<g id="node9" class="node">
<title>Node9</title>
<g id="a_node9"><a xlink:title=" ">
<polygon fill="none" stroke="#bfbfbf" points="128,-11.5 128,-30.5 160,-30.5 160,-11.5 128,-11.5"/>
<text text-anchor="middle" x="144" y="-18.5" font-family="Helvetica,sans-Serif" font-size="10.00">list</text>
</a>
</g>
</g>
<!-- Node8&#45;&gt;Node9 -->
<g id="edge8" class="edge">
<title>Node8&#45;&gt;Node9</title>
<path fill="none" stroke="midnightblue" d="M315.91,-79.9C263.08,-69.5 194.64,-54.47 169,-42 166.28,-40.68 163.59,-39.02 161.04,-37.22"/>
<polygon fill="midnightblue" stroke="midnightblue" points="163.06,-34.35 153.05,-30.87 158.7,-39.83 163.06,-34.35"/>
</g>
<!-- Node10 -->
<g id="node10" class="node">
<title>Node10</title>
<g id="a_node10"><a xlink:title=" ">
<polygon fill="none" stroke="#bfbfbf" points="178,-11.5 178,-30.5 236,-30.5 236,-11.5 178,-11.5"/>
<text text-anchor="middle" x="207" y="-18.5" font-family="Helvetica,sans-Serif" font-size="10.00">memory</text>
</a>
</g>
</g>
<!-- Node8&#45;&gt;Node10 -->
<g id="edge9" class="edge">
<title>Node8&#45;&gt;Node10</title>
<path fill="none" stroke="midnightblue" d="M340.51,-78.4C312.8,-69 276.35,-55.87 245,-42 240.47,-39.99 235.72,-37.68 231.19,-35.36"/>
<polygon fill="midnightblue" stroke="midnightblue" points="232.77,-32.24 222.3,-30.66 229.5,-38.42 232.77,-32.24"/>
</g>
<!-- Node11 -->
<g id="node11" class="node">
<title>Node11</title>
<g id="a_node11"><a xlink:title=" ">
<polygon fill="none" stroke="#bfbfbf" points="254.5,-11.5 254.5,-30.5 301.5,-30.5 301.5,-11.5 254.5,-11.5"/>
<text text-anchor="middle" x="278" y="-18.5" font-family="Helvetica,sans-Serif" font-size="10.00">vector</text>
</a>
</g>
</g>
<!-- Node8&#45;&gt;Node11 -->
<g id="edge10" class="edge">
<title>Node8&#45;&gt;Node11</title>
<path fill="none" stroke="midnightblue" d="M362.8,-78.4C344.32,-66.11 317.65,-48.37 299.17,-36.08"/>
<polygon fill="midnightblue" stroke="midnightblue" points="301.1,-33.16 290.83,-30.53 297.22,-38.99 301.1,-33.16"/>
</g>
<!-- Node12 -->
<g id="node12" class="node">
<title>Node12</title>
<g id="a_node12"><a xlink:title=" ">
<polygon fill="none" stroke="#bfbfbf" points="319.5,-0.5 319.5,-41.5 448.5,-41.5 448.5,-0.5 319.5,-0.5"/>
<text text-anchor="start" x="327.5" y="-29.5" font-family="Helvetica,sans-Serif" font-size="10.00">CGAL/Exact_predicates</text>
<text text-anchor="start" x="327.5" y="-18.5" font-family="Helvetica,sans-Serif" font-size="10.00">_inexact_constructions</text>
<text text-anchor="middle" x="384" y="-7.5" font-family="Helvetica,sans-Serif" font-size="10.00">_kernel.h</text>
</a>
</g>
</g>
<!-- Node8&#45;&gt;Node12 -->
<g id="edge11" class="edge">
<title>Node8&#45;&gt;Node12</title>
<path fill="none" stroke="midnightblue" d="M384,-78.23C384,-70.57 384,-60.84 384,-51.63"/>
<polygon fill="midnightblue" stroke="midnightblue" points="387.5,-51.59 384,-41.59 380.5,-51.59 387.5,-51.59"/>
</g>
<!-- Node13 -->
<g id="node13" class="node">
<title>Node13</title>
<g id="a_node13"><a xlink:title=" ">
<polygon fill="none" stroke="#bfbfbf" points="466.5,-11.5 466.5,-30.5 571.5,-30.5 571.5,-11.5 466.5,-11.5"/>
<text text-anchor="middle" x="519" y="-18.5" font-family="Helvetica,sans-Serif" font-size="10.00">CGAL/Polygon_2.h</text>
</a>
</g>
</g>
<!-- Node8&#45;&gt;Node13 -->
<g id="edge12" class="edge">
<title>Node8&#45;&gt;Node13</title>
<path fill="none" stroke="midnightblue" d="M410.99,-78.4C435.07,-65.83 470.06,-47.56 493.63,-35.25"/>
<polygon fill="midnightblue" stroke="midnightblue" points="495.42,-38.27 502.66,-30.53 492.17,-32.06 495.42,-38.27"/>
</g>
<!-- Node14 -->
<g id="node14" class="node">
<title>Node14</title>
<g id="a_node14"><a xlink:title=" ">
<polygon fill="none" stroke="#bfbfbf" points="589.5,-11.5 589.5,-30.5 710.5,-30.5 710.5,-11.5 589.5,-11.5"/>
<text text-anchor="middle" x="650" y="-18.5" font-family="Helvetica,sans-Serif" font-size="10.00">CGAL/Polyhedron_3.h</text>
</a>
</g>
</g>
<!-- Node8&#45;&gt;Node14 -->
<g id="edge13" class="edge">
<title>Node8&#45;&gt;Node14</title>
<path fill="none" stroke="midnightblue" d="M440.59,-78.49C480.03,-68.6 533.83,-54.88 581,-42 590.93,-39.29 601.62,-36.25 611.56,-33.37"/>
<polygon fill="midnightblue" stroke="midnightblue" points="612.56,-36.73 621.18,-30.57 610.61,-30 612.56,-36.73"/>
</g>
<!-- Node15 -->
<g id="node15" class="node">
<title>Node15</title>
<g id="a_node15"><a xlink:href="namespace_8h.html" target="_top" xlink:title=" ">
<polygon fill="none" stroke="black" points="729,-6 729,-36 865,-36 865,-6 729,-6"/>
<text text-anchor="start" x="737" y="-24" font-family="Helvetica,sans-Serif" font-size="10.00">VoronoiMeshMaker/Misc</text>
<text text-anchor="middle" x="797" y="-13" font-family="Helvetica,sans-Serif" font-size="10.00">/namespace.h</text>
</a>
</g>
</g>
<!-- Node8&#45;&gt;Node15 -->
<g id="edge14" class="edge">
<title>Node8&#45;&gt;Node15</title>
<path fill="none" stroke="midnightblue" d="M452.4,-79.44C455.31,-78.94 458.18,-78.46 461,-78 575.69,-59.24 606.01,-64.65 720,-42 725.33,-40.94 730.85,-39.73 736.36,-38.45"/>
<polygon fill="midnightblue" stroke="midnightblue" points="737.34,-41.81 746.25,-36.07 735.71,-35.01 737.34,-41.81"/>
</g>
</g>
</svg>
