<?xml version="1.0" encoding="UTF-8" standalone="no"?>
<!DOCTYPE svg PUBLIC "-//W3C//DTD SVG 1.1//EN"
 "http://www.w3.org/Graphics/SVG/1.1/DTD/svg11.dtd">
<!-- Generated by graphviz version 2.43.0 (0)
 -->
<!-- Title: VoronoiMeshMaker/src/VoronoiMeshMaker/Shape/ShapeFactory.cpp Pages: 1 -->
<svg width="1011pt" height="396pt"
 viewBox="0.00 0.00 1010.50 396.00" xmlns="http://www.w3.org/2000/svg" xmlns:xlink="http://www.w3.org/1999/xlink">
<g id="graph0" class="graph" transform="scale(1 1) rotate(0) translate(4 392)">
<title>VoronoiMeshMaker/src/VoronoiMeshMaker/Shape/ShapeFactory.cpp</title>
<!-- Node1 -->
<g id="node1" class="node">
<title>Node1</title>
<g id="a_node1"><a xlink:title="Implements the ShapeFactory methods for creating shape objects. This file contains the registration a...">
<polygon fill="#bfbfbf" stroke="black" points="392.5,-346.5 392.5,-387.5 538.5,-387.5 538.5,-346.5 392.5,-346.5"/>
<text text-anchor="start" x="400.5" y="-375.5" font-family="Helvetica,sans-Serif" font-size="10.00">VoronoiMeshMaker/src</text>
<text text-anchor="start" x="400.5" y="-364.5" font-family="Helvetica,sans-Serif" font-size="10.00">/VoronoiMeshMaker/Shape</text>
<text text-anchor="middle" x="465.5" y="-353.5" font-family="Helvetica,sans-Serif" font-size="10.00">/ShapeFactory.cpp</text>
</a>
</g>
</g>
<!-- Node2 -->
<g id="node2" class="node">
<title>Node2</title>
<g id="a_node2"><a xlink:href="MakerException_8h.html" target="_top" xlink:title=" ">
<polygon fill="none" stroke="black" points="241,-279.5 241,-309.5 378,-309.5 378,-279.5 241,-279.5"/>
<text text-anchor="start" x="249" y="-297.5" font-family="Helvetica,sans-Serif" font-size="10.00">VoronoiMeshMaker/Error</text>
<text text-anchor="middle" x="309.5" y="-286.5" font-family="Helvetica,sans-Serif" font-size="10.00">/MakerException.h</text>
</a>
</g>
</g>
<!-- Node1&#45;&gt;Node2 -->
<g id="edge1" class="edge">
<title>Node1&#45;&gt;Node2</title>
<path fill="none" stroke="midnightblue" d="M422.05,-346.36C399.48,-336.17 372.09,-323.79 349.98,-313.79"/>
<polygon fill="midnightblue" stroke="midnightblue" points="351.41,-310.6 340.85,-309.67 348.53,-316.98 351.41,-310.6"/>
</g>
<!-- Node19 -->
<g id="node19" class="node">
<title>Node19</title>
<g id="a_node19"><a xlink:href="ShapeFactory_8h.html" target="_top" xlink:title=" ">
<polygon fill="none" stroke="black" points="572,-279.5 572,-309.5 715,-309.5 715,-279.5 572,-279.5"/>
<text text-anchor="start" x="580" y="-297.5" font-family="Helvetica,sans-Serif" font-size="10.00">VoronoiMeshMaker/Shape</text>
<text text-anchor="middle" x="643.5" y="-286.5" font-family="Helvetica,sans-Serif" font-size="10.00">/ShapeFactory.h</text>
</a>
</g>
</g>
<!-- Node1&#45;&gt;Node19 -->
<g id="edge19" class="edge">
<title>Node1&#45;&gt;Node19</title>
<path fill="none" stroke="midnightblue" d="M515.08,-346.36C541.26,-335.99 573.14,-323.37 598.59,-313.29"/>
<polygon fill="midnightblue" stroke="midnightblue" points="599.99,-316.5 608,-309.56 597.42,-309.99 599.99,-316.5"/>
</g>
<!-- Node3 -->
<g id="node3" class="node">
<title>Node3</title>
<g id="a_node3"><a xlink:title=" ">
<polygon fill="none" stroke="#bfbfbf" points="488.5,-218 488.5,-237 532.5,-237 532.5,-218 488.5,-218"/>
<text text-anchor="middle" x="510.5" y="-225" font-family="Helvetica,sans-Serif" font-size="10.00">string</text>
</a>
</g>
</g>
<!-- Node2&#45;&gt;Node3 -->
<g id="edge2" class="edge">
<title>Node2&#45;&gt;Node3</title>
<path fill="none" stroke="midnightblue" d="M364.16,-279.49C397.83,-270.31 441.65,-257.38 479.5,-243 480.92,-242.46 482.37,-241.88 483.83,-241.28"/>
<polygon fill="midnightblue" stroke="midnightblue" points="485.58,-244.33 493.32,-237.09 482.75,-237.93 485.58,-244.33"/>
</g>
<!-- Node4 -->
<g id="node4" class="node">
<title>Node4</title>
<g id="a_node4"><a xlink:title=" ">
<polygon fill="none" stroke="#bfbfbf" points="0,-218 0,-237 65,-237 65,-218 0,-218"/>
<text text-anchor="middle" x="32.5" y="-225" font-family="Helvetica,sans-Serif" font-size="10.00">exception</text>
</a>
</g>
</g>
<!-- Node2&#45;&gt;Node4 -->
<g id="edge3" class="edge">
<title>Node2&#45;&gt;Node4</title>
<path fill="none" stroke="midnightblue" d="M240.77,-281.22C193.37,-272.17 129.14,-258.72 73.5,-243 70.54,-242.16 67.49,-241.23 64.45,-240.25"/>
<polygon fill="midnightblue" stroke="midnightblue" points="65.48,-236.9 54.89,-237.01 63.24,-243.53 65.48,-236.9"/>
</g>
<!-- Node5 -->
<g id="node5" class="node">
<title>Node5</title>
<g id="a_node5"><a xlink:title=" ">
<polygon fill="none" stroke="#bfbfbf" points="83,-218 83,-237 140,-237 140,-218 83,-218"/>
<text text-anchor="middle" x="111.5" y="-225" font-family="Helvetica,sans-Serif" font-size="10.00">ostream</text>
</a>
</g>
</g>
<!-- Node2&#45;&gt;Node5 -->
<g id="edge4" class="edge">
<title>Node2&#45;&gt;Node5</title>
<path fill="none" stroke="midnightblue" d="M262.35,-279.42C230.36,-269.66 187.19,-256.12 149.5,-243 147.25,-242.22 144.93,-241.39 142.6,-240.54"/>
<polygon fill="midnightblue" stroke="midnightblue" points="143.71,-237.22 133.12,-237 141.27,-243.78 143.71,-237.22"/>
</g>
<!-- Node6 -->
<g id="node6" class="node">
<title>Node6</title>
<g id="a_node6"><a xlink:href="id_8h.html" target="_top" xlink:title=" ">
<polygon fill="none" stroke="black" points="313,-218 313,-237 470,-237 470,-218 313,-218"/>
<text text-anchor="middle" x="391.5" y="-225" font-family="Helvetica,sans-Serif" font-size="10.00">VoronoiMeshMaker/Misc/id.h</text>
</a>
</g>
</g>
<!-- Node2&#45;&gt;Node6 -->
<g id="edge5" class="edge">
<title>Node2&#45;&gt;Node6</title>
<path fill="none" stroke="midnightblue" d="M327.29,-279.4C340.58,-268.86 358.73,-254.48 372.34,-243.69"/>
<polygon fill="midnightblue" stroke="midnightblue" points="374.87,-246.15 380.53,-237.19 370.52,-240.66 374.87,-246.15"/>
</g>
<!-- Node17 -->
<g id="node17" class="node">
<title>Node17</title>
<g id="a_node17"><a xlink:href="sourceinfo_8h.html" target="_top" xlink:title="Provides information about the source of an error or event in a function.">
<polygon fill="none" stroke="black" points="158.5,-212.5 158.5,-242.5 294.5,-242.5 294.5,-212.5 158.5,-212.5"/>
<text text-anchor="start" x="166.5" y="-230.5" font-family="Helvetica,sans-Serif" font-size="10.00">VoronoiMeshMaker/Misc</text>
<text text-anchor="middle" x="226.5" y="-219.5" font-family="Helvetica,sans-Serif" font-size="10.00">/sourceinfo.h</text>
</a>
</g>
</g>
<!-- Node2&#45;&gt;Node17 -->
<g id="edge16" class="edge">
<title>Node2&#45;&gt;Node17</title>
<path fill="none" stroke="midnightblue" d="M291.49,-279.4C280.07,-270.45 265.11,-258.74 252.42,-248.8"/>
<polygon fill="midnightblue" stroke="midnightblue" points="254.51,-245.99 244.47,-242.58 250.19,-251.5 254.51,-245.99"/>
</g>
<!-- Node7 -->
<g id="node7" class="node">
<title>Node7</title>
<g id="a_node7"><a xlink:title=" ">
<polygon fill="none" stroke="#bfbfbf" points="286,-84 286,-103 359,-103 359,-84 286,-84"/>
<text text-anchor="middle" x="322.5" y="-91" font-family="Helvetica,sans-Serif" font-size="10.00">string_view</text>
</a>
</g>
</g>
<!-- Node6&#45;&gt;Node7 -->
<g id="edge6" class="edge">
<title>Node6&#45;&gt;Node7</title>
<path fill="none" stroke="midnightblue" d="M379.71,-217.81C368.19,-208.69 351.05,-193.28 341.5,-176 330.65,-156.37 325.98,-130.78 323.98,-113.55"/>
<polygon fill="midnightblue" stroke="midnightblue" points="327.42,-112.76 322.98,-103.14 320.45,-113.43 327.42,-112.76"/>
</g>
<!-- Node8 -->
<g id="node8" class="node">
<title>Node8</title>
<g id="a_node8"><a xlink:href="configure_8h.html" target="_top" xlink:title="Defines common constants used across the VoronoiMeshMaker library.">
<polygon fill="none" stroke="black" points="350.5,-145.5 350.5,-175.5 486.5,-175.5 486.5,-145.5 350.5,-145.5"/>
<text text-anchor="start" x="358.5" y="-163.5" font-family="Helvetica,sans-Serif" font-size="10.00">VoronoiMeshMaker/Misc</text>
<text text-anchor="middle" x="418.5" y="-152.5" font-family="Helvetica,sans-Serif" font-size="10.00">/configure.h</text>
</a>
</g>
</g>
<!-- Node6&#45;&gt;Node8 -->
<g id="edge7" class="edge">
<title>Node6&#45;&gt;Node8</title>
<path fill="none" stroke="midnightblue" d="M395.14,-217.73C398.61,-209.37 404,-196.4 408.73,-185.02"/>
<polygon fill="midnightblue" stroke="midnightblue" points="412.04,-186.17 412.65,-175.59 405.58,-183.48 412.04,-186.17"/>
</g>
<!-- Node9 -->
<g id="node9" class="node">
<title>Node9</title>
<g id="a_node9"><a xlink:href="type_8h.html" target="_top" xlink:title="Defines common geometric and numeric types used in the VoronoiMeshMaker library.">
<polygon fill="none" stroke="black" points="453.5,-78.5 453.5,-108.5 589.5,-108.5 589.5,-78.5 453.5,-78.5"/>
<text text-anchor="start" x="461.5" y="-96.5" font-family="Helvetica,sans-Serif" font-size="10.00">VoronoiMeshMaker/Misc</text>
<text text-anchor="middle" x="521.5" y="-85.5" font-family="Helvetica,sans-Serif" font-size="10.00">/type.h</text>
</a>
</g>
</g>
<!-- Node8&#45;&gt;Node9 -->
<g id="edge8" class="edge">
<title>Node8&#45;&gt;Node9</title>
<path fill="none" stroke="midnightblue" d="M440.85,-145.4C455.43,-136.2 474.65,-124.07 490.67,-113.95"/>
<polygon fill="midnightblue" stroke="midnightblue" points="492.61,-116.87 499.19,-108.58 488.87,-110.95 492.61,-116.87"/>
</g>
<!-- Node10 -->
<g id="node10" class="node">
<title>Node10</title>
<g id="a_node10"><a xlink:title=" ">
<polygon fill="none" stroke="#bfbfbf" points="265.5,-11.5 265.5,-30.5 297.5,-30.5 297.5,-11.5 265.5,-11.5"/>
<text text-anchor="middle" x="281.5" y="-18.5" font-family="Helvetica,sans-Serif" font-size="10.00">list</text>
</a>
</g>
</g>
<!-- Node9&#45;&gt;Node10 -->
<g id="edge9" class="edge">
<title>Node9&#45;&gt;Node10</title>
<path fill="none" stroke="midnightblue" d="M453.03,-84.34C409.44,-77.26 352.7,-64.47 306.5,-42 303.78,-40.68 301.09,-39.02 298.54,-37.22"/>
<polygon fill="midnightblue" stroke="midnightblue" points="300.56,-34.35 290.55,-30.87 296.2,-39.83 300.56,-34.35"/>
</g>
<!-- Node11 -->
<g id="node11" class="node">
<title>Node11</title>
<g id="a_node11"><a xlink:title=" ">
<polygon fill="none" stroke="#bfbfbf" points="315.5,-11.5 315.5,-30.5 373.5,-30.5 373.5,-11.5 315.5,-11.5"/>
<text text-anchor="middle" x="344.5" y="-18.5" font-family="Helvetica,sans-Serif" font-size="10.00">memory</text>
</a>
</g>
</g>
<!-- Node9&#45;&gt;Node11 -->
<g id="edge10" class="edge">
<title>Node9&#45;&gt;Node11</title>
<path fill="none" stroke="midnightblue" d="M478.01,-78.4C450.3,-69 413.85,-55.87 382.5,-42 377.97,-39.99 373.22,-37.68 368.69,-35.36"/>
<polygon fill="midnightblue" stroke="midnightblue" points="370.27,-32.24 359.8,-30.66 367,-38.42 370.27,-32.24"/>
</g>
<!-- Node12 -->
<g id="node12" class="node">
<title>Node12</title>
<g id="a_node12"><a xlink:title=" ">
<polygon fill="none" stroke="#bfbfbf" points="392,-11.5 392,-30.5 439,-30.5 439,-11.5 392,-11.5"/>
<text text-anchor="middle" x="415.5" y="-18.5" font-family="Helvetica,sans-Serif" font-size="10.00">vector</text>
</a>
</g>
</g>
<!-- Node9&#45;&gt;Node12 -->
<g id="edge11" class="edge">
<title>Node9&#45;&gt;Node12</title>
<path fill="none" stroke="midnightblue" d="M500.3,-78.4C481.82,-66.11 455.15,-48.37 436.67,-36.08"/>
<polygon fill="midnightblue" stroke="midnightblue" points="438.6,-33.16 428.33,-30.53 434.72,-38.99 438.6,-33.16"/>
</g>
<!-- Node13 -->
<g id="node13" class="node">
<title>Node13</title>
<g id="a_node13"><a xlink:title=" ">
<polygon fill="none" stroke="#bfbfbf" points="457,-0.5 457,-41.5 586,-41.5 586,-0.5 457,-0.5"/>
<text text-anchor="start" x="465" y="-29.5" font-family="Helvetica,sans-Serif" font-size="10.00">CGAL/Exact_predicates</text>
<text text-anchor="start" x="465" y="-18.5" font-family="Helvetica,sans-Serif" font-size="10.00">_inexact_constructions</text>
<text text-anchor="middle" x="521.5" y="-7.5" font-family="Helvetica,sans-Serif" font-size="10.00">_kernel.h</text>
</a>
</g>
</g>
<!-- Node9&#45;&gt;Node13 -->
<g id="edge12" class="edge">
<title>Node9&#45;&gt;Node13</title>
<path fill="none" stroke="midnightblue" d="M521.5,-78.23C521.5,-70.57 521.5,-60.84 521.5,-51.63"/>
<polygon fill="midnightblue" stroke="midnightblue" points="525,-51.59 521.5,-41.59 518,-51.59 525,-51.59"/>
</g>
<!-- Node14 -->
<g id="node14" class="node">
<title>Node14</title>
<g id="a_node14"><a xlink:title=" ">
<polygon fill="none" stroke="#bfbfbf" points="604,-11.5 604,-30.5 709,-30.5 709,-11.5 604,-11.5"/>
<text text-anchor="middle" x="656.5" y="-18.5" font-family="Helvetica,sans-Serif" font-size="10.00">CGAL/Polygon_2.h</text>
</a>
</g>
</g>
<!-- Node9&#45;&gt;Node14 -->
<g id="edge13" class="edge">
<title>Node9&#45;&gt;Node14</title>
<path fill="none" stroke="midnightblue" d="M548.49,-78.4C572.57,-65.83 607.56,-47.56 631.13,-35.25"/>
<polygon fill="midnightblue" stroke="midnightblue" points="632.92,-38.27 640.16,-30.53 629.67,-32.06 632.92,-38.27"/>
</g>
<!-- Node15 -->
<g id="node15" class="node">
<title>Node15</title>
<g id="a_node15"><a xlink:title=" ">
<polygon fill="none" stroke="#bfbfbf" points="727,-11.5 727,-30.5 848,-30.5 848,-11.5 727,-11.5"/>
<text text-anchor="middle" x="787.5" y="-18.5" font-family="Helvetica,sans-Serif" font-size="10.00">CGAL/Polyhedron_3.h</text>
</a>
</g>
</g>
<!-- Node9&#45;&gt;Node15 -->
<g id="edge14" class="edge">
<title>Node9&#45;&gt;Node15</title>
<path fill="none" stroke="midnightblue" d="M578.09,-78.49C617.53,-68.6 671.33,-54.88 718.5,-42 728.43,-39.29 739.12,-36.25 749.06,-33.37"/>
<polygon fill="midnightblue" stroke="midnightblue" points="750.06,-36.73 758.68,-30.57 748.11,-30 750.06,-36.73"/>
</g>
<!-- Node16 -->
<g id="node16" class="node">
<title>Node16</title>
<g id="a_node16"><a xlink:href="namespace_8h.html" target="_top" xlink:title=" ">
<polygon fill="none" stroke="black" points="866.5,-6 866.5,-36 1002.5,-36 1002.5,-6 866.5,-6"/>
<text text-anchor="start" x="874.5" y="-24" font-family="Helvetica,sans-Serif" font-size="10.00">VoronoiMeshMaker/Misc</text>
<text text-anchor="middle" x="934.5" y="-13" font-family="Helvetica,sans-Serif" font-size="10.00">/namespace.h</text>
</a>
</g>
</g>
<!-- Node9&#45;&gt;Node16 -->
<g id="edge15" class="edge">
<title>Node9&#45;&gt;Node16</title>
<path fill="none" stroke="midnightblue" d="M589.76,-84.38C657.91,-75.76 765.46,-60.81 857.5,-42 862.74,-40.93 868.16,-39.72 873.59,-38.45"/>
<polygon fill="midnightblue" stroke="midnightblue" points="874.42,-41.85 883.32,-36.09 872.77,-35.04 874.42,-41.85"/>
</g>
<!-- Node17&#45;&gt;Node7 -->
<g id="edge17" class="edge">
<title>Node17&#45;&gt;Node7</title>
<path fill="none" stroke="midnightblue" d="M190.51,-212.35C174.95,-204.22 158.31,-192.32 149.5,-176 142.95,-163.88 141.23,-156.02 149.5,-145 164.68,-124.75 229.75,-109.93 275.6,-101.76"/>
<polygon fill="midnightblue" stroke="midnightblue" points="276.39,-105.18 285.65,-100.02 275.2,-98.28 276.39,-105.18"/>
</g>
<!-- Node18 -->
<g id="node18" class="node">
<title>Node18</title>
<g id="a_node18"><a xlink:title=" ">
<polygon fill="none" stroke="#bfbfbf" points="158.5,-145.5 158.5,-175.5 294.5,-175.5 294.5,-145.5 158.5,-145.5"/>
<text text-anchor="start" x="166.5" y="-163.5" font-family="Helvetica,sans-Serif" font-size="10.00">VoronoiMeshMaker/Misc</text>
<text text-anchor="middle" x="226.5" y="-152.5" font-family="Helvetica,sans-Serif" font-size="10.00">/Misc.h</text>
</a>
</g>
</g>
<!-- Node17&#45;&gt;Node18 -->
<g id="edge18" class="edge">
<title>Node17&#45;&gt;Node18</title>
<path fill="none" stroke="midnightblue" d="M226.5,-212.4C226.5,-204.64 226.5,-194.81 226.5,-185.86"/>
<polygon fill="midnightblue" stroke="midnightblue" points="230,-185.58 226.5,-175.58 223,-185.58 230,-185.58"/>
</g>
<!-- Node20 -->
<g id="node20" class="node">
<title>Node20</title>
<g id="a_node20"><a xlink:href="Shape_8h.html" target="_top" xlink:title="Defines the Shape class, which serves as the abstract base class for all shapes.">
<polygon fill="none" stroke="black" points="572,-212.5 572,-242.5 715,-242.5 715,-212.5 572,-212.5"/>
<text text-anchor="start" x="580" y="-230.5" font-family="Helvetica,sans-Serif" font-size="10.00">VoronoiMeshMaker/Shape</text>
<text text-anchor="middle" x="643.5" y="-219.5" font-family="Helvetica,sans-Serif" font-size="10.00">/Shape.h</text>
</a>
</g>
</g>
<!-- Node19&#45;&gt;Node20 -->
<g id="edge20" class="edge">
<title>Node19&#45;&gt;Node20</title>
<path fill="none" stroke="midnightblue" d="M643.5,-279.4C643.5,-271.64 643.5,-261.81 643.5,-252.86"/>
<polygon fill="midnightblue" stroke="midnightblue" points="647,-252.58 643.5,-242.58 640,-252.58 647,-252.58"/>
</g>
<!-- Node22 -->
<g id="node22" class="node">
<title>Node22</title>
<g id="a_node22"><a xlink:href="GeometricDataHolder_8h.html" target="_top" xlink:title=" ">
<polygon fill="none" stroke="black" points="680.5,-145.5 680.5,-175.5 850.5,-175.5 850.5,-145.5 680.5,-145.5"/>
<text text-anchor="start" x="688.5" y="-163.5" font-family="Helvetica,sans-Serif" font-size="10.00">VoronoiMeshMaker/Parameters</text>
<text text-anchor="middle" x="765.5" y="-152.5" font-family="Helvetica,sans-Serif" font-size="10.00">/GeometricDataHolder.h</text>
</a>
</g>
</g>
<!-- Node19&#45;&gt;Node22 -->
<g id="edge28" class="edge">
<title>Node19&#45;&gt;Node22</title>
<path fill="none" stroke="midnightblue" d="M674.45,-279.38C690.9,-270.7 710.54,-258.3 724.5,-243 739.85,-226.18 750.89,-202.54 757.62,-185.05"/>
<polygon fill="midnightblue" stroke="midnightblue" points="760.94,-186.16 761.09,-175.57 754.37,-183.76 760.94,-186.16"/>
</g>
<!-- Node21 -->
<g id="node21" class="node">
<title>Node21</title>
<g id="a_node21"><a xlink:title=" ">
<polygon fill="none" stroke="#bfbfbf" points="504.5,-151 504.5,-170 662.5,-170 662.5,-151 504.5,-151"/>
<text text-anchor="middle" x="583.5" y="-158" font-family="Helvetica,sans-Serif" font-size="10.00">VoronoiMeshMaker/Misc/ID.h</text>
</a>
</g>
</g>
<!-- Node20&#45;&gt;Node21 -->
<g id="edge21" class="edge">
<title>Node20&#45;&gt;Node21</title>
<path fill="none" stroke="midnightblue" d="M630.48,-212.4C621.03,-202.16 608.23,-188.3 598.38,-177.62"/>
<polygon fill="midnightblue" stroke="midnightblue" points="600.88,-175.17 591.53,-170.19 595.74,-179.92 600.88,-175.17"/>
</g>
<!-- Node20&#45;&gt;Node22 -->
<g id="edge22" class="edge">
<title>Node20&#45;&gt;Node22</title>
<path fill="none" stroke="midnightblue" d="M669.97,-212.4C687.56,-203.03 710.85,-190.62 730.04,-180.39"/>
<polygon fill="midnightblue" stroke="midnightblue" points="731.9,-183.37 739.08,-175.58 728.61,-177.19 731.9,-183.37"/>
</g>
<!-- Node22&#45;&gt;Node7 -->
<g id="edge25" class="edge">
<title>Node22&#45;&gt;Node7</title>
<path fill="none" stroke="midnightblue" d="M680.45,-146.34C677.43,-145.89 674.44,-145.44 671.5,-145 563.45,-128.85 436.45,-110.68 369.43,-101.15"/>
<polygon fill="midnightblue" stroke="midnightblue" points="369.59,-97.64 359.2,-99.69 368.6,-104.57 369.59,-97.64"/>
</g>
<!-- Node22&#45;&gt;Node9 -->
<g id="edge26" class="edge">
<title>Node22&#45;&gt;Node9</title>
<path fill="none" stroke="midnightblue" d="M712.86,-145.48C675.14,-135.43 624.19,-121.86 584.35,-111.24"/>
<polygon fill="midnightblue" stroke="midnightblue" points="585.03,-107.8 574.47,-108.61 583.23,-114.57 585.03,-107.8"/>
</g>
<!-- Node23 -->
<g id="node23" class="node">
<title>Node23</title>
<g id="a_node23"><a xlink:title=" ">
<polygon fill="none" stroke="#bfbfbf" points="683.5,-84 683.5,-103 721.5,-103 721.5,-84 683.5,-84"/>
<text text-anchor="middle" x="702.5" y="-91" font-family="Helvetica,sans-Serif" font-size="10.00">map</text>
</a>
</g>
</g>
<!-- Node22&#45;&gt;Node23 -->
<g id="edge23" class="edge">
<title>Node22&#45;&gt;Node23</title>
<path fill="none" stroke="midnightblue" d="M751.83,-145.4C741.91,-135.16 728.47,-121.3 718.13,-110.62"/>
<polygon fill="midnightblue" stroke="midnightblue" points="720.4,-107.94 710.93,-103.19 715.37,-112.81 720.4,-107.94"/>
</g>
<!-- Node24 -->
<g id="node24" class="node">
<title>Node24</title>
<g id="a_node24"><a xlink:title=" ">
<polygon fill="none" stroke="#bfbfbf" points="740,-84 740,-103 791,-103 791,-84 740,-84"/>
<text text-anchor="middle" x="765.5" y="-91" font-family="Helvetica,sans-Serif" font-size="10.00">variant</text>
</a>
</g>
</g>
<!-- Node22&#45;&gt;Node24 -->
<g id="edge24" class="edge">
<title>Node22&#45;&gt;Node24</title>
<path fill="none" stroke="midnightblue" d="M765.5,-145.4C765.5,-136.06 765.5,-123.71 765.5,-113.52"/>
<polygon fill="midnightblue" stroke="midnightblue" points="769,-113.19 765.5,-103.19 762,-113.19 769,-113.19"/>
</g>
<!-- Node25 -->
<g id="node25" class="node">
<title>Node25</title>
<g id="a_node25"><a xlink:href="GeometricDataHolder_8tpp.html" target="_top" xlink:title=" ">
<polygon fill="none" stroke="black" points="809.5,-78.5 809.5,-108.5 979.5,-108.5 979.5,-78.5 809.5,-78.5"/>
<text text-anchor="start" x="817.5" y="-96.5" font-family="Helvetica,sans-Serif" font-size="10.00">VoronoiMeshMaker/Parameters</text>
<text text-anchor="middle" x="894.5" y="-85.5" font-family="Helvetica,sans-Serif" font-size="10.00">/GeometricDataHolder.tpp</text>
</a>
</g>
</g>
<!-- Node22&#45;&gt;Node25 -->
<g id="edge27" class="edge">
<title>Node22&#45;&gt;Node25</title>
<path fill="none" stroke="midnightblue" d="M793.49,-145.4C812.25,-135.94 837.17,-123.39 857.55,-113.12"/>
<polygon fill="midnightblue" stroke="midnightblue" points="859.21,-116.2 866.56,-108.58 856.06,-109.95 859.21,-116.2"/>
</g>
</g>
</svg>
