<?xml version="1.0" encoding="UTF-8" standalone="no"?>
<!DOCTYPE svg PUBLIC "-//W3C//DTD SVG 1.1//EN"
 "http://www.w3.org/Graphics/SVG/1.1/DTD/svg11.dtd">
<!-- Generated by graphviz version 2.43.0 (0)
 -->
<!-- Title: VoronoiMeshMaker/src/VoronoiMeshMaker/Shape/Shape2D/Star.cpp Pages: 1 -->
<svg width="923pt" height="463pt"
 viewBox="0.00 0.00 922.50 463.00" xmlns="http://www.w3.org/2000/svg" xmlns:xlink="http://www.w3.org/1999/xlink">
<g id="graph0" class="graph" transform="scale(1 1) rotate(0) translate(4 459)">
<title>VoronoiMeshMaker/src/VoronoiMeshMaker/Shape/Shape2D/Star.cpp</title>
<!-- Node1 -->
<g id="node1" class="node">
<title>Node1</title>
<g id="a_node1"><a xlink:title=" ">
<polygon fill="#bfbfbf" stroke="black" points="479.5,-413.5 479.5,-454.5 625.5,-454.5 625.5,-413.5 479.5,-413.5"/>
<text text-anchor="start" x="487.5" y="-442.5" font-family="Helvetica,sans-Serif" font-size="10.00">VoronoiMeshMaker/src</text>
<text text-anchor="start" x="487.5" y="-431.5" font-family="Helvetica,sans-Serif" font-size="10.00">/VoronoiMeshMaker/Shape</text>
<text text-anchor="middle" x="552.5" y="-420.5" font-family="Helvetica,sans-Serif" font-size="10.00">/Shape2D/Star.cpp</text>
</a>
</g>
</g>
<!-- Node2 -->
<g id="node2" class="node">
<title>Node2</title>
<g id="a_node2"><a xlink:href="MakerException_8h.html" target="_top" xlink:title=" ">
<polygon fill="none" stroke="black" points="253,-279.5 253,-309.5 390,-309.5 390,-279.5 253,-279.5"/>
<text text-anchor="start" x="261" y="-297.5" font-family="Helvetica,sans-Serif" font-size="10.00">VoronoiMeshMaker/Error</text>
<text text-anchor="middle" x="321.5" y="-286.5" font-family="Helvetica,sans-Serif" font-size="10.00">/MakerException.h</text>
</a>
</g>
</g>
<!-- Node1&#45;&gt;Node2 -->
<g id="edge1" class="edge">
<title>Node1&#45;&gt;Node2</title>
<path fill="none" stroke="midnightblue" d="M519.4,-413.3C475.26,-387.02 397.61,-340.81 353.85,-314.76"/>
<polygon fill="midnightblue" stroke="midnightblue" points="355.44,-311.63 345.05,-309.52 351.86,-317.64 355.44,-311.63"/>
</g>
<!-- Node19 -->
<g id="node19" class="node">
<title>Node19</title>
<g id="a_node19"><a xlink:href="ShapeFactory_8h.html" target="_top" xlink:title=" ">
<polygon fill="none" stroke="black" points="481,-279.5 481,-309.5 624,-309.5 624,-279.5 481,-279.5"/>
<text text-anchor="start" x="489" y="-297.5" font-family="Helvetica,sans-Serif" font-size="10.00">VoronoiMeshMaker/Shape</text>
<text text-anchor="middle" x="552.5" y="-286.5" font-family="Helvetica,sans-Serif" font-size="10.00">/ShapeFactory.h</text>
</a>
</g>
</g>
<!-- Node1&#45;&gt;Node19 -->
<g id="edge19" class="edge">
<title>Node1&#45;&gt;Node19</title>
<path fill="none" stroke="midnightblue" d="M552.5,-413.3C552.5,-388.63 552.5,-346.38 552.5,-319.75"/>
<polygon fill="midnightblue" stroke="midnightblue" points="556,-319.72 552.5,-309.72 549,-319.72 556,-319.72"/>
</g>
<!-- Node26 -->
<g id="node26" class="node">
<title>Node26</title>
<g id="a_node26"><a xlink:href="Star_8h.html" target="_top" xlink:title=" ">
<polygon fill="none" stroke="black" points="611,-346.5 611,-376.5 754,-376.5 754,-346.5 611,-346.5"/>
<text text-anchor="start" x="619" y="-364.5" font-family="Helvetica,sans-Serif" font-size="10.00">VoronoiMeshMaker/Shape</text>
<text text-anchor="middle" x="682.5" y="-353.5" font-family="Helvetica,sans-Serif" font-size="10.00">/Shape2D/Star.h</text>
</a>
</g>
</g>
<!-- Node1&#45;&gt;Node26 -->
<g id="edge29" class="edge">
<title>Node1&#45;&gt;Node26</title>
<path fill="none" stroke="midnightblue" d="M588.71,-413.36C607.01,-403.44 629.12,-391.45 647.28,-381.6"/>
<polygon fill="midnightblue" stroke="midnightblue" points="649.25,-384.51 656.37,-376.67 645.91,-378.36 649.25,-384.51"/>
</g>
<!-- Node3 -->
<g id="node3" class="node">
<title>Node3</title>
<g id="a_node3"><a xlink:title=" ">
<polygon fill="none" stroke="#bfbfbf" points="488.5,-218 488.5,-237 532.5,-237 532.5,-218 488.5,-218"/>
<text text-anchor="middle" x="510.5" y="-225" font-family="Helvetica,sans-Serif" font-size="10.00">string</text>
</a>
</g>
</g>
<!-- Node2&#45;&gt;Node3 -->
<g id="edge2" class="edge">
<title>Node2&#45;&gt;Node3</title>
<path fill="none" stroke="midnightblue" d="M370.1,-279.44C401.37,-270 442.71,-256.81 478.5,-243 479.92,-242.45 481.37,-241.87 482.83,-241.27"/>
<polygon fill="midnightblue" stroke="midnightblue" points="484.59,-244.33 492.38,-237.15 481.81,-237.9 484.59,-244.33"/>
</g>
<!-- Node4 -->
<g id="node4" class="node">
<title>Node4</title>
<g id="a_node4"><a xlink:title=" ">
<polygon fill="none" stroke="#bfbfbf" points="0,-218 0,-237 65,-237 65,-218 0,-218"/>
<text text-anchor="middle" x="32.5" y="-225" font-family="Helvetica,sans-Serif" font-size="10.00">exception</text>
</a>
</g>
</g>
<!-- Node2&#45;&gt;Node4 -->
<g id="edge3" class="edge">
<title>Node2&#45;&gt;Node4</title>
<path fill="none" stroke="midnightblue" d="M252.74,-282.15C202.62,-273.24 133.31,-259.58 73.5,-243 70.54,-242.18 67.48,-241.25 64.44,-240.28"/>
<polygon fill="midnightblue" stroke="midnightblue" points="65.47,-236.93 54.88,-237.05 63.23,-243.56 65.47,-236.93"/>
</g>
<!-- Node5 -->
<g id="node5" class="node">
<title>Node5</title>
<g id="a_node5"><a xlink:title=" ">
<polygon fill="none" stroke="#bfbfbf" points="83,-218 83,-237 140,-237 140,-218 83,-218"/>
<text text-anchor="middle" x="111.5" y="-225" font-family="Helvetica,sans-Serif" font-size="10.00">ostream</text>
</a>
</g>
</g>
<!-- Node2&#45;&gt;Node5 -->
<g id="edge4" class="edge">
<title>Node2&#45;&gt;Node5</title>
<path fill="none" stroke="midnightblue" d="M269.61,-279.42C235.31,-269.83 189.46,-256.47 149.5,-243 147.24,-242.24 144.92,-241.43 142.59,-240.59"/>
<polygon fill="midnightblue" stroke="midnightblue" points="143.69,-237.27 133.1,-237.08 141.26,-243.83 143.69,-237.27"/>
</g>
<!-- Node6 -->
<g id="node6" class="node">
<title>Node6</title>
<g id="a_node6"><a xlink:href="id_8h.html" target="_top" xlink:title=" ">
<polygon fill="none" stroke="black" points="313,-218 313,-237 470,-237 470,-218 313,-218"/>
<text text-anchor="middle" x="391.5" y="-225" font-family="Helvetica,sans-Serif" font-size="10.00">VoronoiMeshMaker/Misc/id.h</text>
</a>
</g>
</g>
<!-- Node2&#45;&gt;Node6 -->
<g id="edge5" class="edge">
<title>Node2&#45;&gt;Node6</title>
<path fill="none" stroke="midnightblue" d="M336.69,-279.4C347.82,-269.06 362.94,-255.02 374.47,-244.31"/>
<polygon fill="midnightblue" stroke="midnightblue" points="377.19,-246.56 382.14,-237.19 372.43,-241.43 377.19,-246.56"/>
</g>
<!-- Node17 -->
<g id="node17" class="node">
<title>Node17</title>
<g id="a_node17"><a xlink:href="sourceinfo_8h.html" target="_top" xlink:title="Provides information about the source of an error or event in a function.">
<polygon fill="none" stroke="black" points="158.5,-212.5 158.5,-242.5 294.5,-242.5 294.5,-212.5 158.5,-212.5"/>
<text text-anchor="start" x="166.5" y="-230.5" font-family="Helvetica,sans-Serif" font-size="10.00">VoronoiMeshMaker/Misc</text>
<text text-anchor="middle" x="226.5" y="-219.5" font-family="Helvetica,sans-Serif" font-size="10.00">/sourceinfo.h</text>
</a>
</g>
</g>
<!-- Node2&#45;&gt;Node17 -->
<g id="edge16" class="edge">
<title>Node2&#45;&gt;Node17</title>
<path fill="none" stroke="midnightblue" d="M300.89,-279.4C287.57,-270.28 270.04,-258.29 255.34,-248.24"/>
<polygon fill="midnightblue" stroke="midnightblue" points="257.3,-245.33 247.07,-242.58 253.35,-251.11 257.3,-245.33"/>
</g>
<!-- Node7 -->
<g id="node7" class="node">
<title>Node7</title>
<g id="a_node7"><a xlink:title=" ">
<polygon fill="none" stroke="#bfbfbf" points="274,-84 274,-103 347,-103 347,-84 274,-84"/>
<text text-anchor="middle" x="310.5" y="-91" font-family="Helvetica,sans-Serif" font-size="10.00">string_view</text>
</a>
</g>
</g>
<!-- Node6&#45;&gt;Node7 -->
<g id="edge6" class="edge">
<title>Node6&#45;&gt;Node7</title>
<path fill="none" stroke="midnightblue" d="M380.6,-217.87C369.47,-208.56 352.32,-192.81 341.5,-176 328.73,-156.16 320.02,-130.27 315.16,-113.05"/>
<polygon fill="midnightblue" stroke="midnightblue" points="318.47,-111.9 312.51,-103.14 311.71,-113.7 318.47,-111.9"/>
</g>
<!-- Node8 -->
<g id="node8" class="node">
<title>Node8</title>
<g id="a_node8"><a xlink:href="configure_8h.html" target="_top" xlink:title="Defines common constants used across the VoronoiMeshMaker library.">
<polygon fill="none" stroke="black" points="350.5,-145.5 350.5,-175.5 486.5,-175.5 486.5,-145.5 350.5,-145.5"/>
<text text-anchor="start" x="358.5" y="-163.5" font-family="Helvetica,sans-Serif" font-size="10.00">VoronoiMeshMaker/Misc</text>
<text text-anchor="middle" x="418.5" y="-152.5" font-family="Helvetica,sans-Serif" font-size="10.00">/configure.h</text>
</a>
</g>
</g>
<!-- Node6&#45;&gt;Node8 -->
<g id="edge7" class="edge">
<title>Node6&#45;&gt;Node8</title>
<path fill="none" stroke="midnightblue" d="M395.14,-217.73C398.61,-209.37 404,-196.4 408.73,-185.02"/>
<polygon fill="midnightblue" stroke="midnightblue" points="412.04,-186.17 412.65,-175.59 405.58,-183.48 412.04,-186.17"/>
</g>
<!-- Node9 -->
<g id="node9" class="node">
<title>Node9</title>
<g id="a_node9"><a xlink:href="type_8h.html" target="_top" xlink:title="Defines common geometric and numeric types used in the VoronoiMeshMaker library.">
<polygon fill="none" stroke="black" points="365.5,-78.5 365.5,-108.5 501.5,-108.5 501.5,-78.5 365.5,-78.5"/>
<text text-anchor="start" x="373.5" y="-96.5" font-family="Helvetica,sans-Serif" font-size="10.00">VoronoiMeshMaker/Misc</text>
<text text-anchor="middle" x="433.5" y="-85.5" font-family="Helvetica,sans-Serif" font-size="10.00">/type.h</text>
</a>
</g>
</g>
<!-- Node8&#45;&gt;Node9 -->
<g id="edge8" class="edge">
<title>Node8&#45;&gt;Node9</title>
<path fill="none" stroke="midnightblue" d="M421.75,-145.4C423.56,-137.56 425.86,-127.6 427.95,-118.57"/>
<polygon fill="midnightblue" stroke="midnightblue" points="431.41,-119.11 430.25,-108.58 424.59,-117.53 431.41,-119.11"/>
</g>
<!-- Node10 -->
<g id="node10" class="node">
<title>Node10</title>
<g id="a_node10"><a xlink:title=" ">
<polygon fill="none" stroke="#bfbfbf" points="177.5,-11.5 177.5,-30.5 209.5,-30.5 209.5,-11.5 177.5,-11.5"/>
<text text-anchor="middle" x="193.5" y="-18.5" font-family="Helvetica,sans-Serif" font-size="10.00">list</text>
</a>
</g>
</g>
<!-- Node9&#45;&gt;Node10 -->
<g id="edge9" class="edge">
<title>Node9&#45;&gt;Node10</title>
<path fill="none" stroke="midnightblue" d="M365.41,-79.9C312.58,-69.5 244.14,-54.47 218.5,-42 215.78,-40.68 213.09,-39.02 210.54,-37.22"/>
<polygon fill="midnightblue" stroke="midnightblue" points="212.56,-34.35 202.55,-30.87 208.2,-39.83 212.56,-34.35"/>
</g>
<!-- Node11 -->
<g id="node11" class="node">
<title>Node11</title>
<g id="a_node11"><a xlink:title=" ">
<polygon fill="none" stroke="#bfbfbf" points="227.5,-11.5 227.5,-30.5 285.5,-30.5 285.5,-11.5 227.5,-11.5"/>
<text text-anchor="middle" x="256.5" y="-18.5" font-family="Helvetica,sans-Serif" font-size="10.00">memory</text>
</a>
</g>
</g>
<!-- Node9&#45;&gt;Node11 -->
<g id="edge10" class="edge">
<title>Node9&#45;&gt;Node11</title>
<path fill="none" stroke="midnightblue" d="M390.01,-78.4C362.3,-69 325.85,-55.87 294.5,-42 289.97,-39.99 285.22,-37.68 280.69,-35.36"/>
<polygon fill="midnightblue" stroke="midnightblue" points="282.27,-32.24 271.8,-30.66 279,-38.42 282.27,-32.24"/>
</g>
<!-- Node12 -->
<g id="node12" class="node">
<title>Node12</title>
<g id="a_node12"><a xlink:title=" ">
<polygon fill="none" stroke="#bfbfbf" points="304,-11.5 304,-30.5 351,-30.5 351,-11.5 304,-11.5"/>
<text text-anchor="middle" x="327.5" y="-18.5" font-family="Helvetica,sans-Serif" font-size="10.00">vector</text>
</a>
</g>
</g>
<!-- Node9&#45;&gt;Node12 -->
<g id="edge11" class="edge">
<title>Node9&#45;&gt;Node12</title>
<path fill="none" stroke="midnightblue" d="M412.3,-78.4C393.82,-66.11 367.15,-48.37 348.67,-36.08"/>
<polygon fill="midnightblue" stroke="midnightblue" points="350.6,-33.16 340.33,-30.53 346.72,-38.99 350.6,-33.16"/>
</g>
<!-- Node13 -->
<g id="node13" class="node">
<title>Node13</title>
<g id="a_node13"><a xlink:title=" ">
<polygon fill="none" stroke="#bfbfbf" points="369,-0.5 369,-41.5 498,-41.5 498,-0.5 369,-0.5"/>
<text text-anchor="start" x="377" y="-29.5" font-family="Helvetica,sans-Serif" font-size="10.00">CGAL/Exact_predicates</text>
<text text-anchor="start" x="377" y="-18.5" font-family="Helvetica,sans-Serif" font-size="10.00">_inexact_constructions</text>
<text text-anchor="middle" x="433.5" y="-7.5" font-family="Helvetica,sans-Serif" font-size="10.00">_kernel.h</text>
</a>
</g>
</g>
<!-- Node9&#45;&gt;Node13 -->
<g id="edge12" class="edge">
<title>Node9&#45;&gt;Node13</title>
<path fill="none" stroke="midnightblue" d="M433.5,-78.23C433.5,-70.57 433.5,-60.84 433.5,-51.63"/>
<polygon fill="midnightblue" stroke="midnightblue" points="437,-51.59 433.5,-41.59 430,-51.59 437,-51.59"/>
</g>
<!-- Node14 -->
<g id="node14" class="node">
<title>Node14</title>
<g id="a_node14"><a xlink:title=" ">
<polygon fill="none" stroke="#bfbfbf" points="516,-11.5 516,-30.5 621,-30.5 621,-11.5 516,-11.5"/>
<text text-anchor="middle" x="568.5" y="-18.5" font-family="Helvetica,sans-Serif" font-size="10.00">CGAL/Polygon_2.h</text>
</a>
</g>
</g>
<!-- Node9&#45;&gt;Node14 -->
<g id="edge13" class="edge">
<title>Node9&#45;&gt;Node14</title>
<path fill="none" stroke="midnightblue" d="M460.49,-78.4C484.57,-65.83 519.56,-47.56 543.13,-35.25"/>
<polygon fill="midnightblue" stroke="midnightblue" points="544.92,-38.27 552.16,-30.53 541.67,-32.06 544.92,-38.27"/>
</g>
<!-- Node15 -->
<g id="node15" class="node">
<title>Node15</title>
<g id="a_node15"><a xlink:title=" ">
<polygon fill="none" stroke="#bfbfbf" points="639,-11.5 639,-30.5 760,-30.5 760,-11.5 639,-11.5"/>
<text text-anchor="middle" x="699.5" y="-18.5" font-family="Helvetica,sans-Serif" font-size="10.00">CGAL/Polyhedron_3.h</text>
</a>
</g>
</g>
<!-- Node9&#45;&gt;Node15 -->
<g id="edge14" class="edge">
<title>Node9&#45;&gt;Node15</title>
<path fill="none" stroke="midnightblue" d="M489.79,-78.41C529.02,-68.49 582.53,-54.76 629.5,-42 639.56,-39.27 650.41,-36.22 660.49,-33.34"/>
<polygon fill="midnightblue" stroke="midnightblue" points="661.61,-36.66 670.26,-30.54 659.68,-29.93 661.61,-36.66"/>
</g>
<!-- Node16 -->
<g id="node16" class="node">
<title>Node16</title>
<g id="a_node16"><a xlink:href="namespace_8h.html" target="_top" xlink:title=" ">
<polygon fill="none" stroke="black" points="778.5,-6 778.5,-36 914.5,-36 914.5,-6 778.5,-6"/>
<text text-anchor="start" x="786.5" y="-24" font-family="Helvetica,sans-Serif" font-size="10.00">VoronoiMeshMaker/Misc</text>
<text text-anchor="middle" x="846.5" y="-13" font-family="Helvetica,sans-Serif" font-size="10.00">/namespace.h</text>
</a>
</g>
</g>
<!-- Node9&#45;&gt;Node16 -->
<g id="edge15" class="edge">
<title>Node9&#45;&gt;Node16</title>
<path fill="none" stroke="midnightblue" d="M501.9,-79.44C504.81,-78.94 507.68,-78.46 510.5,-78 625.19,-59.24 655.51,-64.65 769.5,-42 774.83,-40.94 780.35,-39.73 785.86,-38.45"/>
<polygon fill="midnightblue" stroke="midnightblue" points="786.84,-41.81 795.75,-36.07 785.21,-35.01 786.84,-41.81"/>
</g>
<!-- Node17&#45;&gt;Node7 -->
<g id="edge17" class="edge">
<title>Node17&#45;&gt;Node7</title>
<path fill="none" stroke="midnightblue" d="M190.51,-212.35C174.95,-204.22 158.31,-192.32 149.5,-176 142.95,-163.88 141.34,-156.1 149.5,-145 175.41,-109.71 225.94,-98.42 263.51,-95.12"/>
<polygon fill="midnightblue" stroke="midnightblue" points="264.01,-98.6 273.73,-94.39 263.51,-91.62 264.01,-98.6"/>
</g>
<!-- Node18 -->
<g id="node18" class="node">
<title>Node18</title>
<g id="a_node18"><a xlink:title=" ">
<polygon fill="none" stroke="#bfbfbf" points="158.5,-145.5 158.5,-175.5 294.5,-175.5 294.5,-145.5 158.5,-145.5"/>
<text text-anchor="start" x="166.5" y="-163.5" font-family="Helvetica,sans-Serif" font-size="10.00">VoronoiMeshMaker/Misc</text>
<text text-anchor="middle" x="226.5" y="-152.5" font-family="Helvetica,sans-Serif" font-size="10.00">/Misc.h</text>
</a>
</g>
</g>
<!-- Node17&#45;&gt;Node18 -->
<g id="edge18" class="edge">
<title>Node17&#45;&gt;Node18</title>
<path fill="none" stroke="midnightblue" d="M226.5,-212.4C226.5,-204.64 226.5,-194.81 226.5,-185.86"/>
<polygon fill="midnightblue" stroke="midnightblue" points="230,-185.58 226.5,-175.58 223,-185.58 230,-185.58"/>
</g>
<!-- Node20 -->
<g id="node20" class="node">
<title>Node20</title>
<g id="a_node20"><a xlink:href="Shape_8h.html" target="_top" xlink:title="Defines the Shape class, which serves as the abstract base class for all shapes.">
<polygon fill="none" stroke="black" points="621,-212.5 621,-242.5 764,-242.5 764,-212.5 621,-212.5"/>
<text text-anchor="start" x="629" y="-230.5" font-family="Helvetica,sans-Serif" font-size="10.00">VoronoiMeshMaker/Shape</text>
<text text-anchor="middle" x="692.5" y="-219.5" font-family="Helvetica,sans-Serif" font-size="10.00">/Shape.h</text>
</a>
</g>
</g>
<!-- Node19&#45;&gt;Node20 -->
<g id="edge20" class="edge">
<title>Node19&#45;&gt;Node20</title>
<path fill="none" stroke="midnightblue" d="M582.88,-279.4C603.43,-269.86 630.76,-257.16 653,-246.84"/>
<polygon fill="midnightblue" stroke="midnightblue" points="654.59,-249.96 662.18,-242.58 651.64,-243.61 654.59,-249.96"/>
</g>
<!-- Node22 -->
<g id="node22" class="node">
<title>Node22</title>
<g id="a_node22"><a xlink:href="GeometricDataHolder_8h.html" target="_top" xlink:title=" ">
<polygon fill="none" stroke="black" points="504.5,-145.5 504.5,-175.5 674.5,-175.5 674.5,-145.5 504.5,-145.5"/>
<text text-anchor="start" x="512.5" y="-163.5" font-family="Helvetica,sans-Serif" font-size="10.00">VoronoiMeshMaker/Parameters</text>
<text text-anchor="middle" x="589.5" y="-152.5" font-family="Helvetica,sans-Serif" font-size="10.00">/GeometricDataHolder.h</text>
</a>
</g>
</g>
<!-- Node19&#45;&gt;Node22 -->
<g id="edge28" class="edge">
<title>Node19&#45;&gt;Node22</title>
<path fill="none" stroke="midnightblue" d="M556.46,-279.37C562.75,-256.94 575.09,-212.92 582.78,-185.49"/>
<polygon fill="midnightblue" stroke="midnightblue" points="586.24,-186.1 585.57,-175.52 579.5,-184.21 586.24,-186.1"/>
</g>
<!-- Node21 -->
<g id="node21" class="node">
<title>Node21</title>
<g id="a_node21"><a xlink:title=" ">
<polygon fill="none" stroke="#bfbfbf" points="692.5,-151 692.5,-170 850.5,-170 850.5,-151 692.5,-151"/>
<text text-anchor="middle" x="771.5" y="-158" font-family="Helvetica,sans-Serif" font-size="10.00">VoronoiMeshMaker/Misc/ID.h</text>
</a>
</g>
</g>
<!-- Node20&#45;&gt;Node21 -->
<g id="edge21" class="edge">
<title>Node20&#45;&gt;Node21</title>
<path fill="none" stroke="midnightblue" d="M709.64,-212.4C722.45,-201.86 739.93,-187.48 753.04,-176.69"/>
<polygon fill="midnightblue" stroke="midnightblue" points="755.43,-179.25 760.93,-170.19 750.99,-173.85 755.43,-179.25"/>
</g>
<!-- Node20&#45;&gt;Node22 -->
<g id="edge22" class="edge">
<title>Node20&#45;&gt;Node22</title>
<path fill="none" stroke="midnightblue" d="M670.15,-212.4C655.57,-203.2 636.35,-191.07 620.33,-180.95"/>
<polygon fill="midnightblue" stroke="midnightblue" points="622.13,-177.95 611.81,-175.58 618.39,-183.87 622.13,-177.95"/>
</g>
<!-- Node22&#45;&gt;Node7 -->
<g id="edge25" class="edge">
<title>Node22&#45;&gt;Node7</title>
<path fill="none" stroke="midnightblue" d="M516.41,-145.46C470.29,-136.15 409.61,-123.09 356.5,-109 353.08,-108.09 349.53,-107.09 346,-106.05"/>
<polygon fill="midnightblue" stroke="midnightblue" points="346.75,-102.62 336.17,-103.05 344.71,-109.31 346.75,-102.62"/>
</g>
<!-- Node22&#45;&gt;Node9 -->
<g id="edge26" class="edge">
<title>Node22&#45;&gt;Node9</title>
<path fill="none" stroke="midnightblue" d="M555.65,-145.4C532.45,-135.73 501.47,-122.82 476.52,-112.43"/>
<polygon fill="midnightblue" stroke="midnightblue" points="477.86,-109.19 467.28,-108.58 475.17,-115.65 477.86,-109.19"/>
</g>
<!-- Node23 -->
<g id="node23" class="node">
<title>Node23</title>
<g id="a_node23"><a xlink:title=" ">
<polygon fill="none" stroke="#bfbfbf" points="519.5,-84 519.5,-103 557.5,-103 557.5,-84 519.5,-84"/>
<text text-anchor="middle" x="538.5" y="-91" font-family="Helvetica,sans-Serif" font-size="10.00">map</text>
</a>
</g>
</g>
<!-- Node22&#45;&gt;Node23 -->
<g id="edge23" class="edge">
<title>Node22&#45;&gt;Node23</title>
<path fill="none" stroke="midnightblue" d="M578.43,-145.4C570.56,-135.36 559.95,-121.84 551.65,-111.25"/>
<polygon fill="midnightblue" stroke="midnightblue" points="554.25,-108.9 545.32,-103.19 548.74,-113.22 554.25,-108.9"/>
</g>
<!-- Node24 -->
<g id="node24" class="node">
<title>Node24</title>
<g id="a_node24"><a xlink:title=" ">
<polygon fill="none" stroke="#bfbfbf" points="576,-84 576,-103 627,-103 627,-84 576,-84"/>
<text text-anchor="middle" x="601.5" y="-91" font-family="Helvetica,sans-Serif" font-size="10.00">variant</text>
</a>
</g>
</g>
<!-- Node22&#45;&gt;Node24 -->
<g id="edge24" class="edge">
<title>Node22&#45;&gt;Node24</title>
<path fill="none" stroke="midnightblue" d="M592.1,-145.4C593.85,-135.96 596.16,-123.45 598.05,-113.19"/>
<polygon fill="midnightblue" stroke="midnightblue" points="601.52,-113.66 599.89,-103.19 594.64,-112.39 601.52,-113.66"/>
</g>
<!-- Node25 -->
<g id="node25" class="node">
<title>Node25</title>
<g id="a_node25"><a xlink:href="GeometricDataHolder_8tpp.html" target="_top" xlink:title=" ">
<polygon fill="none" stroke="black" points="645.5,-78.5 645.5,-108.5 815.5,-108.5 815.5,-78.5 645.5,-78.5"/>
<text text-anchor="start" x="653.5" y="-96.5" font-family="Helvetica,sans-Serif" font-size="10.00">VoronoiMeshMaker/Parameters</text>
<text text-anchor="middle" x="730.5" y="-85.5" font-family="Helvetica,sans-Serif" font-size="10.00">/GeometricDataHolder.tpp</text>
</a>
</g>
</g>
<!-- Node22&#45;&gt;Node25 -->
<g id="edge27" class="edge">
<title>Node22&#45;&gt;Node25</title>
<path fill="none" stroke="midnightblue" d="M620.09,-145.4C640.79,-135.86 668.32,-123.16 690.72,-112.84"/>
<polygon fill="midnightblue" stroke="midnightblue" points="692.35,-115.94 699.96,-108.58 689.42,-109.58 692.35,-115.94"/>
</g>
<!-- Node27 -->
<g id="node27" class="node">
<title>Node27</title>
<g id="a_node27"><a xlink:href="Shape2D_8h.html" target="_top" xlink:title="Defines the Shape2D class, which represents 2D geometric shapes.">
<polygon fill="none" stroke="black" points="642,-279.5 642,-309.5 785,-309.5 785,-279.5 642,-279.5"/>
<text text-anchor="start" x="650" y="-297.5" font-family="Helvetica,sans-Serif" font-size="10.00">VoronoiMeshMaker/Shape</text>
<text text-anchor="middle" x="713.5" y="-286.5" font-family="Helvetica,sans-Serif" font-size="10.00">/Shape2D/Shape2D.h</text>
</a>
</g>
</g>
<!-- Node26&#45;&gt;Node27 -->
<g id="edge30" class="edge">
<title>Node26&#45;&gt;Node27</title>
<path fill="none" stroke="midnightblue" d="M689.23,-346.4C693.09,-338.3 698.03,-327.94 702.44,-318.69"/>
<polygon fill="midnightblue" stroke="midnightblue" points="705.64,-320.11 706.79,-309.58 699.32,-317.1 705.64,-320.11"/>
</g>
<!-- Node27&#45;&gt;Node20 -->
<g id="edge31" class="edge">
<title>Node27&#45;&gt;Node20</title>
<path fill="none" stroke="midnightblue" d="M708.94,-279.4C706.38,-271.47 703.12,-261.38 700.18,-252.27"/>
<polygon fill="midnightblue" stroke="midnightblue" points="703.45,-251.02 697.05,-242.58 696.79,-253.17 703.45,-251.02"/>
</g>
</g>
</svg>
