<?xml version="1.0" encoding="UTF-8" standalone="no"?>
<!DOCTYPE svg PUBLIC "-//W3C//DTD SVG 1.1//EN"
 "http://www.w3.org/Graphics/SVG/1.1/DTD/svg11.dtd">
<!-- Generated by graphviz version 2.43.0 (0)
 -->
<!-- Title: VoronoiMeshMaker/include/VoronoiMeshMaker/Misc/type.h Pages: 1 -->
<svg width="745pt" height="117pt"
 viewBox="0.00 0.00 745.00 117.00" xmlns="http://www.w3.org/2000/svg" xmlns:xlink="http://www.w3.org/1999/xlink">
<g id="graph0" class="graph" transform="scale(1 1) rotate(0) translate(4 113)">
<title>VoronoiMeshMaker/include/VoronoiMeshMaker/Misc/type.h</title>
<!-- Node1 -->
<g id="node1" class="node">
<title>Node1</title>
<g id="a_node1"><a xlink:title="Defines common geometric and numeric types used in the VoronoiMeshMaker library.">
<polygon fill="#bfbfbf" stroke="black" points="169.5,-78.5 169.5,-108.5 342.5,-108.5 342.5,-78.5 169.5,-78.5"/>
<text text-anchor="start" x="177.5" y="-96.5" font-family="Helvetica,sans-Serif" font-size="10.00">VoronoiMeshMaker/include</text>
<text text-anchor="middle" x="256" y="-85.5" font-family="Helvetica,sans-Serif" font-size="10.00">/VoronoiMeshMaker/Misc/type.h</text>
</a>
</g>
</g>
<!-- Node2 -->
<g id="node2" class="node">
<title>Node2</title>
<g id="a_node2"><a xlink:title=" ">
<polygon fill="none" stroke="#bfbfbf" points="0,-11.5 0,-30.5 32,-30.5 32,-11.5 0,-11.5"/>
<text text-anchor="middle" x="16" y="-18.5" font-family="Helvetica,sans-Serif" font-size="10.00">list</text>
</a>
</g>
</g>
<!-- Node1&#45;&gt;Node2 -->
<g id="edge1" class="edge">
<title>Node1&#45;&gt;Node2</title>
<path fill="none" stroke="midnightblue" d="M169.31,-81.16C128.89,-73.65 81,-61.45 41,-42 38.28,-40.68 35.59,-39.02 33.04,-37.22"/>
<polygon fill="midnightblue" stroke="midnightblue" points="35.06,-34.35 25.05,-30.87 30.7,-39.83 35.06,-34.35"/>
</g>
<!-- Node3 -->
<g id="node3" class="node">
<title>Node3</title>
<g id="a_node3"><a xlink:title=" ">
<polygon fill="none" stroke="#bfbfbf" points="50,-11.5 50,-30.5 108,-30.5 108,-11.5 50,-11.5"/>
<text text-anchor="middle" x="79" y="-18.5" font-family="Helvetica,sans-Serif" font-size="10.00">memory</text>
</a>
</g>
</g>
<!-- Node1&#45;&gt;Node3 -->
<g id="edge2" class="edge">
<title>Node1&#45;&gt;Node3</title>
<path fill="none" stroke="midnightblue" d="M212.51,-78.4C184.8,-69 148.35,-55.87 117,-42 112.47,-39.99 107.72,-37.68 103.19,-35.36"/>
<polygon fill="midnightblue" stroke="midnightblue" points="104.77,-32.24 94.3,-30.66 101.5,-38.42 104.77,-32.24"/>
</g>
<!-- Node4 -->
<g id="node4" class="node">
<title>Node4</title>
<g id="a_node4"><a xlink:title=" ">
<polygon fill="none" stroke="#bfbfbf" points="126.5,-11.5 126.5,-30.5 173.5,-30.5 173.5,-11.5 126.5,-11.5"/>
<text text-anchor="middle" x="150" y="-18.5" font-family="Helvetica,sans-Serif" font-size="10.00">vector</text>
</a>
</g>
</g>
<!-- Node1&#45;&gt;Node4 -->
<g id="edge3" class="edge">
<title>Node1&#45;&gt;Node4</title>
<path fill="none" stroke="midnightblue" d="M234.8,-78.4C216.32,-66.11 189.65,-48.37 171.17,-36.08"/>
<polygon fill="midnightblue" stroke="midnightblue" points="173.1,-33.16 162.83,-30.53 169.22,-38.99 173.1,-33.16"/>
</g>
<!-- Node5 -->
<g id="node5" class="node">
<title>Node5</title>
<g id="a_node5"><a xlink:title=" ">
<polygon fill="none" stroke="#bfbfbf" points="191.5,-0.5 191.5,-41.5 320.5,-41.5 320.5,-0.5 191.5,-0.5"/>
<text text-anchor="start" x="199.5" y="-29.5" font-family="Helvetica,sans-Serif" font-size="10.00">CGAL/Exact_predicates</text>
<text text-anchor="start" x="199.5" y="-18.5" font-family="Helvetica,sans-Serif" font-size="10.00">_inexact_constructions</text>
<text text-anchor="middle" x="256" y="-7.5" font-family="Helvetica,sans-Serif" font-size="10.00">_kernel.h</text>
</a>
</g>
</g>
<!-- Node1&#45;&gt;Node5 -->
<g id="edge4" class="edge">
<title>Node1&#45;&gt;Node5</title>
<path fill="none" stroke="midnightblue" d="M256,-78.23C256,-70.57 256,-60.84 256,-51.63"/>
<polygon fill="midnightblue" stroke="midnightblue" points="259.5,-51.59 256,-41.59 252.5,-51.59 259.5,-51.59"/>
</g>
<!-- Node6 -->
<g id="node6" class="node">
<title>Node6</title>
<g id="a_node6"><a xlink:title=" ">
<polygon fill="none" stroke="#bfbfbf" points="338.5,-11.5 338.5,-30.5 443.5,-30.5 443.5,-11.5 338.5,-11.5"/>
<text text-anchor="middle" x="391" y="-18.5" font-family="Helvetica,sans-Serif" font-size="10.00">CGAL/Polygon_2.h</text>
</a>
</g>
</g>
<!-- Node1&#45;&gt;Node6 -->
<g id="edge5" class="edge">
<title>Node1&#45;&gt;Node6</title>
<path fill="none" stroke="midnightblue" d="M282.99,-78.4C307.07,-65.83 342.06,-47.56 365.63,-35.25"/>
<polygon fill="midnightblue" stroke="midnightblue" points="367.42,-38.27 374.66,-30.53 364.17,-32.06 367.42,-38.27"/>
</g>
<!-- Node7 -->
<g id="node7" class="node">
<title>Node7</title>
<g id="a_node7"><a xlink:title=" ">
<polygon fill="none" stroke="#bfbfbf" points="461.5,-11.5 461.5,-30.5 582.5,-30.5 582.5,-11.5 461.5,-11.5"/>
<text text-anchor="middle" x="522" y="-18.5" font-family="Helvetica,sans-Serif" font-size="10.00">CGAL/Polyhedron_3.h</text>
</a>
</g>
</g>
<!-- Node1&#45;&gt;Node7 -->
<g id="edge6" class="edge">
<title>Node1&#45;&gt;Node7</title>
<path fill="none" stroke="midnightblue" d="M312.59,-78.49C352.03,-68.6 405.83,-54.88 453,-42 462.93,-39.29 473.62,-36.25 483.56,-33.37"/>
<polygon fill="midnightblue" stroke="midnightblue" points="484.56,-36.73 493.18,-30.57 482.61,-30 484.56,-36.73"/>
</g>
<!-- Node8 -->
<g id="node8" class="node">
<title>Node8</title>
<g id="a_node8"><a xlink:href="namespace_8h.html" target="_top" xlink:title=" ">
<polygon fill="none" stroke="black" points="601,-6 601,-36 737,-36 737,-6 601,-6"/>
<text text-anchor="start" x="609" y="-24" font-family="Helvetica,sans-Serif" font-size="10.00">VoronoiMeshMaker/Misc</text>
<text text-anchor="middle" x="669" y="-13" font-family="Helvetica,sans-Serif" font-size="10.00">/namespace.h</text>
</a>
</g>
</g>
<!-- Node1&#45;&gt;Node8 -->
<g id="edge7" class="edge">
<title>Node1&#45;&gt;Node8</title>
<path fill="none" stroke="midnightblue" d="M342.76,-82C410.87,-73.15 507.91,-59.19 592,-42 597.24,-40.93 602.66,-39.72 608.09,-38.45"/>
<polygon fill="midnightblue" stroke="midnightblue" points="608.92,-41.85 617.82,-36.09 607.27,-35.04 608.92,-41.85"/>
</g>
</g>
</svg>
