# vtk DataFile Version 3.0
Rectangle clipped Voronoi cells
ASCII
DATASET POLYDATA
POINTS 764 double
-4 -1.6824573519457076 0
-4 -2 0
-3.7249999999999996 -2 0
-3.7249999999999996 -1.8412286759728547 0
-3.4499999999999993 -1.6824573519457076 0
-3.7249999999999996 -1.8412286759728547 0
-3.7249999999999996 -2 0
-3.1750000000000007 -2 0
-3.1750000000000007 -1.8412286759728538 0
-2.8999999999999986 -1.6824573519457056 0
-3.1750000000000007 -1.8412286759728538 0
-3.1750000000000007 -2 0
-2.625 -2 0
-2.625 -1.8412286759728518 0
-2.3500000000000014 -1.6824573519457056 0
-2.625 -1.8412286759728518 0
-2.625 -2 0
-2.0750000000000006 -2 0
-2.0750000000000006 -1.8412286759728533 0
-1.8000000000000005 -1.6824573519457062 0
-2.0750000000000002 -1.8412286759728531 0
-2.0750000000000002 -2 0
-1.525000000000001 -2 0
-1.525000000000001 -1.8412286759728529 0
-1.25 -1.6824573519457056 0
-1.525000000000001 -1.8412286759728531 0
-1.525000000000001 -2 0
-0.97500000000000042 -2 0
-0.97500000000000042 -1.8412286759728524 0
-0.70000000000000051 -1.6824573519457051 0
-0.97500000000000042 -1.8412286759728522 0
-0.97500000000000042 -2 0
-0.42500000000000027 -2 0
-0.42500000000000027 -1.8412286759728524 0
-0.15000000000000047 -1.6824573519457056 0
-0.42500000000000027 -1.8412286759728524 0
-0.42500000000000027 -2 0
0.12500000000000017 -2 0
0.12500000000000017 -1.8412286759728529 0
0.39999999999999974 -1.6824573519457062 0
0.12500000000000019 -1.8412286759728529 0
0.12500000000000019 -2 0
0.67499999999999982 -2 0
0.67499999999999982 -1.8412286759728533 0
0.94999999999999984 -1.6824573519457062 0
0.67499999999999971 -1.8412286759728533 0
0.67499999999999971 -2 0
1.2249999999999992 -2 0
1.2249999999999992 -1.8412286759728529 0
1.4999999999999993 -1.6824573519457056 0
1.2249999999999992 -1.8412286759728527 0
1.2249999999999992 -2 0
1.7749999999999995 -2 0
1.7749999999999995 -1.8412286759728527 0
2.0499999999999998 -1.6824573519457058 0
1.7749999999999995 -1.8412286759728529 0
1.7749999999999995 -2 0
2.3250000000000002 -2 0
2.3250000000000002 -1.8412286759728529 0
2.6000000000000005 -1.6824573519457058 0
2.3250000000000002 -1.8412286759728529 0
2.3250000000000002 -2 0
2.8749999999999991 -2 0
2.8749999999999991 -1.841228675972852 0
3.1499999999999995 -1.6824573519457047 0
2.8749999999999991 -1.8412286759728518 0
2.8749999999999991 -2 0
3.4249999999999994 -2 0
3.4249999999999994 -1.8412286759728518 0
3.6999999999999984 -1.6824573519457056 0
3.4249999999999998 -1.8412286759728518 0
3.4249999999999998 -2 0
4 -2 0
4 -1.8556624327025943 0
-3.7249999999999979 -1.2061433798642631 0
-4 -1.3649147038914113 0
-4 -1.6824573519457076 0
-3.7249999999999996 -1.8412286759728547 0
-3.4499999999999993 -1.6824573519457076 0
-3.4499999999999993 -1.3649147038914093 0
-3.1750000000000007 -1.2061433798642631 0
-3.4499999999999993 -1.3649147038914093 0
-3.4499999999999993 -1.6824573519457076 0
-3.1750000000000007 -1.8412286759728538 0
-2.8999999999999986 -1.6824573519457056 0
-2.8999999999999986 -1.3649147038914113 0
-2.6250000000000009 -1.2061433798642656 0
-2.8999999999999986 -1.3649147038914111 0
-2.8999999999999986 -1.682457351945706 0
-2.6250000000000004 -1.841228675972852 0
-2.3500000000000014 -1.6824573519457056 0
-2.3500000000000014 -1.364914703891412 0
-2.0750000000000006 -1.2061433798642645 0
-2.3500000000000014 -1.364914703891412 0
-2.3500000000000014 -1.6824573519457056 0
-2.0750000000000002 -1.8412286759728533 0
-1.8000000000000005 -1.6824573519457064 0
-1.8000000000000005 -1.3649147038914116 0
-1.5250000000000001 -1.2061433798642645 0
-1.8000000000000003 -1.3649147038914118 0
-1.8000000000000003 -1.682457351945706 0
-1.5250000000000008 -1.8412286759728529 0
-1.2500000000000002 -1.6824573519457056 0
-1.2500000000000002 -1.3649147038914113 0
-0.97500000000000053 -1.2061433798642645 0
-1.2500000000000002 -1.3649147038914116 0
-1.2500000000000002 -1.6824573519457053 0
-0.97500000000000042 -1.8412286759728522 0
-0.7000000000000004 -1.6824573519457051 0
-0.7000000000000004 -1.3649147038914118 0
-0.42500000000000043 -1.2061433798642647 0
-0.7000000000000004 -1.3649147038914118 0
-0.7000000000000004 -1.6824573519457053 0
-0.42500000000000004 -1.8412286759728524 0
-0.15000000000000049 -1.6824573519457056 0
-0.15000000000000049 -1.3649147038914116 0
0.12499999999999961 -1.2061433798642647 0
-0.15000000000000041 -1.3649147038914118 0
-0.15000000000000041 -1.6824573519457053 0
0.12500000000000019 -1.8412286759728529 0
0.39999999999999947 -1.6824573519457062 0
0.39999999999999947 -1.3649147038914118 0
0.6749999999999996 -1.2061433798642645 0
0.39999999999999958 -1.3649147038914118 0
0.39999999999999952 -1.6824573519457062 0
0.67499999999999971 -1.8412286759728533 0
0.94999999999999962 -1.6824573519457062 0
0.94999999999999962 -1.3649147038914116 0
1.2250000000000001 -1.2061433798642645 0
0.94999999999999962 -1.3649147038914118 0
0.94999999999999962 -1.6824573519457062 0
1.2249999999999992 -1.8412286759728529 0
1.4999999999999996 -1.6824573519457056 0
1.4999999999999996 -1.3649147038914113 0
1.7749999999999995 -1.2061433798642642 0
1.4999999999999996 -1.3649147038914113 0
1.4999999999999996 -1.6824573519457056 0
1.7749999999999995 -1.8412286759728527 0
2.0499999999999998 -1.6824573519457056 0
2.0499999999999998 -1.3649147038914113 0
2.3250000000000002 -1.206143379864264 0
2.0499999999999998 -1.3649147038914111 0
2.0499999999999998 -1.6824573519457058 0
2.3250000000000002 -1.8412286759728529 0
2.6000000000000005 -1.6824573519457056 0
2.6000000000000005 -1.3649147038914113 0
2.8749999999999991 -1.2061433798642651 0
2.6000000000000005 -1.3649147038914111 0
2.6000000000000005 -1.6824573519457058 0
2.8749999999999987 -1.8412286759728518 0
3.1499999999999995 -1.6824573519457044 0
3.1499999999999995 -1.3649147038914125 0
3.4249999999999994 -1.2061433798642651 0
3.1499999999999995 -1.3649147038914122 0
3.1499999999999995 -1.6824573519457047 0
3.4249999999999998 -1.841228675972852 0
3.699999999999998 -1.6824573519457058 0
3.699999999999998 -1.3649147038914111 0
3.699999999999998 -1.3649147038914113 0
3.699999999999998 -1.6824573519457056 0
4 -1.8556624327025943 0
4 -1.1917096231345228 0
-4 -0.72982940778282301 0
-4 -1.3649147038914116 0
-3.7249999999999979 -1.2061433798642633 0
-3.7249999999999979 -0.88860073180997079 0
-3.4499999999999993 -0.72982940778282446 0
-3.7249999999999979 -0.88860073180997068 0
-3.7249999999999979 -1.2061433798642631 0
-3.4499999999999993 -1.3649147038914093 0
-3.1750000000000007 -1.2061433798642633 0
-3.1750000000000007 -0.88860073180997068 0
-2.9000000000000004 -0.72982940778282346 0
-3.1750000000000007 -0.88860073180997068 0
-3.1750000000000007 -1.2061433798642631 0
-2.899999999999999 -1.3649147038914113 0
-2.6250000000000009 -1.2061433798642656 0
-2.6250000000000009 -0.88860073180997023 0
-2.3500000000000005 -0.72982940778282313 0
-2.6250000000000009 -0.88860073180997023 0
-2.6250000000000009 -1.2061433798642653 0
-2.3500000000000014 -1.3649147038914122 0
-2.0750000000000006 -1.2061433798642647 0
-2.0750000000000006 -0.88860073180997023 0
-1.8000000000000003 -0.72982940778282313 0
-2.0750000000000006 -0.88860073180997035 0
-2.0750000000000006 -1.2061433798642647 0
-1.8000000000000003 -1.3649147038914118 0
-1.5250000000000001 -1.2061433798642647 0
-1.5250000000000001 -0.88860073180997023 0
-1.2500000000000002 -0.72982940778282346 0
-1.5250000000000001 -0.88860073180997046 0
-1.5250000000000001 -1.2061433798642645 0
-1.2500000000000002 -1.3649147038914113 0
-0.97500000000000053 -1.2061433798642645 0
-0.97500000000000053 -0.88860073180997035 0
-0.7000000000000004 -0.72982940778282313 0
-0.97500000000000053 -0.88860073180997023 0
-0.97500000000000053 -1.2061433798642647 0
-0.7000000000000004 -1.3649147038914118 0
-0.42500000000000043 -1.2061433798642647 0
-0.42500000000000049 -0.88860073180997012 0
-0.15000000000000019 -0.72982940778282313 0
-0.42500000000000038 -0.88860073180997035 0
-0.42500000000000043 -1.2061433798642647 0
-0.15000000000000033 -1.3649147038914118 0
0.12499999999999954 -1.2061433798642647 0
0.12499999999999956 -0.88860073180997012 0
0.39999999999999969 -0.72982940778282301 0
0.1249999999999996 -0.88860073180997012 0
0.12499999999999956 -1.2061433798642649 0
0.39999999999999941 -1.3649147038914118 0
0.67499999999999971 -1.2061433798642645 0
0.67499999999999971 -0.88860073180997012 0
0.94999999999999996 -0.72982940778282313 0
0.67499999999999971 -0.88860073180997035 0
0.67499999999999971 -1.2061433798642647 0
0.94999999999999973 -1.3649147038914118 0
1.2250000000000001 -1.2061433798642645 0
1.2250000000000001 -0.88860073180997023 0
1.5 -0.72982940778282324 0
1.2250000000000001 -0.88860073180997035 0
1.2250000000000001 -1.2061433798642645 0
1.4999999999999996 -1.3649147038914113 0
1.7749999999999997 -1.2061433798642642 0
1.7749999999999997 -0.88860073180997035 0
2.0500000000000003 -0.7298294077828229 0
1.7749999999999997 -0.88860073180997023 0
1.7749999999999997 -1.2061433798642642 0
2.0499999999999998 -1.3649147038914113 0
2.3250000000000002 -1.206143379864264 0
2.3250000000000002 -0.88860073180997001 0
2.5999999999999988 -0.72982940778282357 0
2.3250000000000002 -0.88860073180996979 0
2.3250000000000002 -1.2061433798642645 0
2.6000000000000001 -1.3649147038914113 0
2.8749999999999991 -1.2061433798642649 0
2.8749999999999991 -0.8886007318099709 0
3.1499999999999995 -0.72982940778282346 0
2.8749999999999991 -0.88860073180997057 0
2.8749999999999991 -1.2061433798642649 0
3.1499999999999995 -1.3649147038914122 0
3.4249999999999998 -1.2061433798642649 0
3.4249999999999998 -0.8886007318099709 0
3.6999999999999997 -0.72982940778282346 0
3.4249999999999994 -0.88860073180997068 0
3.4249999999999994 -1.2061433798642651 0
3.699999999999998 -1.3649147038914113 0
4 -1.1917096231345226 0
4 -0.90303448853971124 0
-3.725000000000001 -0.25351543570138035 0
-4 -0.41228675972852702 0
-4 -0.7298294077828229 0
-3.7249999999999983 -0.88860073180997079 0
-3.4499999999999993 -0.72982940778282446 0
-3.4499999999999993 -0.41228675972852835 0
-3.1750000000000007 -0.25351543570138213 0
-3.4499999999999993 -0.41228675972852813 0
-3.4499999999999993 -0.72982940778282446 0
-3.1750000000000007 -0.88860073180997079 0
-2.9000000000000004 -0.72982940778282357 0
-2.9000000000000004 -0.4122867597285293 0
-2.6250000000000004 -0.25351543570138207 0
-2.9000000000000004 -0.41228675972852913 0
-2.9000000000000004 -0.72982940778282346 0
-2.6250000000000009 -0.88860073180997023 0
-2.3500000000000005 -0.72982940778282313 0
-2.3500000000000005 -0.41228675972852885 0
-2.0750000000000006 -0.25351543570138146 0
-2.350000000000001 -0.41228675972852885 0
-2.350000000000001 -0.72982940778282301 0
-2.0750000000000006 -0.88860073180997023 0
-1.8000000000000003 -0.7298294077828229 0
-1.8000000000000003 -0.41228675972852874 0
-1.5250000000000006 -0.25351543570138174 0
-1.8000000000000005 -0.41228675972852891 0
-1.8000000000000005 -0.72982940778282301 0
-1.5250000000000001 -0.88860073180997035 0
-1.25 -0.72982940778282324 0
-1.25 -0.41228675972852896 0
-0.97500000000000042 -0.25351543570138196 0
-1.2500000000000002 -0.41228675972852907 0
-1.2500000000000002 -0.72982940778282346 0
-0.97500000000000053 -0.88860073180997035 0
-0.7000000000000004 -0.72982940778282324 0
-0.7000000000000004 -0.41228675972852896 0
-0.42500000000000049 -0.2535154357013818 0
-0.70000000000000051 -0.41228675972852896 0
-0.70000000000000051 -0.72982940778282313 0
-0.42500000000000032 -0.88860073180997023 0
-0.15000000000000036 -0.72982940778282313 0
-0.15000000000000036 -0.41228675972852891 0
0.12499999999999967 -0.25351543570138185 0
-0.15000000000000036 -0.41228675972852902 0
-0.15000000000000036 -0.72982940778282324 0
0.12499999999999942 -0.88860073180997012 0
0.39999999999999958 -0.7298294077828229 0
0.39999999999999958 -0.41228675972852885 0
0.67499999999999982 -0.2535154357013818 0
0.39999999999999969 -0.41228675972852896 0
0.39999999999999969 -0.72982940778282324 0
0.67499999999999982 -0.88860073180997035 0
0.94999999999999962 -0.72982940778282335 0
0.94999999999999962 -0.41228675972852874 0
1.2249999999999996 -0.25351543570138185 0
0.94999999999999962 -0.41228675972852885 0
0.94999999999999962 -0.72982940778282301 0
1.2250000000000001 -0.88860073180997023 0
1.4999999999999998 -0.72982940778282324 0
1.4999999999999998 -0.41228675972852913 0
1.7750000000000001 -0.25351543570138191 0
1.4999999999999998 -0.41228675972852924 0
1.4999999999999998 -0.72982940778282335 0
1.7749999999999995 -0.88860073180997035 0
2.0500000000000003 -0.7298294077828229 0
2.0500000000000003 -0.41228675972852902 0
2.3250000000000002 -0.25351543570138213 0
2.0500000000000003 -0.41228675972852902 0
2.0500000000000003 -0.7298294077828229 0
2.3250000000000002 -0.8886007318099699 0
2.5999999999999988 -0.72982940778282379 0
2.5999999999999988 -0.4122867597285283 0
2.875 -0.25351543570138063 0
2.5999999999999988 -0.41228675972852824 0
2.5999999999999988 -0.72982940778282357 0
2.8749999999999991 -0.88860073180997079 0
3.1499999999999995 -0.72982940778282357 0
3.1499999999999995 -0.41228675972852752 0
3.4249999999999998 -0.25351543570138024 0
3.1499999999999995 -0.41228675972852724 0
3.1499999999999995 -0.72982940778282357 0
3.4249999999999994 -0.88860073180997068 0
3.6999999999999997 -0.72982940778282346 0
3.6999999999999997 -0.41228675972852741 0
3.6999999999999997 -0.41228675972852746 0
3.6999999999999997 -0.72982940778282346 0
4 -0.90303448853971124 0
4 -0.23908167897163968 0
-4 0.22279853638005864 0
-4 -0.41228675972852652 0
-3.7250000000000014 -0.25351543570138024 0
-3.7250000000000014 0.064027212352912186 0
-3.4500000000000011 0.22279853638005959 0
-3.7250000000000014 0.064027212352912408 0
-3.7250000000000014 -0.25351543570138013 0
-3.4499999999999993 -0.4122867597285283 0
-3.1750000000000007 -0.25351543570138196 0
-3.1750000000000007 0.064027212352912255 0
-2.9000000000000004 0.22279853638005956 0
-3.1750000000000007 0.064027212352912394 0
-3.1750000000000007 -0.25351543570138213 0
-2.9000000000000004 -0.4122867597285293 0
-2.625 -0.25351543570138207 0
-2.625 0.064027212352912255 0
-2.3499999999999996 0.22279853638005948 0
-2.625 0.064027212352912477 0
-2.625 -0.25351543570138207 0
-2.3500000000000005 -0.4122867597285288 0
-2.0750000000000002 -0.25351543570138169 0
-2.0750000000000002 0.064027212352912699 0
-1.8000000000000007 0.22279853638005975 0
-2.0750000000000006 0.064027212352912685 0
-2.0750000000000006 -0.25351543570138169 0
-1.8000000000000005 -0.4122867597285288 0
-1.5250000000000006 -0.25351543570138174 0
-1.5250000000000006 0.064027212352912408 0
-1.2500000000000004 0.22279853638005959 0
-1.5250000000000004 0.064027212352912533 0
-1.5250000000000004 -0.2535154357013818 0
-1.2500000000000002 -0.41228675972852885 0
-0.97500000000000031 -0.25351543570138185 0
-0.97500000000000031 0.064027212352912422 0
-0.70000000000000029 0.22279853638005942 0
-0.97500000000000031 0.064027212352912366 0
-0.97500000000000042 -0.25351543570138191 0
-0.7000000000000004 -0.41228675972852896 0
-0.42500000000000043 -0.25351543570138185 0
-0.42500000000000043 0.064027212352912394 0
-0.15000000000000033 0.22279853638005942 0
-0.42500000000000032 0.064027212352912338 0
-0.42500000000000032 -0.25351543570138191 0
-0.15000000000000027 -0.41228675972852902 0
0.12499999999999969 -0.25351543570138191 0
0.12499999999999969 0.06402721235291238 0
0.39999999999999974 0.22279853638005939 0
0.12499999999999967 0.064027212352912324 0
0.12499999999999972 -0.25351543570138191 0
0.39999999999999969 -0.41228675972852896 0
0.67499999999999971 -0.25351543570138185 0
0.67499999999999971 0.064027212352912394 0
0.94999999999999973 0.22279853638005939 0
0.67499999999999971 0.064027212352912366 0
0.67499999999999971 -0.2535154357013818 0
0.94999999999999973 -0.41228675972852891 0
1.2249999999999996 -0.25351543570138191 0
1.2249999999999996 0.064027212352912338 0
1.4999999999999996 0.2227985363800595 0
1.2249999999999996 0.064027212352912297 0
1.2249999999999996 -0.25351543570138202 0
1.4999999999999998 -0.41228675972852918 0
1.7749999999999999 -0.25351543570138191 0
1.7749999999999999 0.064027212352912116 0
2.0500000000000003 0.22279853638005925 0
1.7750000000000001 0.064027212352912227 0
1.7750000000000001 -0.25351543570138185 0
2.0500000000000003 -0.41228675972852902 0
2.3250000000000002 -0.25351543570138202 0
2.3250000000000002 0.064027212352912283 0
2.5999999999999988 0.22279853638005861 0
2.3250000000000002 0.064027212352912435 0
2.3250000000000002 -0.25351543570138219 0
2.5999999999999988 -0.41228675972852846 0
2.875 -0.2535154357013808 0
2.875 0.064027212352910839 0
3.1500000000000008 0.22279853638005859 0
2.875 0.064027212352911159 0
2.875 -0.25351543570138069 0
3.1499999999999995 -0.41228675972852735 0
3.4249999999999998 -0.25351543570138019 0
3.4249999999999998 0.064027212352912255 0
3.6999999999999984 0.22279853638005859 0
3.4249999999999994 0.064027212352912255 0
3.4249999999999994 -0.25351543570138024 0
3.6999999999999997 -0.41228675972852735 0
4 -0.23908167897163962 0
4 0.049593455623169871 0
-3.7249999999999983 0.6991125084614993 0
-4 0.5403411844343512 0
-4 0.22279853638005859 0
-3.7250000000000014 0.064027212352912297 0
-3.4500000000000011 0.22279853638005959 0
-3.4500000000000011 0.54034118443435397 0
-3.1750000000000007 0.69911250846150119 0
-3.4500000000000011 0.54034118443435386 0
-3.4500000000000011 0.22279853638005956 0
-3.1750000000000007 0.064027212352912366 0
-2.9000000000000004 0.22279853638005959 0
-2.9000000000000004 0.54034118443435375 0
-2.625 0.69911250846150119 0
-2.9000000000000004 0.54034118443435397 0
-2.9000000000000004 0.22279853638005953 0
-2.625 0.064027212352912394 0
-2.3500000000000001 0.22279853638005959 0
-2.3500000000000001 0.54034118443435408 0
-2.0750000000000011 0.69911250846150053 0
-2.3500000000000001 0.54034118443435397 0
-2.3500000000000001 0.22279853638005939 0
-2.0750000000000006 0.064027212352912741 0
-1.8000000000000007 0.22279853638005981 0
-1.8000000000000007 0.54034118443435319 0
-1.5250000000000006 0.69911250846150064 0
-1.8000000000000007 0.54034118443435342 0
-1.8000000000000007 0.22279853638005964 0
-1.5250000000000006 0.064027212352912449 0
-1.2500000000000004 0.22279853638005959 0
-1.2500000000000004 0.54034118443435353 0
-0.97500000000000031 0.69911250846150053 0
-1.2500000000000004 0.54034118443435342 0
-1.2500000000000004 0.22279853638005959 0
-0.97500000000000031 0.064027212352912408 0
-0.7000000000000004 0.22279853638005948 0
-0.7000000000000004 0.54034118443435353 0
-0.42500000000000032 0.69911250846150064 0
-0.7000000000000004 0.54034118443435342 0
-0.7000000000000004 0.22279853638005945 0
-0.42500000000000038 0.064027212352912324 0
-0.15000000000000036 0.22279853638005942 0
-0.15000000000000036 0.54034118443435353 0
0.12499999999999972 0.69911250846150064 0
-0.15000000000000036 0.54034118443435353 0
-0.15000000000000036 0.22279853638005942 0
0.12499999999999956 0.064027212352912366 0
0.39999999999999974 0.22279853638005953 0
0.39999999999999974 0.54034118443435342 0
0.67499999999999982 0.69911250846150064 0
0.39999999999999974 0.54034118443435353 0
0.39999999999999969 0.22279853638005942 0
0.67499999999999971 0.064027212352912311 0
0.94999999999999962 0.22279853638005939 0
0.94999999999999962 0.54034118443435364 0
1.2249999999999996 0.69911250846150064 0
0.94999999999999962 0.54034118443435364 0
0.94999999999999962 0.22279853638005939 0
1.2249999999999996 0.06402721235291238 0
1.4999999999999996 0.22279853638005948 0
1.4999999999999996 0.54034118443435353 0
1.7749999999999997 0.69911250846150064 0
1.4999999999999996 0.54034118443435353 0
1.4999999999999996 0.22279853638005945 0
1.7749999999999999 0.064027212352912144 0
2.0500000000000003 0.22279853638005945 0
2.0500000000000003 0.54034118443435319 0
2.3250000000000002 0.69911250846150019 0
2.0500000000000003 0.54034118443435342 0
2.0500000000000003 0.22279853638005931 0
2.3250000000000002 0.064027212352912408 0
2.5999999999999988 0.22279853638005878 0
2.5999999999999988 0.54034118443435386 0
2.8749999999999991 0.69911250846150119 0
2.5999999999999988 0.54034118443435397 0
2.5999999999999988 0.22279853638005864 0
2.875 0.064027212352910937 0
3.1500000000000008 0.22279853638005848 0
3.1500000000000008 0.54034118443435308 0
3.4249999999999994 0.6991125084614993 0
3.1500000000000008 0.54034118443435297 0
3.1500000000000008 0.2227985363800585 0
3.4249999999999994 0.064027212352912311 0
3.699999999999998 0.22279853638005853 0
3.699999999999998 0.54034118443435331 0
3.699999999999998 0.54034118443435297 0
3.699999999999998 0.2227985363800587 0
4 0.049593455623169837 0
4 0.71354626519124165 0
-4 1.1754264805429435 0
-4 0.54034118443435109 0
-3.7249999999999983 0.69911250846149919 0
-3.7249999999999983 1.0166551565157955 0
-3.4499999999999993 1.1754264805429415 0
-3.7249999999999983 1.0166551565157951 0
-3.7249999999999983 0.6991125084614993 0
-3.4500000000000011 0.54034118443435397 0
-3.1750000000000007 0.69911250846150108 0
-3.1750000000000007 1.0166551565157953 0
-2.9000000000000004 1.1754264805429426 0
-3.1750000000000007 1.0166551565157955 0
-3.1750000000000007 0.69911250846150119 0
-2.9000000000000004 0.54034118443435397 0
-2.625 0.69911250846150108 0
-2.625 1.0166551565157953 0
-2.3500000000000005 1.175426480542942 0
-2.625 1.0166551565157955 0
-2.625 0.69911250846150108 0
-2.3500000000000001 0.54034118443435397 0
-2.0750000000000006 0.69911250846150064 0
-2.0750000000000006 1.0166551565157951 0
-1.8000000000000009 1.175426480542942 0
-2.0750000000000006 1.0166551565157951 0
-2.0750000000000006 0.69911250846150053 0
-1.8000000000000007 0.54034118443435331 0
-1.5250000000000004 0.69911250846150064 0
-1.5250000000000004 1.0166551565157944 0
-1.2500000000000002 1.1754264805429417 0
-1.5250000000000006 1.0166551565157946 0
-1.5250000000000006 0.69911250846150053 0
-1.2500000000000004 0.54034118443435342 0
-0.97500000000000031 0.69911250846150064 0
-0.97500000000000031 1.0166551565157949 0
-0.70000000000000029 1.175426480542942 0
-0.97500000000000031 1.0166551565157949 0
-0.97500000000000031 0.69911250846150053 0
-0.7000000000000004 0.54034118443435353 0
-0.42500000000000043 0.69911250846150064 0
-0.42500000000000043 1.0166551565157949 0
-0.15000000000000024 1.175426480542942 0
-0.42500000000000043 1.0166551565157949 0
-0.42500000000000043 0.69911250846150075 0
-0.15000000000000033 0.54034118443435353 0
0.12499999999999969 0.69911250846150064 0
0.12499999999999965 1.0166551565157949 0
0.39999999999999958 1.175426480542942 0
0.12499999999999961 1.0166551565157951 0
0.12499999999999964 0.69911250846150064 0
0.39999999999999969 0.54034118443435353 0
0.67499999999999982 0.69911250846150075 0
0.67499999999999982 1.0166551565157949 0
0.94999999999999973 1.1754264805429417 0
0.67499999999999982 1.0166551565157949 0
0.67499999999999982 0.69911250846150064 0
0.94999999999999973 0.54034118443435364 0
1.2249999999999996 0.69911250846150064 0
1.2249999999999996 1.0166551565157949 0
1.5 1.1754264805429422 0
1.2249999999999996 1.0166551565157949 0
1.2249999999999996 0.69911250846150064 0
1.4999999999999996 0.54034118443435342 0
1.7749999999999997 0.69911250846150064 0
1.7749999999999997 1.0166551565157953 0
2.0499999999999998 1.1754264805429426 0
1.7749999999999997 1.0166551565157955 0
1.7749999999999997 0.69911250846150064 0
2.0500000000000003 0.54034118443435331 0
2.3250000000000002 0.6991125084615003 0
2.3250000000000002 1.0166551565157953 0
2.5999999999999996 1.1754264805429422 0
2.3250000000000002 1.0166551565157955 0
2.3250000000000002 0.6991125084615003 0
2.5999999999999988 0.54034118443435397 0
2.8749999999999991 0.69911250846150108 0
2.8749999999999991 1.0166551565157955 0
3.1499999999999995 1.1754264805429426 0
2.8749999999999991 1.0166551565157955 0
2.8749999999999991 0.6991125084615013 0
3.1500000000000012 0.54034118443435308 0
3.4249999999999994 0.69911250846149919 0
3.4249999999999994 1.0166551565157953 0
3.6999999999999997 1.1754264805429424 0
3.4249999999999998 1.0166551565157955 0
3.4249999999999998 0.69911250846149953 0
3.6999999999999984 0.54034118443435308 0
4 0.71354626519124176 0
4 1.0022213997860547 0
-3.7249999999999996 1.6517404526243831 0
-4 1.492969128597236 0
-4 1.1754264805429435 0
-3.7249999999999979 1.0166551565157955 0
-3.4499999999999993 1.1754264805429417 0
-3.4499999999999993 1.4929691285972357 0
-3.1750000000000007 1.6517404526243822 0
-3.4499999999999993 1.492969128597236 0
-3.4499999999999993 1.1754264805429415 0
-3.1750000000000007 1.0166551565157953 0
-2.9000000000000004 1.1754264805429426 0
-2.9000000000000004 1.4929691285972351 0
-2.6250000000000004 1.6517404526243822 0
-2.9000000000000004 1.4929691285972351 0
-2.9000000000000004 1.1754264805429424 0
-2.6250000000000004 1.0166551565157955 0
-2.3500000000000005 1.1754264805429424 0
-2.3500000000000005 1.4929691285972353 0
-2.0750000000000006 1.6517404526243826 0
-2.3500000000000005 1.4929691285972355 0
-2.3500000000000005 1.1754264805429417 0
-2.0750000000000011 1.0166551565157951 0
-1.8000000000000009 1.1754264805429422 0
-1.8000000000000012 1.4929691285972357 0
-1.5249999999999999 1.6517404526243837 0
-1.8000000000000012 1.4929691285972357 0
-1.8000000000000012 1.1754264805429422 0
-1.5250000000000004 1.0166551565157946 0
-1.2500000000000002 1.1754264805429417 0
-1.2500000000000002 1.4929691285972368 0
-0.97500000000000042 1.6517404526243835 0
-1.2500000000000002 1.4929691285972366 0
-1.2500000000000002 1.1754264805429417 0
-0.97500000000000042 1.0166551565157949 0
-0.7000000000000004 1.175426480542942 0
-0.70000000000000029 1.4929691285972364 0
-0.42500000000000049 1.6517404526243833 0
-0.7000000000000004 1.4929691285972364 0
-0.70000000000000029 1.175426480542942 0
-0.42500000000000038 1.0166551565157949 0
-0.15000000000000019 1.175426480542942 0
-0.15000000000000024 1.4929691285972362 0
0.12499999999999993 1.6517404526243831 0
-0.15000000000000027 1.492969128597236 0
-0.15000000000000024 1.175426480542942 0
0.12499999999999964 1.0166551565157951 0
0.39999999999999969 1.1754264805429422 0
0.39999999999999969 1.492969128597236 0
0.67499999999999982 1.6517404526243831 0
0.39999999999999969 1.492969128597236 0
0.39999999999999969 1.175426480542942 0
0.67499999999999971 1.0166551565157949 0
0.94999999999999962 1.175426480542942 0
0.94999999999999951 1.4929691285972362 0
1.2250000000000003 1.6517404526243835 0
0.94999999999999962 1.492969128597236 0
0.94999999999999962 1.175426480542942 0
1.2249999999999996 1.0166551565157951 0
1.5 1.1754264805429424 0
1.5 1.4929691285972364 0
1.7749999999999995 1.6517404526243831 0
1.5 1.4929691285972362 0
1.5 1.1754264805429424 0
1.7749999999999995 1.0166551565157955 0
2.0499999999999998 1.1754264805429426 0
2.0499999999999998 1.492969128597236 0
2.3249999999999993 1.6517404526243826 0
2.0499999999999998 1.492969128597236 0
2.0499999999999998 1.1754264805429426 0
2.3250000000000002 1.0166551565157953 0
2.5999999999999996 1.175426480542942 0
2.5999999999999996 1.4929691285972353 0
2.8750000000000004 1.6517404526243831 0
2.5999999999999996 1.4929691285972355 0
2.5999999999999996 1.175426480542942 0
2.8749999999999991 1.0166551565157953 0
3.1499999999999995 1.1754264805429424 0
3.1499999999999995 1.4929691285972366 0
3.424999999999998 1.6517404526243831 0
3.1499999999999995 1.4929691285972371 0
3.1499999999999995 1.1754264805429429 0
3.4249999999999998 1.0166551565157955 0
3.6999999999999997 1.1754264805429424 0
3.6999999999999997 1.4929691285972353 0
3.6999999999999997 1.4929691285972351 0
3.6999999999999997 1.1754264805429424 0
4 1.002221399786055 0
4 1.6661742093541227 0
-4 1.492969128597236 0
-3.7249999999999996 1.6517404526243831 0
-3.7249999999999996 2 0
-4 2 0
-3.7249999999999996 1.6517404526243831 0
-3.4499999999999997 1.492969128597236 0
-3.1750000000000007 1.6517404526243824 0
-3.1750000000000007 2 0
-3.7249999999999996 2 0
-3.1750000000000007 1.6517404526243822 0
-2.9000000000000004 1.4929691285972351 0
-2.625 1.6517404526243824 0
-2.6250000000000004 2 0
-3.1750000000000007 2 0
-2.625 1.6517404526243822 0
-2.3500000000000005 1.4929691285972355 0
-2.0750000000000002 1.6517404526243826 0
-2.0750000000000002 2 0
-2.625 2 0
-2.0750000000000006 1.6517404526243828 0
-1.8000000000000009 1.492969128597236 0
-1.5250000000000001 1.6517404526243835 0
-1.5250000000000001 2 0
-2.0750000000000002 2 0
-1.5250000000000001 1.6517404526243837 0
-1.25 1.4929691285972368 0
-0.97500000000000064 1.6517404526243835 0
-0.97500000000000053 2 0
-1.5249999999999999 2 0
-0.97500000000000053 1.6517404526243837 0
-0.70000000000000062 1.4929691285972366 0
-0.4250000000000006 1.6517404526243837 0
-0.4250000000000006 2 0
-0.97500000000000031 2 0
-0.4250000000000006 1.6517404526243833 0
-0.15000000000000036 1.4929691285972362 0
0.12499999999999979 1.6517404526243833 0
0.12499999999999975 2 0
-0.42500000000000049 2 0
0.12499999999999975 1.6517404526243833 0
0.3999999999999998 1.4929691285972362 0
0.67499999999999971 1.6517404526243831 0
0.67499999999999971 2 0
0.12499999999999985 2 0
0.67499999999999971 1.6517404526243833 0
0.94999999999999962 1.4929691285972362 0
1.2250000000000001 1.6517404526243833 0
1.2250000000000001 2 0
0.6749999999999996 2 0
1.2250000000000001 1.6517404526243835 0
1.5 1.4929691285972364 0
1.7749999999999997 1.6517404526243833 0
1.7749999999999997 2 0
1.2250000000000001 2 0
1.7749999999999997 1.6517404526243831 0
2.0499999999999998 1.492969128597236 0
2.3249999999999993 1.6517404526243826 0
2.3249999999999993 2 0
1.7749999999999995 2 0
2.3249999999999993 1.6517404526243826 0
2.5999999999999996 1.4929691285972355 0
2.8750000000000009 1.6517404526243831 0
2.8750000000000004 2 0
2.3249999999999993 2 0
2.8750000000000009 1.6517404526243831 0
3.1499999999999995 1.4929691285972368 0
3.424999999999998 1.6517404526243831 0
3.424999999999998 2 0
2.8750000000000009 2 0
3.424999999999998 1.6517404526243831 0
3.6999999999999997 1.4929691285972351 0
4 1.6661742093541227 0
4 2 0
3.424999999999998 2 0
POLYGONS 135 899
4 0 1 2 3
5 4 5 6 7 8
5 9 10 11 12 13
5 14 15 16 17 18
5 19 20 21 22 23
5 24 25 26 27 28
5 29 30 31 32 33
5 34 35 36 37 38
5 39 40 41 42 43
5 44 45 46 47 48
5 49 50 51 52 53
5 54 55 56 57 58
5 59 60 61 62 63
5 64 65 66 67 68
5 69 70 71 72 73
6 74 75 76 77 78 79
6 80 81 82 83 84 85
6 86 87 88 89 90 91
6 92 93 94 95 96 97
6 98 99 100 101 102 103
6 104 105 106 107 108 109
6 110 111 112 113 114 115
6 116 117 118 119 120 121
6 122 123 124 125 126 127
6 128 129 130 131 132 133
6 134 135 136 137 138 139
6 140 141 142 143 144 145
6 146 147 148 149 150 151
6 152 153 154 155 156 157
4 158 159 160 161
4 162 163 164 165
6 166 167 168 169 170 171
6 172 173 174 175 176 177
6 178 179 180 181 182 183
6 184 185 186 187 188 189
6 190 191 192 193 194 195
6 196 197 198 199 200 201
6 202 203 204 205 206 207
6 208 209 210 211 212 213
6 214 215 216 217 218 219
6 220 221 222 223 224 225
6 226 227 228 229 230 231
6 232 233 234 235 236 237
6 238 239 240 241 242 243
6 244 245 246 247 248 249
6 250 251 252 253 254 255
6 256 257 258 259 260 261
6 262 263 264 265 266 267
6 268 269 270 271 272 273
6 274 275 276 277 278 279
6 280 281 282 283 284 285
6 286 287 288 289 290 291
6 292 293 294 295 296 297
6 298 299 300 301 302 303
6 304 305 306 307 308 309
6 310 311 312 313 314 315
6 316 317 318 319 320 321
6 322 323 324 325 326 327
6 328 329 330 331 332 333
4 334 335 336 337
4 338 339 340 341
6 342 343 344 345 346 347
6 348 349 350 351 352 353
6 354 355 356 357 358 359
6 360 361 362 363 364 365
6 366 367 368 369 370 371
6 372 373 374 375 376 377
6 378 379 380 381 382 383
6 384 385 386 387 388 389
6 390 391 392 393 394 395
6 396 397 398 399 400 401
6 402 403 404 405 406 407
6 408 409 410 411 412 413
6 414 415 416 417 418 419
6 420 421 422 423 424 425
6 426 427 428 429 430 431
6 432 433 434 435 436 437
6 438 439 440 441 442 443
6 444 445 446 447 448 449
6 450 451 452 453 454 455
6 456 457 458 459 460 461
6 462 463 464 465 466 467
6 468 469 470 471 472 473
6 474 475 476 477 478 479
6 480 481 482 483 484 485
6 486 487 488 489 490 491
6 492 493 494 495 496 497
6 498 499 500 501 502 503
6 504 505 506 507 508 509
4 510 511 512 513
4 514 515 516 517
6 518 519 520 521 522 523
6 524 525 526 527 528 529
6 530 531 532 533 534 535
6 536 537 538 539 540 541
6 542 543 544 545 546 547
6 548 549 550 551 552 553
6 554 555 556 557 558 559
6 560 561 562 563 564 565
6 566 567 568 569 570 571
6 572 573 574 575 576 577
6 578 579 580 581 582 583
6 584 585 586 587 588 589
6 590 591 592 593 594 595
6 596 597 598 599 600 601
6 602 603 604 605 606 607
6 608 609 610 611 612 613
6 614 615 616 617 618 619
6 620 621 622 623 624 625
6 626 627 628 629 630 631
6 632 633 634 635 636 637
6 638 639 640 641 642 643
6 644 645 646 647 648 649
6 650 651 652 653 654 655
6 656 657 658 659 660 661
6 662 663 664 665 666 667
6 668 669 670 671 672 673
6 674 675 676 677 678 679
6 680 681 682 683 684 685
4 686 687 688 689
4 690 691 692 693
5 694 695 696 697 698
5 699 700 701 702 703
5 704 705 706 707 708
5 709 710 711 712 713
5 714 715 716 717 718
5 719 720 721 722 723
5 724 725 726 727 728
5 729 730 731 732 733
5 734 735 736 737 738
5 739 740 741 742 743
5 744 745 746 747 748
5 749 750 751 752 753
5 754 755 756 757 758
5 759 760 761 762 763
CELL_DATA 135
SCALARS generator_id unsigned_long 1
LOOKUP_TABLE default
0
1
2
3
4
5
6
7
8
9
10
11
12
13
14
15
16
17
18
19
20
21
22
23
24
25
26
27
28
29
30
31
32
33
34
35
36
37
38
39
40
41
42
43
44
45
46
47
48
49
50
51
52
53
54
55
56
57
58
59
60
61
62
63
64
65
66
67
68
69
70
71
72
73
74
75
76
77
78
79
80
81
82
83
84
85
86
87
88
89
90
91
92
93
94
95
96
97
98
99
100
101
102
103
104
105
106
107
108
109
110
111
112
113
114
115
116
117
118
119
120
121
122
123
124
125
126
127
128
129
130
131
132
133
134
SCALARS area double 1
LOOKUP_TABLE default
0.065493171161197794
0.13098634232239548
0.13098634232239675
0.13098634232239625
0.1309863423223962
0.13098634232239664
0.13098634232239686
0.13098634232239664
0.13098634232239609
0.13098634232239609
0.13098634232239625
0.13098634232239659
0.13098634232239581
0.13098634232239673
0.13477520346395344
0.26197268464479462
0.26197268464479412
0.26197268464479068
0.26197268464479345
0.26197268464479251
0.26197268464479245
0.2619726846447924
0.26197268464479262
0.2619726846447929
0.26197268464479267
0.26197268464479295
0.26197268464479312
0.26197268464479151
0.26197268464479168
0.14722431864335617
0.1309863423223972
0.26197268464478995
0.26197268464479262
0.26197268464479323
0.26197268464479317
0.26197268464479212
0.26197268464479284
0.26197268464479284
0.26197268464479301
0.26197268464479295
0.26197268464479262
0.26197268464479312
0.26197268464479212
0.26197268464479317
0.26955040692790644
0.26197268464479395
0.26197268464479256
0.26197268464479262
0.26197268464479295
0.26197268464479306
0.26197268464479262
0.26197268464479284
0.26197268464479262
0.26197268464479279
0.26197268464479284
0.2619726846447929
0.26197268464479195
0.26197268464479384
0.26197268464479406
0.14722431864335528
0.13098634232239498
0.26197268464479267
0.26197268464479317
0.26197268464479273
0.26197268464479284
0.26197268464479273
0.26197268464479273
0.26197268464479273
0.26197268464479273
0.26197268464479267
0.2619726846447929
0.26197268464479279
0.26197268464479206
0.26197268464479134
0.26955040692790522
0.26197268464479162
0.2619726846447934
0.26197268464479301
0.26197268464479212
0.26197268464479273
0.26197268464479256
0.26197268464479267
0.26197268464479267
0.26197268464479262
0.26197268464479262
0.26197268464479295
0.26197268464479195
0.26197268464479445
0.26197268464479112
0.14722431864335594
0.130986342322398
0.26197268464479168
0.26197268464479295
0.26197268464479218
0.26197268464479267
0.26197268464479273
0.26197268464479251
0.26197268464479273
0.26197268464479284
0.26197268464479251
0.26197268464479284
0.2619726846447934
0.26197268464479245
0.26197268464479317
0.26955040692790722
0.26197268464479267
0.26197268464479179
0.26197268464479162
0.2619726846447919
0.26197268464479317
0.26197268464479284
0.26197268464479295
0.26197268464479251
0.26197268464479251
0.26197268464479273
0.26197268464479212
0.2619726846447919
0.26197268464479251
0.26197268464479262
0.14722431864335417
0.11760243258202729
0.23520486516405414
0.23520486516405559
0.23520486516405514
0.23520486516405492
0.23520486516405409
0.23520486516405442
0.23520486516405481
0.23520486516405464
0.23520486516405484
0.23520486516405437
0.23520486516405459
0.23520486516405553
0.23520486516405337
0.24373093188932449
SCALARS boundary_type unsigned_char 1
LOOKUP_TABLE default
1
1
1
1
1
1
1
1
1
1
1
1
1
1
1
1
0
0
0
0
0
0
0
0
0
0
0
0
0
1
1
0
0
0
0
0
0
0
0
0
0
0
0
0
1
1
0
0
0
0
0
0
0
0
0
0
0
0
0
1
1
0
0
0
0
0
0
0
0
0
0
0
0
0
1
1
0
0
0
0
0
0
0
0
0
0
0
0
0
1
1
0
0
0
0
0
0
0
0
0
0
0
0
0
1
1
0
0
0
0
0
0
0
0
0
0
0
0
0
1
1
1
1
1
1
1
1
1
1
1
1
1
1
1
1
SCALARS centroid_x double 1
LOOKUP_TABLE default
-3.8777777777777755
-3.4499999999999975
-2.9000000000000008
-2.3500000000000028
-1.7999999999999994
-1.2500000000000007
-0.70000000000000051
-0.15000000000000016
0.40000000000000008
0.94999999999999962
1.5000000000000009
2.0499999999999998
2.6000000000000023
3.1500000000000017
3.7080767514502444
-3.724999999999997
-3.1749999999999998
-2.6250000000000018
-2.0750000000000002
-1.525000000000001
-0.97500000000000009
-0.42500000000000032
0.12499999999999965
0.67499999999999982
1.2250000000000001
1.7749999999999997
2.3250000000000011
2.8750000000000004
3.424999999999998
3.8676470588235259
-3.8777777777777751
-3.4500000000000006
-2.9000000000000004
-2.350000000000001
-1.8
-1.2500000000000011
-0.70000000000000062
-0.15000000000000038
0.39999999999999952
0.94999999999999996
1.4999999999999996
2.0499999999999989
2.5999999999999996
3.1499999999999981
3.708076751450244
-3.7250000000000014
-3.1750000000000012
-2.6250000000000009
-2.0750000000000011
-1.5249999999999999
-0.97500000000000031
-0.42500000000000043
0.12499999999999963
0.67499999999999971
1.2249999999999994
1.7749999999999999
2.3249999999999997
2.875
3.424999999999998
3.8676470588235281
-3.8777777777777755
-3.4500000000000015
-2.8999999999999995
-2.350000000000001
-1.8000000000000007
-1.2500000000000002
-0.70000000000000018
-0.1500000000000003
0.39999999999999969
0.94999999999999973
1.4999999999999998
2.0499999999999994
2.5999999999999988
3.1499999999999999
3.7080767514502475
-3.7249999999999996
-3.1749999999999989
-2.6249999999999996
-2.0750000000000006
-1.5250000000000004
-0.97500000000000009
-0.42500000000000038
0.12499999999999965
0.67499999999999982
1.2249999999999999
1.7750000000000001
2.3249999999999993
2.8749999999999991
3.4249999999999994
3.8676470588235277
-3.8777777777777778
-3.449999999999998
-2.9000000000000008
-2.3500000000000005
-1.8000000000000007
-1.2500000000000009
-0.70000000000000051
-0.15000000000000038
0.39999999999999974
0.94999999999999984
1.4999999999999998
2.0499999999999998
2.5999999999999996
3.1500000000000004
3.7080767514502431
-3.7249999999999974
-3.1749999999999967
-2.625
-2.0750000000000011
-1.5250000000000012
-0.97500000000000042
-0.42500000000000032
0.12499999999999968
0.67499999999999971
1.2249999999999999
1.7749999999999999
2.3250000000000006
2.875
3.424999999999998
3.8676470588235299
-3.8710082433500266
-3.4500000000000015
-2.8999999999999999
-2.3499999999999996
-1.7999999999999998
-1.2500000000000004
-0.70000000000000018
-0.15000000000000036
0.39999999999999969
0.94999999999999973
1.5000000000000002
2.0500000000000003
2.5999999999999992
3.1499999999999999
3.7100540887705797
SCALARS centroid_y double 1
LOOKUP_TABLE default
-1.8765111924233309
-1.87651119242333
-1.8765111924233302
-1.8765111924233306
-1.8765111924233284
-1.8765111924233309
-1.8765111924233286
-1.8765111924233295
-1.8765111924233298
-1.8765111924233295
-1.8765111924233318
-1.8765111924233291
-1.8765111924233322
-1.876511192423332
-1.8778508717628142
-1.5236860279185584
-1.5236860279185591
-1.5236860279185598
-1.523686027918558
-1.5236860279185593
-1.5236860279185578
-1.523686027918558
-1.5236860279185591
-1.5236860279185593
-1.5236860279185591
-1.5236860279185582
-1.5236860279185589
-1.5236860279185587
-1.5236860279185584
-1.523686027918558
-1.0473720558371169
-1.0473720558371176
-1.0473720558371169
-1.0473720558371178
-1.0473720558371173
-1.047372055837118
-1.0473720558371178
-1.0473720558371178
-1.0473720558371173
-1.0473720558371173
-1.0473720558371171
-1.0473720558371167
-1.0473720558371171
-1.0473720558371173
-1.0473720558371176
-0.5710580837556759
-0.57105808375567635
-0.57105808375567624
-0.57105808375567602
-0.57105808375567602
-0.57105808375567635
-0.57105808375567579
-0.57105808375567613
-0.57105808375567613
-0.57105808375567602
-0.57105808375567635
-0.5710580837556759
-0.57105808375567579
-0.57105808375567535
-0.57105808375567546
-0.09474411167423398
-0.094744111674234396
-0.094744111674234854
-0.094744111674234702
-0.094744111674234549
-0.09474411167423466
-0.094744111674234785
-0.094744111674234813
-0.094744111674234757
-0.094744111674234785
-0.09474411167423491
-0.094744111674234854
-0.094744111674234882
-0.094744111674234369
-0.09474411167423448
0.38156986040720586
0.38156986040720664
0.38156986040720664
0.38156986040720675
0.38156986040720636
0.38156986040720636
0.38156986040720658
0.38156986040720653
0.38156986040720653
0.38156986040720664
0.38156986040720642
0.3815698604072062
0.38156986040720597
0.38156986040720586
0.38156986040720547
0.85788383248864841
0.85788383248864741
0.85788383248864863
0.85788383248864852
0.85788383248864786
0.85788383248864775
0.85788383248864808
0.85788383248864786
0.85788383248864786
0.85788383248864775
0.85788383248864786
0.85788383248864808
0.8578838324886483
0.85788383248864852
0.85788383248864752
1.3341978045700895
1.3341978045700877
1.3341978045700893
1.3341978045700893
1.3341978045700893
1.3341978045700895
1.3341978045700889
1.3341978045700889
1.3341978045700889
1.3341978045700895
1.3341978045700889
1.3341978045700893
1.3341978045700889
1.3341978045700891
1.3341978045700884
1.7837212770111721
1.7837212770111717
1.7837212770111692
1.7837212770111706
1.7837212770111712
1.7837212770111712
1.7837212770111708
1.7837212770111708
1.7837212770111706
1.7837212770111712
1.783721277011171
1.7837212770111714
1.7837212770111706
1.783721277011171
1.7853210474238659
