<?xml version="1.0"?>
<VTKFile type="UnstructuredGrid" version="0.1" byte_order="LittleEndian">
  <UnstructuredGrid>
    <Piece NumberOfPoints="135" NumberOfCells="135">
      <Points>
        <DataArray type="Float64" NumberOfComponents="3" format="ascii">
          -3.8777777777777755 -1.8765111924233309 0
          -3.4499999999999975 -1.87651119242333 0
          -2.9000000000000008 -1.8765111924233302 0
          -2.3500000000000028 -1.8765111924233306 0
          -1.7999999999999994 -1.8765111924233284 0
          -1.2500000000000007 -1.8765111924233309 0
          -0.70000000000000051 -1.8765111924233286 0
          -0.15000000000000016 -1.8765111924233295 0
          0.40000000000000008 -1.8765111924233298 0
          0.94999999999999962 -1.8765111924233295 0
          1.5000000000000009 -1.8765111924233318 0
          2.0499999999999998 -1.8765111924233291 0
          2.6000000000000023 -1.8765111924233322 0
          3.1500000000000017 -1.876511192423332 0
          3.7080767514502444 -1.8778508717628142 0
          -3.724999999999997 -1.5236860279185584 0
          -3.1749999999999998 -1.5236860279185591 0
          -2.6250000000000018 -1.5236860279185598 0
          -2.0750000000000002 -1.523686027918558 0
          -1.525000000000001 -1.5236860279185593 0
          -0.97500000000000009 -1.5236860279185578 0
          -0.42500000000000032 -1.523686027918558 0
          0.12499999999999965 -1.5236860279185591 0
          0.67499999999999982 -1.5236860279185593 0
          1.2250000000000001 -1.5236860279185591 0
          1.7749999999999997 -1.5236860279185582 0
          2.3250000000000011 -1.5236860279185589 0
          2.8750000000000004 -1.5236860279185587 0
          3.424999999999998 -1.5236860279185584 0
          3.8676470588235259 -1.523686027918558 0
          -3.8777777777777751 -1.0473720558371169 0
          -3.4500000000000006 -1.0473720558371176 0
          -2.9000000000000004 -1.0473720558371169 0
          -2.350000000000001 -1.0473720558371178 0
          -1.8 -1.0473720558371173 0
          -1.2500000000000011 -1.047372055837118 0
          -0.70000000000000062 -1.0473720558371178 0
          -0.15000000000000038 -1.0473720558371178 0
          0.39999999999999952 -1.0473720558371173 0
          0.94999999999999996 -1.0473720558371173 0
          1.4999999999999996 -1.0473720558371171 0
          2.0499999999999989 -1.0473720558371167 0
          2.5999999999999996 -1.0473720558371171 0
          3.1499999999999981 -1.0473720558371173 0
          3.708076751450244 -1.0473720558371176 0
          -3.7250000000000014 -0.5710580837556759 0
          -3.1750000000000012 -0.57105808375567635 0
          -2.6250000000000009 -0.57105808375567624 0
          -2.0750000000000011 -0.57105808375567602 0
          -1.5249999999999999 -0.57105808375567602 0
          -0.97500000000000031 -0.57105808375567635 0
          -0.42500000000000043 -0.57105808375567579 0
          0.12499999999999963 -0.57105808375567613 0
          0.67499999999999971 -0.57105808375567613 0
          1.2249999999999994 -0.57105808375567602 0
          1.7749999999999999 -0.57105808375567635 0
          2.3249999999999997 -0.5710580837556759 0
          2.875 -0.57105808375567579 0
          3.424999999999998 -0.57105808375567535 0
          3.8676470588235281 -0.57105808375567546 0
          -3.8777777777777755 -0.09474411167423398 0
          -3.4500000000000015 -0.094744111674234396 0
          -2.8999999999999995 -0.094744111674234854 0
          -2.350000000000001 -0.094744111674234702 0
          -1.8000000000000007 -0.094744111674234549 0
          -1.2500000000000002 -0.09474411167423466 0
          -0.70000000000000018 -0.094744111674234785 0
          -0.1500000000000003 -0.094744111674234813 0
          0.39999999999999969 -0.094744111674234757 0
          0.94999999999999973 -0.094744111674234785 0
          1.4999999999999998 -0.09474411167423491 0
          2.0499999999999994 -0.094744111674234854 0
          2.5999999999999988 -0.094744111674234882 0
          3.1499999999999999 -0.094744111674234369 0
          3.7080767514502475 -0.09474411167423448 0
          -3.7249999999999996 0.38156986040720586 0
          -3.1749999999999989 0.38156986040720664 0
          -2.6249999999999996 0.38156986040720664 0
          -2.0750000000000006 0.38156986040720675 0
          -1.5250000000000004 0.38156986040720636 0
          -0.97500000000000009 0.38156986040720636 0
          -0.42500000000000038 0.38156986040720658 0
          0.12499999999999965 0.38156986040720653 0
          0.67499999999999982 0.38156986040720653 0
          1.2249999999999999 0.38156986040720664 0
          1.7750000000000001 0.38156986040720642 0
          2.3249999999999993 0.3815698604072062 0
          2.8749999999999991 0.38156986040720597 0
          3.4249999999999994 0.38156986040720586 0
          3.8676470588235277 0.38156986040720547 0
          -3.8777777777777778 0.85788383248864841 0
          -3.449999999999998 0.85788383248864741 0
          -2.9000000000000008 0.85788383248864863 0
          -2.3500000000000005 0.85788383248864852 0
          -1.8000000000000007 0.85788383248864786 0
          -1.2500000000000009 0.85788383248864775 0
          -0.70000000000000051 0.85788383248864808 0
          -0.15000000000000038 0.85788383248864786 0
          0.39999999999999974 0.85788383248864786 0
          0.94999999999999984 0.85788383248864775 0
          1.4999999999999998 0.85788383248864786 0
          2.0499999999999998 0.85788383248864808 0
          2.5999999999999996 0.8578838324886483 0
          3.1500000000000004 0.85788383248864852 0
          3.7080767514502431 0.85788383248864752 0
          -3.7249999999999974 1.3341978045700895 0
          -3.1749999999999967 1.3341978045700877 0
          -2.625 1.3341978045700893 0
          -2.0750000000000011 1.3341978045700893 0
          -1.5250000000000012 1.3341978045700893 0
          -0.97500000000000042 1.3341978045700895 0
          -0.42500000000000032 1.3341978045700889 0
          0.12499999999999968 1.3341978045700889 0
          0.67499999999999971 1.3341978045700889 0
          1.2249999999999999 1.3341978045700895 0
          1.7749999999999999 1.3341978045700889 0
          2.3250000000000006 1.3341978045700893 0
          2.875 1.3341978045700889 0
          3.424999999999998 1.3341978045700891 0
          3.8676470588235299 1.3341978045700884 0
          -3.8710082433500266 1.7837212770111721 0
          -3.4500000000000015 1.7837212770111717 0
          -2.8999999999999999 1.7837212770111692 0
          -2.3499999999999996 1.7837212770111706 0
          -1.7999999999999998 1.7837212770111712 0
          -1.2500000000000004 1.7837212770111712 0
          -0.70000000000000018 1.7837212770111708 0
          -0.15000000000000036 1.7837212770111708 0
          0.39999999999999969 1.7837212770111706 0
          0.94999999999999973 1.7837212770111712 0
          1.5000000000000002 1.783721277011171 0
          2.0500000000000003 1.7837212770111714 0
          2.5999999999999992 1.7837212770111706 0
          3.1499999999999999 1.783721277011171 0
          3.7100540887705797 1.7853210474238659 0
        </DataArray>
      </Points>
      <Cells>
        <DataArray type="UInt32" Name="connectivity" format="ascii">
          0 1 2 3 4 5 6 7 8 9 10 11 12 13 14 15 16 17 18 19 20 21 22 23 24 25 26 27 28 29 30 31 32 33 34 35 36 37 38 39 40 41 42 43 44 45 46 47 48 49 50 51 52 53 54 55 56 57 58 59 60 61 62 63 64 65 66 67 68 69 70 71 72 73 74 75 76 77 78 79 80 81 82 83 84 85 86 87 88 89 90 91 92 93 94 95 96 97 98 99 100 101 102 103 104 105 106 107 108 109 110 111 112 113 114 115 116 117 118 119 120 121 122 123 124 125 126 127 128 129 130 131 132 133 134
        </DataArray>
        <DataArray type="UInt32" Name="offsets" format="ascii">
          1 2 3 4 5 6 7 8 9 10 11 12 13 14 15 16 17 18 19 20 21 22 23 24 25 26 27 28 29 30 31 32 33 34 35 36 37 38 39 40 41 42 43 44 45 46 47 48 49 50 51 52 53 54 55 56 57 58 59 60 61 62 63 64 65 66 67 68 69 70 71 72 73 74 75 76 77 78 79 80 81 82 83 84 85 86 87 88 89 90 91 92 93 94 95 96 97 98 99 100 101 102 103 104 105 106 107 108 109 110 111 112 113 114 115 116 117 118 119 120 121 122 123 124 125 126 127 128 129 130 131 132 133 134 135
        </DataArray>
        <DataArray type="UInt8" Name="types" format="ascii">
          1 1 1 1 1 1 1 1 1 1 1 1 1 1 1 1 1 1 1 1 1 1 1 1 1 1 1 1 1 1 1 1 1 1 1 1 1 1 1 1 1 1 1 1 1 1 1 1 1 1 1 1 1 1 1 1 1 1 1 1 1 1 1 1 1 1 1 1 1 1 1 1 1 1 1 1 1 1 1 1 1 1 1 1 1 1 1 1 1 1 1 1 1 1 1 1 1 1 1 1 1 1 1 1 1 1 1 1 1 1 1 1 1 1 1 1 1 1 1 1 1 1 1 1 1 1 1 1 1 1 1 1 1 1 1
        </DataArray>
      </Cells>
      <CellData Scalars="generator_id">
        <DataArray type="UInt64" Name="generator_id" format="ascii">
          0 1 2 3 4 5 6 7 8 9 10 11 12 13 14 15 16 17 18 19 20 21 22 23 24 25 26 27 28 29 30 31 32 33 34 35 36 37 38 39 40 41 42 43 44 45 46 47 48 49 50 51 52 53 54 55 56 57 58 59 60 61 62 63 64 65 66 67 68 69 70 71 72 73 74 75 76 77 78 79 80 81 82 83 84 85 86 87 88 89 90 91 92 93 94 95 96 97 98 99 100 101 102 103 104 105 106 107 108 109 110 111 112 113 114 115 116 117 118 119 120 121 122 123 124 125 126 127 128 129 130 131 132 133 134
        </DataArray>
        <DataArray type="UInt8" Name="boundary_type" format="ascii">
          1 1 1 1 1 1 1 1 1 1 1 1 1 1 1 1 0 0 0 0 0 0 0 0 0 0 0 0 0 1 1 0 0 0 0 0 0 0 0 0 0 0 0 0 1 1 0 0 0 0 0 0 0 0 0 0 0 0 0 1 1 0 0 0 0 0 0 0 0 0 0 0 0 0 1 1 0 0 0 0 0 0 0 0 0 0 0 0 0 1 1 0 0 0 0 0 0 0 0 0 0 0 0 0 1 1 0 0 0 0 0 0 0 0 0 0 0 0 0 1 1 1 1 1 1 1 1 1 1 1 1 1 1 1 1
        </DataArray>
      </CellData>
    </Piece>
  </UnstructuredGrid>
</VTKFile>
